<?xml version="1.0" standalone="no"?>
<!DOCTYPE svg PUBLIC "-//W3C//DTD SVG 1.1//EN" "http://www.w3.org/Graphics/SVG/1.1/DTD/svg11.dtd" >
<svg>
<metadata>
Created by FontForge 20090914 at Tue Jan 24 02:47:23 2017
 By www-data
Copyright 2015 Samsung Electronics Co., Ltd. All Rights Reserved.
</metadata>
<defs>
<font id="SamsungOne-200C" horiz-adv-x="0" >
  <font-face 
    font-family="SamsungOne 200C"
    font-weight="250"
    font-stretch="condensed"
    units-per-em="1024"
    panose-1="2 11 2 6 3 3 3 2 2 4"
    ascent="794"
    descent="-230"
    x-height="526"
    cap-height="724"
    bbox="-629 -304 2226 1047"
    underline-thickness="20"
    underline-position="-98"
    unicode-range="U+0002-U+1F16B"
  />
<missing-glyph horiz-adv-x="640" 
d="M542 0h-35h-382h-27v724h35h409v-724zM507 692h-356l356 -628v628zM133 32h356l-356 628v-628z" />
    <glyph glyph-name="fi" unicode="fi" horiz-adv-x="511" 
d="M101 497h-84.002v29h84v106c0 44.667 12.5 79.5 37.5 104.5s59.833 37.5 104.5 37.5c14.667 0 26.334 -1.33301 35.001 -4v-30c-12 2 -23.667 3 -35 3c-35.333 0 -62.166 -9.5 -80.499 -28.5s-27.5 -46.833 -27.5 -83.5v-105h125v-29h-125v-497h-34v497zM380.998 526h34
v-526h-34v526zM376.498 651.5c-5 5.66699 -7.5 13.5 -7.5 23.5c0 10.667 2.5 18.834 7.5 24.501s12.167 8.5 21.5 8.5s16.5 -2.83301 21.5 -8.5s7.5 -13.5 7.5 -23.5c0 -10.667 -2.5 -18.834 -7.5 -24.501s-12.167 -8.5 -21.5 -8.5s-16.5 2.83301 -21.5 8.5z" />
    <glyph glyph-name="fl" unicode="fl" horiz-adv-x="533" 
d="M101 497h-84.002v29h84v106c0 44.667 12.5 79.5 37.5 104.5s59.833 37.5 104.5 37.5c14.667 0 26.334 -1.33301 35.001 -4v-30c-12 2 -23.667 3 -35 3c-35.333 0 -62.166 -9.5 -80.499 -28.5s-27.5 -46.833 -27.5 -83.5v-105h125v-29h-125v-497h-34v497zM376.998 71v699
h34v-696c0 -16.667 3.83301 -29 11.5 -37s19.834 -12 36.501 -12c10 0 21.333 1.33301 34 4l4 -28c-14.667 -4 -29.334 -6 -44.001 -6c-50.667 0 -76 25.333 -76 76z" />
    <glyph glyph-name=".notdef" horiz-adv-x="640" 
d="M542 0h-35h-382h-27v724h35h409v-724zM507 692h-356l356 -628v628zM133 32h356l-356 628v-628z" />
    <glyph glyph-name="uni0000" 
 />
    <glyph glyph-name="uni0002" 
 />
    <glyph glyph-name="uni0008" horiz-adv-x="260" 
 />
    <glyph glyph-name="uni0009" unicode="&#x9;" horiz-adv-x="512" 
 />
    <glyph glyph-name="nonmarkingreturn" unicode="&#xd;" 
 />
    <glyph glyph-name="uni001D" horiz-adv-x="220" 
 />
    <glyph glyph-name="space" unicode=" " horiz-adv-x="220" 
 />
    <glyph glyph-name="exclam" unicode="!" horiz-adv-x="302" 
d="M132 724h37l-4 -559h-29zM126.5 -3c-5.66699 6 -8.5 14.666 -8.5 25.999s2.83301 20 8.5 26s13.834 9 24.501 9s18.834 -3 24.501 -9s8.5 -14.333 8.5 -25c0 -11.333 -2.83301 -20.166 -8.5 -26.499s-13.834 -9.5 -24.501 -9.5s-18.834 3 -24.501 9z" />
    <glyph glyph-name="quotedbl" unicode="&#x22;" horiz-adv-x="306" 
d="M205 724h33l-3 -211h-27zM68 724h33l-3 -211h-27z" />
    <glyph glyph-name="numbersign" unicode="#" horiz-adv-x="589" 
d="M422 474l-33 -224h118v-28h-122l-33 -222h-33l33 222h-155l-33 -222h-33l33 222h-123v28h127l33 224h-121v28h125l33 222h33l-33 -222h155l33 222h33l-33 -222h122v-28h-126zM389 474h-155l-33 -224h155z" />
    <glyph glyph-name="dollar" unicode="$" horiz-adv-x="497" 
d="M391.5 63c-31 -32.667 -74.501 -51.332 -130.501 -55.999v-92h-33v91c-66.667 1.33301 -127 18.666 -181 51.999l13 28c53.333 -31.333 109.333 -47.333 168 -48v315l-30 8c-50 14 -86.667 35.167 -110 63.5s-35 65.166 -35 110.499c0 54.667 15.333 97.834 46 129.501
s73.667 49.167 129 52.5v92h33v-91c56.667 -2 109.334 -15 158.001 -39l-13 -30c-50.667 22 -99 34.333 -145 37v-306l32 -9c49.333 -14 85.833 -35.167 109.5 -63.5s35.5 -66.166 35.5 -113.499c0 -54.667 -15.5 -98.334 -46.5 -131.001zM114.499 448.002
c18.333 -22.667 50.501 -40.665 96.501 -53.998l17 -5v297c-46.667 -2.66699 -81.834 -16.334 -105.501 -41.001s-35.5 -59.667 -35.5 -105c0 -38.667 9.16699 -69.334 27.5 -92.001zM367 83.5039c24 25.667 36 61.5 36 107.5c0 39.333 -9.5 70.5 -28.5 93.5
s-50.5 40.833 -94.5 53.5l-19 5v-304c46.667 4 82 18.833 106 44.5z" />
    <glyph glyph-name="percent" unicode="%" horiz-adv-x="842" 
d="M92.5 362c-21.667 36.667 -32.5 90 -32.5 160s10.833 123.333 32.5 160s51.834 55 90.501 55s68.834 -18.333 90.501 -55s32.5 -90 32.5 -160s-10.833 -123.333 -32.5 -160s-51.834 -55 -90.501 -55s-68.834 18.333 -90.501 55zM594 724h36l-382 -724h-36zM248.5 384.5
c15 31 22.5 76.833 22.5 137.5s-7.5 106.5 -22.5 137.5s-36.833 46.5 -65.5 46.5s-50.5 -15.5 -65.5 -46.5s-22.5 -76.833 -22.5 -137.5s7.5 -106.5 22.5 -137.5s36.833 -46.5 65.5 -46.5s50.5 15.5 65.5 46.5zM568.5 42c-21.667 36.667 -32.5 90 -32.5 160
s10.833 123.333 32.5 160s51.834 55 90.501 55s68.834 -18.333 90.501 -55s32.5 -90 32.5 -160s-10.833 -123.333 -32.5 -160s-51.834 -55 -90.501 -55s-68.834 18.333 -90.501 55zM724.5 64.5c15 31 22.5 76.833 22.5 137.5s-7.5 106.5 -22.5 137.5
s-36.833 46.5 -65.5 46.5s-50.5 -15.5 -65.5 -46.5s-22.5 -76.833 -22.5 -137.5s7.5 -106.5 22.5 -137.5s36.833 -46.5 65.5 -46.5s50.5 15.5 65.5 46.5z" />
    <glyph glyph-name="ampersand" unicode="&#x26;" horiz-adv-x="582" 
d="M522 -6l-93 120.001c-26 -44 -55 -76.167 -87 -96.5s-69 -30.5 -111 -30.5c-52.667 0 -93.667 14 -123 42s-44 66.667 -44 116c0 63.333 27.333 119 82 167l78 68l-44 57c-25.333 32.667 -43.166 60 -53.499 82s-15.5 46 -15.5 72c0 46 14 81.833 42 107.5
s67 38.5 117 38.5c49.333 0 87.666 -12.333 114.999 -37s41 -58.667 41 -102c0 -31.333 -8.33301 -60.333 -25 -87s-46 -58.334 -88 -95.001l-45 -39l158 -204c1.33301 4 4 10 8 18l77 167h32l-81 -180l-15 -32l100 -130zM249 402.001l46.998 42.002
c36.667 32.667 61.834 59.5 75.501 80.5s20.5 44.167 20.5 69.5c0 36 -10.667 63.833 -32 83.5s-51.666 29.5 -90.999 29.5s-70 -9.83301 -92 -29.5s-33 -47.834 -33 -84.501c0 -20.667 4.5 -40.834 13.5 -60.501s25.5 -45.167 49.5 -76.5zM328.998 46.5029
c28 19.667 54.667 51.167 80 94.5l-166 214l-68 -59c-28 -24 -47.833 -47.333 -59.5 -70s-17.5 -47.667 -17.5 -75c0 -42 11.667 -74.833 35 -98.5s56.333 -35.5 99 -35.5c36.667 0 69 9.83301 97 29.5z" />
    <glyph glyph-name="quotesingle" unicode="'" horiz-adv-x="169" 
d="M68 724h33l-3 -211h-27z" />
    <glyph glyph-name="parenleft" unicode="(" horiz-adv-x="268" 
d="M94 93c-22.667 78 -34 160.668 -34 248.001c0 84 11.333 165.167 34 243.5s54 145.166 94 200.499l22 -16c-38 -55.333 -66.667 -119.333 -86 -192s-29 -151.334 -29 -236.001c0 -84 9.66699 -162.167 29 -234.5s48 -136.166 86 -191.499l-22 -16
c-40 51.333 -71.333 116 -94 194z" />
    <glyph glyph-name="parenright" unicode=")" horiz-adv-x="268" 
d="M58 -85c38 55.333 66.667 119.165 86 191.498s29 150.5 29 234.5c0 84.667 -9.66699 163.334 -29 236.001s-48 136.667 -86 192l22 16c40 -55.333 71.333 -122.166 94 -200.499s34 -159.5 34 -243.5c0 -87.333 -11.333 -170 -34 -248s-54 -142.667 -94 -194z" />
    <glyph glyph-name="asterisk" unicode="*" horiz-adv-x="494" 
d="M268 517l104 -143l-25 -18l-100 142l-100 -142l-25 18l104 143l-158 50l10 30l155 -53l-2 180h32l-2 -180l155 53l10 -30z" />
    <glyph glyph-name="plus" unicode="+" horiz-adv-x="520" 
d="M459 348h-182v-210h-34v210h-182v32h182v211h34v-211h182v-32z" />
    <glyph glyph-name="comma" unicode="," horiz-adv-x="185" 
d="M16 -158c24 24.667 40.667 48.333 50 71s14 50.667 14 84c0 18.667 -1.33301 38.667 -4 60h36c2.66699 -21.333 4 -41 4 -59c0 -39.333 -6.33301 -72.5 -19 -99.5s-33.667 -52.5 -63 -76.5z" />
    <glyph glyph-name="hyphen" unicode="-" horiz-adv-x="359" 
d="M57 307h245v-31h-245v31z" />
    <glyph glyph-name="period" unicode="." horiz-adv-x="204" 
d="M77.5 -3c-5.66699 6 -8.5 14.666 -8.5 25.999s2.83301 20 8.5 26s13.834 9 24.501 9s18.834 -3 24.501 -9s8.5 -14.333 8.5 -25c0 -11.333 -2.83301 -20.166 -8.5 -26.499s-13.834 -9.5 -24.501 -9.5s-18.834 3 -24.501 9z" />
    <glyph glyph-name="slash" unicode="/" horiz-adv-x="386" 
d="M327 737h33l-301 -823h-32z" />
    <glyph glyph-name="zero" unicode="0" horiz-adv-x="566" 
d="M123.5 79c-35.667 61.333 -53.5 155.666 -53.5 282.999s17.833 221.666 53.5 282.999s88.834 92 159.501 92s123.834 -30.667 159.501 -92s53.5 -155.666 53.5 -282.999s-17.833 -221.666 -53.5 -282.999s-88.834 -92 -159.501 -92s-123.834 30.667 -159.501 92z
M418 101.5c28.667 55.667 43 142.5 43 260.5s-14.333 204.833 -43 260.5s-73.667 83.5 -135 83.5s-106.333 -27.833 -135 -83.5s-43 -142.5 -43 -260.5s14.333 -204.833 43 -260.5s73.667 -83.5 135 -83.5s106.333 27.833 135 83.5z" />
    <glyph glyph-name="one" unicode="1" horiz-adv-x="387" 
d="M253 724v-724h-34v688l-164 -65l-11 27l179 74h30z" />
    <glyph glyph-name="two" unicode="2" horiz-adv-x="475" 
d="M410 31v-31.002h-367v31l242 330c30.667 42 52.167 77.5 64.5 106.5s18.5 57.833 18.5 86.5c0 46 -13 82.5 -39 109.5s-61.333 40.5 -106 40.5c-28 0 -56.833 -5.16699 -86.5 -15.5s-55.834 -24.833 -78.501 -43.5l-16 27c23.333 20 51.333 35.833 84 47.5
s65.334 17.5 98.001 17.5c54.667 0 98 -16.333 130 -49s48 -76.667 48 -132c0 -33.333 -7 -66.166 -21 -98.499s-37.667 -71.166 -71 -116.499l-228 -310h328z" />
    <glyph glyph-name="three" unicode="3" horiz-adv-x="502" 
d="M375.5 362.5c34.333 -37.667 51.5 -88.834 51.5 -153.501c0 -67.333 -18.833 -121.166 -56.5 -161.499s-88.167 -60.5 -151.5 -60.5c-31.333 0 -62.833 5 -94.5 15s-59.167 23 -82.5 39l15 30c23.333 -16.667 49.333 -29.5 78 -38.5s56.667 -13.5 84 -13.5
c52.667 0 94.667 17 126 51s47 79.667 47 137c0 55.333 -15 99.333 -45 132s-70.333 49 -121 49c-24.667 0 -46.667 -3 -66 -9l-17 22l220 292h-311v31h354v-31l-213 -278c10.667 2.66699 25 4 43 4c58.667 0 105.167 -18.833 139.5 -56.5z" />
    <glyph glyph-name="four" unicode="4" horiz-adv-x="519" 
d="M465 201v-31h-89v-170h-33v170h-309v32l296 522h46v-523h89zM343 201v484l-271 -484h271z" />
    <glyph glyph-name="five" unicode="5" horiz-adv-x="496" 
d="M374 376.5c34.667 -39.667 52.001 -92.834 52.001 -159.501c0 -70 -19 -125.833 -57 -167.5s-89.333 -62.5 -154 -62.5c-30 0 -59.833 4.5 -89.5 13.5s-54.834 21.167 -75.501 36.5l15 30c21.333 -15.333 45 -27.166 71 -35.499s52.333 -12.5 79 -12.5
c54 0 96.833 17.667 128.5 53s47.5 83 47.5 143c0 58 -14.667 104.167 -44 138.5s-69 51.5 -119 51.5c-22.667 0 -45.5 -3.33301 -68.5 -10s-43.167 -15.667 -60.5 -27l-21 11l20 345h299v-31h-270l-19 -289c16.667 10 36.167 17.833 58.5 23.5s44.5 8.5 66.5 8.5
c59.333 0 106.333 -19.833 141 -59.5z" />
    <glyph glyph-name="six" unicode="6" horiz-adv-x="511" 
d="M410 373.5c35.333 -40.333 52.998 -94.166 52.998 -161.499c0 -68.667 -18.333 -123.334 -55 -164.001s-86 -61 -148 -61c-62.667 0 -112.667 21.5 -150 64.5s-56 100.5 -56 172.5c0 43.333 7.83301 86.333 23.5 129s41.834 91 78.501 145l161 239l25 -20l-159 -235
c-10 -14.667 -26.667 -42 -50 -82c18.667 10.667 39.834 19 63.501 25s47.167 9 70.5 9c60 0 107.667 -20.167 143 -60.5zM382.998 70.5c30 35 45.001 82.168 45.001 141.501s-15.167 106.166 -45.5 140.499s-71.5 51.5 -123.5 51.5
c-24.667 0 -49.334 -3.83301 -74.001 -11.5s-47 -18.167 -67 -31.5c-19.333 -40 -29 -85.667 -29 -137c0 -63.333 15.5 -113.5 46.5 -150.5s72.833 -55.5 125.5 -55.5c51.333 0 92 17.5 122 52.5z" />
    <glyph glyph-name="seven" unicode="7" horiz-adv-x="437" 
d="M399 724v-31l-267 -703l-31 12l264 691h-343v31h377z" />
    <glyph glyph-name="eight" unicode="8" horiz-adv-x="529" 
d="M111 38.5c-38 34.333 -57.0029 80.166 -57.0029 137.499c0 45.333 14.833 85.833 44.5 121.5s70.834 62.5 123.501 80.5c-43.333 12.667 -77.166 35.167 -101.499 67.5s-36.5 70.833 -36.5 115.5c0 54 16.167 96.833 48.5 128.5s76.166 47.5 131.499 47.5
s99.333 -15.833 132 -47.5s49 -74.5 49 -128.5c0 -43.333 -12.167 -81 -36.5 -113s-58.166 -55 -101.499 -69c52.667 -16.667 93.834 -42.667 123.501 -78s44.5 -76.666 44.5 -123.999c0 -58 -19 -104.167 -57 -138.5s-89.333 -51.5 -154 -51.5c-64 0 -115 17.167 -153 51.5
zM373.997 453.5c24.667 27.667 37 62.167 37 103.5c0 44.667 -13.5 80.667 -40.5 108s-62.5 41 -106.5 41s-79.333 -13.667 -106 -41s-40 -63.333 -40 -108c0 -41.333 12.5 -75.833 37.5 -103.5s61.833 -47.834 110.5 -60.501c47.333 12.667 83.333 32.834 108 60.501z
M391.497 62c32.333 29.333 48.5 67.668 48.5 115.001c0 43.333 -14.833 80.833 -44.5 112.5s-73.5 56.5 -131.5 74.5c-57.333 -18.667 -100.833 -43.834 -130.5 -75.501s-44.5 -69.167 -44.5 -112.5c0 -47.333 16 -85.5 48 -114.5s74.333 -43.5 127 -43.5
s95.167 14.667 127.5 44z" />
    <glyph glyph-name="nine" unicode="9" horiz-adv-x="511" 
d="M401 672.5c37.333 -43 56.002 -100.499 56.002 -172.499c0 -43.333 -7.83301 -86.333 -23.5 -129s-41.834 -91 -78.501 -145l-161 -239l-25 20l159 235c10 15.333 26.667 42.666 50 81.999c-18.667 -10.667 -39.834 -19 -63.501 -25s-47.167 -9 -70.5 -9
c-60 0 -107.667 20.167 -143 60.5s-53 94.166 -53 161.499c0 68.667 18.333 123.334 55 164.001s86 61 148 61c62.667 0 112.667 -21.5 150 -64.5zM128.502 371.501c30.333 -34.333 71.499 -51.501 123.499 -51.501c24.667 0 49.334 3.83301 74.001 11.5s47 18.167 67 31.5
c19.333 40 29 85.667 29 137c0 63.333 -15.5 113.5 -46.5 150.5s-72.833 55.5 -125.5 55.5c-51.333 0 -92 -17.5 -122 -52.5s-45 -82.167 -45 -141.5s15.167 -106.166 45.5 -140.499z" />
    <glyph glyph-name="colon" unicode=":" horiz-adv-x="244" 
d="M97.5 377c-5.66699 6 -8.5 14.666 -8.5 25.999s2.83301 20 8.5 26s13.834 9 24.501 9s18.834 -3 24.501 -9s8.5 -14.333 8.5 -25c0 -11.333 -2.83301 -20.166 -8.5 -26.499s-13.834 -9.5 -24.501 -9.5s-18.834 3 -24.501 9zM97.5 -3.00098
c-5.66699 6 -8.5 14.666 -8.5 25.999s2.83301 20 8.5 26s13.834 9 24.501 9s18.834 -3 24.501 -9s8.5 -14.333 8.5 -25c0 -11.333 -2.83301 -20.166 -8.5 -26.499s-13.834 -9.5 -24.501 -9.5s-18.834 3 -24.501 9z" />
    <glyph glyph-name="semicolon" unicode=";" horiz-adv-x="244" 
d="M97.5 377c-5.66699 6 -8.5 14.666 -8.5 25.999s2.83301 20 8.5 26s13.834 9 24.501 9s18.834 -3 24.501 -9s8.5 -14.333 8.5 -25c0 -11.333 -2.83301 -20.166 -8.5 -26.499s-13.834 -9.5 -24.501 -9.5s-18.834 3 -24.501 9zM46 -158.001c24 24.667 40.667 48.333 50 71
s14 50.667 14 84c0 18.667 -1.33301 38.667 -4 60h36c2.66699 -21.333 4 -41 4 -59c0 -39.333 -6.33301 -72.5 -19 -99.5s-33.667 -52.5 -63 -76.5z" />
    <glyph glyph-name="less" unicode="&#x3c;" horiz-adv-x="364" 
d="M52 361l236 299l24 -19l-219 -280l219 -280l-24 -19z" />
    <glyph glyph-name="equal" unicode="=" horiz-adv-x="520" 
d="M82 489h356v-32h-356v32zM82 265h356v-32h-356v32z" />
    <glyph glyph-name="greater" unicode="&#x3e;" horiz-adv-x="364" 
d="M52 81l219 280l-219 280l24 19l236 -299l-236 -299z" />
    <glyph glyph-name="question" unicode="?" horiz-adv-x="462" 
d="M182 233c0 45.333 6.33594 80.833 19.0029 106.5s37.667 53.834 75 84.501c32 26 53.833 49 65.5 69s17.5 44.667 17.5 74c0 44 -10.833 77.833 -32.5 101.5s-52.834 35.5 -93.501 35.5c-52.667 0 -106.667 -18 -162 -54l-14 28c25.333 18.667 53.666 33.167 84.999 43.5
s62 15.5 92 15.5c51.333 0 91 -14.667 119 -44s42 -71 42 -125c0 -34 -7.16699 -63.667 -21.5 -89s-39.5 -52.333 -75.5 -81c-32.667 -26.667 -54.334 -50.834 -65.001 -72.501s-16 -52.167 -16 -91.5c0 -28 1 -51 3 -69h-35c-2 20 -3 42.667 -3 68zM178.503 -3
c-5.66699 6 -8.5 14.666 -8.5 25.999s2.83301 20 8.5 26s13.834 9 24.501 9s18.834 -3 24.501 -9s8.5 -14.333 8.5 -25c0 -11.333 -2.83301 -20.166 -8.5 -26.499s-13.834 -9.5 -24.501 -9.5s-18.834 3 -24.501 9z" />
    <glyph glyph-name="at" unicode="@" horiz-adv-x="741" 
d="M532 694.5c44.667 -28.333 79.168 -68.501 103.501 -120.501s36.5 -113 36.5 -183c0 -62 -11.833 -111 -35.5 -147s-55.834 -54 -96.501 -54c-18.667 0 -34.667 3.33301 -48 10s-22.333 16.334 -27 29.001c-10 -14.667 -22.167 -25.5 -36.5 -32.5
s-31.833 -10.5 -52.5 -10.5c-38.667 0 -68.667 15.333 -90 46s-32 73.667 -32 129s11.833 98.666 35.5 129.999s56.5 47 98.5 47c30 0 59.667 -10.667 89 -32v-226c0 -19.333 5.33301 -33.833 16 -43.5s26 -14.5 46 -14.5c30.667 0 54.834 15 72.501 45
s26.5 71.333 26.5 124c0 64.667 -10.5 120.5 -31.5 167.5s-51.333 83.167 -91 108.5s-86.5 38 -140.5 38c-55.333 0 -103 -13.833 -143 -41.5s-70.667 -67.167 -92 -118.5s-32 -112.333 -32 -183s11.167 -131.667 33.5 -183s54.333 -90.833 96 -118.5
s90.834 -41.5 147.501 -41.5c51.333 0 98 11.333 140 34l12 -27c-19.333 -12.667 -42.5 -22.334 -69.5 -29.001s-54.5 -10 -82.5 -10c-62.667 0 -117.334 15.333 -164.001 46s-82.834 74.334 -108.501 131.001s-38.5 122.667 -38.5 198s12.333 141.333 37 198
s59.667 100.334 105 131.001s98.333 46 159 46c60 0 112.333 -14.167 157 -42.5zM444.001 489.999c-18.667 11.333 -38.333 16.999 -59 16.999c-32 0 -56.167 -12.5 -72.5 -37.5s-24.5 -61.167 -24.5 -108.5s8 -83.166 24 -107.499s40 -36.5 72 -36.5
c24.667 0 44.667 8.33301 60 25v248z" />
    <glyph glyph-name="A" unicode="A" horiz-adv-x="610" 
d="M467 215h-325l-74 -215h-36l252 724h42l252 -724h-37zM456 247l-151 441l-152 -441h303z" />
    <glyph glyph-name="B" unicode="B" horiz-adv-x="596" 
d="M506.5 322.5c23.667 -31.667 35.5 -74.499 35.5 -128.499c0 -62 -16 -109.833 -48 -143.5s-77.333 -50.5 -136 -50.5h-242h-18v724h35h191c56.667 0 100.5 -15.833 131.5 -47.5s46.5 -76.834 46.5 -135.501c0 -42 -8.33301 -77.167 -25 -105.5s-40.667 -47.5 -72 -57.5
c44 -5.33301 77.833 -23.833 101.5 -55.5zM133 692.001l-0.000976562 -303.999h191c46 0 81.333 13 106 39s37 63.333 37 112c0 49.333 -12.667 87.166 -38 113.499s-61.666 39.5 -108.999 39.5h-187zM468.999 73.502c24.667 27.667 36.999 67.5 36.999 119.5
c0 52.667 -12.833 93 -38.5 121s-62.167 42 -109.5 42h-225v-324h229c46.667 0 82.334 13.833 107.001 41.5z" />
    <glyph glyph-name="C" unicode="C" horiz-adv-x="551" 
d="M129 82c-50 62.667 -75.002 152.333 -75.002 269c0 78.667 11.333 147 34 205s55.334 102.667 98.001 134s92.667 47 150 47c27.333 0 56 -4 86 -12s57.333 -19.333 82 -34l-14 -28c-51.333 28 -103.333 42 -156 42c-49.333 0 -92.333 -14.167 -129 -42.5
s-65 -68.833 -85 -121.5s-30 -114.667 -30 -186c0 -107.333 22.167 -189.833 66.5 -247.5s107.5 -86.5 189.5 -86.5c58.667 0 108.334 12.667 149.001 38l14 -27c-18.667 -14 -42.667 -24.833 -72 -32.5s-60 -11.5 -92 -11.5c-94 0 -166 31.333 -216 94z" />
    <glyph glyph-name="D" unicode="D" horiz-adv-x="639" 
d="M494.5 629.5c53.667 -63 80.498 -151.5 80.498 -265.5c0 -115.333 -27.167 -204.833 -81.5 -268.5s-131.166 -95.5 -230.499 -95.5h-165v724h171c96.667 0 171.834 -31.5 225.501 -94.5zM469.498 116.5c46.333 56.333 69.5 137.833 69.5 244.5
c0 108 -23.667 190.167 -71 246.5s-115.666 84.5 -204.999 84.5h-130v-660h136c87.333 0 154.166 28.167 200.499 84.5z" />
    <glyph glyph-name="E" unicode="E" horiz-adv-x="528" 
d="M482 32v-32h-384v724h372v-32h-337v-305h258v-32h-258v-323h349z" />
    <glyph glyph-name="F" unicode="F" horiz-adv-x="490" 
d="M133 692v-318h273v-32h-273v-342h-35v724h366v-32h-331z" />
    <glyph glyph-name="G" unicode="G" horiz-adv-x="618" 
d="M540 356l0.000976562 -321.004c-26 -15.333 -55.333 -27.166 -88 -35.499s-65.334 -12.5 -98.001 -12.5c-92 0 -163.333 32.833 -214 98.5s-76 157.834 -76 276.501s25.333 210.834 76 276.501s122 98.5 214 98.5c30.667 0 61 -3.83301 91 -11.5s56.333 -18.5 79 -32.5
l-13 -28c-49.333 26 -102 39 -158 39c-82 0 -144.667 -29.167 -188 -87.5s-65 -143.166 -65 -254.499s21.667 -196.333 65 -255s106.333 -88 189 -88c50.667 0 101 10.667 151 32v273h-135v32h170z" />
    <glyph glyph-name="H" unicode="H" horiz-adv-x="648" 
d="M550 724v-724h-35v352h-382v-352h-35v724h35v-340h382v340h35z" />
    <glyph glyph-name="I" unicode="I" horiz-adv-x="234" 
d="M100 724h34v-724h-34v724z" />
    <glyph glyph-name="J" unicode="J" horiz-adv-x="400" 
d="M70 -1.5c-23.333 7.66699 -43.3311 18.1689 -59.998 31.502l14 27c35.333 -25.333 74.666 -38 117.999 -38c41.333 0 73.333 12.667 96 38s34 61.666 34 108.999v558h35v-560c0 -56.667 -14.333 -100.334 -43 -131.001s-69.334 -46 -122.001 -46
c-24.667 0 -48.667 3.83301 -72 11.5z" />
    <glyph glyph-name="K" unicode="K" horiz-adv-x="564" 
d="M252 377l-119 -141v-236h-35v724h35v-438l369 438h42l-270 -320l276 -404h-42z" />
    <glyph glyph-name="L" unicode="L" horiz-adv-x="481" 
d="M451 32v-32h-353v724h35v-692h318z" />
    <glyph glyph-name="M" unicode="M" horiz-adv-x="777" 
d="M679 724v-724h-34v670l-238 -515h-38l-238 517v-672h-33v724h44l246 -533l246 533h45z" />
    <glyph glyph-name="N" unicode="N" horiz-adv-x="670" 
d="M572 724v-724h-33l-408 664v-664h-33v724h33l408 -664v664h33z" />
    <glyph glyph-name="O" unicode="O" horiz-adv-x="660" 
d="M132.5 82.5c-45.667 63.667 -68.5 156.834 -68.5 279.501s22.833 215.834 68.5 279.501s111.5 95.5 197.5 95.5s151.833 -31.833 197.5 -95.5s68.5 -156.834 68.5 -279.501s-22.833 -215.834 -68.5 -279.501s-111.5 -95.5 -197.5 -95.5s-151.833 31.833 -197.5 95.5z
M501.5 106c39 58 58.5 143.333 58.5 256s-19.5 198 -58.5 256s-96.167 87 -171.5 87s-132.5 -29 -171.5 -87s-58.5 -143.333 -58.5 -256s19.5 -198 58.5 -256s96.167 -87 171.5 -87s132.5 29 171.5 87z" />
    <glyph glyph-name="P" unicode="P" horiz-adv-x="545" 
d="M467 666.5c34.667 -38.333 52 -92.833 52 -163.5c0 -71.333 -17.5 -126.5 -52.5 -165.5s-84.833 -58.5 -149.5 -58.5h-184v-279h-35v724h35h186c64 0 113.333 -19.167 148 -57.5zM441 360c28 32.667 42 79.667 42 141c0 62 -14.333 109.333 -43 142s-69.667 49 -123 49
h-184v-381h186c53.333 0 94 16.333 122 49z" />
    <glyph glyph-name="Q" unicode="Q" horiz-adv-x="660" 
d="M574 -148l-127.999 159.999c-32.667 -16.667 -71.334 -25 -116.001 -25c-86 0 -151.833 31.833 -197.5 95.5s-68.5 156.834 -68.5 279.501s22.833 215.834 68.5 279.501s111.5 95.5 197.5 95.5s151.833 -31.833 197.5 -95.5s68.5 -156.834 68.5 -279.501
c0 -82 -10.333 -151 -31 -207s-51 -98 -91 -126l125 -154zM158.501 105.999c39 -58 96.167 -87 171.5 -87s132.5 29 171.5 87s58.5 143.333 58.5 256s-19.5 198 -58.5 256s-96.167 87 -171.5 87s-132.5 -29 -171.5 -87s-58.5 -143.333 -58.5 -256s19.5 -198 58.5 -256z" />
    <glyph glyph-name="R" unicode="R" horiz-adv-x="581" 
d="M306 300h-173v-300h-35v724h35h178c63.333 0 112.166 -18.333 146.499 -55s51.5 -88.667 51.5 -156c0 -61.333 -14.167 -110 -42.5 -146s-69.166 -57.667 -122.499 -65l191 -302h-43zM133 332h178c52.667 0 93 15.333 121 46s42 74.667 42 132
c0 58.667 -14.333 103.667 -43 135s-69.667 47 -123 47h-175v-360z" />
    <glyph glyph-name="S" unicode="S" horiz-adv-x="512" 
d="M139 3c-36 10 -68.334 23.668 -97.001 41.001l14 28c60 -34.667 123.667 -52 191 -52c56.667 0 100.167 13.667 130.5 41s45.5 66.666 45.5 117.999c0 44 -10.333 78.5 -31 103.5s-54.667 43.833 -102 56.5l-82 23c-54 14.667 -93.333 37.167 -118 67.5
s-37 70.166 -37 119.499c0 60 17.5 106.167 52.5 138.5s84.833 48.5 149.5 48.5c30.667 0 62.5 -3.83301 95.5 -11.5s63.5 -18.167 91.5 -31.5l-13 -30c-60.667 27.333 -119.667 41 -177 41c-53.333 0 -94.166 -13.167 -122.499 -39.5s-42.5 -63.833 -42.5 -112.5
c0 -42.667 10.167 -76.167 30.5 -100.5s54.833 -43.166 103.5 -56.499l82 -23c54 -14.667 93.333 -37.167 118 -67.5s37 -70.5 37 -120.5c0 -62.667 -18.333 -111 -55 -145s-88.667 -51 -156 -51c-36 0 -72 5 -108 15z" />
    <glyph glyph-name="T" unicode="T" horiz-adv-x="477" 
d="M445 692h-189v-692h-35v692h-189v32h224h189v-32z" />
    <glyph glyph-name="U" unicode="U" horiz-adv-x="634" 
d="M151.5 53c-39 44 -58.5 106.667 -58.5 188v483h35v-481c0 -73.333 15.833 -129 47.5 -167s78.834 -57 141.501 -57c61.333 0 108.166 19.167 140.499 57.5s48.5 93.833 48.5 166.5v481h35v-483c0 -81.333 -19.5 -144 -58.5 -188s-94.167 -66 -165.5 -66
s-126.5 22 -165.5 66z" />
    <glyph glyph-name="V" unicode="V" horiz-adv-x="576" 
d="M540 724l-231 -724h-42l-231 724h37l215 -688l215 688h37z" />
    <glyph glyph-name="W" unicode="W" horiz-adv-x="826" 
d="M788 724l-176 -724h-42l-157 683l-157 -683h-42l-176 724h36l161 -688l157 687h42l157 -687l161 688h36z" />
    <glyph glyph-name="X" unicode="X" horiz-adv-x="552" 
d="M481 0l-206 340l-204 -340h-38l223 368l-217 356h39l199 -330l202 330h39l-223 -358l224 -366h-38z" />
    <glyph glyph-name="Y" unicode="Y" horiz-adv-x="533" 
d="M505 724l-221 -456v-268h-35v268l-221 456h37l202 -421l201 421h37z" />
    <glyph glyph-name="Z" unicode="Z" horiz-adv-x="503" 
d="M455 32v-32h-409v32l365 660h-353v32h393v-32l-365 -660h369z" />
    <glyph glyph-name="bracketleft" unicode="[" horiz-adv-x="304" 
d="M131 741v-798h144v-30h-177v858h177v-30h-144z" />
    <glyph glyph-name="backslash" unicode="\" horiz-adv-x="386" 
d="M327 -86l-301 823h33l300 -823h-32z" />
    <glyph glyph-name="bracketright" unicode="]" horiz-adv-x="304" 
d="M206 771v-858h-177v30h144v798h-144v30h177z" />
    <glyph glyph-name="asciicircum" unicode="^" horiz-adv-x="359" 
d="M159 724h40l136 -193h-39l-116 167l-117 -167h-39z" />
    <glyph glyph-name="underscore" unicode="_" horiz-adv-x="545" 
d="M98 -94h349v-31h-349v31z" />
    <glyph glyph-name="grave" unicode="`" horiz-adv-x="500" 
d="M153 778v6h38l100 -163v-6h-30z" />
    <glyph glyph-name="a" unicode="a" horiz-adv-x="476" 
d="M347 498.5c28 -27 42 -64.833 42 -113.5v-385h-33v73c-44 -56 -98.333 -84 -163 -84c-48 0 -85.333 13.167 -112 39.5s-40 63.166 -40 110.499c0 62 25.5 107.667 76.5 137s130.167 44.333 237.5 45v57c0 42.667 -10.833 74.834 -32.5 96.501s-53.167 32.5 -94.5 32.5
c-42 0 -83 -11 -123 -33l-11 30c19.333 11.333 41 20 65 26s47.333 9 70 9c50.667 0 90 -13.5 118 -40.5zM278 41.5c26 14.333 51.666 36.168 76.999 65.501v185c-95.333 -0.666992 -165.666 -13.334 -210.999 -38.001s-68 -63 -68 -115c0 -37.333 10.333 -66.5 31 -87.5
s49.667 -31.5 87 -31.5c30 0 58 7.16699 84 21.5z" />
    <glyph glyph-name="b" unicode="b" horiz-adv-x="525" 
d="M419.5 466.5c31.667 -48.333 47.499 -116.5 47.499 -204.5c0 -87.333 -16 -155 -48 -203s-77.333 -72 -136 -72c-31.333 0 -60.5 7.5 -87.5 22.5s-49.833 35.833 -68.5 62.5v-72h-33v493v277h34v-321c42.667 60 94.667 90 156 90c58.667 0 103.834 -24.167 135.501 -72.5
zM393.499 81c25.667 41.333 38.5 101 38.5 179c0 80 -13 141.167 -39 183.5s-63.333 63.5 -112 63.5c-29.333 0 -56.5 -7.5 -81.5 -22.5s-48.833 -38.5 -71.5 -70.5v-304c18.667 -28.667 41.667 -51 69 -67s56.333 -24 87 -24c47.333 0 83.833 20.667 109.5 62z" />
    <glyph glyph-name="c" unicode="c" horiz-adv-x="431" 
d="M106.5 62c-35 49.333 -52.501 119.666 -52.501 210.999c0 54 8 101 24 141s38.833 70.833 68.5 92.5s64.5 32.5 104.5 32.5c22 0 45 -3.66699 69 -11s46.333 -17.666 67 -30.999l-13 -27c-43.333 25.333 -84.666 38 -123.999 38c-49.333 0 -88.5 -21 -117.5 -63
s-43.5 -98.667 -43.5 -170c0 -82 14.667 -145 44 -189s71 -66 125 -66c44 0 84.333 12.333 121 37l14 -26c-18 -13.333 -39 -23.833 -63 -31.5s-48.333 -11.5 -73 -11.5c-65.333 0 -115.5 24.667 -150.5 74z" />
    <glyph glyph-name="d" unicode="d" horiz-adv-x="525" 
d="M431 770l0.000976562 -735.999v-34h-33v79c-42.667 -60.667 -95 -91 -157 -91c-58.667 0 -103.834 24.167 -135.501 72.5s-47.5 116.5 -47.5 204.5s16 155.833 48 203.5s77.333 71.5 136 71.5c30.667 0 59.5 -7.33301 86.5 -22s49.833 -35.334 68.5 -62.001v314h34z
M325.501 42.501c25 15 48.833 38.5 71.5 70.5v304c-18.667 28.667 -41.667 51 -69 67s-56.333 24 -87 24c-47.333 0 -83.833 -20.667 -109.5 -62s-38.5 -101 -38.5 -179c0 -80 13 -141.167 39 -183.5s63.333 -63.5 112 -63.5c29.333 0 56.5 7.5 81.5 22.5z" />
    <glyph glyph-name="e" unicode="e" horiz-adv-x="490" 
d="M436 262h-345.002c0 -76 15.5 -135.333 46.5 -178s73.833 -64 128.5 -64c50.667 0 95.334 15 134.001 45l14 -26c-18 -16 -40 -28.5 -66 -37.5s-53 -13.5 -81 -13.5c-66.667 0 -118.5 24 -155.5 72s-55.5 115.667 -55.5 203c0 88 16.833 156 50.5 204
s81.834 72 144.501 72c58.667 0 104.5 -22 137.5 -66s49.5 -105.667 49.5 -185c0 -8 -0.666992 -16.667 -2 -26zM136.498 452.5c-26.333 -37 -41.168 -90.833 -44.501 -161.5h312v9c0 65.333 -13.667 116.333 -41 153s-65.666 55 -114.999 55
c-48 0 -85.167 -18.5 -111.5 -55.5z" />
    <glyph glyph-name="f" unicode="f" horiz-adv-x="285" 
d="M101 497h-84.002v29h84v106c0 44.667 12.5 79.5 37.5 104.5s59.833 37.5 104.5 37.5c14.667 0 26.334 -1.33301 35.001 -4v-30c-12 2 -23.667 3 -35 3c-35.333 0 -62.166 -9.5 -80.499 -28.5s-27.5 -46.833 -27.5 -83.5v-105h125v-29h-125v-497h-34v497z" />
    <glyph glyph-name="g" unicode="g" horiz-adv-x="526" 
d="M432 526l0.00195312 -537c0 -64 -17.833 -113.5 -53.5 -148.5s-85.834 -52.5 -150.501 -52.5c-23.333 0 -45.833 2.5 -67.5 7.5s-40.167 11.833 -55.5 20.5l11 30c33.333 -17.333 71.666 -26 114.999 -26c54 0 95.333 14.333 124 43s43 70 43 124v109
c-20 -29.333 -43.167 -51.5 -69.5 -66.5s-55.166 -22.5 -86.499 -22.5c-58 0 -103.167 23.5 -135.5 70.5s-48.5 112.5 -48.5 196.5c0 83.333 16.333 148.333 49 195s78 70 136 70c31.333 0 60.666 -7.5 87.999 -22.5s50 -35.833 68 -62.5v72h33zM325.502 61.5
c25 15 49.168 38.167 72.501 69.5v285c-18 28.667 -40.833 51 -68.5 67s-56.834 24 -87.501 24c-49.333 0 -86.5 -19.5 -111.5 -58.5s-37.5 -96.5 -37.5 -172.5c0 -78 12.833 -137 38.5 -177s63.5 -60 113.5 -60c28.667 0 55.5 7.5 80.5 22.5z" />
    <glyph glyph-name="h" unicode="h" horiz-adv-x="530" 
d="M402 498.5c26 -27 39 -64.833 39 -113.5v-385h-34v379c0 42 -9.83301 73.833 -29.5 95.5s-48.5 32.5 -86.5 32.5c-29.333 0 -57 -6.66699 -83 -20s-52.667 -34 -80 -62v-425h-34v770h34v-312c46 54 101.333 81 166 81c46 0 82 -13.5 108 -40.5z" />
    <glyph glyph-name="i" unicode="i" horiz-adv-x="226" 
d="M96 526h34v-526h-34v526zM91.5 651.5c-5 5.66699 -7.5 13.5 -7.5 23.5c0 10.667 2.5 18.834 7.5 24.501s12.167 8.5 21.5 8.5s16.5 -2.83301 21.5 -8.5s7.5 -13.5 7.5 -23.5c0 -10.667 -2.5 -18.834 -7.5 -24.501s-12.167 -8.5 -21.5 -8.5s-16.5 2.83301 -21.5 8.5z" />
    <glyph glyph-name="j" unicode="j" horiz-adv-x="226" 
d="M-21 -188c30.667 10.667 54.333 24 71 40s28.5 37.333 35.5 64s10.5 62.334 10.5 107.001v503h34v-503c0 -50.667 -4.16699 -91 -12.5 -121s-22.5 -54.333 -42.5 -73s-48.667 -34.334 -86 -47.001zM91.499 651.5c-5 5.66699 -7.5 13.5 -7.5 23.5
c0 10.667 2.5 18.834 7.5 24.501s12.167 8.5 21.5 8.5s16.5 -2.83301 21.5 -8.5s7.5 -13.5 7.5 -23.5c0 -10.667 -2.5 -18.834 -7.5 -24.501s-12.167 -8.5 -21.5 -8.5s-16.5 2.83301 -21.5 8.5z" />
    <glyph glyph-name="k" unicode="k" horiz-adv-x="480" 
d="M215 272l-87 -98v-174h-34v770h34v-554l273 310h41l-203 -228l213 -298h-41z" />
    <glyph glyph-name="l" unicode="l" horiz-adv-x="248" 
d="M92 71v699h34v-696c0 -16.667 3.83301 -29 11.5 -37s19.834 -12 36.501 -12c10 0 21.333 1.33301 34 4l4 -28c-14.667 -4 -29.334 -6 -44.001 -6c-50.667 0 -76 25.333 -76 76z" />
    <glyph glyph-name="m" unicode="m" horiz-adv-x="817" 
d="M691.5 498.5c24.333 -27 36.5039 -64.833 36.5039 -113.5v-385h-34v379c0 42 -9 73.833 -27 95.5s-44.667 32.5 -80 32.5c-27.333 0 -54 -6.83301 -80 -20.5s-53 -35.167 -81 -64.5c2 -10.667 3 -23 3 -37v-385h-34v379c0 42 -9.16699 73.833 -27.5 95.5
s-45.5 32.5 -81.5 32.5c-27.333 0 -53.833 -6.5 -79.5 -19.5s-51.834 -33.5 -78.501 -61.5v-426h-34v526h33v-68c46.667 54 100.667 81 162 81c33.333 0 61.166 -7.66699 83.499 -23s38.166 -37.333 47.499 -66c49.333 59.333 106 89 170 89
c43.333 0 77.166 -13.5 101.499 -40.5z" />
    <glyph glyph-name="n" unicode="n" horiz-adv-x="528" 
d="M400.5 498.5c25.667 -27 38.501 -64.833 38.501 -113.5v-385h-34v379c0 42 -9.66699 73.833 -29 95.5s-48 32.5 -86 32.5c-28.667 0 -56 -6.66699 -82 -20s-52.667 -34 -80 -62v-425h-34v526h33v-69c45.333 54.667 100.666 82 165.999 82c46 0 81.833 -13.5 107.5 -40.5z
" />
    <glyph glyph-name="o" unicode="o" horiz-adv-x="504" 
d="M108.5 57.5c-33.667 47 -50.5 115.5 -50.5 205.5s16.833 158.5 50.5 205.5s81.5 70.5 143.5 70.5s109.833 -23.5 143.5 -70.5s50.5 -115.5 50.5 -205.5s-16.833 -158.5 -50.5 -205.5s-81.5 -70.5 -143.5 -70.5s-109.833 23.5 -143.5 70.5zM370.5 80
c27 41.333 40.5 102.333 40.5 183s-13.5 141.667 -40.5 183s-66.5 62 -118.5 62s-91.5 -20.667 -118.5 -62s-40.5 -102.333 -40.5 -183s13.5 -141.667 40.5 -183s66.5 -62 118.5 -62s91.5 20.667 118.5 62z" />
    <glyph glyph-name="p" unicode="p" horiz-adv-x="525" 
d="M419.5 466.5c31.667 -48.333 47.499 -116.501 47.499 -204.501c0 -87.333 -16 -155 -48 -203s-77.333 -72 -136 -72c-30.667 0 -59.5 7.33301 -86.5 22s-49.833 35.334 -68.5 62.001v-278h-34v700v33h33v-78c42.667 60.667 95 91 157 91
c58.667 0 103.834 -24.167 135.501 -72.5zM393.499 80.999c25.667 41.333 38.5 101 38.5 179c0 80 -13 141.167 -39 183.5s-63.333 63.5 -112 63.5c-29.333 0 -56.5 -7.5 -81.5 -22.5s-48.833 -38.5 -71.5 -70.5v-304c18.667 -28.667 41.667 -51 69 -67s56.333 -24 87 -24
c47.333 0 83.833 20.667 109.5 62z" />
    <glyph glyph-name="q" unicode="q" horiz-adv-x="525" 
d="M431 526l0.000976562 -493v-240h-34v284c-42.667 -60 -94.667 -90 -156 -90c-58.667 0 -103.834 24.167 -135.501 72.5s-47.5 116.5 -47.5 204.5s16 155.833 48 203.5s77.333 71.5 136 71.5c31.333 0 60.5 -7.5 87.5 -22.5s49.833 -35.833 68.5 -62.5v72h33z
M325.501 41.5c25 15 48.833 38.5 71.5 70.5v304c-18.667 28.667 -41.667 51 -69 67s-56.333 24 -87 24c-47.333 0 -83.833 -20.667 -109.5 -62s-38.5 -101 -38.5 -179c0 -80 13 -141.167 39 -183.5s63.333 -63.5 112 -63.5c29.333 0 56.5 7.5 81.5 22.5z" />
    <glyph glyph-name="r" unicode="r" horiz-adv-x="350" 
d="M332 524l-10.001 -31c-22 7.33301 -42.333 11 -61 11c-24.667 0 -47.667 -8 -69 -24s-42.666 -40.667 -63.999 -74v-406h-34v526h33v-83c19.333 32 40.333 55.667 63 71s48 23 76 23c22 0 44 -4.33301 66 -13z" />
    <glyph glyph-name="s" unicode="s" horiz-adv-x="407" 
d="M112 0.5c-28 8.33301 -52.666 20.168 -73.999 35.501l12 28c44 -30 93 -45 147 -45c40.667 0 71.834 10 93.501 30s32.5 49 32.5 87c0 32 -7 56.5 -21 73.5s-37.333 29.5 -70 37.5l-71 17c-38.667 9.33301 -67.167 24.666 -85.5 45.999s-27.5 50 -27.5 86
c0 45.333 13.167 80.333 39.5 105s64.166 37 113.499 37c24.667 0 49.667 -3.5 75 -10.5s48.666 -16.833 69.999 -29.5l-13 -28c-45.333 24.667 -90.333 37 -135 37c-38 0 -67 -9.16699 -87 -27.5s-30 -45.166 -30 -80.499c0 -29.333 6.83301 -52 20.5 -68
s36.5 -27.667 68.5 -35l71 -17c40 -9.33301 69.333 -25.333 88 -48s28 -53.334 28 -92.001c0 -48.667 -13.833 -86 -41.5 -112s-67.167 -39 -118.5 -39c-28.667 0 -57 4.16699 -85 12.5z" />
    <glyph glyph-name="t" unicode="t" horiz-adv-x="320" 
d="M137 26.5c-20 21.667 -30 53.5 -30 95.5v375h-84v29h84v154h34v-154h145v-29h-145v-367c0 -35.333 7.16699 -61.5 21.5 -78.5s36.5 -25.5 66.5 -25.5c16.667 0 34.667 2.66699 54 8l7 -29c-20 -7.33301 -41.333 -11 -64 -11c-39.333 0 -69 10.833 -89 32.5z" />
    <glyph glyph-name="u" unicode="u" horiz-adv-x="520" 
d="M426 526v-526h-33v75c-22 -28.667 -46.833 -50.5 -74.5 -65.5s-57.167 -22.5 -88.5 -22.5c-45.333 0 -80.5 13.5 -105.5 40.5s-37.5 64.833 -37.5 113.5v385h34v-379c0 -42 9.5 -73.833 28.5 -95.5s46.833 -32.5 83.5 -32.5c29.333 0 56.833 7.16699 82.5 21.5
s51.167 36.5 76.5 66.5v419h34z" />
    <glyph glyph-name="v" unicode="v" horiz-adv-x="463" 
d="M423 526l-171 -526h-40l-172 526h36l156 -494l155 494h36z" />
    <glyph glyph-name="w" unicode="w" horiz-adv-x="709" 
d="M667 526l-144 -526h-40l-128 481l-129 -481h-40l-144 526h35l129 -496l129 496h40l128 -496l129 496h35z" />
    <glyph glyph-name="x" unicode="x" horiz-adv-x="452" 
d="M378 0l-153 242l-151 -242h-38l171 269l-164 257h38l146 -232l149 232h38l-169 -259l171 -267h-38z" />
    <glyph glyph-name="y" unicode="y" horiz-adv-x="461" 
d="M421 526l-175 -533.999c-16.667 -52.667 -41.5 -96.834 -74.5 -132.501s-72.833 -61.167 -119.5 -76.5l-12 31c42 14.667 77.167 36.667 105.5 66s51.5 68 69.5 116l-175 530h36l155 -488l154 488h36z" />
    <glyph glyph-name="z" unicode="z" horiz-adv-x="412" 
d="M364 29v-29h-318v29l279 468h-272v29h308v-29l-279 -468h282z" />
    <glyph glyph-name="braceleft" unicode="{" horiz-adv-x="321" 
d="M188.5 -71c-19.667 15.333 -33.834 36.6689 -42.501 64.002s-13 63.666 -13 108.999v131c0 28 -8.83301 50.5 -26.5 67.5s-43.834 25.833 -78.501 26.5v30c34.667 0.666992 60.834 9.5 78.501 26.5s26.5 39.5 26.5 67.5v132c0 44.667 4.33301 80.667 13 108
s22.834 48.833 42.501 64.5s46.834 27.5 81.501 35.5l8 -32c-29.333 -7.33301 -51.833 -17.5 -67.5 -30.5s-26.834 -30.833 -33.501 -53.5s-10 -53.334 -10 -92.001v-132c0 -30 -6.16699 -53.833 -18.5 -71.5s-31.166 -30.167 -56.499 -37.5
c25.333 -7.33301 44.166 -19.833 56.499 -37.5s18.5 -41.5 18.5 -71.5v-131c0 -38.667 3.33301 -69.5 10 -92.5s17.834 -41 33.501 -54s38.167 -23.167 67.5 -30.5l-8 -31c-34.667 8 -61.834 19.667 -81.501 35z" />
    <glyph glyph-name="bar" unicode="|" horiz-adv-x="228" 
d="M98 816h32v-1066h-32v1066z" />
    <glyph glyph-name="braceright" unicode="}" horiz-adv-x="321" 
d="M43 -75c29.333 7.33301 51.833 17.4971 67.5 30.4971s26.834 31 33.501 54s10 53.833 10 92.5v131c0 30 6.16699 53.833 18.5 71.5s31.166 30.167 56.499 37.5c-25.333 7.33301 -44.166 19.833 -56.499 37.5s-18.5 41.5 -18.5 71.5v132
c0 38.667 -3.33301 69.334 -10 92.001s-17.834 40.5 -33.501 53.5s-38.167 23.167 -67.5 30.5l8 32c34.667 -8 61.834 -19.833 81.501 -35.5s33.834 -37.167 42.501 -64.5s13 -63.333 13 -108v-132c0 -28 8.83301 -50.5 26.5 -67.5s43.834 -25.833 78.501 -26.5v-30
c-34.667 -0.666992 -60.834 -9.5 -78.501 -26.5s-26.5 -39.5 -26.5 -67.5v-131c0 -45.333 -4.33301 -81.666 -13 -108.999s-22.834 -48.666 -42.501 -63.999s-46.834 -27 -81.501 -35z" />
    <glyph glyph-name="asciitilde" unicode="~" horiz-adv-x="520" 
d="M290 316c-11.333 6 -23.666 15 -36.999 27c-12.667 10.667 -23.667 18.667 -33 24s-21 8 -35 8c-33.333 0 -68 -21 -104 -63l-20 20c40 50 82 75 126 75c17.333 0 31.666 -3 42.999 -9s23.666 -15 36.999 -27c12.667 -10.667 23.667 -18.667 33 -24s21 -8 35 -8
c33.333 0 68 21 104 63l20 -20c-40 -50 -82 -75 -126 -75c-17.333 0 -31.666 3 -42.999 9z" />
    <glyph glyph-name="uni00A0" unicode="&#xa0;" horiz-adv-x="220" 
 />
    <glyph glyph-name="exclamdown" unicode="&#xa1;" horiz-adv-x="302" 
d="M175.5 529c5.66699 -6 8.5 -14.666 8.5 -25.999s-2.83301 -20 -8.5 -26s-13.834 -9 -24.501 -9s-18.834 3 -24.501 9s-8.5 14.333 -8.5 25c0 11.333 2.83301 20.166 8.5 26.499s13.834 9.5 24.501 9.5s18.834 -3 24.501 -9zM170 -197.999h-37l4 559h29z" />
    <glyph glyph-name="cent" unicode="&#xa2;" horiz-adv-x="435" 
d="M327 37c-22 -7.33301 -42.999 -11.0029 -62.999 -11.0029h-7v-111h-33v114c-54.667 8.66699 -96.667 34.834 -126 78.501s-44 101.834 -44 174.501c0 72 14.833 129.333 44.5 172s71.5 68 125.5 76v113h33v-111h2c20.667 0 42 -3.33301 64 -10s42 -15.667 60 -27l-13 -26
c-38.667 22 -76.334 33 -113.001 33v-445h12c32.667 0 68 12 106 36l14 -25c-19.333 -13.333 -40 -23.666 -62 -30.999zM123.501 133.497c23 -38.333 56.5 -62.167 100.5 -71.5v438c-44 -6.66699 -77.5 -28.167 -100.5 -64.5s-34.5 -85.5 -34.5 -147.5
c0 -64.667 11.5 -116.167 34.5 -154.5z" />
    <glyph glyph-name="sterling" unicode="&#xa3;" horiz-adv-x="487" 
d="M106 32l316 -0.000976562v-32h-350v32l32 44c40.667 56.667 61 130.334 61 221.001c0 20 -1 37.333 -3 52h-98v30h94c-4.66699 23.333 -13.667 49.333 -27 78c-9.33301 22 -16 40.167 -20 54.5s-6 32.166 -6 53.499c0 55.333 14.5 97.833 43.5 127.5
s70.5 44.5 124.5 44.5c28.667 0 56.167 -5.33301 82.5 -16s48.833 -26 67.5 -46l-17 -27c-17.333 18.667 -37.5 32.834 -60.5 42.501s-47.167 14.5 -72.5 14.5c-42.667 0 -75.5 -12 -98.5 -36s-34.5 -58 -34.5 -102c0 -16.667 1.83301 -31.167 5.5 -43.5
s9.5 -27.833 17.5 -46.5c15.333 -34 25.333 -66.667 30 -98h170v-30h-167c1.33301 -17.333 2 -31 2 -41c0 -115.333 -30.667 -207.333 -92 -276z" />
    <glyph glyph-name="currency" unicode="&#xa4;" horiz-adv-x="528" 
d="M404 123l66 -88l-26 -21l-66 86c-32 -22.667 -70 -34 -114 -34s-82 11.333 -114 34l-66 -86l-26 21l66 88c-40 43.333 -60 106.666 -60 189.999c0 82.667 20 146 60 190l-66 87l26 21l66 -85c32.667 22 70.667 33 114 33s81.333 -11 114 -33l66 85l26 -21l-66 -87
c40 -44 60 -107.333 60 -190c0 -83.333 -20 -146.666 -60 -189.999zM141 152.5c28 -36.333 69 -54.5 123 -54.5s95 18.167 123 54.5s42 89.833 42 160.5s-14 124 -42 160s-69 54 -123 54s-95 -18 -123 -54s-42 -89.333 -42 -160s14 -124.167 42 -160.5z" />
    <glyph glyph-name="yen" unicode="&#xa5;" horiz-adv-x="482" 
d="M272 316h127v-30h-141v-112h141v-30h-141v-144h-35v144h-141v30h141v112h-141v30h127l-185 408h37l181 -409l180 409h36z" />
    <glyph glyph-name="brokenbar" unicode="&#xa6;" horiz-adv-x="228" 
d="M98 816h32v-447h-32v447zM98 198h32v-448h-32v448z" />
    <glyph glyph-name="section" unicode="&#xa7;" horiz-adv-x="490" 
d="M420 -41c0 -54 -15.499 -96.1709 -46.499 -126.504s-73.833 -45.5 -128.5 -45.5c-28.667 0 -58.334 4.16699 -89.001 12.5s-59.334 20.166 -86.001 35.499l12 28c52.667 -29.333 107 -44 163 -44c46 0 80.833 11.667 104.5 35s35.5 57.333 35.5 102
c0 37.333 -8.83301 66.833 -26.5 88.5s-46.834 38.834 -87.501 51.501l-58 18c-47.333 14.667 -82.5 35.334 -105.5 62.001s-34.5 60.667 -34.5 102c0 30 5.66699 57.5 17 82.5s28 46.833 50 65.5c-42 30 -63 75.333 -63 136c0 54.667 15.833 97.334 47.5 128.001
s75.834 46 132.501 46c25.333 0 51 -3.16699 77 -9.5s49.333 -14.833 70 -25.5l-12 -28c-41.333 20.667 -87 31 -137 31c-47.333 0 -83 -11.667 -107 -35s-36 -57.666 -36 -102.999c0 -37.333 8.66699 -67 26 -89s46.333 -39.333 87 -52l59 -18
c46.667 -14.667 81 -35.167 103 -61.5s33 -60.166 33 -101.499c0 -29.333 -5.66699 -56.5 -17 -81.5s-27.666 -46.833 -48.999 -65.5c44 -30 66 -76 66 -138zM284.001 128.996c17.333 -5.33301 31.6689 -10.6699 43.002 -16.0029c38.667 34.667 58 77.334 58 128.001
c0 34.667 -8.83301 62.334 -26.5 83.001s-46.834 37.334 -87.501 50.001l-58 18c-16 4.66699 -31.333 10.667 -46 18c-20.667 -18 -35.834 -37.5 -45.501 -58.5s-14.5 -44.5 -14.5 -70.5c0 -34.667 9.16699 -62.5 27.5 -83.5s48.5 -37.833 90.5 -50.5z" />
    <glyph glyph-name="dieresis" unicode="&#xa8;" horiz-adv-x="500" 
d="M145.5 651.5c-5 5.66699 -7.5 13.5 -7.5 23.5s2.5 17.833 7.5 23.5s11.833 8.5 20.5 8.5s15.5 -2.83301 20.5 -8.5s7.5 -13.5 7.5 -23.5s-2.5 -17.833 -7.5 -23.5s-11.833 -8.5 -20.5 -8.5s-15.5 2.83301 -20.5 8.5zM313.5 651.5c-5 5.66699 -7.5 13.5 -7.5 23.5
s2.5 17.833 7.5 23.5s11.833 8.5 20.5 8.5s15.5 -2.83301 20.5 -8.5s7.5 -13.5 7.5 -23.5s-2.5 -17.833 -7.5 -23.5s-11.833 -8.5 -20.5 -8.5s-15.5 2.83301 -20.5 8.5z" />
    <glyph glyph-name="copyright" unicode="&#xa9;" horiz-adv-x="772" 
d="M230.5 31.5c-43.667 29.667 -77.334 72.667 -101.001 129s-35.5 123.5 -35.5 201.5s11.833 145.167 35.5 201.5s57.334 99.333 101.001 129s95.5 44.5 155.5 44.5s111.833 -14.833 155.5 -44.5s77.334 -72.667 101.001 -129s35.5 -123.5 35.5 -201.5
s-11.833 -145.167 -35.5 -201.5s-57.334 -99.333 -101.001 -129s-95.5 -44.5 -155.5 -44.5s-111.833 14.833 -155.5 44.5zM575 109.5c45.333 60.333 68 144.5 68 252.5s-22.667 192.167 -68 252.5s-108.333 90.5 -189 90.5s-143.667 -30.167 -189 -90.5
s-68 -144.5 -68 -252.5s22.667 -192.167 68 -252.5s108.333 -90.5 189 -90.5s143.667 30.167 189 90.5zM297.5 230c-23 32 -34.498 76.333 -34.498 133s11.333 100.667 34 132s54 47 94 47c14.667 0 29.667 -2.33301 45 -7s29.333 -11.334 42 -20.001l-14 -27
c-26.667 15.333 -51.334 23 -74.001 23c-30.667 0 -53.667 -12.167 -69 -36.5s-23 -60.166 -23 -107.499c0 -102.667 33 -154 99 -154c25.333 0 49.666 7.66699 72.999 23l10 -26c-10.667 -8.66699 -23.667 -15.5 -39 -20.5s-31 -7.5 -47 -7.5c-41.333 0 -73.5 16 -96.5 48z
" />
    <glyph glyph-name="ordfeminine" unicode="&#xaa;" horiz-adv-x="464" 
d="M108.5 324c-25 20.667 -37.5 50.332 -37.5 88.999c0 48.667 20.333 84.167 61 106.5s104.667 32.833 192 31.5v45c0 34.667 -9.33301 61 -28 79s-46.334 27 -83.001 27c-14.667 0 -28.5 -2.16699 -41.5 -6.5s-30.833 -11.833 -53.5 -22.5l-9 25
c22 12 41.333 20.333 58 25s34.334 7 53.001 7c42.667 0 76 -11.167 100 -33.5s36 -53.166 36 -92.499v-273c-21.333 -12 -44.333 -21.333 -69 -28s-48 -10 -70 -10c-47.333 0 -83.5 10.333 -108.5 31zM157 497.498c-35.333 -17.667 -53 -45.5 -53 -83.5
c0 -29.333 9.66699 -52 29 -68s47.333 -24 84 -24c39.333 0 75 8 107 24v177c-76 0.666992 -131.667 -7.83301 -167 -25.5zM357 171.998v-29h-267v29h267z" />
    <glyph glyph-name="guillemotleft" unicode="&#xab;" horiz-adv-x="493" 
d="M276 281l167 -211l-22 -19l-182 230l182 229l22 -19zM82 281l167 -211l-22 -19l-182 230l182 229l22 -19z" />
    <glyph glyph-name="logicalnot" unicode="&#xac;" horiz-adv-x="520" 
d="M445 463v-32v-186h-34v186h-336v32h370z" />
    <glyph glyph-name="uni00AD" unicode="&#xad;" horiz-adv-x="359" 
d="M57 307h245v-31h-245v31z" />
    <glyph glyph-name="registered" unicode="&#xae;" horiz-adv-x="772" 
d="M541.5 692.5c43.667 -29.667 77.334 -72.667 101.001 -129s35.5 -123.5 35.5 -201.5s-11.833 -145.167 -35.5 -201.5s-57.334 -99.333 -101.001 -129s-95.5 -44.5 -155.5 -44.5s-111.833 14.833 -155.5 44.5s-77.334 72.667 -101.001 129s-35.5 123.5 -35.5 201.5
s11.833 145.167 35.5 201.5s57.334 99.333 101.001 129s95.5 44.5 155.5 44.5s111.833 -14.833 155.5 -44.5zM575 109.5c45.333 60.333 68 144.5 68 252.5s-22.667 192.167 -68 252.5s-108.333 90.5 -189 90.5s-143.667 -30.167 -189 -90.5s-68 -144.5 -68 -252.5
s22.667 -192.167 68 -252.5s108.333 -90.5 189 -90.5s143.667 30.167 189 90.5zM470.5 358.5c-11 -18.333 -26.5 -30.833 -46.5 -37.5l73 -137h-40l-68 131h-1h-61v-131h-34v356h100c29.333 0 52.333 -9.83301 69 -29.5s25 -47.167 25 -82.5c0 -28 -5.5 -51.167 -16.5 -69.5
zM327 345h66c39.333 0 59 27 59 81c0 55.333 -21.333 83 -64 83h-61v-164z" />
    <glyph glyph-name="macron" unicode="&#xaf;" horiz-adv-x="500" 
d="M129 685h242v-30h-242v30z" />
    <glyph glyph-name="degree" unicode="&#xb0;" horiz-adv-x="432" 
d="M113 471.5c-26.667 29 -40 66.167 -40 111.5s13.333 82.166 40 110.499s61.334 42.5 104.001 42.5c42 0 76.167 -14.167 102.5 -42.5s39.5 -65.166 39.5 -110.499s-13.167 -82.5 -39.5 -111.5s-60.5 -43.5 -102.5 -43.5c-42.667 0 -77.334 14.5 -104.001 43.5zM295 494
c20 22.667 30 52.334 30 89.001c0 35.333 -10 64.333 -30 87s-46 34 -78 34c-32.667 0 -59.167 -11.333 -79.5 -34s-30.5 -51.667 -30.5 -87c0 -36.667 10.167 -66.334 30.5 -89.001s46.833 -34 79.5 -34c32 0 58 11.333 78 34z" />
    <glyph glyph-name="plusminus" unicode="&#xb1;" horiz-adv-x="520" 
d="M459 456v-32h-182v-184h-34v184h-182v32h182v185h34v-185h182zM61 136h398v-32h-398v32z" />
    <glyph glyph-name="uni00B2" unicode="&#xb2;" horiz-adv-x="328" 
d="M273 361l-0.000976562 -30.0029h-240v30l140 183c23.333 30.667 38.833 53.834 46.5 69.501s11.5 31.834 11.5 48.501c0 27.333 -6.66699 48.333 -20 63s-33 22 -59 22c-37.333 0 -73 -14 -107 -42l-13 23c36.667 32.667 78 49 124 49
c34.667 0 61.334 -9.66699 80.001 -29s28 -46.666 28 -81.999c0 -22 -4.66699 -42.667 -14 -62s-27.333 -46 -54 -80l-127 -163h204z" />
    <glyph glyph-name="uni00B3" unicode="&#xb3;" horiz-adv-x="349" 
d="M251.5 554.5c21.667 -21 32.4961 -50.168 32.4961 -87.501c0 -45.333 -12.167 -80.5 -36.5 -105.5s-58.833 -37.5 -103.5 -37.5c-22 0 -42.667 3.33301 -62 10s-36 16 -50 28l11 27c14.667 -10.667 30.834 -19 48.501 -25s35.167 -9 52.5 -9c34.667 0 61 9.5 79 28.5
s27 46.5 27 82.5c0 28.667 -8.5 50.834 -25.5 66.501s-41.833 23.5 -74.5 23.5c-17.333 0 -32.666 -2 -45.999 -6l-13 18l133 172h-184v30h225v-30l-124 -155c4.66699 0.666992 11.334 1 20.001 1c38.667 0 68.834 -10.5 90.501 -31.5z" />
    <glyph glyph-name="acute" unicode="&#xb4;" horiz-adv-x="500" 
d="M213 621l108 163h38v-6l-116 -163h-30v6z" />
    <glyph glyph-name="uni00B5" unicode="&#xb5;" horiz-adv-x="527" 
d="M433 526l-0.000976562 -526h-33v75c-22 -28.667 -46.833 -50.5 -74.5 -65.5s-57.167 -22.5 -88.5 -22.5c-49.333 0 -85.666 17.667 -108.999 53v-247h-34v547v186h34v-379c0 -42 9.5 -73.833 28.5 -95.5s46.833 -32.5 83.5 -32.5c29.333 0 56.833 7.16699 82.5 21.5
s51.167 36.5 76.5 66.5v419h34z" />
    <glyph glyph-name="paragraph" unicode="&#xb6;" horiz-adv-x="526" 
d="M428 0l-35 -0.000976562v691h-109v-691h-35v342h-4c-66.667 0 -118.5 16.833 -155.5 50.5s-55.5 80.167 -55.5 139.5c0 60.667 19 107.834 57 141.501s90.667 50.5 158 50.5h144h35v-724z" />
    <glyph glyph-name="periodcentered" unicode="&#xb7;" horiz-adv-x="204" 
d="M77.5 283c-5.66699 6 -8.5 14.666 -8.5 25.999s2.83301 20 8.5 26s13.834 9 24.501 9s18.834 -3 24.501 -9s8.5 -14.333 8.5 -25c0 -11.333 -2.83301 -20.166 -8.5 -26.499s-13.834 -9.5 -24.501 -9.5s-18.834 3 -24.501 9z" />
    <glyph glyph-name="cedilla" unicode="&#xb8;" horiz-adv-x="500" 
d="M319.5 -88c14.333 -12.667 21.5 -31.332 21.5 -55.999c0 -26 -8.16699 -46.333 -24.5 -61s-39.166 -22 -68.499 -22c-30.667 0 -58 7.33301 -82 22l10 24c23.333 -12 47.333 -18 72 -18c20.667 0 36.334 4.66699 47.001 14s16 22.666 16 39.999
c0 16 -4.83301 28.167 -14.5 36.5s-23.834 12.5 -42.501 12.5c-16 0 -30 -3 -42 -9l-13 12l44 113l23 -17l-36 -76c12 2.66699 21 4 27 4c27.333 0 48.166 -6.33301 62.499 -19z" />
    <glyph glyph-name="uni00B9" unicode="&#xb9;" horiz-adv-x="293" 
d="M169 770v-439h-33v401l-92 -39l-10 28l107 49h28z" />
    <glyph glyph-name="ordmasculine" unicode="&#xba;" horiz-adv-x="474" 
d="M119.5 348c-27.667 37.333 -41.498 92 -41.498 164c0 71.333 13.833 125.666 41.5 162.999s67.167 56 118.5 56c50.667 0 89.667 -18.667 117 -56s41 -91.666 41 -162.999c0 -72 -13.833 -126.667 -41.5 -164s-66.834 -56 -117.501 -56s-89.834 18.667 -117.501 56z
M331.002 368.5c21.333 32.333 32.002 80.166 32.002 143.499c0 62.667 -10.5 110.167 -31.5 142.5s-52.167 48.5 -93.5 48.5s-72.833 -16.167 -94.5 -48.5s-32.5 -79.833 -32.5 -142.5c0 -63.333 10.667 -111.166 32 -143.499s52.666 -48.5 93.999 -48.5
s72.666 16.167 93.999 48.5zM104.004 172h267v-29h-267v29z" />
    <glyph glyph-name="guillemotright" unicode="&#xbb;" horiz-adv-x="493" 
d="M254 281l-182 -229l-22 19l167 211l-167 210l22 19zM448 281l-182 -229l-22 19l167 211l-167 210l22 19z" />
    <glyph glyph-name="onequarter" unicode="&#xbc;" horiz-adv-x="724" 
d="M563 719l-413 -729l-26 15l413 729zM136 686l-92 -39l-10 28l107 49h28v-439h-33v401zM686 131v-31h-54v-100h-33v100h-191v31l181 308h43v-308h54zM599 131v265l-153 -265h153z" />
    <glyph glyph-name="onehalf" unicode="&#xbd;" horiz-adv-x="762" 
d="M563 719l-413 -729l-26 15l413 729zM136 686l-92 -39l-10 28l107 49h28v-439h-33v401zM707 30l-0.000976562 -30.0029h-240v30l140 183c23.333 30.667 38.833 53.834 46.5 69.501s11.5 31.834 11.5 48.501c0 27.333 -6.66699 48.333 -20 63s-33 22 -59 22
c-37.333 0 -73 -14 -107 -42l-13 23c36.667 32.667 78 49 124 49c34.667 0 61.334 -9.66699 80.001 -29s28 -46.666 28 -81.999c0 -22 -4.66699 -42.667 -14 -62s-27.333 -46 -54 -80l-127 -163h204z" />
    <glyph glyph-name="threequarters" unicode="&#xbe;" horiz-adv-x="800" 
d="M639 719l-413 -729l-26 15l413 729zM247.5 315.5c-24.333 -25 -58.8369 -37.501 -103.504 -37.501c-22 0 -42.667 3.33301 -62 10s-36 16 -50 28l11 27c14.667 -10.667 30.834 -19 48.501 -25s35.167 -9 52.5 -9c34.667 0 61 9.5 79 28.5s27 46.5 27 82.5
c0 28.667 -8.5 50.834 -25.5 66.501s-41.833 23.5 -74.5 23.5c-17.333 0 -32.666 -2 -45.999 -6l-13 18l133 172h-184v30h225v-30l-124 -155c4.66699 0.666992 11.334 1 20.001 1c38.667 0 68.834 -10.5 90.501 -31.5s32.5 -50.167 32.5 -87.5
c0 -45.333 -12.167 -80.5 -36.5 -105.5zM761.996 130.999v-31h-54v-100h-33v100h-191v31l181 308h43v-308h54zM674.996 130.999v265l-153 -265h153z" />
    <glyph glyph-name="questiondown" unicode="&#xbf;" horiz-adv-x="412" 
d="M283.5 529c5.66699 -6 8.5 -14.666 8.5 -25.999s-2.83301 -20 -8.5 -26s-13.834 -9 -24.501 -9s-18.834 3 -24.501 9s-8.5 14.333 -8.5 25c0 11.333 2.83301 20.166 8.5 26.499s13.834 9.5 24.501 9.5s18.834 -3 24.501 -9zM280 293.001
c0 -45.333 -6.33594 -80.833 -19.0029 -106.5s-37.667 -53.834 -75 -84.501c-32 -26 -53.833 -49 -65.5 -69s-17.5 -44.667 -17.5 -74c0 -44 10.833 -77.833 32.5 -101.5s52.834 -35.5 93.501 -35.5c52.667 0 106.667 18 162 54l14 -28
c-25.333 -18.667 -53.666 -33.167 -84.999 -43.5s-62 -15.5 -92 -15.5c-51.333 0 -91 14.667 -119 44s-42 71 -42 125c0 34 7.16699 63.667 21.5 89s39.5 52.333 75.5 81c32.667 26.667 54.334 50.834 65.001 72.501s16 52.167 16 91.5c0 28 -1 51 -3 69h35
c2 -20 3 -42.667 3 -68z" />
    <glyph glyph-name="Agrave" unicode="&#xc0;" horiz-adv-x="610" 
d="M315 781l-154 138v7h42l146 -138v-7h-34zM467 215h-325l-74 -215h-36l252 724h42l252 -724h-37zM456 247l-151 441l-152 -441h303z" />
    <glyph glyph-name="Aacute" unicode="&#xc1;" horiz-adv-x="610" 
d="M294 781h-34v7l155 138h42v-7zM467 215h-325l-74 -215h-36l252 724h42l252 -724h-37zM456 247l-151 441l-152 -441h303z" />
    <glyph glyph-name="Acircumflex" unicode="&#xc2;" horiz-adv-x="610" 
d="M202 781h-30v7l117 138h32l117 -138v-7h-30l-103 117zM467 215h-325l-74 -215h-36l252 724h42l252 -724h-37zM456 247l-151 441l-152 -441h303z" />
    <glyph glyph-name="Atilde" unicode="&#xc3;" horiz-adv-x="610" 
d="M190 792h-26c0.666992 36.667 8.16699 65.334 22.5 86.001s33.5 31 57.5 31c16.667 0 30.167 -4.33301 40.5 -13s20.833 -21 31.5 -37c9.33301 -13.333 17.5 -23.166 24.5 -29.499s15.833 -9.5 26.5 -9.5c31.333 0 49 29 53 87h26
c-0.666992 -36.667 -8.16699 -65.334 -22.5 -86.001s-33.5 -31 -57.5 -31c-16.667 0 -30.167 4.33301 -40.5 13s-20.833 21 -31.5 37c-9.33301 13.333 -17.5 23.166 -24.5 29.499s-15.833 9.5 -26.5 9.5c-31.333 0 -49 -29 -53 -87zM467 215h-325l-74 -215h-36l252 724h42
l252 -724h-37zM456 247l-151 441l-152 -441h303z" />
    <glyph glyph-name="Adieresis" unicode="&#xc4;" horiz-adv-x="610" 
d="M198.5 821.5c-5 5.66699 -7.5 13.5 -7.5 23.5s2.5 17.833 7.5 23.5s11.833 8.5 20.5 8.5s15.5 -2.83301 20.5 -8.5s7.5 -13.5 7.5 -23.5s-2.5 -17.833 -7.5 -23.5s-11.833 -8.5 -20.5 -8.5s-15.5 2.83301 -20.5 8.5zM370.5 821.5c-5 5.66699 -7.5 13.5 -7.5 23.5
s2.5 17.833 7.5 23.5s11.833 8.5 20.5 8.5s15.5 -2.83301 20.5 -8.5s7.5 -13.5 7.5 -23.5s-2.5 -17.833 -7.5 -23.5s-11.833 -8.5 -20.5 -8.5s-15.5 2.83301 -20.5 8.5zM467 215h-325l-74 -215h-36l252 724h42l252 -724h-37zM456 247l-151 441l-152 -441h303z" />
    <glyph glyph-name="Aring" unicode="&#xc5;" horiz-adv-x="610" 
d="M238.5 793.5c-15.667 16.333 -23.5 39.166 -23.5 68.499s7.83301 52.166 23.5 68.499s37.834 24.5 66.501 24.5s50.834 -8.16699 66.501 -24.5s23.5 -39.166 23.5 -68.499s-7.83301 -52.166 -23.5 -68.499s-37.834 -24.5 -66.501 -24.5s-50.834 8.16699 -66.501 24.5z
M260.5 912c-10.333 -11.333 -15.5 -28 -15.5 -50s5.16699 -38.667 15.5 -50s25.166 -17 44.499 -17s34.166 5.66699 44.499 17s15.5 28 15.5 50s-5.16699 38.667 -15.5 50s-25.166 17 -44.499 17s-34.166 -5.66699 -44.499 -17zM467 215h-325l-74 -215h-36l252 724h42
l252 -724h-37zM456 247l-151 441l-152 -441h303z" />
    <glyph glyph-name="AE" unicode="&#xc6;" horiz-adv-x="828" 
d="M782 32v-32h-370v207h-262l-114 -207h-38l398 724h39h335v-32h-323v-305h244v-32h-244v-323h335zM412 239v443l-244 -443h244z" />
    <glyph glyph-name="Ccedilla" unicode="&#xc7;" horiz-adv-x="551" 
d="M393.5 -88c14.333 -12.667 21.498 -31.332 21.498 -55.999c0 -26 -8.16699 -46.333 -24.5 -61s-39.166 -22 -68.499 -22c-30.667 0 -58 7.33301 -82 22l10 24c23.333 -12 47.333 -18 72 -18c20.667 0 36.334 4.66699 47.001 14s16 22.666 16 39.999
c0 16 -4.83301 28.167 -14.5 36.5s-23.834 12.5 -42.501 12.5c-16 0 -30 -3 -42 -9l-13 12l32 83c-81.333 8.66699 -143.5 44 -186.5 106s-64.5 147 -64.5 255c0 78.667 11.333 147 34 205s55.334 102.667 98.001 134s92.667 47 150 47c27.333 0 56 -4 86 -12
s57.333 -19.333 82 -34l-14 -28c-51.333 28 -103.333 42 -156 42c-49.333 0 -92.333 -14.167 -129 -42.5s-65 -68.833 -85 -121.5s-30 -114.667 -30 -186c0 -107.333 22.167 -189.833 66.5 -247.5s107.5 -86.5 189.5 -86.5c58.667 0 108.334 12.667 149.001 38l14 -27
c-18.667 -14 -42.667 -24.833 -72 -32.5s-60 -11.5 -92 -11.5h-12l-29 -61c12 2.66699 21 4 27 4c27.333 0 48.166 -6.33301 62.499 -19z" />
    <glyph glyph-name="Egrave" unicode="&#xc8;" horiz-adv-x="528" 
d="M300 781l-154 138v7h42l146 -138v-7h-34zM482 32v-32h-384v724h372v-32h-337v-305h258v-32h-258v-323h349z" />
    <glyph glyph-name="Eacute" unicode="&#xc9;" horiz-adv-x="528" 
d="M279 781h-34v7l155 138h42v-7zM482 32v-32h-384v724h372v-32h-337v-305h258v-32h-258v-323h349z" />
    <glyph glyph-name="Ecircumflex" unicode="&#xca;" horiz-adv-x="528" 
d="M187 781h-30v7l117 138h32l117 -138v-7h-30l-103 117zM482 32v-32h-384v724h372v-32h-337v-305h258v-32h-258v-323h349z" />
    <glyph glyph-name="Edieresis" unicode="&#xcb;" horiz-adv-x="528" 
d="M183.5 821.5c-5 5.66699 -7.5 13.5 -7.5 23.5s2.5 17.833 7.5 23.5s11.833 8.5 20.5 8.5s15.5 -2.83301 20.5 -8.5s7.5 -13.5 7.5 -23.5s-2.5 -17.833 -7.5 -23.5s-11.833 -8.5 -20.5 -8.5s-15.5 2.83301 -20.5 8.5zM355.5 821.5c-5 5.66699 -7.5 13.5 -7.5 23.5
s2.5 17.833 7.5 23.5s11.833 8.5 20.5 8.5s15.5 -2.83301 20.5 -8.5s7.5 -13.5 7.5 -23.5s-2.5 -17.833 -7.5 -23.5s-11.833 -8.5 -20.5 -8.5s-15.5 2.83301 -20.5 8.5zM482 32v-32h-384v724h372v-32h-337v-305h258v-32h-258v-323h349z" />
    <glyph glyph-name="Igrave" unicode="&#xcc;" horiz-adv-x="234" 
d="M-27 919v7h42l146 -138v-7h-34zM100 724h34v-724h-34v724z" />
    <glyph glyph-name="Iacute" unicode="&#xcd;" horiz-adv-x="234" 
d="M72 788l155 138h42v-7l-163 -138h-34v7zM100 724h34v-724h-34v724z" />
    <glyph glyph-name="Icircumflex" unicode="&#xce;" horiz-adv-x="234" 
d="M250 788v-7h-30l-103 117l-103 -117h-30v7l117 138h32zM100 724h34v-724h-34v724z" />
    <glyph glyph-name="Idieresis" unicode="&#xcf;" horiz-adv-x="234" 
d="M10.5 821.5c-5 5.66699 -7.5 13.5 -7.5 23.5s2.5 17.833 7.5 23.5s11.833 8.5 20.5 8.5s15.5 -2.83301 20.5 -8.5s7.5 -13.5 7.5 -23.5s-2.5 -17.833 -7.5 -23.5s-11.833 -8.5 -20.5 -8.5s-15.5 2.83301 -20.5 8.5zM182.5 821.5c-5 5.66699 -7.5 13.5 -7.5 23.5
s2.5 17.833 7.5 23.5s11.833 8.5 20.5 8.5s15.5 -2.83301 20.5 -8.5s7.5 -13.5 7.5 -23.5s-2.5 -17.833 -7.5 -23.5s-11.833 -8.5 -20.5 -8.5s-15.5 2.83301 -20.5 8.5zM100 724h34v-724h-34v724z" />
    <glyph glyph-name="Eth" unicode="&#xd0;" horiz-adv-x="635" 
d="M490.5 629.5c53.667 -63 80.498 -151.5 80.498 -265.5c0 -115.333 -27.167 -204.833 -81.5 -268.5s-131.166 -95.5 -230.499 -95.5h-165v350h-64v32h64v342h171c96.667 0 171.834 -31.5 225.501 -94.5zM465.498 116.5c46.333 56.333 69.5 137.833 69.5 244.5
c0 108 -23.667 190.167 -71 246.5s-115.666 84.5 -204.999 84.5h-130v-310h204v-32h-204v-318h136c87.333 0 154.166 28.167 200.499 84.5z" />
    <glyph glyph-name="Ntilde" unicode="&#xd1;" horiz-adv-x="670" 
d="M220 792h-26c0.666992 36.667 8.16699 65.334 22.5 86.001s33.5 31 57.5 31c16.667 0 30.167 -4.33301 40.5 -13s20.833 -21 31.5 -37c9.33301 -13.333 17.5 -23.166 24.5 -29.499s15.833 -9.5 26.5 -9.5c31.333 0 49 29 53 87h26
c-0.666992 -36.667 -8.16699 -65.334 -22.5 -86.001s-33.5 -31 -57.5 -31c-16.667 0 -30.167 4.33301 -40.5 13s-20.833 21 -31.5 37c-9.33301 13.333 -17.5 23.166 -24.5 29.499s-15.833 9.5 -26.5 9.5c-31.333 0 -49 -29 -53 -87zM572 724v-724h-33l-408 664v-664h-33v724
h33l408 -664v664h33z" />
    <glyph glyph-name="Ograve" unicode="&#xd2;" horiz-adv-x="660" 
d="M186 919v7h42l146 -138v-7h-34zM132.5 82.5c-45.667 63.667 -68.5 156.834 -68.5 279.501s22.833 215.834 68.5 279.501s111.5 95.5 197.5 95.5s151.833 -31.833 197.5 -95.5s68.5 -156.834 68.5 -279.501s-22.833 -215.834 -68.5 -279.501s-111.5 -95.5 -197.5 -95.5
s-151.833 31.833 -197.5 95.5zM501.5 106c39 58 58.5 143.333 58.5 256s-19.5 198 -58.5 256s-96.167 87 -171.5 87s-132.5 -29 -171.5 -87s-58.5 -143.333 -58.5 -256s19.5 -198 58.5 -256s96.167 -87 171.5 -87s132.5 29 171.5 87z" />
    <glyph glyph-name="Oacute" unicode="&#xd3;" horiz-adv-x="660" 
d="M285 788l155 138h42v-7l-163 -138h-34v7zM132.5 82.5c-45.667 63.667 -68.5 156.834 -68.5 279.501s22.833 215.834 68.5 279.501s111.5 95.5 197.5 95.5s151.833 -31.833 197.5 -95.5s68.5 -156.834 68.5 -279.501s-22.833 -215.834 -68.5 -279.501
s-111.5 -95.5 -197.5 -95.5s-151.833 31.833 -197.5 95.5zM501.5 106c39 58 58.5 143.333 58.5 256s-19.5 198 -58.5 256s-96.167 87 -171.5 87s-132.5 -29 -171.5 -87s-58.5 -143.333 -58.5 -256s19.5 -198 58.5 -256s96.167 -87 171.5 -87s132.5 29 171.5 87z" />
    <glyph glyph-name="Ocircumflex" unicode="&#xd4;" horiz-adv-x="660" 
d="M227 781h-30v7l117 138h32l117 -138v-7h-30l-103 117zM527.5 641.5c45.667 -63.667 68.5 -156.834 68.5 -279.501s-22.833 -215.834 -68.5 -279.501s-111.5 -95.5 -197.5 -95.5s-151.833 31.833 -197.5 95.5s-68.5 156.834 -68.5 279.501s22.833 215.834 68.5 279.501
s111.5 95.5 197.5 95.5s151.833 -31.833 197.5 -95.5zM501.5 106c39 58 58.5 143.333 58.5 256s-19.5 198 -58.5 256s-96.167 87 -171.5 87s-132.5 -29 -171.5 -87s-58.5 -143.333 -58.5 -256s19.5 -198 58.5 -256s96.167 -87 171.5 -87s132.5 29 171.5 87z" />
    <glyph glyph-name="Otilde" unicode="&#xd5;" horiz-adv-x="660" 
d="M350.5 803c-10.333 8.66699 -20.833 21 -31.5 37c-9.33301 13.333 -17.5 23.166 -24.5 29.499s-15.833 9.5 -26.5 9.5c-31.333 0 -49 -29 -53 -87h-26c0.666992 36.667 8.16699 65.334 22.5 86.001s33.5 31 57.5 31c16.667 0 30.167 -4.33301 40.5 -13
s20.833 -21 31.5 -37c9.33301 -13.333 17.5 -23.166 24.5 -29.499s15.833 -9.5 26.5 -9.5c31.333 0 49 29 53 87h26c-0.666992 -36.667 -8.16699 -65.334 -22.5 -86.001s-33.5 -31 -57.5 -31c-16.667 0 -30.167 4.33301 -40.5 13zM132.5 82.5
c-45.667 63.667 -68.5 156.834 -68.5 279.501s22.833 215.834 68.5 279.501s111.5 95.5 197.5 95.5s151.833 -31.833 197.5 -95.5s68.5 -156.834 68.5 -279.501s-22.833 -215.834 -68.5 -279.501s-111.5 -95.5 -197.5 -95.5s-151.833 31.833 -197.5 95.5zM501.5 106
c39 58 58.5 143.333 58.5 256s-19.5 198 -58.5 256s-96.167 87 -171.5 87s-132.5 -29 -171.5 -87s-58.5 -143.333 -58.5 -256s19.5 -198 58.5 -256s96.167 -87 171.5 -87s132.5 29 171.5 87z" />
    <glyph glyph-name="Odieresis" unicode="&#xd6;" horiz-adv-x="660" 
d="M223.5 821.5c-5 5.66699 -7.5 13.5 -7.5 23.5s2.5 17.833 7.5 23.5s11.833 8.5 20.5 8.5s15.5 -2.83301 20.5 -8.5s7.5 -13.5 7.5 -23.5s-2.5 -17.833 -7.5 -23.5s-11.833 -8.5 -20.5 -8.5s-15.5 2.83301 -20.5 8.5zM395.5 821.5c-5 5.66699 -7.5 13.5 -7.5 23.5
s2.5 17.833 7.5 23.5s11.833 8.5 20.5 8.5s15.5 -2.83301 20.5 -8.5s7.5 -13.5 7.5 -23.5s-2.5 -17.833 -7.5 -23.5s-11.833 -8.5 -20.5 -8.5s-15.5 2.83301 -20.5 8.5zM132.5 82.5c-45.667 63.667 -68.5 156.834 -68.5 279.501s22.833 215.834 68.5 279.501
s111.5 95.5 197.5 95.5s151.833 -31.833 197.5 -95.5s68.5 -156.834 68.5 -279.501s-22.833 -215.834 -68.5 -279.501s-111.5 -95.5 -197.5 -95.5s-151.833 31.833 -197.5 95.5zM501.5 106c39 58 58.5 143.333 58.5 256s-19.5 198 -58.5 256s-96.167 87 -171.5 87
s-132.5 -29 -171.5 -87s-58.5 -143.333 -58.5 -256s19.5 -198 58.5 -256s96.167 -87 171.5 -87s132.5 29 171.5 87z" />
    <glyph glyph-name="multiply" unicode="&#xd7;" horiz-adv-x="534" 
d="M290 364l166 -182l-24 -23l-165 180l-165 -180l-24 23l166 182l-166 182l24 23l165 -180l165 180l24 -23z" />
    <glyph glyph-name="Oslash" unicode="&#xd8;" horiz-adv-x="660" 
d="M624 727l-82 -108c36 -64 54 -149.667 54 -257c0 -122.667 -22.833 -215.834 -68.5 -279.501s-111.5 -95.5 -197.5 -95.5c-84.667 0 -149.667 30.667 -195 92l-66 -89h-33v7l82 108c-36 64 -54 149.667 -54 257c0 122.667 22.833 215.834 68.5 279.501
s111.5 95.5 197.5 95.5c84.667 0 149.667 -30.667 195 -92l66 89h33v-7zM157.5 619c-39 -58 -58.5 -143.666 -58.5 -256.999c0 -94.667 13.667 -170.334 41 -227.001l364 482c-39.333 59.333 -97.333 89 -174 89c-76 0 -133.5 -29 -172.5 -87zM502.5 105.001
c39 58 58.5 143.666 58.5 256.999c0 94.667 -13.667 170.334 -41 227.001l-364 -482c39.333 -59.333 97.333 -89 174 -89c76 0 133.5 29 172.5 87z" />
    <glyph glyph-name="Ugrave" unicode="&#xd9;" horiz-adv-x="634" 
d="M173 919v7h42l146 -138v-7h-34zM151.5 53c-39 44 -58.5 106.667 -58.5 188v483h35v-481c0 -73.333 15.833 -129 47.5 -167s78.834 -57 141.501 -57c61.333 0 108.166 19.167 140.499 57.5s48.5 93.833 48.5 166.5v481h35v-483c0 -81.333 -19.5 -144 -58.5 -188
s-94.167 -66 -165.5 -66s-126.5 22 -165.5 66z" />
    <glyph glyph-name="Uacute" unicode="&#xda;" horiz-adv-x="634" 
d="M272 788l155 138h42v-7l-163 -138h-34v7zM151.5 53c-39 44 -58.5 106.667 -58.5 188v483h35v-481c0 -73.333 15.833 -129 47.5 -167s78.834 -57 141.501 -57c61.333 0 108.166 19.167 140.499 57.5s48.5 93.833 48.5 166.5v481h35v-483c0 -81.333 -19.5 -144 -58.5 -188
s-94.167 -66 -165.5 -66s-126.5 22 -165.5 66z" />
    <glyph glyph-name="Ucircumflex" unicode="&#xdb;" horiz-adv-x="634" 
d="M214 781h-30v7l117 138h32l117 -138v-7h-30l-103 117zM541 724v-483c0 -81.333 -19.5 -144 -58.5 -188s-94.167 -66 -165.5 -66s-126.5 22 -165.5 66s-58.5 106.667 -58.5 188v483h35v-481c0 -73.333 15.833 -129 47.5 -167s78.834 -57 141.501 -57
c61.333 0 108.166 19.167 140.499 57.5s48.5 93.833 48.5 166.5v481h35z" />
    <glyph glyph-name="Udieresis" unicode="&#xdc;" horiz-adv-x="634" 
d="M210.5 821.5c-5 5.66699 -7.5 13.5 -7.5 23.5s2.5 17.833 7.5 23.5s11.833 8.5 20.5 8.5s15.5 -2.83301 20.5 -8.5s7.5 -13.5 7.5 -23.5s-2.5 -17.833 -7.5 -23.5s-11.833 -8.5 -20.5 -8.5s-15.5 2.83301 -20.5 8.5zM382.5 821.5c-5 5.66699 -7.5 13.5 -7.5 23.5
s2.5 17.833 7.5 23.5s11.833 8.5 20.5 8.5s15.5 -2.83301 20.5 -8.5s7.5 -13.5 7.5 -23.5s-2.5 -17.833 -7.5 -23.5s-11.833 -8.5 -20.5 -8.5s-15.5 2.83301 -20.5 8.5zM151.5 53c-39 44 -58.5 106.667 -58.5 188v483h35v-481c0 -73.333 15.833 -129 47.5 -167
s78.834 -57 141.501 -57c61.333 0 108.166 19.167 140.499 57.5s48.5 93.833 48.5 166.5v481h35v-483c0 -81.333 -19.5 -144 -58.5 -188s-94.167 -66 -165.5 -66s-126.5 22 -165.5 66z" />
    <glyph glyph-name="Yacute" unicode="&#xdd;" horiz-adv-x="533" 
d="M256 781h-34v7l155 138h42v-7zM505 724l-221 -456v-268h-35v268l-221 456h37l202 -421l201 421h37z" />
    <glyph glyph-name="Thorn" unicode="&#xde;" horiz-adv-x="564" 
d="M463 531.5c34.667 -37.667 52 -91.167 52 -160.5c0 -70 -17.5 -124.167 -52.5 -162.5s-84.833 -57.5 -149.5 -57.5h-181v-151h-34v724h34v-136h183c64 0 113.333 -18.833 148 -56.5zM436.5 231c28.333 32 42.5 78 42.5 138c0 60.667 -14.333 107 -43 139
s-69.667 48 -123 48h-181v-373h183c52.667 0 93.167 16 121.5 48z" />
    <glyph glyph-name="germandbls" unicode="&#xdf;" horiz-adv-x="543" 
d="M444.5 335c33.667 -38.667 50.5 -89.001 50.5 -151.001c0 -60.667 -16 -107.667 -48 -141s-77.667 -50 -137 -50c-38 0 -73 5.66699 -105 17l10 30c29.333 -10.667 61 -16 95 -16c48.667 0 85.834 13.333 111.501 40s38.5 65.334 38.5 116.001
c0 60.667 -18.667 108.5 -56 143.5s-91.333 54.833 -162 59.5v29c50 18.667 87.167 43.834 111.5 75.501s36.5 70.5 36.5 116.5c0 44.667 -10.333 79.167 -31 103.5s-50.334 36.5 -89.001 36.5c-45.333 0 -80.333 -15.667 -105 -47s-37 -76.333 -37 -135v-562h-34v562
c0 68 15.167 120.5 45.5 157.5s73.5 55.5 129.5 55.5c49.333 0 87.5 -14.833 114.5 -44.5s40.5 -71.834 40.5 -126.501c0 -94 -41 -159.667 -123 -197c62 -9.33301 109.833 -33.333 143.5 -72z" />
    <glyph glyph-name="agrave" unicode="&#xe0;" horiz-adv-x="476" 
d="M347 498.5c28 -27 42 -64.833 42 -113.5v-385h-33v73c-44 -56 -98.333 -84 -163 -84c-48 0 -85.333 13.167 -112 39.5s-40 63.166 -40 110.499c0 62 25.5 107.667 76.5 137s130.167 44.333 237.5 45v57c0 42.667 -10.833 74.834 -32.5 96.501s-53.167 32.5 -94.5 32.5
c-42 0 -83 -11 -123 -33l-11 30c19.333 11.333 41 20 65 26s47.333 9 70 9c50.667 0 90 -13.5 118 -40.5zM278 41.5c26 14.333 51.666 36.168 76.999 65.501v185c-95.333 -0.666992 -165.666 -13.334 -210.999 -38.001s-68 -63 -68 -115c0 -37.333 10.333 -66.5 31 -87.5
s49.667 -31.5 87 -31.5c30 0 58 7.16699 84 21.5zM127.999 778.002v6h38l100 -163v-6h-30z" />
    <glyph glyph-name="aacute" unicode="&#xe1;" horiz-adv-x="476" 
d="M347 498.5c28 -27 42 -64.833 42 -113.5v-385h-33v73c-44 -56 -98.333 -84 -163 -84c-48 0 -85.333 13.167 -112 39.5s-40 63.166 -40 110.499c0 62 25.5 107.667 76.5 137s130.167 44.333 237.5 45v57c0 42.667 -10.833 74.834 -32.5 96.501s-53.167 32.5 -94.5 32.5
c-42 0 -83 -11 -123 -33l-11 30c19.333 11.333 41 20 65 26s47.333 9 70 9c50.667 0 90 -13.5 118 -40.5zM278 41.5c26 14.333 51.666 36.168 76.999 65.501v185c-95.333 -0.666992 -165.666 -13.334 -210.999 -38.001s-68 -63 -68 -115c0 -37.333 10.333 -66.5 31 -87.5
s49.667 -31.5 87 -31.5c30 0 58 7.16699 84 21.5zM187.999 621.002l108 163h38v-6l-116 -163h-30v6z" />
    <glyph glyph-name="acircumflex" unicode="&#xe2;" horiz-adv-x="476" 
d="M347 498.5c28 -27 42 -64.833 42 -113.5v-385h-33v73c-44 -56 -98.333 -84 -163 -84c-48 0 -85.333 13.167 -112 39.5s-40 63.166 -40 110.499c0 62 25.5 107.667 76.5 137s130.167 44.333 237.5 45v57c0 42.667 -10.833 74.834 -32.5 96.501s-53.167 32.5 -94.5 32.5
c-42 0 -83 -11 -123 -33l-11 30c19.333 11.333 41 20 65 26s47.333 9 70 9c50.667 0 90 -13.5 118 -40.5zM278 41.5c26 14.333 51.666 36.168 76.999 65.501v185c-95.333 -0.666992 -165.666 -13.334 -210.999 -38.001s-68 -63 -68 -115c0 -37.333 10.333 -66.5 31 -87.5
s49.667 -31.5 87 -31.5c30 0 58 7.16699 84 21.5zM342.999 621.002v-6h-30l-89 140l-89 -140h-30v6l103 163h32z" />
    <glyph glyph-name="atilde" unicode="&#xe3;" horiz-adv-x="476" 
d="M347 498.5c28 -27 42 -64.833 42 -113.5v-385h-33v73c-44 -56 -98.333 -84 -163 -84c-48 0 -85.333 13.167 -112 39.5s-40 63.166 -40 110.499c0 62 25.5 107.667 76.5 137s130.167 44.333 237.5 45v57c0 42.667 -10.833 74.834 -32.5 96.501s-53.167 32.5 -94.5 32.5
c-42 0 -83 -11 -123 -33l-11 30c19.333 11.333 41 20 65 26s47.333 9 70 9c50.667 0 90 -13.5 118 -40.5zM278 41.5c26 14.333 51.666 36.168 76.999 65.501v185c-95.333 -0.666992 -165.666 -13.334 -210.999 -38.001s-68 -63 -68 -115c0 -37.333 10.333 -66.5 31 -87.5
s49.667 -31.5 87 -31.5c30 0 58 7.16699 84 21.5zM245.499 633.002c-10.333 8.66699 -20.833 21 -31.5 37c-9.33301 13.333 -17.5 23.166 -24.5 29.499s-15.833 9.5 -26.5 9.5c-31.333 0 -49 -29 -53 -87h-26c0.666992 36.667 8.16699 65.334 22.5 86.001s33.5 31 57.5 31
c16.667 0 30.167 -4.33301 40.5 -13s20.833 -21 31.5 -37c9.33301 -13.333 17.5 -23.166 24.5 -29.499s15.833 -9.5 26.5 -9.5c31.333 0 49 29 53 87h26c-0.666992 -36.667 -8.16699 -65.334 -22.5 -86.001s-33.5 -31 -57.5 -31c-16.667 0 -30.167 4.33301 -40.5 13z" />
    <glyph glyph-name="adieresis" unicode="&#xe4;" horiz-adv-x="476" 
d="M120.5 651.5c-5 5.66699 -7.5 13.5 -7.5 23.5s2.5 17.833 7.5 23.5s11.833 8.5 20.5 8.5s15.5 -2.83301 20.5 -8.5s7.5 -13.5 7.5 -23.5s-2.5 -17.833 -7.5 -23.5s-11.833 -8.5 -20.5 -8.5s-15.5 2.83301 -20.5 8.5zM288.5 651.5c-5 5.66699 -7.5 13.5 -7.5 23.5
s2.5 17.833 7.5 23.5s11.833 8.5 20.5 8.5s15.5 -2.83301 20.5 -8.5s7.5 -13.5 7.5 -23.5s-2.5 -17.833 -7.5 -23.5s-11.833 -8.5 -20.5 -8.5s-15.5 2.83301 -20.5 8.5zM347 498.5c28 -27 42 -64.833 42 -113.5v-385h-33v73c-44 -56 -98.333 -84 -163 -84
c-48 0 -85.333 13.167 -112 39.5s-40 63.166 -40 110.499c0 62 25.5 107.667 76.5 137s130.167 44.333 237.5 45v57c0 42.667 -10.833 74.834 -32.5 96.501s-53.167 32.5 -94.5 32.5c-42 0 -83 -11 -123 -33l-11 30c19.333 11.333 41 20 65 26s47.333 9 70 9
c50.667 0 90 -13.5 118 -40.5zM278 41.5c26 14.333 51.666 36.168 76.999 65.501v185c-95.333 -0.666992 -165.666 -13.334 -210.999 -38.001s-68 -63 -68 -115c0 -37.333 10.333 -66.5 31 -87.5s49.667 -31.5 87 -31.5c30 0 58 7.16699 84 21.5z" />
    <glyph glyph-name="aring" unicode="&#xe5;" horiz-adv-x="476" 
d="M347 498.5c28 -27 42 -64.833 42 -113.5v-385h-33v73c-44 -56 -98.333 -84 -163 -84c-48 0 -85.333 13.167 -112 39.5s-40 63.166 -40 110.499c0 62 25.5 107.667 76.5 137s130.167 44.333 237.5 45v57c0 42.667 -10.833 74.834 -32.5 96.501s-53.167 32.5 -94.5 32.5
c-42 0 -83 -11 -123 -33l-11 30c19.333 11.333 41 20 65 26s47.333 9 70 9c50.667 0 90 -13.5 118 -40.5zM278 41.5c26 14.333 51.666 36.168 76.999 65.501v185c-95.333 -0.666992 -165.666 -13.334 -210.999 -38.001s-68 -63 -68 -115c0 -37.333 10.333 -66.5 31 -87.5
s49.667 -31.5 87 -31.5c30 0 58 7.16699 84 21.5zM158.499 628.502c-15.667 16.333 -23.5 39.166 -23.5 68.499s7.83301 52.166 23.5 68.499s37.834 24.5 66.501 24.5s50.834 -8.16699 66.501 -24.5s23.5 -39.166 23.5 -68.499s-7.83301 -52.166 -23.5 -68.499
s-37.834 -24.5 -66.501 -24.5s-50.834 8.16699 -66.501 24.5zM284.999 697.002c0 43.333 -20 65 -60 65s-60 -21.667 -60 -65s20 -65 60 -65s60 21.667 60 65z" />
    <glyph glyph-name="ae" unicode="&#xe6;" horiz-adv-x="767" 
d="M713 262l-334.998 0.000976562c0 -76 15 -135.333 45 -178s71.667 -64 125 -64c49.333 0 92.333 15 129 45l14 -26c-17.333 -16 -38.5 -28.5 -63.5 -37.5s-51.167 -13.5 -78.5 -13.5c-40 0 -74.667 9.5 -104 28.5s-52.333 46.5 -69 82.5
c-28.667 -37.333 -58.334 -65 -89.001 -83s-63.667 -27 -99 -27c-46 0 -82 12.833 -108 38.5s-39 61.5 -39 107.5c0 60.667 24.667 105.5 74 134.5s126 43.833 230 44.5v55c0 45.333 -10.333 79.666 -31 102.999s-51 35 -91 35c-39.333 0 -79 -11 -119 -33l-10 30
c19.333 11.333 40.333 20 63 26s45 9 67 9c40.667 0 73.667 -10.333 99 -31s41.666 -49.667 48.999 -87c14 37.333 34.667 66.333 62 87s60.333 31 99 31c57.333 0 102 -22.167 134 -66.5s48 -105.833 48 -184.5c0 -8 -0.666992 -16.667 -2 -26zM422.002 452.501
c-26 -37 -40.333 -90.833 -43 -161.5h302v9c0 65.333 -13.333 116.333 -40 153s-63.667 55 -111 55c-46 0 -82 -18.5 -108 -55.5zM280.002 45.001c27.333 16.667 55.335 44.333 84.002 83c-12.667 40 -19 84.667 -19 134v23
c-92.667 -0.666992 -160.834 -13.167 -204.501 -37.5s-65.5 -61.833 -65.5 -112.5c0 -36 10 -64.167 30 -84.5s48 -30.5 84 -30.5c33.333 0 63.666 8.33301 90.999 25z" />
    <glyph glyph-name="ccedilla" unicode="&#xe7;" horiz-adv-x="431" 
d="M309.5 -88c14.333 -12.667 21.5 -31.333 21.5 -56c0 -26 -8.16699 -46.333 -24.5 -61s-39.166 -22 -68.499 -22c-30.667 0 -58 7.33301 -82 22l10 24c23.333 -12 47.333 -18 72 -18c20.667 0 36.334 4.66699 47.001 14s16 22.666 16 39.999
c0 16 -4.83301 28.167 -14.5 36.5s-23.834 12.5 -42.501 12.5c-16 0 -30 -3 -42 -9l-13 12l33 84c-54.667 8.66699 -96.334 37.167 -125.001 85.5s-43 113.833 -43 196.5c0 54 8 101 24 141s38.833 70.833 68.5 92.5s64.5 32.5 104.5 32.5c22 0 45 -3.66699 69 -11
s46.333 -17.666 67 -30.999l-13 -27c-43.333 25.333 -84.666 38 -123.999 38c-49.333 0 -88.5 -21 -117.5 -63s-43.5 -98.667 -43.5 -170c0 -82 14.667 -145 44 -189s71 -66 125 -66c44 0 84.333 12.333 121 37l14 -26c-18 -13.333 -39 -23.833 -63 -31.5
s-48.333 -11.5 -73 -11.5h-8l-29 -61c12 2.66699 21 4 27 4c27.333 0 48.166 -6.33301 62.499 -19z" />
    <glyph glyph-name="egrave" unicode="&#xe8;" horiz-adv-x="490" 
d="M436 262h-345.002c0 -76 15.5 -135.333 46.5 -178s73.833 -64 128.5 -64c50.667 0 95.334 15 134.001 45l14 -26c-18 -16 -40 -28.5 -66 -37.5s-53 -13.5 -81 -13.5c-66.667 0 -118.5 24 -155.5 72s-55.5 115.667 -55.5 203c0 88 16.833 156 50.5 204
s81.834 72 144.501 72c58.667 0 104.5 -22 137.5 -66s49.5 -105.667 49.5 -185c0 -8 -0.666992 -16.667 -2 -26zM136.498 452.5c-26.333 -37 -41.168 -90.833 -44.501 -161.5h312v9c0 65.333 -13.667 116.333 -41 153s-65.666 55 -114.999 55
c-48 0 -85.167 -18.5 -111.5 -55.5zM152.996 778v6h38l100 -163v-6h-30z" />
    <glyph glyph-name="eacute" unicode="&#xe9;" horiz-adv-x="490" 
d="M436 262h-345.002c0 -76 15.5 -135.333 46.5 -178s73.833 -64 128.5 -64c50.667 0 95.334 15 134.001 45l14 -26c-18 -16 -40 -28.5 -66 -37.5s-53 -13.5 -81 -13.5c-66.667 0 -118.5 24 -155.5 72s-55.5 115.667 -55.5 203c0 88 16.833 156 50.5 204
s81.834 72 144.501 72c58.667 0 104.5 -22 137.5 -66s49.5 -105.667 49.5 -185c0 -8 -0.666992 -16.667 -2 -26zM136.498 452.5c-26.333 -37 -41.168 -90.833 -44.501 -161.5h312v9c0 65.333 -13.667 116.333 -41 153s-65.666 55 -114.999 55
c-48 0 -85.167 -18.5 -111.5 -55.5zM212.996 621l108 163h38v-6l-116 -163h-30v6z" />
    <glyph glyph-name="ecircumflex" unicode="&#xea;" horiz-adv-x="490" 
d="M436 262h-345.002c0 -76 15.5 -135.333 46.5 -178s73.833 -64 128.5 -64c50.667 0 95.334 15 134.001 45l14 -26c-18 -16 -40 -28.5 -66 -37.5s-53 -13.5 -81 -13.5c-66.667 0 -118.5 24 -155.5 72s-55.5 115.667 -55.5 203c0 88 16.833 156 50.5 204
s81.834 72 144.501 72c58.667 0 104.5 -22 137.5 -66s49.5 -105.667 49.5 -185c0 -8 -0.666992 -16.667 -2 -26zM136.498 452.5c-26.333 -37 -41.168 -90.833 -44.501 -161.5h312v9c0 65.333 -13.667 116.333 -41 153s-65.666 55 -114.999 55
c-48 0 -85.167 -18.5 -111.5 -55.5zM367.996 621v-6h-30l-89 140l-89 -140h-30v6l103 163h32z" />
    <glyph glyph-name="edieresis" unicode="&#xeb;" horiz-adv-x="490" 
d="M145.5 651.5c-5 5.66699 -7.5 13.5 -7.5 23.5s2.5 17.833 7.5 23.5s11.833 8.5 20.5 8.5s15.5 -2.83301 20.5 -8.5s7.5 -13.5 7.5 -23.5s-2.5 -17.833 -7.5 -23.5s-11.833 -8.5 -20.5 -8.5s-15.5 2.83301 -20.5 8.5zM313.5 651.5c-5 5.66699 -7.5 13.5 -7.5 23.5
s2.5 17.833 7.5 23.5s11.833 8.5 20.5 8.5s15.5 -2.83301 20.5 -8.5s7.5 -13.5 7.5 -23.5s-2.5 -17.833 -7.5 -23.5s-11.833 -8.5 -20.5 -8.5s-15.5 2.83301 -20.5 8.5zM436 262h-345.002c0 -76 15.5 -135.333 46.5 -178s73.833 -64 128.5 -64
c50.667 0 95.334 15 134.001 45l14 -26c-18 -16 -40 -28.5 -66 -37.5s-53 -13.5 -81 -13.5c-66.667 0 -118.5 24 -155.5 72s-55.5 115.667 -55.5 203c0 88 16.833 156 50.5 204s81.834 72 144.501 72c58.667 0 104.5 -22 137.5 -66s49.5 -105.667 49.5 -185
c0 -8 -0.666992 -16.667 -2 -26zM136.498 452.5c-26.333 -37 -41.168 -90.833 -44.501 -161.5h312v9c0 65.333 -13.667 116.333 -41 153s-65.666 55 -114.999 55c-48 0 -85.167 -18.5 -111.5 -55.5z" />
    <glyph glyph-name="igrave" unicode="&#xec;" horiz-adv-x="226" 
d="M96 526h34v-526h-34v526zM16 778v6h38l100 -163v-6h-30z" />
    <glyph glyph-name="iacute" unicode="&#xed;" horiz-adv-x="226" 
d="M96 526h34v-526h-34v526zM76 621l108 163h38v-6l-116 -163h-30v6z" />
    <glyph glyph-name="icircumflex" unicode="&#xee;" horiz-adv-x="226" 
d="M96 526h34v-526h-34v526zM231 621v-6h-30l-89 140l-89 -140h-30v6l103 163h32z" />
    <glyph glyph-name="idieresis" unicode="&#xef;" horiz-adv-x="226" 
d="M22.5 651.5c-5 5.66699 -7.5 13.5 -7.5 23.5s2.5 17.833 7.5 23.5s11.833 8.5 20.5 8.5s15.5 -2.83301 20.5 -8.5s7.5 -13.5 7.5 -23.5s-2.5 -17.833 -7.5 -23.5s-11.833 -8.5 -20.5 -8.5s-15.5 2.83301 -20.5 8.5zM162.5 651.5c-5 5.66699 -7.5 13.5 -7.5 23.5
s2.5 17.833 7.5 23.5s11.833 8.5 20.5 8.5s15.5 -2.83301 20.5 -8.5s7.5 -13.5 7.5 -23.5s-2.5 -17.833 -7.5 -23.5s-11.833 -8.5 -20.5 -8.5s-15.5 2.83301 -20.5 8.5zM96 526h34v-526h-34v526z" />
    <glyph glyph-name="eth" unicode="&#xf0;" horiz-adv-x="505" 
d="M410.5 528.5c24.333 -67.667 36.4971 -150.167 36.4971 -247.5c0 -96 -17.167 -169 -51.5 -219s-83.166 -75 -146.499 -75c-62.667 0 -111 22.667 -145 68s-51 111.333 -51 198c0 90 16.333 158.5 49 205.5s79.334 70.5 140.001 70.5c38.667 0 72.5 -10.167 101.5 -30.5
s50.5 -48.833 64.5 -85.5c-18 112.667 -64 199 -138 259l-127 -89l-14 23l119 83c-32 22 -68 39 -108 51l-20 6l8 28l20 -6c50.667 -15.333 93.334 -35.333 128.001 -60l83 59l15 -23l-76 -52c50.667 -41.333 88.167 -95.833 112.5 -163.5zM370.497 77.5
c27.667 39.667 41.5 98.167 41.5 175.5c0 76.667 -14.333 136.667 -43 180s-68.667 65 -120 65c-52.667 0 -92.667 -20.667 -120 -62s-41 -102.333 -41 -183c0 -77.333 13.667 -135.833 41 -175.5s67.333 -59.5 120 -59.5c53.333 0 93.833 19.833 121.5 59.5z" />
    <glyph glyph-name="ntilde" unicode="&#xf1;" horiz-adv-x="528" 
d="M400.5 498.5c25.667 -27 38.501 -64.833 38.501 -113.5v-385h-34v379c0 42 -9.66699 73.833 -29 95.5s-48 32.5 -86 32.5c-28.667 0 -56 -6.66699 -82 -20s-52.667 -34 -80 -62v-425h-34v526h33v-69c45.333 54.667 100.666 82 165.999 82c46 0 81.833 -13.5 107.5 -40.5z
M287.501 633c-10.333 8.66699 -20.833 21 -31.5 37c-9.33301 13.333 -17.5 23.166 -24.5 29.499s-15.833 9.5 -26.5 9.5c-31.333 0 -49 -29 -53 -87h-26c0.666992 36.667 8.16699 65.334 22.5 86.001s33.5 31 57.5 31c16.667 0 30.167 -4.33301 40.5 -13
s20.833 -21 31.5 -37c9.33301 -13.333 17.5 -23.166 24.5 -29.499s15.833 -9.5 26.5 -9.5c31.333 0 49 29 53 87h26c-0.666992 -36.667 -8.16699 -65.334 -22.5 -86.001s-33.5 -31 -57.5 -31c-16.667 0 -30.167 4.33301 -40.5 13z" />
    <glyph glyph-name="ograve" unicode="&#xf2;" horiz-adv-x="504" 
d="M108.5 57.5c-33.667 47 -50.5 115.5 -50.5 205.5s16.833 158.5 50.5 205.5s81.5 70.5 143.5 70.5s109.833 -23.5 143.5 -70.5s50.5 -115.5 50.5 -205.5s-16.833 -158.5 -50.5 -205.5s-81.5 -70.5 -143.5 -70.5s-109.833 23.5 -143.5 70.5zM370.5 80
c27 41.333 40.5 102.333 40.5 183s-13.5 141.667 -40.5 183s-66.5 62 -118.5 62s-91.5 -20.667 -118.5 -62s-40.5 -102.333 -40.5 -183s13.5 -141.667 40.5 -183s66.5 -62 118.5 -62s91.5 20.667 118.5 62zM155 778v6h38l100 -163v-6h-30z" />
    <glyph glyph-name="oacute" unicode="&#xf3;" horiz-adv-x="504" 
d="M108.5 57.5c-33.667 47 -50.5 115.5 -50.5 205.5s16.833 158.5 50.5 205.5s81.5 70.5 143.5 70.5s109.833 -23.5 143.5 -70.5s50.5 -115.5 50.5 -205.5s-16.833 -158.5 -50.5 -205.5s-81.5 -70.5 -143.5 -70.5s-109.833 23.5 -143.5 70.5zM370.5 80
c27 41.333 40.5 102.333 40.5 183s-13.5 141.667 -40.5 183s-66.5 62 -118.5 62s-91.5 -20.667 -118.5 -62s-40.5 -102.333 -40.5 -183s13.5 -141.667 40.5 -183s66.5 -62 118.5 -62s91.5 20.667 118.5 62zM215 621l108 163h38v-6l-116 -163h-30v6z" />
    <glyph glyph-name="ocircumflex" unicode="&#xf4;" horiz-adv-x="504" 
d="M108.5 57.5c-33.667 47 -50.5 115.5 -50.5 205.5s16.833 158.5 50.5 205.5s81.5 70.5 143.5 70.5s109.833 -23.5 143.5 -70.5s50.5 -115.5 50.5 -205.5s-16.833 -158.5 -50.5 -205.5s-81.5 -70.5 -143.5 -70.5s-109.833 23.5 -143.5 70.5zM370.5 80
c27 41.333 40.5 102.333 40.5 183s-13.5 141.667 -40.5 183s-66.5 62 -118.5 62s-91.5 -20.667 -118.5 -62s-40.5 -102.333 -40.5 -183s13.5 -141.667 40.5 -183s66.5 -62 118.5 -62s91.5 20.667 118.5 62zM370 621v-6h-30l-89 140l-89 -140h-30v6l103 163h32z" />
    <glyph glyph-name="otilde" unicode="&#xf5;" horiz-adv-x="504" 
d="M108.5 57.5c-33.667 47 -50.5 115.5 -50.5 205.5s16.833 158.5 50.5 205.5s81.5 70.5 143.5 70.5s109.833 -23.5 143.5 -70.5s50.5 -115.5 50.5 -205.5s-16.833 -158.5 -50.5 -205.5s-81.5 -70.5 -143.5 -70.5s-109.833 23.5 -143.5 70.5zM370.5 80
c27 41.333 40.5 102.333 40.5 183s-13.5 141.667 -40.5 183s-66.5 62 -118.5 62s-91.5 -20.667 -118.5 -62s-40.5 -102.333 -40.5 -183s13.5 -141.667 40.5 -183s66.5 -62 118.5 -62s91.5 20.667 118.5 62zM272.5 633c-10.333 8.66699 -20.833 21 -31.5 37
c-9.33301 13.333 -17.5 23.166 -24.5 29.499s-15.833 9.5 -26.5 9.5c-31.333 0 -49 -29 -53 -87h-26c0.666992 36.667 8.16699 65.334 22.5 86.001s33.5 31 57.5 31c16.667 0 30.167 -4.33301 40.5 -13s20.833 -21 31.5 -37c9.33301 -13.333 17.5 -23.166 24.5 -29.499
s15.833 -9.5 26.5 -9.5c31.333 0 49 29 53 87h26c-0.666992 -36.667 -8.16699 -65.334 -22.5 -86.001s-33.5 -31 -57.5 -31c-16.667 0 -30.167 4.33301 -40.5 13z" />
    <glyph glyph-name="odieresis" unicode="&#xf6;" horiz-adv-x="504" 
d="M147.5 651.5c-5 5.66699 -7.5 13.5 -7.5 23.5s2.5 17.833 7.5 23.5s11.833 8.5 20.5 8.5s15.5 -2.83301 20.5 -8.5s7.5 -13.5 7.5 -23.5s-2.5 -17.833 -7.5 -23.5s-11.833 -8.5 -20.5 -8.5s-15.5 2.83301 -20.5 8.5zM315.5 651.5c-5 5.66699 -7.5 13.5 -7.5 23.5
s2.5 17.833 7.5 23.5s11.833 8.5 20.5 8.5s15.5 -2.83301 20.5 -8.5s7.5 -13.5 7.5 -23.5s-2.5 -17.833 -7.5 -23.5s-11.833 -8.5 -20.5 -8.5s-15.5 2.83301 -20.5 8.5zM108.5 57.5c-33.667 47 -50.5 115.5 -50.5 205.5s16.833 158.5 50.5 205.5s81.5 70.5 143.5 70.5
s109.833 -23.5 143.5 -70.5s50.5 -115.5 50.5 -205.5s-16.833 -158.5 -50.5 -205.5s-81.5 -70.5 -143.5 -70.5s-109.833 23.5 -143.5 70.5zM370.5 80c27 41.333 40.5 102.333 40.5 183s-13.5 141.667 -40.5 183s-66.5 62 -118.5 62s-91.5 -20.667 -118.5 -62
s-40.5 -102.333 -40.5 -183s13.5 -141.667 40.5 -183s66.5 -62 118.5 -62s91.5 20.667 118.5 62z" />
    <glyph glyph-name="divide" unicode="&#xf7;" horiz-adv-x="520" 
d="M236 507c-6 6 -9 14.333 -9 25s3 19 9 25s14 9 24 9s18 -3 24 -9s9 -14.333 9 -25s-3 -19 -9 -25s-14 -9 -24 -9s-18 3 -24 9zM75 380h370v-32h-370v32zM236 170c-6 6 -9 14.333 -9 25s3 19 9 25s14 9 24 9s18 -3 24 -9s9 -14.333 9 -25s-3 -19 -9 -25s-14 -9 -24 -9
s-18 3 -24 9z" />
    <glyph glyph-name="oslash" unicode="&#xf8;" horiz-adv-x="504" 
d="M475 538l-67.002 -88c25.333 -46.667 38 -109 38 -187c0 -90 -16.667 -158.5 -50 -205.5s-81.333 -70.5 -144 -70.5c-61.333 0 -108.666 22.667 -141.999 68l-49 -65h-32v6l65 85c-24 45.333 -36 106 -36 182c0 90 16.833 158.5 50.5 205.5s81.834 70.5 144.501 70.5
c59.333 0 105.333 -21.333 138 -64l52 69h32v-6zM132.498 446.5c-27 -41.667 -40.501 -102.833 -40.501 -183.5c0 -62 8 -112.667 24 -152l255 337c-27.333 40.667 -66.666 61 -117.999 61c-53.333 0 -93.5 -20.833 -120.5 -62.5zM371.497 79.001
c27 41.333 40.5 102.666 40.5 183.999c0 64.667 -8.66699 117.334 -26 158.001l-256 -338c27.333 -44 68 -66 122 -66c52.667 0 92.5 20.667 119.5 62z" />
    <glyph glyph-name="ugrave" unicode="&#xf9;" horiz-adv-x="520" 
d="M426 526v-526h-33v75c-22 -28.667 -46.833 -50.5 -74.5 -65.5s-57.167 -22.5 -88.5 -22.5c-45.333 0 -80.5 13.5 -105.5 40.5s-37.5 64.833 -37.5 113.5v385h34v-379c0 -42 9.5 -73.833 28.5 -95.5s46.833 -32.5 83.5 -32.5c29.333 0 56.833 7.16699 82.5 21.5
s51.167 36.5 76.5 66.5v419h34zM160 778v6h38l100 -163v-6h-30z" />
    <glyph glyph-name="uacute" unicode="&#xfa;" horiz-adv-x="520" 
d="M426 526v-526h-33v75c-22 -28.667 -46.833 -50.5 -74.5 -65.5s-57.167 -22.5 -88.5 -22.5c-45.333 0 -80.5 13.5 -105.5 40.5s-37.5 64.833 -37.5 113.5v385h34v-379c0 -42 9.5 -73.833 28.5 -95.5s46.833 -32.5 83.5 -32.5c29.333 0 56.833 7.16699 82.5 21.5
s51.167 36.5 76.5 66.5v419h34zM220 621l108 163h38v-6l-116 -163h-30v6z" />
    <glyph glyph-name="ucircumflex" unicode="&#xfb;" horiz-adv-x="520" 
d="M426 526v-526h-33v75c-22 -28.667 -46.833 -50.5 -74.5 -65.5s-57.167 -22.5 -88.5 -22.5c-45.333 0 -80.5 13.5 -105.5 40.5s-37.5 64.833 -37.5 113.5v385h34v-379c0 -42 9.5 -73.833 28.5 -95.5s46.833 -32.5 83.5 -32.5c29.333 0 56.833 7.16699 82.5 21.5
s51.167 36.5 76.5 66.5v419h34zM375 621v-6h-30l-89 140l-89 -140h-30v6l103 163h32z" />
    <glyph glyph-name="udieresis" unicode="&#xfc;" horiz-adv-x="520" 
d="M152.5 651.5c-5 5.66699 -7.5 13.5 -7.5 23.5s2.5 17.833 7.5 23.5s11.833 8.5 20.5 8.5s15.5 -2.83301 20.5 -8.5s7.5 -13.5 7.5 -23.5s-2.5 -17.833 -7.5 -23.5s-11.833 -8.5 -20.5 -8.5s-15.5 2.83301 -20.5 8.5zM320.5 651.5c-5 5.66699 -7.5 13.5 -7.5 23.5
s2.5 17.833 7.5 23.5s11.833 8.5 20.5 8.5s15.5 -2.83301 20.5 -8.5s7.5 -13.5 7.5 -23.5s-2.5 -17.833 -7.5 -23.5s-11.833 -8.5 -20.5 -8.5s-15.5 2.83301 -20.5 8.5zM426 526v-526h-33v75c-22 -28.667 -46.833 -50.5 -74.5 -65.5s-57.167 -22.5 -88.5 -22.5
c-45.333 0 -80.5 13.5 -105.5 40.5s-37.5 64.833 -37.5 113.5v385h34v-379c0 -42 9.5 -73.833 28.5 -95.5s46.833 -32.5 83.5 -32.5c29.333 0 56.833 7.16699 82.5 21.5s51.167 36.5 76.5 66.5v419h34z" />
    <glyph glyph-name="yacute" unicode="&#xfd;" horiz-adv-x="461" 
d="M421 526l-175 -533.999c-16.667 -52.667 -41.5 -96.834 -74.5 -132.501s-72.833 -61.167 -119.5 -76.5l-12 31c42 14.667 77.167 36.667 105.5 66s51.5 68 69.5 116l-175 530h36l155 -488l154 488h36zM196 621.001l108 163h38v-6l-116 -163h-30v6z" />
    <glyph glyph-name="thorn" unicode="&#xfe;" horiz-adv-x="525" 
d="M419.5 466.5c31.667 -48.333 47.499 -116.501 47.499 -204.501c0 -87.333 -16 -155 -48 -203s-77.333 -72 -136 -72c-30.667 0 -59.5 7.33301 -86.5 22s-49.833 35.334 -68.5 62.001v-278h-34v700v277h34v-321c42.667 60 94.667 90 156 90
c58.667 0 103.834 -24.167 135.501 -72.5zM393.499 80.999c25.667 41.333 38.5 101 38.5 179c0 80 -13 141.167 -39 183.5s-63.333 63.5 -112 63.5c-29.333 0 -56.5 -7.5 -81.5 -22.5s-48.833 -38.5 -71.5 -70.5v-304c18.667 -28.667 41.667 -51 69 -67s56.333 -24 87 -24
c47.333 0 83.833 20.667 109.5 62z" />
    <glyph glyph-name="ydieresis" unicode="&#xff;" horiz-adv-x="461" 
d="M128.5 651.5c-5 5.66699 -7.5 13.5 -7.5 23.5s2.5 17.833 7.5 23.5s11.833 8.5 20.5 8.5s15.5 -2.83301 20.5 -8.5s7.5 -13.5 7.5 -23.5s-2.5 -17.833 -7.5 -23.5s-11.833 -8.5 -20.5 -8.5s-15.5 2.83301 -20.5 8.5zM296.5 651.5c-5 5.66699 -7.5 13.5 -7.5 23.5
s2.5 17.833 7.5 23.5s11.833 8.5 20.5 8.5s15.5 -2.83301 20.5 -8.5s7.5 -13.5 7.5 -23.5s-2.5 -17.833 -7.5 -23.5s-11.833 -8.5 -20.5 -8.5s-15.5 2.83301 -20.5 8.5zM421 526l-175 -533.999c-16.667 -52.667 -41.5 -96.834 -74.5 -132.501s-72.833 -61.167 -119.5 -76.5
l-12 31c42 14.667 77.167 36.667 105.5 66s51.5 68 69.5 116l-175 530h36l155 -488l154 488h36z" />
    <glyph glyph-name="Amacron" unicode="&#x100;" horiz-adv-x="610" 
d="M426 825h-242v30h242v-30zM467 215h-325l-74 -215h-36l252 724h42l252 -724h-37zM456 247l-151 441l-152 -441h303z" />
    <glyph glyph-name="amacron" unicode="&#x101;" horiz-adv-x="476" 
d="M347 498.5c28 -27 42 -64.833 42 -113.5v-385h-33v73c-44 -56 -98.333 -84 -163 -84c-48 0 -85.333 13.167 -112 39.5s-40 63.166 -40 110.499c0 62 25.5 107.667 76.5 137s130.167 44.333 237.5 45v57c0 42.667 -10.833 74.834 -32.5 96.501s-53.167 32.5 -94.5 32.5
c-42 0 -83 -11 -123 -33l-11 30c19.333 11.333 41 20 65 26s47.333 9 70 9c50.667 0 90 -13.5 118 -40.5zM278 41.5c26 14.333 51.666 36.168 76.999 65.501v185c-95.333 -0.666992 -165.666 -13.334 -210.999 -38.001s-68 -63 -68 -115c0 -37.333 10.333 -66.5 31 -87.5
s49.667 -31.5 87 -31.5c30 0 58 7.16699 84 21.5zM103.999 685.002h242v-30h-242v30z" />
    <glyph glyph-name="Abreve" unicode="&#x102;" horiz-adv-x="610" 
d="M220.5 832c-21 21.333 -32.499 51.333 -34.499 90h28c4 -30 13.833 -52.833 29.5 -68.5s36.5 -23.5 62.5 -23.5c25.333 0 45.666 7.83301 60.999 23.5s25 38.5 29 68.5h28c-2 -38.667 -13.5 -68.667 -34.5 -90s-49.167 -32 -84.5 -32s-63.5 10.667 -84.5 32zM467.001 215
h-325l-74 -215h-36l252 724h42l252 -724h-37zM456.001 247l-151 441l-152 -441h303z" />
    <glyph glyph-name="abreve" unicode="&#x103;" horiz-adv-x="476" 
d="M347 498.5c28 -27 42 -64.833 42 -113.5v-385h-33v73c-44 -56 -98.333 -84 -163 -84c-48 0 -85.333 13.167 -112 39.5s-40 63.166 -40 110.499c0 62 25.5 107.667 76.5 137s130.167 44.333 237.5 45v57c0 42.667 -10.833 74.834 -32.5 96.501s-53.167 32.5 -94.5 32.5
c-42 0 -83 -11 -123 -33l-11 30c19.333 11.333 41 20 65 26s47.333 9 70 9c50.667 0 90 -13.5 118 -40.5zM278 41.5c26 14.333 51.666 36.168 76.999 65.501v185c-95.333 -0.666992 -165.666 -13.334 -210.999 -38.001s-68 -63 -68 -115c0 -37.333 10.333 -66.5 31 -87.5
s49.667 -31.5 87 -31.5c30 0 58 7.16699 84 21.5zM140.499 662.002c-21 21.333 -32.499 51.333 -34.499 90h28c4 -30 13.833 -52.833 29.5 -68.5s36.5 -23.5 62.5 -23.5c25.333 0 45.666 7.83301 60.999 23.5s25 38.5 29 68.5h28c-2 -38.667 -13.5 -68.667 -34.5 -90
s-49.167 -32 -84.5 -32s-63.5 10.667 -84.5 32z" />
    <glyph glyph-name="Aogonek" unicode="&#x104;" horiz-adv-x="610" 
d="M623 -190c-22.667 -18 -49.333 -26.9961 -80 -26.9961c-26.667 0 -47.167 7 -61.5 21s-21.5 34 -21.5 60c0 25.333 7 49.666 21 72.999s34 44.666 60 63.999l-74 214h-325l-74 -215h-36l252 724h42l252 -724c-28 -18.667 -49.5 -39.334 -64.5 -62.001
s-22.5 -45.334 -22.5 -68.001c0 -18.667 4.83301 -33.167 14.5 -43.5s23.5 -15.5 41.5 -15.5c21.333 0 43 7 65 21zM456.001 247.004l-151 441l-152 -441h303z" />
    <glyph glyph-name="aogonek" unicode="&#x105;" horiz-adv-x="476" 
d="M434 -190c-22.667 -18 -49.333 -26.998 -80 -26.998c-26.667 0 -47.167 7 -61.5 21s-21.5 34 -21.5 60s7.33301 51.167 22 75.5s35.667 45.833 63 64.5v69c-44 -56 -98.333 -84 -163 -84c-48 0 -85.333 13.167 -112 39.5s-40 63.166 -40 110.499
c0 62 25.5 107.667 76.5 137s130.167 44.333 237.5 45v57c0 42.667 -10.833 74.834 -32.5 96.501s-53.167 32.5 -94.5 32.5c-42 0 -83 -11 -123 -33l-11 30c19.333 11.333 41 20 65 26s47.333 9 70 9c50.667 0 90 -13.5 118 -40.5s42 -64.833 42 -113.5v-385
c-28 -18.667 -49.5 -39.334 -64.5 -62.001s-22.5 -45.334 -22.5 -68.001c0 -18.667 4.83301 -33.167 14.5 -43.5s23.5 -15.5 41.5 -15.5c21.333 0 43 7 65 21zM278.001 41.502c26 14.333 51.667 36.168 77 65.501v185c-96 -0.666992 -166.667 -13.334 -212 -38.001
s-68 -63 -68 -115c0 -37.333 10.5 -66.5 31.5 -87.5s50.167 -31.5 87.5 -31.5c30 0 58 7.16699 84 21.5z" />
    <glyph glyph-name="Cacute" unicode="&#x106;" horiz-adv-x="551" 
d="M279 788l155 138h42v-7l-163 -138h-34v7zM129 82c-50 62.667 -75.002 152.333 -75.002 269c0 78.667 11.333 147 34 205s55.334 102.667 98.001 134s92.667 47 150 47c27.333 0 56 -4 86 -12s57.333 -19.333 82 -34l-14 -28c-51.333 28 -103.333 42 -156 42
c-49.333 0 -92.333 -14.167 -129 -42.5s-65 -68.833 -85 -121.5s-30 -114.667 -30 -186c0 -107.333 22.167 -189.833 66.5 -247.5s107.5 -86.5 189.5 -86.5c58.667 0 108.334 12.667 149.001 38l14 -27c-18.667 -14 -42.667 -24.833 -72 -32.5s-60 -11.5 -92 -11.5
c-94 0 -166 31.333 -216 94z" />
    <glyph glyph-name="cacute" unicode="&#x107;" horiz-adv-x="431" 
d="M106.5 62c-35 49.333 -52.501 119.666 -52.501 210.999c0 54 8 101 24 141s38.833 70.833 68.5 92.5s64.5 32.5 104.5 32.5c22 0 45 -3.66699 69 -11s46.333 -17.666 67 -30.999l-13 -27c-43.333 25.333 -84.666 38 -123.999 38c-49.333 0 -88.5 -21 -117.5 -63
s-43.5 -98.667 -43.5 -170c0 -82 14.667 -145 44 -189s71 -66 125 -66c44 0 84.333 12.333 121 37l14 -26c-18 -13.333 -39 -23.833 -63 -31.5s-48.333 -11.5 -73 -11.5c-65.333 0 -115.5 24.667 -150.5 74zM201.999 621l108 163h38v-6l-116 -163h-30v6z" />
    <glyph glyph-name="Ccircumflex" unicode="&#x108;" horiz-adv-x="551" 
d="M221 781h-30v7l117 138h32l117 -138v-7h-30l-103 117zM509 32c-18.667 -14 -42.6689 -24.834 -72.002 -32.501s-60 -11.5 -92 -11.5c-94 0 -166 31.333 -216 94s-75 152.334 -75 269.001c0 78.667 11.333 147 34 205s55.334 102.667 98.001 134s92.667 47 150 47
c27.333 0 56 -4 86 -12s57.333 -19.333 82 -34l-14 -28c-51.333 28 -103.333 42 -156 42c-49.333 0 -92.333 -14.167 -129 -42.5s-65 -68.833 -85 -121.5s-30 -114.667 -30 -186c0 -107.333 22.167 -189.833 66.5 -247.5s107.5 -86.5 189.5 -86.5
c58.667 0 108.334 12.667 149.001 38z" />
    <glyph glyph-name="ccircumflex" unicode="&#x109;" horiz-adv-x="431" 
d="M106.5 62c-35 49.333 -52.501 119.666 -52.501 210.999c0 54 8 101 24 141s38.833 70.833 68.5 92.5s64.5 32.5 104.5 32.5c22 0 45 -3.66699 69 -11s46.333 -17.666 67 -30.999l-13 -27c-43.333 25.333 -84.666 38 -123.999 38c-49.333 0 -88.5 -21 -117.5 -63
s-43.5 -98.667 -43.5 -170c0 -82 14.667 -145 44 -189s71 -66 125 -66c44 0 84.333 12.333 121 37l14 -26c-18 -13.333 -39 -23.833 -63 -31.5s-48.333 -11.5 -73 -11.5c-65.333 0 -115.5 24.667 -150.5 74zM356.999 621v-6h-30l-89 140l-89 -140h-30v6l103 163h32z" />
    <glyph glyph-name="Cdotaccent" unicode="&#x10a;" horiz-adv-x="551" 
d="M302.5 821.5c-5 5.66699 -7.5 13.5 -7.5 23.5c0 10.667 2.5 18.834 7.5 24.501s12.167 8.5 21.5 8.5s16.5 -2.83301 21.5 -8.5s7.5 -13.5 7.5 -23.5c0 -10.667 -2.5 -18.834 -7.5 -24.501s-12.167 -8.5 -21.5 -8.5s-16.5 2.83301 -21.5 8.5zM129 82
c-50 62.667 -75.002 152.333 -75.002 269c0 78.667 11.333 147 34 205s55.334 102.667 98.001 134s92.667 47 150 47c27.333 0 56 -4 86 -12s57.333 -19.333 82 -34l-14 -28c-51.333 28 -103.333 42 -156 42c-49.333 0 -92.333 -14.167 -129 -42.5s-65 -68.833 -85 -121.5
s-30 -114.667 -30 -186c0 -107.333 22.167 -189.833 66.5 -247.5s107.5 -86.5 189.5 -86.5c58.667 0 108.334 12.667 149.001 38l14 -27c-18.667 -14 -42.667 -24.833 -72 -32.5s-60 -11.5 -92 -11.5c-94 0 -166 31.333 -216 94z" />
    <glyph glyph-name="cdotaccent" unicode="&#x10b;" horiz-adv-x="431" 
d="M106.5 62c-35 49.333 -52.501 119.666 -52.501 210.999c0 54 8 101 24 141s38.833 70.833 68.5 92.5s64.5 32.5 104.5 32.5c22 0 45 -3.66699 69 -11s46.333 -17.666 67 -30.999l-13 -27c-43.333 25.333 -84.666 38 -123.999 38c-49.333 0 -88.5 -21 -117.5 -63
s-43.5 -98.667 -43.5 -170c0 -82 14.667 -145 44 -189s71 -66 125 -66c44 0 84.333 12.333 121 37l14 -26c-18 -13.333 -39 -23.833 -63 -31.5s-48.333 -11.5 -73 -11.5c-65.333 0 -115.5 24.667 -150.5 74zM217.499 651.5c-5 5.66699 -7.5 13.5 -7.5 23.5
c0 10.667 2.5 18.834 7.5 24.501s12.167 8.5 21.5 8.5s16.5 -2.83301 21.5 -8.5s7.5 -13.5 7.5 -23.5c0 -10.667 -2.5 -18.834 -7.5 -24.501s-12.167 -8.5 -21.5 -8.5s-16.5 2.83301 -21.5 8.5z" />
    <glyph glyph-name="Ccaron" unicode="&#x10c;" horiz-adv-x="551" 
d="M308 781l-117 138v7h30l103 -117l103 117h30v-7l-117 -138h-32zM509 32c-18.667 -14 -42.6689 -24.834 -72.002 -32.501s-60 -11.5 -92 -11.5c-94 0 -166 31.333 -216 94s-75 152.334 -75 269.001c0 78.667 11.333 147 34 205s55.334 102.667 98.001 134
s92.667 47 150 47c27.333 0 56 -4 86 -12s57.333 -19.333 82 -34l-14 -28c-51.333 28 -103.333 42 -156 42c-49.333 0 -92.333 -14.167 -129 -42.5s-65 -68.833 -85 -121.5s-30 -114.667 -30 -186c0 -107.333 22.167 -189.833 66.5 -247.5s107.5 -86.5 189.5 -86.5
c58.667 0 108.334 12.667 149.001 38z" />
    <glyph glyph-name="ccaron" unicode="&#x10d;" horiz-adv-x="431" 
d="M106.5 62c-35 49.333 -52.501 119.666 -52.501 210.999c0 54 8 101 24 141s38.833 70.833 68.5 92.5s64.5 32.5 104.5 32.5c22 0 45 -3.66699 69 -11s46.333 -17.666 67 -30.999l-13 -27c-43.333 25.333 -84.666 38 -123.999 38c-49.333 0 -88.5 -21 -117.5 -63
s-43.5 -98.667 -43.5 -170c0 -82 14.667 -145 44 -189s71 -66 125 -66c44 0 84.333 12.333 121 37l14 -26c-18 -13.333 -39 -23.833 -63 -31.5s-48.333 -11.5 -73 -11.5c-65.333 0 -115.5 24.667 -150.5 74zM357.999 784v-6l-103 -163h-32l-103 163v6h30l89 -140l89 140h30z
" />
    <glyph glyph-name="Dcaron" unicode="&#x10e;" horiz-adv-x="639" 
d="M297 781l-117 138v7h30l103 -117l103 117h30v-7l-117 -138h-32zM494.5 629.5c53.667 -63 80.498 -151.5 80.498 -265.5c0 -115.333 -27.167 -204.833 -81.5 -268.5s-131.166 -95.5 -230.499 -95.5h-165v724h171c96.667 0 171.834 -31.5 225.501 -94.5zM469.498 116.5
c46.333 56.333 69.5 137.833 69.5 244.5c0 108 -23.667 190.167 -71 246.5s-115.666 84.5 -204.999 84.5h-130v-660h136c87.333 0 154.166 28.167 200.499 84.5z" />
    <glyph glyph-name="dcaron" unicode="&#x10f;" horiz-adv-x="525" 
d="M397 770l34.001 0.000976562v-736v-34h-33v79c-42.667 -60.667 -95 -91 -157 -91c-58.667 0 -103.834 24.167 -135.501 72.5s-47.5 116.5 -47.5 204.5s16 155.833 48 203.5s77.333 71.5 136 71.5c30.667 0 59.5 -7.33301 86.5 -22s49.833 -35.334 68.5 -62.001v314z
M553.001 770.001v-6l-9 -204h-25v210h34zM325.501 42.501c25 15 48.833 38.5 71.5 70.5v304c-18.667 28.667 -41.667 51 -69 67s-56.333 24 -87 24c-47.333 0 -83.833 -20.667 -109.5 -62s-38.5 -101 -38.5 -179c0 -80 13 -141.167 39 -183.5s63.333 -63.5 112 -63.5
c29.333 0 56.5 7.5 81.5 22.5z" />
    <glyph glyph-name="Dcroat" unicode="&#x110;" horiz-adv-x="635" 
d="M490.5 629.5c53.667 -63 80.498 -151.5 80.498 -265.5c0 -115.333 -27.167 -204.833 -81.5 -268.5s-131.166 -95.5 -230.499 -95.5h-165v350h-64v32h64v342h171c96.667 0 171.834 -31.5 225.501 -94.5zM465.498 116.5c46.333 56.333 69.5 137.833 69.5 244.5
c0 108 -23.667 190.167 -71 246.5s-115.666 84.5 -204.999 84.5h-130v-310h204v-32h-204v-318h136c87.333 0 154.166 28.167 200.499 84.5z" />
    <glyph glyph-name="dcroat" unicode="&#x111;" horiz-adv-x="526" 
d="M496 634l-64.001 0.00195312v-634h-33v79c-42.667 -60.667 -95 -91 -157 -91c-58.667 0 -104 23.667 -136 71s-48 114.666 -48 201.999c0 86 16.167 152.667 48.5 200s77.833 71 136.5 71c31.333 0 60.333 -7.33301 87 -22s49.334 -35.334 68.001 -62.001v186h-224v28
h224v108h34v-108h64v-28zM326.499 42.502c25 15 48.833 38.502 71.5 70.502v296c-18.667 28.667 -41.667 51 -69 67s-56.333 24 -87 24c-48 0 -84.833 -20.333 -110.5 -61s-38.5 -99.334 -38.5 -176.001c0 -78.667 13 -138.834 39 -180.501s63.667 -62.5 113 -62.5
c29.333 0 56.5 7.5 81.5 22.5z" />
    <glyph glyph-name="Emacron" unicode="&#x112;" horiz-adv-x="528" 
d="M411 825h-242v30h242v-30zM482 32v-32h-384v724h372v-32h-337v-305h258v-32h-258v-323h349z" />
    <glyph glyph-name="emacron" unicode="&#x113;" horiz-adv-x="490" 
d="M436 262h-345.002c0 -76 15.5 -135.333 46.5 -178s73.833 -64 128.5 -64c50.667 0 95.334 15 134.001 45l14 -26c-18 -16 -40 -28.5 -66 -37.5s-53 -13.5 -81 -13.5c-66.667 0 -118.5 24 -155.5 72s-55.5 115.667 -55.5 203c0 88 16.833 156 50.5 204
s81.834 72 144.501 72c58.667 0 104.5 -22 137.5 -66s49.5 -105.667 49.5 -185c0 -8 -0.666992 -16.667 -2 -26zM136.498 452.5c-26.333 -37 -41.168 -90.833 -44.501 -161.5h312v9c0 65.333 -13.667 116.333 -41 153s-65.666 55 -114.999 55
c-48 0 -85.167 -18.5 -111.5 -55.5zM128.996 685h242v-30h-242v30z" />
    <glyph glyph-name="Ebreve" unicode="&#x114;" horiz-adv-x="528" 
d="M205.5 832c-21 21.333 -32.499 51.333 -34.499 90h28c4 -30 13.833 -52.833 29.5 -68.5s36.5 -23.5 62.5 -23.5c25.333 0 45.666 7.83301 60.999 23.5s25 38.5 29 68.5h28c-2 -38.667 -13.5 -68.667 -34.5 -90s-49.167 -32 -84.5 -32s-63.5 10.667 -84.5 32zM482.001 32
v-32h-384v724h372v-32h-337v-305h258v-32h-258v-323h349z" />
    <glyph glyph-name="ebreve" unicode="&#x115;" horiz-adv-x="490" 
d="M436 262h-345.002c0 -76 15.5 -135.333 46.5 -178s73.833 -64 128.5 -64c50.667 0 95.334 15 134.001 45l14 -26c-18 -16 -40 -28.5 -66 -37.5s-53 -13.5 -81 -13.5c-66.667 0 -118.5 24 -155.5 72s-55.5 115.667 -55.5 203c0 88 16.833 156 50.5 204
s81.834 72 144.501 72c58.667 0 104.5 -22 137.5 -66s49.5 -105.667 49.5 -185c0 -8 -0.666992 -16.667 -2 -26zM136.498 452.5c-26.333 -37 -41.168 -90.833 -44.501 -161.5h312v9c0 65.333 -13.667 116.333 -41 153s-65.666 55 -114.999 55
c-48 0 -85.167 -18.5 -111.5 -55.5zM165.496 662c-21 21.333 -32.499 51.333 -34.499 90h28c4 -30 13.833 -52.833 29.5 -68.5s36.5 -23.5 62.5 -23.5c25.333 0 45.666 7.83301 60.999 23.5s25 38.5 29 68.5h28c-2 -38.667 -13.5 -68.667 -34.5 -90s-49.167 -32 -84.5 -32
s-63.5 10.667 -84.5 32z" />
    <glyph glyph-name="Edotaccent" unicode="&#x116;" horiz-adv-x="528" 
d="M268.5 821.5c-5 5.66699 -7.5 13.5 -7.5 23.5c0 10.667 2.5 18.834 7.5 24.501s12.167 8.5 21.5 8.5s16.5 -2.83301 21.5 -8.5s7.5 -13.5 7.5 -23.5c0 -10.667 -2.5 -18.834 -7.5 -24.501s-12.167 -8.5 -21.5 -8.5s-16.5 2.83301 -21.5 8.5zM482 32v-32h-384v724h372v-32
h-337v-305h258v-32h-258v-323h349z" />
    <glyph glyph-name="edotaccent" unicode="&#x117;" horiz-adv-x="490" 
d="M436 262h-345.002c0 -76 15.5 -135.333 46.5 -178s73.833 -64 128.5 -64c50.667 0 95.334 15 134.001 45l14 -26c-18 -16 -40 -28.5 -66 -37.5s-53 -13.5 -81 -13.5c-66.667 0 -118.5 24 -155.5 72s-55.5 115.667 -55.5 203c0 88 16.833 156 50.5 204
s81.834 72 144.501 72c58.667 0 104.5 -22 137.5 -66s49.5 -105.667 49.5 -185c0 -8 -0.666992 -16.667 -2 -26zM136.498 452.5c-26.333 -37 -41.168 -90.833 -44.501 -161.5h312v9c0 65.333 -13.667 116.333 -41 153s-65.666 55 -114.999 55
c-48 0 -85.167 -18.5 -111.5 -55.5zM228.496 651.5c-5 5.66699 -7.5 13.5 -7.5 23.5c0 10.667 2.5 18.834 7.5 24.501s12.167 8.5 21.5 8.5s16.5 -2.83301 21.5 -8.5s7.5 -13.5 7.5 -23.5c0 -10.667 -2.5 -18.834 -7.5 -24.501s-12.167 -8.5 -21.5 -8.5
s-16.5 2.83301 -21.5 8.5z" />
    <glyph glyph-name="Eogonek" unicode="&#x118;" horiz-adv-x="528" 
d="M527 -190c-22.667 -18 -49.333 -26.9971 -80 -26.9971c-26.667 0 -47.167 7 -61.5 21s-21.5 34 -21.5 60c0 24.667 6.83301 48.667 20.5 72s33.167 44.666 58.5 63.999h-345v724h372v-32h-337v-305h258v-32h-258v-323h349v-32c-28 -18.667 -49.5 -39.334 -64.5 -62.001
s-22.5 -45.334 -22.5 -68.001c0 -18.667 4.83301 -33.167 14.5 -43.5s23.5 -15.5 41.5 -15.5c21.333 0 43 7 65 21z" />
    <glyph glyph-name="eogonek" unicode="&#x119;" horiz-adv-x="490" 
d="M436 262h-345.002c0 -76 15.5 -135.333 46.5 -178s73.833 -64 128.5 -64c50.667 0 95.334 15 134.001 45l14 -26c-10.667 -8 -22 -15.667 -34 -23c-32 -19.333 -57 -42 -75 -68s-27 -52 -27 -78c0 -18.667 4.83301 -33.167 14.5 -43.5s23.5 -15.5 41.5 -15.5
c21.333 0 43 7 65 21l11 -22c-22.667 -18 -49.334 -27 -80.001 -27c-26.667 0 -47.167 7 -61.5 21s-21.5 34 -21.5 60c0 22 5.5 44 16.5 66s26.5 42.667 46.5 62c-15.333 -2.66699 -29.666 -4 -42.999 -4c-66.667 0 -118.5 24 -155.5 72s-55.5 115.667 -55.5 203
c0 88 16.833 156 50.5 204s81.834 72 144.501 72c58.667 0 104.5 -22 137.5 -66s49.5 -105.667 49.5 -185c0 -8 -0.666992 -16.667 -2 -26zM136.498 452.5c-26.333 -37 -41.168 -90.833 -44.501 -161.5h312v9c0 65.333 -13.667 116.333 -41 153s-65.666 55 -114.999 55
c-48 0 -85.167 -18.5 -111.5 -55.5z" />
    <glyph glyph-name="Ecaron" unicode="&#x11a;" horiz-adv-x="528" 
d="M274 781l-117 138v7h30l103 -117l103 117h30v-7l-117 -138h-32zM482 32v-32h-384v724h372v-32h-337v-305h258v-32h-258v-323h349z" />
    <glyph glyph-name="ecaron" unicode="&#x11b;" horiz-adv-x="490" 
d="M436 262h-345.002c0 -76 15.5 -135.333 46.5 -178s73.833 -64 128.5 -64c50.667 0 95.334 15 134.001 45l14 -26c-18 -16 -40 -28.5 -66 -37.5s-53 -13.5 -81 -13.5c-66.667 0 -118.5 24 -155.5 72s-55.5 115.667 -55.5 203c0 88 16.833 156 50.5 204
s81.834 72 144.501 72c58.667 0 104.5 -22 137.5 -66s49.5 -105.667 49.5 -185c0 -8 -0.666992 -16.667 -2 -26zM136.498 452.5c-26.333 -37 -41.168 -90.833 -44.501 -161.5h312v9c0 65.333 -13.667 116.333 -41 153s-65.666 55 -114.999 55
c-48 0 -85.167 -18.5 -111.5 -55.5zM368.996 784v-6l-103 -163h-32l-103 163v6h30l89 -140l89 140h30z" />
    <glyph glyph-name="Gcircumflex" unicode="&#x11c;" horiz-adv-x="618" 
d="M230 781h-30v7l117 138h32l117 -138v-7h-30l-103 117zM540 356l0.000976562 -321.004c-26 -15.333 -55.333 -27.166 -88 -35.499s-65.334 -12.5 -98.001 -12.5c-92 0 -163.333 32.833 -214 98.5s-76 157.834 -76 276.501s25.333 210.834 76 276.501s122 98.5 214 98.5
c30.667 0 61 -3.83301 91 -11.5s56.333 -18.5 79 -32.5l-13 -28c-49.333 26 -102 39 -158 39c-82 0 -144.667 -29.167 -188 -87.5s-65 -143.166 -65 -254.499s21.667 -196.333 65 -255s106.333 -88 189 -88c50.667 0 101 10.667 151 32v273h-135v32h170z" />
    <glyph glyph-name="gcircumflex" unicode="&#x11d;" horiz-adv-x="526" 
d="M432 526l0.00195312 -537c0 -64 -17.833 -113.5 -53.5 -148.5s-85.834 -52.5 -150.501 -52.5c-23.333 0 -45.833 2.5 -67.5 7.5s-40.167 11.833 -55.5 20.5l11 30c33.333 -17.333 71.666 -26 114.999 -26c54 0 95.333 14.333 124 43s43 70 43 124v109
c-20 -29.333 -43.167 -51.5 -69.5 -66.5s-55.166 -22.5 -86.499 -22.5c-58 0 -103.167 23.5 -135.5 70.5s-48.5 112.5 -48.5 196.5c0 83.333 16.333 148.333 49 195s78 70 136 70c31.333 0 60.666 -7.5 87.999 -22.5s50 -35.833 68 -62.5v72h33zM325.502 61.5
c25 15 49.168 38.167 72.501 69.5v285c-18 28.667 -40.833 51 -68.5 67s-56.834 24 -87.501 24c-49.333 0 -86.5 -19.5 -111.5 -58.5s-37.5 -96.5 -37.5 -172.5c0 -78 12.833 -137 38.5 -177s63.5 -60 113.5 -60c28.667 0 55.5 7.5 80.5 22.5zM378.003 621v-6h-30l-89 140
l-89 -140h-30v6l103 163h32z" />
    <glyph glyph-name="Gbreve" unicode="&#x11e;" horiz-adv-x="618" 
d="M248.5 832c-21 21.333 -32.499 51.333 -34.499 90h28c4 -30 13.833 -52.833 29.5 -68.5s36.5 -23.5 62.5 -23.5c25.333 0 45.666 7.83301 60.999 23.5s25 38.5 29 68.5h28c-2 -38.667 -13.5 -68.667 -34.5 -90s-49.167 -32 -84.5 -32s-63.5 10.667 -84.5 32zM540.001 356
l0.000976562 -321.004c-26 -15.333 -55.333 -27.166 -88 -35.499s-65.334 -12.5 -98.001 -12.5c-92 0 -163.333 32.833 -214 98.5s-76 157.834 -76 276.501s25.333 210.834 76 276.501s122 98.5 214 98.5c30.667 0 61 -3.83301 91 -11.5s56.333 -18.5 79 -32.5l-13 -28
c-49.333 26 -102 39 -158 39c-82 0 -144.667 -29.167 -188 -87.5s-65 -143.166 -65 -254.499s21.667 -196.333 65 -255s106.333 -88 189 -88c50.667 0 101 10.667 151 32v273h-135v32h170z" />
    <glyph glyph-name="gbreve" unicode="&#x11f;" horiz-adv-x="526" 
d="M432 526l0.00195312 -537c0 -64 -17.833 -113.5 -53.5 -148.5s-85.834 -52.5 -150.501 -52.5c-23.333 0 -45.833 2.5 -67.5 7.5s-40.167 11.833 -55.5 20.5l11 30c33.333 -17.333 71.666 -26 114.999 -26c54 0 95.333 14.333 124 43s43 70 43 124v109
c-20 -29.333 -43.167 -51.5 -69.5 -66.5s-55.166 -22.5 -86.499 -22.5c-58 0 -103.167 23.5 -135.5 70.5s-48.5 112.5 -48.5 196.5c0 83.333 16.333 148.333 49 195s78 70 136 70c31.333 0 60.666 -7.5 87.999 -22.5s50 -35.833 68 -62.5v72h33zM325.502 61.5
c25 15 49.168 38.167 72.501 69.5v285c-18 28.667 -40.833 51 -68.5 67s-56.834 24 -87.501 24c-49.333 0 -86.5 -19.5 -111.5 -58.5s-37.5 -96.5 -37.5 -172.5c0 -78 12.833 -137 38.5 -177s63.5 -60 113.5 -60c28.667 0 55.5 7.5 80.5 22.5zM175.503 662
c-21 21.333 -32.499 51.333 -34.499 90h28c4 -30 13.833 -52.833 29.5 -68.5s36.5 -23.5 62.5 -23.5c25.333 0 45.666 7.83301 60.999 23.5s25 38.5 29 68.5h28c-2 -38.667 -13.5 -68.667 -34.5 -90s-49.167 -32 -84.5 -32s-63.5 10.667 -84.5 32z" />
    <glyph glyph-name="Gdotaccent" unicode="&#x120;" horiz-adv-x="618" 
d="M311.5 821.5c-5 5.66699 -7.5 13.5 -7.5 23.5c0 10.667 2.5 18.834 7.5 24.501s12.167 8.5 21.5 8.5s16.5 -2.83301 21.5 -8.5s7.5 -13.5 7.5 -23.5c0 -10.667 -2.5 -18.834 -7.5 -24.501s-12.167 -8.5 -21.5 -8.5s-16.5 2.83301 -21.5 8.5zM540 356
l0.000976562 -321.004c-26 -15.333 -55.333 -27.166 -88 -35.499s-65.334 -12.5 -98.001 -12.5c-92 0 -163.333 32.833 -214 98.5s-76 157.834 -76 276.501s25.333 210.834 76 276.501s122 98.5 214 98.5c30.667 0 61 -3.83301 91 -11.5s56.333 -18.5 79 -32.5l-13 -28
c-49.333 26 -102 39 -158 39c-82 0 -144.667 -29.167 -188 -87.5s-65 -143.166 -65 -254.499s21.667 -196.333 65 -255s106.333 -88 189 -88c50.667 0 101 10.667 151 32v273h-135v32h170z" />
    <glyph glyph-name="gdotaccent" unicode="&#x121;" horiz-adv-x="526" 
d="M432 526l0.00195312 -537c0 -64 -17.833 -113.5 -53.5 -148.5s-85.834 -52.5 -150.501 -52.5c-23.333 0 -45.833 2.5 -67.5 7.5s-40.167 11.833 -55.5 20.5l11 30c33.333 -17.333 71.666 -26 114.999 -26c54 0 95.333 14.333 124 43s43 70 43 124v109
c-20 -29.333 -43.167 -51.5 -69.5 -66.5s-55.166 -22.5 -86.499 -22.5c-58 0 -103.167 23.5 -135.5 70.5s-48.5 112.5 -48.5 196.5c0 83.333 16.333 148.333 49 195s78 70 136 70c31.333 0 60.666 -7.5 87.999 -22.5s50 -35.833 68 -62.5v72h33zM325.502 61.5
c25 15 49.168 38.167 72.501 69.5v285c-18 28.667 -40.833 51 -68.5 67s-56.834 24 -87.501 24c-49.333 0 -86.5 -19.5 -111.5 -58.5s-37.5 -96.5 -37.5 -172.5c0 -78 12.833 -137 38.5 -177s63.5 -60 113.5 -60c28.667 0 55.5 7.5 80.5 22.5zM238.503 651.5
c-5 5.66699 -7.5 13.5 -7.5 23.5c0 10.667 2.5 18.834 7.5 24.501s12.167 8.5 21.5 8.5s16.5 -2.83301 21.5 -8.5s7.5 -13.5 7.5 -23.5c0 -10.667 -2.5 -18.834 -7.5 -24.501s-12.167 -8.5 -21.5 -8.5s-16.5 2.83301 -21.5 8.5z" />
    <glyph glyph-name="Gcommaaccent" unicode="&#x122;" horiz-adv-x="618" 
d="M540 356l0.000976562 -321.004c-26 -15.333 -55.333 -27.166 -88 -35.499s-65.334 -12.5 -98.001 -12.5c-92 0 -163.333 32.833 -214 98.5s-76 157.834 -76 276.501s25.333 210.834 76 276.501s122 98.5 214 98.5c30.667 0 61 -3.83301 91 -11.5s56.333 -18.5 79 -32.5
l-13 -28c-49.333 26 -102 39 -158 39c-82 0 -144.667 -29.167 -188 -87.5s-65 -143.166 -65 -254.499s21.667 -196.333 65 -255s106.333 -88 189 -88c50.667 0 101 10.667 151 32v273h-135v32h170zM267.001 -251.004c19.333 19.333 32.668 38.1689 40.001 56.502
s11 41.5 11 69.5c0 10.667 -0.666992 22 -2 34h34c1.33301 -12 2 -23 2 -33c0 -30.667 -5.33301 -57.334 -16 -80.001s-28.334 -44.334 -53.001 -65.001z" />
    <glyph glyph-name="gcommaaccent" unicode="&#x123;" horiz-adv-x="526" 
d="M432 526l0.00195312 -537c0 -64 -17.833 -113.5 -53.5 -148.5s-85.834 -52.5 -150.501 -52.5c-23.333 0 -45.833 2.5 -67.5 7.5s-40.167 11.833 -55.5 20.5l11 30c33.333 -17.333 71.666 -26 114.999 -26c54 0 95.333 14.333 124 43s43 70 43 124v109
c-20 -29.333 -43.167 -51.5 -69.5 -66.5s-55.166 -22.5 -86.499 -22.5c-58 0 -103.167 23.5 -135.5 70.5s-48.5 112.5 -48.5 196.5c0 83.333 16.333 148.333 49 195s78 70 136 70c31.333 0 60.666 -7.5 87.999 -22.5s50 -35.833 68 -62.5v72h33zM325.502 61.5
c25 15 49.168 38.167 72.501 69.5v285c-18 28.667 -40.833 51 -68.5 67s-56.834 24 -87.501 24c-49.333 0 -86.5 -19.5 -111.5 -58.5s-37.5 -96.5 -37.5 -172.5c0 -78 12.833 -137 38.5 -177s63.5 -60 113.5 -60c28.667 0 55.5 7.5 80.5 22.5zM309.003 785
c-19.333 -19.333 -32.668 -38.1689 -40.001 -56.502s-11 -41.5 -11 -69.5c0 -10.667 0.666992 -22 2 -34h-34c-1.33301 12 -2 23 -2 33c0 30.667 5.33301 57.334 16 80.001s28.334 44.334 53.001 65.001z" />
    <glyph glyph-name="Hcircumflex" unicode="&#x124;" horiz-adv-x="648" 
d="M221 781h-30v7l117 138h32l117 -138v-7h-30l-103 117zM550 724v-724h-35v352h-382v-352h-35v724h35v-340h382v340h35z" />
    <glyph glyph-name="hcircumflex" unicode="&#x125;" horiz-adv-x="530" 
d="M111 944l-103 -117h-30v7l117 138h32l117 -138v-7h-30zM402 498.5c26 -27 39 -64.833 39 -113.5v-385h-34v379c0 42 -9.83301 73.833 -29.5 95.5s-48.5 32.5 -86.5 32.5c-29.333 0 -57 -6.66699 -83 -20s-52.667 -34 -80 -62v-425h-34v770h34v-312
c46 54 101.333 81 166 81c46 0 82 -13.5 108 -40.5z" />
    <glyph glyph-name="Hbar" unicode="&#x126;" horiz-adv-x="649" 
d="M616 541h-66v-541h-35v352h-382v-352h-35v541h-65v30h65v153h35v-153h382v153h35v-153h66v-30zM515 541h-382v-157h382v157z" />
    <glyph glyph-name="hbar" unicode="&#x127;" horiz-adv-x="527" 
d="M399 490.5c26 -27 39.001 -64.833 39.001 -113.5v-377h-34v371c0 42 -9.83301 73.833 -29.5 95.5s-48.834 32.5 -87.501 32.5c-29.333 0 -57 -6.66699 -83 -20s-52.667 -34 -80 -62v-417h-34v634h-64v28h64v108h34v-108h220v-28h-220v-184c46 54 101.333 81 166 81
c46.667 0 83 -13.5 109 -40.5z" />
    <glyph glyph-name="Itilde" unicode="&#x128;" horiz-adv-x="234" 
d="M132.5 802.5c-9 8.33301 -18.833 21.166 -29.5 38.499c-6.66699 12.667 -13.167 22.167 -19.5 28.5s-14.166 9.5 -23.499 9.5c-13.333 0 -23.666 -7.33301 -30.999 -22s-11.333 -36.334 -12 -65.001h-26c0 36.667 6.33301 65.334 19 86.001s30.667 31 54 31
c16 0 28.5 -4.16699 37.5 -12.5s18.833 -21.166 29.5 -38.499c6.66699 -12.667 13.167 -22.167 19.5 -28.5s14.166 -9.5 23.499 -9.5c13.333 0 23.666 7.33301 30.999 22s11.333 36.334 12 65.001h26c0 -36.667 -6.33301 -65.334 -19 -86.001s-30.667 -31 -54 -31
c-16 0 -28.5 4.16699 -37.5 12.5zM100 724h34v-724h-34v724z" />
    <glyph glyph-name="itilde" unicode="&#x129;" horiz-adv-x="226" 
d="M128.5 632.5c-9 8.33301 -18.833 21.166 -29.5 38.499c-6.66699 12.667 -13.167 22.167 -19.5 28.5s-14.166 9.5 -23.499 9.5c-13.333 0 -23.666 -7.33301 -30.999 -22s-11.333 -36.334 -12 -65.001h-26c0 36.667 6.33301 65.334 19 86.001s30.667 31 54 31
c16 0 28.5 -4.16699 37.5 -12.5s18.833 -21.166 29.5 -38.499c6.66699 -12.667 13.167 -22.167 19.5 -28.5s14.166 -9.5 23.499 -9.5c13.333 0 23.666 7.33301 30.999 22s11.333 36.334 12 65.001h26c0 -36.667 -6.33301 -65.334 -19 -86.001s-30.667 -31 -54 -31
c-16 0 -28.5 4.16699 -37.5 12.5zM96 526h34v-526h-34v526z" />
    <glyph glyph-name="Imacron" unicode="&#x12a;" horiz-adv-x="234" 
d="M-4 855h242v-30h-242v30zM100 724h34v-724h-34v724z" />
    <glyph glyph-name="imacron" unicode="&#x12b;" horiz-adv-x="226" 
d="M19 685h188v-30h-188v30zM96 526h34v-526h-34v526z" />
    <glyph glyph-name="Ibreve" unicode="&#x12c;" horiz-adv-x="234" 
d="M32.5 832c-21 21.333 -32.499 51.333 -34.499 90h28c4 -30 13.833 -52.833 29.5 -68.5s36.5 -23.5 62.5 -23.5c25.333 0 45.666 7.83301 60.999 23.5s25 38.5 29 68.5h28c-2 -38.667 -13.5 -68.667 -34.5 -90s-49.167 -32 -84.5 -32s-63.5 10.667 -84.5 32zM100.001 724
h34v-724h-34v724z" />
    <glyph glyph-name="ibreve" unicode="&#x12d;" horiz-adv-x="226" 
d="M96 526h34v-526h-34v526zM28.5 662c-21 21.333 -32.499 51.333 -34.499 90h28c4 -30 13.833 -52.833 29.5 -68.5s36.5 -23.5 62.5 -23.5c25.333 0 45.666 7.83301 60.999 23.5s25 38.5 29 68.5h28c-2 -38.667 -13.5 -68.667 -34.5 -90s-49.167 -32 -84.5 -32
s-63.5 10.667 -84.5 32z" />
    <glyph glyph-name="Iogonek" unicode="&#x12e;" horiz-adv-x="235" 
d="M202 -190c-22.667 -18 -49.333 -27.0029 -80 -27.0029c-26.667 0 -47.167 7 -61.5 21s-21.5 34 -21.5 60c0 22.667 5.5 45.834 16.5 69.501s26.167 45.834 45.5 66.501h-1v724h34v-724h1c-43.333 -45.333 -65 -88.666 -65 -129.999c0 -18.667 4.83301 -33.167 14.5 -43.5
s23.5 -15.5 41.5 -15.5c21.333 0 43 7 65 21z" />
    <glyph glyph-name="iogonek" unicode="&#x12f;" horiz-adv-x="226" 
d="M91.5 651.5c-5 5.66699 -7.5 13.5 -7.5 23.5c0 10.667 2.5 18.834 7.5 24.501s12.167 8.5 21.5 8.5s16.5 -2.83301 21.5 -8.5s7.5 -13.5 7.5 -23.5c0 -10.667 -2.5 -18.834 -7.5 -24.501s-12.167 -8.5 -21.5 -8.5s-16.5 2.83301 -21.5 8.5zM197 -190
c-23.333 -18 -50 -27.0029 -80 -27.0029c-26.667 0 -47.167 7 -61.5 21s-21.5 34 -21.5 60c0 22.667 5.5 45.834 16.5 69.501s26.167 45.834 45.5 66.501v526h34v-526c-43.333 -45.333 -65 -88.666 -65 -129.999c0 -18.667 4.83301 -33.167 14.5 -43.5
s23.5 -15.5 41.5 -15.5c21.333 0 43 7 65 21z" />
    <glyph glyph-name="Idotaccent" unicode="&#x130;" horiz-adv-x="234" 
d="M95.5 821.5c-5 5.66699 -7.5 13.5 -7.5 23.5c0 10.667 2.5 18.834 7.5 24.501s12.167 8.5 21.5 8.5s16.5 -2.83301 21.5 -8.5s7.5 -13.5 7.5 -23.5c0 -10.667 -2.5 -18.834 -7.5 -24.501s-12.167 -8.5 -21.5 -8.5s-16.5 2.83301 -21.5 8.5zM100 724h34v-724h-34v724z" />
    <glyph glyph-name="dotlessi" unicode="&#x131;" horiz-adv-x="226" 
d="M96 526h34v-526h-34v526z" />
    <glyph glyph-name="IJ" unicode="&#x132;" horiz-adv-x="561" 
d="M98 724h34v-724h-34v724zM273 -5c-20 5.33301 -38.001 12.667 -54.001 22l12 28c34.667 -17.333 68.334 -26 101.001 -26c37.333 0 65.833 12.833 85.5 38.5s29.5 63.5 29.5 113.5v553h34v-555c0 -59.333 -12.833 -104.5 -38.5 -135.5s-62.5 -46.5 -110.5 -46.5
c-19.333 0 -39 2.66699 -59 8z" />
    <glyph glyph-name="ij" unicode="&#x133;" horiz-adv-x="452" 
d="M96 526h34v-526h-34v526zM91.5 651.5c-5 5.66699 -7.5 13.5 -7.5 23.5c0 10.667 2.5 18.834 7.5 24.501s12.167 8.5 21.5 8.5s16.5 -2.83301 21.5 -8.5s7.5 -13.5 7.5 -23.5c0 -10.667 -2.5 -18.834 -7.5 -24.501s-12.167 -8.5 -21.5 -8.5s-16.5 2.83301 -21.5 8.5z
M205 -188c30.667 10.667 54.333 24 71 40s28.5 37.333 35.5 64s10.5 62.334 10.5 107.001v503h34v-503c0 -50.667 -4.16699 -91 -12.5 -121s-22.5 -54.333 -42.5 -73s-48.667 -34.334 -86 -47.001zM317.499 651.5c-5 5.66699 -7.5 13.5 -7.5 23.5
c0 10.667 2.5 18.834 7.5 24.501s12.167 8.5 21.5 8.5s16.5 -2.83301 21.5 -8.5s7.5 -13.5 7.5 -23.5c0 -10.667 -2.5 -18.834 -7.5 -24.501s-12.167 -8.5 -21.5 -8.5s-16.5 2.83301 -21.5 8.5z" />
    <glyph glyph-name="Jcircumflex" unicode="&#x134;" horiz-adv-x="400" 
d="M421 788v-7h-30l-103 117l-103 -117h-30v7l117 138h32zM272 724l35.002 0.00195312v-560c0 -56.667 -14.333 -100.334 -43 -131.001s-69.334 -46 -122.001 -46c-24.667 0 -48.667 3.83301 -72 11.5s-43.333 18.167 -60 31.5l14 27c35.333 -25.333 74.666 -38 117.999 -38
c41.333 0 73.333 12.667 96 38s34 61.666 34 108.999v558z" />
    <glyph glyph-name="jcircumflex" unicode="&#x135;" horiz-adv-x="226" 
d="M-21 -188c30.667 10.667 54.333 24 71 40s28.5 37.333 35.5 64s10.5 62.334 10.5 107.001v503h34v-503c0 -50.667 -4.16699 -91 -12.5 -121s-22.5 -54.333 -42.5 -73s-48.667 -34.334 -86 -47.001zM230.999 621v-6h-30l-89 140l-89 -140h-30v6l103 163h32z" />
    <glyph glyph-name="Kcommaaccent" unicode="&#x136;" horiz-adv-x="564" 
d="M252 377l-119 -141v-236h-35v724h35v-438l369 438h42l-270 -320l276 -404h-42zM245 -251c19.333 19.333 32.668 38.1689 40.001 56.502s11 41.5 11 69.5c0 10.667 -0.666992 22 -2 34h34c1.33301 -12 2 -23 2 -33c0 -30.667 -5.33301 -57.334 -16 -80.001
s-28.334 -44.334 -53.001 -65.001z" />
    <glyph glyph-name="kcommaaccent" unicode="&#x137;" horiz-adv-x="480" 
d="M215 272l-87 -98v-174h-34v770h34v-554l273 310h41l-203 -228l213 -298h-41zM196 -251c19.333 19.333 32.668 38.1689 40.001 56.502s11 41.5 11 69.5c0 10.667 -0.666992 22 -2 34h34c1.33301 -12 2 -23 2 -33c0 -30.667 -5.33301 -57.334 -16 -80.001
s-28.334 -44.334 -53.001 -65.001z" />
    <glyph glyph-name="kgreenlandic" unicode="&#x138;" horiz-adv-x="480" 
d="M215 272l-87 -98v-174h-34v526h34v-310l273 310h41l-203 -228l213 -298h-41z" />
    <glyph glyph-name="Lacute" unicode="&#x139;" horiz-adv-x="481" 
d="M133 781h-34v7l155 138h42v-7zM451 32v-32h-353v724h35v-692h318z" />
    <glyph glyph-name="lacute" unicode="&#x13a;" horiz-adv-x="248" 
d="M67 834l155 138h42v-7l-163 -138h-34v7zM92 71v699h34v-696c0 -16.667 3.83301 -29 11.5 -37s19.834 -12 36.501 -12c10 0 21.333 1.33301 34 4l4 -28c-14.667 -4 -29.334 -6 -44.001 -6c-50.667 0 -76 25.333 -76 76z" />
    <glyph glyph-name="Lcommaaccent" unicode="&#x13b;" horiz-adv-x="481" 
d="M451 32v-32h-353v724h35v-692h318zM211 -251c19.333 19.333 32.668 38.1689 40.001 56.502s11 41.5 11 69.5c0 10.667 -0.666992 22 -2 34h34c1.33301 -12 2 -23 2 -33c0 -30.667 -5.33301 -57.334 -16 -80.001s-28.334 -44.334 -53.001 -65.001z" />
    <glyph glyph-name="lcommaaccent" unicode="&#x13c;" horiz-adv-x="248" 
d="M92 71v699h34v-696c0 -16.667 3.83301 -29 11.5 -37s19.834 -12 36.501 -12c10 0 21.333 1.33301 34 4l4 -28c-14.667 -4 -29.334 -6 -44.001 -6c-50.667 0 -76 25.333 -76 76zM81 -251c19.333 19.333 32.668 38.1689 40.001 56.502s11 41.5 11 69.5
c0 10.667 -0.666992 22 -2 34h34c1.33301 -12 2 -23 2 -33c0 -30.667 -5.33301 -57.334 -16 -80.001s-28.334 -44.334 -53.001 -65.001z" />
    <glyph glyph-name="Lcaron" unicode="&#x13d;" horiz-adv-x="481" 
d="M300 560h-25v210h34v-6zM451 32v-32h-353v724h35v-692h318z" />
    <glyph glyph-name="lcaron" unicode="&#x13e;" horiz-adv-x="248" 
d="M92 71v699h34v-696c0 -16.667 3.83301 -29 11.5 -37s19.834 -12 36.501 -12c10 0 21.333 1.33301 34 4l4 -28c-14.667 -4 -29.334 -6 -44.001 -6c-50.667 0 -76 25.333 -76 76zM223 770h34v-6l-9 -204h-25v210z" />
    <glyph glyph-name="Ldot" unicode="&#x13f;" horiz-adv-x="481" 
d="M451 32v-32h-353v724h35v-692h318zM327.5 358.5c-5 5.66699 -7.5 13.5 -7.5 23.5c0 10.667 2.5 18.834 7.5 24.501s12.167 8.5 21.5 8.5s16.5 -2.83301 21.5 -8.5s7.5 -13.5 7.5 -23.5c0 -10.667 -2.5 -18.834 -7.5 -24.501s-12.167 -8.5 -21.5 -8.5
s-16.5 2.83301 -21.5 8.5z" />
    <glyph glyph-name="ldot" unicode="&#x140;" horiz-adv-x="287" 
d="M92 71v699h34v-696c0 -16.667 3.83301 -29 11.5 -37s19.834 -12 36.501 -12c10 0 21.333 1.33301 34 4l4 -28c-14.667 -4 -29.334 -6 -44.001 -6c-50.667 0 -76 25.333 -76 76zM230.5 360.5c-5 5.66699 -7.5 13.5 -7.5 23.5c0 10.667 2.5 18.834 7.5 24.501
s12.167 8.5 21.5 8.5s16.5 -2.83301 21.5 -8.5s7.5 -13.5 7.5 -23.5c0 -10.667 -2.5 -18.834 -7.5 -24.501s-12.167 -8.5 -21.5 -8.5s-16.5 2.83301 -21.5 8.5z" />
    <glyph glyph-name="Lslash" unicode="&#x141;" horiz-adv-x="485" 
d="M455 32v-32h-353v289l-58 -39h-6v33l64 42v399h35v-376l224 150h7v-33l-231 -153v-280h318z" />
    <glyph glyph-name="lslash" unicode="&#x142;" horiz-adv-x="296" 
d="M150 409v-335c0 -16.667 3.83301 -29 11.5 -37s19.834 -12 36.501 -12c10 0 21.333 1.33301 34 4l4 -28c-14.667 -4 -29.334 -6 -44.001 -6c-50.667 0 -76 25.333 -76 76v309l-76 -65h-6v32l82 68v355h34v-326l95 82h6v-32z" />
    <glyph glyph-name="Nacute" unicode="&#x143;" horiz-adv-x="670" 
d="M324 781h-34v7l155 138h42v-7zM572 724v-724h-33l-408 664v-664h-33v724h33l408 -664v664h33z" />
    <glyph glyph-name="nacute" unicode="&#x144;" horiz-adv-x="528" 
d="M400.5 498.5c25.667 -27 38.501 -64.833 38.501 -113.5v-385h-34v379c0 42 -9.66699 73.833 -29 95.5s-48 32.5 -86 32.5c-28.667 0 -56 -6.66699 -82 -20s-52.667 -34 -80 -62v-425h-34v526h33v-69c45.333 54.667 100.666 82 165.999 82c46 0 81.833 -13.5 107.5 -40.5z
M230.001 621l108 163h38v-6l-116 -163h-30v6z" />
    <glyph glyph-name="Ncommaaccent" unicode="&#x145;" horiz-adv-x="670" 
d="M572 724v-724h-33l-408 664v-664h-33v724h33l408 -664v664h33zM269 -251c19.333 19.333 32.668 38.1689 40.001 56.502s11 41.5 11 69.5c0 10.667 -0.666992 22 -2 34h34c1.33301 -12 2 -23 2 -33c0 -30.667 -5.33301 -57.334 -16 -80.001
s-28.334 -44.334 -53.001 -65.001z" />
    <glyph glyph-name="ncommaaccent" unicode="&#x146;" horiz-adv-x="528" 
d="M400.5 498.5c25.667 -27 38.501 -64.833 38.501 -113.5v-385h-34v379c0 42 -9.66699 73.833 -29 95.5s-48 32.5 -86 32.5c-28.667 0 -56 -6.66699 -82 -20s-52.667 -34 -80 -62v-425h-34v526h33v-69c45.333 54.667 100.666 82 165.999 82c46 0 81.833 -13.5 107.5 -40.5z
M202.001 -251c19.333 19.333 32.668 38.1689 40.001 56.502s11 41.5 11 69.5c0 10.667 -0.666992 22 -2 34h34c1.33301 -12 2 -23 2 -33c0 -30.667 -5.33301 -57.334 -16 -80.001s-28.334 -44.334 -53.001 -65.001z" />
    <glyph glyph-name="Ncaron" unicode="&#x147;" horiz-adv-x="670" 
d="M319 781l-117 138v7h30l103 -117l103 117h30v-7l-117 -138h-32zM572 724v-724h-33l-408 664v-664h-33v724h33l408 -664v664h33z" />
    <glyph glyph-name="ncaron" unicode="&#x148;" horiz-adv-x="528" 
d="M400.5 498.5c25.667 -27 38.501 -64.833 38.501 -113.5v-385h-34v379c0 42 -9.66699 73.833 -29 95.5s-48 32.5 -86 32.5c-28.667 0 -56 -6.66699 -82 -20s-52.667 -34 -80 -62v-425h-34v526h33v-69c45.333 54.667 100.666 82 165.999 82c46 0 81.833 -13.5 107.5 -40.5z
M386.001 784v-6l-103 -163h-32l-103 163v6h30l89 -140l89 140h30z" />
    <glyph glyph-name="napostrophe" unicode="&#x149;" horiz-adv-x="528" 
d="M400.5 498.5c25.667 -27 38.501 -64.833 38.501 -113.5v-385h-34v379c0 42 -9.66699 73.833 -29 95.5s-48 32.5 -86 32.5c-28.667 0 -56 -6.66699 -82 -20s-52.667 -34 -80 -62v-425h-34v526h33v-69c45.333 54.667 100.666 82 165.999 82c46 0 81.833 -13.5 107.5 -40.5z
M-38.999 568c24 24.667 40.668 48.6689 50.001 72.002s14 52.666 14 87.999c0 13.333 -0.666992 27.333 -2 42h32c1.33301 -14.667 2 -28.334 2 -41.001c0 -39.333 -6.33301 -72.833 -19 -100.5s-33.334 -53.5 -62.001 -77.5z" />
    <glyph glyph-name="Eng" unicode="&#x14a;" horiz-adv-x="670" 
d="M572 724l0.00292969 -724v-90c0 -39.333 -11.333 -70.833 -34 -94.5s-52.334 -35.5 -89.001 -35.5c-34.667 0 -66 8.66699 -94 26l15 28c25.333 -15.333 51.666 -23 78.999 -23s49.166 8.83301 65.499 26.5s24.5 42.5 24.5 74.5v88l-408 664v-664h-33v724h33l408 -664
v664h33z" />
    <glyph glyph-name="eng" unicode="&#x14b;" horiz-adv-x="528" 
d="M400.5 498.5c25.667 -27 38.502 -64.834 38.502 -113.501v-385v-90c0 -39.333 -11.333 -70.833 -34 -94.5s-52.334 -35.5 -89.001 -35.5c-34 0 -64 8 -90 24l15 27c24 -14 49 -21 75 -21c27.333 0 49 8.83301 65 26.5s24 42.834 24 75.501v124v343
c0 42 -9.66699 73.833 -29 95.5s-48 32.5 -86 32.5c-28.667 0 -56 -6.66699 -82 -20s-52.667 -34 -80 -62v-425h-34v526h33v-69c45.333 54.667 100.666 82 165.999 82c46 0 81.833 -13.5 107.5 -40.5z" />
    <glyph glyph-name="Omacron" unicode="&#x14c;" horiz-adv-x="660" 
d="M209 855h242v-30h-242v30zM132.5 82.5c-45.667 63.667 -68.5 156.834 -68.5 279.501s22.833 215.834 68.5 279.501s111.5 95.5 197.5 95.5s151.833 -31.833 197.5 -95.5s68.5 -156.834 68.5 -279.501s-22.833 -215.834 -68.5 -279.501s-111.5 -95.5 -197.5 -95.5
s-151.833 31.833 -197.5 95.5zM501.5 106c39 58 58.5 143.333 58.5 256s-19.5 198 -58.5 256s-96.167 87 -171.5 87s-132.5 -29 -171.5 -87s-58.5 -143.333 -58.5 -256s19.5 -198 58.5 -256s96.167 -87 171.5 -87s132.5 29 171.5 87z" />
    <glyph glyph-name="omacron" unicode="&#x14d;" horiz-adv-x="504" 
d="M108.5 57.5c-33.667 47 -50.5 115.5 -50.5 205.5s16.833 158.5 50.5 205.5s81.5 70.5 143.5 70.5s109.833 -23.5 143.5 -70.5s50.5 -115.5 50.5 -205.5s-16.833 -158.5 -50.5 -205.5s-81.5 -70.5 -143.5 -70.5s-109.833 23.5 -143.5 70.5zM370.5 80
c27 41.333 40.5 102.333 40.5 183s-13.5 141.667 -40.5 183s-66.5 62 -118.5 62s-91.5 -20.667 -118.5 -62s-40.5 -102.333 -40.5 -183s13.5 -141.667 40.5 -183s66.5 -62 118.5 -62s91.5 20.667 118.5 62zM131 685h242v-30h-242v30z" />
    <glyph glyph-name="Obreve" unicode="&#x14e;" horiz-adv-x="660" 
d="M245.5 832c-21 21.333 -32.499 51.333 -34.499 90h28c4 -30 13.833 -52.833 29.5 -68.5s36.5 -23.5 62.5 -23.5c25.333 0 45.666 7.83301 60.999 23.5s25 38.5 29 68.5h28c-2 -38.667 -13.5 -68.667 -34.5 -90s-49.167 -32 -84.5 -32s-63.5 10.667 -84.5 32z
M132.501 82.5c-45.667 63.667 -68.5 156.834 -68.5 279.501s22.833 215.834 68.5 279.501s111.5 95.5 197.5 95.5s151.833 -31.833 197.5 -95.5s68.5 -156.834 68.5 -279.501s-22.833 -215.834 -68.5 -279.501s-111.5 -95.5 -197.5 -95.5s-151.833 31.833 -197.5 95.5z
M501.501 106c39 58 58.5 143.333 58.5 256s-19.5 198 -58.5 256s-96.167 87 -171.5 87s-132.5 -29 -171.5 -87s-58.5 -143.333 -58.5 -256s19.5 -198 58.5 -256s96.167 -87 171.5 -87s132.5 29 171.5 87z" />
    <glyph glyph-name="obreve" unicode="&#x14f;" horiz-adv-x="504" 
d="M108.5 57.5c-33.667 47 -50.5 115.5 -50.5 205.5s16.833 158.5 50.5 205.5s81.5 70.5 143.5 70.5s109.833 -23.5 143.5 -70.5s50.5 -115.5 50.5 -205.5s-16.833 -158.5 -50.5 -205.5s-81.5 -70.5 -143.5 -70.5s-109.833 23.5 -143.5 70.5zM370.5 80
c27 41.333 40.5 102.333 40.5 183s-13.5 141.667 -40.5 183s-66.5 62 -118.5 62s-91.5 -20.667 -118.5 -62s-40.5 -102.333 -40.5 -183s13.5 -141.667 40.5 -183s66.5 -62 118.5 -62s91.5 20.667 118.5 62zM167.5 662c-21 21.333 -32.499 51.333 -34.499 90h28
c4 -30 13.833 -52.833 29.5 -68.5s36.5 -23.5 62.5 -23.5c25.333 0 45.666 7.83301 60.999 23.5s25 38.5 29 68.5h28c-2 -38.667 -13.5 -68.667 -34.5 -90s-49.167 -32 -84.5 -32s-63.5 10.667 -84.5 32z" />
    <glyph glyph-name="Ohungarumlaut" unicode="&#x150;" horiz-adv-x="660" 
d="M230 788l107 138h36v-7l-114 -138h-29v7zM369 788l107 138h36v-7l-114 -138h-29v7zM132.5 82.5c-45.667 63.667 -68.5 156.834 -68.5 279.501s22.833 215.834 68.5 279.501s111.5 95.5 197.5 95.5s151.833 -31.833 197.5 -95.5s68.5 -156.834 68.5 -279.501
s-22.833 -215.834 -68.5 -279.501s-111.5 -95.5 -197.5 -95.5s-151.833 31.833 -197.5 95.5zM501.5 106c39 58 58.5 143.333 58.5 256s-19.5 198 -58.5 256s-96.167 87 -171.5 87s-132.5 -29 -171.5 -87s-58.5 -143.333 -58.5 -256s19.5 -198 58.5 -256
s96.167 -87 171.5 -87s132.5 29 171.5 87z" />
    <glyph glyph-name="ohungarumlaut" unicode="&#x151;" horiz-adv-x="504" 
d="M108.5 57.5c-33.667 47 -50.5 115.5 -50.5 205.5s16.833 158.5 50.5 205.5s81.5 70.5 143.5 70.5s109.833 -23.5 143.5 -70.5s50.5 -115.5 50.5 -205.5s-16.833 -158.5 -50.5 -205.5s-81.5 -70.5 -143.5 -70.5s-109.833 23.5 -143.5 70.5zM370.5 80
c27 41.333 40.5 102.333 40.5 183s-13.5 141.667 -40.5 183s-66.5 62 -118.5 62s-91.5 -20.667 -118.5 -62s-40.5 -102.333 -40.5 -183s13.5 -141.667 40.5 -183s66.5 -62 118.5 -62s91.5 20.667 118.5 62zM164 621l70 163h35v-6l-78 -163h-27v6zM297 621l70 163h35v-6
l-78 -163h-27v6z" />
    <glyph glyph-name="OE" unicode="&#x152;" horiz-adv-x="892" 
d="M846 32v-32h-370h-146c-86 0 -151.833 30.667 -197.5 92s-68.5 151.333 -68.5 270s22.833 208.667 68.5 270s111.5 92 197.5 92h167h337v-32h-323v-305h244v-32h-244v-323h335zM476 32v660.002h-146c-75.333 0 -132.5 -27.833 -171.5 -83.5
s-58.5 -137.834 -58.5 -246.501s19.5 -190.834 58.5 -246.501s96.167 -83.5 171.5 -83.5h146z" />
    <glyph glyph-name="oe" unicode="&#x153;" horiz-adv-x="823" 
d="M769 262h-334.998c0 -76 15 -135.333 45 -178s71.667 -64 125 -64c49.333 0 92.333 15 129 45l14 -26c-17.333 -16 -38.5 -28.5 -63.5 -37.5s-51.167 -13.5 -78.5 -13.5c-46 0 -84.833 12.667 -116.5 38s-54.5 62 -68.5 110
c-12.667 -48.667 -33.834 -85.667 -63.501 -111s-66.167 -38 -109.5 -38c-60.667 0 -107.334 23.5 -140.001 70.5s-49 115.5 -49 205.5s16.5 158.5 49.5 205.5s79.833 70.5 140.5 70.5c42.667 0 78.667 -12.333 108 -37s50.333 -61 63 -109c12 46.667 32.5 82.667 61.5 108
s65.167 38 108.5 38c57.333 0 102 -22.167 134 -66.5s48 -105.833 48 -184.5c0 -8 -0.666992 -16.667 -2 -26zM363.502 80c26.333 41.333 39.501 102.333 39.501 183s-13.167 141.667 -39.5 183s-64.833 62 -115.5 62s-89.167 -20.667 -115.5 -62s-39.5 -102.333 -39.5 -183
s13 -141.667 39 -183s64.333 -62 115 -62c51.333 0 90.166 20.667 116.499 62zM478.003 452.5c-26 -37 -40.333 -90.833 -43 -161.5h302v9c0 65.333 -13.333 116.333 -40 153s-63.667 55 -111 55c-46 0 -82 -18.5 -108 -55.5z" />
    <glyph glyph-name="Racute" unicode="&#x154;" horiz-adv-x="581" 
d="M280 781h-34v7l155 138h42v-7zM306 300h-173v-300h-35v724h35h178c63.333 0 112.166 -18.333 146.499 -55s51.5 -88.667 51.5 -156c0 -61.333 -14.167 -110 -42.5 -146s-69.166 -57.667 -122.499 -65l191 -302h-43zM133 332h178c52.667 0 93 15.333 121 46
s42 74.667 42 132c0 58.667 -14.333 103.667 -43 135s-69.667 47 -123 47h-175v-360z" />
    <glyph glyph-name="racute" unicode="&#x155;" horiz-adv-x="350" 
d="M332 524l-10.001 -31c-22 7.33301 -42.333 11 -61 11c-24.667 0 -47.667 -8 -69 -24s-42.666 -40.667 -63.999 -74v-406h-34v526h33v-83c19.333 32 40.333 55.667 63 71s48 23 76 23c22 0 44 -4.33301 66 -13zM170.999 621l108 163h38v-6l-116 -163h-30v6z" />
    <glyph glyph-name="Rcommaaccent" unicode="&#x156;" horiz-adv-x="581" 
d="M306 300h-173v-300h-35v724h35h178c63.333 0 112.166 -18.333 146.499 -55s51.5 -88.667 51.5 -156c0 -61.333 -14.167 -110 -42.5 -146s-69.166 -57.667 -122.499 -65l191 -302h-43zM133 332h178c52.667 0 93 15.333 121 46s42 74.667 42 132
c0 58.667 -14.333 103.667 -43 135s-69.667 47 -123 47h-175v-360zM244 -251c19.333 19.333 32.668 38.1689 40.001 56.502s11 41.5 11 69.5c0 10.667 -0.666992 22 -2 34h34c1.33301 -12 2 -23 2 -33c0 -30.667 -5.33301 -57.334 -16 -80.001
s-28.334 -44.334 -53.001 -65.001z" />
    <glyph glyph-name="rcommaaccent" unicode="&#x157;" horiz-adv-x="350" 
d="M332 524l-10.001 -31c-22 7.33301 -42.333 11 -61 11c-24.667 0 -47.667 -8 -69 -24s-42.666 -40.667 -63.999 -74v-406h-34v526h33v-83c19.333 32 40.333 55.667 63 71s48 23 76 23c22 0 44 -4.33301 66 -13zM44.999 -251c19.333 19.333 32.668 38.1689 40.001 56.502
s11 41.5 11 69.5c0 10.667 -0.666992 22 -2 34h34c1.33301 -12 2 -23 2 -33c0 -30.667 -5.33301 -57.334 -16 -80.001s-28.334 -44.334 -53.001 -65.001z" />
    <glyph glyph-name="Rcaron" unicode="&#x158;" horiz-adv-x="581" 
d="M275 781l-117 138v7h30l103 -117l103 117h30v-7l-117 -138h-32zM306 300h-173v-300h-35v724h35h178c63.333 0 112.166 -18.333 146.499 -55s51.5 -88.667 51.5 -156c0 -61.333 -14.167 -110 -42.5 -146s-69.166 -57.667 -122.499 -65l191 -302h-43zM133 332h178
c52.667 0 93 15.333 121 46s42 74.667 42 132c0 58.667 -14.333 103.667 -43 135s-69.667 47 -123 47h-175v-360z" />
    <glyph glyph-name="rcaron" unicode="&#x159;" horiz-adv-x="350" 
d="M332 524l-10.001 -31c-22 7.33301 -42.333 11 -61 11c-24.667 0 -47.667 -8 -69 -24s-42.666 -40.667 -63.999 -74v-406h-34v526h33v-83c19.333 32 40.333 55.667 63 71s48 23 76 23c22 0 44 -4.33301 66 -13zM326.999 784v-6l-103 -163h-32l-103 163v6h30l89 -140
l89 140h30z" />
    <glyph glyph-name="Sacute" unicode="&#x15a;" horiz-adv-x="512" 
d="M199 788l155 138h42v-7l-163 -138h-34v7zM139 3c-36 10 -68.334 23.668 -97.001 41.001l14 28c60 -34.667 123.667 -52 191 -52c56.667 0 100.167 13.667 130.5 41s45.5 66.666 45.5 117.999c0 44 -10.333 78.5 -31 103.5s-54.667 43.833 -102 56.5l-82 23
c-54 14.667 -93.333 37.167 -118 67.5s-37 70.166 -37 119.499c0 60 17.5 106.167 52.5 138.5s84.833 48.5 149.5 48.5c30.667 0 62.5 -3.83301 95.5 -11.5s63.5 -18.167 91.5 -31.5l-13 -30c-60.667 27.333 -119.667 41 -177 41c-53.333 0 -94.166 -13.167 -122.499 -39.5
s-42.5 -63.833 -42.5 -112.5c0 -42.667 10.167 -76.167 30.5 -100.5s54.833 -43.166 103.5 -56.499l82 -23c54 -14.667 93.333 -37.167 118 -67.5s37 -70.5 37 -120.5c0 -62.667 -18.333 -111 -55 -145s-88.667 -51 -156 -51c-36 0 -72 5 -108 15z" />
    <glyph glyph-name="sacute" unicode="&#x15b;" horiz-adv-x="407" 
d="M112 0.5c-28 8.33301 -52.666 20.168 -73.999 35.501l12 28c44 -30 93 -45 147 -45c40.667 0 71.834 10 93.501 30s32.5 49 32.5 87c0 32 -7 56.5 -21 73.5s-37.333 29.5 -70 37.5l-71 17c-38.667 9.33301 -67.167 24.666 -85.5 45.999s-27.5 50 -27.5 86
c0 45.333 13.167 80.333 39.5 105s64.166 37 113.499 37c24.667 0 49.667 -3.5 75 -10.5s48.666 -16.833 69.999 -29.5l-13 -28c-45.333 24.667 -90.333 37 -135 37c-38 0 -67 -9.16699 -87 -27.5s-30 -45.166 -30 -80.499c0 -29.333 6.83301 -52 20.5 -68
s36.5 -27.667 68.5 -35l71 -17c40 -9.33301 69.333 -25.333 88 -48s28 -53.334 28 -92.001c0 -48.667 -13.833 -86 -41.5 -112s-67.167 -39 -118.5 -39c-28.667 0 -57 4.16699 -85 12.5zM157.001 621.002l108 163h38v-6l-116 -163h-30v6z" />
    <glyph glyph-name="Scircumflex" unicode="&#x15c;" horiz-adv-x="512" 
d="M141 781h-30v7l117 138h32l117 -138v-7h-30l-103 117zM421 304.5c24.667 -30.333 36.999 -70.499 36.999 -120.499c0 -62.667 -18.333 -111 -55 -145s-88.667 -51 -156 -51c-36 0 -72 5 -108 15s-68.333 23.667 -97 41l14 28c60 -34.667 123.667 -52 191 -52
c56.667 0 100.167 13.667 130.5 41s45.5 66.666 45.5 117.999c0 44 -10.333 78.5 -31 103.5s-54.667 43.833 -102 56.5l-82 23c-54 14.667 -93.333 37.167 -118 67.5s-37 70.166 -37 119.499c0 60 17.5 106.167 52.5 138.5s84.833 48.5 149.5 48.5
c30.667 0 62.5 -3.83301 95.5 -11.5s63.5 -18.167 91.5 -31.5l-13 -30c-60.667 27.333 -119.667 41 -177 41c-53.333 0 -94.166 -13.167 -122.499 -39.5s-42.5 -63.833 -42.5 -112.5c0 -42.667 10.167 -76.167 30.5 -100.5s54.833 -43.166 103.5 -56.499l82 -23
c54 -14.667 93.333 -37.167 118 -67.5z" />
    <glyph glyph-name="scircumflex" unicode="&#x15d;" horiz-adv-x="407" 
d="M112 0.5c-28 8.33301 -52.666 20.168 -73.999 35.501l12 28c44 -30 93 -45 147 -45c40.667 0 71.834 10 93.501 30s32.5 49 32.5 87c0 32 -7 56.5 -21 73.5s-37.333 29.5 -70 37.5l-71 17c-38.667 9.33301 -67.167 24.666 -85.5 45.999s-27.5 50 -27.5 86
c0 45.333 13.167 80.333 39.5 105s64.166 37 113.499 37c24.667 0 49.667 -3.5 75 -10.5s48.666 -16.833 69.999 -29.5l-13 -28c-45.333 24.667 -90.333 37 -135 37c-38 0 -67 -9.16699 -87 -27.5s-30 -45.166 -30 -80.499c0 -29.333 6.83301 -52 20.5 -68
s36.5 -27.667 68.5 -35l71 -17c40 -9.33301 69.333 -25.333 88 -48s28 -53.334 28 -92.001c0 -48.667 -13.833 -86 -41.5 -112s-67.167 -39 -118.5 -39c-28.667 0 -57 4.16699 -85 12.5zM312.001 621.002v-6h-30l-89 140l-89 -140h-30v6l103 163h32z" />
    <glyph glyph-name="Scedilla" unicode="&#x15e;" horiz-adv-x="512" 
d="M407 42.5c-34 -33.667 -82.668 -51.8301 -146.001 -54.4971l-29 -61c12 2.66699 21 4 27 4c27.333 0 48.166 -6.33301 62.499 -19s21.5 -31.334 21.5 -56.001c0 -26 -8.16699 -46.333 -24.5 -61s-39.166 -22 -68.499 -22c-30.667 0 -58 7.33301 -82 22l10 24
c23.333 -12 47.333 -18 72 -18c20.667 0 36.334 4.66699 47.001 14s16 22.666 16 39.999c0 16 -4.83301 28.167 -14.5 36.5s-23.834 12.5 -42.501 12.5c-16 0 -30 -3 -42 -9l-13 12l32 81c-34 1.33301 -67.833 6.83301 -101.5 16.5s-63.5 22.834 -89.5 39.501l14 28
c60 -34.667 123.667 -52 191 -52c56.667 0 100.167 13.667 130.5 41s45.5 66.666 45.5 117.999c0 44 -10.333 78.5 -31 103.5s-54.667 43.833 -102 56.5l-82 23c-54 14.667 -93.333 37.167 -118 67.5s-37 70.166 -37 119.499c0 60 17.5 106.167 52.5 138.5
s84.833 48.5 149.5 48.5c30.667 0 62.5 -3.83301 95.5 -11.5s63.5 -18.167 91.5 -31.5l-13 -30c-60.667 27.333 -119.667 41 -177 41c-53.333 0 -94.166 -13.167 -122.499 -39.5s-42.5 -63.833 -42.5 -112.5c0 -42.667 10.167 -76.167 30.5 -100.5
s54.833 -43.166 103.5 -56.499l82 -23c54 -14.667 93.333 -37.167 118 -67.5s37 -70.5 37 -120.5c0 -60.667 -17 -107.834 -51 -141.501z" />
    <glyph glyph-name="scedilla" unicode="&#x15f;" horiz-adv-x="407" 
d="M318.5 30c-25.667 -26 -62.833 -39.9951 -111.5 -41.9951l-29 -61c12 2.66699 21 4 27 4c27.333 0 48.166 -6.33301 62.499 -19s21.5 -31.334 21.5 -56.001c0 -26 -8.16699 -46.333 -24.5 -61s-39.166 -22 -68.499 -22c-30.667 0 -58 7.33301 -82 22l10 24
c23.333 -12 47.333 -18 72 -18c20.667 0 36.334 4.66699 47.001 14s16 22.666 16 39.999c0 16 -4.83301 28.167 -14.5 36.5s-23.834 12.5 -42.501 12.5c-16 0 -30 -3 -42 -9l-13 12l32 82c-26 1.33301 -51.167 6.16602 -75.5 14.499s-46.166 19.166 -65.499 32.499l12 28
c42 -28.667 89 -43.667 141 -45v1l1 -1h5c40.667 0 71.834 10 93.501 30s32.5 49 32.5 87c0 32 -7 56.5 -21 73.5s-37.333 29.5 -70 37.5l-71 17c-38.667 9.33301 -67.167 24.666 -85.5 45.999s-27.5 50 -27.5 86c0 45.333 13.167 80.333 39.5 105s64.166 37 113.499 37
c24.667 0 49.667 -3.5 75 -10.5s48.666 -16.833 69.999 -29.5l-13 -28c-45.333 24.667 -90.333 37 -135 37c-38 0 -67 -9.16699 -87 -27.5s-30 -45.166 -30 -80.499c0 -29.333 6.83301 -52 20.5 -68s36.5 -27.667 68.5 -35l71 -17c40 -9.33301 69.333 -25.333 88 -48
s28 -53.334 28 -92.001c0 -46.667 -12.833 -83 -38.5 -109z" />
    <glyph glyph-name="Scaron" unicode="&#x160;" horiz-adv-x="512" 
d="M228 781l-117 138v7h30l103 -117l103 117h30v-7l-117 -138h-32zM421 304.5c24.667 -30.333 36.999 -70.499 36.999 -120.499c0 -62.667 -18.333 -111 -55 -145s-88.667 -51 -156 -51c-36 0 -72 5 -108 15s-68.333 23.667 -97 41l14 28c60 -34.667 123.667 -52 191 -52
c56.667 0 100.167 13.667 130.5 41s45.5 66.666 45.5 117.999c0 44 -10.333 78.5 -31 103.5s-54.667 43.833 -102 56.5l-82 23c-54 14.667 -93.333 37.167 -118 67.5s-37 70.166 -37 119.499c0 60 17.5 106.167 52.5 138.5s84.833 48.5 149.5 48.5
c30.667 0 62.5 -3.83301 95.5 -11.5s63.5 -18.167 91.5 -31.5l-13 -30c-60.667 27.333 -119.667 41 -177 41c-53.333 0 -94.166 -13.167 -122.499 -39.5s-42.5 -63.833 -42.5 -112.5c0 -42.667 10.167 -76.167 30.5 -100.5s54.833 -43.166 103.5 -56.499l82 -23
c54 -14.667 93.333 -37.167 118 -67.5z" />
    <glyph glyph-name="scaron" unicode="&#x161;" horiz-adv-x="407" 
d="M112 0.5c-28 8.33301 -52.666 20.168 -73.999 35.501l12 28c44 -30 93 -45 147 -45c40.667 0 71.834 10 93.501 30s32.5 49 32.5 87c0 32 -7 56.5 -21 73.5s-37.333 29.5 -70 37.5l-71 17c-38.667 9.33301 -67.167 24.666 -85.5 45.999s-27.5 50 -27.5 86
c0 45.333 13.167 80.333 39.5 105s64.166 37 113.499 37c24.667 0 49.667 -3.5 75 -10.5s48.666 -16.833 69.999 -29.5l-13 -28c-45.333 24.667 -90.333 37 -135 37c-38 0 -67 -9.16699 -87 -27.5s-30 -45.166 -30 -80.499c0 -29.333 6.83301 -52 20.5 -68
s36.5 -27.667 68.5 -35l71 -17c40 -9.33301 69.333 -25.333 88 -48s28 -53.334 28 -92.001c0 -48.667 -13.833 -86 -41.5 -112s-67.167 -39 -118.5 -39c-28.667 0 -57 4.16699 -85 12.5zM313.001 784.002v-6l-103 -163h-32l-103 163v6h30l89 -140l89 140h30z" />
    <glyph glyph-name="uni0162" unicode="&#x162;" horiz-adv-x="477" 
d="M254 0l-35 -72.998c12 2.66699 21 4 27 4c27.333 0 48.166 -6.33301 62.499 -19s21.5 -31.334 21.5 -56.001c0 -26 -8.16699 -46.333 -24.5 -61s-39.166 -22 -68.499 -22c-30.667 0 -58 7.33301 -82 22l10 24c23.333 -12 47.333 -18 72 -18
c20.667 0 36.334 4.66699 47.001 14s16 22.666 16 39.999c0 16 -4.83301 28.167 -14.5 36.5s-23.834 12.5 -42.501 12.5c-16 0 -30 -3 -42 -9l-13 12l36 93h-3v692h-189v32h224h189v-32h-189v-692h-2z" />
    <glyph glyph-name="uni0163" unicode="&#x163;" horiz-adv-x="320" 
d="M263.5 -88c14.333 -12.667 21.501 -31.3311 21.501 -55.998c0 -26 -8.16699 -46.333 -24.5 -61s-39.166 -22 -68.499 -22c-30.667 0 -58 7.33301 -82 22l10 24c23.333 -12 47.333 -18 72 -18c20.667 0 36.334 4.66699 47.001 14s16 22.666 16 39.999
c0 16 -4.83301 28.167 -14.5 36.5s-23.834 12.5 -42.501 12.5c-16 0 -30 -3 -42 -9l-13 12l36 94c-48 15.333 -72 55.666 -72 120.999v375h-84v29h84v154h34v-154h145v-29h-145v-367c0 -35.333 7.16699 -61.5 21.5 -78.5s36.5 -25.5 66.5 -25.5
c16.667 0 34.667 2.66699 54 8l7 -29c-20 -7.33301 -41.333 -11 -64 -11c-8.66699 0 -15.334 0.333008 -20.001 1l-32 -68c12 2.66699 21 4 27 4c27.333 0 48.166 -6.33301 62.499 -19z" />
    <glyph glyph-name="Tcaron" unicode="&#x164;" horiz-adv-x="477" 
d="M223 781l-117 138v7h30l103 -117l103 117h30v-7l-117 -138h-32zM445 692h-189v-692h-35v692h-189v32h224h189v-32z" />
    <glyph glyph-name="tcaron" unicode="&#x165;" horiz-adv-x="320" 
d="M235 770h34v-6l-8 -187h-26v193zM137 26.5c-20 21.667 -30 53.5 -30 95.5v375h-84v29h84v154h34v-154h145v-29h-145v-367c0 -35.333 7.16699 -61.5 21.5 -78.5s36.5 -25.5 66.5 -25.5c16.667 0 34.667 2.66699 54 8l7 -29c-20 -7.33301 -41.333 -11 -64 -11
c-39.333 0 -69 10.833 -89 32.5z" />
    <glyph glyph-name="Tbar" unicode="&#x166;" horiz-adv-x="477" 
d="M256 692v-312h116v-31h-116v-349h-35v349h-115v31h115v312h-189v32h224h189v-32h-189z" />
    <glyph glyph-name="tbar" unicode="&#x167;" horiz-adv-x="322" 
d="M292 5c-20 -7.33301 -41.333 -11 -64 -11c-39.333 0 -69 10.833 -89 32.5s-30 53.5 -30 95.5v192h-86v28h86v155h-84v29h84v154h34v-154h145v-29h-145v-155h145v-28h-145v-184c0 -35.333 7.16699 -61.5 21.5 -78.5s36.5 -25.5 66.5 -25.5c16.667 0 34.667 2.66699 54 8z
" />
    <glyph glyph-name="Utilde" unicode="&#x168;" horiz-adv-x="634" 
d="M337.5 803c-10.333 8.66699 -20.833 21 -31.5 37c-9.33301 13.333 -17.5 23.166 -24.5 29.499s-15.833 9.5 -26.5 9.5c-31.333 0 -49 -29 -53 -87h-26c0.666992 36.667 8.16699 65.334 22.5 86.001s33.5 31 57.5 31c16.667 0 30.167 -4.33301 40.5 -13
s20.833 -21 31.5 -37c9.33301 -13.333 17.5 -23.166 24.5 -29.499s15.833 -9.5 26.5 -9.5c31.333 0 49 29 53 87h26c-0.666992 -36.667 -8.16699 -65.334 -22.5 -86.001s-33.5 -31 -57.5 -31c-16.667 0 -30.167 4.33301 -40.5 13zM151.5 53c-39 44 -58.5 106.667 -58.5 188
v483h35v-481c0 -73.333 15.833 -129 47.5 -167s78.834 -57 141.501 -57c61.333 0 108.166 19.167 140.499 57.5s48.5 93.833 48.5 166.5v481h35v-483c0 -81.333 -19.5 -144 -58.5 -188s-94.167 -66 -165.5 -66s-126.5 22 -165.5 66z" />
    <glyph glyph-name="utilde" unicode="&#x169;" horiz-adv-x="520" 
d="M426 526v-526h-33v75c-22 -28.667 -46.833 -50.5 -74.5 -65.5s-57.167 -22.5 -88.5 -22.5c-45.333 0 -80.5 13.5 -105.5 40.5s-37.5 64.833 -37.5 113.5v385h34v-379c0 -42 9.5 -73.833 28.5 -95.5s46.833 -32.5 83.5 -32.5c29.333 0 56.833 7.16699 82.5 21.5
s51.167 36.5 76.5 66.5v419h34zM277.5 633c-10.333 8.66699 -20.833 21 -31.5 37c-9.33301 13.333 -17.5 23.166 -24.5 29.499s-15.833 9.5 -26.5 9.5c-31.333 0 -49 -29 -53 -87h-26c0.666992 36.667 8.16699 65.334 22.5 86.001s33.5 31 57.5 31
c16.667 0 30.167 -4.33301 40.5 -13s20.833 -21 31.5 -37c9.33301 -13.333 17.5 -23.166 24.5 -29.499s15.833 -9.5 26.5 -9.5c31.333 0 49 29 53 87h26c-0.666992 -36.667 -8.16699 -65.334 -22.5 -86.001s-33.5 -31 -57.5 -31c-16.667 0 -30.167 4.33301 -40.5 13z" />
    <glyph glyph-name="Umacron" unicode="&#x16a;" horiz-adv-x="634" 
d="M196 855h242v-30h-242v30zM151.5 53c-39 44 -58.5 106.667 -58.5 188v483h35v-481c0 -73.333 15.833 -129 47.5 -167s78.834 -57 141.501 -57c61.333 0 108.166 19.167 140.499 57.5s48.5 93.833 48.5 166.5v481h35v-483c0 -81.333 -19.5 -144 -58.5 -188
s-94.167 -66 -165.5 -66s-126.5 22 -165.5 66z" />
    <glyph glyph-name="umacron" unicode="&#x16b;" horiz-adv-x="520" 
d="M426 526v-526h-33v75c-22 -28.667 -46.833 -50.5 -74.5 -65.5s-57.167 -22.5 -88.5 -22.5c-45.333 0 -80.5 13.5 -105.5 40.5s-37.5 64.833 -37.5 113.5v385h34v-379c0 -42 9.5 -73.833 28.5 -95.5s46.833 -32.5 83.5 -32.5c29.333 0 56.833 7.16699 82.5 21.5
s51.167 36.5 76.5 66.5v419h34zM136 685h242v-30h-242v30z" />
    <glyph glyph-name="Ubreve" unicode="&#x16c;" horiz-adv-x="634" 
d="M232.5 832c-21 21.333 -32.499 51.333 -34.499 90h28c4 -30 13.833 -52.833 29.5 -68.5s36.5 -23.5 62.5 -23.5c25.333 0 45.666 7.83301 60.999 23.5s25 38.5 29 68.5h28c-2 -38.667 -13.5 -68.667 -34.5 -90s-49.167 -32 -84.5 -32s-63.5 10.667 -84.5 32zM151.501 53
c-39 44 -58.5 106.667 -58.5 188v483h35v-481c0 -73.333 15.833 -129 47.5 -167s78.834 -57 141.501 -57c61.333 0 108.166 19.167 140.499 57.5s48.5 93.833 48.5 166.5v481h35v-483c0 -81.333 -19.5 -144 -58.5 -188s-94.167 -66 -165.5 -66s-126.5 22 -165.5 66z" />
    <glyph glyph-name="ubreve" unicode="&#x16d;" horiz-adv-x="520" 
d="M426 526v-526h-33v75c-22 -28.667 -46.833 -50.5 -74.5 -65.5s-57.167 -22.5 -88.5 -22.5c-45.333 0 -80.5 13.5 -105.5 40.5s-37.5 64.833 -37.5 113.5v385h34v-379c0 -42 9.5 -73.833 28.5 -95.5s46.833 -32.5 83.5 -32.5c29.333 0 56.833 7.16699 82.5 21.5
s51.167 36.5 76.5 66.5v419h34zM172.5 662c-21 21.333 -32.499 51.333 -34.499 90h28c4 -30 13.833 -52.833 29.5 -68.5s36.5 -23.5 62.5 -23.5c25.333 0 45.666 7.83301 60.999 23.5s25 38.5 29 68.5h28c-2 -38.667 -13.5 -68.667 -34.5 -90s-49.167 -32 -84.5 -32
s-63.5 10.667 -84.5 32z" />
    <glyph glyph-name="Uring" unicode="&#x16e;" horiz-adv-x="634" 
d="M250.5 793.5c-15.667 16.333 -23.5 39.166 -23.5 68.499s7.83301 52.166 23.5 68.499s37.834 24.5 66.501 24.5s50.834 -8.16699 66.501 -24.5s23.5 -39.166 23.5 -68.499s-7.83301 -52.166 -23.5 -68.499s-37.834 -24.5 -66.501 -24.5s-50.834 8.16699 -66.501 24.5z
M361.5 812c10.333 11.333 15.5 28 15.5 50s-5.16699 38.667 -15.5 50s-25.166 17 -44.499 17s-34.166 -5.66699 -44.499 -17s-15.5 -28 -15.5 -50s5.16699 -38.667 15.5 -50s25.166 -17 44.499 -17s34.166 5.66699 44.499 17zM151.5 53c-39 44 -58.5 106.667 -58.5 188v483
h35v-481c0 -73.333 15.833 -129 47.5 -167s78.834 -57 141.501 -57c61.333 0 108.166 19.167 140.499 57.5s48.5 93.833 48.5 166.5v481h35v-483c0 -81.333 -19.5 -144 -58.5 -188s-94.167 -66 -165.5 -66s-126.5 22 -165.5 66z" />
    <glyph glyph-name="uring" unicode="&#x16f;" horiz-adv-x="520" 
d="M426 526v-526h-33v75c-22 -28.667 -46.833 -50.5 -74.5 -65.5s-57.167 -22.5 -88.5 -22.5c-45.333 0 -80.5 13.5 -105.5 40.5s-37.5 64.833 -37.5 113.5v385h34v-379c0 -42 9.5 -73.833 28.5 -95.5s46.833 -32.5 83.5 -32.5c29.333 0 56.833 7.16699 82.5 21.5
s51.167 36.5 76.5 66.5v419h34zM190.5 628.5c-15.667 16.333 -23.5 39.166 -23.5 68.499s7.83301 52.166 23.5 68.499s37.834 24.5 66.501 24.5s50.834 -8.16699 66.501 -24.5s23.5 -39.166 23.5 -68.499s-7.83301 -52.166 -23.5 -68.499s-37.834 -24.5 -66.501 -24.5
s-50.834 8.16699 -66.501 24.5zM317 697c0 43.333 -20 65 -60 65s-60 -21.667 -60 -65s20 -65 60 -65s60 21.667 60 65z" />
    <glyph glyph-name="Uhungarumlaut" unicode="&#x170;" horiz-adv-x="634" 
d="M217 788l107 138h36v-7l-114 -138h-29v7zM356 788l107 138h36v-7l-114 -138h-29v7zM151.5 53c-39 44 -58.5 106.667 -58.5 188v483h35v-481c0 -73.333 15.833 -129 47.5 -167s78.834 -57 141.501 -57c61.333 0 108.166 19.167 140.499 57.5s48.5 93.833 48.5 166.5v481
h35v-483c0 -81.333 -19.5 -144 -58.5 -188s-94.167 -66 -165.5 -66s-126.5 22 -165.5 66z" />
    <glyph glyph-name="uhungarumlaut" unicode="&#x171;" horiz-adv-x="520" 
d="M426 526v-526h-33v75c-22 -28.667 -46.833 -50.5 -74.5 -65.5s-57.167 -22.5 -88.5 -22.5c-45.333 0 -80.5 13.5 -105.5 40.5s-37.5 64.833 -37.5 113.5v385h34v-379c0 -42 9.5 -73.833 28.5 -95.5s46.833 -32.5 83.5 -32.5c29.333 0 56.833 7.16699 82.5 21.5
s51.167 36.5 76.5 66.5v419h34zM169 621l70 163h35v-6l-78 -163h-27v6zM302 621l70 163h35v-6l-78 -163h-27v6z" />
    <glyph glyph-name="Uogonek" unicode="&#x172;" horiz-adv-x="634" 
d="M370.5 -59.5c-14.333 -24.333 -21.498 -47.834 -21.498 -70.501c0 -18.667 4.83301 -33.167 14.5 -43.5s23.5 -15.5 41.5 -15.5c21.333 0 43 7 65 21l11 -22c-22.667 -18 -49.334 -27 -80.001 -27c-26.667 0 -47.167 7 -61.5 21s-21.5 34 -21.5 60
c0 22.667 5.16699 45.167 15.5 67.5s25.166 43.5 44.499 63.5c-20 -5.33301 -40.333 -8 -61 -8c-70.667 0 -125.667 22.167 -165 66.5s-59 106.833 -59 187.5v483h35v-481c0 -72.667 16 -128.167 48 -166.5s79 -57.5 141 -57.5c61.333 0 108.166 19.167 140.499 57.5
s48.5 93.833 48.5 166.5v481h35v-483c0 -94.667 -28 -164.667 -84 -210l-27 -22c-25.333 -21.333 -45.166 -44.166 -59.499 -68.499z" />
    <glyph glyph-name="uogonek" unicode="&#x173;" horiz-adv-x="520" 
d="M468 -190c-22.667 -18 -49.333 -27 -80 -27c-26.667 0 -47.167 7 -61.5 21s-21.5 34 -21.5 60c0 26.667 7.5 52.334 22.5 77.001s36.833 46.334 65.5 65.001v69c-22 -28.667 -46.833 -50.5 -74.5 -65.5s-57.167 -22.5 -88.5 -22.5c-45.333 0 -80.5 13.5 -105.5 40.5
s-37.5 64.833 -37.5 113.5v385h34v-379c0 -42 9.5 -73.833 28.5 -95.5s46.833 -32.5 83.5 -32.5c29.333 0 56.833 7.16699 82.5 21.5s51.167 36.5 76.5 66.5v419h34v-526h-3c-28 -18.667 -49.5 -39.334 -64.5 -62.001s-22.5 -45.334 -22.5 -68.001
c0 -18.667 4.83301 -33.167 14.5 -43.5s23.5 -15.5 41.5 -15.5c21.333 0 43 7 65 21z" />
    <glyph glyph-name="Wcircumflex" unicode="&#x174;" horiz-adv-x="826" 
d="M310 781h-30v7l117 138h32l117 -138v-7h-30l-103 117zM788 724l-176 -724h-42l-157 683l-157 -683h-42l-176 724h36l161 -688l157 687h42l157 -687l161 688h36z" />
    <glyph glyph-name="wcircumflex" unicode="&#x175;" horiz-adv-x="709" 
d="M667 526l-144 -526h-40l-128 481l-129 -481h-40l-144 526h35l129 -496l129 496h40l128 -496l129 496h35zM473 621v-6h-30l-89 140l-89 -140h-30v6l103 163h32z" />
    <glyph glyph-name="Ycircumflex" unicode="&#x176;" horiz-adv-x="533" 
d="M164 781h-30v7l117 138h32l117 -138v-7h-30l-103 117zM505 724l-221 -456v-268h-35v268l-221 456h37l202 -421l201 421h37z" />
    <glyph glyph-name="ycircumflex" unicode="&#x177;" horiz-adv-x="461" 
d="M421 526l-175 -533.999c-16.667 -52.667 -41.5 -96.834 -74.5 -132.501s-72.833 -61.167 -119.5 -76.5l-12 31c42 14.667 77.167 36.667 105.5 66s51.5 68 69.5 116l-175 530h36l155 -488l154 488h36zM351 621.001v-6h-30l-89 140l-89 -140h-30v6l103 163h32z" />
    <glyph glyph-name="Ydieresis" unicode="&#x178;" horiz-adv-x="533" 
d="M160.5 821.5c-5 5.66699 -7.5 13.5 -7.5 23.5s2.5 17.833 7.5 23.5s11.833 8.5 20.5 8.5s15.5 -2.83301 20.5 -8.5s7.5 -13.5 7.5 -23.5s-2.5 -17.833 -7.5 -23.5s-11.833 -8.5 -20.5 -8.5s-15.5 2.83301 -20.5 8.5zM332.5 821.5c-5 5.66699 -7.5 13.5 -7.5 23.5
s2.5 17.833 7.5 23.5s11.833 8.5 20.5 8.5s15.5 -2.83301 20.5 -8.5s7.5 -13.5 7.5 -23.5s-2.5 -17.833 -7.5 -23.5s-11.833 -8.5 -20.5 -8.5s-15.5 2.83301 -20.5 8.5zM505 724l-221 -456v-268h-35v268l-221 456h37l202 -421l201 421h37z" />
    <glyph glyph-name="Zacute" unicode="&#x179;" horiz-adv-x="503" 
d="M239 781h-34v7l155 138h42v-7zM455 32v-32h-409v32l365 660h-353v32h393v-32l-365 -660h369z" />
    <glyph glyph-name="zacute" unicode="&#x17a;" horiz-adv-x="412" 
d="M364 29v-29h-318v29l279 468h-272v29h308v-29l-279 -468h282zM166 621l108 163h38v-6l-116 -163h-30v6z" />
    <glyph glyph-name="Zdotaccent" unicode="&#x17b;" horiz-adv-x="503" 
d="M228.5 821.5c-5 5.66699 -7.5 13.5 -7.5 23.5c0 10.667 2.5 18.834 7.5 24.501s12.167 8.5 21.5 8.5s16.5 -2.83301 21.5 -8.5s7.5 -13.5 7.5 -23.5c0 -10.667 -2.5 -18.834 -7.5 -24.501s-12.167 -8.5 -21.5 -8.5s-16.5 2.83301 -21.5 8.5zM455 32v-32h-409v32l365 660
h-353v32h393v-32l-365 -660h369z" />
    <glyph glyph-name="zdotaccent" unicode="&#x17c;" horiz-adv-x="412" 
d="M364 29v-29h-318v29l279 468h-272v29h308v-29l-279 -468h282zM181.5 651.5c-5 5.66699 -7.5 13.5 -7.5 23.5c0 10.667 2.5 18.834 7.5 24.501s12.167 8.5 21.5 8.5s16.5 -2.83301 21.5 -8.5s7.5 -13.5 7.5 -23.5c0 -10.667 -2.5 -18.834 -7.5 -24.501
s-12.167 -8.5 -21.5 -8.5s-16.5 2.83301 -21.5 8.5z" />
    <glyph glyph-name="Zcaron" unicode="&#x17d;" horiz-adv-x="503" 
d="M234 781l-117 138v7h30l103 -117l103 117h30v-7l-117 -138h-32zM455 32v-32h-409v32l365 660h-353v32h393v-32l-365 -660h369z" />
    <glyph glyph-name="zcaron" unicode="&#x17e;" horiz-adv-x="412" 
d="M364 29v-29h-318v29l279 468h-272v29h308v-29l-279 -468h282zM322 784v-6l-103 -163h-32l-103 163v6h30l89 -140l89 140h30z" />
    <glyph glyph-name="longs" unicode="&#x17f;" horiz-adv-x="263" 
d="M282 770v-29.999c-18.667 2.66699 -34 4 -46 4c-35.333 0 -62.166 -10.333 -80.499 -31s-27.5 -51 -27.5 -91v-38v-584h-34v594v28c0 49.333 12.167 87.166 36.5 113.499s59.5 39.5 105.5 39.5c17.333 0 32.666 -1.66699 45.999 -5z" />
    <glyph glyph-name="uni0180" unicode="&#x180;" horiz-adv-x="514" 
d="M408 460c32 -47.333 48 -114.667 48 -202c0 -86 -16.167 -152.667 -48.5 -200s-77.833 -71 -136.5 -71c-31.333 0 -60.5 7.33301 -87.5 22s-49.833 35.667 -68.5 63v-72h-33v637h-56v27h56v106h34v-106h214v-27h-214v-196c42.667 60 94.667 90 156 90
c58.667 0 104 -23.667 136 -71zM382.5 79.999c25.667 40.667 38.5 99.332 38.5 175.999c0 78.667 -13 138.834 -39 180.501s-63.667 62.5 -113 62.5c-29.333 0 -56.5 -7.5 -81.5 -22.5s-48.833 -38.5 -71.5 -70.5v-296c18.667 -28.667 41.667 -51 69 -67s56.333 -24 87 -24
c48 0 84.833 20.333 110.5 61z" />
    <glyph glyph-name="uni0181" unicode="&#x181;" horiz-adv-x="652" 
d="M562.5 322.5c23.667 -31.667 35.5 -74.499 35.5 -128.499c0 -62 -16 -109.833 -48 -143.5s-77.333 -50.5 -136 -50.5h-242h-18v692c-36.667 0 -65.167 -9.33301 -85.5 -28s-30.5 -44.667 -30.5 -78c0 -14.667 1 -30 3 -46h-34c-2.66699 11.333 -4 26.333 -4 45
c0 43.333 13.333 77.333 40 102s63.667 37 111 37h35h191c56.667 0 100.5 -15.833 131.5 -47.5s46.5 -76.834 46.5 -135.501c0 -42 -8.33301 -77.167 -25 -105.5s-40.667 -47.5 -72 -57.5c44 -5.33301 77.833 -23.833 101.5 -55.5zM189 692.001l-0.000976562 -303.999h191
c46 0 81.333 13 106 39s37 63.333 37 112c0 49.333 -12.667 87.166 -38 113.499s-61.666 39.5 -108.999 39.5h-187zM524.999 73.502c24.667 27.667 36.999 67.5 36.999 119.5c0 52.667 -12.833 93 -38.5 121s-62.167 42 -109.5 42h-225v-324h229
c46.667 0 82.334 13.833 107.001 41.5z" />
    <glyph glyph-name="uni0182" unicode="&#x182;" horiz-adv-x="579" 
d="M472.5 372.5c35 -37 52.5 -90.166 52.5 -159.499c0 -66.667 -17.5 -118.834 -52.5 -156.501s-83.5 -56.5 -145.5 -56.5h-229v724h360v-31h-325v-265h190c64.667 0 114.5 -18.5 149.5 -55.5zM447.5 80.001c27.667 32 41.499 76.334 41.499 133.001
c0 57.333 -13.667 102.166 -41 134.499s-67.666 48.5 -120.999 48.5h-194v-364h190c55.333 0 96.833 16 124.5 48z" />
    <glyph glyph-name="uni0183" unicode="&#x183;" horiz-adv-x="525" 
d="M419.5 466.5c31.667 -48.333 47.499 -116.5 47.499 -204.5c0 -87.333 -16 -155 -48 -203s-77.333 -72 -136 -72c-31.333 0 -60.5 7.5 -87.5 22.5s-49.833 35.833 -68.5 62.5v-72h-33v493v277h34h278v-29h-278v-292c42.667 60 94.667 90 156 90
c58.667 0 103.834 -24.167 135.501 -72.5zM393.499 81c25.667 41.333 38.5 101 38.5 179c0 80 -13 141.167 -39 183.5s-63.333 63.5 -112 63.5c-29.333 0 -56.5 -7.5 -81.5 -22.5s-48.833 -38.5 -71.5 -70.5v-304c18.667 -28.667 41.667 -51 69 -67s56.333 -24 87 -24
c47.333 0 83.833 20.667 109.5 62z" />
    <glyph glyph-name="uni0184" unicode="&#x184;" horiz-adv-x="541" 
d="M462.5 372.5c35 -37 52.5 -90.166 52.5 -159.499c0 -66.667 -17.5 -118.834 -52.5 -156.501s-83.5 -56.5 -145.5 -56.5h-229v567l-50 64v16l66 77h19v-157v-139h190c64.667 0 114.5 -18.5 149.5 -55.5zM437.5 80.001c27.667 32 41.5 76.334 41.5 133.001
c0 57.333 -13.5 102.166 -40.5 134.499s-67.5 48.5 -121.5 48.5h-194v-364h190c55.333 0 96.833 16 124.5 48z" />
    <glyph glyph-name="uni0185" unicode="&#x185;" horiz-adv-x="516" 
d="M410.5 466.5c31.667 -48.333 47.499 -116.5 47.499 -204.5c0 -87.333 -16 -155 -48 -203s-77.333 -72 -136 -72c-31.333 0 -60.5 7.5 -87.5 22.5s-49.833 35.833 -68.5 62.5v-72h-33v493v120l-51 64v16l66 77h19v-157v-164c42.667 60 94.667 90 156 90
c58.667 0 103.834 -24.167 135.501 -72.5zM384.499 81c25.667 41.333 38.5 101 38.5 179c0 80 -13 141.167 -39 183.5s-63.333 63.5 -112 63.5c-29.333 0 -56.5 -7.5 -81.5 -22.5s-48.833 -38.5 -71.5 -70.5v-304c18.667 -28.667 41.667 -51 69 -67s56.333 -24 87 -24
c47.333 0 83.833 20.667 109.5 62z" />
    <glyph glyph-name="uni0186" unicode="&#x186;" horiz-adv-x="551" 
d="M422 642c50 -62.667 75.002 -152.333 75.002 -269c0 -78.667 -11.333 -147 -34 -205s-55.334 -102.667 -98.001 -134s-92.667 -47 -150 -47c-27.333 0 -56 4 -86 12s-57.333 19.333 -82 34l14 28c51.333 -28 103.333 -42 156 -42c49.333 0 92.333 14.167 129 42.5
s65 68.833 85 121.5s30 114.667 30 186c0 107.333 -22.167 189.833 -66.5 247.5s-107.5 86.5 -189.5 86.5c-58.667 0 -108.334 -12.667 -149.001 -38l-14 27c18.667 14 42.667 24.833 72 32.5s60 11.5 92 11.5c94 0 166 -31.333 216 -94z" />
    <glyph glyph-name="uni0187" unicode="&#x187;" horiz-adv-x="677" 
d="M656 843l-0.00195312 -32.002c-10.667 1.33301 -25.667 2 -45 2c-33.333 0 -59.5 -10.167 -78.5 -30.5s-28.5 -49.166 -28.5 -86.499v-11v-22h-14c-51.333 28 -103.333 42 -156 42c-49.333 0 -92.333 -14.167 -129 -42.5s-65 -68.833 -85 -121.5s-30 -114.667 -30 -186
c0 -107.333 22.167 -189.833 66.5 -247.5s107.5 -86.5 189.5 -86.5c58.667 0 108.334 12.667 149.001 38l14 -27c-18.667 -14 -42.667 -24.833 -72 -32.5s-60 -11.5 -92 -11.5c-94 0 -166 31.333 -216 94s-75 152.334 -75 269.001c0 78.667 11.333 147 34 205
s55.334 102.667 98.001 134s92.667 47 150 47c46.667 0 92.667 -10.333 138 -31c2 44 15.167 78.333 39.5 103s57.166 37 98.499 37c20.667 0 35.334 -1 44.001 -3z" />
    <glyph glyph-name="uni0188" unicode="&#x188;" horiz-adv-x="557" 
d="M539 657v-31.999c-10.667 1.33301 -25.667 2 -45 2c-30.667 0 -55.334 -8.5 -74.001 -25.5s-29.334 -41.5 -32.001 -73.5v-58h-14c-43.333 25.333 -84.666 38 -123.999 38c-49.333 0 -88.5 -21 -117.5 -63s-43.5 -98.667 -43.5 -170c0 -82 14.667 -145 44 -189
s71 -66 125 -66c44 0 84.333 12.333 121 37l14 -26c-18 -13.333 -39 -23.833 -63 -31.5s-48.333 -11.5 -73 -11.5c-65.333 0 -115.5 24.667 -150.5 74s-52.5 119.666 -52.5 210.999c0 54 8 101 24 141s38.833 70.833 68.5 92.5s64.5 32.5 104.5 32.5
c36 0 71.333 -8.66699 106 -26c0.666992 46 13.167 82 37.5 108s57.833 39 100.5 39c20.667 0 35.334 -1 44.001 -3z" />
    <glyph glyph-name="uni0189" unicode="&#x189;" horiz-adv-x="635" 
d="M490.5 629.5c53.667 -63 80.498 -151.5 80.498 -265.5c0 -115.333 -27.167 -204.833 -81.5 -268.5s-131.166 -95.5 -230.499 -95.5h-165v350h-64v32h64v342h171c96.667 0 171.834 -31.5 225.501 -94.5zM465.498 116.5c46.333 56.333 69.5 137.833 69.5 244.5
c0 108 -23.667 190.167 -71 246.5s-115.666 84.5 -204.999 84.5h-130v-310h204v-32h-204v-318h136c87.333 0 154.166 28.167 200.499 84.5z" />
    <glyph glyph-name="uni018A" unicode="&#x18a;" horiz-adv-x="695" 
d="M550.5 629.5c53.667 -63 80.498 -151.5 80.498 -265.5c0 -115.333 -27.167 -204.833 -81.5 -268.5s-131.166 -95.5 -230.499 -95.5h-165v692c-36.667 0 -65.167 -9.33301 -85.5 -28s-30.5 -44.667 -30.5 -78c0 -14.667 1 -30 3 -46h-34c-2.66699 11.333 -4 26.333 -4 45
c0 43.333 13.333 77.333 40 102s63.667 37 111 37h171c96.667 0 171.834 -31.5 225.501 -94.5zM525.498 116.5c46.333 56.333 69.5 137.833 69.5 244.5c0 108 -23.667 190.167 -71 246.5s-115.666 84.5 -204.999 84.5h-130v-660h136c87.333 0 154.166 28.167 200.499 84.5z
" />
    <glyph glyph-name="uni018B" unicode="&#x18b;" horiz-adv-x="579" 
d="M481 0l-229 -0.000976562c-62 0 -110.5 18.833 -145.5 56.5s-52.5 89.834 -52.5 156.501c0 69.333 17.5 122.5 52.5 159.5s84.833 55.5 149.5 55.5h190v265h-325v31h360v-724zM446 395.999l-194.001 -0.000976562c-53.333 0 -93.666 -16.167 -120.999 -48.5
s-41 -77.166 -41 -134.499c0 -56.667 13.833 -101 41.5 -133s69.167 -48 124.5 -48h190v364z" />
    <glyph glyph-name="uni018C" unicode="&#x18c;" horiz-adv-x="525" 
d="M431 34l0.000976562 -33.999h-33v79c-42.667 -60.667 -95 -91 -157 -91c-58.667 0 -103.834 24.167 -135.501 72.5s-47.5 116.5 -47.5 204.5s16 155.833 48 203.5s77.333 71.5 136 71.5c30.667 0 59.5 -7.33301 86.5 -22s49.833 -35.334 68.5 -62.001v285h-264v29h298
v-736zM325.501 42.501c25 15 48.833 38.5 71.5 70.5v304c-18.667 28.667 -41.667 51 -69 67s-56.333 24 -87 24c-47.333 0 -83.833 -20.667 -109.5 -62s-38.5 -101 -38.5 -179c0 -80 13 -141.167 39 -183.5s63.333 -63.5 112 -63.5c29.333 0 56.5 7.5 81.5 22.5z" />
    <glyph glyph-name="uni018D" unicode="&#x18d;" horiz-adv-x="506" 
d="M163.5 -208c-25 8 -44.8311 18.002 -59.498 30.002l13 27c39.333 -25.333 81 -38 125 -38c34.667 0 61.334 10.167 80.001 30.5s28 44.166 28 71.499c0 15.333 -3.16699 29.333 -9.5 42s-18 26.5 -35 41.5s-42.167 33.5 -75.5 55.5
c-34.667 23.333 -63.667 45.166 -87 65.499s-43.333 46.166 -60 77.499s-25 68.333 -25 111c0 41.333 7.33301 79.833 22 115.5s36.667 64.167 66 85.5s65.666 32 108.999 32c37.333 0 70.666 -9.33301 99.999 -28s52.166 -45 68.499 -79s24.5 -73 24.5 -117
c0 -62.667 -16.167 -114.667 -48.5 -156s-76.833 -72.666 -133.5 -93.999c42.667 -28 72.667 -52.833 90 -74.5s26 -47.5 26 -77.5c0 -20 -4.83301 -40.167 -14.5 -60.5s-25.167 -37.5 -46.5 -51.5s-48.333 -21 -81 -21c-26 0 -51.5 4 -76.5 12zM413.002 316.002
c0 60.667 -14.667 107.832 -44 141.499s-68.333 50.5 -117 50.5c-36 0 -66 -10.167 -90 -30.5s-41.5 -45.666 -52.5 -75.999s-16.5 -61.5 -16.5 -93.5c0 -38.667 6.33301 -71.5 19 -98.5s29 -49.333 49 -67s45.667 -36.167 77 -55.5c116.667 40 175 116.333 175 229z" />
    <glyph glyph-name="uni018E" unicode="&#x18e;" horiz-adv-x="528" 
d="M430 724v-724h-384v32h349v323h-258v32h258v305h-337v32h372z" />
    <glyph glyph-name="uni018F" unicode="&#x18f;" horiz-adv-x="633" 
d="M495.5 640.5c49 -63.667 73.501 -156.834 73.501 -279.501c0 -122 -22.167 -214.667 -66.5 -278s-108.5 -95 -192.5 -95c-82 0 -146 30.833 -192 92.5s-69 147.834 -69 258.501c0 7.33301 0.666992 17.666 2 30.999h485
c-0.666992 108.667 -22.834 191.334 -66.501 248.001s-106.167 85 -187.5 85c-62 0 -122.333 -18.667 -181 -56l-16 27c26.667 19.333 57.5 34.5 92.5 45.5s70.5 16.5 106.5 16.5c92 0 162.5 -31.833 211.5 -95.5zM475.501 101.5c37.667 53.667 57.833 132.833 60.5 237.5
h-452c-2.66699 -100 16 -178 56 -234s97.333 -84 172 -84c71.333 0 125.833 26.833 163.5 80.5z" />
    <glyph glyph-name="uni0190" unicode="&#x190;" horiz-adv-x="549" 
d="M494 39c-23.333 -16 -52.667 -28.5 -88 -37.5s-71.333 -13.5 -108 -13.5c-72.667 0 -128.834 18.333 -168.501 55s-59.5 86.667 -59.5 150c0 52 13.667 93 41 123s61.333 50 102 60c-37.333 14.667 -66 36.334 -86 65.001s-30 63.334 -30 104.001
c0 39.333 8.83301 73.5 26.5 102.5s42.167 51.167 73.5 66.5s66.333 23 105 23c30.667 0 60.667 -4.5 90 -13.5s54 -19.833 74 -32.5l-12 -28c-52 28 -101.333 42 -148 42c-52 0 -94 -14.5 -126 -43.5s-48 -67.5 -48 -115.5c0 -47.333 15 -85.333 45 -114s68 -43 114 -43h89
v-32h-96c-30.667 0 -59.5 -6 -86.5 -18s-49 -30.333 -66 -55s-25.5 -55.334 -25.5 -92.001c0 -50.667 17 -91.834 51 -123.501s83 -47.5 147 -47.5c60.667 0 119.334 15.667 176.001 47z" />
    <glyph glyph-name="uni0191" unicode="&#x191;" horiz-adv-x="490" 
d="M133 692v-318h273v-32h-273v-342v-105c0 -36.667 -8.83301 -64.667 -26.5 -84s-43.5 -29 -77.5 -29c-17.333 0 -33.333 3 -48 9l8 29c12 -5.33301 25.333 -8 40 -8c24 0 41.5 6.83301 52.5 20.5s16.5 35.167 16.5 64.5v269v558h366v-32h-331z" />
    <glyph glyph-name="florin" unicode="&#x192;" horiz-adv-x="486" 
d="M309 673.5c-16.667 -21 -27.667 -51.5 -33 -91.5l-22 -166h152v-32h-156l-56 -427c-6.66699 -52.667 -21.667 -93.5 -45 -122.5s-54 -43.5 -92 -43.5c-11.333 0 -24.666 1.33301 -39.999 4l6 31c12 -2 22.333 -3 31 -3c27.333 0 50.166 11.5 68.499 34.5
s30.166 56.167 35.499 99.5l56 427h-118v32h122l22 166c6.66699 49.333 21.334 87.5 44.001 114.5s52.667 40.5 90 40.5c20.667 0 40.167 -3.33301 58.5 -10s33.833 -16 46.5 -28l-16 -26c-28.667 21.333 -58.667 32 -90 32c-26 0 -47.333 -10.5 -64 -31.5z" />
    <glyph glyph-name="uni0193" unicode="&#x193;" horiz-adv-x="734" 
d="M676 843l0.000976562 -32.0039c-10.667 1.33301 -25.667 2 -45 2c-33.333 0 -59.5 -10.167 -78.5 -30.5s-28.5 -49.166 -28.5 -86.499v-11v-20h-13c-49.333 26 -102 39 -158 39c-82 0 -144.667 -29.167 -188 -87.5s-65 -143.166 -65 -254.499s21.667 -196.333 65 -255
s106.333 -88 189 -88c50.667 0 101 10.667 151 32v273h-135v32h170v-321c-26 -15.333 -55.333 -27.166 -88 -35.499s-65.334 -12.5 -98.001 -12.5c-92 0 -163.333 32.833 -214 98.5s-76 157.834 -76 276.501s25.333 210.834 76 276.501s122 98.5 214 98.5
c51.333 0 98 -9.66699 140 -29c2.66699 43.333 16.167 77.166 40.5 101.499s56.833 36.5 97.5 36.5c20 0 34.667 -1 44 -3z" />
    <glyph glyph-name="uni0194" unicode="&#x194;" horiz-adv-x="576" 
d="M368 41c15.333 -34.667 23 -67 23 -97c0 -32.667 -9 -58.167 -27 -76.5s-43 -27.5 -75 -27.5c-31.333 0 -56 9.16699 -74 27.5s-27 43.833 -27 76.5c0 28 7.66699 60.333 23 97l60 140l-235 543h37l216 -500l214 500h37l-233 -542zM356 -52
c0 23.333 -6.66602 50.667 -19.999 82l-47 109l-47 -109c-12.667 -30 -19 -57.333 -19 -82s5.66699 -43.5 17 -56.5s27.666 -19.5 48.999 -19.5c44.667 0 67 25.333 67 76z" />
    <glyph glyph-name="uni0195" unicode="&#x195;" horiz-adv-x="824" 
d="M723 372.5c4.66699 -44.333 7 -88.499 7 -132.499c0 -80.667 -14.833 -143 -44.5 -187s-71.834 -66 -126.501 -66c-49.333 0 -87.166 14.333 -113.499 43s-39.5 68.667 -39.5 120v168v52c0 44.667 -9.83301 78.667 -29.5 102s-48.834 35 -87.501 35
c-28.667 0 -56 -6.83301 -82 -20.5s-52.333 -34.5 -79 -62.5v-424h-34v770h34v-312c48 54 103 81 165 81c46.667 0 82.834 -14.333 108.501 -43s38.5 -68.667 38.5 -120v-127v-93c0 -44.667 9.83301 -78.667 29.5 -102s49.5 -35 89.5 -35c44.667 0 78.667 19.167 102 57.5
s35 94.833 35 169.5c0 43.333 -2.33301 86.666 -7 129.999s-14 93.333 -28 150h34c14 -58 23.333 -109.167 28 -153.5z" />
    <glyph glyph-name="uni0196" unicode="&#x196;" horiz-adv-x="248" 
d="M98 74v650h35v-647c0 -18 3.83301 -31 11.5 -39s20.5 -12 38.5 -12c10 0 21.667 1.33301 35 4l4 -29c-16 -4 -31 -6 -45 -6c-52.667 0 -79 26.333 -79 79z" />
    <glyph glyph-name="uni0197" unicode="&#x197;" horiz-adv-x="260" 
d="M230 358h-83v-358h-34v358h-83v31h83v335h34v-335h83v-31z" />
    <glyph glyph-name="uni0198" unicode="&#x198;" horiz-adv-x="576" 
d="M567.5 727c11.667 -6.66699 23.1631 -17 34.4961 -31l-21 -23c-11.333 12 -20.666 20.333 -27.999 25s-15.666 7 -24.999 7c-11.333 0 -22 -3.83301 -32 -11.5s-20.333 -18.167 -31 -31.5l-196 -251l281 -411h-42l-261 384l-114 -147v-237h-35v724h35v-438l312 404
c10.667 14 23.334 25.333 38.001 34s29.667 13 45 13c14.667 0 27.834 -3.33301 39.501 -10z" />
    <glyph glyph-name="uni0199" unicode="&#x199;" horiz-adv-x="480" 
d="M215 272l-87.001 -98v-174h-34v526v146c0 68.667 31.333 103 94 103c16.667 0 32.667 -3 48 -9l-9 -27c-10.667 5.33301 -23.667 8 -39 8c-21.333 0 -36.666 -6.16699 -45.999 -18.5s-14 -31.833 -14 -58.5v-355v-99l273 310h41l-203 -228l213 -298h-41z" />
    <glyph glyph-name="uni019A" unicode="&#x19a;" horiz-adv-x="313" 
d="M144 389v-315c0 -16.667 3.83301 -29 11.5 -37s19.834 -12 36.501 -12c10 0 21.333 1.33301 34 4l4 -28c-14.667 -4 -29.334 -6 -44.001 -6c-50.667 0 -76 25.333 -76 76v318h-76v28h76v353h34v-353h124v-28h-124z" />
    <glyph glyph-name="uni019B" unicode="&#x19b;" horiz-adv-x="461" 
d="M385 0l-154 488l-155 -488h-36l175 530c-10.667 30 -23.667 56 -39 78l-104 -51h-6v29l92 46c-30.667 36 -70 62.667 -118 80l12 31c54.667 -18 100 -50 136 -96l120 59h6v-29l-109 -54c15.333 -23.333 29 -53 41 -89l175 -534h-36z" />
    <glyph glyph-name="uni019C" unicode="&#x19c;" horiz-adv-x="832" 
d="M734 724v-724h-34v69c-49.333 -54.667 -103.333 -82 -162 -82c-32.667 0 -60.167 7.83301 -82.5 23.5s-38.5 38.5 -48.5 68.5c-24.667 -30 -51.334 -52.833 -80.001 -68.5s-58.667 -23.5 -90 -23.5c-43.333 0 -77.333 14.333 -102 43s-37 68.667 -37 120v574h35v-568
c0 -44.667 9 -78.5 27 -101.5s45 -34.5 81 -34.5c26.667 0 53 7 79 21s53 35.667 81 65c-2.66699 11.333 -4 26 -4 44v574h35v-568c0 -90.667 36.333 -136 109 -136c27.333 0 53.833 6.66699 79.5 20s51.834 34 78.501 62v622h35z" />
    <glyph glyph-name="uni019D" unicode="&#x19d;" horiz-adv-x="670" 
d="M572 724v-724h-33l-408 664v-664v-105c0 -36.667 -8.83301 -64.667 -26.5 -84s-43.5 -29 -77.5 -29c-17.333 0 -33.333 3 -48 9l8 29c12 -5.33301 25.333 -8 40 -8c24.667 0 42.667 6.83301 54 20.5s17 35.167 17 64.5v269v558h33l408 -664v664h33z" />
    <glyph glyph-name="uni019E" unicode="&#x19e;" horiz-adv-x="528" 
d="M400.5 498.5c25.667 -27 38.501 -64.833 38.501 -113.5v-385v-208h-34v273v314c0 42 -9.66699 73.833 -29 95.5s-48 32.5 -86 32.5c-28.667 0 -56 -6.66699 -82 -20s-52.667 -34 -80 -62v-425h-34v526h33v-69c45.333 54.667 100.666 82 165.999 82
c46 0 81.833 -13.5 107.5 -40.5z" />
    <glyph glyph-name="uni019F" unicode="&#x19f;" horiz-adv-x="660" 
d="M527.5 641.5c45.667 -63.667 68.5 -156.834 68.5 -279.501s-22.833 -215.834 -68.5 -279.501s-111.5 -95.5 -197.5 -95.5s-151.833 31.833 -197.5 95.5s-68.5 156.834 -68.5 279.501s22.833 215.834 68.5 279.501s111.5 95.5 197.5 95.5s151.833 -31.833 197.5 -95.5z
M161.5 622c-39 -55.333 -59.5 -136.666 -61.5 -243.999h460c-2 107.333 -22.5 188.666 -61.5 243.999s-95.167 83 -168.5 83s-129.5 -27.667 -168.5 -83zM499 102c38.667 55.333 59 137 61 245h-460c2 -108 22.333 -189.667 61 -245s95 -83 169 -83s130.333 27.667 169 83z
" />
    <glyph glyph-name="Ohorn" unicode="&#x1a0;" horiz-adv-x="659" 
d="M600 713.5c-20.667 -18.333 -54.668 -27.502 -102.001 -27.502c-6 0 -10.333 0.333008 -13 1c36 -29.333 63.5 -71.166 82.5 -125.499s28.5 -120.833 28.5 -199.5c0 -122.667 -22.833 -215.834 -68.5 -279.501s-111.5 -95.5 -197.5 -95.5s-151.833 31.833 -197.5 95.5
s-68.5 156.834 -68.5 279.501s22.833 215.834 68.5 279.501s111.5 95.5 197.5 95.5c23.333 0 53 -4 89 -12c30.667 -7.33301 57.334 -11 80.001 -11c37.333 0 63.5 6.5 78.5 19.5s22.5 35.833 22.5 68.5c0 16.667 -1.66699 37 -5 61h31c3.33301 -20 5 -39.667 5 -59
c0 -42 -10.333 -72.167 -31 -90.5zM501.499 617.998c-39 58 -96.167 87 -171.5 87s-132.5 -29 -171.5 -87s-58.5 -143.333 -58.5 -256s19.5 -198 58.5 -256s96.167 -87 171.5 -87s132.5 29 171.5 87s58.5 143.333 58.5 256s-19.5 198 -58.5 256z" />
    <glyph glyph-name="ohorn" unicode="&#x1a1;" horiz-adv-x="513" 
d="M476.5 526c-20.333 -18 -54.168 -26.999 -101.501 -26.999h-7c52 -44.667 78 -123.334 78 -236.001c0 -90 -16.833 -158.5 -50.5 -205.5s-81.5 -70.5 -143.5 -70.5s-109.833 23.5 -143.5 70.5s-50.5 115.5 -50.5 205.5s16.833 158.5 50.5 205.5s81.5 70.5 143.5 70.5
c12.667 0 30.334 -2 53.001 -6c28 -4.66699 51.667 -7 71 -7c37.333 0 63.5 6.33301 78.5 19s22.5 35 22.5 67c0 16.667 -1.66699 37 -5 61h30c3.33301 -20 5 -39.667 5 -59c0 -40.667 -10.167 -70 -30.5 -88zM370.498 446.001c-27 41.333 -66.5 62 -118.5 62
s-91.5 -20.667 -118.5 -62s-40.5 -102.333 -40.5 -183s13.5 -141.667 40.5 -183s66.5 -62 118.5 -62s91.5 20.667 118.5 62s40.5 102.333 40.5 183s-13.5 141.667 -40.5 183z" />
    <glyph glyph-name="uni01A2" unicode="&#x1a2;" horiz-adv-x="765" 
d="M667 724l-0.000976562 -932.002h-35v901h-98l1 -672c-26 -11.333 -55.167 -19.833 -87.5 -25.5s-71.5 -8.5 -117.5 -8.5c-86 0 -151.833 31.833 -197.5 95.5s-68.5 156.834 -68.5 279.501s22.833 215.834 68.5 279.501s111.5 95.5 197.5 95.5
c8.66699 0 28.334 -1.33301 59.001 -4c52.667 -6 101 -9 145 -9h133zM499.999 41.998l-0.000976562 650.999c-22.667 0.666992 -53.667 3 -93 7c-29.333 2.66699 -50.666 4.33398 -63.999 5.00098h-13c-76 0 -133.333 -29 -172 -87s-58 -143.333 -58 -256
s19.333 -198 58 -256s96 -87 172 -87c67.333 0 124 7.66699 170 23z" />
    <glyph glyph-name="uni01A3" unicode="&#x1a3;" horiz-adv-x="633" 
d="M539 526l-0.000976562 -732h-34v704h-93h-1v-483c-38.667 -9.33301 -69.167 -16 -91.5 -20s-44.833 -6 -67.5 -6c-62 0 -109.833 23.333 -143.5 70s-50.5 114.667 -50.5 204c0 90 16.833 158.5 50.5 205.5s81.834 70.5 144.501 70.5c9.33301 0 20.5 -0.666992 33.5 -2
s22.5 -2.33301 28.5 -3c36 -5.33301 68 -8 96 -8h128zM376.999 499c-15.333 0.666992 -35.002 2.33301 -59.002 5c-22.667 2.66699 -39.667 4 -51 4h-14c-52 0.666992 -91.667 -19.833 -119 -61.5s-41 -102.834 -41 -183.501c0 -80 13.333 -140.167 40 -180.5
s66.334 -60.5 119.001 -60.5c17.333 0 38.333 1.83301 63 5.5s45.334 7.83398 62.001 12.501v459z" />
    <glyph glyph-name="uni01A4" unicode="&#x1a4;" horiz-adv-x="596" 
d="M518 666.5c34.667 -38.333 52 -92.833 52 -163.5c0 -71.333 -17.5 -126.5 -52.5 -165.5s-84.833 -58.5 -149.5 -58.5h-184v-279h-35v692c-36.667 0 -65.167 -9.33301 -85.5 -28s-30.5 -44.667 -30.5 -78c0 -14.667 1 -30 3 -46h-34c-2.66699 11.333 -4 26.333 -4 45
c0 43.333 13.333 77.333 40 102s63.667 37 111 37h35h186c64 0 113.333 -19.167 148 -57.5zM492 360c28 32.667 42 79.667 42 141c0 62 -14.333 109.333 -43 142s-69.667 49 -123 49h-184v-381h186c53.333 0 94 16.333 122 49z" />
    <glyph glyph-name="uni01A5" unicode="&#x1a5;" horiz-adv-x="525" 
d="M419.5 466.5c31.667 -48.333 47.499 -116.501 47.499 -204.501c0 -87.333 -16 -155 -48 -203s-77.333 -72 -136 -72c-30.667 0 -59.5 7.33301 -86.5 22s-49.833 35.334 -68.5 62.001v-278h-34v530v203v147c0 68.667 31.333 103 94 103c16.667 0 32.667 -3 48 -9l-9 -27
c-10.667 5.33301 -23.667 8 -39 8c-21.333 0 -36.833 -6.16699 -46.5 -18.5s-14.5 -31.833 -14.5 -58.5v-178v-45c42.667 60.667 95 91 157 91c58.667 0 103.834 -24.167 135.501 -72.5zM393.499 80.999c25.667 41.333 38.5 101 38.5 179c0 80 -13 141.167 -39 183.5
s-63.333 63.5 -112 63.5c-29.333 0 -56.5 -7.5 -81.5 -22.5s-48.833 -38.5 -71.5 -70.5v-304c18.667 -28.667 41.667 -51 69 -67s56.333 -24 87 -24c47.333 0 83.833 20.667 109.5 62z" />
    <glyph glyph-name="uni01A6" unicode="&#x1a6;" horiz-adv-x="592" 
d="M300 250h-167.001v-250h-35v724h35v-90h178c62.667 0 111.334 -17.167 146.001 -51.5s52 -80.833 52 -139.5c0 -54 -15 -98 -45 -132s-72 -53.667 -126 -59l229 -362h-43zM132.999 282l178 0.000976562c52 0 92 14.333 120 43s42 67 42 115
c0 49.333 -14.5 88.666 -43.5 117.999s-69.833 44 -122.5 44h-174v-320z" />
    <glyph glyph-name="uni01A7" unicode="&#x1a7;" horiz-adv-x="512" 
d="M109 39c-36.667 34 -55.001 82.332 -55.001 144.999c0 50 12.333 90.167 37 120.5s64 52.833 118 67.5l82 23c48.667 13.333 83.167 32.166 103.5 56.499s30.5 57.833 30.5 100.5c0 48.667 -14.167 86.167 -42.5 112.5s-69.166 39.5 -122.499 39.5
c-57.333 0 -116.333 -13.667 -177 -41l-13 30c28 13.333 58.5 23.833 91.5 31.5s64.833 11.5 95.5 11.5c64.667 0 114.5 -16.167 149.5 -48.5s52.5 -78.5 52.5 -138.5c0 -49.333 -12.333 -89.166 -37 -119.499s-64 -52.833 -118 -67.5l-82 -23
c-47.333 -12.667 -81.333 -31.5 -102 -56.5s-31 -59.5 -31 -103.5c0 -51.333 15.167 -90.666 45.5 -117.999s73.833 -41 130.5 -41c67.333 0 131 17.333 191 52l14 -28c-28.667 -17.333 -61 -31 -97 -41s-72 -15 -108 -15c-67.333 0 -119.333 17 -156 51z" />
    <glyph glyph-name="uni01A8" unicode="&#x1a8;" horiz-adv-x="407" 
d="M91.5 27c-27.667 26 -41.499 63.3311 -41.499 111.998c0 38.667 9.33301 69.334 28 92.001s48 38.667 88 48l71 17c32 7.33301 54.833 19 68.5 35s20.5 38.667 20.5 68c0 35.333 -10 62.166 -30 80.499s-49 27.5 -87 27.5c-44.667 0 -89.667 -12.333 -135 -37l-13 28
c21.333 12.667 44.666 22.5 69.999 29.5s50.333 10.5 75 10.5c49.333 0 87.166 -12.333 113.499 -37s39.5 -59.667 39.5 -105c0 -36 -9.16699 -64.667 -27.5 -86s-46.833 -36.666 -85.5 -45.999l-71 -17c-32.667 -8 -56 -20.5 -70 -37.5s-21 -41.5 -21 -73.5
c0 -38 10.833 -67 32.5 -87s52.834 -30 93.501 -30c54 0 103 15 147 45l12 -28c-21.333 -15.333 -46 -27.166 -74 -35.499s-56.333 -12.5 -85 -12.5c-51.333 0 -90.833 13 -118.5 39z" />
    <glyph glyph-name="uni01A9" unicode="&#x1a9;" horiz-adv-x="531" 
d="M58 33l250 334l-250 325v32h425v-32h-386l254 -325l-254 -335h386v-32h-425v33z" />
    <glyph glyph-name="uni01AA" unicode="&#x1aa;" horiz-adv-x="241" 
d="M301 -182l-0.000976562 -29.998c-13.333 -3.33301 -28.666 -5 -45.999 -5c-46 0 -81.167 13.167 -105.5 39.5s-36.5 64.166 -36.5 113.499v129v546c-6.66699 -8.66699 -16 -15.834 -28 -21.501s-25.333 -8.5 -40 -8.5c-28 0 -50.833 9 -68.5 27s-26.5 42.333 -26.5 73
c0 32 9.33301 57 28 75s43.334 27 74.001 27c30 0 53.333 -9.16699 70 -27.5s25 -40.833 25 -67.5v-676v-76c0 -40 9.16699 -70.333 27.5 -91s45.166 -31 80.499 -31c12 0 27.333 1.33301 46 4zM95.499 632.502c10.333 13.667 15.5 29.832 15.5 48.499
c0 21.333 -5.16699 38.5 -15.5 51.5s-25.833 19.5 -46.5 19.5s-36.5 -6.5 -47.5 -19.5s-16.5 -30.167 -16.5 -51.5s5.5 -38.166 16.5 -50.499s26.833 -18.5 47.5 -18.5s36.167 6.83301 46.5 20.5z" />
    <glyph glyph-name="uni01AB" unicode="&#x1ab;" horiz-adv-x="320" 
d="M290 5v-110c0 -37.333 -8.66699 -65.5 -26 -84.5s-43 -28.5 -77 -28.5c-17.333 0 -33.333 3 -48 9l8 26c12 -5.33301 25.333 -8 40 -8c25.333 0 43.833 7.16699 55.5 21.5s17.5 36.5 17.5 66.5v100c-10.667 -2 -22 -3 -34 -3c-39.333 0 -69 10.833 -89 32.5
s-30 53.5 -30 95.5v375h-84v29h84v154h34v-154h145v-29h-145v-367c0 -35.333 7.16699 -61.5 21.5 -78.5s36.5 -25.5 66.5 -25.5c16.667 0 34.667 2.66699 54 8z" />
    <glyph glyph-name="uni01AC" unicode="&#x1ac;" horiz-adv-x="492" 
d="M460 692l-189.001 0.000976562v-692h-35v692h-75c-31.333 0 -55.833 -8.66699 -73.5 -26s-26.5 -41.333 -26.5 -72c0 -12 1 -25.667 3 -41h-34c-2.66699 11.333 -4 24.666 -4 39.999c0 41.333 11.833 73.5 35.5 96.5s56.834 34.5 99.501 34.5h110h189v-32z" />
    <glyph glyph-name="uni01AD" unicode="&#x1ad;" horiz-adv-x="320" 
d="M290 5c-20 -7.33301 -41.334 -11 -64.001 -11c-39.333 0 -69 10.833 -89 32.5s-30 53.5 -30 95.5v375h-84v29h84v97c0 47.333 12.667 84.333 38 111s60.333 40 105 40c14.667 0 26.334 -1.33301 35.001 -4v-30c-12 2 -23.667 3 -35 3c-35.333 0 -62.333 -10.333 -81 -31
s-28 -50.667 -28 -90v-96h145v-29h-145v-367c0 -35.333 7.16699 -61.5 21.5 -78.5s36.5 -25.5 66.5 -25.5c16.667 0 34.667 2.66699 54 8z" />
    <glyph glyph-name="uni01AE" unicode="&#x1ae;" horiz-adv-x="477" 
d="M272.5 -167.5c11 -13.667 28.5 -20.5 52.5 -20.5c14.667 0 28 2.66699 40 8l8 -29c-14.667 -6 -30.667 -9 -48 -9c-34 0 -59.833 9.66699 -77.5 29s-26.5 47.333 -26.5 84v271v526h-189v32h224h189v-32h-189v-795c0 -29.333 5.5 -50.833 16.5 -64.5z" />
    <glyph glyph-name="Uhorn" unicode="&#x1af;" horiz-adv-x="634" 
d="M627.5 725.5c-17.667 -17 -46.5 -26.501 -86.5 -28.501v-456c0 -81.333 -19.5 -144 -58.5 -188s-94.167 -66 -165.5 -66s-126.5 22 -165.5 66s-58.5 106.667 -58.5 188v483h35v-481c0 -73.333 15.833 -129 47.5 -167s78.834 -57 141.501 -57
c61.333 0 108.166 19.167 140.499 57.5s48.5 93.833 48.5 166.5v481h16c37.333 0 63.5 5.83301 78.5 17.5s22.5 31.834 22.5 60.501c0 16.667 -1.66699 37 -5 61h31c3.33301 -20 5 -39.667 5 -59c0 -35.333 -8.83301 -61.5 -26.5 -78.5z" />
    <glyph glyph-name="uhorn" unicode="&#x1b0;" horiz-adv-x="520" 
d="M511 530c-17.333 -18 -45.667 -28 -85 -30v-500h-33v75c-22 -28.667 -46.833 -50.5 -74.5 -65.5s-57.167 -22.5 -88.5 -22.5c-45.333 0 -80.5 13.5 -105.5 40.5s-37.5 64.833 -37.5 113.5v385h34v-379c0 -42 9.5 -73.833 28.5 -95.5s46.833 -32.5 83.5 -32.5
c29.333 0 56.833 7.16699 82.5 21.5s51.167 36.5 76.5 66.5v419h14c37.333 0 63.5 6.33301 78.5 19s22.5 35 22.5 67c0 16.667 -1.66699 37 -5 61h30c3.33301 -20 5 -39.667 5 -59c0 -38 -8.66699 -66 -26 -84z" />
    <glyph glyph-name="uni01B1" unicode="&#x1b1;" horiz-adv-x="713" 
d="M157.5 71c-47 56 -70.5 134.667 -70.5 236c0 79.333 14.5 153 43.5 221s69.5 122.667 121.5 164h-188v32h238v-31c-59.333 -46 -104 -101.333 -134 -166s-45 -137.334 -45 -218.001c0 -94 20 -165.833 60 -215.5s98 -74.5 174 -74.5s133.833 24.833 173.5 74.5
s59.5 121.5 59.5 215.5c0 80.667 -15 153.334 -45 218.001s-74.667 120 -134 166v31h238v-32h-188c52 -42 92.5 -97 121.5 -165s43.5 -141.667 43.5 -221c0 -101.333 -23.5 -179.833 -70.5 -235.5s-113.167 -83.5 -198.5 -83.5c-86 0 -152.5 28 -199.5 84z" />
    <glyph glyph-name="uni01B2" unicode="&#x1b2;" horiz-adv-x="634" 
d="M514.5 708c17.667 -19.333 26.5 -47.333 26.5 -84v-271v-112c0 -81.333 -19.5 -144 -58.5 -188s-94.167 -66 -165.5 -66s-126.5 22 -165.5 66s-58.5 106.667 -58.5 188v483h35v-481c0 -73.333 15.833 -129 47.5 -167s78.834 -57 141.501 -57
c61.333 0 108.166 19.167 140.499 57.5s48.5 93.833 48.5 166.5v199v180c0 29.333 -5.5 50.833 -16.5 64.5s-28.5 20.5 -52.5 20.5c-14.667 0 -28 -2.66699 -40 -8l-8 29c14.667 6 30.667 9 48 9c34 0 59.833 -9.66699 77.5 -29z" />
    <glyph glyph-name="uni01B3" unicode="&#x1b3;" horiz-adv-x="567" 
d="M564.5 716c11 -14 19.167 -39.002 24.5 -75.002l-29 -6c-6 46.667 -20 70 -42 70c-10 0 -18 -3.66699 -24 -11s-14.333 -21.666 -25 -42.999l-185 -383v-268h-35v268l-221 456h37l202 -421l173 362c12 24.667 23.5 42.834 34.5 54.501s25.5 17.5 43.5 17.5
c20 0 35.5 -7 46.5 -21z" />
    <glyph glyph-name="uni01B4" unicode="&#x1b4;" horiz-adv-x="533" 
d="M519.5 617c10.333 -12 18.167 -35.3311 23.5 -69.998l-29 -6c-3.33301 25.333 -8.16602 42.166 -14.499 50.499s-15.5 12.5 -27.5 12.5c-10.667 0 -19.334 -4.16699 -26.001 -12.5s-13 -22.5 -19 -42.5l-181 -557c-16.667 -52.667 -41.5 -96.834 -74.5 -132.501
s-72.833 -61.167 -119.5 -76.5l-12 31c42 14.667 77.167 36.667 105.5 66s51.5 68 69.5 116l-175 530h36l154 -486l166 523c15.333 48 41 72 77 72c20.667 0 36.167 -6 46.5 -18z" />
    <glyph glyph-name="uni01B5" unicode="&#x1b5;" horiz-adv-x="503" 
d="M455 32v-32h-409v32l184 332h-143v30h159l165 298h-353v32h393v-32l-165 -298h128v-30h-144l-184 -332h369z" />
    <glyph glyph-name="uni01B6" unicode="&#x1b6;" horiz-adv-x="412" 
d="M364 29v-29h-318v29l138 232h-118v27h134l125 209h-272v29h308v-29l-125 -209h109v-27h-125l-138 -232h282z" />
    <glyph glyph-name="uni01B7" unicode="&#x1b7;" horiz-adv-x="521" 
d="M460 211c0 -72.667 -19.498 -128 -58.498 -166s-93.167 -57 -162.5 -57c-36.667 0 -73.334 4.83301 -110.001 14.5s-69.334 23.167 -98.001 40.5l15 31c68.667 -36 132.667 -54 192 -54c58 0 103.5 17 136.5 51s49.5 80.667 49.5 140c0 114 -73 171 -219 171h-38v26
l219 284h-326v32h367v-33l-214 -274c164.667 -1.33301 247 -70 247 -206z" />
    <glyph glyph-name="uni01B8" unicode="&#x1b8;" horiz-adv-x="521" 
d="M490 43c-28.667 -17.333 -61.332 -30.833 -97.999 -40.5s-73.334 -14.5 -110.001 -14.5c-69.333 0 -123.5 19 -162.5 57s-58.5 93.333 -58.5 166c0 136 82.333 204.667 247 206l-214 274v33h367v-32h-326l219 -284v-26h-38c-146 0 -219 -57 -219 -171
c0 -59.333 16.5 -106 49.5 -140s78.5 -51 136.5 -51c59.333 0 123.333 18 192 54z" />
    <glyph glyph-name="uni01B9" unicode="&#x1b9;" horiz-adv-x="478" 
d="M437 -177c-19.333 -11.333 -44.168 -21.002 -74.501 -29.002s-60.5 -12 -90.5 -12c-61.333 0 -112.166 18 -152.499 54s-60.5 89.667 -60.5 161c0 68.667 20.5 120.334 61.5 155.001s97.833 52.334 170.5 53.001l-200 291v30h334v-29h-295l200 -297v-26h-36
c-62 0 -110.833 -14.667 -146.5 -44s-53.5 -74 -53.5 -134c0 -59.333 16.833 -104.5 50.5 -135.5s76.5 -46.5 128.5 -46.5c44 0 94 12.667 150 38z" />
    <glyph glyph-name="uni01BA" unicode="&#x1ba;" horiz-adv-x="429" 
d="M264 -147c30.667 8 59.666 20.002 86.999 36.002l11 -28c-63.333 -34 -125.666 -51 -186.999 -51c-47.333 0 -84.833 9.5 -112.5 28.5s-41.5 48.167 -41.5 87.5c0 40 14.833 68.333 44.5 85s66.167 26.334 109.5 29.001c50.667 2.66699 90 12 118 28s42 45 42 87
c0 39.333 -14.333 68.666 -43 87.999s-77 29 -145 29h-26v23l177 202h-258v29h299v-32l-172 -193c135.333 -2 203 -49 203 -141c0 -38 -8 -67.5 -24 -88.5s-37.833 -35.833 -65.5 -44.5s-62.5 -14.334 -104.5 -17.001c-80.667 -4.66699 -121 -32.334 -121 -83.001
c0 -57.333 41.667 -86 125 -86c25.333 0 53.333 4 84 12z" />
    <glyph glyph-name="uni01BB" unicode="&#x1bb;" horiz-adv-x="475" 
d="M410 31v-31h-367v31l239 326h-198v31h220c23.333 34 39.833 63.667 49.5 89s14.5 51 14.5 77c0 46 -13 82.5 -39 109.5s-61.333 40.5 -106 40.5c-28 0 -56.833 -5.16699 -86.5 -15.5s-55.834 -24.833 -78.501 -43.5l-16 27c23.333 20 51.333 35.833 84 47.5
s65.334 17.5 98.001 17.5c54.667 0 98 -16.333 130 -49s48 -76.667 48 -132c0 -27.333 -4.5 -54 -13.5 -80s-24.167 -55.333 -45.5 -88h65v-31h-86l-12 -16l-228 -310h328z" />
    <glyph glyph-name="uni01BC" unicode="&#x1bc;" horiz-adv-x="473" 
d="M365.5 369c35.667 -38 53.5 -89.6689 53.5 -155.002c0 -41.333 -7.5 -79.166 -22.5 -113.499s-38.167 -61.833 -69.5 -82.5s-70.333 -31 -117 -31c-34 0 -66.5 4.5 -97.5 13.5s-56.833 21.167 -77.5 36.5l15 30c46 -32 100 -48 162 -48c58 0 101.167 18.333 129.5 55
s42.5 83.334 42.5 140.001c0 55.333 -15.167 99.833 -45.5 133.5s-77.5 52.5 -141.5 56.5l-105 7v281l-70 1v31h105h267v-31l-267 -1h-1v-253l84 -6c68 -4.66699 119.833 -26 155.5 -64z" />
    <glyph glyph-name="uni01BD" unicode="&#x1bd;" horiz-adv-x="406" 
d="M313 267.5c28.667 -28.333 43 -66.166 43 -113.499c0 -50.667 -14.667 -91.167 -44 -121.5s-71.333 -45.5 -126 -45.5c-27.333 0 -54.5 4 -81.5 12s-48.833 17 -65.5 27l13 28c46.667 -24 91.334 -36 134.001 -36c43.333 0 76.666 12 99.999 36s35 57.333 35 100
c0 40.667 -12 72.167 -36 94.5s-57 35.166 -99 38.499l-106 8v202h-62v29h77h242v-29h-223v-174l82 -7c49.333 -4 88.333 -20.167 117 -48.5z" />
    <glyph glyph-name="uni01BE" unicode="&#x1be;" horiz-adv-x="436" 
d="M131.5 1c-28.333 8.66699 -52.832 20.3311 -73.499 34.998l12 28c44 -30 93 -45 147 -45c41.333 0 72.666 9.83301 93.999 29.5s32 47.834 32 84.501c0 25.333 -6.5 45.666 -19.5 60.999s-32.833 32 -59.5 50c-21.333 15.333 -38.5 28.833 -51.5 40.5s-24 27 -33 46
s-13.5 41.833 -13.5 68.5v98h-84v29h84v154h34v-154h145v-29h-145v-93c0 -22.667 4 -42.167 12 -58.5s18 -30 30 -41s28 -23.5 48 -37.5c20 -14.667 35.667 -27.167 47 -37.5s21 -23.166 29 -38.499s12 -33.666 12 -54.999c0 -46.667 -14.167 -83 -42.5 -109
s-67.833 -39 -118.5 -39c-28.667 0 -57.167 4.33301 -85.5 13z" />
    <glyph glyph-name="uni01BF" unicode="&#x1bf;" horiz-adv-x="501" 
d="M400.5 492c28.333 -31.333 42.498 -77.332 42.498 -137.999c0 -52 -10.667 -96.167 -32 -132.5s-53.666 -70.5 -96.999 -102.5l-186 -138v-188h-34v733h33v-86c20.667 31.333 45.834 55.666 75.501 72.999s60.834 26 93.501 26c41.333 0 76.166 -15.667 104.499 -47z
M379.998 233.501c18.667 31.667 27.999 70.5 27.999 116.5c0 53.333 -11 92.833 -33 118.5s-50.333 38.5 -85 38.5c-30 0 -59.167 -9.16699 -87.5 -27.5s-53.166 -43.833 -74.499 -76.5v-383l161 119c42 31.333 72.333 62.833 91 94.5z" />
    <glyph glyph-name="uni01C0" unicode="&#x1c0;" horiz-adv-x="234" 
d="M100 770h34v-770h-34v770z" />
    <glyph glyph-name="uni01C1" unicode="&#x1c1;" horiz-adv-x="336" 
d="M100 770h34v-770h-34v770zM202 770h34v-770h-34v770z" />
    <glyph glyph-name="uni01C2" unicode="&#x1c2;" horiz-adv-x="310" 
d="M172 488v-205h108v-31h-108v-252h-34v252h-108v31h108v205h-108v31h108v251h34v-251h108v-31h-108z" />
    <glyph glyph-name="uni01C3" unicode="&#x1c3;" horiz-adv-x="302" 
d="M132 770h37l-4 -615h-29zM126.5 -3c-5.66699 6 -8.5 14.666 -8.5 25.999s2.83301 20 8.5 26s13.834 9 24.501 9s18.834 -3 24.501 -9s8.5 -14.333 8.5 -25c0 -11.333 -2.83301 -20.166 -8.5 -26.499s-13.834 -9.5 -24.501 -9.5s-18.834 3 -24.501 9z" />
    <glyph glyph-name="uni01C4" unicode="&#x1c4;" horiz-adv-x="1142" 
d="M873 781l-117 138v7h30l103 -117l103 117h30v-7l-117 -138h-32zM494.5 629.5c53.667 -63 80.498 -151.5 80.498 -265.5c0 -115.333 -27.167 -204.833 -81.5 -268.5s-131.166 -95.5 -230.499 -95.5h-165v724h171c96.667 0 171.834 -31.5 225.501 -94.5zM1094 32v-32h-409
v32l365 660h-353v32h393v-32l-365 -660h369zM469.498 116.5c46.333 56.333 69.5 137.833 69.5 244.5c0 108 -23.667 190.167 -71 246.5s-115.666 84.5 -204.999 84.5h-130v-660h136c87.333 0 154.166 28.167 200.499 84.5z" />
    <glyph glyph-name="uni01C5" unicode="&#x1c5;" horiz-adv-x="1041" 
d="M816 611l-117 138v7h30l103 -117l103 117h30v-7l-117 -138h-32zM494.5 629.5c53.667 -63 80.498 -151.5 80.498 -265.5c0 -115.333 -27.167 -204.833 -81.5 -268.5s-131.166 -95.5 -230.499 -95.5h-165v724h171c96.667 0 171.834 -31.5 225.501 -94.5zM469.498 116.5
c46.333 56.333 69.5 137.833 69.5 244.5c0 108 -23.667 190.167 -71 246.5s-115.666 84.5 -204.999 84.5h-130v-660h136c87.333 0 154.166 28.167 200.499 84.5zM992.998 29v-29h-318v29l279 468h-272v29h308v-29l-279 -468h282z" />
    <glyph glyph-name="uni01C6" unicode="&#x1c6;" horiz-adv-x="876" 
d="M431 770l0.000976562 -735.999v-34h-33v79c-42.667 -60.667 -95 -91 -157 -91c-58.667 0 -103.834 24.167 -135.501 72.5s-47.5 116.5 -47.5 204.5s16 155.833 48 203.5s77.333 71.5 136 71.5c30.667 0 59.5 -7.33301 86.5 -22s49.833 -35.334 68.5 -62.001v314h34z
M325.501 42.501c25 15 48.833 38.5 71.5 70.5v304c-18.667 28.667 -41.667 51 -69 67s-56.333 24 -87 24c-47.333 0 -83.833 -20.667 -109.5 -62s-38.5 -101 -38.5 -179c0 -80 13 -141.167 39 -183.5s63.333 -63.5 112 -63.5c29.333 0 56.5 7.5 81.5 22.5zM828.001 29.001
v-29h-318v29l279 468h-272v29h308v-29l-279 -468h282zM786.001 784.001v-6l-103 -163h-32l-103 163v6h30l89 -140l89 140h30z" />
    <glyph glyph-name="uni01C7" unicode="&#x1c7;" horiz-adv-x="887" 
d="M133 32h318v-32h-353v724h35v-692zM794 724v-557.999c0 -59.333 -12 -104 -36 -134s-58.667 -45 -104 -45c-18.667 0 -37.5 2.66699 -56.5 8s-35.833 12.666 -50.5 21.999l11 27c32.667 -17.333 64.667 -26 96 -26c34.667 0 61.167 12.5 79.5 37.5s27.5 62.5 27.5 112.5
v556h33z" />
    <glyph glyph-name="uni01C8" unicode="&#x1c8;" horiz-adv-x="735" 
d="M451 32v-32h-353v724h35v-692h318zM488 -188c30.667 10.667 54.333 24 71 40s28.5 37.333 35.5 64s10.5 62.334 10.5 107.001v503h34v-503c0 -50.667 -4.16699 -91 -12.5 -121s-22.5 -54.333 -42.5 -73s-48.667 -34.334 -86 -47.001zM600.499 651.5
c-5 5.66699 -7.5 13.5 -7.5 23.5c0 10.667 2.5 18.834 7.5 24.501s12.167 8.5 21.5 8.5s16.5 -2.83301 21.5 -8.5s7.5 -13.5 7.5 -23.5c0 -10.667 -2.5 -18.834 -7.5 -24.501s-12.167 -8.5 -21.5 -8.5s-16.5 2.83301 -21.5 8.5z" />
    <glyph glyph-name="uni01C9" unicode="&#x1c9;" horiz-adv-x="460" 
d="M92 71v699h34v-696c0 -16.667 3.83301 -29 11.5 -37s19.834 -12 36.501 -12c10 0 21.333 1.33301 34 4l4 -28c-14.667 -4 -29.334 -6 -44.001 -6c-50.667 0 -76 25.333 -76 76zM213 -188c30.667 10.667 54.333 24 71 40s28.5 37.333 35.5 64s10.5 62.334 10.5 107.001
v503h34v-503c0 -50.667 -4.16699 -91 -12.5 -121s-22.5 -54.333 -42.5 -73s-48.667 -34.334 -86 -47.001zM325.499 651.5c-5 5.66699 -7.5 13.5 -7.5 23.5c0 10.667 2.5 18.834 7.5 24.501s12.167 8.5 21.5 8.5s16.5 -2.83301 21.5 -8.5s7.5 -13.5 7.5 -23.5
c0 -10.667 -2.5 -18.834 -7.5 -24.501s-12.167 -8.5 -21.5 -8.5s-16.5 2.83301 -21.5 8.5z" />
    <glyph glyph-name="uni01CA" unicode="&#x1ca;" horiz-adv-x="1032" 
d="M539 724h33v-724h-33l-408 664v-664h-33v724h33l408 -664v664zM939 724v-557.999c0 -59.333 -12 -104 -36 -134s-58.667 -45 -104 -45c-18.667 0 -37.5 2.66699 -56.5 8s-35.833 12.666 -50.5 21.999l11 27c32.667 -17.333 64.667 -26 96 -26
c34.667 0 61.167 12.5 79.5 37.5s27.5 62.5 27.5 112.5v556h33z" />
    <glyph glyph-name="uni01CB" unicode="&#x1cb;" horiz-adv-x="888" 
d="M572 724v-724h-33l-408 664v-664h-33v724h33l408 -664v664h33zM611 -188c30.667 10.667 54.333 24 71 40s28.5 37.333 35.5 64s10.5 62.334 10.5 107.001v503h34v-503c0 -50.667 -4.16699 -91 -12.5 -121s-22.5 -54.333 -42.5 -73s-48.667 -34.334 -86 -47.001z
M723.499 651.5c-5 5.66699 -7.5 13.5 -7.5 23.5c0 10.667 2.5 18.834 7.5 24.501s12.167 8.5 21.5 8.5s16.5 -2.83301 21.5 -8.5s7.5 -13.5 7.5 -23.5c0 -10.667 -2.5 -18.834 -7.5 -24.501s-12.167 -8.5 -21.5 -8.5s-16.5 2.83301 -21.5 8.5z" />
    <glyph glyph-name="uni01CC" unicode="&#x1cc;" horiz-adv-x="746" 
d="M400.5 498.5c25.667 -27 38.501 -64.833 38.501 -113.5v-385h-34v379c0 42 -9.66699 73.833 -29 95.5s-48 32.5 -86 32.5c-28.667 0 -56 -6.66699 -82 -20s-52.667 -34 -80 -62v-425h-34v526h33v-69c45.333 54.667 100.666 82 165.999 82c46 0 81.833 -13.5 107.5 -40.5z
M499.001 -188c30.667 10.667 54.333 24 71 40s28.5 37.333 35.5 64s10.5 62.334 10.5 107.001v503h34v-503c0 -50.667 -4.16699 -91 -12.5 -121s-22.5 -54.333 -42.5 -73s-48.667 -34.334 -86 -47.001zM611.5 651.5c-5 5.66699 -7.5 13.5 -7.5 23.5
c0 10.667 2.5 18.834 7.5 24.501s12.167 8.5 21.5 8.5s16.5 -2.83301 21.5 -8.5s7.5 -13.5 7.5 -23.5c0 -10.667 -2.5 -18.834 -7.5 -24.501s-12.167 -8.5 -21.5 -8.5s-16.5 2.83301 -21.5 8.5z" />
    <glyph glyph-name="uni01CD" unicode="&#x1cd;" horiz-adv-x="610" 
d="M289 781l-117 138v7h30l103 -117l103 117h30v-7l-117 -138h-32zM467 215h-325l-74 -215h-36l252 724h42l252 -724h-37zM456 247l-151 441l-152 -441h303z" />
    <glyph glyph-name="uni01CE" unicode="&#x1ce;" horiz-adv-x="476" 
d="M347 498.5c28 -27 42 -64.833 42 -113.5v-385h-33v73c-44 -56 -98.333 -84 -163 -84c-48 0 -85.333 13.167 -112 39.5s-40 63.166 -40 110.499c0 62 25.5 107.667 76.5 137s130.167 44.333 237.5 45v57c0 42.667 -10.833 74.834 -32.5 96.501s-53.167 32.5 -94.5 32.5
c-42 0 -83 -11 -123 -33l-11 30c19.333 11.333 41 20 65 26s47.333 9 70 9c50.667 0 90 -13.5 118 -40.5zM278 41.5c26 14.333 51.666 36.168 76.999 65.501v185c-95.333 -0.666992 -165.666 -13.334 -210.999 -38.001s-68 -63 -68 -115c0 -37.333 10.333 -66.5 31 -87.5
s49.667 -31.5 87 -31.5c30 0 58 7.16699 84 21.5zM343.999 784.002v-6l-103 -163h-32l-103 163v6h30l89 -140l89 140h30z" />
    <glyph glyph-name="uni01CF" unicode="&#x1cf;" horiz-adv-x="234" 
d="M250 926v-7l-117 -138h-32l-117 138v7h30l103 -117l103 117h30zM100 724h34v-724h-34v724z" />
    <glyph glyph-name="uni01D0" unicode="&#x1d0;" horiz-adv-x="226" 
d="M96 526h34v-526h-34v526zM232 784v-6l-103 -163h-32l-103 163v6h30l89 -140l89 140h30z" />
    <glyph glyph-name="uni01D1" unicode="&#x1d1;" horiz-adv-x="660" 
d="M314 781l-117 138v7h30l103 -117l103 117h30v-7l-117 -138h-32zM527.5 641.5c45.667 -63.667 68.5 -156.834 68.5 -279.501s-22.833 -215.834 -68.5 -279.501s-111.5 -95.5 -197.5 -95.5s-151.833 31.833 -197.5 95.5s-68.5 156.834 -68.5 279.501
s22.833 215.834 68.5 279.501s111.5 95.5 197.5 95.5s151.833 -31.833 197.5 -95.5zM501.5 106c39 58 58.5 143.333 58.5 256s-19.5 198 -58.5 256s-96.167 87 -171.5 87s-132.5 -29 -171.5 -87s-58.5 -143.333 -58.5 -256s19.5 -198 58.5 -256s96.167 -87 171.5 -87
s132.5 29 171.5 87z" />
    <glyph glyph-name="uni01D2" unicode="&#x1d2;" horiz-adv-x="504" 
d="M108.5 57.5c-33.667 47 -50.5 115.5 -50.5 205.5s16.833 158.5 50.5 205.5s81.5 70.5 143.5 70.5s109.833 -23.5 143.5 -70.5s50.5 -115.5 50.5 -205.5s-16.833 -158.5 -50.5 -205.5s-81.5 -70.5 -143.5 -70.5s-109.833 23.5 -143.5 70.5zM370.5 80
c27 41.333 40.5 102.333 40.5 183s-13.5 141.667 -40.5 183s-66.5 62 -118.5 62s-91.5 -20.667 -118.5 -62s-40.5 -102.333 -40.5 -183s13.5 -141.667 40.5 -183s66.5 -62 118.5 -62s91.5 20.667 118.5 62zM371 784v-6l-103 -163h-32l-103 163v6h30l89 -140l89 140h30z" />
    <glyph glyph-name="uni01D3" unicode="&#x1d3;" horiz-adv-x="634" 
d="M301 781l-117 138v7h30l103 -117l103 117h30v-7l-117 -138h-32zM541 724v-483c0 -81.333 -19.5 -144 -58.5 -188s-94.167 -66 -165.5 -66s-126.5 22 -165.5 66s-58.5 106.667 -58.5 188v483h35v-481c0 -73.333 15.833 -129 47.5 -167s78.834 -57 141.501 -57
c61.333 0 108.166 19.167 140.499 57.5s48.5 93.833 48.5 166.5v481h35z" />
    <glyph glyph-name="uni01D4" unicode="&#x1d4;" horiz-adv-x="520" 
d="M426 526v-526h-33v75c-22 -28.667 -46.833 -50.5 -74.5 -65.5s-57.167 -22.5 -88.5 -22.5c-45.333 0 -80.5 13.5 -105.5 40.5s-37.5 64.833 -37.5 113.5v385h34v-379c0 -42 9.5 -73.833 28.5 -95.5s46.833 -32.5 83.5 -32.5c29.333 0 56.833 7.16699 82.5 21.5
s51.167 36.5 76.5 66.5v419h34zM376 784v-6l-103 -163h-32l-103 163v6h30l89 -140l89 140h30z" />
    <glyph glyph-name="uni01D5" unicode="&#x1d5;" horiz-adv-x="634" 
d="M197 970h242v-27h-242v27zM212.5 799.5c-5 5.66699 -7.5 13.167 -7.5 22.5c0 10 2.5 17.833 7.5 23.5s11.833 8.5 20.5 8.5s15.5 -2.83301 20.5 -8.5s7.5 -13.167 7.5 -22.5c0 -10 -2.5 -17.833 -7.5 -23.5s-11.833 -8.5 -20.5 -8.5s-15.5 2.83301 -20.5 8.5z
M380.5 799.5c-5 5.66699 -7.5 13.167 -7.5 22.5c0 10 2.5 17.833 7.5 23.5s11.833 8.5 20.5 8.5s15.5 -2.83301 20.5 -8.5s7.5 -13.167 7.5 -22.5c0 -10 -2.5 -17.833 -7.5 -23.5s-11.833 -8.5 -20.5 -8.5s-15.5 2.83301 -20.5 8.5zM151.5 53
c-39 44 -58.5 106.667 -58.5 188v483h35v-481c0 -73.333 15.833 -129 47.5 -167s78.834 -57 141.501 -57c61.333 0 108.166 19.167 140.499 57.5s48.5 93.833 48.5 166.5v481h35v-483c0 -81.333 -19.5 -144 -58.5 -188s-94.167 -66 -165.5 -66s-126.5 22 -165.5 66z" />
    <glyph glyph-name="uni01D6" unicode="&#x1d6;" horiz-adv-x="520" 
d="M379 773h-242v27h242v-27zM152.5 675.5c5 5.66699 11.833 8.5 20.5 8.5s15.5 -2.83301 20.5 -8.5s7.5 -13.167 7.5 -22.5c0 -10 -2.5 -17.833 -7.5 -23.5s-11.833 -8.5 -20.5 -8.5s-15.5 2.83301 -20.5 8.5s-7.5 13.167 -7.5 22.5c0 10 2.5 17.833 7.5 23.5zM320.5 675.5
c5 5.66699 11.833 8.5 20.5 8.5s15.5 -2.83301 20.5 -8.5s7.5 -13.167 7.5 -22.5c0 -10 -2.5 -17.833 -7.5 -23.5s-11.833 -8.5 -20.5 -8.5s-15.5 2.83301 -20.5 8.5s-7.5 13.167 -7.5 22.5c0 10 2.5 17.833 7.5 23.5zM426 526v-526h-33v75
c-22 -28.667 -46.833 -50.5 -74.5 -65.5s-57.167 -22.5 -88.5 -22.5c-45.333 0 -80.5 13.5 -105.5 40.5s-37.5 64.833 -37.5 113.5v385h34v-379c0 -42 9.5 -73.833 28.5 -95.5s46.833 -32.5 83.5 -32.5c29.333 0 56.833 7.16699 82.5 21.5s51.167 36.5 76.5 66.5v419h34z
" />
    <glyph glyph-name="uni01D7" unicode="&#x1d7;" horiz-adv-x="634" 
d="M299 910l84 131h35v-6l-90 -131h-29v6zM212.5 799.5c-5 5.66699 -7.5 13.167 -7.5 22.5c0 10 2.5 17.833 7.5 23.5s11.833 8.5 20.5 8.5s15.5 -2.83301 20.5 -8.5s7.5 -13.167 7.5 -22.5c0 -10 -2.5 -17.833 -7.5 -23.5s-11.833 -8.5 -20.5 -8.5s-15.5 2.83301 -20.5 8.5
zM380.5 799.5c-5 5.66699 -7.5 13.167 -7.5 22.5c0 10 2.5 17.833 7.5 23.5s11.833 8.5 20.5 8.5s15.5 -2.83301 20.5 -8.5s7.5 -13.167 7.5 -22.5c0 -10 -2.5 -17.833 -7.5 -23.5s-11.833 -8.5 -20.5 -8.5s-15.5 2.83301 -20.5 8.5zM151.5 53
c-39 44 -58.5 106.667 -58.5 188v483h35v-481c0 -73.333 15.833 -129 47.5 -167s78.834 -57 141.501 -57c61.333 0 108.166 19.167 140.499 57.5s48.5 93.833 48.5 166.5v481h35v-483c0 -81.333 -19.5 -144 -58.5 -188s-94.167 -66 -165.5 -66s-126.5 22 -165.5 66z" />
    <glyph glyph-name="uni01D8" unicode="&#x1d8;" horiz-adv-x="520" 
d="M268 734h-29v6l84 131h35v-6zM152.5 629.5c-5 5.66699 -7.5 13.167 -7.5 22.5c0 10 2.5 17.833 7.5 23.5s11.833 8.5 20.5 8.5s15.5 -2.83301 20.5 -8.5s7.5 -13.167 7.5 -22.5c0 -10 -2.5 -17.833 -7.5 -23.5s-11.833 -8.5 -20.5 -8.5s-15.5 2.83301 -20.5 8.5z
M320.5 675.5c5 5.66699 11.833 8.5 20.5 8.5s15.5 -2.83301 20.5 -8.5s7.5 -13.167 7.5 -22.5c0 -10 -2.5 -17.833 -7.5 -23.5s-11.833 -8.5 -20.5 -8.5s-15.5 2.83301 -20.5 8.5s-7.5 13.167 -7.5 22.5c0 10 2.5 17.833 7.5 23.5zM426 526v-526h-33v75
c-22 -28.667 -46.833 -50.5 -74.5 -65.5s-57.167 -22.5 -88.5 -22.5c-45.333 0 -80.5 13.5 -105.5 40.5s-37.5 64.833 -37.5 113.5v385h34v-379c0 -42 9.5 -73.833 28.5 -95.5s46.833 -32.5 83.5 -32.5c29.333 0 56.833 7.16699 82.5 21.5s51.167 36.5 76.5 66.5v419h34z
" />
    <glyph glyph-name="uni01D9" unicode="&#x1d9;" horiz-adv-x="634" 
d="M302 903l-105 137v6h30l91 -115l91 115h30v-6l-105 -137h-32zM212.5 845.5c5 5.66699 11.833 8.5 20.5 8.5s15.5 -2.83301 20.5 -8.5s7.5 -13.167 7.5 -22.5c0 -10 -2.5 -17.833 -7.5 -23.5s-11.833 -8.5 -20.5 -8.5s-15.5 2.83301 -20.5 8.5s-7.5 13.167 -7.5 22.5
c0 10 2.5 17.833 7.5 23.5zM380.5 845.5c5 5.66699 11.833 8.5 20.5 8.5s15.5 -2.83301 20.5 -8.5s7.5 -13.167 7.5 -22.5c0 -10 -2.5 -17.833 -7.5 -23.5s-11.833 -8.5 -20.5 -8.5s-15.5 2.83301 -20.5 8.5s-7.5 13.167 -7.5 22.5c0 10 2.5 17.833 7.5 23.5zM541 724v-483
c0 -81.333 -19.5 -144 -58.5 -188s-94.167 -66 -165.5 -66s-126.5 22 -165.5 66s-58.5 106.667 -58.5 188v483h35v-481c0 -73.333 15.833 -129 47.5 -167s78.834 -57 141.501 -57c61.333 0 108.166 19.167 140.499 57.5s48.5 93.833 48.5 166.5v481h35z" />
    <glyph glyph-name="uni01DA" unicode="&#x1da;" horiz-adv-x="520" 
d="M242 727l-105 143v6h30l91 -121l91 121h30v-6l-105 -143h-32zM152.5 675.5c5 5.66699 11.833 8.5 20.5 8.5s15.5 -2.83301 20.5 -8.5s7.5 -13.167 7.5 -22.5c0 -10 -2.5 -17.833 -7.5 -23.5s-11.833 -8.5 -20.5 -8.5s-15.5 2.83301 -20.5 8.5s-7.5 13.167 -7.5 22.5
c0 10 2.5 17.833 7.5 23.5zM320.5 675.5c5 5.66699 11.833 8.5 20.5 8.5s15.5 -2.83301 20.5 -8.5s7.5 -13.167 7.5 -22.5c0 -10 -2.5 -17.833 -7.5 -23.5s-11.833 -8.5 -20.5 -8.5s-15.5 2.83301 -20.5 8.5s-7.5 13.167 -7.5 22.5c0 10 2.5 17.833 7.5 23.5zM426 526v-526
h-33v75c-22 -28.667 -46.833 -50.5 -74.5 -65.5s-57.167 -22.5 -88.5 -22.5c-45.333 0 -80.5 13.5 -105.5 40.5s-37.5 64.833 -37.5 113.5v385h34v-379c0 -42 9.5 -73.833 28.5 -95.5s46.833 -32.5 83.5 -32.5c29.333 0 56.833 7.16699 82.5 21.5s51.167 36.5 76.5 66.5v419
h34z" />
    <glyph glyph-name="uni01DB" unicode="&#x1db;" horiz-adv-x="634" 
d="M223 1035v6h35l79 -131v-6h-29zM212.5 799.5c-5 5.66699 -7.5 13.167 -7.5 22.5c0 10 2.5 17.833 7.5 23.5s11.833 8.5 20.5 8.5s15.5 -2.83301 20.5 -8.5s7.5 -13.167 7.5 -22.5c0 -10 -2.5 -17.833 -7.5 -23.5s-11.833 -8.5 -20.5 -8.5s-15.5 2.83301 -20.5 8.5z
M380.5 799.5c-5 5.66699 -7.5 13.167 -7.5 22.5c0 10 2.5 17.833 7.5 23.5s11.833 8.5 20.5 8.5s15.5 -2.83301 20.5 -8.5s7.5 -13.167 7.5 -22.5c0 -10 -2.5 -17.833 -7.5 -23.5s-11.833 -8.5 -20.5 -8.5s-15.5 2.83301 -20.5 8.5zM151.5 53
c-39 44 -58.5 106.667 -58.5 188v483h35v-481c0 -73.333 15.833 -129 47.5 -167s78.834 -57 141.501 -57c61.333 0 108.166 19.167 140.499 57.5s48.5 93.833 48.5 166.5v481h35v-483c0 -81.333 -19.5 -144 -58.5 -188s-94.167 -66 -165.5 -66s-126.5 22 -165.5 66z" />
    <glyph glyph-name="uni01DC" unicode="&#x1dc;" horiz-adv-x="520" 
d="M248 734l-85 131v6h35l79 -131v-6h-29zM152.5 629.5c-5 5.66699 -7.5 13.167 -7.5 22.5c0 10 2.5 17.833 7.5 23.5s11.833 8.5 20.5 8.5s15.5 -2.83301 20.5 -8.5s7.5 -13.167 7.5 -22.5c0 -10 -2.5 -17.833 -7.5 -23.5s-11.833 -8.5 -20.5 -8.5s-15.5 2.83301 -20.5 8.5
zM320.5 629.5c-5 5.66699 -7.5 13.167 -7.5 22.5c0 10 2.5 17.833 7.5 23.5s11.833 8.5 20.5 8.5s15.5 -2.83301 20.5 -8.5s7.5 -13.167 7.5 -22.5c0 -10 -2.5 -17.833 -7.5 -23.5s-11.833 -8.5 -20.5 -8.5s-15.5 2.83301 -20.5 8.5zM426 526v-526h-33v75
c-22 -28.667 -46.833 -50.5 -74.5 -65.5s-57.167 -22.5 -88.5 -22.5c-45.333 0 -80.5 13.5 -105.5 40.5s-37.5 64.833 -37.5 113.5v385h34v-379c0 -42 9.5 -73.833 28.5 -95.5s46.833 -32.5 83.5 -32.5c29.333 0 56.833 7.16699 82.5 21.5s51.167 36.5 76.5 66.5v419h34z
" />
    <glyph glyph-name="uni01DD" unicode="&#x1dd;" horiz-adv-x="490" 
d="M378.5 466c37 -48 55.501 -115.667 55.501 -203c0 -88 -16.833 -156 -50.5 -204s-81.834 -72 -144.501 -72c-58.667 0 -104.5 22 -137.5 66s-49.5 105.667 -49.5 185c0 8 0.666992 16.667 2 26h345c0 76 -15.5 135.333 -46.5 178s-73.833 64 -128.5 64
c-50 0 -94.667 -15 -134 -45l-14 26c18 16 40 28.5 66 37.5s53 13.5 81 13.5c66.667 0 118.5 -24 155.5 -72zM353.501 73.5c26.333 37 41.168 90.833 44.501 161.5h-312v-9c0 -65.333 13.667 -116.333 41 -153s65.666 -55 114.999 -55c48 0 85.167 18.5 111.5 55.5z" />
    <glyph glyph-name="uni01DE" unicode="&#x1de;" horiz-adv-x="610" 
d="M426 977h-242v30h242v-30zM198.5 868.5c5 5.66699 11.833 8.5 20.5 8.5s15.5 -2.83301 20.5 -8.5s7.5 -13.5 7.5 -23.5s-2.5 -17.833 -7.5 -23.5s-11.833 -8.5 -20.5 -8.5s-15.5 2.83301 -20.5 8.5s-7.5 13.5 -7.5 23.5s2.5 17.833 7.5 23.5zM370.5 868.5
c5 5.66699 11.833 8.5 20.5 8.5s15.5 -2.83301 20.5 -8.5s7.5 -13.5 7.5 -23.5s-2.5 -17.833 -7.5 -23.5s-11.833 -8.5 -20.5 -8.5s-15.5 2.83301 -20.5 8.5s-7.5 13.5 -7.5 23.5s2.5 17.833 7.5 23.5zM467 215h-325l-74 -215h-36l252 724h42l252 -724h-37zM456 247
l-151 441l-152 -441h303z" />
    <glyph glyph-name="uni01DF" unicode="&#x1df;" horiz-adv-x="476" 
d="M346 801h-242v30h242v-30zM120.5 698.5c5 5.66699 11.833 8.5 20.5 8.5s15.5 -2.83301 20.5 -8.5s7.5 -13.5 7.5 -23.5s-2.5 -17.833 -7.5 -23.5s-11.833 -8.5 -20.5 -8.5s-15.5 2.83301 -20.5 8.5s-7.5 13.5 -7.5 23.5s2.5 17.833 7.5 23.5zM288.5 698.5
c5 5.66699 11.833 8.5 20.5 8.5s15.5 -2.83301 20.5 -8.5s7.5 -13.5 7.5 -23.5s-2.5 -17.833 -7.5 -23.5s-11.833 -8.5 -20.5 -8.5s-15.5 2.83301 -20.5 8.5s-7.5 13.5 -7.5 23.5s2.5 17.833 7.5 23.5zM347 498.5c28 -27 42 -64.833 42 -113.5v-385h-33v73
c-44 -56 -98.333 -84 -163 -84c-48 0 -85.333 13.167 -112 39.5s-40 63.166 -40 110.499c0 62 25.5 107.667 76.5 137s130.167 44.333 237.5 45v57c0 42.667 -10.833 74.834 -32.5 96.501s-53.167 32.5 -94.5 32.5c-42 0 -83 -11 -123 -33l-11 30c19.333 11.333 41 20 65 26
s47.333 9 70 9c50.667 0 90 -13.5 118 -40.5zM278 41.5c26 14.333 51.666 36.168 76.999 65.501v185c-95.333 -0.666992 -165.666 -13.334 -210.999 -38.001s-68 -63 -68 -115c0 -37.333 10.333 -66.5 31 -87.5s49.667 -31.5 87 -31.5c30 0 58 7.16699 84 21.5z" />
    <glyph glyph-name="uni01E0" unicode="&#x1e0;" horiz-adv-x="610" 
d="M426 977h-242v30h242v-30zM283.5 869.5c5 5.66699 12.167 8.5 21.5 8.5s16.5 -2.83301 21.5 -8.5s7.5 -13.5 7.5 -23.5c0 -10.667 -2.5 -18.834 -7.5 -24.501s-12.167 -8.5 -21.5 -8.5s-16.5 2.83301 -21.5 8.5s-7.5 13.5 -7.5 23.5c0 10.667 2.5 18.834 7.5 24.501z
M467 215h-325l-74 -215h-36l252 724h42l252 -724h-37zM456 247l-151 441l-152 -441h303z" />
    <glyph glyph-name="uni01E1" unicode="&#x1e1;" horiz-adv-x="476" 
d="M347 498.5c28 -27 42 -64.833 42 -113.5v-385h-33v73c-44 -56 -98.333 -84 -163 -84c-48 0 -85.333 13.167 -112 39.5s-40 63.166 -40 110.499c0 62 25.5 107.667 76.5 137s130.167 44.333 237.5 45v57c0 42.667 -10.833 74.834 -32.5 96.501s-53.167 32.5 -94.5 32.5
c-42 0 -83 -11 -123 -33l-11 30c19.333 11.333 41 20 65 26s47.333 9 70 9c50.667 0 90 -13.5 118 -40.5zM278 41.5c26 14.333 51.666 36.168 76.999 65.501v185c-95.333 -0.666992 -165.666 -13.334 -210.999 -38.001s-68 -63 -68 -115c0 -37.333 10.333 -66.5 31 -87.5
s49.667 -31.5 87 -31.5c30 0 58 7.16699 84 21.5zM203.499 651.502c-5 5.66699 -7.5 13.5 -7.5 23.5c0 10.667 2.5 18.834 7.5 24.501s12.167 8.5 21.5 8.5s16.5 -2.83301 21.5 -8.5s7.5 -13.5 7.5 -23.5c0 -10.667 -2.5 -18.834 -7.5 -24.501s-12.167 -8.5 -21.5 -8.5
s-16.5 2.83301 -21.5 8.5zM103.999 831.002h242v-30h-242v30z" />
    <glyph glyph-name="uni01E2" unicode="&#x1e2;" horiz-adv-x="828" 
d="M557 825h-242v30h242v-30zM782 32v-32h-370v207h-262l-114 -207h-38l398 724h39h335v-32h-323v-305h244v-32h-244v-323h335zM412 239v443l-244 -443h244z" />
    <glyph glyph-name="uni01E3" unicode="&#x1e3;" horiz-adv-x="767" 
d="M713 262l-334.998 0.000976562c0 -76 15 -135.333 45 -178s71.667 -64 125 -64c49.333 0 92.333 15 129 45l14 -26c-17.333 -16 -38.5 -28.5 -63.5 -37.5s-51.167 -13.5 -78.5 -13.5c-40 0 -74.667 9.5 -104 28.5s-52.333 46.5 -69 82.5
c-28.667 -37.333 -58.334 -65 -89.001 -83s-63.667 -27 -99 -27c-46 0 -82 12.833 -108 38.5s-39 61.5 -39 107.5c0 60.667 24.667 105.5 74 134.5s126 43.833 230 44.5v55c0 45.333 -10.333 79.666 -31 102.999s-51 35 -91 35c-39.333 0 -79 -11 -119 -33l-10 30
c19.333 11.333 40.333 20 63 26s45 9 67 9c40.667 0 73.667 -10.333 99 -31s41.666 -49.667 48.999 -87c14 37.333 34.667 66.333 62 87s60.333 31 99 31c57.333 0 102 -22.167 134 -66.5s48 -105.833 48 -184.5c0 -8 -0.666992 -16.667 -2 -26zM422.002 452.501
c-26 -37 -40.333 -90.833 -43 -161.5h302v9c0 65.333 -13.333 116.333 -40 153s-63.667 55 -111 55c-46 0 -82 -18.5 -108 -55.5zM280.002 45.001c27.333 16.667 55.335 44.333 84.002 83c-12.667 40 -19 84.667 -19 134v23
c-92.667 -0.666992 -160.834 -13.167 -204.501 -37.5s-65.5 -61.833 -65.5 -112.5c0 -36 10 -64.167 30 -84.5s48 -30.5 84 -30.5c33.333 0 63.666 8.33301 90.999 25zM272.004 685h242v-30h-242v30z" />
    <glyph glyph-name="uni01E4" unicode="&#x1e4;" horiz-adv-x="615" 
d="M607 189l-66.999 -0.00390625v-154c-26 -15.333 -55.333 -27.166 -88 -35.499s-65.334 -12.5 -98.001 -12.5c-92 0 -163.333 32.833 -214 98.5s-76 157.834 -76 276.501s25.333 210.834 76 276.501s122 98.5 214 98.5c30.667 0 61 -3.83301 91 -11.5
s56.333 -18.5 79 -32.5l-13 -28c-49.333 26 -102 39 -158 39c-82 0 -144.667 -29.167 -188 -87.5s-65 -143.166 -65 -254.499s21.667 -196.333 65 -255s106.333 -88 189 -88c50.667 0 101 10.667 151 32v138h-135v30h135v105h-135v32h170v-137h67v-30z" />
    </font>
</defs>
</svg>
