<?xml version="1.0" standalone="no"?>
<!DOCTYPE svg PUBLIC "-//W3C//DTD SVG 1.1//EN" "http://www.w3.org/Graphics/SVG/1.1/DTD/svg11.dtd" >
<svg>
<metadata>
Created by FontForge 20090914 at Tue Jan 24 02:49:56 2017
 By www-data
Copyright 2015 Samsung Electronics Co., Ltd. All Rights Reserved.
</metadata>
<defs>
<font id="SamsungOne-600C" horiz-adv-x="0" >
  <font-face 
    font-family="SamsungOne 600C"
    font-weight="600"
    font-stretch="condensed"
    units-per-em="1024"
    panose-1="2 11 7 6 3 3 3 2 2 4"
    ascent="794"
    descent="-230"
    x-height="539"
    cap-height="724"
    bbox="-643 -304 2344 1047"
    underline-thickness="31"
    underline-position="-107"
    unicode-range="U+0002-U+1F16B"
  />
<missing-glyph horiz-adv-x="648" 
d="M565 0h-84h-352h-46v724h83h399v-724zM481 648h-281l281 -498v498zM166 76h282l-282 498v-498z" />
    <glyph glyph-name="fi" unicode="fi" horiz-adv-x="580" 
d="M87 460h-83v79h83v63c0 56 16.667 99.5 50 130.5s80 46.5 140 46.5c17.333 0 33.333 -1.66699 48 -5v-81c-18 2 -34 3 -48 3c-64 0 -96 -31.333 -96 -94v-63h126v-79h-126v-460h-94v460zM405 539h94v-539h-94v539zM408.5 642c-10.333 10.667 -15.5 25.667 -15.5 45
s5.16699 34.5 15.5 45.5s24.833 16.5 43.5 16.5s33.167 -5.33301 43.5 -16s15.5 -25.667 15.5 -45s-5.16699 -34.5 -15.5 -45.5s-24.833 -16.5 -43.5 -16.5s-33.167 5.33301 -43.5 16z" />
    <glyph glyph-name="fl" unicode="fl" horiz-adv-x="614" 
d="M87 460h-83v79h83v63c0 56 16.667 99.5 50 130.5s80 46.5 140 46.5c17.333 0 33.333 -1.66699 48 -5v-81c-18 2 -34 3 -48 3c-64 0 -96 -31.333 -96 -94v-63h126v-79h-126v-460h-94v460zM432 26c-20.667 20.667 -31.002 50.667 -31.002 90v654h94v-641
c0 -18 3.83301 -31 11.5 -39s19.834 -12 36.501 -12c10.667 0 22.334 1 35.001 3l7 -78c-21.333 -5.33301 -43 -8 -65 -8c-38 0 -67.333 10.333 -88 31z" />
    <glyph glyph-name=".notdef" horiz-adv-x="648" 
d="M565 0h-84h-352h-46v724h83h399v-724zM481 648h-281l281 -498v498zM166 76h282l-282 498v-498z" />
    <glyph glyph-name="uni0000" 
 />
    <glyph glyph-name="uni0002" 
 />
    <glyph glyph-name="uni0008" horiz-adv-x="260" 
 />
    <glyph glyph-name="uni0009" unicode="&#x9;" horiz-adv-x="512" 
 />
    <glyph glyph-name="nonmarkingreturn" unicode="&#xd;" 
 />
    <glyph glyph-name="uni001D" horiz-adv-x="194" 
 />
    <glyph glyph-name="space" unicode=" " horiz-adv-x="194" 
 />
    <glyph glyph-name="exclam" unicode="!" horiz-adv-x="332" 
d="M110 724h108l-16 -520h-74zM120 5c-11.333 11.333 -17 26.999 -17 46.999c0 20.667 5.66699 36.5 17 47.5s26.666 16.5 45.999 16.5c20 0 35.5 -5.66699 46.5 -17s16.5 -26.666 16.5 -45.999c0 -20.667 -5.5 -36.667 -16.5 -48s-26.5 -17 -46.5 -17
c-19.333 0 -34.666 5.66699 -45.999 17z" />
    <glyph glyph-name="quotedbl" unicode="&#x22;" horiz-adv-x="353" 
d="M204 724h92l-18 -246h-55zM56 724h92l-18 -246h-55z" />
    <glyph glyph-name="numbersign" unicode="#" horiz-adv-x="623" 
d="M464 457l-28 -190h120v-68h-131l-30 -199h-75l30 199h-126l-30 -199h-74l30 199h-124v68h134l29 190h-124v68h134l30 199h75l-30 -199h126l30 199h75l-30 -199h122v-68h-133zM390 457h-126l-29 -190h126z" />
    <glyph glyph-name="dollar" unicode="$" horiz-adv-x="515" 
d="M421 73.5c-30.667 -35 -73.9971 -56.166 -129.997 -63.499v-99h-70v97c-32.667 2 -64.834 7.83301 -96.501 17.5s-60.167 22.167 -85.5 37.5l30 74c50.667 -30 101.667 -46.333 153 -49v239l-19 6c-54 15.333 -93.5 37.666 -118.5 66.999s-37.5 69 -37.5 119
c0 56.667 15.167 102 45.5 136s73.166 54 128.499 60v94h70v-94c51.333 -4 103.666 -17.333 156.999 -40l-29 -74c-45.333 18.667 -88 30 -128 34l-1 -230l20 -6c54.667 -16 94.5 -38.667 119.5 -68s37.5 -69 37.5 -119c0 -57.333 -15.333 -103.5 -46 -138.5z
M156.503 464.501c13 -17 34.833 -30.5 65.5 -40.5v211c-29.333 -4 -50.833 -14.333 -64.5 -31s-20.5 -40 -20.5 -70c0 -29.333 6.5 -52.5 19.5 -69.5zM355.503 124.501c13.667 17.667 20.5 42.166 20.5 73.499c0 29.333 -6.66699 52.5 -20 69.5s-35.333 30.167 -66 39.5
l1 -216c29.333 4.66699 50.833 15.834 64.5 33.501z" />
    <glyph glyph-name="percent" unicode="%" horiz-adv-x="875" 
d="M86.5 351.5c-24.333 37 -36.5 91.833 -36.5 164.5s12.167 127.5 36.5 164.5s60.833 55.5 109.5 55.5s85.167 -18.5 109.5 -55.5s36.5 -91.833 36.5 -164.5s-12.167 -127.5 -36.5 -164.5s-60.833 -55.5 -109.5 -55.5s-85.167 18.5 -109.5 55.5zM568 724h85l-346 -724h-85z
M244.5 400c10.333 24.667 15.5 63.334 15.5 116.001s-5.16699 91.334 -15.5 116.001s-26.5 37 -48.5 37s-38.167 -12.333 -48.5 -37s-15.5 -63.334 -15.5 -116.001s5.16699 -91.334 15.5 -116.001s26.5 -37 48.5 -37s38.167 12.333 48.5 37zM569.5 43.5
c-24.333 37 -36.5 91.833 -36.5 164.5s12.167 127.5 36.5 164.5s60.833 55.5 109.5 55.5s85.167 -18.5 109.5 -55.5s36.5 -91.833 36.5 -164.5s-12.167 -127.5 -36.5 -164.5s-60.833 -55.5 -109.5 -55.5s-85.167 18.5 -109.5 55.5zM727.5 92
c10.333 24.667 15.5 63.334 15.5 116.001s-5.16699 91.334 -15.5 116.001s-26.5 37 -48.5 37s-38.167 -12.333 -48.5 -37s-15.5 -63.334 -15.5 -116.001s5.16699 -91.334 15.5 -116.001s26.5 -37 48.5 -37s38.167 12.333 48.5 37z" />
    <glyph glyph-name="ampersand" unicode="&#x26;" horiz-adv-x="608" 
d="M519 -13l-79.0029 96.002c-25.333 -32 -54.166 -55.833 -86.499 -71.5s-69.166 -23.5 -110.499 -23.5c-60 0 -106.833 15.667 -140.5 47s-50.5 75.333 -50.5 132c0 34 6.83301 64 20.5 90s36.167 51.667 67.5 77l56 46l-27 34c-25.333 32 -43.166 59.833 -53.499 83.5
s-15.5 49.167 -15.5 76.5c0 51.333 16 91.166 48 119.499s76.333 42.5 133 42.5s100.5 -13.833 131.5 -41.5s46.5 -66.834 46.5 -117.501c0 -32.667 -8 -62 -24 -88s-44.667 -56.333 -86 -91l-33 -26l113 -138l59 137h93l-81 -183l-12 -27l97 -119zM263.997 436.002
l36.001 28.999c27.333 23.333 45.833 42.333 55.5 57s14.5 31.334 14.5 50.001c0 26.667 -7.5 47 -22.5 61s-37.167 21 -66.5 21c-28.667 0 -50.334 -7 -65.001 -21s-22 -34.667 -22 -62c0 -18.667 3.83301 -36 11.5 -52s22.167 -37.333 43.5 -64zM385.998 149.001l-137 167
l-37 -30c-22.667 -18.667 -38.5 -36.167 -47.5 -52.5s-13.5 -35.833 -13.5 -58.5c0 -68 33.333 -102 100 -102c54.667 0 99.667 25.333 135 76z" />
    <glyph glyph-name="quotesingle" unicode="'" horiz-adv-x="204" 
d="M56 724h92l-18 -246h-55z" />
    <glyph glyph-name="parenleft" unicode="(" horiz-adv-x="307" 
d="M88.5 101.5c-25.667 79.667 -38.5 159.5 -38.5 239.5c0 80.667 12.833 161 38.5 241s61.834 151.667 108.501 215l66 -49c-80 -110 -120 -245.333 -120 -406s40 -296 120 -406l-66 -49c-46.667 63.333 -82.834 134.833 -108.501 214.5z" />
    <glyph glyph-name="parenright" unicode=")" horiz-adv-x="307" 
d="M44 -64c80 110 120 245.333 120 406s-40 296 -120 406l67 49c46 -63.333 81.833 -135 107.5 -215s38.5 -160.333 38.5 -241c0 -80 -12.833 -159.833 -38.5 -239.5s-61.5 -151.167 -107.5 -214.5z" />
    <glyph glyph-name="asterisk" unicode="*" horiz-adv-x="499" 
d="M299 497l102 -128l-64 -49l-87 136l-88 -136l-64 49l102 128l-147 39l25 78l140 -54l-9 164h81l-9 -164l139 54l26 -78z" />
    <glyph glyph-name="plus" unicode="+" horiz-adv-x="538" 
d="M492 326h-179v-206h-88v206h-179v85h179v206h88v-206h179v-85z" />
    <glyph glyph-name="comma" unicode="," horiz-adv-x="222" 
d="M1 -136c25.333 28 43.333 55.502 54 82.502s16 58.5 16 94.5c0 21.333 -1.66699 43.666 -5 66.999h95c2.66699 -26.667 4 -48.334 4 -65.001c0 -44.667 -9.66699 -85 -29 -121s-50.333 -70.333 -93 -103z" />
    <glyph glyph-name="hyphen" unicode="-" horiz-adv-x="375" 
d="M42 337h291v-77h-291v77z" />
    <glyph glyph-name="period" unicode="." horiz-adv-x="239" 
d="M73 5c-11.333 11.333 -17 26.999 -17 46.999c0 20.667 5.66699 36.5 17 47.5s26.666 16.5 45.999 16.5c20 0 35.667 -5.66699 47 -17s17 -26.666 17 -45.999c0 -20.667 -5.66699 -36.667 -17 -48s-27 -17 -47 -17c-19.333 0 -34.666 5.66699 -45.999 17z" />
    <glyph glyph-name="slash" unicode="/" horiz-adv-x="406" 
d="M316 742h79l-302 -828h-79z" />
    <glyph glyph-name="zero" unicode="0" horiz-adv-x="581" 
d="M117 79c-38 60.667 -57 155 -57 283s19 222.333 57 283s95.667 91 173 91c78 0 136 -30.333 174 -91s57 -155 57 -283s-19 -222.333 -57 -283s-95.667 -91 -173 -91c-78 0 -136 30.333 -174 91zM391 142c21.333 46.667 32 120 32 220s-10.667 173.333 -32 220
s-55 70 -101 70c-45.333 0 -78.666 -23.333 -99.999 -70s-32 -120 -32 -220s10.667 -173.333 32 -220s55 -70 101 -70c45.333 0 78.666 23.333 99.999 70z" />
    <glyph glyph-name="one" unicode="1" horiz-adv-x="418" 
d="M299 724v-724h-95v623l-153 -56l-26 77l191 80h83z" />
    <glyph glyph-name="two" unicode="2" horiz-adv-x="493" 
d="M442 82v-82.0029h-411v82l233 300c28.667 36.667 48.5 66.334 59.5 89.001s16.5 45.334 16.5 68.001c0 33.333 -10.333 60 -31 80s-48.334 30 -83.001 30c-25.333 0 -51.833 -4.83301 -79.5 -14.5s-53.167 -23.167 -76.5 -40.5l-43 73
c26 20.667 57.833 37.334 95.5 50.001s74.834 19 111.501 19c60.667 0 109.5 -17.167 146.5 -51.5s55.5 -79.833 55.5 -136.5c0 -33.333 -7.83301 -66.833 -23.5 -100.5s-41.5 -73.5 -77.5 -119.5l-195 -246h302z" />
    <glyph glyph-name="three" unicode="3" horiz-adv-x="521" 
d="M409 375c34 -39.333 51 -90 51 -152c0 -46.667 -9.66699 -87.667 -29 -123s-46.5 -62.833 -81.5 -82.5s-75.5 -29.5 -121.5 -29.5c-35.333 0 -71.333 5.5 -108 16.5s-67.667 25.5 -93 43.5l36 78c27.333 -16 55.333 -28.5 84 -37.5s55.667 -13.5 81 -13.5
c42 0 74.833 13.167 98.5 39.5s35.5 62.5 35.5 108.5c0 43.333 -11.333 77.5 -34 102.5s-54 37.5 -94 37.5c-22 0 -43 -2.66699 -63 -8l-35 45l200 242h-295v82h398v-82l-167 -201c57.333 -4.66699 103 -26.667 137 -66z" />
    <glyph glyph-name="four" unicode="4" horiz-adv-x="537" 
d="M496 234v-81h-84v-153h-92v153h-299v81l256 490h135v-490h84zM320 234v406l-201 -406h201z" />
    <glyph glyph-name="five" unicode="5" horiz-adv-x="513" 
d="M358.5 431c31.667 -18.667 56.001 -45.3311 73.001 -79.998s25.5 -75 25.5 -121c0 -48 -9.66699 -90.333 -29 -127s-46.833 -65 -82.5 -85s-76.834 -30 -123.501 -30c-34 0 -68.167 5.16699 -102.5 15.5s-62.833 23.833 -85.5 40.5l36 78
c24.667 -14.667 50.167 -26.167 76.5 -34.5s51.5 -12.5 75.5 -12.5c43.333 0 77 13.667 101 41s36 64.666 36 111.999c0 45.333 -11.167 81 -33.5 107s-53.5 39 -93.5 39c-19.333 0 -38.833 -2.83301 -58.5 -8.5s-37.5 -13.834 -53.5 -24.501l-56 30l19 353h345v-82h-261
l-14 -201c30.667 12 62.667 18 96 18c41.333 0 77.833 -9.33301 109.5 -28z" />
    <glyph glyph-name="six" unicode="6" horiz-adv-x="528" 
d="M396 426c30.667 -18.667 54.332 -45.3311 70.999 -79.998s25 -74.667 25 -120c0 -47.333 -9.16699 -89 -27.5 -125s-44.333 -63.833 -78 -83.5s-72.5 -29.5 -116.5 -29.5c-44.667 0 -84.167 10.167 -118.5 30.5s-60.833 49.166 -79.5 86.499s-28 80.333 -28 129
c0 52.667 9.5 102.667 28.5 150s51.167 100.666 96.5 159.999l143 192l76 -57l-146 -186c-16.667 -22 -30 -40.667 -40 -56c24.667 11.333 53.667 17 87 17c40.667 0 76.334 -9.33301 107.001 -28zM361.998 111.003c22 27.333 32.999 64.667 32.999 112
c0 48.667 -11.667 86.834 -35 114.501s-55.666 41.5 -96.999 41.5c-32.667 0 -65 -8 -97 -24c-16.667 -34.667 -25 -74.334 -25 -119.001c0 -51.333 11.5 -91.833 34.5 -121.5s54.833 -44.5 95.5 -44.5c38.667 0 69 13.667 91 41z" />
    <glyph glyph-name="seven" unicode="7" horiz-adv-x="455" 
d="M429 724v-82l-267 -651l-88 37l258 614h-322v82h419z" />
    <glyph glyph-name="eight" unicode="8" horiz-adv-x="548" 
d="M153 12.5c-34.667 16.333 -61.499 39.3379 -80.499 69.0049s-28.5 63.834 -28.5 102.501c0 41.333 13.167 79.666 39.5 114.999s60.833 61.333 103.5 78c-34.667 13.333 -62.5 36.166 -83.5 68.499s-31.5 68.166 -31.5 107.499c0 55.333 18.5 99.666 55.5 132.999
s85.833 50 146.5 50s109.5 -16.833 146.5 -50.5s55.5 -77.834 55.5 -132.501c0 -39.333 -10.5 -74.833 -31.5 -106.5s-49.167 -53.834 -84.5 -66.501c43.333 -13.333 78.166 -37.5 104.499 -72.5s39.5 -74.5 39.5 -118.5c0 -40 -9.5 -75.167 -28.5 -105.5
s-45.833 -53.833 -80.5 -70.5s-75 -25 -121 -25s-86.333 8.16699 -121 24.5zM353.001 464.505c18 23.667 27.001 50.167 27.001 79.5c0 34.667 -9.33301 62 -28 82s-44.667 30 -78 30c-32.667 0 -58.5 -9.83301 -77.5 -29.5s-28.5 -46.834 -28.5 -81.501
c0 -30.667 9.66699 -57.667 29 -81s46.666 -40.666 81.999 -51.999c31.333 11.333 56 28.833 74 52.5zM372.002 101.505c24 21.667 35.999 51.834 35.999 90.501c0 32 -12.167 61.5 -36.5 88.5s-58.166 48.5 -101.499 64.5c-40.667 -15.333 -72.5 -36.333 -95.5 -63
s-34.5 -56.334 -34.5 -89.001c0 -38.667 11.833 -69 35.5 -91s56.5 -33 98.5 -33c41.333 0 74 10.833 98 32.5z" />
    <glyph glyph-name="nine" unicode="9" horiz-adv-x="528" 
d="M376.5 705.5c34.333 -20.333 60.834 -49.168 79.501 -86.501s28 -80.333 28 -129c0 -52.667 -9.5 -102.667 -28.5 -150s-51.167 -100.666 -96.5 -159.999l-143 -192l-76 57l146 186c14.667 19.333 28 37.666 40 54.999c-25.333 -10.667 -54 -16 -86 -16
c-40.667 0 -76.334 9.33301 -107.001 28s-54.5 45.334 -71.5 80.001s-25.5 74.667 -25.5 120c0 47.333 9.16699 89 27.5 125s44.333 63.833 78 83.5s72.5 29.5 116.5 29.5c44.667 0 84.167 -10.167 118.5 -30.5zM168.001 386.498c23.333 -27.667 55.667 -41.5 97 -41.5
c34.667 0 67 8 97 24c16.667 35.333 25 75 25 119c0 51.333 -11.5 91.833 -34.5 121.5s-54.5 44.5 -94.5 44.5c-38.667 0 -69.167 -13.667 -91.5 -41s-33.5 -64.666 -33.5 -111.999c0 -48.667 11.667 -86.834 35 -114.501z" />
    <glyph glyph-name="colon" unicode=":" horiz-adv-x="279" 
d="M93 346c-11.333 11.333 -17 26.999 -17 46.999c0 20.667 5.66699 36.5 17 47.5s26.666 16.5 45.999 16.5c20 0 35.667 -5.66699 47 -17s17 -26.666 17 -45.999c0 -20.667 -5.66699 -36.667 -17 -48s-27 -17 -47 -17c-19.333 0 -34.666 5.66699 -45.999 17zM93 4.99902
c-11.333 11.333 -17 26.999 -17 46.999c0 20.667 5.66699 36.5 17 47.5s26.666 16.5 45.999 16.5c20 0 35.667 -5.66699 47 -17s17 -26.666 17 -45.999c0 -20.667 -5.66699 -36.667 -17 -48s-27 -17 -47 -17c-19.333 0 -34.666 5.66699 -45.999 17z" />
    <glyph glyph-name="semicolon" unicode=";" horiz-adv-x="279" 
d="M93 346c-11.333 11.333 -17 26.999 -17 46.999c0 20.667 5.66699 36.5 17 47.5s26.666 16.5 45.999 16.5c20 0 35.667 -5.66699 47 -17s17 -26.666 17 -45.999c0 -20.667 -5.66699 -36.667 -17 -48s-27 -17 -47 -17c-19.333 0 -34.666 5.66699 -45.999 17zM28 -136.001
c25.333 28 43.333 55.502 54 82.502s16 58.5 16 94.5c0 21.333 -1.66699 43.666 -5 66.999h95c2.66699 -26.667 4 -48.334 4 -65.001c0 -44.667 -9.66699 -85 -29 -121s-50.333 -70.333 -93 -103z" />
    <glyph glyph-name="less" unicode="&#x3c;" horiz-adv-x="392" 
d="M36 365l251 298l69 -61l-202 -237l202 -237l-69 -61z" />
    <glyph glyph-name="equal" unicode="=" horiz-adv-x="538" 
d="M68 524h402v-86h-402v86zM68 292h402v-86h-402v86z" />
    <glyph glyph-name="greater" unicode="&#x3e;" horiz-adv-x="392" 
d="M36 128l202 237l-202 237l69 61l251 -298l-251 -298z" />
    <glyph glyph-name="question" unicode="?" horiz-adv-x="479" 
d="M164 261c0 28.667 4.16602 53.5029 12.499 74.5029s19.333 39.167 33 54.5s32.167 33 55.5 53c24 21.333 40.5 39.666 49.5 54.999s13.5 33.333 13.5 54c0 63.333 -33 95 -99 95c-49.333 0 -99.333 -17 -150 -51l-38 78c24.667 19.333 54 34.5 88 45.5s69 16.5 105 16.5
c60.667 0 108.167 -15.833 142.5 -47.5s51.5 -75.834 51.5 -132.501c0 -32.667 -6.83301 -61.167 -20.5 -85.5s-38.5 -51.5 -74.5 -81.5c-22 -18.667 -37.667 -32.834 -47 -42.501s-17.166 -21.667 -23.499 -36s-9.5 -31.833 -9.5 -52.5c0 -12.667 1 -30.667 3 -54h-89
c-2 25.333 -3 44.333 -3 57zM167.499 5.00293c-11 11.333 -16.5 26.999 -16.5 46.999c0 20.667 5.5 36.5 16.5 47.5s26.5 16.5 46.5 16.5c19.333 0 34.666 -5.66699 45.999 -17s17 -26.666 17 -45.999c0 -20.667 -5.66699 -36.667 -17 -48s-26.666 -17 -45.999 -17
c-20 0 -35.5 5.66699 -46.5 17z" />
    <glyph glyph-name="at" unicode="@" horiz-adv-x="758" 
d="M456 536c19.333 -6 36 -14.332 50 -24.999v-201c0 -20 4 -35.5 12 -46.5s19 -16.5 33 -16.5c24.667 0 43.834 12.833 57.501 38.5s20.5 61.834 20.5 108.501c0 86.667 -21.5 154.167 -64.5 202.5s-103.167 72.5 -180.5 72.5s-137.5 -26.833 -180.5 -80.5
s-64.5 -129.167 -64.5 -226.5c0 -98 22.333 -174 67 -228s107.334 -81 188.001 -81c53.333 0 101 12 143 36l27 -60c-21.333 -14 -46.833 -25 -76.5 -33s-60.834 -12 -93.501 -12c-66 0 -124 15.667 -174 47s-88.833 75.666 -116.5 132.999s-41.5 123.333 -41.5 198
s13.333 140.667 40 198s64.334 101.666 113.001 132.999s105 47 169 47c63.333 0 118.833 -14.333 166.5 -43s84.667 -69.167 111 -121.5s39.5 -112.833 39.5 -181.5c0 -62.667 -13.167 -113 -39.5 -151s-60.833 -57 -103.5 -57c-16.667 0 -31.834 3.33301 -45.501 10
s-24.5 16.334 -32.5 29.001c-22.667 -30.667 -54.667 -46 -96 -46c-44.667 0 -79.334 16.167 -104.001 48.5s-37 77.166 -37 134.499c0 58 13.5 103 40.5 135s64.833 48 113.5 48c20 0 39.667 -3 59 -9zM438 471.001c-14.667 6 -29.333 9 -44 9
c-53.333 0 -80 -39.333 -80 -118s26.333 -118 79 -118c15.333 0 30.333 4.33301 45 13v214z" />
    <glyph glyph-name="A" unicode="A" horiz-adv-x="634" 
d="M449 183h-266l-55 -183h-102l237 724h107l237 -724h-103zM424 267l-109 364l-108 -364h217z" />
    <glyph glyph-name="B" unicode="B" horiz-adv-x="604" 
d="M562 209c0 -66 -18.832 -117.334 -56.499 -154.001s-90.167 -55 -157.5 -55h-209h-56v724h96h137c65.333 0 116.166 -17.667 152.499 -53s54.5 -84.666 54.5 -147.999c0 -74.667 -31.667 -121.667 -95 -141c89.333 -23.333 134 -81 134 -173zM179.001 638.999
l0.000976562 -226h137c35.333 0 62.166 9.16699 80.499 27.5s27.5 45.5 27.5 81.5c0 78 -37.667 117 -113 117h-132zM462.002 207.999c0 40.667 -9.66797 71.333 -29.001 92s-47.666 31 -84.999 31h-169v-246h175c72 0 108 41 108 123z" />
    <glyph glyph-name="C" unicode="C" horiz-adv-x="561" 
d="M123 83.5c-54 63 -81 151.167 -81 264.5c0 78.667 12.333 147.167 37 205.5s59.834 103.333 105.501 135s99.167 47.5 160.5 47.5c32 0 63.667 -4.5 95 -13.5s59.333 -21.5 84 -37.5l-32 -75c-52 26 -101.333 39 -148 39c-64 0 -113.667 -25.667 -149 -77
s-53 -123.333 -53 -216c0 -92 18 -161.5 54 -208.5s89.333 -70.5 160 -70.5c51.333 0 98.333 11.667 141 35l33 -73c-20.667 -15.333 -46.834 -27.5 -78.501 -36.5s-65.5 -13.5 -101.5 -13.5c-97.333 0 -173 31.5 -227 94.5z" />
    <glyph glyph-name="D" unicode="D" horiz-adv-x="647" 
d="M514 632.5c53.333 -61 80.001 -151.167 80.001 -270.5s-26.833 -209.5 -80.5 -270.5s-131.5 -91.5 -233.5 -91.5h-197v724h199c101.333 0 178.666 -30.5 231.999 -91.5zM440.501 154.5c35.667 46.333 53.499 115.5 53.499 207.5c0 91.333 -18 160.333 -54 207
s-89.667 70 -161 70h-100v-554h102c70.667 0 123.834 23.167 159.501 69.5z" />
    <glyph glyph-name="E" unicode="E" horiz-adv-x="538" 
d="M504 85v-85h-421v724h408v-85h-312v-226h231v-85h-231v-243h325z" />
    <glyph glyph-name="F" unicode="F" horiz-adv-x="500" 
d="M179 639v-241h249v-86h-249v-312h-96v724h401v-85h-305z" />
    <glyph glyph-name="G" unicode="G" horiz-adv-x="624" 
d="M561 391v-351.001c-24.667 -16.667 -54.334 -29.5 -89.001 -38.5s-70.667 -13.5 -108 -13.5c-65.333 0 -121.333 14.833 -168 44.5s-82.334 72.5 -107.001 128.5s-37 123 -37 201s12.333 145 37 201s60.334 98.833 107.001 128.5s102.667 44.5 168 44.5
c36 0 70.333 -4.5 103 -13.5s59.667 -21.167 81 -36.5l-28 -77c-52.667 27.333 -105.334 41 -158.001 41c-69.333 0 -121.666 -24.167 -156.999 -72.5s-53 -120.166 -53 -215.499s17.833 -167.333 53.5 -216s88.5 -73 158.5 -73c34.667 0 68.334 5.33301 101.001 16v217
h-119v85h215z" />
    <glyph glyph-name="H" unicode="H" horiz-adv-x="658" 
d="M575 724v-724h-96v326h-300v-326h-96v724h96v-314h300v314h96z" />
    <glyph glyph-name="I" unicode="I" horiz-adv-x="266" 
d="M85 724h96v-724h-96v724z" />
    <glyph glyph-name="J" unicode="J" horiz-adv-x="428" 
d="M68.5 1c-26.333 8.66699 -48.5 20.668 -66.5 36.001l34 74c39.333 -24.667 78 -37 116 -37c68 0 102 34.667 102 104v546h96v-550c0 -58.667 -17.167 -104.334 -51.5 -137.001s-82.5 -49 -144.5 -49c-30.667 0 -59.167 4.33301 -85.5 13z" />
    <glyph glyph-name="K" unicode="K" horiz-adv-x="586" 
d="M261 321l-82 -105v-216h-96v724h96v-381l278 381h117l-252 -324l267 -400h-117z" />
    <glyph glyph-name="L" unicode="L" horiz-adv-x="491" 
d="M470 86v-86h-387v724h96v-638h291z" />
    <glyph glyph-name="M" unicode="M" horiz-adv-x="796" 
d="M713 724v-724h-93v565l-172 -418h-101l-173 418v-565h-91v724h114l202 -489l199 489h115z" />
    <glyph glyph-name="N" unicode="N" horiz-adv-x="678" 
d="M595 724v-724h-91l-327 554v-554h-94v724h91l327 -554v554h94z" />
    <glyph glyph-name="O" unicode="O" horiz-adv-x="666" 
d="M124.5 83c-48.333 63.333 -72.5 156.333 -72.5 279s24.167 215.667 72.5 279s117.833 95 208.5 95s160 -31.5 208 -94.5s72 -156.167 72 -279.5s-24 -216.5 -72 -279.5s-117.333 -94.5 -208 -94.5s-160.167 31.667 -208.5 95zM467.5 146
c30.333 48.667 45.5 120.667 45.5 216s-15.167 167.333 -45.5 216s-75.166 73 -134.499 73s-104.333 -24.333 -135 -73s-46 -120.667 -46 -216s15.333 -167.333 46 -216s75.667 -73 135 -73s104.166 24.333 134.499 73z" />
    <glyph glyph-name="P" unicode="P" horiz-adv-x="557" 
d="M485 662c38.667 -41.333 57.999 -99.332 57.999 -173.999s-19.667 -132.834 -59 -174.501s-94 -62.5 -164 -62.5h-141v-251h-96v724h96h145c68.667 0 122.334 -20.667 161.001 -62zM412.999 374.001c20 25.333 30.001 62.666 30.001 111.999
c0 50.667 -10.333 88.834 -31 114.501s-51.334 38.5 -92.001 38.5h-141v-303h145c39.333 0 69 12.667 89 38z" />
    <glyph glyph-name="Q" unicode="Q" horiz-adv-x="666" 
d="M560 -155l-128 159c-28 -10.667 -61 -16 -99 -16c-90.667 0 -160.167 31.667 -208.5 95s-72.5 156.333 -72.5 279s24.167 215.667 72.5 279s117.833 95 208.5 95s160 -31.5 208 -94.5s72 -156.167 72 -279.5c0 -150 -35.667 -255.667 -107 -317l121 -138zM198 146
c30.667 -48.667 75.667 -73 135 -73s104.166 24.333 134.499 73s45.5 120.667 45.5 216s-15.167 167.333 -45.5 216s-75.166 73 -134.499 73s-104.333 -24.333 -135 -73s-46 -120.667 -46 -216s15.333 -167.333 46 -216z" />
    <glyph glyph-name="R" unicode="R" horiz-adv-x="593" 
d="M290 271l-111.001 -0.000976562v-271h-96v724h96h136c68.667 0 122 -20 160 -60s57 -95.667 57 -167c0 -56 -12.167 -102.667 -36.5 -140s-59.166 -62.666 -104.499 -75.999l176 -281h-116zM178.999 353.999h135.999c38.667 0 67.834 12 87.501 36s29.5 59.333 29.5 106
c0 96 -40 144 -120 144h-133v-286z" />
    <glyph glyph-name="S" unicode="S" horiz-adv-x="525" 
d="M136 5c-38 10.667 -72 25.334 -102 44.001l32 78c64 -36 125.333 -54 184 -54c44 0 77.833 10 101.5 30s35.5 48.667 35.5 86c0 31.333 -7.83301 56.5 -23.5 75.5s-40.5 33.167 -74.5 42.5l-82 23c-57.333 16 -99.166 39.833 -125.499 71.5s-39.5 73.834 -39.5 126.501
c0 63.333 19.833 113.666 59.5 150.999s93.5 56 161.5 56c31.333 0 64.5 -4 99.5 -12s68.5 -19.333 100.5 -34l-31 -78c-68.667 26.667 -125.667 40 -171 40c-39.333 0 -69.833 -9.33301 -91.5 -28s-32.5 -45.334 -32.5 -80.001c0 -31.333 7.83301 -56.333 23.5 -75
s40.5 -32.667 74.5 -42l82 -23c57.333 -16 99.166 -40 125.499 -72s39.5 -74.333 39.5 -127c0 -66.667 -20.833 -119.167 -62.5 -157.5s-98.167 -57.5 -169.5 -57.5c-38 0 -76 5.33301 -114 16z" />
    <glyph glyph-name="T" unicode="T" horiz-adv-x="490" 
d="M469 638h-176v-638h-96v638h-177v86h273h176v-86z" />
    <glyph glyph-name="U" unicode="U" horiz-adv-x="642" 
d="M141.5 55.5c-42.333 45 -63.502 108.167 -63.502 189.5v479h96v-475c0 -58 12.333 -101.833 37 -131.5s61.334 -44.5 110.001 -44.5s85.334 14.833 110.001 44.5s37 73.5 37 131.5v475h96v-479c0 -81.333 -21.333 -144.5 -64 -189.5s-102.334 -67.5 -179.001 -67.5
c-77.333 0 -137.166 22.5 -179.499 67.5z" />
    <glyph glyph-name="V" unicode="V" horiz-adv-x="602" 
d="M571 724l-217 -724h-107l-217 724h103l169 -620l167 620h102z" />
    <glyph glyph-name="W" unicode="W" horiz-adv-x="850" 
d="M817 724l-168 -724h-107l-119 579l-117 -579h-107l-167 724h101l121 -614l118 613h105l121 -612l120 613h99z" />
    <glyph glyph-name="X" unicode="X" horiz-adv-x="566" 
d="M434 0l-154 289l-150 -289h-109l208 366l-201 358h111l146 -278l149 278h109l-206 -356l208 -368h-111z" />
    <glyph glyph-name="Y" unicode="Y" horiz-adv-x="558" 
d="M535 724l-209 -472v-252h-96v252l-208 472h105l153 -366l151 366h104z" />
    <glyph glyph-name="Z" unicode="Z" horiz-adv-x="513" 
d="M477 84v-84h-443v85l330 555h-321v84h428v-84l-330 -556h336z" />
    <glyph glyph-name="bracketleft" unicode="[" horiz-adv-x="326" 
d="M171 711v-738h135v-73h-223v884h223v-73h-135z" />
    <glyph glyph-name="backslash" unicode="\" horiz-adv-x="406" 
d="M313 -86l-302 828h79l302 -828h-79z" />
    <glyph glyph-name="bracketright" unicode="]" horiz-adv-x="326" 
d="M243 784v-884h-223v73h136v738h-136v73h223z" />
    <glyph glyph-name="asciicircum" unicode="^" horiz-adv-x="404" 
d="M156 724h92l138 -205h-99l-84 143l-85 -143h-100z" />
    <glyph glyph-name="underscore" unicode="_" horiz-adv-x="559" 
d="M83 -70h393v-81h-393v81z" />
    <glyph glyph-name="grave" unicode="`" horiz-adv-x="500" 
d="M123 774v10h101l84 -159v-10h-69z" />
    <glyph glyph-name="a" unicode="a" horiz-adv-x="497" 
d="M376.5 508c33 -28.667 49.5 -68.667 49.5 -120v-388h-83v72c-32.667 -54.667 -83.334 -82 -152.001 -82c-49.333 0 -87.833 14 -115.5 42s-41.5 67.333 -41.5 118c0 63.333 24 110.166 72 140.499s123.667 45.833 227 46.5v41c0 29.333 -9.16699 51.5 -27.5 66.5
s-45.166 22.5 -80.499 22.5c-40 0 -80 -9.66699 -120 -29l-23 74c23.333 12.667 48.5 22.334 75.5 29.001s54.167 10 81.5 10c58.667 0 104.5 -14.333 137.5 -43zM333 130l-0.00195312 139c-71.333 -0.666992 -123.666 -10.167 -156.999 -28.5s-50 -46.5 -50 -84.5
c0 -28 7.33301 -49.167 22 -63.5s36.334 -21.5 65.001 -21.5c45.333 0 85.333 19.667 120 59z" />
    <glyph glyph-name="b" unicode="b" horiz-adv-x="537" 
d="M442.5 476c33 -50 49.498 -119.667 49.498 -209c0 -88 -17.167 -156.5 -51.5 -205.5s-82.166 -73.5 -143.499 -73.5c-28 0 -53.667 6.16699 -77 18.5s-42.666 29.833 -57.999 52.5v-59h-84v68v432v270h94v-287c34 45.333 78.333 68 133 68c58.667 0 104.5 -25 137.5 -75z
M366.498 121c19 32.667 28.5 80.667 28.5 144c0 132 -39.667 198 -119 198c-20 0 -38.333 -4.5 -55 -13.5s-33 -23.167 -49 -42.5v-282c14.667 -16.667 31.667 -29.667 51 -39s39.333 -14 60 -14c36.667 0 64.5 16.333 83.5 49z" />
    <glyph glyph-name="c" unicode="c" horiz-adv-x="447" 
d="M103 62c-40.667 48.667 -61.001 116.667 -61.001 204c0 56.667 9.5 106.5 28.5 149.5s45.667 76.333 80 100s73.833 35.5 118.5 35.5c52.667 0 101.334 -15.333 146.001 -46l-37 -72c-40.667 22 -77.667 33 -111 33c-40.667 0 -72.167 -16.833 -94.5 -50.5
s-33.5 -81.167 -33.5 -142.5c0 -132 47 -198 141 -198c37.333 0 73.333 10.667 108 32l33 -72c-18.667 -14.667 -40.5 -26 -65.5 -34s-52.167 -12 -81.5 -12c-73.333 0 -130.333 24.333 -171 73z" />
    <glyph glyph-name="d" unicode="d" horiz-adv-x="537" 
d="M459 770l-0.000976562 -770h-83v73c-33.333 -56.667 -81 -85 -143 -85c-59.333 0 -105.333 24.833 -138 74.5s-49 119.167 -49 208.5c0 88.667 17 157.5 51 206.5s81.667 73.5 143 73.5c25.333 0 48.833 -5 70.5 -15s39.834 -24.333 54.501 -43v277h94zM316.999 89
c16.667 8.66699 32.666 22.667 47.999 42v283c-14.667 16.667 -31.667 29.667 -51 39s-39 14 -59 14c-36.667 0 -64.5 -16.333 -83.5 -49s-28.5 -81 -28.5 -145c0 -65.333 10 -114.5 30 -147.5s49.333 -49.5 88 -49.5c20.667 0 39.334 4.33301 56.001 13z" />
    <glyph glyph-name="e" unicode="e" horiz-adv-x="505" 
d="M461 242h-322c2.66699 -55.333 16.167 -97.166 40.5 -125.499s58.833 -42.5 103.5 -42.5s86.667 12.667 126 38l34 -71c-22 -16.667 -47.667 -29.5 -77 -38.5s-59.333 -13.5 -90 -13.5c-73.333 0 -130.333 24.5 -171 73.5s-61 117.833 -61 206.5
c0 89.333 18.833 158.666 56.5 207.999s90.5 74 158.5 74c65.333 0 116 -22.667 152 -68s54 -109 54 -191c0 -20 -1.33301 -36.667 -4 -50zM140 312h231c-0.666992 49.333 -11 87.833 -31 115.5s-47.667 41.5 -83 41.5c-70 0 -109 -52.333 -117 -157z" />
    <glyph glyph-name="f" unicode="f" horiz-adv-x="325" 
d="M87 460h-83v79h83v63c0 56 16.667 99.5 50 130.5s80 46.5 140 46.5c17.333 0 33.333 -1.66699 48 -5v-81c-18 2 -34 3 -48 3c-64 0 -96 -31.333 -96 -94v-63h126v-79h-126v-460h-94v460z" />
    <glyph glyph-name="g" unicode="g" horiz-adv-x="540" 
d="M462 539l0.00390625 -542.002c0 -68 -19.5 -121 -58.5 -159s-93.167 -57 -162.5 -57c-28 0 -55.333 3 -82 9s-49.667 14.333 -69 25l28 78c37.333 -19.333 76.666 -29 117.999 -29c43.333 0 76.166 11.167 98.499 33.5s33.5 55.5 33.5 99.5v90
c-32.667 -45.333 -77.334 -68 -134.001 -68c-59.333 0 -105.5 23.333 -138.5 70s-49.5 112.334 -49.5 197.001c0 83.333 17.167 148.333 51.5 195s82.5 70 144.5 70c28.667 0 54.667 -6.16699 78 -18.5s42.666 -30.166 57.999 -53.499v60h84zM368.004 160.998
l-0.00195312 252.001c-15.333 17.333 -32.666 30.666 -51.999 39.999s-39.333 14 -60 14c-37.333 0 -65.5 -15 -84.5 -45s-28.5 -74.667 -28.5 -134c0 -60 10 -105.333 30 -136s49.333 -46 88 -46c40.667 0 76.334 18.333 107.001 55z" />
    <glyph glyph-name="h" unicode="h" horiz-adv-x="547" 
d="M432.5 508c27.667 -28.667 41.5 -68.667 41.5 -120v-388h-94v377c0 57.333 -31 86 -93 86c-42.667 0 -81 -15.667 -115 -47v-416h-94v770h94v-281c40 41.333 88.333 62 145 62c49.333 0 87.833 -14.333 115.5 -43z" />
    <glyph glyph-name="i" unicode="i" horiz-adv-x="255" 
d="M80 539h94v-539h-94v539zM83.5 642c-10.333 10.667 -15.5 25.667 -15.5 45s5.16699 34.5 15.5 45.5s24.833 16.5 43.5 16.5s33.167 -5.33301 43.5 -16s15.5 -25.667 15.5 -45s-5.16699 -34.5 -15.5 -45.5s-24.833 -16.5 -43.5 -16.5s-33.167 5.33301 -43.5 16z" />
    <glyph glyph-name="j" unicode="j" horiz-adv-x="255" 
d="M-49 -143c34.667 12.667 61 26.168 79 40.501s30.833 32.166 38.5 53.499s11.5 49.333 11.5 84v504h94v-505c0 -48.667 -5.83301 -88.167 -17.5 -118.5s-31 -56 -58 -77s-65.833 -40.5 -116.5 -58.5zM83.5 642.001c-10.333 10.667 -15.5 25.667 -15.5 45
s5.16699 34.5 15.5 45.5s24.833 16.5 43.5 16.5s33.167 -5.33301 43.5 -16s15.5 -25.667 15.5 -45s-5.16699 -34.5 -15.5 -45.5s-24.833 -16.5 -43.5 -16.5s-33.167 5.33301 -43.5 16z" />
    <glyph glyph-name="k" unicode="k" horiz-adv-x="504" 
d="M234 239l-62 -75v-164h-94v770h94v-489l200 258h111l-188 -226l199 -313h-111z" />
    <glyph glyph-name="l" unicode="l" horiz-adv-x="289" 
d="M107 26c-20.667 20.667 -31.002 50.667 -31.002 90v654h94v-641c0 -18 3.83301 -31 11.5 -39s19.834 -12 36.501 -12c10.667 0 22.334 1 35.001 3l7 -78c-21.333 -5.33301 -43 -8 -65 -8c-38 0 -67.333 10.333 -88 31z" />
    <glyph glyph-name="m" unicode="m" horiz-adv-x="829" 
d="M716.5 508c26.333 -28.667 39.501 -68.667 39.501 -120v-388h-94v377c0 57.333 -29 86 -87 86c-40 0 -77 -16 -111 -48c0.666992 -6 1 -15 1 -27v-388h-94v377c0 57.333 -29.333 86 -88 86c-20.667 0 -40 -3.83301 -58 -11.5s-35.667 -19.5 -53 -35.5v-416h-94v539h84
v-61c41.333 48.667 92 73 152 73c32.667 0 60.5 -6.83301 83.5 -20.5s40.167 -33.5 51.5 -59.5c44 53.333 96.333 80 157 80c47.333 0 84.166 -14.333 110.499 -43z" />
    <glyph glyph-name="n" unicode="n" horiz-adv-x="545" 
d="M430.5 508c27.667 -28.667 41.498 -68.667 41.498 -120v-388h-94v377c0 57.333 -31 86 -93 86c-21.333 0 -41.166 -3.83301 -59.499 -11.5s-36.166 -19.5 -53.499 -35.5v-416h-94v539h84v-61c41.333 48.667 92.666 73 153.999 73c48.667 0 86.834 -14.333 114.501 -43z
" />
    <glyph glyph-name="o" unicode="o" horiz-adv-x="521" 
d="M101.5 59.5c-37 47.667 -55.5 117.5 -55.5 209.5s18.5 162 55.5 210s90.167 72 159.5 72c68.667 0 121.5 -24 158.5 -72s55.5 -118 55.5 -210s-18.5 -161.833 -55.5 -209.5s-90.167 -71.5 -159.5 -71.5c-68.667 0 -121.5 23.833 -158.5 71.5zM348.5 121
c19.667 33.333 29.5 82.666 29.5 147.999c0 66 -9.83301 115.667 -29.5 149s-48.834 50 -87.501 50c-78.667 0 -118 -66.333 -118 -199c0 -65.333 9.83301 -114.666 29.5 -147.999s48.834 -50 87.501 -50c39.333 0 68.833 16.667 88.5 50z" />
    <glyph glyph-name="p" unicode="p" horiz-adv-x="537" 
d="M442.5 476c33 -50 49.4961 -119.667 49.4961 -209c0 -88 -17.167 -156.5 -51.5 -205.5s-82.166 -73.5 -143.499 -73.5c-25.333 0 -48.666 5 -69.999 15s-39.666 24.333 -54.999 43v-253h-94v275v432v39h84v-39v-33c34.667 56 82.334 84 143.001 84
c58.667 0 104.5 -25 137.5 -75zM366.496 121c19 32.667 28.5 80.667 28.5 144c0 132 -39.667 198 -119 198c-20 0 -38.333 -4.5 -55 -13.5s-33 -23.167 -49 -42.5v-282c14.667 -16.667 31.667 -29.667 51 -39s39.333 -14 60 -14c36.667 0 64.5 16.333 83.5 49z" />
    <glyph glyph-name="q" unicode="q" horiz-adv-x="537" 
d="M459 539v-746h-94v264c-32.667 -46 -76.667 -69 -132 -69c-59.333 0 -105.333 24.833 -138 74.5s-49 119.167 -49 208.5c0 88.667 17 157.5 51 206.5s81.667 73.5 143 73.5c28 0 53.667 -6.16699 77 -18.5s42.333 -29.833 57 -52.5v59h85zM317 89
c16.667 8.66699 32.666 22.667 47.999 42v283c-14.667 16.667 -31.667 29.667 -51 39s-39 14 -59 14c-36.667 0 -64.5 -16.333 -83.5 -49s-28.5 -81 -28.5 -145c0 -65.333 10 -114.5 30 -147.5s49.333 -49.5 88 -49.5c20.667 0 39.334 4.33301 56.001 13z" />
    <glyph glyph-name="r" unicode="r" horiz-adv-x="367" 
d="M359 536l-19.001 -90c-24 7.33301 -45.667 11 -65 11c-22.667 0 -42.167 -4.83301 -58.5 -14.5s-31.166 -25.167 -44.499 -46.5v-396h-94v539h84v-79c33.333 59.333 78.333 89 135 89c23.333 0 44 -4.33301 62 -13z" />
    <glyph glyph-name="s" unicode="s" horiz-adv-x="436" 
d="M110.5 2c-31 8.66699 -58.1689 20.999 -81.502 36.999l32 75c46.667 -30 95.334 -45 146.001 -45c66.667 0 100 26 100 78c0 20 -5.33301 36.167 -16 48.5s-27.667 21.166 -51 26.499l-71 17c-46 11.333 -79.5 28.833 -100.5 52.5s-31.5 55.834 -31.5 96.501
c0 50.667 16 90.334 48 119.001s77 43 135 43c29.333 0 58.333 -3.66699 87 -11s54.334 -17.666 77.001 -30.999l-36 -76c-46.667 24 -90 36 -130 36c-60 0 -90 -24 -90 -72c0 -18.667 5.33301 -33.667 16 -45s27.667 -20 51 -26l71 -17
c46 -10.667 79.5 -28.334 100.5 -53.001s31.5 -57.667 31.5 -99c0 -52.667 -16.667 -93.667 -50 -123s-80.333 -44 -141 -44c-33.333 0 -65.5 4.33301 -96.5 13z" />
    <glyph glyph-name="t" unicode="t" horiz-adv-x="355" 
d="M93 160v300.001h-83v79h83v155h94v-155h146v-79h-146v-284c0 -34.667 6.83301 -59.834 20.5 -75.501s35.167 -23.5 64.5 -23.5c18.667 0 36.667 2.66699 54 8l14 -79c-22.667 -8 -50 -12 -82 -12c-110 0 -165 55.333 -165 166z" />
    <glyph glyph-name="u" unicode="u" horiz-adv-x="537" 
d="M459 539v-539h-84v69c-34.667 -54 -85 -81 -151 -81c-48.667 0 -86.334 14.167 -113.001 42.5s-40 68.166 -40 119.499v389h94v-377c0 -28.667 7.5 -50.167 22.5 -64.5s37.167 -21.5 66.5 -21.5c22.667 0 42.834 4.33301 60.501 13s34.5 22.334 50.5 41.001v409h94z" />
    <glyph glyph-name="v" unicode="v" horiz-adv-x="496" 
d="M471 539l-171 -539h-103l-172 539h99l126 -444l123 444h98z" />
    <glyph glyph-name="w" unicode="w" horiz-adv-x="743" 
d="M715 539l-145 -539h-102l-96 418l-97 -418h-103l-145 539h98l100 -442l99 442h98l99 -440l97 440h97z" />
    <glyph glyph-name="x" unicode="x" horiz-adv-x="469" 
d="M342 0l-110 201l-107 -201h-105l163 274l-156 265h107l102 -190l106 190h105l-161 -264l163 -275h-107z" />
    <glyph glyph-name="y" unicode="y" horiz-adv-x="492" 
d="M467 539l-169.999 -532.001c-16.667 -53.333 -44.5 -98.5 -83.5 -135.5s-90.167 -66.833 -153.5 -89.5l-33 80c44.667 16.667 80.667 35.334 108 56.001s48.666 45.667 63.999 75l-174 546h99l124 -436l121 436h98z" />
    <glyph glyph-name="z" unicode="z" horiz-adv-x="429" 
d="M396 79v-79h-365v79l256 381h-247v79h352v-79l-256 -381h260z" />
    <glyph glyph-name="braceleft" unicode="{" horiz-adv-x="328" 
d="M190.5 -73c-25.667 17.333 -44 40.3301 -55 68.9971s-16.5 66 -16.5 112v116c0 27.333 -8.5 47.333 -25.5 60s-43.833 19.334 -80.5 20.001v77c36.667 0.666992 63.5 7.33398 80.5 20.001s25.5 32.334 25.5 59.001v117c0 46 5.5 83.167 16.5 111.5
s29.333 51.166 55 68.499s61.167 31.333 106.5 42l21 -72c-30.667 -7.33301 -54 -16.666 -70 -27.999s-27.333 -26.333 -34 -45s-10 -44.334 -10 -77.001v-117c0 -32 -6.16699 -57.667 -18.5 -77s-31.833 -32.666 -58.5 -39.999c26 -7.33301 45.333 -20.833 58 -40.5
s19 -45.834 19 -78.501v-116c0 -32.667 3.33301 -58.5 10 -77.5s18 -34.167 34 -45.5s39.333 -20.666 70 -27.999l-21 -72c-45.333 10.667 -80.833 24.667 -106.5 42z" />
    <glyph glyph-name="bar" unicode="|" horiz-adv-x="237" 
d="M83 816h71v-1066h-71v1066z" />
    <glyph glyph-name="braceright" unicode="}" horiz-adv-x="328" 
d="M11 -43c30 7.33301 53 16.6689 69 28.002s27.333 26.5 34 45.5s10 44.833 10 77.5v116c0 32.667 6.33301 58.834 19 78.501s32 33.167 58 40.5c-26.667 7.33301 -46.167 20.666 -58.5 39.999s-18.5 45 -18.5 77v117c0 32.667 -3.33301 58.334 -10 77.001
s-18 33.667 -34 45s-39 20.666 -69 27.999l20 72c45.333 -10.667 80.833 -24.667 106.5 -42s44 -40.166 55 -68.499s16.5 -65.5 16.5 -111.5v-117c0 -26.667 8.5 -46.334 25.5 -59.001s43.833 -19.334 80.5 -20.001v-77c-36.667 -0.666992 -63.5 -7.33398 -80.5 -20.001
s-25.5 -32.667 -25.5 -60v-116c0 -46 -5.5 -83.333 -16.5 -112s-29.333 -51.667 -55 -69s-61.167 -31.333 -106.5 -42z" />
    <glyph glyph-name="asciitilde" unicode="~" horiz-adv-x="538" 
d="M304.5 295c-13 6 -27.5 14.666 -43.5 25.999c-16 10.667 -29 18.334 -39 23.001s-21 7 -33 7c-14.667 0 -29.167 -4.66699 -43.5 -14s-29.166 -24 -44.499 -44l-55 57c45.333 57.333 92.666 86 141.999 86c17.333 0 32.333 -3 45 -9s27.667 -14.667 45 -26
c13.333 -10 25.333 -17.5 36 -22.5s22.334 -7.5 35.001 -7.5c14.667 0 29.167 4.66699 43.5 14s29.166 24 44.499 44l55 -57c-44 -57.333 -91.333 -86 -142 -86c-17.333 0 -32.5 3 -45.5 9z" />
    <glyph glyph-name="uni00A0" unicode="&#xa0;" horiz-adv-x="194" 
 />
    <glyph glyph-name="exclamdown" unicode="&#xa1;" horiz-adv-x="332" 
d="M212 529c11.333 -11.333 17.001 -26.999 17.001 -46.999s-5.5 -35.667 -16.5 -47s-26.5 -17 -46.5 -17s-35.5 5.66699 -46.5 17s-16.5 26.666 -16.5 45.999c0 20.667 5.5 36.667 16.5 48s26.5 17 46.5 17c19.333 0 34.666 -5.66699 45.999 -17zM222.001 -189.999h-108
l16 520h75z" />
    <glyph glyph-name="cent" unicode="&#xa2;" horiz-adv-x="448" 
d="M294 28v-113.001h-70v116c-58 9.33301 -102.833 35.833 -134.5 79.5s-47.5 100.834 -47.5 171.501c0 67.333 16.333 123.333 49 168s77 72 133 82v116h70v-114c46 -4.66699 84.333 -17.667 115 -39l-32 -69c-28 14 -55.667 23 -83 27v-343c30 2.66699 60 12.667 90 30
l30 -68c-32 -25.333 -72 -40 -120 -44zM157.5 171.499c14.333 -27.667 36.5 -46.166 66.5 -55.499v333c-58.667 -16 -88 -70.333 -88 -163c0 -48.667 7.16699 -86.834 21.5 -114.501z" />
    <glyph glyph-name="sterling" unicode="&#xa3;" horiz-adv-x="498" 
d="M146 84h301.001v-84h-390v83l31 36c21.333 26 37 53.833 47 83.5s15 62.834 15 99.501c0 10 -0.333008 17.333 -1 22h-100v79h84c-5.33301 16 -10.666 29.333 -15.999 40c-8.66699 21.333 -15.334 40.166 -20.001 56.499s-7 35.833 -7 58.5
c0 56.667 16.5 100.5 49.5 131.5s79.167 46.5 138.5 46.5c34.667 0 66.667 -5.33301 96 -16s54.333 -26.334 75 -47.001l-46 -76c-38.667 33.333 -80.334 50 -125.001 50c-61.333 0 -92 -30 -92 -90c0 -15.333 1.83301 -29.666 5.5 -42.999s9.5 -30.333 17.5 -51
c10.667 -26.667 17.667 -46.667 21 -60h156v-79h-144v-9c0 -88 -32 -165 -96 -231z" />
    <glyph glyph-name="currency" unicode="&#xa4;" horiz-adv-x="557" 
d="M446 138l65.001 -86.999l-56 -47l-66 85c-30.667 -17.333 -67.334 -26 -110.001 -26s-79.667 8.66699 -111 26l-66 -85l-56 47l66 87c-33.333 43.333 -50 101.666 -50 174.999s16.333 131.333 49 174l-65 87l56 47l66 -85c30.667 17.333 67.667 26 111 26
c42.667 0 79.667 -8.66699 111 -26l65 85l56 -47l-65 -87c32.667 -42.667 49 -100.667 49 -174c0 -72.667 -16.333 -131 -49 -175zM368.501 188.501c20.333 28.333 30.5 69.833 30.5 124.5s-10.167 96 -30.5 124s-50.166 42 -89.499 42c-80.667 0 -121 -55.333 -121 -166
c0 -55.333 10.167 -97 30.5 -125s50.5 -42 90.5 -42c39.333 0 69.166 14.167 89.499 42.5z" />
    <glyph glyph-name="yen" unicode="&#xa5;" horiz-adv-x="509" 
d="M328 333h104v-67h-132v-79h132v-68h-132v-119h-94v119h-131v68h131v79h-131v67h104l-161 391h103l135 -379l133 379h102z" />
    <glyph glyph-name="brokenbar" unicode="&#xa6;" horiz-adv-x="240" 
d="M83 816h74v-449h-74v449zM83 200h74v-450h-74v450z" />
    <glyph glyph-name="section" unicode="&#xa7;" horiz-adv-x="495" 
d="M438 -22c0 -60 -16.9971 -106.668 -50.9971 -140.001s-81.333 -50 -142 -50c-30.667 0 -62.834 4.5 -96.501 13.5s-64.834 21.5 -93.501 37.5l33 79c61.333 -30.667 113.666 -46 156.999 -46c66.667 0 100 34 100 102c0 26.667 -6 47.667 -18 63s-32.333 27 -61 35
l-62 18c-51.333 14.667 -89 36.334 -113 65.001s-36 67 -36 115c0 58 16.667 106.667 50 146c-30 30 -45 72 -45 126c0 60.667 17.333 108 52 142s83 51 145 51c27.333 0 55.5 -3.33301 84.5 -10s55.5 -16 79.5 -28l-33 -78c-50 21.333 -94 32 -132 32
c-68.667 0 -103 -34.333 -103 -103c0 -26.667 6.16699 -47.667 18.5 -63s32.5 -27.333 60.5 -36l62 -18c50 -14 86.667 -35.5 110 -64.5s35 -67.5 35 -115.5c0 -57.333 -16 -105.666 -48 -144.999c31.333 -30.667 47 -73.334 47 -128.001zM295.003 157.999l28.998 -9.99902
c18.667 25.333 28 55.333 28 90c0 30 -6.66699 53.167 -20 69.5s-35.666 29.166 -66.999 38.499l-62 18l-31 10c-19.333 -24 -29 -54 -29 -90c0 -29.333 6.83301 -52.5 20.5 -69.5s36.834 -29.833 69.501 -38.5z" />
    <glyph glyph-name="dieresis" unicode="&#xa8;" horiz-adv-x="500" 
d="M121 639.5c-10 10.333 -15 24.5 -15 42.5c0 18.667 5 33.167 15 43.5s23.667 15.5 41 15.5s30.833 -5.16699 40.5 -15.5s14.5 -24.5 14.5 -42.5c0 -18.667 -4.83301 -33.167 -14.5 -43.5s-23.167 -15.5 -40.5 -15.5s-31 5.16699 -41 15.5zM297.5 639.5
c-9.66699 10.333 -14.5 24.5 -14.5 42.5c0 18.667 4.83301 33.167 14.5 43.5s23.167 15.5 40.5 15.5s31 -5.16699 41 -15.5s15 -24.5 15 -42.5c0 -18.667 -5 -33.167 -15 -43.5s-23.667 -15.5 -41 -15.5s-30.833 5.16699 -40.5 15.5z" />
    <glyph glyph-name="copyright" unicode="&#xa9;" horiz-adv-x="785" 
d="M226.5 32.5c-47 29.667 -83.167 72.5 -108.5 128.5s-38 123 -38 201s12.667 145 38 201s61.5 98.833 108.5 128.5s102.5 44.5 166.5 44.5c63.333 0 118.5 -14.833 165.5 -44.5s83.167 -72.5 108.5 -128.5s38 -123 38 -201s-12.667 -145 -38 -201
s-61.5 -98.833 -108.5 -128.5s-102.167 -44.5 -165.5 -44.5c-64 0 -119.5 14.833 -166.5 44.5zM576.5 131c43.667 55.333 65.5 132.333 65.5 231s-21.833 175.667 -65.5 231s-104.834 83 -183.501 83s-140 -27.5 -184 -82.5s-66 -132.167 -66 -231.5s22 -176.5 66 -231.5
s105.333 -82.5 184 -82.5s139.834 27.667 183.501 83zM295 227c-26.667 32 -40.001 76.666 -40.001 133.999c0 58 13.167 103.167 39.5 135.5s62.833 48.5 109.5 48.5c18.667 0 36.834 -2.5 54.501 -7.5s32.834 -12.167 45.501 -21.5l-27 -55
c-26.667 14.667 -51.334 22 -74.001 22c-25.333 0 -44.666 -10 -57.999 -30s-20 -49.333 -20 -88c0 -82.667 28.333 -124 85 -124c25.333 0 49.666 7.33301 72.999 22l24 -54c-12 -9.33301 -26.833 -16.666 -44.5 -21.999s-36.167 -8 -55.5 -8c-48 0 -85.333 16 -112 48z
" />
    <glyph glyph-name="ordfeminine" unicode="&#xaa;" horiz-adv-x="487" 
d="M355 696c27.333 -22 41 -53.333 41 -94v-274c-23.333 -12 -49.166 -21.333 -77.499 -28s-56.833 -10 -85.5 -10c-53.333 0 -94.833 11.5 -124.5 34.5s-44.5 55.5 -44.5 97.5c0 48.667 19.667 84.167 59 106.5s103 33.5 191 33.5v26c0 44.667 -28.333 67 -85 67
c-32.667 0 -68 -8 -106 -24l-22 64c20 10.667 42.167 19 66.5 25s48.5 9 72.5 9c49.333 0 87.666 -11 114.999 -33zM233 361c32 0 59 4.33203 81 12.999v129c-59.333 0 -102 -6.16699 -128 -18.5s-39 -32.166 -39 -59.499c0 -42.667 28.667 -64 86 -64zM88 189.999h304v-70
h-304v70z" />
    <glyph glyph-name="guillemotleft" unicode="&#xab;" horiz-adv-x="551" 
d="M356 289l164 -201l-59 -54l-208 253l209 254l58 -54zM130 289l164 -201l-59 -54l-208 253l209 254l58 -54z" />
    <glyph glyph-name="logicalnot" unicode="&#xac;" horiz-adv-x="538" 
d="M478 495v-86v-170h-89v170h-329v86h418z" />
    <glyph glyph-name="uni00AD" unicode="&#xad;" horiz-adv-x="375" 
d="M42 337h291v-77h-291v77z" />
    <glyph glyph-name="registered" unicode="&#xae;" horiz-adv-x="785" 
d="M558.5 691.5c47 -29.667 83.167 -72.5 108.5 -128.5s38 -123 38 -201s-12.667 -145 -38 -201s-61.5 -98.833 -108.5 -128.5s-102.167 -44.5 -165.5 -44.5c-64 0 -119.5 14.833 -166.5 44.5s-83.167 72.5 -108.5 128.5s-38 123 -38 201s12.667 145 38 201
s61.5 98.833 108.5 128.5s102.5 44.5 166.5 44.5c63.333 0 118.5 -14.833 165.5 -44.5zM576.5 131c43.667 55.333 65.5 132.333 65.5 231s-21.833 175.667 -65.5 231s-104.834 83 -183.501 83s-140 -27.5 -184 -82.5s-66 -132.167 -66 -231.5s22 -176.5 66 -231.5
s105.333 -82.5 184 -82.5s139.834 27.667 183.501 83zM497.5 351.5c-9.66699 -18.333 -23.5 -32.167 -41.5 -41.5l71 -126h-77l-59 115h-40v-115h-65v356h116c34.667 0 61.667 -10.667 81 -32s29 -51.333 29 -90c0 -26 -4.83301 -48.167 -14.5 -66.5zM351 353.999h47
c30 0 45 21 45 63c0 42.667 -15 64 -45 64h-47v-127z" />
    <glyph glyph-name="macron" unicode="&#xaf;" horiz-adv-x="500" 
d="M108 708h284v-68h-284v68z" />
    <glyph glyph-name="degree" unicode="&#xb0;" horiz-adv-x="421" 
d="M89.5 433c-31 32.667 -46.5 75 -46.5 127c0 51.333 15.5 93.333 46.5 126s71.5 49 121.5 49c49.333 0 89.5 -16.333 120.5 -49s46.5 -74.667 46.5 -126c0 -52 -15.5 -94.333 -46.5 -127s-71.167 -49 -120.5 -49c-50 0 -90.5 16.333 -121.5 49zM271 491.5
c15.333 17.667 23 40.5 23 68.5s-7.66699 50.833 -23 68.5s-35.333 26.5 -60 26.5s-44.834 -8.83301 -60.501 -26.5s-23.5 -40.5 -23.5 -68.5s7.83301 -50.833 23.5 -68.5s35.834 -26.5 60.501 -26.5s44.667 8.83301 60 26.5z" />
    <glyph glyph-name="plusminus" unicode="&#xb1;" horiz-adv-x="538" 
d="M492 494v-86h-179v-178h-88v178h-179v86h179v179h88v-179h179zM46 162h446v-84h-446v84z" />
    <glyph glyph-name="uni00B2" unicode="&#xb2;" horiz-adv-x="347" 
d="M305 393l-0.00195312 -65.998h-282v66l151 168c16.667 18.667 27.834 33.834 33.501 45.501s8.5 24.5 8.5 38.5c0 19.333 -4.66699 34.166 -14 44.499s-23.666 15.5 -42.999 15.5c-33.333 0 -69 -13.333 -107 -40l-34 58c46.667 35.333 96 53 148 53
c41.333 0 73.5 -10.833 96.5 -32.5s34.5 -52.5 34.5 -92.5c0 -22.667 -5 -43.834 -15 -63.501s-28 -43.834 -54 -72.501l-112 -122h189z" />
    <glyph glyph-name="uni00B3" unicode="&#xb3;" horiz-adv-x="370" 
d="M286 558c21.333 -22.667 32.002 -53.668 32.002 -93.001c0 -45.333 -14.333 -80.666 -43 -105.999s-68.667 -38 -120 -38c-52.667 0 -98.334 14 -137.001 42l29 62c34 -22 70 -33 108 -33c27.333 0 47.666 6.33301 60.999 19s20 31 20 55c0 46.667 -25.333 70 -76 70
c-16.667 0 -32 -2 -46 -6l-28 38l123 136h-179v66h269v-66l-103 -107c38.667 -3.33301 68.667 -16.333 90 -39z" />
    <glyph glyph-name="acute" unicode="&#xb4;" horiz-adv-x="500" 
d="M196 625l92 159h101v-10l-124 -159h-69v10z" />
    <glyph glyph-name="uni00B5" unicode="&#xb5;" horiz-adv-x="550" 
d="M472 539l-0.000976562 -539h-85v63c-37.333 -47.333 -85 -71 -143 -71c-30.667 0 -54.667 6.33301 -72 19v-218h-94v519v227h94v-377c0 -28.667 7.83301 -50.5 23.5 -65.5s38.834 -22.5 69.501 -22.5c43.333 0 81 18 113 54v411h94z" />
    <glyph glyph-name="paragraph" unicode="&#xb6;" horiz-adv-x="535" 
d="M452 0l-72.999 0.000976562v650h-72v-650h-73v319c-66.667 0.666992 -118.667 18.667 -156 54s-56 84.666 -56 147.999c0 64 19.167 113.833 57.5 149.5s92.166 53.5 161.499 53.5h211v-724z" />
    <glyph glyph-name="periodcentered" unicode="&#xb7;" horiz-adv-x="239" 
d="M73 288c-11.333 11.333 -17 26.999 -17 46.999c0 20.667 5.66699 36.5 17 47.5s26.666 16.5 45.999 16.5c20 0 35.667 -5.66699 47 -17s17 -26.666 17 -45.999c0 -20.667 -5.66699 -36.667 -17 -48s-27 -17 -47 -17c-19.333 0 -34.666 5.66699 -45.999 17z" />
    <glyph glyph-name="cedilla" unicode="&#xb8;" horiz-adv-x="500" 
d="M335.5 -78.5c17.667 -14.333 26.5 -34.168 26.5 -59.501c0 -29.333 -10.167 -52.166 -30.5 -68.499s-49.166 -24.5 -86.499 -24.5c-38.667 0 -72.334 8 -101.001 24l16 47c32.667 -12 59.334 -18 80.001 -18c31.333 0 47 12.667 47 38s-14.333 38 -43 38
c-16.667 0 -30.334 -2.66699 -41.001 -8l-22 25l42 105l66 -6l-49 -74c6.66699 2 13.667 3 21 3c32 0 56.833 -7.16699 74.5 -21.5z" />
    <glyph glyph-name="uni00B9" unicode="&#xb9;" horiz-adv-x="316" 
d="M205 770v-443h-79v363l-89 -33l-21 61l125 52h64z" />
    <glyph glyph-name="ordmasculine" unicode="&#xba;" horiz-adv-x="494" 
d="M113 345.5c-31.333 37.667 -47 92.5 -47 164.5s15.667 126.667 47 164s76 56 134 56s102.667 -18.667 134 -56s47 -92 47 -164s-15.667 -126.833 -47 -164.5s-76 -56.5 -134 -56.5s-102.667 18.833 -134 56.5zM318.5 399.5c16.333 25 24.5 61.833 24.5 110.5
s-8.16699 85.334 -24.5 110.001s-40.166 37 -71.499 37s-55.166 -12.333 -71.499 -37s-24.5 -61.334 -24.5 -110.001s8.16699 -85.5 24.5 -110.5s40.166 -37.5 71.499 -37.5s55.166 12.5 71.499 37.5zM95 190h305v-70h-305v70z" />
    <glyph glyph-name="guillemotright" unicode="&#xbb;" horiz-adv-x="551" 
d="M298 288l-209 -254l-58 54l165 198l-165 201l59 54zM524 288l-209 -254l-58 54l165 198l-165 201l59 54z" />
    <glyph glyph-name="onequarter" unicode="&#xbc;" horiz-adv-x="827" 
d="M627 704l-393 -719l-65 35l393 719zM126 281v363l-89 -33l-21 61l125 52h64v-443h-79zM803 148v-64h-52v-84h-76v84h-194v64l159 295h111v-295h52zM675 148v227l-114 -227h114z" />
    <glyph glyph-name="onehalf" unicode="&#xbd;" horiz-adv-x="864" 
d="M627 704l-393 -719l-65 35l393 719zM126 281v363l-89 -33l-21 61l125 52h64v-443h-79zM824 66l-0.00195312 -65.998h-282v66l151 168c16.667 18.667 27.834 33.834 33.501 45.501s8.5 24.5 8.5 38.5c0 19.333 -4.66699 34.166 -14 44.499s-23.666 15.5 -42.999 15.5
c-33.333 0 -69 -13.333 -107 -40l-34 58c46.667 35.333 96 53 148 53c41.333 0 73.5 -10.833 96.5 -32.5s34.5 -52.5 34.5 -92.5c0 -22.667 -5 -43.834 -15 -63.501s-28 -43.834 -54 -72.501l-112 -122h189z" />
    <glyph glyph-name="threequarters" unicode="&#xbe;" horiz-adv-x="900" 
d="M699 704l-393 -719l-65 35l393 719zM275 312.5c-28.667 -25 -68.665 -37.5 -119.998 -37.5c-54.667 0 -100.334 14 -137.001 42l29 62c34 -22 70 -33 108 -33c27.333 0 47.666 6.33301 60.999 19s20 30.667 20 54c0 47.333 -25.333 71 -76 71c-16.667 0 -32 -2 -46 -6
l-28 37l123 137h-179v66h269v-66l-103 -107c38.667 -3.33301 68.667 -16.5 90 -39.5s32 -53.833 32 -92.5c0 -46 -14.333 -81.5 -43 -106.5zM876.002 148v-64h-52v-84h-76v84h-194v64l159 295h111v-295h52zM748.002 148v227l-114 -227h114z" />
    <glyph glyph-name="questiondown" unicode="&#xbf;" horiz-adv-x="429" 
d="M311.5 529c11 -11.333 16.5 -26.999 16.5 -46.999c0 -20.667 -5.5 -36.5 -16.5 -47.5s-26.5 -16.5 -46.5 -16.5c-19.333 0 -34.666 5.66699 -45.999 17s-17 26.666 -17 45.999c0 20.667 5.66699 36.667 17 48s26.666 17 45.999 17c20 0 35.5 -5.66699 46.5 -17z
M315 273.001c0 -28.667 -4.16406 -53.5029 -12.4971 -74.5029s-19.333 -39.167 -33 -54.5s-32.167 -33 -55.5 -53c-24 -21.333 -40.5 -39.666 -49.5 -54.999s-13.5 -33.333 -13.5 -54c0 -63.333 33 -95 99 -95c48.667 0 98.667 17 150 51l38 -78
c-24.667 -19.333 -53.834 -34.5 -87.501 -45.5s-68.834 -16.5 -105.501 -16.5c-60.667 0 -108.167 15.833 -142.5 47.5s-51.5 75.834 -51.5 132.501c0 32.667 6.83301 61.167 20.5 85.5s38.5 51.5 74.5 81.5c22 18.667 37.667 32.834 47 42.501s17.166 21.667 23.499 36
s9.5 31.833 9.5 52.5c0 13.333 -1 31.333 -3 54h89c2 -24.667 3 -43.667 3 -57z" />
    <glyph glyph-name="Agrave" unicode="&#xc0;" horiz-adv-x="634" 
d="M303 781l-164 133v12h111l132 -133v-12h-79zM449 183h-266l-55 -183h-102l237 724h107l237 -724h-103zM424 267l-109 364l-108 -364h217z" />
    <glyph glyph-name="Aacute" unicode="&#xc1;" horiz-adv-x="634" 
d="M330 781h-79v12l141 133h111v-12zM449 183h-266l-55 -183h-102l237 724h107l237 -724h-103zM424 267l-109 364l-108 -364h217z" />
    <glyph glyph-name="Acircumflex" unicode="&#xc2;" horiz-adv-x="634" 
d="M227 781h-68v12l110 133h96l110 -133v-12h-71l-89 90zM449 183h-266l-55 -183h-102l237 724h107l237 -724h-103zM424 267l-109 364l-108 -364h217z" />
    <glyph glyph-name="Atilde" unicode="&#xc3;" horiz-adv-x="634" 
d="M211 790h-56c0.666992 42.667 9.33398 75.834 26.001 99.501s39.667 35.5 69 35.5c16.667 0 31.5 -3.5 44.5 -10.5s27.167 -16.833 42.5 -29.5c10.667 -8.66699 19.5 -15.167 26.5 -19.5s14.167 -6.5 21.5 -6.5c21.333 0 34 21.333 38 64h56
c-0.666992 -42.667 -9.33398 -75.834 -26.001 -99.501s-39.667 -35.5 -69 -35.5c-16.667 0 -31.5 3.5 -44.5 10.5s-27.167 16.833 -42.5 29.5c-10.667 8.66699 -19.5 15.167 -26.5 19.5s-14.167 6.5 -21.5 6.5c-21.333 0 -34 -21.333 -38 -64zM449 183h-266l-55 -183h-102
l237 724h107l237 -724h-103zM424 267l-109 364l-108 -364h217z" />
    <glyph glyph-name="Adieresis" unicode="&#xc4;" horiz-adv-x="634" 
d="M187.5 804.5c-9.66699 10.333 -14.5 24.5 -14.5 42.5c0 18.667 4.83301 33.167 14.5 43.5s23.167 15.5 40.5 15.5s30.833 -5.16699 40.5 -15.5s14.5 -24.5 14.5 -42.5c0 -18.667 -4.83301 -33.167 -14.5 -43.5s-23.167 -15.5 -40.5 -15.5s-30.833 5.16699 -40.5 15.5z
M366.5 804.5c-9.66699 10.333 -14.5 24.5 -14.5 42.5c0 18.667 4.83301 33.167 14.5 43.5s23.167 15.5 40.5 15.5s30.833 -5.16699 40.5 -15.5s14.5 -24.5 14.5 -42.5c0 -18.667 -4.83301 -33.167 -14.5 -43.5s-23.167 -15.5 -40.5 -15.5s-30.833 5.16699 -40.5 15.5z
M449 183h-266l-55 -183h-102l237 724h107l237 -724h-103zM424 267l-109 364l-108 -364h217z" />
    <glyph glyph-name="Aring" unicode="&#xc5;" horiz-adv-x="634" 
d="M230.5 798c-20.333 19.333 -30.5039 46.333 -30.5039 81s10.333 61.667 31 81s49.334 29 86.001 29s65.334 -9.66699 86.001 -29s31 -46.333 31 -81s-10.167 -61.667 -30.5 -81s-49.166 -29 -86.499 -29s-66.166 9.66699 -86.499 29zM263.996 879
c0 -40.667 17.667 -61 53 -61s53 20.333 53 61s-17.667 61 -53 61s-53 -20.333 -53 -61zM448.996 183h-266l-55 -183h-102l237 724h107l237 -724h-103zM423.996 267l-109 364l-108 -364h217z" />
    <glyph glyph-name="AE" unicode="&#xc6;" horiz-adv-x="853" 
d="M819 85v-85h-406v175h-232l-85 -175h-104l359 724h98h357v-85h-299v-225h218v-86h-218v-243h312zM413 258v394l-191 -394h191z" />
    <glyph glyph-name="Ccedilla" unicode="&#xc7;" horiz-adv-x="561" 
d="M416.5 -78.5c17.667 -14.333 26.499 -34.167 26.499 -59.5c0 -29.333 -10.167 -52.166 -30.5 -68.499s-49.166 -24.5 -86.499 -24.5c-38.667 0 -72.334 8 -101.001 24l16 47c32.667 -12 59.334 -18 80.001 -18c31.333 0 47 12.667 47 38s-14.333 38 -43 38
c-16.667 0 -30.334 -2.66699 -41.001 -8l-22 25l31 78c-80 12 -141.833 48.833 -185.5 110.5s-65.5 143.167 -65.5 244.5c0 78.667 12.333 147.167 37 205.5s59.834 103.333 105.501 135s99.167 47.5 160.5 47.5c32 0 63.667 -4.5 95 -13.5s59.333 -21.5 84 -37.5l-32 -75
c-52 26 -101.333 39 -148 39c-64 0 -113.667 -25.667 -149 -77s-53 -123.333 -53 -216c0 -92 18 -161.5 54 -208.5s89.333 -70.5 160 -70.5c51.333 0 98.333 11.667 141 35l33 -73c-20 -15.333 -45.5 -27.333 -76.5 -36s-64.5 -13.334 -100.5 -14.001l-32 -49
c7.33301 2 14.333 3 21 3c32 0 56.833 -7.16699 74.5 -21.5z" />
    <glyph glyph-name="Egrave" unicode="&#xc8;" horiz-adv-x="538" 
d="M278 781l-164 133v12h111l132 -133v-12h-79zM504 85v-85h-421v724h408v-85h-312v-226h231v-85h-231v-243h325z" />
    <glyph glyph-name="Eacute" unicode="&#xc9;" horiz-adv-x="538" 
d="M305 781h-79v12l141 133h111v-12zM504 85v-85h-421v724h408v-85h-312v-226h231v-85h-231v-243h325z" />
    <glyph glyph-name="Ecircumflex" unicode="&#xca;" horiz-adv-x="538" 
d="M202 781h-68v12l110 133h96l110 -133v-12h-71l-89 90zM504 85v-85h-421v724h408v-85h-312v-226h231v-85h-231v-243h325z" />
    <glyph glyph-name="Edieresis" unicode="&#xcb;" horiz-adv-x="538" 
d="M162.5 804.5c-9.66699 10.333 -14.5 24.5 -14.5 42.5c0 18.667 4.83301 33.167 14.5 43.5s23.167 15.5 40.5 15.5s30.833 -5.16699 40.5 -15.5s14.5 -24.5 14.5 -42.5c0 -18.667 -4.83301 -33.167 -14.5 -43.5s-23.167 -15.5 -40.5 -15.5s-30.833 5.16699 -40.5 15.5z
M341.5 804.5c-9.66699 10.333 -14.5 24.5 -14.5 42.5c0 18.667 4.83301 33.167 14.5 43.5s23.167 15.5 40.5 15.5s30.833 -5.16699 40.5 -15.5s14.5 -24.5 14.5 -42.5c0 -18.667 -4.83301 -33.167 -14.5 -43.5s-23.167 -15.5 -40.5 -15.5s-30.833 5.16699 -40.5 15.5z
M504 85v-85h-421v724h408v-85h-312v-226h231v-85h-231v-243h325z" />
    <glyph glyph-name="Igrave" unicode="&#xcc;" horiz-adv-x="266" 
d="M-45 914v12h111l132 -133v-12h-79zM85 724h96v-724h-96v724z" />
    <glyph glyph-name="Iacute" unicode="&#xcd;" horiz-adv-x="266" 
d="M67 793l141 133h111v-12l-173 -133h-79v12zM85 724h96v-724h-96v724z" />
    <glyph glyph-name="Icircumflex" unicode="&#xce;" horiz-adv-x="266" 
d="M291 793v-12h-71l-89 90l-88 -90h-68v12l110 133h96zM85 724h96v-724h-96v724z" />
    <glyph glyph-name="Idieresis" unicode="&#xcf;" horiz-adv-x="266" 
d="M3.5 804.5c-9.66699 10.333 -14.5 24.5 -14.5 42.5c0 18.667 4.83301 33.167 14.5 43.5s23.167 15.5 40.5 15.5s30.833 -5.16699 40.5 -15.5s14.5 -24.5 14.5 -42.5c0 -18.667 -4.83301 -33.167 -14.5 -43.5s-23.167 -15.5 -40.5 -15.5s-30.833 5.16699 -40.5 15.5z
M182.5 804.5c-9.66699 10.333 -14.5 24.5 -14.5 42.5c0 18.667 4.83301 33.167 14.5 43.5s23.167 15.5 40.5 15.5s30.833 -5.16699 40.5 -15.5s14.5 -24.5 14.5 -42.5c0 -18.667 -4.83301 -33.167 -14.5 -43.5s-23.167 -15.5 -40.5 -15.5s-30.833 5.16699 -40.5 15.5z
M85 724h96v-724h-96v724z" />
    <glyph glyph-name="Eth" unicode="&#xd0;" horiz-adv-x="647" 
d="M514 632.5c53.333 -61 80.001 -151.167 80.001 -270.5s-26.833 -209.5 -80.5 -270.5s-131.5 -91.5 -233.5 -91.5h-197v328h-62v77h62v319h199c101.333 0 178.666 -30.5 231.999 -91.5zM440.501 154.5c35.667 46.333 53.499 115.5 53.499 207.5
c0 91.333 -18 160.333 -54 207s-89.667 70 -161 70h-100v-234h166v-77h-166v-243h102c70.667 0 123.834 23.167 159.501 69.5z" />
    <glyph glyph-name="Ntilde" unicode="&#xd1;" horiz-adv-x="678" 
d="M233 790h-56c0.666992 42.667 9.33398 75.834 26.001 99.501s39.667 35.5 69 35.5c16.667 0 31.5 -3.5 44.5 -10.5s27.167 -16.833 42.5 -29.5c10.667 -8.66699 19.5 -15.167 26.5 -19.5s14.167 -6.5 21.5 -6.5c21.333 0 34 21.333 38 64h56
c-0.666992 -42.667 -9.33398 -75.834 -26.001 -99.501s-39.667 -35.5 -69 -35.5c-16.667 0 -31.5 3.5 -44.5 10.5s-27.167 16.833 -42.5 29.5c-10.667 8.66699 -19.5 15.167 -26.5 19.5s-14.167 6.5 -21.5 6.5c-21.333 0 -34 -21.333 -38 -64zM595 724v-724h-91l-327 554
v-554h-94v724h91l327 -554v554h94z" />
    <glyph glyph-name="Ograve" unicode="&#xd2;" horiz-adv-x="666" 
d="M155 914v12h111l132 -133v-12h-79zM124.5 83c-48.333 63.333 -72.5 156.333 -72.5 279s24.167 215.667 72.5 279s117.833 95 208.5 95s160 -31.5 208 -94.5s72 -156.167 72 -279.5s-24 -216.5 -72 -279.5s-117.333 -94.5 -208 -94.5s-160.167 31.667 -208.5 95z
M467.5 146c30.333 48.667 45.5 120.667 45.5 216s-15.167 167.333 -45.5 216s-75.166 73 -134.499 73s-104.333 -24.333 -135 -73s-46 -120.667 -46 -216s15.333 -167.333 46 -216s75.667 -73 135 -73s104.166 24.333 134.499 73z" />
    <glyph glyph-name="Oacute" unicode="&#xd3;" horiz-adv-x="666" 
d="M267 793l141 133h111v-12l-173 -133h-79v12zM124.5 83c-48.333 63.333 -72.5 156.333 -72.5 279s24.167 215.667 72.5 279s117.833 95 208.5 95s160 -31.5 208 -94.5s72 -156.167 72 -279.5s-24 -216.5 -72 -279.5s-117.333 -94.5 -208 -94.5s-160.167 31.667 -208.5 95z
M467.5 146c30.333 48.667 45.5 120.667 45.5 216s-15.167 167.333 -45.5 216s-75.166 73 -134.499 73s-104.333 -24.333 -135 -73s-46 -120.667 -46 -216s15.333 -167.333 46 -216s75.667 -73 135 -73s104.166 24.333 134.499 73z" />
    <glyph glyph-name="Ocircumflex" unicode="&#xd4;" horiz-adv-x="666" 
d="M243 781h-68v12l110 133h96l110 -133v-12h-71l-89 90zM541 641.5c48 -63 72 -156.167 72 -279.5s-24 -216.5 -72 -279.5s-117.333 -94.5 -208 -94.5s-160.167 31.667 -208.5 95s-72.5 156.333 -72.5 279s24.167 215.667 72.5 279s117.833 95 208.5 95
s160 -31.5 208 -94.5zM467.5 146c30.333 48.667 45.5 120.667 45.5 216s-15.167 167.333 -45.5 216s-75.166 73 -134.499 73s-104.333 -24.333 -135 -73s-46 -120.667 -46 -216s15.333 -167.333 46 -216s75.667 -73 135 -73s104.166 24.333 134.499 73z" />
    <glyph glyph-name="Otilde" unicode="&#xd5;" horiz-adv-x="666" 
d="M355.5 798.5c-13 7 -27.167 16.833 -42.5 29.5c-10.667 8.66699 -19.5 15.167 -26.5 19.5s-14.167 6.5 -21.5 6.5c-21.333 0 -34 -21.333 -38 -64h-56c0.666992 42.667 9.33398 75.834 26.001 99.501s39.667 35.5 69 35.5c16.667 0 31.5 -3.5 44.5 -10.5
s27.167 -16.833 42.5 -29.5c10.667 -8.66699 19.5 -15.167 26.5 -19.5s14.167 -6.5 21.5 -6.5c21.333 0 34 21.333 38 64h56c-0.666992 -42.667 -9.33398 -75.834 -26.001 -99.501s-39.667 -35.5 -69 -35.5c-16.667 0 -31.5 3.5 -44.5 10.5zM124.5 83
c-48.333 63.333 -72.5 156.333 -72.5 279s24.167 215.667 72.5 279s117.833 95 208.5 95s160 -31.5 208 -94.5s72 -156.167 72 -279.5s-24 -216.5 -72 -279.5s-117.333 -94.5 -208 -94.5s-160.167 31.667 -208.5 95zM467.5 146c30.333 48.667 45.5 120.667 45.5 216
s-15.167 167.333 -45.5 216s-75.166 73 -134.499 73s-104.333 -24.333 -135 -73s-46 -120.667 -46 -216s15.333 -167.333 46 -216s75.667 -73 135 -73s104.166 24.333 134.499 73z" />
    <glyph glyph-name="Odieresis" unicode="&#xd6;" horiz-adv-x="666" 
d="M203.5 804.5c-9.66699 10.333 -14.5 24.5 -14.5 42.5c0 18.667 4.83301 33.167 14.5 43.5s23.167 15.5 40.5 15.5s30.833 -5.16699 40.5 -15.5s14.5 -24.5 14.5 -42.5c0 -18.667 -4.83301 -33.167 -14.5 -43.5s-23.167 -15.5 -40.5 -15.5s-30.833 5.16699 -40.5 15.5z
M382.5 804.5c-9.66699 10.333 -14.5 24.5 -14.5 42.5c0 18.667 4.83301 33.167 14.5 43.5s23.167 15.5 40.5 15.5s30.833 -5.16699 40.5 -15.5s14.5 -24.5 14.5 -42.5c0 -18.667 -4.83301 -33.167 -14.5 -43.5s-23.167 -15.5 -40.5 -15.5s-30.833 5.16699 -40.5 15.5z
M124.5 83c-48.333 63.333 -72.5 156.333 -72.5 279s24.167 215.667 72.5 279s117.833 95 208.5 95s160 -31.5 208 -94.5s72 -156.167 72 -279.5s-24 -216.5 -72 -279.5s-117.333 -94.5 -208 -94.5s-160.167 31.667 -208.5 95zM467.5 146
c30.333 48.667 45.5 120.667 45.5 216s-15.167 167.333 -45.5 216s-75.166 73 -134.499 73s-104.333 -24.333 -135 -73s-46 -120.667 -46 -216s15.333 -167.333 46 -216s75.667 -73 135 -73s104.166 24.333 134.499 73z" />
    <glyph glyph-name="multiply" unicode="&#xd7;" horiz-adv-x="538" 
d="M325 368l150 -167l-59 -59l-147 164l-147 -164l-59 59l150 167l-150 167l59 59l147 -164l147 164l59 -59z" />
    <glyph glyph-name="Oslash" unicode="&#xd8;" horiz-adv-x="666" 
d="M643 724l-84 -111c36.667 -63.333 55 -147 55 -251c0 -123.333 -24 -216.5 -72 -279.5s-117.667 -94.5 -209 -94.5c-76.667 0 -138 23 -184 69l-48 -67h-78v10l84 111c-36.667 63.333 -55 147 -55 251c0 122.667 24.167 215.667 72.5 279s117.833 95 208.5 95
c76.667 0 138 -23 184 -69l48 67h78v-10zM195.5 580.5c-31 -49 -46.5 -121.833 -46.5 -218.5c0 -66.667 7 -122 21 -166l293 398c-30 40 -73.333 60 -130 60c-60.667 0 -106.5 -24.5 -137.5 -73.5zM470.5 143.5c31 49 46.5 121.833 46.5 218.5c0 66.667 -7 122 -21 166
l-293 -398c30 -40 73.333 -60 130 -60c60.667 0 106.5 24.5 137.5 73.5z" />
    <glyph glyph-name="Ugrave" unicode="&#xd9;" horiz-adv-x="642" 
d="M143 914v12h111l132 -133v-12h-79zM141.5 55.5c-42.333 45 -63.502 108.167 -63.502 189.5v479h96v-475c0 -58 12.333 -101.833 37 -131.5s61.334 -44.5 110.001 -44.5s85.334 14.833 110.001 44.5s37 73.5 37 131.5v475h96v-479c0 -81.333 -21.333 -144.5 -64 -189.5
s-102.334 -67.5 -179.001 -67.5c-77.333 0 -137.166 22.5 -179.499 67.5z" />
    <glyph glyph-name="Uacute" unicode="&#xda;" horiz-adv-x="642" 
d="M255 793l141 133h111v-12l-173 -133h-79v12zM141.5 55.5c-42.333 45 -63.502 108.167 -63.502 189.5v479h96v-475c0 -58 12.333 -101.833 37 -131.5s61.334 -44.5 110.001 -44.5s85.334 14.833 110.001 44.5s37 73.5 37 131.5v475h96v-479
c0 -81.333 -21.333 -144.5 -64 -189.5s-102.334 -67.5 -179.001 -67.5c-77.333 0 -137.166 22.5 -179.499 67.5z" />
    <glyph glyph-name="Ucircumflex" unicode="&#xdb;" horiz-adv-x="642" 
d="M231 781h-68v12l110 133h96l110 -133v-12h-71l-89 90zM564 724l-0.00195312 -479c0 -81.333 -21.333 -144.5 -64 -189.5s-102.334 -67.5 -179.001 -67.5c-77.333 0 -137.166 22.5 -179.499 67.5s-63.5 108.167 -63.5 189.5v479h96v-475c0 -58 12.333 -101.833 37 -131.5
s61.334 -44.5 110.001 -44.5s85.334 14.833 110.001 44.5s37 73.5 37 131.5v475h96z" />
    <glyph glyph-name="Udieresis" unicode="&#xdc;" horiz-adv-x="642" 
d="M191.5 804.5c-9.66699 10.333 -14.5 24.5 -14.5 42.5c0 18.667 4.83301 33.167 14.5 43.5s23.167 15.5 40.5 15.5s30.833 -5.16699 40.5 -15.5s14.5 -24.5 14.5 -42.5c0 -18.667 -4.83301 -33.167 -14.5 -43.5s-23.167 -15.5 -40.5 -15.5s-30.833 5.16699 -40.5 15.5z
M370.5 804.5c-9.66699 10.333 -14.5 24.5 -14.5 42.5c0 18.667 4.83301 33.167 14.5 43.5s23.167 15.5 40.5 15.5s30.833 -5.16699 40.5 -15.5s14.5 -24.5 14.5 -42.5c0 -18.667 -4.83301 -33.167 -14.5 -43.5s-23.167 -15.5 -40.5 -15.5s-30.833 5.16699 -40.5 15.5z
M141.5 55.5c-42.333 45 -63.502 108.167 -63.502 189.5v479h96v-475c0 -58 12.333 -101.833 37 -131.5s61.334 -44.5 110.001 -44.5s85.334 14.833 110.001 44.5s37 73.5 37 131.5v475h96v-479c0 -81.333 -21.333 -144.5 -64 -189.5s-102.334 -67.5 -179.001 -67.5
c-77.333 0 -137.166 22.5 -179.499 67.5z" />
    <glyph glyph-name="Yacute" unicode="&#xdd;" horiz-adv-x="558" 
d="M291 781h-79v12l141 133h111v-12zM535 724l-209 -472v-252h-96v252l-208 472h105l153 -366l151 366h104z" />
    <glyph glyph-name="Thorn" unicode="&#xde;" horiz-adv-x="575" 
d="M480 542c38.667 -40.667 57.999 -97.667 57.999 -171c0 -74 -19.667 -131.5 -59 -172.5s-94.333 -61.5 -165 -61.5h-135v-137h-96v724h96v-121h140c68.667 0 122.334 -20.333 161.001 -61zM407.999 259c20 24.667 30 61.333 30 110c0 49.333 -10.5 86.5 -31.5 111.5
s-51.833 37.5 -92.5 37.5h-135v-296h140c39.333 0 69 12.333 89 37z" />
    <glyph glyph-name="germandbls" unicode="&#xdf;" horiz-adv-x="560" 
d="M478.5 345.5c30.333 -37.667 45.502 -86.502 45.502 -146.502c0 -64.667 -17.5 -115 -52.5 -151s-84.167 -54 -147.5 -54c-32.667 0 -65.334 4.66699 -98.001 14l18 78c29.333 -8 56 -12 80 -12c72.667 0 109 39.667 109 119c0 51.333 -15.167 91.166 -45.5 119.499
s-75.833 44.166 -136.5 47.499v74c39.333 18.667 68.166 40.834 86.499 66.501s27.5 56.834 27.5 93.501c0 34 -7.66699 59.667 -23 77s-37.666 26 -66.999 26c-34 0 -59.667 -11.167 -77 -33.5s-26 -55.166 -26 -98.499v-565h-94v565c0 67.333 17.333 119.833 52 157.5
s83 56.5 145 56.5c56.667 0 100.667 -15.667 132 -47s47 -75 47 -131c0 -83.333 -35.667 -143.666 -107 -180.999c57.333 -12 101.166 -36.833 131.499 -74.5z" />
    <glyph glyph-name="agrave" unicode="&#xe0;" horiz-adv-x="497" 
d="M376.5 508c33 -28.667 49.5 -68.667 49.5 -120v-388h-83v72c-32.667 -54.667 -83.334 -82 -152.001 -82c-49.333 0 -87.833 14 -115.5 42s-41.5 67.333 -41.5 118c0 63.333 24 110.166 72 140.499s123.667 45.833 227 46.5v41c0 29.333 -9.16699 51.5 -27.5 66.5
s-45.166 22.5 -80.499 22.5c-40 0 -80 -9.66699 -120 -29l-23 74c23.333 12.667 48.5 22.334 75.5 29.001s54.167 10 81.5 10c58.667 0 104.5 -14.333 137.5 -43zM333 130l-0.00195312 139c-71.333 -0.666992 -123.666 -10.167 -156.999 -28.5s-50 -46.5 -50 -84.5
c0 -28 7.33301 -49.167 22 -63.5s36.334 -21.5 65.001 -21.5c45.333 0 85.333 19.667 120 59zM110.998 774v10h101l84 -159v-10h-69z" />
    <glyph glyph-name="aacute" unicode="&#xe1;" horiz-adv-x="497" 
d="M376.5 508c33 -28.667 49.5 -68.667 49.5 -120v-388h-83v72c-32.667 -54.667 -83.334 -82 -152.001 -82c-49.333 0 -87.833 14 -115.5 42s-41.5 67.333 -41.5 118c0 63.333 24 110.166 72 140.499s123.667 45.833 227 46.5v41c0 29.333 -9.16699 51.5 -27.5 66.5
s-45.166 22.5 -80.499 22.5c-40 0 -80 -9.66699 -120 -29l-23 74c23.333 12.667 48.5 22.334 75.5 29.001s54.167 10 81.5 10c58.667 0 104.5 -14.333 137.5 -43zM333 130l-0.00195312 139c-71.333 -0.666992 -123.666 -10.167 -156.999 -28.5s-50 -46.5 -50 -84.5
c0 -28 7.33301 -49.167 22 -63.5s36.334 -21.5 65.001 -21.5c45.333 0 85.333 19.667 120 59zM185.998 625l91 159h101v-10l-123 -159h-69v10z" />
    <glyph glyph-name="acircumflex" unicode="&#xe2;" horiz-adv-x="497" 
d="M376.5 508c33 -28.667 49.5 -68.667 49.5 -120v-388h-83v72c-32.667 -54.667 -83.334 -82 -152.001 -82c-49.333 0 -87.833 14 -115.5 42s-41.5 67.333 -41.5 118c0 63.333 24 110.166 72 140.499s123.667 45.833 227 46.5v41c0 29.333 -9.16699 51.5 -27.5 66.5
s-45.166 22.5 -80.499 22.5c-40 0 -80 -9.66699 -120 -29l-23 74c23.333 12.667 48.5 22.334 75.5 29.001s54.167 10 81.5 10c58.667 0 104.5 -14.333 137.5 -43zM333 130l-0.00195312 139c-71.333 -0.666992 -123.666 -10.167 -156.999 -28.5s-50 -46.5 -50 -84.5
c0 -28 7.33301 -49.167 22 -63.5s36.334 -21.5 65.001 -21.5c45.333 0 85.333 19.667 120 59zM378.998 625v-10h-65l-78 106l-77 -106h-62v10l96 159h90z" />
    <glyph glyph-name="atilde" unicode="&#xe3;" horiz-adv-x="497" 
d="M376.5 508c33 -28.667 49.5 -68.667 49.5 -120v-388h-83v72c-32.667 -54.667 -83.334 -82 -152.001 -82c-49.333 0 -87.833 14 -115.5 42s-41.5 67.333 -41.5 118c0 63.333 24 110.166 72 140.499s123.667 45.833 227 46.5v41c0 29.333 -9.16699 51.5 -27.5 66.5
s-45.166 22.5 -80.499 22.5c-40 0 -80 -9.66699 -120 -29l-23 74c23.333 12.667 48.5 22.334 75.5 29.001s54.167 10 81.5 10c58.667 0 104.5 -14.333 137.5 -43zM333 130l-0.00195312 139c-71.333 -0.666992 -123.666 -10.167 -156.999 -28.5s-50 -46.5 -50 -84.5
c0 -28 7.33301 -49.167 22 -63.5s36.334 -21.5 65.001 -21.5c45.333 0 85.333 19.667 120 59zM260.498 628.5c-13 7 -27.167 16.833 -42.5 29.5c-10.667 8.66699 -19.5 15.167 -26.5 19.5s-14.167 6.5 -21.5 6.5c-21.333 0 -34 -21.333 -38 -64h-56
c0.666992 42.667 9.33398 75.834 26.001 99.501s39.667 35.5 69 35.5c16.667 0 31.5 -3.5 44.5 -10.5s27.167 -16.833 42.5 -29.5c10.667 -8.66699 19.5 -15.167 26.5 -19.5s14.167 -6.5 21.5 -6.5c21.333 0 34 21.333 38 64h56
c-0.666992 -42.667 -9.33398 -75.834 -26.001 -99.501s-39.667 -35.5 -69 -35.5c-16.667 0 -31.5 3.5 -44.5 10.5z" />
    <glyph glyph-name="adieresis" unicode="&#xe4;" horiz-adv-x="497" 
d="M109.5 639.5c-9.66699 10.333 -14.5 24.5 -14.5 42.5c0 18.667 4.83301 33.167 14.5 43.5s23.167 15.5 40.5 15.5s30.833 -5.16699 40.5 -15.5s14.5 -24.5 14.5 -42.5c0 -18.667 -4.83301 -33.167 -14.5 -43.5s-23.167 -15.5 -40.5 -15.5s-30.833 5.16699 -40.5 15.5z
M286.5 639.5c-9.66699 10.333 -14.5 24.5 -14.5 42.5c0 18.667 4.83301 33.167 14.5 43.5s23.167 15.5 40.5 15.5s30.833 -5.16699 40.5 -15.5s14.5 -24.5 14.5 -42.5c0 -18.667 -4.83301 -33.167 -14.5 -43.5s-23.167 -15.5 -40.5 -15.5s-30.833 5.16699 -40.5 15.5z
M376.5 508c33 -28.667 49.5 -68.667 49.5 -120v-388h-83v72c-32.667 -54.667 -83.334 -82 -152.001 -82c-49.333 0 -87.833 14 -115.5 42s-41.5 67.333 -41.5 118c0 63.333 24 110.166 72 140.499s123.667 45.833 227 46.5v41c0 29.333 -9.16699 51.5 -27.5 66.5
s-45.166 22.5 -80.499 22.5c-40 0 -80 -9.66699 -120 -29l-23 74c23.333 12.667 48.5 22.334 75.5 29.001s54.167 10 81.5 10c58.667 0 104.5 -14.333 137.5 -43zM333 130l-0.00195312 139c-71.333 -0.666992 -123.666 -10.167 -156.999 -28.5s-50 -46.5 -50 -84.5
c0 -28 7.33301 -49.167 22 -63.5s36.334 -21.5 65.001 -21.5c45.333 0 85.333 19.667 120 59z" />
    <glyph glyph-name="aring" unicode="&#xe5;" horiz-adv-x="497" 
d="M376.5 508c33 -28.667 49.5 -68.667 49.5 -120v-388h-83v72c-32.667 -54.667 -83.334 -82 -152.001 -82c-49.333 0 -87.833 14 -115.5 42s-41.5 67.333 -41.5 118c0 63.333 24 110.166 72 140.499s123.667 45.833 227 46.5v41c0 29.333 -9.16699 51.5 -27.5 66.5
s-45.166 22.5 -80.499 22.5c-40 0 -80 -9.66699 -120 -29l-23 74c23.333 12.667 48.5 22.334 75.5 29.001s54.167 10 81.5 10c58.667 0 104.5 -14.333 137.5 -43zM333 130l-0.00195312 139c-71.333 -0.666992 -123.666 -10.167 -156.999 -28.5s-50 -46.5 -50 -84.5
c0 -28 7.33301 -49.167 22 -63.5s36.334 -21.5 65.001 -21.5c45.333 0 85.333 19.667 120 59zM152.498 633c-20.333 19.333 -30.5 46.333 -30.5 81s10.167 61.667 30.5 81s48.833 29 85.5 29s65.167 -9.66699 85.5 -29s30.5 -46.333 30.5 -81s-10.167 -61.667 -30.5 -81
s-48.833 -29 -85.5 -29s-65.167 9.66699 -85.5 29zM290.998 714c0 41.333 -17.667 62 -53 62s-53 -20.667 -53 -62s17.667 -62 53 -62s53 20.667 53 62z" />
    <glyph glyph-name="ae" unicode="&#xe6;" horiz-adv-x="777" 
d="M733 242h-316c2.66699 -55.333 16 -97.166 40 -125.499s57.667 -42.5 101 -42.5c42 0 83 12.667 123 38l34 -71c-22 -16.667 -47.333 -29.5 -76 -38.5s-58.334 -13.5 -89.001 -13.5c-41.333 0 -77.666 8.66699 -108.999 26s-56.666 42.333 -75.999 75
c-25.333 -34.667 -52.333 -60 -81 -76s-60.667 -24 -96 -24c-48.667 0 -86.5 14 -113.5 42s-40.5 67 -40.5 117c0 61.333 23.5 106.666 70.5 135.999s121.167 44.333 222.5 45v48c0 29.333 -8.83301 51.5 -26.5 66.5s-43.834 22.5 -78.501 22.5
c-39.333 0 -78.333 -9.66699 -117 -29l-23 74c22.667 12 47.5 21.5 74.5 28.5s53.5 10.5 79.5 10.5c35.333 0 65.5 -6.66699 90.5 -20s44.167 -32.333 57.5 -57c15.333 24.667 35.833 43.667 61.5 57s55.167 20 88.5 20c64 0 113.833 -22.667 149.5 -68s53.5 -109 53.5 -191
c0 -20 -1.33301 -36.667 -4 -50zM452 429.5c-19.333 -26.333 -30.666 -65.5 -33.999 -117.5h225c-0.666992 49.333 -10.834 87.833 -30.501 115.5s-46.834 41.5 -81.501 41.5c-33.333 0 -59.666 -13.167 -78.999 -39.5zM340 149c-10 34 -15 71.667 -15 113
c-68.667 -0.666992 -119 -9.5 -151 -26.5s-48 -43.833 -48 -80.5c0 -56 28 -84 84 -84c48.667 0 92 26 130 78z" />
    <glyph glyph-name="ccedilla" unicode="&#xe7;" horiz-adv-x="447" 
d="M334.5 -78.5c17.667 -14.333 26.499 -34.1689 26.499 -59.502c0 -29.333 -10.167 -52.166 -30.5 -68.499s-49.166 -24.5 -86.499 -24.5c-38.667 0 -72.334 8 -101.001 24l16 47c32.667 -12 59.334 -18 80.001 -18c31.333 0 47 12.667 47 38s-14.333 38 -43 38
c-16.667 0 -30.334 -2.66699 -41.001 -8l-22 25l32 81c-54 12.667 -95.833 42.334 -125.5 89.001s-44.5 107 -44.5 181c0 56.667 9.5 106.5 28.5 149.5s45.667 76.333 80 100s73.833 35.5 118.5 35.5c52.667 0 101.334 -15.333 146.001 -46l-37 -72
c-40.667 22 -77.667 33 -111 33c-40.667 0 -72.167 -16.833 -94.5 -50.5s-33.5 -81.167 -33.5 -142.5c0 -132 47 -198 141 -198c37.333 0 73.333 10.667 108 32l33 -72c-18.667 -14.667 -40.5 -26 -65.5 -34s-52.167 -12 -81.5 -12h-3l-32 -49c6.66699 2 13.667 3 21 3
c32 0 56.833 -7.16699 74.5 -21.5z" />
    <glyph glyph-name="egrave" unicode="&#xe8;" horiz-adv-x="505" 
d="M461 242h-322c2.66699 -55.333 16.167 -97.166 40.5 -125.499s58.833 -42.5 103.5 -42.5s86.667 12.667 126 38l34 -71c-22 -16.667 -47.667 -29.5 -77 -38.5s-59.333 -13.5 -90 -13.5c-73.333 0 -130.333 24.5 -171 73.5s-61 117.833 -61 206.5
c0 89.333 18.833 158.666 56.5 207.999s90.5 74 158.5 74c65.333 0 116 -22.667 152 -68s54 -109 54 -191c0 -20 -1.33301 -36.667 -4 -50zM140 312h231c-0.666992 49.333 -11 87.833 -31 115.5s-47.667 41.5 -83 41.5c-70 0 -109 -52.333 -117 -157zM132 774v10h101
l84 -159v-10h-69z" />
    <glyph glyph-name="eacute" unicode="&#xe9;" horiz-adv-x="505" 
d="M461 242h-322c2.66699 -55.333 16.167 -97.166 40.5 -125.499s58.833 -42.5 103.5 -42.5s86.667 12.667 126 38l34 -71c-22 -16.667 -47.667 -29.5 -77 -38.5s-59.333 -13.5 -90 -13.5c-73.333 0 -130.333 24.5 -171 73.5s-61 117.833 -61 206.5
c0 89.333 18.833 158.666 56.5 207.999s90.5 74 158.5 74c65.333 0 116 -22.667 152 -68s54 -109 54 -191c0 -20 -1.33301 -36.667 -4 -50zM140 312h231c-0.666992 49.333 -11 87.833 -31 115.5s-47.667 41.5 -83 41.5c-70 0 -109 -52.333 -117 -157zM207 625l91 159h101
v-10l-123 -159h-69v10z" />
    <glyph glyph-name="ecircumflex" unicode="&#xea;" horiz-adv-x="505" 
d="M461 242h-322c2.66699 -55.333 16.167 -97.166 40.5 -125.499s58.833 -42.5 103.5 -42.5s86.667 12.667 126 38l34 -71c-22 -16.667 -47.667 -29.5 -77 -38.5s-59.333 -13.5 -90 -13.5c-73.333 0 -130.333 24.5 -171 73.5s-61 117.833 -61 206.5
c0 89.333 18.833 158.666 56.5 207.999s90.5 74 158.5 74c65.333 0 116 -22.667 152 -68s54 -109 54 -191c0 -20 -1.33301 -36.667 -4 -50zM140 312h231c-0.666992 49.333 -11 87.833 -31 115.5s-47.667 41.5 -83 41.5c-70 0 -109 -52.333 -117 -157zM400 625v-10h-65
l-78 106l-77 -106h-62v10l96 159h90z" />
    <glyph glyph-name="edieresis" unicode="&#xeb;" horiz-adv-x="505" 
d="M130.5 639.5c-9.66699 10.333 -14.5 24.5 -14.5 42.5c0 18.667 4.83301 33.167 14.5 43.5s23.167 15.5 40.5 15.5s30.833 -5.16699 40.5 -15.5s14.5 -24.5 14.5 -42.5c0 -18.667 -4.83301 -33.167 -14.5 -43.5s-23.167 -15.5 -40.5 -15.5s-30.833 5.16699 -40.5 15.5z
M307.5 639.5c-9.66699 10.333 -14.5 24.5 -14.5 42.5c0 18.667 4.83301 33.167 14.5 43.5s23.167 15.5 40.5 15.5s30.833 -5.16699 40.5 -15.5s14.5 -24.5 14.5 -42.5c0 -18.667 -4.83301 -33.167 -14.5 -43.5s-23.167 -15.5 -40.5 -15.5s-30.833 5.16699 -40.5 15.5z
M461 242h-322c2.66699 -55.333 16.167 -97.166 40.5 -125.499s58.833 -42.5 103.5 -42.5s86.667 12.667 126 38l34 -71c-22 -16.667 -47.667 -29.5 -77 -38.5s-59.333 -13.5 -90 -13.5c-73.333 0 -130.333 24.5 -171 73.5s-61 117.833 -61 206.5
c0 89.333 18.833 158.666 56.5 207.999s90.5 74 158.5 74c65.333 0 116 -22.667 152 -68s54 -109 54 -191c0 -20 -1.33301 -36.667 -4 -50zM140 312h231c-0.666992 49.333 -11 87.833 -31 115.5s-47.667 41.5 -83 41.5c-70 0 -109 -52.333 -117 -157z" />
    <glyph glyph-name="igrave" unicode="&#xec;" horiz-adv-x="255" 
d="M80 539h94v-539h-94v539zM0 774v10h101l84 -159v-10h-69z" />
    <glyph glyph-name="iacute" unicode="&#xed;" horiz-adv-x="255" 
d="M80 539h94v-539h-94v539zM75 625l91 159h101v-10l-123 -159h-69v10z" />
    <glyph glyph-name="icircumflex" unicode="&#xee;" horiz-adv-x="255" 
d="M80 539h94v-539h-94v539zM268 625v-10h-65l-78 106l-77 -106h-62v10l96 159h90z" />
    <glyph glyph-name="idieresis" unicode="&#xef;" horiz-adv-x="255" 
d="M8.5 639.5c-9.66699 10.333 -14.5 24.5 -14.5 42.5c0 18.667 4.83301 33.167 14.5 43.5s22.834 15.5 39.501 15.5c17.333 0 30.666 -5.16699 39.999 -15.5s14 -24.5 14 -42.5c0 -18.667 -4.66699 -33.167 -14 -43.5s-22.666 -15.5 -39.999 -15.5
c-16.667 0 -29.834 5.16699 -39.501 15.5zM166.5 639.5c-9.66699 10.333 -14.5 24.5 -14.5 42.5c0 18.667 4.83301 33.167 14.5 43.5s22.834 15.5 39.501 15.5c17.333 0 30.666 -5.16699 39.999 -15.5s14 -24.5 14 -42.5c0 -18.667 -4.66699 -33.167 -14 -43.5
s-22.666 -15.5 -39.999 -15.5c-16.667 0 -29.834 5.16699 -39.501 15.5zM80 539h94v-539h-94v539z" />
    <glyph glyph-name="eth" unicode="&#xf0;" horiz-adv-x="522" 
d="M438 516.5c25.333 -63.667 38.002 -139.166 38.002 -226.499c0 -99.333 -18.5 -174.5 -55.5 -225.5s-90.833 -76.5 -161.5 -76.5c-70 0 -123.833 23 -161.5 69s-56.5 113.667 -56.5 203c0 84.667 18 150.5 54 197.5s86.667 70.5 152 70.5c51.333 0 91 -18.667 119 -56
c-22 67.333 -58.667 123 -110 167l-112 -73l-29 50l96 56c-24 14.667 -50 27.667 -78 39l-27 11l22 62l28 -11c43.333 -17.333 82.666 -37.333 117.999 -60l97 64l29 -50l-80 -48c53.333 -44.667 92.666 -98.834 117.999 -162.501zM349.502 120.001
c20.333 32.667 30.5 80.668 30.5 144.001c0 58.667 -10.667 104.167 -32 136.5s-51 48.5 -89 48.5c-40 0 -70.167 -16 -90.5 -48s-30.5 -79 -30.5 -141c0 -62.667 10.167 -109.834 30.5 -141.501s50.5 -47.5 90.5 -47.5s70.167 16.333 90.5 49z" />
    <glyph glyph-name="ntilde" unicode="&#xf1;" horiz-adv-x="545" 
d="M430.5 508c27.667 -28.667 41.498 -68.667 41.498 -120v-388h-94v377c0 57.333 -31 86 -93 86c-21.333 0 -41.166 -3.83301 -59.499 -11.5s-36.166 -19.5 -53.499 -35.5v-416h-94v539h84v-61c41.333 48.667 92.666 73 153.999 73c48.667 0 86.834 -14.333 114.501 -43z
M297.498 628.5c-13 7 -27.167 16.833 -42.5 29.5c-10.667 8.66699 -19.5 15.167 -26.5 19.5s-14.167 6.5 -21.5 6.5c-21.333 0 -34 -21.333 -38 -64h-56c0.666992 42.667 9.33398 75.834 26.001 99.501s39.667 35.5 69 35.5c16.667 0 31.5 -3.5 44.5 -10.5
s27.167 -16.833 42.5 -29.5c10.667 -8.66699 19.5 -15.167 26.5 -19.5s14.167 -6.5 21.5 -6.5c21.333 0 34 21.333 38 64h56c-0.666992 -42.667 -9.33398 -75.834 -26.001 -99.501s-39.667 -35.5 -69 -35.5c-16.667 0 -31.5 3.5 -44.5 10.5z" />
    <glyph glyph-name="ograve" unicode="&#xf2;" horiz-adv-x="521" 
d="M101.5 59.5c-37 47.667 -55.5 117.5 -55.5 209.5s18.5 162 55.5 210s90.167 72 159.5 72c68.667 0 121.5 -24 158.5 -72s55.5 -118 55.5 -210s-18.5 -161.833 -55.5 -209.5s-90.167 -71.5 -159.5 -71.5c-68.667 0 -121.5 23.833 -158.5 71.5zM348.5 121
c19.667 33.333 29.5 82.666 29.5 147.999c0 66 -9.83301 115.667 -29.5 149s-48.834 50 -87.501 50c-78.667 0 -118 -66.333 -118 -199c0 -65.333 9.83301 -114.666 29.5 -147.999s48.834 -50 87.501 -50c39.333 0 68.833 16.667 88.5 50zM134 774v10h101l84 -159v-10h-69z
" />
    <glyph glyph-name="oacute" unicode="&#xf3;" horiz-adv-x="521" 
d="M101.5 59.5c-37 47.667 -55.5 117.5 -55.5 209.5s18.5 162 55.5 210s90.167 72 159.5 72c68.667 0 121.5 -24 158.5 -72s55.5 -118 55.5 -210s-18.5 -161.833 -55.5 -209.5s-90.167 -71.5 -159.5 -71.5c-68.667 0 -121.5 23.833 -158.5 71.5zM348.5 121
c19.667 33.333 29.5 82.666 29.5 147.999c0 66 -9.83301 115.667 -29.5 149s-48.834 50 -87.501 50c-78.667 0 -118 -66.333 -118 -199c0 -65.333 9.83301 -114.666 29.5 -147.999s48.834 -50 87.501 -50c39.333 0 68.833 16.667 88.5 50zM209 625l91 159h101v-10l-123 -159
h-69v10z" />
    <glyph glyph-name="ocircumflex" unicode="&#xf4;" horiz-adv-x="521" 
d="M101.5 59.5c-37 47.667 -55.5 117.5 -55.5 209.5s18.5 162 55.5 210s90.167 72 159.5 72c68.667 0 121.5 -24 158.5 -72s55.5 -118 55.5 -210s-18.5 -161.833 -55.5 -209.5s-90.167 -71.5 -159.5 -71.5c-68.667 0 -121.5 23.833 -158.5 71.5zM348.5 121
c19.667 33.333 29.5 82.666 29.5 147.999c0 66 -9.83301 115.667 -29.5 149s-48.834 50 -87.501 50c-78.667 0 -118 -66.333 -118 -199c0 -65.333 9.83301 -114.666 29.5 -147.999s48.834 -50 87.501 -50c39.333 0 68.833 16.667 88.5 50zM402 625v-10h-65l-78 106l-77 -106
h-62v10l96 159h90z" />
    <glyph glyph-name="otilde" unicode="&#xf5;" horiz-adv-x="521" 
d="M101.5 59.5c-37 47.667 -55.5 117.5 -55.5 209.5s18.5 162 55.5 210s90.167 72 159.5 72c68.667 0 121.5 -24 158.5 -72s55.5 -118 55.5 -210s-18.5 -161.833 -55.5 -209.5s-90.167 -71.5 -159.5 -71.5c-68.667 0 -121.5 23.833 -158.5 71.5zM348.5 121
c19.667 33.333 29.5 82.666 29.5 147.999c0 66 -9.83301 115.667 -29.5 149s-48.834 50 -87.501 50c-78.667 0 -118 -66.333 -118 -199c0 -65.333 9.83301 -114.666 29.5 -147.999s48.834 -50 87.501 -50c39.333 0 68.833 16.667 88.5 50zM283.5 628.5
c-13 7 -27.167 16.833 -42.5 29.5c-10.667 8.66699 -19.5 15.167 -26.5 19.5s-14.167 6.5 -21.5 6.5c-21.333 0 -34 -21.333 -38 -64h-56c0.666992 42.667 9.33398 75.834 26.001 99.501s39.667 35.5 69 35.5c16.667 0 31.5 -3.5 44.5 -10.5s27.167 -16.833 42.5 -29.5
c10.667 -8.66699 19.5 -15.167 26.5 -19.5s14.167 -6.5 21.5 -6.5c21.333 0 34 21.333 38 64h56c-0.666992 -42.667 -9.33398 -75.834 -26.001 -99.501s-39.667 -35.5 -69 -35.5c-16.667 0 -31.5 3.5 -44.5 10.5z" />
    <glyph glyph-name="odieresis" unicode="&#xf6;" horiz-adv-x="521" 
d="M132.5 639.5c-9.66699 10.333 -14.5 24.5 -14.5 42.5c0 18.667 4.83301 33.167 14.5 43.5s23.167 15.5 40.5 15.5s30.833 -5.16699 40.5 -15.5s14.5 -24.5 14.5 -42.5c0 -18.667 -4.83301 -33.167 -14.5 -43.5s-23.167 -15.5 -40.5 -15.5s-30.833 5.16699 -40.5 15.5z
M309.5 639.5c-9.66699 10.333 -14.5 24.5 -14.5 42.5c0 18.667 4.83301 33.167 14.5 43.5s23.167 15.5 40.5 15.5s30.833 -5.16699 40.5 -15.5s14.5 -24.5 14.5 -42.5c0 -18.667 -4.83301 -33.167 -14.5 -43.5s-23.167 -15.5 -40.5 -15.5s-30.833 5.16699 -40.5 15.5z
M101.5 59.5c-37 47.667 -55.5 117.5 -55.5 209.5s18.5 162 55.5 210s90.167 72 159.5 72c68.667 0 121.5 -24 158.5 -72s55.5 -118 55.5 -210s-18.5 -161.833 -55.5 -209.5s-90.167 -71.5 -159.5 -71.5c-68.667 0 -121.5 23.833 -158.5 71.5zM348.5 121
c19.667 33.333 29.5 82.666 29.5 147.999c0 66 -9.83301 115.667 -29.5 149s-48.834 50 -87.501 50c-78.667 0 -118 -66.333 -118 -199c0 -65.333 9.83301 -114.666 29.5 -147.999s48.834 -50 87.501 -50c39.333 0 68.833 16.667 88.5 50z" />
    <glyph glyph-name="divide" unicode="&#xf7;" horiz-adv-x="538" 
d="M227.5 510c-11 10.667 -16.5 25.334 -16.5 44.001c0 18 5.5 32.667 16.5 44s25.167 17 42.5 17c16.667 0 30.5 -5.66699 41.5 -17s16.5 -26 16.5 -44c0 -18.667 -5.5 -33.334 -16.5 -44.001s-24.833 -16 -41.5 -16c-17.333 0 -31.5 5.33301 -42.5 16zM60 411h418v-85
h-418v85zM227.5 138c-11 10.667 -16.5 25.334 -16.5 44.001c0 18 5.5 32.667 16.5 44s25.167 17 42.5 17c16.667 0 30.5 -5.66699 41.5 -17s16.5 -26 16.5 -44c0 -18.667 -5.5 -33.334 -16.5 -44.001s-24.833 -16 -41.5 -16c-17.333 0 -31.5 5.33301 -42.5 16z" />
    <glyph glyph-name="oslash" unicode="&#xf8;" horiz-adv-x="521" 
d="M504 539l-67.001 -87.001c25.333 -46.667 38 -107.667 38 -183c0 -92 -18.5 -161.833 -55.5 -209.5s-90.167 -71.5 -159.5 -71.5c-55.333 0 -100.666 16 -135.999 48l-33 -46h-74v10l67 87c-25.333 46.667 -38 107.334 -38 182.001c0 92 18.5 162 55.5 210
s90.167 72 159.5 72c54.667 0 100 -16.333 136 -49l33 47h74v-10zM138.999 268.999c0 -38 3 -70.667 9 -98l197 261c-20 26 -48 39 -84 39c-81.333 0 -122 -67.333 -122 -202zM350.999 117.999c20.667 34 31 84.332 31 150.999c0 38.667 -3 71.334 -9 98.001l-197 -260
c20 -26.667 48 -40 84 -40c40 0 70.333 17 91 51z" />
    <glyph glyph-name="ugrave" unicode="&#xf9;" horiz-adv-x="537" 
d="M459 539v-539h-84v69c-34.667 -54 -85 -81 -151 -81c-48.667 0 -86.334 14.167 -113.001 42.5s-40 68.166 -40 119.499v389h94v-377c0 -28.667 7.5 -50.167 22.5 -64.5s37.167 -21.5 66.5 -21.5c22.667 0 42.834 4.33301 60.501 13s34.5 22.334 50.5 41.001v409h94z
M139 774v10h101l84 -159v-10h-69z" />
    <glyph glyph-name="uacute" unicode="&#xfa;" horiz-adv-x="537" 
d="M459 539v-539h-84v69c-34.667 -54 -85 -81 -151 -81c-48.667 0 -86.334 14.167 -113.001 42.5s-40 68.166 -40 119.499v389h94v-377c0 -28.667 7.5 -50.167 22.5 -64.5s37.167 -21.5 66.5 -21.5c22.667 0 42.834 4.33301 60.501 13s34.5 22.334 50.5 41.001v409h94z
M214 625l91 159h101v-10l-123 -159h-69v10z" />
    <glyph glyph-name="ucircumflex" unicode="&#xfb;" horiz-adv-x="537" 
d="M459 539v-539h-84v69c-34.667 -54 -85 -81 -151 -81c-48.667 0 -86.334 14.167 -113.001 42.5s-40 68.166 -40 119.499v389h94v-377c0 -28.667 7.5 -50.167 22.5 -64.5s37.167 -21.5 66.5 -21.5c22.667 0 42.834 4.33301 60.501 13s34.5 22.334 50.5 41.001v409h94z
M407 625v-10h-65l-78 106l-77 -106h-62v10l96 159h90z" />
    <glyph glyph-name="udieresis" unicode="&#xfc;" horiz-adv-x="537" 
d="M137.5 639.5c-9.66699 10.333 -14.5 24.5 -14.5 42.5c0 18.667 4.83301 33.167 14.5 43.5s23.167 15.5 40.5 15.5s30.833 -5.16699 40.5 -15.5s14.5 -24.5 14.5 -42.5c0 -18.667 -4.83301 -33.167 -14.5 -43.5s-23.167 -15.5 -40.5 -15.5s-30.833 5.16699 -40.5 15.5z
M314.5 639.5c-9.66699 10.333 -14.5 24.5 -14.5 42.5c0 18.667 4.83301 33.167 14.5 43.5s23.167 15.5 40.5 15.5s30.833 -5.16699 40.5 -15.5s14.5 -24.5 14.5 -42.5c0 -18.667 -4.83301 -33.167 -14.5 -43.5s-23.167 -15.5 -40.5 -15.5s-30.833 5.16699 -40.5 15.5z
M459 539v-539h-84v69c-34.667 -54 -85 -81 -151 -81c-48.667 0 -86.334 14.167 -113.001 42.5s-40 68.166 -40 119.499v389h94v-377c0 -28.667 7.5 -50.167 22.5 -64.5s37.167 -21.5 66.5 -21.5c22.667 0 42.834 4.33301 60.501 13s34.5 22.334 50.5 41.001v409h94z" />
    <glyph glyph-name="yacute" unicode="&#xfd;" horiz-adv-x="492" 
d="M467 539l-169.999 -532.001c-16.667 -53.333 -44.5 -98.5 -83.5 -135.5s-90.167 -66.833 -153.5 -89.5l-33 80c44.667 16.667 80.667 35.334 108 56.001s48.666 45.667 63.999 75l-174 546h99l124 -436l121 436h98zM195.001 624.999l91 159h101v-10l-123 -159h-69v10z
" />
    <glyph glyph-name="thorn" unicode="&#xfe;" horiz-adv-x="537" 
d="M442.5 476c33 -50 49.4971 -119.667 49.4971 -209c0 -88 -17.167 -156.5 -51.5 -205.5s-82.166 -73.5 -143.499 -73.5c-25.333 0 -48.666 5 -69.999 15s-39.666 24.333 -54.999 43v-253h-94v275v432v270h94v-287c34 45.333 78.333 68 133 68
c58.667 0 104.5 -25 137.5 -75zM366.497 121c19 32.667 28.5 80.667 28.5 144c0 132 -39.667 198 -119 198c-20 0 -38.333 -4.5 -55 -13.5s-33 -23.167 -49 -42.5v-282c14.667 -16.667 31.667 -29.667 51 -39s39.333 -14 60 -14c36.667 0 64.5 16.333 83.5 49z" />
    <glyph glyph-name="ydieresis" unicode="&#xff;" horiz-adv-x="492" 
d="M118.5 639.5c-9.66699 10.333 -14.5 24.5 -14.5 42.5c0 18.667 4.83301 33.167 14.5 43.5s23.167 15.5 40.5 15.5s30.833 -5.16699 40.5 -15.5s14.5 -24.5 14.5 -42.5c0 -18.667 -4.83301 -33.167 -14.5 -43.5s-23.167 -15.5 -40.5 -15.5s-30.833 5.16699 -40.5 15.5z
M295.5 639.5c-9.66699 10.333 -14.5 24.5 -14.5 42.5c0 18.667 4.83301 33.167 14.5 43.5s23.167 15.5 40.5 15.5s30.833 -5.16699 40.5 -15.5s14.5 -24.5 14.5 -42.5c0 -18.667 -4.83301 -33.167 -14.5 -43.5s-23.167 -15.5 -40.5 -15.5s-30.833 5.16699 -40.5 15.5z
M467 539l-169.999 -532.001c-16.667 -53.333 -44.5 -98.5 -83.5 -135.5s-90.167 -66.833 -153.5 -89.5l-33 80c44.667 16.667 80.667 35.334 108 56.001s48.666 45.667 63.999 75l-174 546h99l124 -436l121 436h98z" />
    <glyph glyph-name="Amacron" unicode="&#x100;" horiz-adv-x="634" 
d="M459 810h-284v68h284v-68zM449 183h-266l-55 -183h-102l237 724h107l237 -724h-103zM424 267l-109 364l-108 -364h217z" />
    <glyph glyph-name="amacron" unicode="&#x101;" horiz-adv-x="497" 
d="M376.5 508c33 -28.667 49.5 -68.667 49.5 -120v-388h-83v72c-32.667 -54.667 -83.334 -82 -152.001 -82c-49.333 0 -87.833 14 -115.5 42s-41.5 67.333 -41.5 118c0 63.333 24 110.166 72 140.499s123.667 45.833 227 46.5v41c0 29.333 -9.16699 51.5 -27.5 66.5
s-45.166 22.5 -80.499 22.5c-40 0 -80 -9.66699 -120 -29l-23 74c23.333 12.667 48.5 22.334 75.5 29.001s54.167 10 81.5 10c58.667 0 104.5 -14.333 137.5 -43zM333 130l-0.00195312 139c-71.333 -0.666992 -123.666 -10.167 -156.999 -28.5s-50 -46.5 -50 -84.5
c0 -28 7.33301 -49.167 22 -63.5s36.334 -21.5 65.001 -21.5c45.333 0 85.333 19.667 120 59zM95.998 708h284v-68h-284v68z" />
    <glyph glyph-name="Abreve" unicode="&#x102;" horiz-adv-x="634" 
d="M217 824.5c-24.667 27 -38 64.833 -40 113.5h58c7.33301 -54.667 35 -82 83 -82c48.667 0 76.667 27.333 84 82h55c-2 -48.667 -15.333 -86.5 -40 -113.5s-58 -40.5 -100 -40.5s-75.333 13.5 -100 40.5zM449 183h-266l-55 -183h-102l237 724h107l237 -724h-103zM424 267
l-109 364l-108 -364h217z" />
    <glyph glyph-name="abreve" unicode="&#x103;" horiz-adv-x="497" 
d="M376.5 508c33 -28.667 49.5 -68.667 49.5 -120v-388h-83v72c-32.667 -54.667 -83.334 -82 -152.001 -82c-49.333 0 -87.833 14 -115.5 42s-41.5 67.333 -41.5 118c0 63.333 24 110.166 72 140.499s123.667 45.833 227 46.5v41c0 29.333 -9.16699 51.5 -27.5 66.5
s-45.166 22.5 -80.499 22.5c-40 0 -80 -9.66699 -120 -29l-23 74c23.333 12.667 48.5 22.334 75.5 29.001s54.167 10 81.5 10c58.667 0 104.5 -14.333 137.5 -43zM333 130l-0.00195312 139c-71.333 -0.666992 -123.666 -10.167 -156.999 -28.5s-50 -46.5 -50 -84.5
c0 -28 7.33301 -49.167 22 -63.5s36.334 -21.5 65.001 -21.5c45.333 0 85.333 19.667 120 59zM137.998 654.5c-24.667 27 -38 64.833 -40 113.5h58c7.33301 -54.667 35 -82 83 -82c48.667 0 76.667 27.333 84 82h55c-2 -48.667 -15.333 -86.5 -40 -113.5
s-58 -40.5 -100 -40.5s-75.333 13.5 -100 40.5z" />
    <glyph glyph-name="Aogonek" unicode="&#x104;" horiz-adv-x="634" 
d="M652 -191c-12.667 -9.33301 -27.832 -16.667 -45.499 -22s-35.834 -8 -54.501 -8c-32.667 0 -58.167 8.16699 -76.5 24.5s-27.5 39.166 -27.5 68.499c0 25.333 7 49.333 21 72s33.333 41.334 58 56.001h-23l-55 183h-266l-55 -183h-102l237 724h107l237 -724
c-52.667 -33.333 -79 -70 -79 -110c0 -30 15 -45 45 -45c18.667 0 37.667 5.33301 57 16zM424.002 266.999l-109 364l-108 -364h217z" />
    <glyph glyph-name="aogonek" unicode="&#x105;" horiz-adv-x="497" 
d="M470 -191c-12.667 -9.33301 -27.833 -16.668 -45.5 -22.001s-35.834 -8 -54.501 -8c-32.667 0 -58.167 8.16699 -76.5 24.5s-27.5 39.166 -27.5 68.499c0 25.333 7 49.333 21 72s33.333 41.334 58 56.001h-1v74c-20.667 -29.333 -43.167 -50.666 -67.5 -63.999
s-52.833 -20 -85.5 -20c-49.333 0 -87.833 14 -115.5 42s-41.5 67.333 -41.5 118c0 63.333 24 110.166 72 140.499s123.667 45.833 227 46.5v41c0 29.333 -9.16699 51.5 -27.5 66.5s-45.166 22.5 -80.499 22.5c-40 0 -80 -9.66699 -120 -29l-23 74
c23.333 12.667 48.5 22.334 75.5 29.001s54.167 10 81.5 10c58.667 0 104.5 -14.333 137.5 -43s49.5 -68.667 49.5 -120v-388h-1c-52.667 -33.333 -79 -70 -79 -110c0 -30 15 -45 45 -45c18.667 0 37.667 5.33301 57 16zM333.001 129.998l-0.00195312 139
c-71.333 -0.666992 -123.666 -10 -156.999 -28s-50 -46.333 -50 -85c0 -28 7.33301 -49.167 22 -63.5s36.334 -21.5 65.001 -21.5c45.333 0 85.333 19.667 120 59z" />
    <glyph glyph-name="Cacute" unicode="&#x106;" horiz-adv-x="561" 
d="M265 793l141 133h111v-12l-173 -133h-79v12zM123 83.5c-54 63 -81 151.167 -81 264.5c0 78.667 12.333 147.167 37 205.5s59.834 103.333 105.501 135s99.167 47.5 160.5 47.5c32 0 63.667 -4.5 95 -13.5s59.333 -21.5 84 -37.5l-32 -75c-52 26 -101.333 39 -148 39
c-64 0 -113.667 -25.667 -149 -77s-53 -123.333 -53 -216c0 -92 18 -161.5 54 -208.5s89.333 -70.5 160 -70.5c51.333 0 98.333 11.667 141 35l33 -73c-20.667 -15.333 -46.834 -27.5 -78.501 -36.5s-65.5 -13.5 -101.5 -13.5c-97.333 0 -173 31.5 -227 94.5z" />
    <glyph glyph-name="cacute" unicode="&#x107;" horiz-adv-x="447" 
d="M103 62c-40.667 48.667 -61.001 116.667 -61.001 204c0 56.667 9.5 106.5 28.5 149.5s45.667 76.333 80 100s73.833 35.5 118.5 35.5c52.667 0 101.334 -15.333 146.001 -46l-37 -72c-40.667 22 -77.667 33 -111 33c-40.667 0 -72.167 -16.833 -94.5 -50.5
s-33.5 -81.167 -33.5 -142.5c0 -132 47 -198 141 -198c37.333 0 73.333 10.667 108 32l33 -72c-18.667 -14.667 -40.5 -26 -65.5 -34s-52.167 -12 -81.5 -12c-73.333 0 -130.333 24.333 -171 73zM185.999 625l91 159h101v-10l-123 -159h-69v10z" />
    <glyph glyph-name="Ccircumflex" unicode="&#x108;" horiz-adv-x="561" 
d="M241 781h-68v12l110 133h96l110 -133v-12h-71l-89 90zM530 39c-20.667 -15.333 -46.834 -27.5 -78.501 -36.5s-65.5 -13.5 -101.5 -13.5c-97.333 0 -173 31.5 -227 94.5s-81 151.167 -81 264.5c0 78.667 12.333 147.167 37 205.5s59.834 103.333 105.501 135
s99.167 47.5 160.5 47.5c32 0 63.667 -4.5 95 -13.5s59.333 -21.5 84 -37.5l-32 -75c-52 26 -101.333 39 -148 39c-64 0 -113.667 -25.667 -149 -77s-53 -123.333 -53 -216c0 -92 18 -161.5 54 -208.5s89.333 -70.5 160 -70.5c51.333 0 98.333 11.667 141 35z" />
    <glyph glyph-name="ccircumflex" unicode="&#x109;" horiz-adv-x="447" 
d="M103 62c-40.667 48.667 -61.001 116.667 -61.001 204c0 56.667 9.5 106.5 28.5 149.5s45.667 76.333 80 100s73.833 35.5 118.5 35.5c52.667 0 101.334 -15.333 146.001 -46l-37 -72c-40.667 22 -77.667 33 -111 33c-40.667 0 -72.167 -16.833 -94.5 -50.5
s-33.5 -81.167 -33.5 -142.5c0 -132 47 -198 141 -198c37.333 0 73.333 10.667 108 32l33 -72c-18.667 -14.667 -40.5 -26 -65.5 -34s-52.167 -12 -81.5 -12c-73.333 0 -130.333 24.333 -171 73zM378.999 625v-10h-65l-78 106l-77 -106h-62v10l96 159h90z" />
    <glyph glyph-name="Cdotaccent" unicode="&#x10a;" horiz-adv-x="561" 
d="M287.5 808c-10.333 10.667 -15.5 25.667 -15.5 45s5.16699 34.5 15.5 45.5s24.833 16.5 43.5 16.5s33.167 -5.33301 43.5 -16s15.5 -25.667 15.5 -45s-5.16699 -34.5 -15.5 -45.5s-24.833 -16.5 -43.5 -16.5s-33.167 5.33301 -43.5 16zM123 83.5
c-54 63 -81 151.167 -81 264.5c0 78.667 12.333 147.167 37 205.5s59.834 103.333 105.501 135s99.167 47.5 160.5 47.5c32 0 63.667 -4.5 95 -13.5s59.333 -21.5 84 -37.5l-32 -75c-52 26 -101.333 39 -148 39c-64 0 -113.667 -25.667 -149 -77s-53 -123.333 -53 -216
c0 -92 18 -161.5 54 -208.5s89.333 -70.5 160 -70.5c51.333 0 98.333 11.667 141 35l33 -73c-20.667 -15.333 -46.834 -27.5 -78.501 -36.5s-65.5 -13.5 -101.5 -13.5c-97.333 0 -173 31.5 -227 94.5z" />
    <glyph glyph-name="cdotaccent" unicode="&#x10b;" horiz-adv-x="447" 
d="M103 62c-40.667 48.667 -61.001 116.667 -61.001 204c0 56.667 9.5 106.5 28.5 149.5s45.667 76.333 80 100s73.833 35.5 118.5 35.5c52.667 0 101.334 -15.333 146.001 -46l-37 -72c-40.667 22 -77.667 33 -111 33c-40.667 0 -72.167 -16.833 -94.5 -50.5
s-33.5 -81.167 -33.5 -142.5c0 -132 47 -198 141 -198c37.333 0 73.333 10.667 108 32l33 -72c-18.667 -14.667 -40.5 -26 -65.5 -34s-52.167 -12 -81.5 -12c-73.333 0 -130.333 24.333 -171 73zM194.499 642c-10.333 10.667 -15.5 25.667 -15.5 45s5.16699 34.5 15.5 45.5
s24.833 16.5 43.5 16.5s33.167 -5.33301 43.5 -16s15.5 -25.667 15.5 -45s-5.16699 -34.5 -15.5 -45.5s-24.833 -16.5 -43.5 -16.5s-33.167 5.33301 -43.5 16z" />
    <glyph glyph-name="Ccaron" unicode="&#x10c;" horiz-adv-x="561" 
d="M283 781l-110 133v12h71l89 -90l88 90h68v-12l-110 -133h-96zM530 39c-20.667 -15.333 -46.834 -27.5 -78.501 -36.5s-65.5 -13.5 -101.5 -13.5c-97.333 0 -173 31.5 -227 94.5s-81 151.167 -81 264.5c0 78.667 12.333 147.167 37 205.5s59.834 103.333 105.501 135
s99.167 47.5 160.5 47.5c32 0 63.667 -4.5 95 -13.5s59.333 -21.5 84 -37.5l-32 -75c-52 26 -101.333 39 -148 39c-64 0 -113.667 -25.667 -149 -77s-53 -123.333 -53 -216c0 -92 18 -161.5 54 -208.5s89.333 -70.5 160 -70.5c51.333 0 98.333 11.667 141 35z" />
    <glyph glyph-name="ccaron" unicode="&#x10d;" horiz-adv-x="447" 
d="M103 62c-40.667 48.667 -61.001 116.667 -61.001 204c0 56.667 9.5 106.5 28.5 149.5s45.667 76.333 80 100s73.833 35.5 118.5 35.5c52.667 0 101.334 -15.333 146.001 -46l-37 -72c-40.667 22 -77.667 33 -111 33c-40.667 0 -72.167 -16.833 -94.5 -50.5
s-33.5 -81.167 -33.5 -142.5c0 -132 47 -198 141 -198c37.333 0 73.333 10.667 108 32l33 -72c-18.667 -14.667 -40.5 -26 -65.5 -34s-52.167 -12 -81.5 -12c-73.333 0 -130.333 24.333 -171 73zM378.999 784v-10l-96 -159h-90l-96 159v10h65l77 -106l78 106h62z" />
    <glyph glyph-name="Dcaron" unicode="&#x10e;" horiz-adv-x="647" 
d="M269 781l-110 133v12h71l89 -90l88 90h68v-12l-110 -133h-96zM514 632.5c53.333 -61 80.001 -151.167 80.001 -270.5s-26.833 -209.5 -80.5 -270.5s-131.5 -91.5 -233.5 -91.5h-197v724h199c101.333 0 178.666 -30.5 231.999 -91.5zM440.501 154.5
c35.667 46.333 53.499 115.5 53.499 207.5c0 91.333 -18 160.333 -54 207s-89.667 70 -161 70h-100v-554h102c70.667 0 123.834 23.167 159.501 69.5z" />
    <glyph glyph-name="dcaron" unicode="&#x10f;" horiz-adv-x="537" 
d="M365 770h93.999v-770h-83v73c-33.333 -56.667 -81 -85 -143 -85c-59.333 0 -105.333 24.833 -138 74.5s-49 119.167 -49 208.5c0 88.667 17 157.5 51 206.5s81.667 73.5 143 73.5c25.333 0 48.833 -5 70.5 -15s39.834 -24.333 54.501 -43v277zM609.999 770v-10l-30 -208
h-54v218h84zM316.999 89c16.667 8.66699 32.666 22.667 47.999 42v283c-14.667 16.667 -31.667 29.667 -51 39s-39 14 -59 14c-36.667 0 -64.5 -16.333 -83.5 -49s-28.5 -81 -28.5 -145c0 -65.333 10 -114.5 30 -147.5s49.333 -49.5 88 -49.5
c20.667 0 39.334 4.33301 56.001 13z" />
    <glyph glyph-name="Dcroat" unicode="&#x110;" horiz-adv-x="647" 
d="M514 632.5c53.333 -61 80.001 -151.167 80.001 -270.5s-26.833 -209.5 -80.5 -270.5s-131.5 -91.5 -233.5 -91.5h-197v328h-62v77h62v319h199c101.333 0 178.666 -30.5 231.999 -91.5zM440.501 154.5c35.667 46.333 53.499 115.5 53.499 207.5
c0 91.333 -18 160.333 -54 207s-89.667 70 -161 70h-100v-234h166v-77h-166v-243h102c70.667 0 123.834 23.167 159.501 69.5z" />
    <glyph glyph-name="dcroat" unicode="&#x111;" horiz-adv-x="539" 
d="M523 618l-62.002 0.000976562v-618h-84v71c-32.667 -55.333 -80 -83 -142 -83c-59.333 0 -105.666 24.167 -138.999 72.5s-50 115.833 -50 202.5c0 84.667 17.167 150.667 51.5 198s82.5 71 144.5 71c25.333 0 48.833 -4.83301 70.5 -14.5s39.834 -23.834 54.501 -42.501
v143h-200v62h200v90h94v-90h62v-62zM366.998 131.001v264.001c-14.667 16.667 -31.667 29.667 -51 39s-39 14 -59 14c-38 0 -66.667 -15.333 -86 -46s-29 -76.334 -29 -137.001c0 -126.667 40.333 -190 121 -190c38 0 72.667 18.667 104 56z" />
    <glyph glyph-name="Emacron" unicode="&#x112;" horiz-adv-x="538" 
d="M434 810h-284v68h284v-68zM504 85v-85h-421v724h408v-85h-312v-226h231v-85h-231v-243h325z" />
    <glyph glyph-name="emacron" unicode="&#x113;" horiz-adv-x="505" 
d="M461 242h-322c2.66699 -55.333 16.167 -97.166 40.5 -125.499s58.833 -42.5 103.5 -42.5s86.667 12.667 126 38l34 -71c-22 -16.667 -47.667 -29.5 -77 -38.5s-59.333 -13.5 -90 -13.5c-73.333 0 -130.333 24.5 -171 73.5s-61 117.833 -61 206.5
c0 89.333 18.833 158.666 56.5 207.999s90.5 74 158.5 74c65.333 0 116 -22.667 152 -68s54 -109 54 -191c0 -20 -1.33301 -36.667 -4 -50zM140 312h231c-0.666992 49.333 -11 87.833 -31 115.5s-47.667 41.5 -83 41.5c-70 0 -109 -52.333 -117 -157zM117 708h284v-68h-284
v68z" />
    <glyph glyph-name="Ebreve" unicode="&#x114;" horiz-adv-x="538" 
d="M192 824.5c-24.667 27 -38 64.833 -40 113.5h58c7.33301 -54.667 35 -82 83 -82c48.667 0 76.667 27.333 84 82h55c-2 -48.667 -15.333 -86.5 -40 -113.5s-58 -40.5 -100 -40.5s-75.333 13.5 -100 40.5zM504 85v-85h-421v724h408v-85h-312v-226h231v-85h-231v-243h325z
" />
    <glyph glyph-name="ebreve" unicode="&#x115;" horiz-adv-x="505" 
d="M461 242h-322c2.66699 -55.333 16.167 -97.166 40.5 -125.499s58.833 -42.5 103.5 -42.5s86.667 12.667 126 38l34 -71c-22 -16.667 -47.667 -29.5 -77 -38.5s-59.333 -13.5 -90 -13.5c-73.333 0 -130.333 24.5 -171 73.5s-61 117.833 -61 206.5
c0 89.333 18.833 158.666 56.5 207.999s90.5 74 158.5 74c65.333 0 116 -22.667 152 -68s54 -109 54 -191c0 -20 -1.33301 -36.667 -4 -50zM140 312h231c-0.666992 49.333 -11 87.833 -31 115.5s-47.667 41.5 -83 41.5c-70 0 -109 -52.333 -117 -157zM159 654.5
c-24.667 27 -38 64.833 -40 113.5h58c7.33301 -54.667 35 -82 83 -82c48.667 0 76.667 27.333 84 82h55c-2 -48.667 -15.333 -86.5 -40 -113.5s-58 -40.5 -100 -40.5s-75.333 13.5 -100 40.5z" />
    <glyph glyph-name="Edotaccent" unicode="&#x116;" horiz-adv-x="538" 
d="M248.5 808c-10.333 10.667 -15.5 25.667 -15.5 45s5.16699 34.5 15.5 45.5s24.833 16.5 43.5 16.5s33.167 -5.33301 43.5 -16s15.5 -25.667 15.5 -45s-5.16699 -34.5 -15.5 -45.5s-24.833 -16.5 -43.5 -16.5s-33.167 5.33301 -43.5 16zM504 85v-85h-421v724h408v-85h-312
v-226h231v-85h-231v-243h325z" />
    <glyph glyph-name="edotaccent" unicode="&#x117;" horiz-adv-x="505" 
d="M461 242h-322c2.66699 -55.333 16.167 -97.166 40.5 -125.499s58.833 -42.5 103.5 -42.5s86.667 12.667 126 38l34 -71c-22 -16.667 -47.667 -29.5 -77 -38.5s-59.333 -13.5 -90 -13.5c-73.333 0 -130.333 24.5 -171 73.5s-61 117.833 -61 206.5
c0 89.333 18.833 158.666 56.5 207.999s90.5 74 158.5 74c65.333 0 116 -22.667 152 -68s54 -109 54 -191c0 -20 -1.33301 -36.667 -4 -50zM140 312h231c-0.666992 49.333 -11 87.833 -31 115.5s-47.667 41.5 -83 41.5c-70 0 -109 -52.333 -117 -157zM215.5 642
c-10.333 10.667 -15.5 25.667 -15.5 45s5.16699 34.5 15.5 45.5s24.833 16.5 43.5 16.5s33.167 -5.33301 43.5 -16s15.5 -25.667 15.5 -45s-5.16699 -34.5 -15.5 -45.5s-24.833 -16.5 -43.5 -16.5s-33.167 5.33301 -43.5 16z" />
    <glyph glyph-name="Eogonek" unicode="&#x118;" horiz-adv-x="538" 
d="M548 -191c-12.667 -9.33301 -27.832 -16.667 -45.499 -22s-35.834 -8 -54.501 -8c-32.667 0 -58.167 8.16699 -76.5 24.5s-27.5 39.166 -27.5 68.499c0 25.333 7 49.333 21 72s33.333 41.334 58 56.001h-340v724h408v-85h-312v-226h231v-85h-231v-243h325v-85h-1
c-52.667 -33.333 -79 -70 -79 -110c0 -30 15 -45 45 -45c18.667 0 37.667 5.33301 57 16z" />
    <glyph glyph-name="eogonek" unicode="&#x119;" horiz-adv-x="505" 
d="M461 242h-321.998c2.66699 -55.333 16.167 -97.166 40.5 -125.499s58.833 -42.5 103.5 -42.5s86.667 12.667 126 38l34 -71c-10 -6.66699 -17.167 -11.167 -21.5 -13.5l-13.5 -7.5c-30 -18 -52.833 -38.167 -68.5 -60.5s-23.5 -45.5 -23.5 -69.5c0 -30 15 -45 45 -45
c18.667 0 37.667 5.33301 57 16l22 -52c-13.333 -9.33301 -28.833 -16.666 -46.5 -21.999s-35.834 -8 -54.501 -8c-32.667 0 -58 8.16699 -76 24.5s-27 39.166 -27 68.499c0 46 20 85.333 60 118c-4.66699 -0.666992 -11.334 -1 -20.001 -1
c-73.333 0 -130.333 24.5 -171 73.5s-61 117.833 -61 206.5c0 89.333 18.833 158.666 56.5 207.999s90.5 74 158.5 74c65.333 0 116 -22.667 152 -68s54 -109 54 -191c0 -20 -1.33301 -36.667 -4 -50zM140.002 311h230.999c0 49.333 -10.167 88 -30.5 116
s-48.166 42 -83.499 42c-70 0 -109 -52.667 -117 -158z" />
    <glyph glyph-name="Ecaron" unicode="&#x11a;" horiz-adv-x="538" 
d="M244 781l-110 133v12h71l89 -90l88 90h68v-12l-110 -133h-96zM504 85v-85h-421v724h408v-85h-312v-226h231v-85h-231v-243h325z" />
    <glyph glyph-name="ecaron" unicode="&#x11b;" horiz-adv-x="505" 
d="M461 242h-322c2.66699 -55.333 16.167 -97.166 40.5 -125.499s58.833 -42.5 103.5 -42.5s86.667 12.667 126 38l34 -71c-22 -16.667 -47.667 -29.5 -77 -38.5s-59.333 -13.5 -90 -13.5c-73.333 0 -130.333 24.5 -171 73.5s-61 117.833 -61 206.5
c0 89.333 18.833 158.666 56.5 207.999s90.5 74 158.5 74c65.333 0 116 -22.667 152 -68s54 -109 54 -191c0 -20 -1.33301 -36.667 -4 -50zM140 312h231c-0.666992 49.333 -11 87.833 -31 115.5s-47.667 41.5 -83 41.5c-70 0 -109 -52.333 -117 -157zM400 784v-10l-96 -159
h-90l-96 159v10h65l77 -106l78 106h62z" />
    <glyph glyph-name="Gcircumflex" unicode="&#x11c;" horiz-adv-x="624" 
d="M248 781h-68v12l110 133h96l110 -133v-12h-71l-89 90zM561 391v-351.001c-24.667 -16.667 -54.334 -29.5 -89.001 -38.5s-70.667 -13.5 -108 -13.5c-65.333 0 -121.333 14.833 -168 44.5s-82.334 72.5 -107.001 128.5s-37 123 -37 201s12.333 145 37 201
s60.334 98.833 107.001 128.5s102.667 44.5 168 44.5c36 0 70.333 -4.5 103 -13.5s59.667 -21.167 81 -36.5l-28 -77c-52.667 27.333 -105.334 41 -158.001 41c-69.333 0 -121.666 -24.167 -156.999 -72.5s-53 -120.166 -53 -215.499s17.833 -167.333 53.5 -216
s88.5 -73 158.5 -73c34.667 0 68.334 5.33301 101.001 16v217h-119v85h215z" />
    <glyph glyph-name="gcircumflex" unicode="&#x11d;" horiz-adv-x="540" 
d="M462 539l0.00390625 -542.002c0 -68 -19.5 -121 -58.5 -159s-93.167 -57 -162.5 -57c-28 0 -55.333 3 -82 9s-49.667 14.333 -69 25l28 78c37.333 -19.333 76.666 -29 117.999 -29c43.333 0 76.166 11.167 98.499 33.5s33.5 55.5 33.5 99.5v90
c-32.667 -45.333 -77.334 -68 -134.001 -68c-59.333 0 -105.5 23.333 -138.5 70s-49.5 112.334 -49.5 197.001c0 83.333 17.167 148.333 51.5 195s82.5 70 144.5 70c28.667 0 54.667 -6.16699 78 -18.5s42.666 -30.166 57.999 -53.499v60h84zM368.004 160.998
l-0.00195312 252.001c-15.333 17.333 -32.666 30.666 -51.999 39.999s-39.333 14 -60 14c-37.333 0 -65.5 -15 -84.5 -45s-28.5 -74.667 -28.5 -134c0 -60 10 -105.333 30 -136s49.333 -46 88 -46c40.667 0 76.334 18.333 107.001 55zM407.002 624.999v-10h-65l-78 106
l-77 -106h-62v10l96 159h90z" />
    <glyph glyph-name="Gbreve" unicode="&#x11e;" horiz-adv-x="624" 
d="M238 824.5c-24.667 27 -38 64.833 -40 113.5h58c7.33301 -54.667 35 -82 83 -82c48.667 0 76.667 27.333 84 82h55c-2 -48.667 -15.333 -86.5 -40 -113.5s-58 -40.5 -100 -40.5s-75.333 13.5 -100 40.5zM561 391v-351.001c-24.667 -16.667 -54.334 -29.5 -89.001 -38.5
s-70.667 -13.5 -108 -13.5c-65.333 0 -121.333 14.833 -168 44.5s-82.334 72.5 -107.001 128.5s-37 123 -37 201s12.333 145 37 201s60.334 98.833 107.001 128.5s102.667 44.5 168 44.5c36 0 70.333 -4.5 103 -13.5s59.667 -21.167 81 -36.5l-28 -77
c-52.667 27.333 -105.334 41 -158.001 41c-69.333 0 -121.666 -24.167 -156.999 -72.5s-53 -120.166 -53 -215.499s17.833 -167.333 53.5 -216s88.5 -73 158.5 -73c34.667 0 68.334 5.33301 101.001 16v217h-119v85h215z" />
    <glyph glyph-name="gbreve" unicode="&#x11f;" horiz-adv-x="540" 
d="M462 539l0.00390625 -542.002c0 -68 -19.5 -121 -58.5 -159s-93.167 -57 -162.5 -57c-28 0 -55.333 3 -82 9s-49.667 14.333 -69 25l28 78c37.333 -19.333 76.666 -29 117.999 -29c43.333 0 76.166 11.167 98.499 33.5s33.5 55.5 33.5 99.5v90
c-32.667 -45.333 -77.334 -68 -134.001 -68c-59.333 0 -105.5 23.333 -138.5 70s-49.5 112.334 -49.5 197.001c0 83.333 17.167 148.333 51.5 195s82.5 70 144.5 70c28.667 0 54.667 -6.16699 78 -18.5s42.666 -30.166 57.999 -53.499v60h84zM368.004 160.998
l-0.00195312 252.001c-15.333 17.333 -32.666 30.666 -51.999 39.999s-39.333 14 -60 14c-37.333 0 -65.5 -15 -84.5 -45s-28.5 -74.667 -28.5 -134c0 -60 10 -105.333 30 -136s49.333 -46 88 -46c40.667 0 76.334 18.333 107.001 55zM166.002 654.499
c-24.667 27 -38 64.833 -40 113.5h58c7.33301 -54.667 35 -82 83 -82c48.667 0 76.667 27.333 84 82h55c-2 -48.667 -15.333 -86.5 -40 -113.5s-58 -40.5 -100 -40.5s-75.333 13.5 -100 40.5z" />
    <glyph glyph-name="Gdotaccent" unicode="&#x120;" horiz-adv-x="624" 
d="M294.5 808c-10.333 10.667 -15.5 25.667 -15.5 45s5.16699 34.5 15.5 45.5s24.833 16.5 43.5 16.5s33.167 -5.33301 43.5 -16s15.5 -25.667 15.5 -45s-5.16699 -34.5 -15.5 -45.5s-24.833 -16.5 -43.5 -16.5s-33.167 5.33301 -43.5 16zM561 391v-351.001
c-24.667 -16.667 -54.334 -29.5 -89.001 -38.5s-70.667 -13.5 -108 -13.5c-65.333 0 -121.333 14.833 -168 44.5s-82.334 72.5 -107.001 128.5s-37 123 -37 201s12.333 145 37 201s60.334 98.833 107.001 128.5s102.667 44.5 168 44.5c36 0 70.333 -4.5 103 -13.5
s59.667 -21.167 81 -36.5l-28 -77c-52.667 27.333 -105.334 41 -158.001 41c-69.333 0 -121.666 -24.167 -156.999 -72.5s-53 -120.166 -53 -215.499s17.833 -167.333 53.5 -216s88.5 -73 158.5 -73c34.667 0 68.334 5.33301 101.001 16v217h-119v85h215z" />
    <glyph glyph-name="gdotaccent" unicode="&#x121;" horiz-adv-x="540" 
d="M462 539l0.00390625 -542.002c0 -68 -19.5 -121 -58.5 -159s-93.167 -57 -162.5 -57c-28 0 -55.333 3 -82 9s-49.667 14.333 -69 25l28 78c37.333 -19.333 76.666 -29 117.999 -29c43.333 0 76.166 11.167 98.499 33.5s33.5 55.5 33.5 99.5v90
c-32.667 -45.333 -77.334 -68 -134.001 -68c-59.333 0 -105.5 23.333 -138.5 70s-49.5 112.334 -49.5 197.001c0 83.333 17.167 148.333 51.5 195s82.5 70 144.5 70c28.667 0 54.667 -6.16699 78 -18.5s42.666 -30.166 57.999 -53.499v60h84zM368.004 160.998
l-0.00195312 252.001c-15.333 17.333 -32.666 30.666 -51.999 39.999s-39.333 14 -60 14c-37.333 0 -65.5 -15 -84.5 -45s-28.5 -74.667 -28.5 -134c0 -60 10 -105.333 30 -136s49.333 -46 88 -46c40.667 0 76.334 18.333 107.001 55zM222.502 641.999
c-10.333 10.667 -15.5 25.667 -15.5 45s5.16699 34.5 15.5 45.5s24.833 16.5 43.5 16.5s33.167 -5.33301 43.5 -16s15.5 -25.667 15.5 -45s-5.16699 -34.5 -15.5 -45.5s-24.833 -16.5 -43.5 -16.5s-33.167 5.33301 -43.5 16z" />
    <glyph glyph-name="Gcommaaccent" unicode="&#x122;" horiz-adv-x="624" 
d="M561 391v-351.001c-24.667 -16.667 -54.334 -29.5 -89.001 -38.5s-70.667 -13.5 -108 -13.5c-65.333 0 -121.333 14.833 -168 44.5s-82.334 72.5 -107.001 128.5s-37 123 -37 201s12.333 145 37 201s60.334 98.833 107.001 128.5s102.667 44.5 168 44.5
c36 0 70.333 -4.5 103 -13.5s59.667 -21.167 81 -36.5l-28 -77c-52.667 27.333 -105.334 41 -158.001 41c-69.333 0 -121.666 -24.167 -156.999 -72.5s-53 -120.166 -53 -215.499s17.833 -167.333 53.5 -216s88.5 -73 158.5 -73c34.667 0 68.334 5.33301 101.001 16v217
h-119v85h215zM252 -239.001c16.667 18.667 28.167 37.001 34.5 55.001s9.5 40.667 9.5 68c0 15.333 -1 28.666 -3 39.999h88c2 -11.333 3 -24.333 3 -39c0 -31.333 -7.5 -59.5 -22.5 -84.5s-39.833 -50.833 -74.5 -77.5z" />
    <glyph glyph-name="gcommaaccent" unicode="&#x123;" horiz-adv-x="540" 
d="M462 539l0.00390625 -542.002c0 -68 -19.5 -121 -58.5 -159s-93.167 -57 -162.5 -57c-28 0 -55.333 3 -82 9s-49.667 14.333 -69 25l28 78c37.333 -19.333 76.666 -29 117.999 -29c43.333 0 76.166 11.167 98.499 33.5s33.5 55.5 33.5 99.5v90
c-32.667 -45.333 -77.334 -68 -134.001 -68c-59.333 0 -105.5 23.333 -138.5 70s-49.5 112.334 -49.5 197.001c0 83.333 17.167 148.333 51.5 195s82.5 70 144.5 70c28.667 0 54.667 -6.16699 78 -18.5s42.666 -30.166 57.999 -53.499v60h84zM368.004 160.998
l-0.00195312 252.001c-15.333 17.333 -32.666 30.666 -51.999 39.999s-39.333 14 -60 14c-37.333 0 -65.5 -15 -84.5 -45s-28.5 -74.667 -28.5 -134c0 -60 10 -105.333 30 -136s49.333 -46 88 -46c40.667 0 76.334 18.333 107.001 55zM350.002 773.999
c-16.667 -18 -28.167 -36.001 -34.5 -54.001s-9.5 -40.667 -9.5 -68c0 -15.333 1 -28.666 3 -39.999h-88c-2 11.333 -3 24.333 -3 39c0 30.667 7.66699 58.667 23 84s40 51 74 77z" />
    <glyph glyph-name="Hcircumflex" unicode="&#x124;" horiz-adv-x="658" 
d="M239 781h-68v12l110 133h96l110 -133v-12h-71l-89 90zM575 724v-724h-96v326h-300v-326h-96v724h96v-314h300v314h96z" />
    <glyph glyph-name="hcircumflex" unicode="&#x125;" horiz-adv-x="547" 
d="M123 917l-88 -90h-68v12l110 133h96l110 -133v-12h-71zM432.5 508c27.667 -28.667 41.5 -68.667 41.5 -120v-388h-94v377c0 57.333 -31 86 -93 86c-42.667 0 -81 -15.667 -115 -47v-416h-94v770h94v-281c40 41.333 88.333 62 145 62c49.333 0 87.833 -14.333 115.5 -43z
" />
    <glyph glyph-name="Hbar" unicode="&#x126;" horiz-adv-x="658" 
d="M637 529h-62v-529h-96v326h-300v-326h-96v529h-62v73h62v122h96v-122h300v122h96v-122h62v-73zM479 529h-300v-119h300v119z" />
    <glyph glyph-name="hbar" unicode="&#x127;" horiz-adv-x="547" 
d="M432 490.5c27.333 -28.333 40.998 -68.167 40.998 -119.5v-371h-94v360c0 57.333 -31.333 86 -94 86c-43.333 0 -81.666 -15.333 -114.999 -46v-400h-94v617h-62v64h62v89h94v-89h203v-64h-203v-145c38.667 40.667 87.334 61 146.001 61c50 0 88.667 -14.167 116 -42.5z
" />
    <glyph glyph-name="Itilde" unicode="&#x128;" horiz-adv-x="266" 
d="M148.5 798c-9.66699 6.66699 -20.5 16.667 -32.5 30c-7.33301 9.33301 -13.833 16.166 -19.5 20.499s-12.167 6.5 -19.5 6.5c-20.667 0 -32.667 -21.667 -36 -65h-55c0 42.667 8.16699 75.834 24.5 99.501s38.833 35.5 67.5 35.5c16.667 0 29.834 -3.33301 39.501 -10
s20.5 -16.667 32.5 -30c7.33301 -9.33301 13.833 -16.166 19.5 -20.499s12.167 -6.5 19.5 -6.5c20.667 0 32.667 21.667 36 65h55c0 -42.667 -8.16699 -75.834 -24.5 -99.501s-38.833 -35.5 -67.5 -35.5c-16.667 0 -29.834 3.33301 -39.501 10zM85 724h96v-724h-96v724z" />
    <glyph glyph-name="itilde" unicode="&#x129;" horiz-adv-x="255" 
d="M142.5 628c-9.66699 6.66699 -20.5 16.667 -32.5 30c-7.33301 9.33301 -13.833 16.166 -19.5 20.499s-12.167 6.5 -19.5 6.5c-20.667 0 -32.667 -21.667 -36 -65h-55c0 42.667 8.16699 75.834 24.5 99.501s38.833 35.5 67.5 35.5c16.667 0 29.834 -3.33301 39.501 -10
s20.5 -16.667 32.5 -30c7.33301 -9.33301 13.833 -16.166 19.5 -20.499s12.167 -6.5 19.5 -6.5c20.667 0 32.667 21.667 36 65h55c0 -42.667 -8.16699 -75.834 -24.5 -99.501s-38.833 -35.5 -67.5 -35.5c-16.667 0 -29.834 3.33301 -39.501 10zM80 539h94v-539h-94v539z" />
    <glyph glyph-name="Imacron" unicode="&#x12a;" horiz-adv-x="266" 
d="M-9 878h284v-68h-284v68zM85 724h96v-724h-96v724z" />
    <glyph glyph-name="imacron" unicode="&#x12b;" horiz-adv-x="255" 
d="M14 708h226v-68h-226v68zM80 539h94v-539h-94v539z" />
    <glyph glyph-name="Ibreve" unicode="&#x12c;" horiz-adv-x="266" 
d="M33 824.5c-24.667 27 -38 64.833 -40 113.5h58c7.33301 -54.667 35 -82 83 -82c48.667 0 76.667 27.333 84 82h55c-2 -48.667 -15.333 -86.5 -40 -113.5s-58 -40.5 -100 -40.5s-75.333 13.5 -100 40.5zM85 724h96v-724h-96v724z" />
    <glyph glyph-name="ibreve" unicode="&#x12d;" horiz-adv-x="255" 
d="M80 539h94v-539h-94v539zM27 654.5c-24.667 27 -38 64.833 -40 113.5h58c7.33301 -54.667 35 -82 83 -82c48.667 0 76.667 27.333 84 82h55c-2 -48.667 -15.333 -86.5 -40 -113.5s-58 -40.5 -100 -40.5s-75.333 13.5 -100 40.5z" />
    <glyph glyph-name="Iogonek" unicode="&#x12e;" horiz-adv-x="266" 
d="M241 -191c-13.333 -9.33301 -28.832 -16.665 -46.499 -21.998s-35.834 -8 -54.501 -8c-32.667 0 -58 8.16699 -76 24.5s-27 39.166 -27 68.499c0 24 6 47 18 69s28.667 41.667 50 59h-20v724h96v-724c-42.667 -36.667 -64 -73.334 -64 -110.001c0 -30 15 -45 45 -45
c18.667 0 37.667 5.33301 57 16z" />
    <glyph glyph-name="iogonek" unicode="&#x12f;" horiz-adv-x="255" 
d="M83.5 642c-10.333 10.667 -15.5 25.667 -15.5 45s5.16699 34.5 15.5 45.5s24.833 16.5 43.5 16.5s33.167 -5.33301 43.5 -16s15.5 -25.667 15.5 -45s-5.16699 -34.5 -15.5 -45.5s-24.833 -16.5 -43.5 -16.5s-33.167 5.33301 -43.5 16zM234 -191
c-12.667 -9.33301 -27.832 -16.665 -45.499 -21.998s-35.834 -8 -54.501 -8c-33.333 0 -59 8.16699 -77 24.5s-27 39.166 -27 68.499c0 24 6 47 18 69s28.667 41.667 50 59h-18v539h94v-539c-42.667 -36.667 -64 -73.334 -64 -110.001c0 -30 15 -45 45 -45
c18.667 0 37.667 5.33301 57 16z" />
    <glyph glyph-name="Idotaccent" unicode="&#x130;" horiz-adv-x="266" 
d="M89.5 808c-10.333 10.667 -15.5 25.667 -15.5 45s5.16699 34.5 15.5 45.5s24.833 16.5 43.5 16.5s33.167 -5.33301 43.5 -16s15.5 -25.667 15.5 -45s-5.16699 -34.5 -15.5 -45.5s-24.833 -16.5 -43.5 -16.5s-33.167 5.33301 -43.5 16zM85 724h96v-724h-96v724z" />
    <glyph glyph-name="dotlessi" unicode="&#x131;" horiz-adv-x="255" 
d="M80 539h94v-539h-94v539z" />
    <glyph glyph-name="IJ" unicode="&#x132;" horiz-adv-x="619" 
d="M83 724h96v-724h-96v724zM305.5 -4c-22.333 5.33301 -42.168 13.333 -59.501 24l28 79c38.667 -16.667 71.334 -25 98.001 -25c57.333 0 86 36.333 86 109v541h96v-545c0 -60.667 -15.667 -107.667 -47 -141s-75.333 -50 -132 -50c-24 0 -47.167 2.66699 -69.5 8z" />
    <glyph glyph-name="ij" unicode="&#x133;" horiz-adv-x="510" 
d="M80 539h94v-539h-94v539zM83.5 642c-10.333 10.667 -15.5 25.667 -15.5 45s5.16699 34.5 15.5 45.5s24.833 16.5 43.5 16.5s33.167 -5.33301 43.5 -16s15.5 -25.667 15.5 -45s-5.16699 -34.5 -15.5 -45.5s-24.833 -16.5 -43.5 -16.5s-33.167 5.33301 -43.5 16zM206 -143
c34.667 12.667 61 26.168 79 40.501s30.833 32.166 38.5 53.499s11.5 49.333 11.5 84v504h94v-505c0 -48.667 -5.83301 -88.167 -17.5 -118.5s-31 -56 -58 -77s-65.833 -40.5 -116.5 -58.5zM338.5 642.001c-10.333 10.667 -15.5 25.667 -15.5 45s5.16699 34.5 15.5 45.5
s24.833 16.5 43.5 16.5s33.167 -5.33301 43.5 -16s15.5 -25.667 15.5 -45s-5.16699 -34.5 -15.5 -45.5s-24.833 -16.5 -43.5 -16.5s-33.167 5.33301 -43.5 16z" />
    <glyph glyph-name="Jcircumflex" unicode="&#x134;" horiz-adv-x="428" 
d="M460 793v-12h-71l-89 90l-88 -90h-68v12l110 133h96zM254 724l96 0.000976562v-550c0 -58.667 -17.167 -104.334 -51.5 -137.001s-82.5 -49 -144.5 -49c-30.667 0 -59.167 4.33301 -85.5 13s-48.5 20.667 -66.5 36l34 74c39.333 -24.667 78 -37 116 -37
c68 0 102 34.667 102 104v546z" />
    <glyph glyph-name="jcircumflex" unicode="&#x135;" horiz-adv-x="255" 
d="M-49 -143c34.667 12.667 61 26.168 79 40.501s30.833 32.166 38.5 53.499s11.5 49.333 11.5 84v504h94v-505c0 -48.667 -5.83301 -88.167 -17.5 -118.5s-31 -56 -58 -77s-65.833 -40.5 -116.5 -58.5zM268 625.001v-10h-65l-78 106l-77 -106h-62v10l96 159h90z" />
    <glyph glyph-name="Kcommaaccent" unicode="&#x136;" horiz-adv-x="586" 
d="M261 321l-82 -105v-216h-96v724h96v-381l278 381h117l-252 -324l267 -400h-117zM233 -239c16.667 18.667 28.167 37.001 34.5 55.001s9.5 40.667 9.5 68c0 15.333 -1 28.666 -3 39.999h88c2 -11.333 3 -24.333 3 -39c0 -31.333 -7.5 -59.5 -22.5 -84.5
s-39.833 -50.833 -74.5 -77.5z" />
    <glyph glyph-name="kcommaaccent" unicode="&#x137;" horiz-adv-x="504" 
d="M234 239l-62 -75v-164h-94v770h94v-489l200 258h111l-188 -226l199 -313h-111zM185 -239c16.667 18.667 28.167 37.001 34.5 55.001s9.5 40.667 9.5 68c0 15.333 -1 28.666 -3 39.999h88c2 -11.333 3 -24.333 3 -39c0 -31.333 -7.5 -59.5 -22.5 -84.5
s-39.833 -50.833 -74.5 -77.5z" />
    <glyph glyph-name="kgreenlandic" unicode="&#x138;" horiz-adv-x="504" 
d="M234 239l-62 -75v-164h-94v539h94v-258l200 258h111l-188 -226l199 -313h-111z" />
    <glyph glyph-name="Lacute" unicode="&#x139;" horiz-adv-x="491" 
d="M165 781h-79v12l140 133h111v-12zM470 86v-86h-387v724h96v-638h291z" />
    <glyph glyph-name="lacute" unicode="&#x13a;" horiz-adv-x="289" 
d="M57 839l141 133h111v-12l-173 -133h-79v12zM107 26c-20.667 20.667 -31.002 50.667 -31.002 90v654h94v-641c0 -18 3.83301 -31 11.5 -39s19.834 -12 36.501 -12c10.667 0 22.334 1 35.001 3l7 -78c-21.333 -5.33301 -43 -8 -65 -8c-38 0 -67.333 10.333 -88 31z" />
    <glyph glyph-name="Lcommaaccent" unicode="&#x13b;" horiz-adv-x="491" 
d="M470 86v-86h-387v724h96v-638h291zM195 -239c16.667 18.667 28.167 37.001 34.5 55.001s9.5 40.667 9.5 68c0 15.333 -1 28.666 -3 39.999h88c2 -11.333 3 -24.333 3 -39c0 -31.333 -7.5 -59.5 -22.5 -84.5s-39.833 -50.833 -74.5 -77.5z" />
    <glyph glyph-name="lcommaaccent" unicode="&#x13c;" horiz-adv-x="289" 
d="M107 26c-20.667 20.667 -31.002 50.667 -31.002 90v654h94v-641c0 -18 3.83301 -31 11.5 -39s19.834 -12 36.501 -12c10.667 0 22.334 1 35.001 3l7 -78c-21.333 -5.33301 -43 -8 -65 -8c-38 0 -67.333 10.333 -88 31zM75.998 -239
c16.667 18.667 28.167 37.001 34.5 55.001s9.5 40.667 9.5 68c0 15.333 -1 28.666 -3 39.999h88c2 -11.333 3 -24.333 3 -39c0 -31.333 -7.5 -59.5 -22.5 -84.5s-39.833 -50.833 -74.5 -77.5z" />
    <glyph glyph-name="Lcaron" unicode="&#x13d;" horiz-adv-x="491" 
d="M348 552h-54v218h84v-10zM470 86v-86h-387v724h96v-638h291z" />
    <glyph glyph-name="lcaron" unicode="&#x13e;" horiz-adv-x="291" 
d="M107 26c-20.667 20.667 -31.002 50.667 -31.002 90v654h94v-641c0 -18 3.83301 -31 11.5 -39s19.834 -12 36.501 -12c10.667 0 22.334 1 35.001 3l7 -78c-21.333 -5.33301 -43 -8 -65 -8c-38 0 -67.333 10.333 -88 31zM245.998 770h84v-10l-30 -208h-54v218z" />
    <glyph glyph-name="Ldot" unicode="&#x13f;" horiz-adv-x="491" 
d="M470 86v-86h-387v724h96v-638h291zM326.5 354c-10.333 10.667 -15.5 25.667 -15.5 45s5.16699 34.5 15.5 45.5s24.833 16.5 43.5 16.5s33.167 -5.33301 43.5 -16s15.5 -25.667 15.5 -45s-5.16699 -34.5 -15.5 -45.5s-24.833 -16.5 -43.5 -16.5s-33.167 5.33301 -43.5 16z
" />
    <glyph glyph-name="ldot" unicode="&#x140;" horiz-adv-x="367" 
d="M107 26c-20.667 20.667 -31.002 50.667 -31.002 90v654h94v-641c0 -18 3.83301 -31 11.5 -39s19.834 -12 36.501 -12c10.667 0 22.334 1 35.001 3l7 -78c-21.333 -5.33301 -43 -8 -65 -8c-38 0 -67.333 10.333 -88 31zM262.498 348c-10.333 10.667 -15.5 25.667 -15.5 45
s5.16699 34.5 15.5 45.5s24.833 16.5 43.5 16.5s33.167 -5.33301 43.5 -16s15.5 -25.667 15.5 -45s-5.16699 -34.5 -15.5 -45.5s-24.833 -16.5 -43.5 -16.5s-33.167 5.33301 -43.5 16z" />
    <glyph glyph-name="Lslash" unicode="&#x141;" horiz-adv-x="495" 
d="M474 86v-86h-387v253l-48 -32h-10v79l58 36v388h96v-329l192 124h10v-79l-202 -126v-228h291z" />
    <glyph glyph-name="lslash" unicode="&#x142;" horiz-adv-x="328" 
d="M194 396l-0.00195312 -267c0 -18 3.83301 -31 11.5 -39s19.834 -12 36.501 -12c10.667 0 22.334 1 35.001 3l7 -78c-21.333 -5.33301 -43 -8 -65 -8c-38 0 -67.333 10.333 -88 31s-31 50.667 -31 90v214l-65 -47h-10v77l75 51v359h94v-294l87 63h10v-77z" />
    <glyph glyph-name="Nacute" unicode="&#x143;" horiz-adv-x="678" 
d="M352 781h-79v12l141 133h111v-12zM595 724v-724h-91l-327 554v-554h-94v724h91l327 -554v554h94z" />
    <glyph glyph-name="nacute" unicode="&#x144;" horiz-adv-x="545" 
d="M430.5 508c27.667 -28.667 41.498 -68.667 41.498 -120v-388h-94v377c0 57.333 -31 86 -93 86c-21.333 0 -41.166 -3.83301 -59.499 -11.5s-36.166 -19.5 -53.499 -35.5v-416h-94v539h84v-61c41.333 48.667 92.666 73 153.999 73c48.667 0 86.834 -14.333 114.501 -43z
M222.998 625l91 159h101v-10l-123 -159h-69v10z" />
    <glyph glyph-name="Ncommaaccent" unicode="&#x145;" horiz-adv-x="678" 
d="M595 724v-724h-91l-327 554v-554h-94v724h91l327 -554v554h94zM253 -239c16.667 18.667 28.167 37.001 34.5 55.001s9.5 40.667 9.5 68c0 15.333 -1 28.666 -3 39.999h88c2 -11.333 3 -24.333 3 -39c0 -31.333 -7.5 -59.5 -22.5 -84.5s-39.833 -50.833 -74.5 -77.5z" />
    <glyph glyph-name="ncommaaccent" unicode="&#x146;" horiz-adv-x="545" 
d="M430.5 508c27.667 -28.667 41.498 -68.667 41.498 -120v-388h-94v377c0 57.333 -31 86 -93 86c-21.333 0 -41.166 -3.83301 -59.499 -11.5s-36.166 -19.5 -53.499 -35.5v-416h-94v539h84v-61c41.333 48.667 92.666 73 153.999 73c48.667 0 86.834 -14.333 114.501 -43z
M189.998 -239c16.667 18.667 28.167 37.001 34.5 55.001s9.5 40.667 9.5 68c0 15.333 -1 28.666 -3 39.999h88c2 -11.333 3 -24.333 3 -39c0 -31.333 -7.5 -59.5 -22.5 -84.5s-39.833 -50.833 -74.5 -77.5z" />
    <glyph glyph-name="Ncaron" unicode="&#x147;" horiz-adv-x="678" 
d="M291 781l-110 133v12h71l89 -90l88 90h68v-12l-110 -133h-96zM595 724v-724h-91l-327 554v-554h-94v724h91l327 -554v554h94z" />
    <glyph glyph-name="ncaron" unicode="&#x148;" horiz-adv-x="545" 
d="M430.5 508c27.667 -28.667 41.498 -68.667 41.498 -120v-388h-94v377c0 57.333 -31 86 -93 86c-21.333 0 -41.166 -3.83301 -59.499 -11.5s-36.166 -19.5 -53.499 -35.5v-416h-94v539h84v-61c41.333 48.667 92.666 73 153.999 73c48.667 0 86.834 -14.333 114.501 -43z
M415.998 784v-10l-96 -159h-90l-96 159v10h65l77 -106l78 106h62z" />
    <glyph glyph-name="napostrophe" unicode="&#x149;" horiz-adv-x="545" 
d="M430.5 508c27.667 -28.667 41.498 -68.667 41.498 -120v-388h-94v377c0 57.333 -31 86 -93 86c-21.333 0 -41.166 -3.83301 -59.499 -11.5s-36.166 -19.5 -53.499 -35.5v-416h-94v539h84v-61c41.333 48.667 92.666 73 153.999 73c48.667 0 86.834 -14.333 114.501 -43z
M-66.002 574c20.667 22.667 35.5 45.333 44.5 68s13.5 49.334 13.5 80.001c0 17.333 -0.666992 33.333 -2 48h85c1.33301 -14.667 2 -30.334 2 -47.001c0 -34.667 -8.83301 -67 -26.5 -97s-45.167 -59.667 -82.5 -89z" />
    <glyph glyph-name="Eng" unicode="&#x14a;" horiz-adv-x="678" 
d="M595 724l-0.000976562 -724v-44c0 -55.333 -15.5 -98.333 -46.5 -129s-74.167 -46 -129.5 -46s-100 15 -134 45l33 72c34.667 -22 67.334 -33 98.001 -33c56.667 0 85 31.667 85 95v44l-324 550v-554h-94v724h91l327 -554v554h94z" />
    <glyph glyph-name="eng" unicode="&#x14b;" horiz-adv-x="545" 
d="M430.5 508c27.667 -28.667 41.498 -68.667 41.498 -120v-388v-64c0 -48.667 -13 -86.667 -39 -114s-62.333 -41 -109 -41c-44.667 0 -82 12 -112 36l31 70c29.333 -16 55 -24 77 -24c38.667 0 58 25.667 58 77v216v221c0 57.333 -31 86 -93 86
c-21.333 0 -41.166 -3.83301 -59.499 -11.5s-36.166 -19.5 -53.499 -35.5v-416h-94v539h84v-61c41.333 48.667 92.666 73 153.999 73c48.667 0 86.834 -14.333 114.501 -43z" />
    <glyph glyph-name="Omacron" unicode="&#x14c;" horiz-adv-x="666" 
d="M191 878h284v-68h-284v68zM124.5 83c-48.333 63.333 -72.5 156.333 -72.5 279s24.167 215.667 72.5 279s117.833 95 208.5 95s160 -31.5 208 -94.5s72 -156.167 72 -279.5s-24 -216.5 -72 -279.5s-117.333 -94.5 -208 -94.5s-160.167 31.667 -208.5 95zM467.5 146
c30.333 48.667 45.5 120.667 45.5 216s-15.167 167.333 -45.5 216s-75.166 73 -134.499 73s-104.333 -24.333 -135 -73s-46 -120.667 -46 -216s15.333 -167.333 46 -216s75.667 -73 135 -73s104.166 24.333 134.499 73z" />
    <glyph glyph-name="omacron" unicode="&#x14d;" horiz-adv-x="521" 
d="M101.5 59.5c-37 47.667 -55.5 117.5 -55.5 209.5s18.5 162 55.5 210s90.167 72 159.5 72c68.667 0 121.5 -24 158.5 -72s55.5 -118 55.5 -210s-18.5 -161.833 -55.5 -209.5s-90.167 -71.5 -159.5 -71.5c-68.667 0 -121.5 23.833 -158.5 71.5zM348.5 121
c19.667 33.333 29.5 82.666 29.5 147.999c0 66 -9.83301 115.667 -29.5 149s-48.834 50 -87.501 50c-78.667 0 -118 -66.333 -118 -199c0 -65.333 9.83301 -114.666 29.5 -147.999s48.834 -50 87.501 -50c39.333 0 68.833 16.667 88.5 50zM119 708h284v-68h-284v68z" />
    <glyph glyph-name="Obreve" unicode="&#x14e;" horiz-adv-x="666" 
d="M233 824.5c-24.667 27 -38 64.833 -40 113.5h58c7.33301 -54.667 35 -82 83 -82c48.667 0 76.667 27.333 84 82h55c-2 -48.667 -15.333 -86.5 -40 -113.5s-58 -40.5 -100 -40.5s-75.333 13.5 -100 40.5zM124.5 83c-48.333 63.333 -72.5 156.333 -72.5 279
s24.167 215.667 72.5 279s117.833 95 208.5 95s160 -31.5 208 -94.5s72 -156.167 72 -279.5s-24 -216.5 -72 -279.5s-117.333 -94.5 -208 -94.5s-160.167 31.667 -208.5 95zM467.5 146c30.333 48.667 45.5 120.667 45.5 216s-15.167 167.333 -45.5 216
s-75.166 73 -134.499 73s-104.333 -24.333 -135 -73s-46 -120.667 -46 -216s15.333 -167.333 46 -216s75.667 -73 135 -73s104.166 24.333 134.499 73z" />
    <glyph glyph-name="obreve" unicode="&#x14f;" horiz-adv-x="521" 
d="M101.5 59.5c-37 47.667 -55.5 117.5 -55.5 209.5s18.5 162 55.5 210s90.167 72 159.5 72c68.667 0 121.5 -24 158.5 -72s55.5 -118 55.5 -210s-18.5 -161.833 -55.5 -209.5s-90.167 -71.5 -159.5 -71.5c-68.667 0 -121.5 23.833 -158.5 71.5zM348.5 121
c19.667 33.333 29.5 82.666 29.5 147.999c0 66 -9.83301 115.667 -29.5 149s-48.834 50 -87.501 50c-78.667 0 -118 -66.333 -118 -199c0 -65.333 9.83301 -114.666 29.5 -147.999s48.834 -50 87.501 -50c39.333 0 68.833 16.667 88.5 50zM161 654.5
c-24.667 27 -38 64.833 -40 113.5h58c7.33301 -54.667 35 -82 83 -82c48.667 0 76.667 27.333 84 82h55c-2 -48.667 -15.333 -86.5 -40 -113.5s-58 -40.5 -100 -40.5s-75.333 13.5 -100 40.5z" />
    <glyph glyph-name="Ohungarumlaut" unicode="&#x150;" horiz-adv-x="666" 
d="M208 793l91 133h94v-12l-122 -133h-63v12zM363 793l91 133h95v-12l-123 -133h-63v12zM124.5 83c-48.333 63.333 -72.5 156.333 -72.5 279s24.167 215.667 72.5 279s117.833 95 208.5 95s160 -31.5 208 -94.5s72 -156.167 72 -279.5s-24 -216.5 -72 -279.5
s-117.333 -94.5 -208 -94.5s-160.167 31.667 -208.5 95zM467.5 146c30.333 48.667 45.5 120.667 45.5 216s-15.167 167.333 -45.5 216s-75.166 73 -134.499 73s-104.333 -24.333 -135 -73s-46 -120.667 -46 -216s15.333 -167.333 46 -216s75.667 -73 135 -73
s104.166 24.333 134.499 73z" />
    <glyph glyph-name="ohungarumlaut" unicode="&#x151;" horiz-adv-x="521" 
d="M101.5 59.5c-37 47.667 -55.5 117.5 -55.5 209.5s18.5 162 55.5 210s90.167 72 159.5 72c68.667 0 121.5 -24 158.5 -72s55.5 -118 55.5 -210s-18.5 -161.833 -55.5 -209.5s-90.167 -71.5 -159.5 -71.5c-68.667 0 -121.5 23.833 -158.5 71.5zM348.5 121
c19.667 33.333 29.5 82.666 29.5 147.999c0 66 -9.83301 115.667 -29.5 149s-48.834 50 -87.501 50c-78.667 0 -118 -66.333 -118 -199c0 -65.333 9.83301 -114.666 29.5 -147.999s48.834 -50 87.501 -50c39.333 0 68.833 16.667 88.5 50zM149 625l55 159h88v-10l-86 -159
h-57v10zM291 625l55 159h88v-10l-86 -159h-57v10z" />
    <glyph glyph-name="OE" unicode="&#x152;" horiz-adv-x="902" 
d="M868 85v-85h-406h-127c-92 0 -162.167 30.167 -210.5 90.5s-72.5 150.833 -72.5 271.5s24.167 211.167 72.5 271.5s118.5 90.5 210.5 90.5h165h355v-85h-300v-226h219v-85h-219v-243h313zM462 85v554h-127c-60.667 0 -106.334 -22.833 -137.001 -68.5
s-46 -115.167 -46 -208.5s15.333 -162.833 46 -208.5s76.334 -68.5 137.001 -68.5h127z" />
    <glyph glyph-name="oe" unicode="&#x153;" horiz-adv-x="826" 
d="M782 242l-315.998 -0.00292969c2.66699 -55.333 16 -97.166 40 -125.499s57.667 -42.5 101 -42.5c42 0 83 12.667 123 38l34 -71c-22 -16.667 -47.333 -29.5 -76 -38.5s-58.334 -13.5 -89.001 -13.5c-39.333 0 -74 7.83301 -104 23.5s-54.667 38.5 -74 68.5
c-17.333 -30 -40 -53 -68 -69s-60 -24 -96 -24c-68 0 -120.167 23.833 -156.5 71.5s-54.5 117.5 -54.5 209.5s18.333 162 55 210s89 72 157 72c36 0 68.167 -8.16699 96.5 -24.5s51.166 -40.166 68.499 -71.499c13.333 30.667 34 54.334 62 71.001s60.667 25 98 25
c64 0 113.833 -22.667 149.5 -68s53.5 -109 53.5 -191c0 -20 -1.33301 -36.667 -4 -50zM501.002 429.497c-19.333 -26.333 -30.666 -65.5 -33.999 -117.5h225c-0.666992 49.333 -10.834 87.833 -30.501 115.5s-46.834 41.5 -81.501 41.5
c-33.333 0 -59.666 -13.167 -78.999 -39.5zM343.002 120.997c19.333 33.333 29 82.666 29 147.999c0 66 -9.66699 115.667 -29 149s-47.666 50 -84.999 50c-38 0 -66.667 -16.833 -86 -50.5s-29 -83.167 -29 -148.5s9.66699 -114.666 29 -147.999s47.666 -50 84.999 -50
c38 0 66.667 16.667 86 50z" />
    <glyph glyph-name="Racute" unicode="&#x154;" horiz-adv-x="593" 
d="M306 781h-79v12l141 133h111v-12zM290 271l-111.001 -0.000976562v-271h-96v724h96h136c68.667 0 122 -20 160 -60s57 -95.667 57 -167c0 -56 -12.167 -102.667 -36.5 -140s-59.166 -62.666 -104.499 -75.999l176 -281h-116zM178.999 353.999h135.999
c38.667 0 67.834 12 87.501 36s29.5 59.333 29.5 106c0 96 -40 144 -120 144h-133v-286z" />
    <glyph glyph-name="racute" unicode="&#x155;" horiz-adv-x="367" 
d="M359 536l-19.001 -90c-24 7.33301 -45.667 11 -65 11c-22.667 0 -42.167 -4.83301 -58.5 -14.5s-31.166 -25.167 -44.499 -46.5v-396h-94v539h84v-79c33.333 59.333 78.333 89 135 89c23.333 0 44 -4.33301 62 -13zM165.999 625l91 159h101v-10l-123 -159h-69v10z" />
    <glyph glyph-name="Rcommaaccent" unicode="&#x156;" horiz-adv-x="593" 
d="M290 271l-111.001 -0.000976562v-271h-96v724h96h136c68.667 0 122 -20 160 -60s57 -95.667 57 -167c0 -56 -12.167 -102.667 -36.5 -140s-59.166 -62.666 -104.499 -75.999l176 -281h-116zM178.999 353.999h135.999c38.667 0 67.834 12 87.501 36s29.5 59.333 29.5 106
c0 96 -40 144 -120 144h-133v-286zM224.998 -239.001c16.667 18.667 28.167 37.001 34.5 55.001s9.5 40.667 9.5 68c0 15.333 -1 28.666 -3 39.999h88c2 -11.333 3 -24.333 3 -39c0 -31.333 -7.5 -59.5 -22.5 -84.5s-39.833 -50.833 -74.5 -77.5z" />
    <glyph glyph-name="rcommaaccent" unicode="&#x157;" horiz-adv-x="367" 
d="M359 536l-19.001 -90c-24 7.33301 -45.667 11 -65 11c-22.667 0 -42.167 -4.83301 -58.5 -14.5s-31.166 -25.167 -44.499 -46.5v-396h-94v539h84v-79c33.333 59.333 78.333 89 135 89c23.333 0 44 -4.33301 62 -13zM38.999 -239c16.667 18.667 28.167 37.001 34.5 55.001
s9.5 40.667 9.5 68c0 15.333 -1 28.666 -3 39.999h88c2 -11.333 3 -24.333 3 -39c0 -31.333 -7.5 -59.5 -22.5 -84.5s-39.833 -50.833 -74.5 -77.5z" />
    <glyph glyph-name="Rcaron" unicode="&#x158;" horiz-adv-x="593" 
d="M245 781l-110 133v12h71l89 -90l88 90h68v-12l-110 -133h-96zM290 271l-111.001 -0.000976562v-271h-96v724h96h136c68.667 0 122 -20 160 -60s57 -95.667 57 -167c0 -56 -12.167 -102.667 -36.5 -140s-59.166 -62.666 -104.499 -75.999l176 -281h-116zM178.999 353.999
h135.999c38.667 0 67.834 12 87.501 36s29.5 59.333 29.5 106c0 96 -40 144 -120 144h-133v-286z" />
    <glyph glyph-name="rcaron" unicode="&#x159;" horiz-adv-x="367" 
d="M359 536l-19.001 -90c-24 7.33301 -45.667 11 -65 11c-22.667 0 -42.167 -4.83301 -58.5 -14.5s-31.166 -25.167 -44.499 -46.5v-396h-94v539h84v-79c33.333 59.333 78.333 89 135 89c23.333 0 44 -4.33301 62 -13zM358.999 784v-10l-96 -159h-90l-96 159v10h65l77 -106
l78 106h62z" />
    <glyph glyph-name="Sacute" unicode="&#x15a;" horiz-adv-x="525" 
d="M186 793l141 133h111v-12l-173 -133h-79v12zM136 5c-38 10.667 -72 25.334 -102 44.001l32 78c64 -36 125.333 -54 184 -54c44 0 77.833 10 101.5 30s35.5 48.667 35.5 86c0 31.333 -7.83301 56.5 -23.5 75.5s-40.5 33.167 -74.5 42.5l-82 23
c-57.333 16 -99.166 39.833 -125.499 71.5s-39.5 73.834 -39.5 126.501c0 63.333 19.833 113.666 59.5 150.999s93.5 56 161.5 56c31.333 0 64.5 -4 99.5 -12s68.5 -19.333 100.5 -34l-31 -78c-68.667 26.667 -125.667 40 -171 40c-39.333 0 -69.833 -9.33301 -91.5 -28
s-32.5 -45.334 -32.5 -80.001c0 -31.333 7.83301 -56.333 23.5 -75s40.5 -32.667 74.5 -42l82 -23c57.333 -16 99.166 -40 125.499 -72s39.5 -74.333 39.5 -127c0 -66.667 -20.833 -119.167 -62.5 -157.5s-98.167 -57.5 -169.5 -57.5c-38 0 -76 5.33301 -114 16z" />
    <glyph glyph-name="sacute" unicode="&#x15b;" horiz-adv-x="436" 
d="M110.5 2c-31 8.66699 -58.1689 20.999 -81.502 36.999l32 75c46.667 -30 95.334 -45 146.001 -45c66.667 0 100 26 100 78c0 20 -5.33301 36.167 -16 48.5s-27.667 21.166 -51 26.499l-71 17c-46 11.333 -79.5 28.833 -100.5 52.5s-31.5 55.834 -31.5 96.501
c0 50.667 16 90.334 48 119.001s77 43 135 43c29.333 0 58.333 -3.66699 87 -11s54.334 -17.666 77.001 -30.999l-36 -76c-46.667 24 -90 36 -130 36c-60 0 -90 -24 -90 -72c0 -18.667 5.33301 -33.667 16 -45s27.667 -20 51 -26l71 -17
c46 -10.667 79.5 -28.334 100.5 -53.001s31.5 -57.667 31.5 -99c0 -52.667 -16.667 -93.667 -50 -123s-80.333 -44 -141 -44c-33.333 0 -65.5 4.33301 -96.5 13zM158.998 624.999l91 159h101v-10l-123 -159h-69v10z" />
    <glyph glyph-name="Scircumflex" unicode="&#x15c;" horiz-adv-x="525" 
d="M162 781h-68v12l110 133h96l110 -133v-12h-71l-89 90zM442.5 331c26.333 -32 39.5 -74.333 39.5 -127c0 -66.667 -20.833 -119.167 -62.5 -157.5s-98.167 -57.5 -169.5 -57.5c-38 0 -76 5.33301 -114 16s-72 25.334 -102 44.001l32 78c64 -36 125.333 -54 184 -54
c44 0 77.833 10 101.5 30s35.5 48.667 35.5 86c0 31.333 -7.83301 56.5 -23.5 75.5s-40.5 33.167 -74.5 42.5l-82 23c-57.333 16 -99.166 39.833 -125.499 71.5s-39.5 73.834 -39.5 126.501c0 63.333 19.833 113.666 59.5 150.999s93.5 56 161.5 56
c31.333 0 64.5 -4 99.5 -12s68.5 -19.333 100.5 -34l-31 -78c-68.667 26.667 -125.667 40 -171 40c-39.333 0 -69.833 -9.33301 -91.5 -28s-32.5 -45.334 -32.5 -80.001c0 -31.333 7.83301 -56.333 23.5 -75s40.5 -32.667 74.5 -42l82 -23
c57.333 -16 99.166 -40 125.499 -72z" />
    <glyph glyph-name="scircumflex" unicode="&#x15d;" horiz-adv-x="436" 
d="M110.5 2c-31 8.66699 -58.1689 20.999 -81.502 36.999l32 75c46.667 -30 95.334 -45 146.001 -45c66.667 0 100 26 100 78c0 20 -5.33301 36.167 -16 48.5s-27.667 21.166 -51 26.499l-71 17c-46 11.333 -79.5 28.833 -100.5 52.5s-31.5 55.834 -31.5 96.501
c0 50.667 16 90.334 48 119.001s77 43 135 43c29.333 0 58.333 -3.66699 87 -11s54.334 -17.666 77.001 -30.999l-36 -76c-46.667 24 -90 36 -130 36c-60 0 -90 -24 -90 -72c0 -18.667 5.33301 -33.667 16 -45s27.667 -20 51 -26l71 -17
c46 -10.667 79.5 -28.334 100.5 -53.001s31.5 -57.667 31.5 -99c0 -52.667 -16.667 -93.667 -50 -123s-80.333 -44 -141 -44c-33.333 0 -65.5 4.33301 -96.5 13zM351.998 624.999v-10h-65l-78 106l-77 -106h-62v10l96 159h90z" />
    <glyph glyph-name="Scedilla" unicode="&#x15e;" horiz-adv-x="525" 
d="M428.5 56c-35.667 -38 -84.5 -60.001 -146.5 -66.001l-33 -50c7.33301 2 14.333 3 21 3c32 0 56.833 -7.16699 74.5 -21.5s26.5 -34.166 26.5 -59.499c0 -29.333 -10.167 -52.166 -30.5 -68.499s-49.166 -24.5 -86.499 -24.5c-38.667 0 -72.334 8 -101.001 24l16 47
c32.667 -12 59.334 -18 80.001 -18c31.333 0 47 12.667 47 38s-14.333 38 -43 38c-16.667 0 -30.334 -2.66699 -41.001 -8l-22 25l30 75c-33.333 2.66699 -66 9 -98 19s-61.333 23.333 -88 40l32 78c64 -36 125.333 -54 184 -54c44 0 77.833 10 101.5 30
s35.5 48.667 35.5 86c0 31.333 -7.83301 56.5 -23.5 75.5s-40.5 33.167 -74.5 42.5l-82 23c-57.333 16 -99.166 39.833 -125.499 71.5s-39.5 73.834 -39.5 126.501c0 63.333 19.833 113.666 59.5 150.999s93.5 56 161.5 56c31.333 0 64.5 -4 99.5 -12
s68.5 -19.333 100.5 -34l-31 -78c-68.667 26.667 -125.667 40 -171 40c-39.333 0 -69.833 -9.33301 -91.5 -28s-32.5 -45.334 -32.5 -80.001c0 -31.333 7.83301 -56.333 23.5 -75s40.5 -32.667 74.5 -42l82 -23c57.333 -16 99.166 -40 125.499 -72s39.5 -74.333 39.5 -127
c0 -60.667 -17.833 -110 -53.5 -148z" />
    <glyph glyph-name="scedilla" unicode="&#x15f;" horiz-adv-x="436" 
d="M356.5 41c-27.667 -28.667 -67.1689 -45.6689 -118.502 -51.002l-33 -50c7.33301 2 14.333 3 21 3c32 0 56.833 -7.16699 74.5 -21.5s26.5 -34.166 26.5 -59.499c0 -29.333 -10.167 -52.166 -30.5 -68.499s-49.166 -24.5 -86.499 -24.5c-38.667 0 -72.334 8 -101.001 24
l16 47c32.667 -12 59.334 -18 80.001 -18c31.333 0 47 12.667 47 38s-14.333 38 -43 38c-16.667 0 -30.334 -2.66699 -41.001 -8l-22 25l30 75c-57.333 5.33301 -106.333 21.666 -147 48.999l32 75c46.667 -30 95.334 -45 146.001 -45c66.667 0 100 26 100 78
c0 20 -5.33301 36.167 -16 48.5s-27.667 21.166 -51 26.499l-71 17c-46 11.333 -79.5 28.833 -100.5 52.5s-31.5 55.834 -31.5 96.501c0 50.667 16 90.334 48 119.001s77 43 135 43c29.333 0 58.333 -3.66699 87 -11s54.334 -17.666 77.001 -30.999l-36 -76
c-46.667 24 -90 36 -130 36c-60 0 -90 -24 -90 -72c0 -18.667 5.33301 -33.667 16 -45s27.667 -20 51 -26l71 -17c46 -10.667 79.5 -28.334 100.5 -53.001s31.5 -57.667 31.5 -99c0 -48 -13.833 -86.333 -41.5 -115z" />
    <glyph glyph-name="Scaron" unicode="&#x160;" horiz-adv-x="525" 
d="M204 781l-110 133v12h71l89 -90l88 90h68v-12l-110 -133h-96zM442.5 331c26.333 -32 39.5 -74.333 39.5 -127c0 -66.667 -20.833 -119.167 -62.5 -157.5s-98.167 -57.5 -169.5 -57.5c-38 0 -76 5.33301 -114 16s-72 25.334 -102 44.001l32 78c64 -36 125.333 -54 184 -54
c44 0 77.833 10 101.5 30s35.5 48.667 35.5 86c0 31.333 -7.83301 56.5 -23.5 75.5s-40.5 33.167 -74.5 42.5l-82 23c-57.333 16 -99.166 39.833 -125.499 71.5s-39.5 73.834 -39.5 126.501c0 63.333 19.833 113.666 59.5 150.999s93.5 56 161.5 56
c31.333 0 64.5 -4 99.5 -12s68.5 -19.333 100.5 -34l-31 -78c-68.667 26.667 -125.667 40 -171 40c-39.333 0 -69.833 -9.33301 -91.5 -28s-32.5 -45.334 -32.5 -80.001c0 -31.333 7.83301 -56.333 23.5 -75s40.5 -32.667 74.5 -42l82 -23
c57.333 -16 99.166 -40 125.499 -72z" />
    <glyph glyph-name="scaron" unicode="&#x161;" horiz-adv-x="436" 
d="M110.5 2c-31 8.66699 -58.1689 20.999 -81.502 36.999l32 75c46.667 -30 95.334 -45 146.001 -45c66.667 0 100 26 100 78c0 20 -5.33301 36.167 -16 48.5s-27.667 21.166 -51 26.499l-71 17c-46 11.333 -79.5 28.833 -100.5 52.5s-31.5 55.834 -31.5 96.501
c0 50.667 16 90.334 48 119.001s77 43 135 43c29.333 0 58.333 -3.66699 87 -11s54.334 -17.666 77.001 -30.999l-36 -76c-46.667 24 -90 36 -130 36c-60 0 -90 -24 -90 -72c0 -18.667 5.33301 -33.667 16 -45s27.667 -20 51 -26l71 -17
c46 -10.667 79.5 -28.334 100.5 -53.001s31.5 -57.667 31.5 -99c0 -52.667 -16.667 -93.667 -50 -123s-80.333 -44 -141 -44c-33.333 0 -65.5 4.33301 -96.5 13zM351.998 783.999v-10l-96 -159h-90l-96 159v10h65l77 -106l78 106h62z" />
    <glyph glyph-name="uni0162" unicode="&#x162;" horiz-adv-x="490" 
d="M275 0l-40 -60.002c7.33301 2 14.333 3 21 3c32 0 56.833 -7.16699 74.5 -21.5s26.5 -34.166 26.5 -59.499c0 -29.333 -10.167 -52.166 -30.5 -68.499s-49.166 -24.5 -86.499 -24.5c-38.667 0 -72.334 8 -101.001 24l16 47c32.667 -12 59.334 -18 80.001 -18
c31.333 0 47 12.667 47 38s-14.333 38 -43 38c-16.667 0 -30.334 -2.66699 -41.001 -8l-22 25l34 85h-13v638h-177v86h273h176v-86h-176v-638h-18z" />
    <glyph glyph-name="uni0163" unicode="&#x163;" horiz-adv-x="355" 
d="M298.5 -78.5c17.667 -14.333 26.5 -34.167 26.5 -59.5c0 -29.333 -10.167 -52.166 -30.5 -68.499s-49.166 -24.5 -86.499 -24.5c-38.667 0 -72.334 8 -101.001 24l16 47c32.667 -12 59.334 -18 80.001 -18c31.333 0 47 12.667 47 38s-14.333 38 -43 38
c-16.667 0 -30.334 -2.66699 -41.001 -8l-22 25l36 91c-58 22.667 -87 74 -87 154v300h-83v79h83v155h94v-155h146v-79h-146v-284c0 -34.667 6.83301 -59.834 20.5 -75.501s35.167 -23.5 64.5 -23.5c18.667 0 36.667 2.66699 54 8l14 -79c-22.667 -8 -50 -12 -82 -12h-19
l-36 -54c7.33301 2 14.333 3 21 3c32 0 56.833 -7.16699 74.5 -21.5z" />
    <glyph glyph-name="Tcaron" unicode="&#x164;" horiz-adv-x="490" 
d="M197 781l-110 133v12h71l89 -90l88 90h68v-12l-110 -133h-96zM469 638h-176v-638h-96v638h-177v86h273h176v-86z" />
    <glyph glyph-name="tcaron" unicode="&#x165;" horiz-adv-x="355" 
d="M246 770h85v-10l-25 -170h-60v180zM93 160v300.001h-83v79h83v155h94v-155h146v-79h-146v-284c0 -34.667 6.83301 -59.834 20.5 -75.501s35.167 -23.5 64.5 -23.5c18.667 0 36.667 2.66699 54 8l14 -79c-22.667 -8 -50 -12 -82 -12c-110 0 -165 55.333 -165 166z" />
    <glyph glyph-name="Tbar" unicode="&#x166;" horiz-adv-x="490" 
d="M293 638v-253h114v-77h-114v-308h-96v308h-114v77h114v253h-177v86h273h176v-86h-176z" />
    <glyph glyph-name="tbar" unicode="&#x167;" horiz-adv-x="355" 
d="M340 6c-22.667 -8 -50 -11.999 -82 -11.999c-110 0 -165 55.333 -165 166v122h-83v69h83v109h-83v79h83v155h94v-155h146v-79h-146v-109h146v-69h-146v-106c0 -34.667 6.83301 -59.834 20.5 -75.501s35.167 -23.5 64.5 -23.5c18.667 0 36.667 2.66699 54 8z" />
    <glyph glyph-name="Utilde" unicode="&#x168;" horiz-adv-x="642" 
d="M343.5 798.5c-13 7 -27.167 16.833 -42.5 29.5c-10.667 8.66699 -19.5 15.167 -26.5 19.5s-14.167 6.5 -21.5 6.5c-21.333 0 -34 -21.333 -38 -64h-56c0.666992 42.667 9.33398 75.834 26.001 99.501s39.667 35.5 69 35.5c16.667 0 31.5 -3.5 44.5 -10.5
s27.167 -16.833 42.5 -29.5c10.667 -8.66699 19.5 -15.167 26.5 -19.5s14.167 -6.5 21.5 -6.5c21.333 0 34 21.333 38 64h56c-0.666992 -42.667 -9.33398 -75.834 -26.001 -99.501s-39.667 -35.5 -69 -35.5c-16.667 0 -31.5 3.5 -44.5 10.5zM141.5 55.5
c-42.333 45 -63.502 108.167 -63.502 189.5v479h96v-475c0 -58 12.333 -101.833 37 -131.5s61.334 -44.5 110.001 -44.5s85.334 14.833 110.001 44.5s37 73.5 37 131.5v475h96v-479c0 -81.333 -21.333 -144.5 -64 -189.5s-102.334 -67.5 -179.001 -67.5
c-77.333 0 -137.166 22.5 -179.499 67.5z" />
    <glyph glyph-name="utilde" unicode="&#x169;" horiz-adv-x="537" 
d="M459 539v-539h-84v69c-34.667 -54 -85 -81 -151 -81c-48.667 0 -86.334 14.167 -113.001 42.5s-40 68.166 -40 119.499v389h94v-377c0 -28.667 7.5 -50.167 22.5 -64.5s37.167 -21.5 66.5 -21.5c22.667 0 42.834 4.33301 60.501 13s34.5 22.334 50.5 41.001v409h94z
M288.5 628.5c-13 7 -27.167 16.833 -42.5 29.5c-10.667 8.66699 -19.5 15.167 -26.5 19.5s-14.167 6.5 -21.5 6.5c-21.333 0 -34 -21.333 -38 -64h-56c0.666992 42.667 9.33398 75.834 26.001 99.501s39.667 35.5 69 35.5c16.667 0 31.5 -3.5 44.5 -10.5
s27.167 -16.833 42.5 -29.5c10.667 -8.66699 19.5 -15.167 26.5 -19.5s14.167 -6.5 21.5 -6.5c21.333 0 34 21.333 38 64h56c-0.666992 -42.667 -9.33398 -75.834 -26.001 -99.501s-39.667 -35.5 -69 -35.5c-16.667 0 -31.5 3.5 -44.5 10.5z" />
    <glyph glyph-name="Umacron" unicode="&#x16a;" horiz-adv-x="642" 
d="M179 878h284v-68h-284v68zM141.5 55.5c-42.333 45 -63.502 108.167 -63.502 189.5v479h96v-475c0 -58 12.333 -101.833 37 -131.5s61.334 -44.5 110.001 -44.5s85.334 14.833 110.001 44.5s37 73.5 37 131.5v475h96v-479c0 -81.333 -21.333 -144.5 -64 -189.5
s-102.334 -67.5 -179.001 -67.5c-77.333 0 -137.166 22.5 -179.499 67.5z" />
    <glyph glyph-name="umacron" unicode="&#x16b;" horiz-adv-x="537" 
d="M459 539v-539h-84v69c-34.667 -54 -85 -81 -151 -81c-48.667 0 -86.334 14.167 -113.001 42.5s-40 68.166 -40 119.499v389h94v-377c0 -28.667 7.5 -50.167 22.5 -64.5s37.167 -21.5 66.5 -21.5c22.667 0 42.834 4.33301 60.501 13s34.5 22.334 50.5 41.001v409h94z
M124 708h284v-68h-284v68z" />
    <glyph glyph-name="Ubreve" unicode="&#x16c;" horiz-adv-x="642" 
d="M221 824.5c-24.667 27 -38 64.833 -40 113.5h58c7.33301 -54.667 35 -82 83 -82c48.667 0 76.667 27.333 84 82h55c-2 -48.667 -15.333 -86.5 -40 -113.5s-58 -40.5 -100 -40.5s-75.333 13.5 -100 40.5zM141.5 55.5c-42.333 45 -63.502 108.167 -63.502 189.5v479h96
v-475c0 -58 12.333 -101.833 37 -131.5s61.334 -44.5 110.001 -44.5s85.334 14.833 110.001 44.5s37 73.5 37 131.5v475h96v-479c0 -81.333 -21.333 -144.5 -64 -189.5s-102.334 -67.5 -179.001 -67.5c-77.333 0 -137.166 22.5 -179.499 67.5z" />
    <glyph glyph-name="ubreve" unicode="&#x16d;" horiz-adv-x="537" 
d="M459 539v-539h-84v69c-34.667 -54 -85 -81 -151 -81c-48.667 0 -86.334 14.167 -113.001 42.5s-40 68.166 -40 119.499v389h94v-377c0 -28.667 7.5 -50.167 22.5 -64.5s37.167 -21.5 66.5 -21.5c22.667 0 42.834 4.33301 60.501 13s34.5 22.334 50.5 41.001v409h94z
M166 654.5c-24.667 27 -38 64.833 -40 113.5h58c7.33301 -54.667 35 -82 83 -82c48.667 0 76.667 27.333 84 82h55c-2 -48.667 -15.333 -86.5 -40 -113.5s-58 -40.5 -100 -40.5s-75.333 13.5 -100 40.5z" />
    <glyph glyph-name="Uring" unicode="&#x16e;" horiz-adv-x="642" 
d="M234.5 798c-20.333 19.333 -30.5039 46.333 -30.5039 81s10.333 61.667 31 81s49.334 29 86.001 29s65.334 -9.66699 86.001 -29s31 -46.333 31 -81s-10.167 -61.667 -30.5 -81s-49.166 -29 -86.499 -29s-66.166 9.66699 -86.499 29zM373.996 879
c0 40.667 -17.667 61 -53 61s-53 -20.333 -53 -61s17.667 -61 53 -61s53 20.333 53 61zM141.496 55.5c-42.333 45 -63.502 108.167 -63.502 189.5v479h96v-475c0 -58 12.333 -101.833 37 -131.5s61.334 -44.5 110.001 -44.5s85.334 14.833 110.001 44.5s37 73.5 37 131.5
v475h96v-479c0 -81.333 -21.333 -144.5 -64 -189.5s-102.334 -67.5 -179.001 -67.5c-77.333 0 -137.166 22.5 -179.499 67.5z" />
    <glyph glyph-name="uring" unicode="&#x16f;" horiz-adv-x="537" 
d="M459 539v-539h-84v69c-34.667 -54 -85 -81 -151 -81c-48.667 0 -86.334 14.167 -113.001 42.5s-40 68.166 -40 119.499v389h94v-377c0 -28.667 7.5 -50.167 22.5 -64.5s37.167 -21.5 66.5 -21.5c22.667 0 42.834 4.33301 60.501 13s34.5 22.334 50.5 41.001v409h94z
M180.5 633c-20.333 19.333 -30.5 46.333 -30.5 81s10.167 61.667 30.5 81s48.833 29 85.5 29s65.167 -9.66699 85.5 -29s30.5 -46.333 30.5 -81s-10.167 -61.667 -30.5 -81s-48.833 -29 -85.5 -29s-65.167 9.66699 -85.5 29zM319 714c0 41.333 -17.667 62 -53 62
s-53 -20.667 -53 -62s17.667 -62 53 -62s53 20.667 53 62z" />
    <glyph glyph-name="Uhungarumlaut" unicode="&#x170;" horiz-adv-x="642" 
d="M196 793l91 133h94v-12l-122 -133h-63v12zM351 793l91 133h95v-12l-123 -133h-63v12zM141.5 55.5c-42.333 45 -63.502 108.167 -63.502 189.5v479h96v-475c0 -58 12.333 -101.833 37 -131.5s61.334 -44.5 110.001 -44.5s85.334 14.833 110.001 44.5s37 73.5 37 131.5v475
h96v-479c0 -81.333 -21.333 -144.5 -64 -189.5s-102.334 -67.5 -179.001 -67.5c-77.333 0 -137.166 22.5 -179.499 67.5z" />
    <glyph glyph-name="uhungarumlaut" unicode="&#x171;" horiz-adv-x="537" 
d="M459 539v-539h-84v69c-34.667 -54 -85 -81 -151 -81c-48.667 0 -86.334 14.167 -113.001 42.5s-40 68.166 -40 119.499v389h94v-377c0 -28.667 7.5 -50.167 22.5 -64.5s37.167 -21.5 66.5 -21.5c22.667 0 42.834 4.33301 60.501 13s34.5 22.334 50.5 41.001v409h94z
M154 625l55 159h88v-10l-86 -159h-57v10zM296 625l55 159h88v-10l-86 -159h-57v10z" />
    <glyph glyph-name="Uogonek" unicode="&#x172;" horiz-adv-x="642" 
d="M393.5 -48c-12.333 -21.333 -18.502 -41.999 -18.502 -61.999c0 -30 15 -45 45 -45c19.333 0 38.333 5.33301 57 16l23 -52c-13.333 -9.33301 -28.833 -16.666 -46.5 -21.999s-35.834 -8 -54.501 -8c-32.667 0 -58.167 8.16699 -76.5 24.5s-27.5 39.166 -27.5 68.499
c0 20.667 4.5 41.167 13.5 61.5s22.167 39.166 39.5 56.499c-12 -1.33301 -21 -2 -27 -2c-77.333 0 -137.166 22.5 -179.499 67.5s-63.5 108.167 -63.5 189.5v479h96v-475c0 -58 12.333 -101.833 37 -131.5s61.334 -44.5 110.001 -44.5s85.334 14.833 110.001 44.5
s37 73.5 37 131.5v475h96v-479c0 -48 -7.5 -88.833 -22.5 -122.5s-38.5 -63.5 -70.5 -89.5l-26 -22c-22 -18 -39.167 -37.667 -51.5 -59z" />
    <glyph glyph-name="uogonek" unicode="&#x173;" horiz-adv-x="537" 
d="M503 -191c-12.667 -9.33301 -27.833 -16.666 -45.5 -21.999s-35.834 -8 -54.501 -8c-32.667 0 -58.167 8.16699 -76.5 24.5s-27.5 39.166 -27.5 68.499c0 25.333 7 49.333 21 72s33.333 41.334 58 56.001h-2v72c-20.667 -28.667 -43.5 -49.834 -68.5 -63.501
s-53.167 -20.5 -84.5 -20.5c-48 0 -85.333 14.167 -112 42.5s-40 68.166 -40 119.499v389h94v-377c0 -28 7.5 -49.333 22.5 -64s37.167 -22 66.5 -22c22.667 0 42.834 4.33301 60.501 13s34.5 22.334 50.5 41.001v409h94v-539h-1c-52.667 -33.333 -79 -70 -79 -110
c0 -30 15 -45 45 -45c18.667 0 37.667 5.33301 57 16z" />
    <glyph glyph-name="Wcircumflex" unicode="&#x174;" horiz-adv-x="850" 
d="M334 781h-68v12l110 133h96l110 -133v-12h-71l-89 90zM817 724l-168 -724h-107l-119 579l-117 -579h-107l-167 724h101l121 -614l118 613h105l121 -612l120 613h99z" />
    <glyph glyph-name="wcircumflex" unicode="&#x175;" horiz-adv-x="743" 
d="M715 539l-145 -539h-102l-96 418l-97 -418h-103l-145 539h98l100 -442l99 442h98l99 -440l97 440h97zM514 625v-10h-65l-78 106l-77 -106h-62v10l96 159h90z" />
    <glyph glyph-name="Ycircumflex" unicode="&#x176;" horiz-adv-x="558" 
d="M188 781h-68v12l110 133h96l110 -133v-12h-71l-89 90zM535 724l-209 -472v-252h-96v252l-208 472h105l153 -366l151 366h104z" />
    <glyph glyph-name="ycircumflex" unicode="&#x177;" horiz-adv-x="492" 
d="M467 539l-169.999 -532.001c-16.667 -53.333 -44.5 -98.5 -83.5 -135.5s-90.167 -66.833 -153.5 -89.5l-33 80c44.667 16.667 80.667 35.334 108 56.001s48.666 45.667 63.999 75l-174 546h99l124 -436l121 436h98zM388.001 624.999v-10h-65l-78 106l-77 -106h-62v10
l96 159h90z" />
    <glyph glyph-name="Ydieresis" unicode="&#x178;" horiz-adv-x="558" 
d="M148.5 804.5c-9.66699 10.333 -14.5 24.5 -14.5 42.5c0 18.667 4.83301 33.167 14.5 43.5s23.167 15.5 40.5 15.5s30.833 -5.16699 40.5 -15.5s14.5 -24.5 14.5 -42.5c0 -18.667 -4.83301 -33.167 -14.5 -43.5s-23.167 -15.5 -40.5 -15.5s-30.833 5.16699 -40.5 15.5z
M327.5 804.5c-9.66699 10.333 -14.5 24.5 -14.5 42.5c0 18.667 4.83301 33.167 14.5 43.5s23.167 15.5 40.5 15.5s30.833 -5.16699 40.5 -15.5s14.5 -24.5 14.5 -42.5c0 -18.667 -4.83301 -33.167 -14.5 -43.5s-23.167 -15.5 -40.5 -15.5s-30.833 5.16699 -40.5 15.5z
M535 724l-209 -472v-252h-96v252l-208 472h105l153 -366l151 366h104z" />
    <glyph glyph-name="Zacute" unicode="&#x179;" horiz-adv-x="513" 
d="M268 781h-79v12l141 133h111v-12zM477 84v-84h-443v85l330 555h-321v84h428v-84l-330 -556h336z" />
    <glyph glyph-name="zacute" unicode="&#x17a;" horiz-adv-x="429" 
d="M396 79v-79h-365v79l256 381h-247v79h352v-79l-256 -381h260zM160 625l91 159h101v-10l-123 -159h-69v10z" />
    <glyph glyph-name="Zdotaccent" unicode="&#x17b;" horiz-adv-x="513" 
d="M211.5 808c-10.333 10.667 -15.5 25.667 -15.5 45s5.16699 34.5 15.5 45.5s24.833 16.5 43.5 16.5s33.167 -5.33301 43.5 -16s15.5 -25.667 15.5 -45s-5.16699 -34.5 -15.5 -45.5s-24.833 -16.5 -43.5 -16.5s-33.167 5.33301 -43.5 16zM477 84v-84h-443v85l330 555h-321
v84h428v-84l-330 -556h336z" />
    <glyph glyph-name="zdotaccent" unicode="&#x17c;" horiz-adv-x="429" 
d="M396 79v-79h-365v79l256 381h-247v79h352v-79l-256 -381h260zM168.5 642c-10.333 10.667 -15.5 25.667 -15.5 45s5.16699 34.5 15.5 45.5s24.833 16.5 43.5 16.5s33.167 -5.33301 43.5 -16s15.5 -25.667 15.5 -45s-5.16699 -34.5 -15.5 -45.5s-24.833 -16.5 -43.5 -16.5
s-33.167 5.33301 -43.5 16z" />
    <glyph glyph-name="Zcaron" unicode="&#x17d;" horiz-adv-x="513" 
d="M207 781l-110 133v12h71l89 -90l88 90h68v-12l-110 -133h-96zM477 84v-84h-443v85l330 555h-321v84h428v-84l-330 -556h336z" />
    <glyph glyph-name="zcaron" unicode="&#x17e;" horiz-adv-x="429" 
d="M396 79v-79h-365v79l256 381h-247v79h352v-79l-256 -381h260zM353 784v-10l-96 -159h-90l-96 159v10h65l77 -106l78 106h62z" />
    <glyph glyph-name="longs" unicode="&#x17f;" horiz-adv-x="270" 
d="M305 774v-81c-21.333 2.66699 -38.333 4 -51 4c-26.667 0 -47 -8.5 -61 -25.5s-21 -42.167 -21 -75.5v-27v-569h-94v569v27c0 58 15.5 103 46.5 135s74.167 48 129.5 48c19.333 0 36.333 -1.66699 51 -5z" />
    <glyph glyph-name="uni0180" unicode="&#x180;" horiz-adv-x="539" 
d="M444 461c33.333 -48 50.0029 -115.333 50.0029 -202c0 -85.333 -17.333 -151.833 -52 -199.5s-83 -71.5 -145 -71.5c-28 0 -53.833 6.16699 -77.5 18.5s-42.834 29.833 -57.501 52.5v-59h-84v617h-64v64h64v89h94v-89h201v-64h-201v-152
c33.333 45.333 77.666 68 132.999 68c59.333 0 105.666 -24 138.999 -72zM368.003 119c19.333 31.333 29.0029 77.333 29.0029 138c0 62 -10.167 109 -30.5 141s-50.5 48 -90.5 48c-38.667 0 -73.334 -18.667 -104.001 -56v-265c15.333 -16.667 32.666 -29.667 51.999 -39
s39 -14 59 -14c37.333 0 65.666 15.667 84.999 47z" />
    <glyph glyph-name="uni0181" unicode="&#x181;" horiz-adv-x="656" 
d="M614 209c0 -66 -18.667 -117.335 -56 -154.002s-89.666 -55 -156.999 -55h-210h-56v638c-42.667 0 -64 -24 -64 -72l2 -42h-88c-1.33301 16 -2 29.667 -2 41c0 50.667 13.333 89.834 40 117.501s64 41.5 112 41.5h96h137c65.333 0 116.166 -17.667 152.499 -53
s54.5 -84.666 54.5 -147.999c0 -74.667 -31.333 -121.667 -94 -141c88.667 -23.333 133 -81 133 -173zM231 638.998v-226.001h137c72 0 108 36.333 108 109c0 38.667 -9.5 67.834 -28.5 87.501s-46.833 29.5 -83.5 29.5h-133zM514 207.997c0 82 -37.667 123 -113 123h-170
v-246h175c72 0 108 41 108 123z" />
    <glyph glyph-name="uni0182" unicode="&#x182;" horiz-adv-x="585" 
d="M483.5 400.5c39.667 -39 59.5 -95.833 59.5 -170.5s-19.5 -131.667 -58.5 -171s-94.5 -59 -166.5 -59h-235v724h96h313v-75h-313v-190h135c73.333 0 129.833 -19.5 169.5 -58.5zM443 231c0 96.667 -41.333 145 -124 145h-140v-291h134c86.667 0 130 48.667 130 146z" />
    <glyph glyph-name="uni0183" unicode="&#x183;" horiz-adv-x="537" 
d="M442.5 476c33 -50 49.498 -119.667 49.498 -209c0 -88 -17.167 -156.5 -51.5 -205.5s-82.166 -73.5 -143.499 -73.5c-28 0 -53.667 6.16699 -77 18.5s-42.666 29.833 -57.999 52.5v-59h-84v68v432v270h94h248v-76h-248v-211c34 45.333 78.333 68 133 68
c58.667 0 104.5 -25 137.5 -75zM366.498 121c19 32.667 28.5 80.667 28.5 144c0 132 -39.667 198 -119 198c-20 0 -38.333 -4.5 -55 -13.5s-33 -23.167 -49 -42.5v-282c14.667 -16.667 31.667 -29.667 51 -39s39.333 -14 60 -14c36.667 0 64.5 16.333 83.5 49z" />
    <glyph glyph-name="uni0184" unicode="&#x184;" horiz-adv-x="566" 
d="M492.5 400.5c39.667 -39.667 59.5 -96.833 59.5 -171.5c0 -74 -19.5 -130.667 -58.5 -170s-94.5 -59 -166.5 -59h-235v508l-69 63v41l98 112h67v-199v-65h135c73.333 0 129.833 -19.833 169.5 -59.5zM452 231.001c0 96 -41.333 144 -124 144h-140v-290h134
c86.667 0 130 48.667 130 146z" />
    <glyph glyph-name="uni0185" unicode="&#x185;" horiz-adv-x="539" 
d="M443.5 476c33 -50 49.499 -119.666 49.499 -208.999c0 -88 -17.167 -156.5 -51.5 -205.5s-82.166 -73.5 -143.499 -73.5c-28 0 -53.833 6.16699 -77.5 18.5s-42.5 30.166 -56.5 53.499v-60h-84v559l-62 68v33l90 110h66v-193v-95c32.667 46 76.667 69 132 69
c58.667 0 104.5 -25 137.5 -75zM367.499 121.001c19 32.667 28.501 80.668 28.501 144.001c0 65.333 -9.83301 114.666 -29.5 147.999s-49.167 50 -88.5 50c-20.667 0 -39.334 -4.33301 -56.001 -13s-32.667 -22.667 -48 -42v-283c14.667 -16.667 31.5 -29.667 50.5 -39
s38.833 -14 59.5 -14c36.667 0 64.5 16.333 83.5 49z" />
    <glyph glyph-name="uni0186" unicode="&#x186;" horiz-adv-x="561" 
d="M438 640.5c54 -63 81 -151.167 81 -264.5c0 -78.667 -12.333 -147.167 -37 -205.5s-59.834 -103.333 -105.501 -135s-99.167 -47.5 -160.5 -47.5c-32 0 -63.667 4.5 -95 13.5s-59.333 21.5 -84 37.5l32 75c52 -26 101.333 -39 148 -39c64 0 113.667 25.667 149 77
s53 123.333 53 216c0 92 -18 161.5 -54 208.5s-89.333 70.5 -160 70.5c-51.333 0 -98.333 -11.667 -141 -35l-33 73c20.667 15.333 46.834 27.5 78.501 36.5s65.5 13.5 101.5 13.5c97.333 0 173 -31.5 227 -94.5z" />
    <glyph glyph-name="uni0187" unicode="&#x187;" horiz-adv-x="653" 
d="M647 850l-0.00195312 -78l-42 2c-54 0 -81 -24.667 -81 -74v-13v-77h-32c-52 26 -101.333 39 -148 39c-64 0 -113.667 -25.667 -149 -77s-53 -123.333 -53 -216c0 -92 18 -161.5 54 -208.5s89.333 -70.5 160 -70.5c51.333 0 98.333 11.667 141 35l33 -73
c-20.667 -15.333 -46.834 -27.5 -78.501 -36.5s-65.5 -13.5 -101.5 -13.5c-97.333 0 -173 31.5 -227 94.5s-81 151.167 -81 264.5c0 78.667 12.333 147.167 37 205.5s59.834 103.333 105.501 135s99.167 47.5 160.5 47.5c35.333 0 69.333 -5 102 -15
c4 42 19.833 74.5 47.5 97.5s64.834 34.5 111.501 34.5c14.667 0 28.334 -1 41.001 -3z" />
    <glyph glyph-name="uni0188" unicode="&#x188;" horiz-adv-x="543" 
d="M537 669v-78c-18 2 -32 3 -42 3c-53.333 0 -80 -25 -80 -75v-14v-72h-37c-40.667 22 -77.667 33 -111 33c-40.667 0 -72.167 -16.833 -94.5 -50.5s-33.5 -81.167 -33.5 -142.5c0 -132 47 -198 141 -198c37.333 0 73.333 10.667 108 32l33 -72
c-18.667 -14.667 -40.5 -26 -65.5 -34s-52.167 -12 -81.5 -12c-73.333 0 -130.333 24.333 -171 73s-61 116.667 -61 204c0 56.667 9.5 106.5 28.5 149.5s45.667 76.333 80 100s73.833 35.5 118.5 35.5c21.333 0 44.333 -3.33301 69 -10c4 41.333 19.667 73.333 47 96
s64.333 34 111 34c11.333 0 25 -0.666992 41 -2z" />
    <glyph glyph-name="uni0189" unicode="&#x189;" horiz-adv-x="647" 
d="M514 632.5c53.333 -61 80.001 -151.167 80.001 -270.5s-26.833 -209.5 -80.5 -270.5s-131.5 -91.5 -233.5 -91.5h-197v328h-62v77h62v319h199c101.333 0 178.666 -30.5 231.999 -91.5zM440.501 154.5c35.667 46.333 53.499 115.5 53.499 207.5
c0 91.333 -18 160.333 -54 207s-89.667 70 -161 70h-100v-234h166v-77h-166v-243h102c70.667 0 123.834 23.167 159.501 69.5z" />
    <glyph glyph-name="uni018A" unicode="&#x18a;" horiz-adv-x="699" 
d="M566.5 632.5c53.667 -61 80.5 -151.168 80.5 -270.501s-27 -209.5 -81 -270.5s-132 -91.5 -234 -91.5h-197v638c-42.667 0 -64 -24 -64 -72l2 -42h-88c-1.33301 16 -2 29.667 -2 41c0 50.667 13.333 89.834 40 117.501s64 41.5 112 41.5h199
c101.333 0 178.833 -30.5 232.5 -91.5zM493 154.999c36 46.667 53.999 115.667 53.999 207s-18.167 160.333 -54.5 207s-90.166 70 -161.499 70h-100v-554h102c70.667 0 124 23.333 160 70z" />
    <glyph glyph-name="uni018B" unicode="&#x18b;" horiz-adv-x="585" 
d="M502 0h-235c-72 0 -127.5 19.667 -166.5 59s-58.5 96.333 -58.5 171s19.833 131.5 59.5 170.5s96.167 58.5 169.5 58.5h135v190h-313v75h409v-724zM406 376h-140c-82.667 0 -124 -48.333 -124 -145c0 -97.333 43.333 -146 130 -146h134v291z" />
    <glyph glyph-name="uni018C" unicode="&#x18c;" horiz-adv-x="537" 
d="M459 0h-83.001v73c-33.333 -56.667 -81 -85 -143 -85c-59.333 0 -105.333 24.833 -138 74.5s-49 119.167 -49 208.5c0 88.667 17 157.5 51 206.5s81.667 73.5 143 73.5c25.333 0 48.833 -5 70.5 -15s39.834 -24.333 54.501 -43v201h-248v76h342v-770zM316.999 89
c16.667 8.66699 32.666 22.667 47.999 42v283c-14.667 16.667 -31.667 29.667 -51 39s-39 14 -59 14c-36.667 0 -64.5 -16.333 -83.5 -49s-28.5 -81 -28.5 -145c0 -65.333 10 -114.5 30 -147.5s49.333 -49.5 88 -49.5c20.667 0 39.334 4.33301 56.001 13z" />
    <glyph glyph-name="uni018D" unicode="&#x18d;" horiz-adv-x="521" 
d="M146.5 -208.5c-23 7.66699 -44.833 17.8311 -65.5 30.498l33 73c22.667 -12 42 -20.833 58 -26.5s36.333 -8.5 61 -8.5c28 0 49.333 6 64 18s22 28.667 22 50c0 18.667 -6.66699 34.667 -20 48s-34.333 29.666 -63 48.999l-31 21c-34.667 25.333 -62.667 48.5 -84 69.5
s-39.166 47.667 -53.499 80s-21.5 71.5 -21.5 117.5c0 35.333 6.5 71 19.5 107s35.5 66.667 67.5 92s74.667 38 128 38c49.333 0 90 -11.167 122 -33.5s55.333 -51.166 70 -86.499s22 -73 22 -113c0 -53.333 -12 -102.666 -36 -147.999s-63.333 -80 -118 -104
c29.333 -21.333 51.166 -42.666 65.499 -63.999s21.5 -45 21.5 -71c0 -48 -15.833 -85 -47.5 -111s-75.167 -39 -130.5 -39c-32.667 0 -60.5 3.83301 -83.5 11.5zM344.5 185.497c23 34.333 34.499 77.834 34.499 130.501c0 49.333 -11 87.666 -33 114.999s-51 41 -87 41
c-36.667 0 -65.167 -14.333 -85.5 -43s-30.5 -66.667 -30.5 -114c0 -53.333 9.33301 -94.5 28 -123.5s47.334 -55.5 86.001 -79.5c35.333 14.667 64.5 39.167 87.5 73.5z" />
    <glyph glyph-name="uni018E" unicode="&#x18e;" horiz-adv-x="538" 
d="M455 724v-724h-421v85h325v243h-231v85h231v226h-312v85h408z" />
    <glyph glyph-name="uni018F" unicode="&#x18f;" horiz-adv-x="643" 
d="M510.5 636.5c53 -65.667 79.5 -157.501 79.5 -275.501c0 -117.333 -24.167 -208.666 -72.5 -273.999s-115.833 -98 -202.5 -98c-87.333 0 -155.5 30.667 -204.5 92s-73.5 147.333 -73.5 258c0 18 1.66699 37.667 5 59h451c-5.33301 78 -25.833 138.333 -61.5 181
s-83.5 64 -143.5 64c-28 0 -57.667 -4.33301 -89 -13s-61.333 -20.667 -90 -36l-36 78c28.667 20 62 35.5 100 46.5s76.667 16.5 116 16.5c94.667 0 168.5 -32.833 221.5 -98.5zM441 136.999c29.333 40 46.334 98.999 51.001 176.999h-356
c2 -75.333 18.667 -133.666 50 -174.999s75 -62 131 -62c53.333 0 94.666 20 123.999 60z" />
    <glyph glyph-name="uni0190" unicode="&#x190;" horiz-adv-x="515" 
d="M510 40c-28.667 -17.333 -61.501 -30.332 -98.501 -38.999s-75.167 -13 -114.5 -13c-79.333 0 -142.666 18.667 -189.999 56s-71 92 -71 164c0 88.667 44.333 146.667 133 174c-71.333 31.333 -107 85.333 -107 162c0 62 21.5 109.5 64.5 142.5s98.833 49.5 167.5 49.5
s131.667 -16 189 -48l-32 -74c-52 25.333 -102.333 38 -151 38c-42 0 -75.5 -10.333 -100.5 -31s-37.5 -50.334 -37.5 -89.001c0 -37.333 10.833 -66.5 32.5 -87.5s53.167 -31.5 94.5 -31.5h104v-82h-111c-46 0 -81.833 -9.16699 -107.5 -27.5s-38.5 -49.166 -38.5 -92.499
c0 -44.667 14 -78.667 42 -102s69.333 -35 124 -35c29.333 0 59 3.66699 89 11s57.333 17.666 82 30.999z" />
    <glyph glyph-name="uni0191" unicode="&#x191;" horiz-adv-x="500" 
d="M179 639v-240.999h249v-86h-249v-312v-62c0 -103.333 -47.667 -155 -143 -155c-23.333 0 -44 3.66699 -62 11l14 80c14 -4 28.333 -6 43 -6c18 0 31.167 5.66699 39.5 17s12.5 29.666 12.5 54.999v226v558h401v-85h-305z" />
    <glyph glyph-name="florin" unicode="&#x192;" horiz-adv-x="510" 
d="M307 554l-16.999 -139h144v-79h-153l-45 -369c-6 -56 -24.5 -99.333 -55.5 -130s-71.167 -46 -120.5 -46c-17.333 0 -36 2.33301 -56 7l13 89c15.333 -3.33301 29 -5 41 -5c24 0 43.167 8 57.5 24s23.166 39.333 26.499 70l43 360h-101v79h111l18 148
c6.66699 54.667 25.5 97.167 56.5 127.5s71.167 45.5 120.5 45.5c23.333 0 45.5 -3.66699 66.5 -11s38.833 -17.333 53.5 -30l-46 -74c-24 16 -48.667 24 -74 24c-48 0 -75.667 -30.333 -83 -91z" />
    <glyph glyph-name="uni0193" unicode="&#x193;" horiz-adv-x="711" 
d="M671 850l-0.00195312 -78.001l-42 2c-54 0 -81 -24.667 -81 -74v-13v-78h-28c-52.667 27.333 -105.334 41 -158.001 41c-69.333 0 -121.666 -24.167 -156.999 -72.5s-53 -120.166 -53 -215.499s17.833 -167.333 53.5 -216s88.5 -73 158.5 -73
c34.667 0 68.334 5.33301 101.001 16v217h-119v85h215v-351c-24.667 -16.667 -54.334 -29.5 -89.001 -38.5s-70.667 -13.5 -108 -13.5c-65.333 0 -121.333 14.833 -168 44.5s-82.334 72.5 -107.001 128.5s-37 123 -37 201s12.333 145 37 201s60.334 98.833 107.001 128.5
s102.667 44.5 168 44.5c38 0 73.667 -4.66699 107 -14c4 41.333 19.833 73.5 47.5 96.5s64.834 34.5 111.501 34.5c14.667 0 28.334 -1 41.001 -3z" />
    <glyph glyph-name="uni0194" unicode="&#x194;" horiz-adv-x="602" 
d="M395 47c16 -40.667 24.001 -74.666 24.001 -101.999c0 -37.333 -10.333 -66.333 -31 -87s-49.334 -31 -86.001 -31s-65.167 10.167 -85.5 30.5s-30.5 49.166 -30.5 86.499c0 26.667 7.66699 61 23 103l48 125l-227 552h103l169 -436l167 436h102l-226 -549z
M335.001 -50.999c0 24.667 -6.66699 52.667 -20 84l-14 34l-14 -34c-14 -33.333 -21 -61 -21 -83c0 -33.333 12 -50 36 -50c22 0 33 16.333 33 49z" />
    <glyph glyph-name="uni0195" unicode="&#x195;" horiz-adv-x="849" 
d="M771 280c0 -98.667 -16.668 -172.166 -50.001 -220.499s-84 -72.5 -152 -72.5c-65.333 0 -113.166 18 -143.499 54s-45.5 83 -45.5 141v144v51c0 57.333 -31 86 -93 86c-42.667 0 -81 -15.667 -115 -47v-416h-94v770h94v-281c40 41.333 88.333 62 145 62
c49.333 0 87.833 -14.333 115.5 -43s41.5 -68.667 41.5 -120v-188v-3c0 -82 32.333 -123 97 -123c38 0 64.333 16.167 79 48.5s22 83.5 22 153.5c0 57.333 -2.5 106.166 -7.5 146.499s-12.5 79.166 -22.5 116.499h99c20 -75.333 30 -161.666 30 -258.999z" />
    <glyph glyph-name="uni0196" unicode="&#x196;" horiz-adv-x="277" 
d="M83 112v611.999h96v-599c0 -15.333 3 -26.666 9 -33.999s15.667 -11 29 -11c10.667 0 22.334 1 35.001 3l7 -81c-22.667 -5.33301 -44.334 -8 -65.001 -8c-74 0 -111 39.333 -111 118z" />
    <glyph glyph-name="uni0197" unicode="&#x197;" horiz-adv-x="297" 
d="M282 335h-85v-335h-96v335h-86v76h86v313h96v-313h85v-76z" />
    <glyph glyph-name="uni0198" unicode="&#x198;" horiz-adv-x="587" 
d="M319 405l270 -405.001h-117l-213 324l-80 -107v-217h-96v724h96v-380l209 304c22 32 44.167 55 66.5 69s47.5 21 75.5 21c21.333 0 39.833 -4 55.5 -12s30.5 -21.333 44.5 -40l-50 -64c-20.667 18.667 -38 28 -52 28c-10 0 -20 -4.16699 -30 -12.5
s-23 -23.166 -39 -44.499z" />
    <glyph glyph-name="uni0199" unicode="&#x199;" horiz-adv-x="504" 
d="M234 239l-61.999 -75v-164h-94v539v98c0 46.667 11.333 82 34 106s55.667 36 99 36c22 0 42.667 -4 62 -12l-12 -73c-13.333 4 -28 6 -44 6c-14.667 0 -25.834 -5 -33.501 -15s-11.5 -26.333 -11.5 -49v-264v-91l200 258h111l-188 -226l199 -313h-111z" />
    <glyph glyph-name="uni019A" unicode="&#x19a;" horiz-adv-x="326" 
d="M289 3c-22.667 -5.33301 -44.668 -7.99902 -66.001 -7.99902c-38 0 -67.167 10.167 -87.5 30.5s-30.5 50.5 -30.5 90.5v245h-80v70h80v339h94v-339h87v-70h-87v-232c0 -18.667 3.66699 -31.834 11 -39.501s19.333 -11.5 36 -11.5c10.667 0 22.334 1 35.001 3z" />
    <glyph glyph-name="uni019B" unicode="&#x19b;" horiz-adv-x="492" 
d="M369 0l-121 434.999l-124 -435h-99l174 546c-3.33301 6.66699 -9 16 -17 28l-115 -60h-11v59l84 44c-28 22 -65.667 42 -113 60l33 80c68 -24.667 121.667 -57 161 -97l108 56h10v-59l-81 -43c16 -25.333 29 -52.666 39 -81.999l170 -532h-98z" />
    <glyph glyph-name="uni019C" unicode="&#x19c;" horiz-adv-x="836" 
d="M753 724v-724h-87v60c-40.667 -48 -89.667 -72 -147 -72c-32.667 0 -60.667 6.83301 -84 20.5s-40.666 33.5 -51.999 59.5c-42.667 -53.333 -93.334 -80 -152.001 -80c-46.667 0 -83 14 -109 42s-39 68 -39 120v574h96v-562c0 -29.333 6.83301 -51 20.5 -65
s34.167 -21 61.5 -21c36.667 0 72.667 15.667 108 47c-0.666992 6 -1 15 -1 27v574h96v-562c0 -29.333 7 -51 21 -65s35.333 -21 64 -21c36.667 0 72.667 15.333 108 46v602h96z" />
    <glyph glyph-name="uni019D" unicode="&#x19d;" horiz-adv-x="678" 
d="M595 724v-723.999h-91l-327 554v-554v-62c0 -51.333 -12 -90 -36 -116s-59.333 -39 -106 -39c-24 0 -45.333 3.66699 -64 11l14 80c14 -4 29 -6 45 -6c18.667 0 32.167 5.66699 40.5 17s12.5 29.666 12.5 54.999v226v558h91l327 -554v554h94z" />
    <glyph glyph-name="uni019E" unicode="&#x19e;" horiz-adv-x="545" 
d="M430.5 508c27.667 -28.667 41.498 -68.667 41.498 -120v-388v-207h-94v272v312c0 57.333 -31 86 -93 86c-21.333 0 -41.166 -3.83301 -59.499 -11.5s-36.166 -19.5 -53.499 -35.5v-416h-94v539h84v-61c41.333 48.667 92.666 73 153.999 73
c48.667 0 86.834 -14.333 114.501 -43z" />
    <glyph glyph-name="uni019F" unicode="&#x19f;" horiz-adv-x="666" 
d="M541 641.5c48 -63 72 -156.167 72 -279.5s-24 -216.5 -72 -279.5s-117.333 -94.5 -208 -94.5s-160.167 31.667 -208.5 95s-72.5 156.333 -72.5 279s24.167 215.667 72.5 279s117.833 95 208.5 95s160 -31.5 208 -94.5zM204.5 589
c-30.333 -41.333 -47.835 -102.333 -52.502 -183h362c-5.33301 81.333 -23.166 142.5 -53.499 183.5s-72.833 61.5 -127.5 61.5c-55.333 0 -98.166 -20.667 -128.499 -62zM461.998 136.5c30.667 42.333 48 105.166 52 188.499h-362
c3.33301 -83.333 20.333 -146.166 51 -188.499s74 -63.5 130 -63.5c55.333 0 98.333 21.167 129 63.5z" />
    <glyph glyph-name="Ohorn" unicode="&#x1a0;" horiz-adv-x="666" 
d="M625.5 700.5c-20.333 -22.333 -53.835 -35.833 -100.502 -40.5c58.667 -62 88 -161.333 88 -298c0 -123.333 -24 -216.5 -72 -279.5s-117.333 -94.5 -208 -94.5s-160.167 31.667 -208.5 95s-72.5 156.333 -72.5 279s24.167 215.667 72.5 279s117.833 95 208.5 95
c19.333 0 35.5 -1 48.5 -3s26.167 -5 39.5 -9c12.667 -3.33301 23.334 -5.83301 32.001 -7.5s19.334 -2.5 32.001 -2.5c32.667 0 55.167 6.33301 67.5 19s18.5 35.667 18.5 69c0 14.667 -1.33301 35 -4 61h85c2.66699 -24 4 -43.667 4 -59
c0 -46.667 -10.167 -81.167 -30.5 -103.5zM467.498 146c30.333 48.667 45.5 120.667 45.5 216s-15.167 167.333 -45.5 216s-75.166 73 -134.499 73s-104.333 -24.333 -135 -73s-46 -120.667 -46 -216s15.333 -167.333 46 -216s75.667 -73 135 -73s104.166 24.333 134.499 73
z" />
    <glyph glyph-name="ohorn" unicode="&#x1a1;" horiz-adv-x="531" 
d="M510 524c-20 -20.667 -53 -32.9971 -99 -36.9971c42.667 -46.667 64 -119.334 64 -218.001c0 -92 -18.5 -161.833 -55.5 -209.5s-90.167 -71.5 -159.5 -71.5c-68.667 0 -121.5 23.833 -158.5 71.5s-55.5 117.5 -55.5 209.5s18.5 162 55.5 210s90.167 72 159.5 72
c15.333 0 33 -2 53 -6c21.333 -4 41 -6 59 -6c32.667 0 55.167 5.66699 67.5 17s18.5 31.666 18.5 60.999c0 16.667 -1.66699 37 -5 61h81c3.33301 -20 5 -39.667 5 -59c0 -42.667 -10 -74.334 -30 -95.001zM348.5 121.003c19.667 33.333 29.5 82.666 29.5 147.999
c0 66 -9.83301 115.667 -29.5 149s-48.834 50 -87.501 50c-78.667 0 -118 -66.333 -118 -199c0 -65.333 9.83301 -114.666 29.5 -147.999s48.834 -50 87.501 -50c39.333 0 68.833 16.667 88.5 50z" />
    <glyph glyph-name="uni01A2" unicode="&#x1a2;" horiz-adv-x="835" 
d="M752 724v-932h-96v847h-87v-598c-30 -16.667 -65.167 -29.334 -105.5 -38.001s-83.5 -13 -129.5 -13c-91.333 0 -161.166 31.333 -209.499 94s-72.5 155.334 -72.5 278.001c0 124 23.167 217 69.5 279s117.166 93 212.499 93c13.333 0 30 -1 50 -3
c59.333 -4.66699 121 -7 185 -7h183zM473 93v549l-26 2c-8 0.666992 -23.167 1.66699 -45.5 3s-44.833 2 -67.5 2c-121.333 0 -182 -95.667 -182 -287s60.667 -287 182 -287c54 0 100.333 6 139 18z" />
    <glyph glyph-name="uni01A3" unicode="&#x1a3;" horiz-adv-x="692" 
d="M614 539l-0.00195312 -744.999h-94v662h-75v-439c-66.667 -18 -127.667 -27 -183 -27c-70 0 -123.5 23.5 -160.5 70.5s-55.5 116.5 -55.5 208.5c0 92.667 18.667 162.5 56 209.5s91 70.5 161 70.5c10 0 19.333 -0.333008 28 -1s16.334 -1.33398 23.001 -2.00098
c46.667 -4.66699 90.334 -7 131.001 -7h169zM350.998 80.001v379.997c-27.333 2.66699 -49 4.33398 -65 5.00098l-23 1c-40 0.666992 -70 -15.666 -90 -48.999s-30 -82.666 -30 -147.999c0 -130.667 39.667 -196 119 -196c29.333 0 59 2.33301 89 7z" />
    <glyph glyph-name="uni01A4" unicode="&#x1a4;" horiz-adv-x="609" 
d="M537.5 662c38.333 -41.333 57.501 -99.333 57.501 -174s-19.667 -132.834 -59 -174.501s-94 -62.5 -164 -62.5h-141v-251h-96v638c-42.667 0 -64 -24 -64 -72l2 -42h-88c-1.33301 16 -2 29.667 -2 41c0 50.667 13.333 89.834 40 117.501s64 41.5 112 41.5h96h145
c69.333 0 123.166 -20.667 161.499 -62zM465.001 374c20 25.333 30.001 62.666 30.001 111.999c0 50.667 -10.333 88.834 -31 114.501s-51.334 38.5 -92.001 38.5h-141v-303h145c39.333 0 69 12.667 89 38z" />
    <glyph glyph-name="uni01A5" unicode="&#x1a5;" horiz-adv-x="537" 
d="M442.5 476c33 -50 49.498 -119.668 49.498 -209.001c0 -88 -17.167 -156.5 -51.5 -205.5s-82.166 -73.5 -143.499 -73.5c-25.333 0 -48.666 4.83301 -69.999 14.5s-39.666 23.834 -54.999 42.501v-252h-94v603v143v98c0 46.667 11.333 82 34 106s55.667 36 99 36
c22 0 42.667 -4 62 -12l-12 -73c-17.333 4 -32 6 -44 6c-14.667 0 -25.834 -5 -33.501 -15s-11.5 -26.333 -11.5 -49v-154c34 46 78.333 69 133 69c58.667 0 104.5 -25 137.5 -75zM366.498 120.999c19 32.667 28.501 80.667 28.501 144c0 132 -39.667 198 -119 198
c-20 0 -38.5 -4.5 -55.5 -13.5s-33.167 -23.167 -48.5 -42.5v-282c15.333 -16.667 32.666 -29.667 51.999 -39s39 -14 59 -14c36.667 0 64.5 16.333 83.5 49z" />
    <glyph glyph-name="uni01A6" unicode="&#x1a6;" horiz-adv-x="578" 
d="M310 227h-131v-227h-96v724h96v-82h136c66.667 0 118.667 -18.5 156 -55.5s56 -87.5 56 -151.5c0 -46.667 -10.167 -86.5 -30.5 -119.5s-49.5 -56.833 -87.5 -71.5l220 -354h-118zM179 310h136c38 0 66.167 10.667 84.5 32s27.5 52 27.5 92
c0 39.333 -9.66699 69.833 -29 91.5s-48.333 32.5 -87 32.5h-132v-248z" />
    <glyph glyph-name="uni01A7" unicode="&#x1a7;" horiz-adv-x="525" 
d="M105.5 46.5c-41.667 38.333 -62.5 90.833 -62.5 157.5c0 52.667 13.167 95 39.5 127s68.166 56 125.499 72l82 23c34 9.33301 58.833 23.333 74.5 42s23.5 43.667 23.5 75c0 34.667 -10.833 61.334 -32.5 80.001s-52.167 28 -91.5 28
c-45.333 0 -102.333 -13.333 -171 -40l-31 78c32 14.667 65.5 26 100.5 34s68.167 12 99.5 12c68 0 121.833 -18.667 161.5 -56s59.5 -87.666 59.5 -150.999c0 -52.667 -13.167 -94.834 -39.5 -126.501s-68.166 -55.5 -125.499 -71.5l-82 -23
c-34 -9.33301 -58.833 -23.5 -74.5 -42.5s-23.5 -44.167 -23.5 -75.5c0 -37.333 11.833 -66 35.5 -86s57.5 -30 101.5 -30c58.667 0 120 18 184 54l32 -78c-30 -18.667 -64 -33.334 -102 -44.001s-76 -16 -114 -16c-71.333 0 -127.833 19.167 -169.5 57.5z" />
    <glyph glyph-name="uni01A8" unicode="&#x1a8;" horiz-adv-x="436" 
d="M88 33c-33.333 29.333 -50.001 70.334 -50.001 123.001c0 41.333 10.5 74.333 31.5 99s54.5 42.334 100.5 53.001l71 17c23.333 6 40.333 14.667 51 26s16 26.333 16 45c0 48 -30 72 -90 72c-40 0 -83.333 -12 -130 -36l-36 76c22.667 13.333 48.5 23.666 77.5 30.999
s57.833 11 86.5 11c58 0 103 -14.333 135 -43s48 -68.334 48 -119.001c0 -40.667 -10.5 -72.834 -31.5 -96.501s-54.5 -41.167 -100.5 -52.5l-71 -17c-23.333 -5.33301 -40.333 -14.166 -51 -26.499s-16 -28.5 -16 -48.5c0 -52 33.333 -78 100 -78
c50.667 0 99.334 15 146.001 45l32 -75c-23.333 -16 -50.5 -28.333 -81.5 -37s-63.167 -13 -96.5 -13c-60.667 0 -107.667 14.667 -141 44z" />
    <glyph glyph-name="uni01A9" unicode="&#x1a9;" horiz-adv-x="543" 
d="M45 84l216 283l-216 273v84h462v-84h-347l220 -273l-220 -283h347v-84h-462v84z" />
    <glyph glyph-name="uni01AA" unicode="&#x1aa;" horiz-adv-x="300" 
d="M355 -135l0.00195312 -81.002c-14.667 -3.33301 -32 -5 -52 -5c-55.333 0 -98.333 16 -129 48s-46 77 -46 135v110v485c-6 -6 -14.5 -10.833 -25.5 -14.5s-22.833 -5.5 -35.5 -5.5c-35.333 0 -62.833 10.5 -82.5 31.5s-29.5 50.5 -29.5 88.5
c0 40.667 11.5 72.334 34.5 95.001s55.167 34 96.5 34s74.166 -11.667 98.499 -35s36.5 -54.666 36.5 -93.999v-650v-45c0 -33.333 7 -58.5 21 -75.5s34.333 -25.5 61 -25.5c13.333 0 30.666 1.33301 51.999 4zM131.002 660.998c0 34 -14.667 51 -44 51
c-30 0 -45 -17.667 -45 -53s14.333 -53 43 -53c30.667 0 46 18.333 46 55z" />
    <glyph glyph-name="uni01AB" unicode="&#x1ab;" horiz-adv-x="355" 
d="M340 -75c0 -94 -43 -140.998 -129 -140.998c-25.333 0 -47.333 3.66699 -66 11l12 75c10.667 -4 26.667 -6 48 -6c16.667 0 29.167 5 37.5 15s12.5 26.333 12.5 49v66c-108 1.33301 -162 56.666 -162 165.999v300h-83v79h83v155h94v-155h146v-79h-146v-284
c0 -34.667 6.83301 -59.834 20.5 -75.501s35.167 -23.5 64.5 -23.5c18.667 0 36.667 2.66699 54 8l14 -78v-82z" />
    <glyph glyph-name="uni01AC" unicode="&#x1ac;" horiz-adv-x="489" 
d="M469 638l-177 -0.000976562v-638h-96v638h-50h-3c-42.667 0 -64 -24 -64 -72l2 -42h-88c-1.33301 16 -2 29.667 -2 41c0 50.667 13.333 89.834 40 117.501s64 41.5 112 41.5h149h177v-86z" />
    <glyph glyph-name="uni01AD" unicode="&#x1ad;" horiz-adv-x="355" 
d="M340 6c-22.667 -8 -50 -11.999 -82 -11.999c-110 0 -165 55.333 -165 166v300h-83v79h83v63c0 56 16.667 99.5 50 130.5s80 46.5 140 46.5c17.333 0 33.333 -1.66699 48 -5v-81c-18 2 -34 3 -48 3c-64 0 -96 -31.333 -96 -94v-63h146v-79h-146v-284
c0 -34.667 6.83301 -59.834 20.5 -75.501s35.167 -23.5 64.5 -23.5c18.667 0 36.667 2.66699 54 8z" />
    <glyph glyph-name="uni01AE" unicode="&#x1ae;" horiz-adv-x="490" 
d="M293 638v-472.001v-226c0 -25.333 4.16699 -43.666 12.5 -54.999s21.5 -17 39.5 -17c14.667 0 29 2 43 6l14 -80c-18 -7.33301 -38.667 -11 -62 -11c-95.333 0 -143 51.667 -143 155v62v638h-177v86h273h176v-86h-176z" />
    <glyph glyph-name="Uhorn" unicode="&#x1af;" horiz-adv-x="642" 
d="M648 713c-17.333 -20.667 -45.335 -34.332 -84.002 -40.999v-427c0 -81.333 -21.333 -144.5 -64 -189.5s-102.334 -67.5 -179.001 -67.5c-77.333 0 -137.166 22.5 -179.499 67.5s-63.5 108.167 -63.5 189.5v479h96v-475c0 -58 12.333 -101.833 37 -131.5
s61.334 -44.5 110.001 -44.5s85.334 14.833 110.001 44.5s37 73.5 37 131.5v475h35c32.667 0 55.167 5.66699 67.5 17s18.5 31.666 18.5 60.999c0 16.667 -1.66699 37 -5 61h85c3.33301 -20 5 -39.667 5 -59c0 -40 -8.66699 -70.333 -26 -91z" />
    <glyph glyph-name="uhorn" unicode="&#x1b0;" horiz-adv-x="538" 
d="M543.5 527c-17 -20.667 -45.167 -33.998 -84.5 -39.998v-487h-84v69c-34.667 -54 -85 -81 -151 -81c-48.667 0 -86.334 14.167 -113.001 42.5s-40 68.166 -40 119.499v389h94v-377c0 -28.667 7.5 -50.167 22.5 -64.5s37.167 -21.5 66.5 -21.5
c22.667 0 42.834 4.33301 60.501 13s34.5 22.334 50.5 41.001v409h39c32 0 54 5.66699 66 17s18 31.666 18 60.999c0 16.667 -1.66699 37 -5 61h81c3.33301 -20 5 -39.667 5 -59c0 -40.667 -8.5 -71.334 -25.5 -92.001z" />
    <glyph glyph-name="uni01B1" unicode="&#x1b1;" horiz-adv-x="687" 
d="M190 29c-42 27.333 -73.668 65.334 -95.001 114.001s-32 105 -32 169c0 134.667 41 244.667 123 330h-134v82h252v-86c-41.333 -33.333 -75.166 -75.833 -101.499 -127.5s-39.5 -113.5 -39.5 -185.5c0 -68.667 12 -127.834 36 -177.501s72.333 -74.5 145 -74.5
c65.333 0 111.833 23.167 139.5 69.5s41.5 107.166 41.5 182.499c0 128 -46.667 232.333 -140 313v86h250v-82h-137c40 -42 71.167 -89.667 93.5 -143s33.5 -115.666 33.5 -186.999c0 -64 -10.5 -120.333 -31.5 -169s-52.667 -86.667 -95 -114s-93.833 -41 -154.5 -41
s-112 13.667 -154 41z" />
    <glyph glyph-name="uni01B2" unicode="&#x1b2;" horiz-adv-x="642" 
d="M564 353l-0.00292969 -107.999c0 -81.333 -21.333 -144.5 -64 -189.5s-102.334 -67.5 -179.001 -67.5c-77.333 0 -137.166 22.5 -179.499 67.5s-63.5 108.167 -63.5 189.5v479h96v-475c0 -58 12.333 -101.833 37 -131.5s61.334 -44.5 110.001 -44.5
s85.334 14.833 110.001 44.5s37 73.5 37 131.5v214v116c0 25.333 -4.16699 43.666 -12.5 54.999s-21.5 17 -39.5 17c-15.333 0 -30 -2 -44 -6l-14 80c18.667 7.33301 39.334 11 62.001 11c96 0 144 -51.667 144 -155v-228z" />
    <glyph glyph-name="uni01B3" unicode="&#x1b3;" horiz-adv-x="616" 
d="M610.5 704c19.667 -24 30.832 -59.333 33.499 -106l-79 -15c-2.66699 23.333 -7 40.333 -13 51s-14 16 -24 16c-9.33301 0 -17.5 -3.66699 -24.5 -11s-14.5 -20 -22.5 -38l-155 -349v-252h-96v252l-208 472h105l153 -366l113 271c16 38 34.833 66 56.5 84
s47.834 27 78.501 27c35.333 0 62.833 -12 82.5 -36z" />
    <glyph glyph-name="uni01B4" unicode="&#x1b4;" horiz-adv-x="592" 
d="M617 517l-76.999 -14.001c-4.66699 43.333 -17 65 -37 65c-9.33301 0 -17.833 -5.33301 -25.5 -16s-15.5 -28 -23.5 -52l-157 -493c-16.667 -53.333 -44.5 -98.5 -83.5 -135.5s-90.167 -66.833 -153.5 -89.5l-33 80c44.667 16.667 80.667 35.334 108 56.001
s48.666 45.667 63.999 75l-174 546h99l124 -436l120 428c22 82 67 123 135 123c70.667 0 108.667 -45.667 114 -137z" />
    <glyph glyph-name="uni01B5" unicode="&#x1b5;" horiz-adv-x="513" 
d="M477 84v-84h-443v85l153 257h-114v74h158l133 224h-321v84h428v-84l-133 -224h100v-74h-144l-153 -258h336z" />
    <glyph glyph-name="uni01B6" unicode="&#x1b6;" horiz-adv-x="429" 
d="M396 79v-79h-365v79l109 163h-88v65h132l103 153h-247v79h352v-79l-103 -153h91v-65h-135l-109 -163h260z" />
    <glyph glyph-name="uni01B7" unicode="&#x1b7;" horiz-adv-x="536" 
d="M492 222c0 -76 -24.8311 -134 -74.498 -174s-113.834 -60 -192.501 -60c-84.667 0 -156.334 18 -215.001 54l35 76c60 -29.333 119 -44 177 -44c54 0 95.833 12.833 125.5 38.5s44.5 62.5 44.5 110.5c0 49.333 -17.167 84.333 -51.5 105s-84.5 31 -150.5 31h-39v73
l183 207h-288v85h401v-86l-185 -207c153.333 -13.333 230 -83 230 -209z" />
    <glyph glyph-name="uni01B8" unicode="&#x1b8;" horiz-adv-x="536" 
d="M526 42c-58.667 -36 -130.332 -54 -214.999 -54c-78.667 0 -142.834 20 -192.501 60s-74.5 98 -74.5 174c0 126 76.667 195.667 230 209l-185 207v86h401v-85h-288l183 -207v-73h-39c-66 0 -116.167 -10.333 -150.5 -31s-51.5 -55.667 -51.5 -105
c0 -48 14.833 -84.833 44.5 -110.5s71.5 -38.5 125.5 -38.5c58 0 117 14.667 177 44z" />
    <glyph glyph-name="uni01B9" unicode="&#x1b9;" horiz-adv-x="469" 
d="M453 -180c-46.667 -26.667 -105 -40 -175 -40c-45.333 0 -86.5 8.5 -123.5 25.5s-66.5 42.833 -88.5 77.5s-33 77 -33 127c0 126 73.333 195.333 220 208l-182 242v79h362v-79h-258l176 -240v-70h-43c-54.667 0 -98 -10.667 -130 -32s-48 -57.333 -48 -108
c0 -47.333 13.5 -83.833 40.5 -109.5s64.5 -38.5 112.5 -38.5c44 0 89 11 135 33z" />
    <glyph glyph-name="uni01BA" unicode="&#x1ba;" horiz-adv-x="429" 
d="M254.5 -116.5c29.667 7 58.834 17.833 87.501 32.5l31 -74c-64.667 -31.333 -131.334 -47 -200.001 -47c-56.667 0 -100.334 12.167 -131.001 36.5s-46 59.5 -46 105.5c0 52.667 17 87.334 51 104.001s75 25.667 123 27c27.333 1.33301 49.666 3.83301 66.999 7.5
s32 11.667 44 24s18 30.833 18 55.5c0 32 -12.167 55.333 -36.5 70s-64.166 22 -119.499 22h-33v69l135 144h-230v79h344v-81l-142 -143c61.333 -5.33301 106.5 -20.833 135.5 -46.5s43.5 -63.167 43.5 -112.5c0 -46.667 -11.333 -82 -34 -106s-49.667 -39.833 -81 -47.5
s-67.666 -12.5 -108.999 -14.5c-25.333 -0.666992 -45.833 -4.33398 -61.5 -11.001s-23.5 -21 -23.5 -43c0 -40.667 30 -61 90 -61c22 0 47.833 3.5 77.5 10.5z" />
    <glyph glyph-name="uni01BB" unicode="&#x1bb;" horiz-adv-x="493" 
d="M328 319l-188 -237.002h302v-82h-411v82l184 237h-170v75h228c24.667 32 42 58.833 52 80.5s15 43.167 15 64.5c0 33.333 -10.333 60 -31 80s-48.334 30 -83.001 30c-25.333 0 -51.833 -4.83301 -79.5 -14.5s-53.167 -23.167 -76.5 -40.5l-43 73
c26 20.667 57.833 37.334 95.5 50.001s74.834 19 111.501 19c60.667 0 109.5 -17.167 146.5 -51.5s55.5 -79.833 55.5 -136.5c0 -24.667 -4.16699 -49.167 -12.5 -73.5s-21.833 -51.166 -40.5 -80.499h59v-75h-114z" />
    <glyph glyph-name="uni01BC" unicode="&#x1bc;" horiz-adv-x="509" 
d="M408 389c38.667 -38 57.998 -91 57.998 -159c0 -48.667 -9.5 -91.167 -28.5 -127.5s-46.167 -64.5 -81.5 -84.5s-77 -30 -125 -30c-33.333 0 -67.333 5.16699 -102 15.5s-63.334 23.833 -86.001 40.5l36 78c24.667 -14.667 50.334 -26.167 77.001 -34.5
s51.667 -12.5 75 -12.5c44.667 0 78.834 13.5 102.501 40.5s35.5 64.5 35.5 112.5c0 46 -12.5 81.333 -37.5 106s-63.833 38.667 -116.5 42l-125 9v257h-76v82h133h290v-82h-253v-183l54 -4c74.667 -6 131.334 -28 170.001 -66z" />
    <glyph glyph-name="uni01BD" unicode="&#x1bd;" horiz-adv-x="440" 
d="M350.5 285c34.333 -27.333 51.501 -67 51.501 -119c0 -56.667 -18 -100.5 -54 -131.5s-86 -46.5 -150 -46.5c-29.333 0 -58.833 4 -88.5 12s-55.167 18.667 -76.5 32l32 73c20.667 -10.667 42.667 -19 66 -25s45.666 -9 66.999 -9c34.667 0 61.167 8 79.5 24
s27.5 39.667 27.5 71c0 56.667 -39.333 87.667 -118 93l-112 8v193h-66v79h115h253v-79h-211v-124l37 -3c64 -4.66699 113.167 -20.667 147.5 -48z" />
    <glyph glyph-name="uni01BE" unicode="&#x1be;" horiz-adv-x="467" 
d="M131.5 4c-33.667 10 -62.168 23 -85.501 39l32 76c22.667 -14.667 47.334 -26.334 74.001 -35.001s52.667 -13 78 -13c66 0 99 24.667 99 74c0 20 -6.16699 35.833 -18.5 47.5s-30.833 23.834 -55.5 36.501c-22 12 -40 23.167 -54 33.5s-26 24.833 -36 43.5
s-15 42.334 -15 71.001v83h-83v79h83v155h94v-155h146v-79h-146v-79c0 -20.667 6 -36.667 18 -48s31 -24.333 57 -39c22 -12 39.667 -23 53 -33s24.833 -23.833 34.5 -41.5s14.5 -39.834 14.5 -66.501c0 -52 -16.833 -92.333 -50.5 -121s-80.5 -43 -140.5 -43
c-32 0 -64.833 5 -98.5 15z" />
    <glyph glyph-name="uni01BF" unicode="&#x1bf;" horiz-adv-x="528" 
d="M439 496c28.667 -36.667 43 -87.6689 43 -153.002c0 -41.333 -6.5 -78.166 -19.5 -110.499s-34.5 -64.166 -64.5 -95.499s-71.667 -66.333 -125 -105l-101 -71v-168h-94v746h85v-79c38.667 60.667 90.667 91 156 91c51.333 0 91.333 -18.333 120 -55zM356.5 220.498
c19 31 28.5 68.501 28.5 112.501c0 86.667 -31 130 -93 130c-20.667 0 -40.667 -5.33301 -60 -16s-39.333 -27.334 -60 -50.001v-337l82 59c49.333 36.667 83.5 70.5 102.5 101.5z" />
    <glyph glyph-name="uni01C0" unicode="&#x1c0;" horiz-adv-x="253" 
d="M85 770h83v-770h-83v770z" />
    <glyph glyph-name="uni01C1" unicode="&#x1c1;" horiz-adv-x="398" 
d="M85 770h83v-770h-83v770zM230 770h83v-770h-83v770z" />
    <glyph glyph-name="uni01C2" unicode="&#x1c2;" horiz-adv-x="318" 
d="M201 459v-147h102v-80h-102v-232h-84v232h-102v80h102v147h-102v80h102v231h84v-231h102v-80h-102z" />
    <glyph glyph-name="uni01C3" unicode="&#x1c3;" horiz-adv-x="332" 
d="M110 770h108l-16 -576h-74zM120 5c-11.333 11.333 -17 26.999 -17 46.999c0 20.667 5.66699 36.5 17 47.5s26.666 16.5 45.999 16.5c20 0 35.5 -5.66699 46.5 -17s16.5 -26.666 16.5 -45.999c0 -20.667 -5.5 -36.667 -16.5 -48s-26.5 -17 -46.5 -17
c-19.333 0 -34.666 5.66699 -45.999 17z" />
    <glyph glyph-name="uni01C4" unicode="&#x1c4;" horiz-adv-x="1139" 
d="M834 781l-110 133v12h71l89 -90l88 90h68v-12l-110 -133h-96zM514 632.5c53.333 -61 80.001 -151.167 80.001 -270.5s-26.833 -209.5 -80.5 -270.5s-131.5 -91.5 -233.5 -91.5h-197v724h199c101.333 0 178.666 -30.5 231.999 -91.5zM1104 84v-84h-443v85l330 555h-321v84
h428v-84l-330 -556h336zM440.501 154.5c35.667 46.333 53.499 115.5 53.499 207.5c0 91.333 -18 160.333 -54 207s-89.667 70 -161 70h-100v-554h102c70.667 0 123.834 23.167 159.501 69.5z" />
    <glyph glyph-name="uni01C5" unicode="&#x1c5;" horiz-adv-x="1066" 
d="M801 611l-110 133v12h71l89 -90l88 90h68v-12l-110 -133h-96zM514 632.5c53.333 -61 80.001 -151.167 80.001 -270.5s-26.833 -209.5 -80.5 -270.5s-131.5 -91.5 -233.5 -91.5h-197v724h199c101.333 0 178.666 -30.5 231.999 -91.5zM440.501 154.5
c35.667 46.333 53.499 115.5 53.499 207.5c0 91.333 -18 160.333 -54 207s-89.667 70 -161 70h-100v-554h102c70.667 0 123.834 23.167 159.501 69.5zM1033 79v-79h-365v79l255 381h-246v79h352v-79l-256 -381h260z" />
    <glyph glyph-name="uni01C6" unicode="&#x1c6;" horiz-adv-x="967" 
d="M459 770l-0.000976562 -770h-83v73c-33.333 -56.667 -81 -85 -143 -85c-59.333 0 -105.333 24.833 -138 74.5s-49 119.167 -49 208.5c0 88.667 17 157.5 51 206.5s81.667 73.5 143 73.5c25.333 0 48.833 -5 70.5 -15s39.834 -24.333 54.501 -43v277h94zM316.999 89
c16.667 8.66699 32.666 22.667 47.999 42v283c-14.667 16.667 -31.667 29.667 -51 39s-39 14 -59 14c-36.667 0 -64.5 -16.333 -83.5 -49s-28.5 -81 -28.5 -145c0 -65.333 10 -114.5 30 -147.5s49.333 -49.5 88 -49.5c20.667 0 39.334 4.33301 56.001 13zM932.998 79v-79
h-365v79l256 381h-247v79h352v-79l-256 -381h260zM889.998 784v-10l-96 -159h-90l-96 159v10h65l77 -106l78 106h62z" />
    <glyph glyph-name="uni01C7" unicode="&#x1c7;" horiz-adv-x="918" 
d="M179 86h291v-86h-387v724h96v-638zM840 724l0.000976562 -551c0 -60 -15.333 -105.833 -46 -137.5s-75 -47.5 -133 -47.5c-23.333 0 -46.833 3 -70.5 9s-44.834 14.333 -63.501 25l32 78c38 -17.333 71.333 -26 100 -26c29.333 0 50.833 8.5 64.5 25.5
s20.5 43.167 20.5 78.5v546h96z" />
    <glyph glyph-name="uni01C8" unicode="&#x1c8;" horiz-adv-x="745" 
d="M470 86v-86h-387v724h96v-638h291zM442 -143c34.667 12.667 61 26.168 79 40.501s30.833 32.166 38.5 53.499s11.5 49.333 11.5 84v504h94v-505c0 -48.667 -5.83301 -88.167 -17.5 -118.5s-31 -56 -58 -77s-65.833 -40.5 -116.5 -58.5zM574.5 642.001
c-10.333 10.667 -15.5 25.667 -15.5 45s5.16699 34.5 15.5 45.5s24.833 16.5 43.5 16.5s33.167 -5.33301 43.5 -16s15.5 -25.667 15.5 -45s-5.16699 -34.5 -15.5 -45.5s-24.833 -16.5 -43.5 -16.5s-33.167 5.33301 -43.5 16z" />
    <glyph glyph-name="uni01C9" unicode="&#x1c9;" horiz-adv-x="539" 
d="M107 26c-20.667 20.667 -31.002 50.667 -31.002 90v654h94v-641c0 -18 3.83301 -31 11.5 -39s19.834 -12 36.501 -12c10.667 0 22.334 1 35.001 3l7 -78c-21.333 -5.33301 -43 -8 -65 -8c-38 0 -67.333 10.333 -88 31zM234.998 -143c34.667 12.667 61 26.168 79 40.501
s30.833 32.166 38.5 53.499s11.5 49.333 11.5 84v504h94v-505c0 -48.667 -5.83301 -88.167 -17.5 -118.5s-31 -56 -58 -77s-65.833 -40.5 -116.5 -58.5zM367.498 642.001c-10.333 10.667 -15.5 25.667 -15.5 45s5.16699 34.5 15.5 45.5s24.833 16.5 43.5 16.5
s33.167 -5.33301 43.5 -16s15.5 -25.667 15.5 -45s-5.16699 -34.5 -15.5 -45.5s-24.833 -16.5 -43.5 -16.5s-33.167 5.33301 -43.5 16z" />
    <glyph glyph-name="uni01CA" unicode="&#x1ca;" horiz-adv-x="1055" 
d="M501 724h94v-724h-91l-327 554v-554h-94v724h91l327 -554v554zM977 724l0.000976562 -551c0 -60 -15.333 -105.833 -46 -137.5s-75 -47.5 -133 -47.5c-23.333 0 -46.833 3 -70.5 9s-44.834 14.333 -63.501 25l32 78c38 -17.333 71.333 -26 100 -26
c29.333 0 50.833 8.5 64.5 25.5s20.5 43.167 20.5 78.5v546h96z" />
    <glyph glyph-name="uni01CB" unicode="&#x1cb;" horiz-adv-x="932" 
d="M595 724v-724h-91l-327 554v-554h-94v724h91l327 -554v554h94zM629 -143c34.667 12.667 61 26.168 79 40.501s30.833 32.166 38.5 53.499s11.5 49.333 11.5 84v504h94v-505c0 -48.667 -5.83301 -88.167 -17.5 -118.5s-31 -56 -58 -77s-65.833 -40.5 -116.5 -58.5z
M761.5 642.001c-10.333 10.667 -15.5 25.667 -15.5 45s5.16699 34.5 15.5 45.5s24.833 16.5 43.5 16.5s33.167 -5.33301 43.5 -16s15.5 -25.667 15.5 -45s-5.16699 -34.5 -15.5 -45.5s-24.833 -16.5 -43.5 -16.5s-33.167 5.33301 -43.5 16z" />
    <glyph glyph-name="uni01CC" unicode="&#x1cc;" horiz-adv-x="800" 
d="M430.5 508c27.667 -28.667 41.498 -68.667 41.498 -120v-388h-94v377c0 57.333 -31 86 -93 86c-21.333 0 -41.166 -3.83301 -59.499 -11.5s-36.166 -19.5 -53.499 -35.5v-416h-94v539h84v-61c41.333 48.667 92.666 73 153.999 73c48.667 0 86.834 -14.333 114.501 -43z
M495.998 -143c34.667 12.667 61 26.168 79 40.501s30.833 32.166 38.5 53.499s11.5 49.333 11.5 84v504h94v-505c0 -48.667 -5.83301 -88.167 -17.5 -118.5s-31 -56 -58 -77s-65.833 -40.5 -116.5 -58.5zM628.498 642.001c-10.333 10.667 -15.5 25.667 -15.5 45
s5.16699 34.5 15.5 45.5s24.833 16.5 43.5 16.5s33.167 -5.33301 43.5 -16s15.5 -25.667 15.5 -45s-5.16699 -34.5 -15.5 -45.5s-24.833 -16.5 -43.5 -16.5s-33.167 5.33301 -43.5 16z" />
    <glyph glyph-name="uni01CD" unicode="&#x1cd;" horiz-adv-x="634" 
d="M269 781l-110 133v12h71l89 -90l88 90h68v-12l-110 -133h-96zM449 183h-266l-55 -183h-102l237 724h107l237 -724h-103zM424 267l-109 364l-108 -364h217z" />
    <glyph glyph-name="uni01CE" unicode="&#x1ce;" horiz-adv-x="497" 
d="M376.5 508c33 -28.667 49.5 -68.667 49.5 -120v-388h-83v72c-32.667 -54.667 -83.334 -82 -152.001 -82c-49.333 0 -87.833 14 -115.5 42s-41.5 67.333 -41.5 118c0 63.333 24 110.166 72 140.499s123.667 45.833 227 46.5v41c0 29.333 -9.16699 51.5 -27.5 66.5
s-45.166 22.5 -80.499 22.5c-40 0 -80 -9.66699 -120 -29l-23 74c23.333 12.667 48.5 22.334 75.5 29.001s54.167 10 81.5 10c58.667 0 104.5 -14.333 137.5 -43zM333 130l-0.00195312 139c-71.333 -0.666992 -123.666 -10.167 -156.999 -28.5s-50 -46.5 -50 -84.5
c0 -28 7.33301 -49.167 22 -63.5s36.334 -21.5 65.001 -21.5c45.333 0 85.333 19.667 120 59zM378.998 784v-10l-96 -159h-90l-96 159v10h65l77 -106l78 106h62z" />
    <glyph glyph-name="uni01CF" unicode="&#x1cf;" horiz-adv-x="266" 
d="M291 926v-12l-110 -133h-96l-110 133v12h71l89 -90l88 90h68zM85 724h96v-724h-96v724z" />
    <glyph glyph-name="uni01D0" unicode="&#x1d0;" horiz-adv-x="255" 
d="M80 539h94v-539h-94v539zM268 784v-10l-96 -159h-90l-96 159v10h65l77 -106l78 106h62z" />
    <glyph glyph-name="uni01D1" unicode="&#x1d1;" horiz-adv-x="666" 
d="M285 781l-110 133v12h71l89 -90l88 90h68v-12l-110 -133h-96zM541 641.5c48 -63 72 -156.167 72 -279.5s-24 -216.5 -72 -279.5s-117.333 -94.5 -208 -94.5s-160.167 31.667 -208.5 95s-72.5 156.333 -72.5 279s24.167 215.667 72.5 279s117.833 95 208.5 95
s160 -31.5 208 -94.5zM467.5 146c30.333 48.667 45.5 120.667 45.5 216s-15.167 167.333 -45.5 216s-75.166 73 -134.499 73s-104.333 -24.333 -135 -73s-46 -120.667 -46 -216s15.333 -167.333 46 -216s75.667 -73 135 -73s104.166 24.333 134.499 73z" />
    <glyph glyph-name="uni01D2" unicode="&#x1d2;" horiz-adv-x="521" 
d="M101.5 59.5c-37 47.667 -55.5 117.5 -55.5 209.5s18.5 162 55.5 210s90.167 72 159.5 72c68.667 0 121.5 -24 158.5 -72s55.5 -118 55.5 -210s-18.5 -161.833 -55.5 -209.5s-90.167 -71.5 -159.5 -71.5c-68.667 0 -121.5 23.833 -158.5 71.5zM348.5 121
c19.667 33.333 29.5 82.666 29.5 147.999c0 66 -9.83301 115.667 -29.5 149s-48.834 50 -87.501 50c-78.667 0 -118 -66.333 -118 -199c0 -65.333 9.83301 -114.666 29.5 -147.999s48.834 -50 87.501 -50c39.333 0 68.833 16.667 88.5 50zM402 784v-10l-96 -159h-90l-96 159
v10h65l77 -106l78 106h62z" />
    <glyph glyph-name="uni01D3" unicode="&#x1d3;" horiz-adv-x="642" 
d="M273 781l-110 133v12h71l89 -90l88 90h68v-12l-110 -133h-96zM564 724l-0.00195312 -479c0 -81.333 -21.333 -144.5 -64 -189.5s-102.334 -67.5 -179.001 -67.5c-77.333 0 -137.166 22.5 -179.499 67.5s-63.5 108.167 -63.5 189.5v479h96v-475
c0 -58 12.333 -101.833 37 -131.5s61.334 -44.5 110.001 -44.5s85.334 14.833 110.001 44.5s37 73.5 37 131.5v475h96z" />
    <glyph glyph-name="uni01D4" unicode="&#x1d4;" horiz-adv-x="537" 
d="M459 539v-539h-84v69c-34.667 -54 -85 -81 -151 -81c-48.667 0 -86.334 14.167 -113.001 42.5s-40 68.166 -40 119.499v389h94v-377c0 -28.667 7.5 -50.167 22.5 -64.5s37.167 -21.5 66.5 -21.5c22.667 0 42.834 4.33301 60.501 13s34.5 22.334 50.5 41.001v409h94z
M407 784v-10l-96 -159h-90l-96 159v10h65l77 -106l78 106h62z" />
    <glyph glyph-name="uni01D5" unicode="&#x1d5;" horiz-adv-x="642" 
d="M180 990h284v-62h-284v62zM195 786c-9.33301 10 -14.002 23.667 -14.002 41c0 18 4.66699 32 14 42s22.333 15 39 15s29.834 -5 39.501 -15s14.5 -23.667 14.5 -41c0 -18 -4.66699 -32 -14 -42s-22.666 -15 -39.999 -15c-16.667 0 -29.667 5 -39 15zM367.998 786
c-9.33301 10 -14.002 23.667 -14.002 41c0 18 4.66699 32 14 42s22.333 15 39 15s29.834 -5 39.501 -15s14.5 -23.667 14.5 -41c0 -18 -4.66699 -32 -14 -42s-22.666 -15 -39.999 -15c-16.667 0 -29.667 5 -39 15zM141.496 55.5c-42.333 45 -63.502 108.167 -63.502 189.5
v479h96v-475c0 -58 12.333 -101.833 37 -131.5s61.334 -44.5 110.001 -44.5s85.334 14.833 110.001 44.5s37 73.5 37 131.5v475h96v-479c0 -81.333 -21.333 -144.5 -64 -189.5s-102.334 -67.5 -179.001 -67.5c-77.333 0 -137.166 22.5 -179.499 67.5z" />
    <glyph glyph-name="uni01D6" unicode="&#x1d6;" horiz-adv-x="537" 
d="M409 758h-284v62h284v-62zM140 699c9.33301 10 22.3311 15 38.998 15s29.834 -5 39.501 -15s14.5 -23.667 14.5 -41c0 -18 -4.66699 -32 -14 -42s-22.666 -15 -39.999 -15c-16.667 0 -29.667 5 -39 15s-14 23.667 -14 41c0 18 4.66699 32 14 42zM312.998 699
c9.33301 10 22.3311 15 38.998 15s29.834 -5 39.501 -15s14.5 -23.667 14.5 -41c0 -18 -4.66699 -32 -14 -42s-22.666 -15 -39.999 -15c-16.667 0 -29.667 5 -39 15s-14 23.667 -14 41c0 18 4.66699 32 14 42zM458.996 539v-539h-84v69c-34.667 -54 -85 -81 -151 -81
c-48.667 0 -86.334 14.167 -113.001 42.5s-40 68.166 -40 119.499v389h94v-377c0 -28.667 7.5 -50.167 22.5 -64.5s37.167 -21.5 66.5 -21.5c22.667 0 42.834 4.33301 60.501 13s34.5 22.334 50.5 41.001v409h94z" />
    <glyph glyph-name="uni01D7" unicode="&#x1d7;" horiz-adv-x="642" 
d="M290 915l72 127h82v-10l-96 -127h-58v10zM195 786c-9.33301 10 -14.002 23.667 -14.002 41c0 18 4.66699 32 14 42s22.333 15 39 15s29.834 -5 39.501 -15s14.5 -23.667 14.5 -41c0 -18 -4.66699 -32 -14 -42s-22.666 -15 -39.999 -15c-16.667 0 -29.667 5 -39 15z
M367.998 786c-9.33301 10 -14.002 23.667 -14.002 41c0 18 4.66699 32 14 42s22.333 15 39 15s29.834 -5 39.501 -15s14.5 -23.667 14.5 -41c0 -18 -4.66699 -32 -14 -42s-22.666 -15 -39.999 -15c-16.667 0 -29.667 5 -39 15zM141.496 55.5
c-42.333 45 -63.502 108.167 -63.502 189.5v479h96v-475c0 -58 12.333 -101.833 37 -131.5s61.334 -44.5 110.001 -44.5s85.334 14.833 110.001 44.5s37 73.5 37 131.5v475h96v-479c0 -81.333 -21.333 -144.5 -64 -189.5s-102.334 -67.5 -179.001 -67.5
c-77.333 0 -137.166 22.5 -179.499 67.5z" />
    <glyph glyph-name="uni01D8" unicode="&#x1d8;" horiz-adv-x="537" 
d="M293 735h-58v10l72 127h82v-10zM140 616c-9.33301 10 -14.002 23.667 -14.002 41c0 18 4.66699 32 14 42s22.333 15 39 15s29.834 -5 39.501 -15s14.5 -23.667 14.5 -41c0 -18 -4.66699 -32 -14 -42s-22.666 -15 -39.999 -15c-16.667 0 -29.667 5 -39 15zM312.998 699
c9.33301 10 22.3311 15 38.998 15s29.834 -5 39.501 -15s14.5 -23.667 14.5 -41c0 -18 -4.66699 -32 -14 -42s-22.666 -15 -39.999 -15c-16.667 0 -29.667 5 -39 15s-14 23.667 -14 41c0 18 4.66699 32 14 42zM458.996 539v-539h-84v69c-34.667 -54 -85 -81 -151 -81
c-48.667 0 -86.334 14.167 -113.001 42.5s-40 68.166 -40 119.499v389h94v-377c0 -28.667 7.5 -50.167 22.5 -64.5s37.167 -21.5 66.5 -21.5c22.667 0 42.834 4.33301 60.501 13s34.5 22.334 50.5 41.001v409h94z" />
    <glyph glyph-name="uni01D9" unicode="&#x1d9;" horiz-adv-x="642" 
d="M278 906l-99 128v10h63l82 -86l81 86h60v-10l-99 -128h-88zM273.5 869c9.66699 -10 14.498 -23.667 14.498 -41c0 -18 -4.66699 -32 -14 -42s-22.666 -15 -39.999 -15c-16.667 0 -29.667 5 -39 15s-14 23.667 -14 41c0 18 4.66699 32 14 42s22.333 15 39 15
s29.834 -5 39.501 -15zM367.998 869c9.33301 10 22.3311 15 38.998 15s29.834 -5 39.501 -15s14.5 -23.667 14.5 -41c0 -18 -4.66699 -32 -14 -42s-22.666 -15 -39.999 -15c-16.667 0 -29.667 5 -39 15s-14 23.667 -14 41c0 18 4.66699 32 14 42zM563.996 724
l-0.00195312 -479c0 -81.333 -21.333 -144.5 -64 -189.5s-102.334 -67.5 -179.001 -67.5c-77.333 0 -137.166 22.5 -179.499 67.5s-63.5 108.167 -63.5 189.5v479h96v-475c0 -58 12.333 -101.833 37 -131.5s61.334 -44.5 110.001 -44.5s85.334 14.833 110.001 44.5
s37 73.5 37 131.5v475h96z" />
    <glyph glyph-name="uni01DA" unicode="&#x1da;" horiz-adv-x="537" 
d="M222 729l-98 139v10h65l80 -93l79 93h62v-10l-98 -139h-90zM218.5 699c9.66699 -10 14.498 -23.667 14.498 -41c0 -18 -4.66699 -32 -14 -42s-22.666 -15 -39.999 -15c-16.667 0 -29.667 5 -39 15s-14 23.667 -14 41c0 18 4.66699 32 14 42s22.333 15 39 15
s29.834 -5 39.501 -15zM312.998 699c9.33301 10 22.3311 15 38.998 15s29.834 -5 39.501 -15s14.5 -23.667 14.5 -41c0 -18 -4.66699 -32 -14 -42s-22.666 -15 -39.999 -15c-16.667 0 -29.667 5 -39 15s-14 23.667 -14 41c0 18 4.66699 32 14 42zM458.996 539v-539h-84v69
c-34.667 -54 -85 -81 -151 -81c-48.667 0 -86.334 14.167 -113.001 42.5s-40 68.166 -40 119.499v389h94v-377c0 -28.667 7.5 -50.167 22.5 -64.5s37.167 -21.5 66.5 -21.5c22.667 0 42.834 4.33301 60.501 13s34.5 22.334 50.5 41.001v409h94z" />
    <glyph glyph-name="uni01DB" unicode="&#x1db;" horiz-adv-x="642" 
d="M206 1032v10h82l66 -127v-10h-58zM195 786c-9.33301 10 -14.002 23.667 -14.002 41c0 18 4.66699 32 14 42s22.333 15 39 15s29.834 -5 39.501 -15s14.5 -23.667 14.5 -41c0 -18 -4.66699 -32 -14 -42s-22.666 -15 -39.999 -15c-16.667 0 -29.667 5 -39 15zM367.998 786
c-9.33301 10 -14.002 23.667 -14.002 41c0 18 4.66699 32 14 42s22.333 15 39 15s29.834 -5 39.501 -15s14.5 -23.667 14.5 -41c0 -18 -4.66699 -32 -14 -42s-22.666 -15 -39.999 -15c-16.667 0 -29.667 5 -39 15zM141.496 55.5c-42.333 45 -63.502 108.167 -63.502 189.5
v479h96v-475c0 -58 12.333 -101.833 37 -131.5s61.334 -44.5 110.001 -44.5s85.334 14.833 110.001 44.5s37 73.5 37 131.5v475h96v-479c0 -81.333 -21.333 -144.5 -64 -189.5s-102.334 -67.5 -179.001 -67.5c-77.333 0 -137.166 22.5 -179.499 67.5z" />
    <glyph glyph-name="uni01DC" unicode="&#x1dc;" horiz-adv-x="537" 
d="M241 735l-90 127v10h82l66 -127v-10h-58zM140 616c-9.33301 10 -14.002 23.667 -14.002 41c0 18 4.66699 32 14 42s22.333 15 39 15s29.834 -5 39.501 -15s14.5 -23.667 14.5 -41c0 -18 -4.66699 -32 -14 -42s-22.666 -15 -39.999 -15c-16.667 0 -29.667 5 -39 15z
M312.998 616c-9.33301 10 -14.002 23.667 -14.002 41c0 18 4.66699 32 14 42s22.333 15 39 15s29.834 -5 39.501 -15s14.5 -23.667 14.5 -41c0 -18 -4.66699 -32 -14 -42s-22.666 -15 -39.999 -15c-16.667 0 -29.667 5 -39 15zM458.996 539v-539h-84v69
c-34.667 -54 -85 -81 -151 -81c-48.667 0 -86.334 14.167 -113.001 42.5s-40 68.166 -40 119.499v389h94v-377c0 -28.667 7.5 -50.167 22.5 -64.5s37.167 -21.5 66.5 -21.5c22.667 0 42.834 4.33301 60.501 13s34.5 22.334 50.5 41.001v409h94z" />
    <glyph glyph-name="uni01DD" unicode="&#x1dd;" horiz-adv-x="505" 
d="M400 476.5c40.667 -49 61 -117.833 61 -206.5c0 -89.333 -18.833 -158.666 -56.5 -207.999s-90.5 -74 -158.5 -74c-65.333 0 -116 22.667 -152 68s-54 109 -54 191c0 20 1.33301 36.667 4 50h322c-2.66699 55.333 -16.167 97.166 -40.5 125.499s-58.833 42.5 -103.5 42.5
s-86.667 -12.667 -126 -38l-34 71c22 16.667 47.667 29.5 77 38.5s59.333 13.5 90 13.5c73.333 0 130.333 -24.5 171 -73.5zM365 227h-231c0.666992 -49.333 11 -87.833 31 -115.5s47.667 -41.5 83 -41.5c70 0 109 52.333 117 157z" />
    <glyph glyph-name="uni01DE" unicode="&#x1de;" horiz-adv-x="634" 
d="M459 961h-284v68h284v-68zM187.5 804.5c-9.66699 10.333 -14.5 24.5 -14.5 42.5c0 18.667 4.83301 33.167 14.5 43.5s23.167 15.5 40.5 15.5s30.833 -5.16699 40.5 -15.5s14.5 -24.5 14.5 -42.5c0 -18.667 -4.83301 -33.167 -14.5 -43.5s-23.167 -15.5 -40.5 -15.5
s-30.833 5.16699 -40.5 15.5zM447.5 890.5c9.66699 -10.333 14.5 -24.5 14.5 -42.5c0 -18.667 -4.83301 -33.167 -14.5 -43.5s-23.167 -15.5 -40.5 -15.5s-30.833 5.16699 -40.5 15.5s-14.5 24.5 -14.5 42.5c0 18.667 4.83301 33.167 14.5 43.5s23.167 15.5 40.5 15.5
s30.833 -5.16699 40.5 -15.5zM449 183h-266l-55 -183h-102l237 724h107l237 -724h-103zM424 267l-109 364l-108 -364h217z" />
    <glyph glyph-name="uni01DF" unicode="&#x1df;" horiz-adv-x="497" 
d="M380 792h-284v68h284v-68zM109.5 639.5c-9.66699 10.333 -14.5 24.5 -14.5 42.5c0 18.667 4.83301 33.167 14.5 43.5s23.167 15.5 40.5 15.5s30.833 -5.16699 40.5 -15.5s14.5 -24.5 14.5 -42.5c0 -18.667 -4.83301 -33.167 -14.5 -43.5s-23.167 -15.5 -40.5 -15.5
s-30.833 5.16699 -40.5 15.5zM367.5 725.5c9.66699 -10.333 14.5 -24.5 14.5 -42.5c0 -18.667 -4.83301 -33.167 -14.5 -43.5s-23.167 -15.5 -40.5 -15.5s-30.833 5.16699 -40.5 15.5s-14.5 24.5 -14.5 42.5c0 18.667 4.83301 33.167 14.5 43.5s23.167 15.5 40.5 15.5
s30.833 -5.16699 40.5 -15.5zM376.5 508c33 -28.667 49.5 -68.667 49.5 -120v-388h-83v72c-32.667 -54.667 -83.334 -82 -152.001 -82c-49.333 0 -87.833 14 -115.5 42s-41.5 67.333 -41.5 118c0 63.333 24 110.166 72 140.499s123.667 45.833 227 46.5v41
c0 29.333 -9.16699 51.5 -27.5 66.5s-45.166 22.5 -80.499 22.5c-40 0 -80 -9.66699 -120 -29l-23 74c23.333 12.667 48.5 22.334 75.5 29.001s54.167 10 81.5 10c58.667 0 104.5 -14.333 137.5 -43zM333 130l-0.00195312 139
c-71.333 -0.666992 -123.666 -10.167 -156.999 -28.5s-50 -46.5 -50 -84.5c0 -28 7.33301 -49.167 22 -63.5s36.334 -21.5 65.001 -21.5c45.333 0 85.333 19.667 120 59z" />
    <glyph glyph-name="uni01E0" unicode="&#x1e0;" horiz-adv-x="634" 
d="M459 961h-284v68h284v-68zM273.5 898.5c10.333 11 24.833 16.5 43.5 16.5s33.167 -5.33301 43.5 -16s15.5 -25.667 15.5 -45s-5.16699 -34.5 -15.5 -45.5s-24.833 -16.5 -43.5 -16.5s-33.167 5.33301 -43.5 16s-15.5 25.667 -15.5 45s5.16699 34.5 15.5 45.5zM449 183
h-266l-55 -183h-102l237 724h107l237 -724h-103zM424 267l-109 364l-108 -364h217z" />
    <glyph glyph-name="uni01E1" unicode="&#x1e1;" horiz-adv-x="497" 
d="M376.5 508c33 -28.667 49.5 -68.667 49.5 -120v-388h-83v72c-32.667 -54.667 -83.334 -82 -152.001 -82c-49.333 0 -87.833 14 -115.5 42s-41.5 67.333 -41.5 118c0 63.333 24 110.166 72 140.499s123.667 45.833 227 46.5v41c0 29.333 -9.16699 51.5 -27.5 66.5
s-45.166 22.5 -80.499 22.5c-40 0 -80 -9.66699 -120 -29l-23 74c23.333 12.667 48.5 22.334 75.5 29.001s54.167 10 81.5 10c58.667 0 104.5 -14.333 137.5 -43zM333 130l-0.00195312 139c-71.333 -0.666992 -123.666 -10.167 -156.999 -28.5s-50 -46.5 -50 -84.5
c0 -28 7.33301 -49.167 22 -63.5s36.334 -21.5 65.001 -21.5c45.333 0 85.333 19.667 120 59zM194.498 642c-10.333 10.667 -15.5 25.667 -15.5 45s5.16699 34.5 15.5 45.5s24.833 16.5 43.5 16.5s33.167 -5.33301 43.5 -16s15.5 -25.667 15.5 -45
s-5.16699 -34.5 -15.5 -45.5s-24.833 -16.5 -43.5 -16.5s-33.167 5.33301 -43.5 16zM95.998 864h284v-68h-284v68z" />
    <glyph glyph-name="uni01E2" unicode="&#x1e2;" horiz-adv-x="853" 
d="M612 810h-284v68h284v-68zM819 85v-85h-406v175h-232l-85 -175h-104l359 724h98h357v-85h-299v-225h218v-86h-218v-243h312zM413 258v394l-191 -394h191z" />
    <glyph glyph-name="uni01E3" unicode="&#x1e3;" horiz-adv-x="777" 
d="M733 242h-316c2.66699 -55.333 16 -97.166 40 -125.499s57.667 -42.5 101 -42.5c42 0 83 12.667 123 38l34 -71c-22 -16.667 -47.333 -29.5 -76 -38.5s-58.334 -13.5 -89.001 -13.5c-41.333 0 -77.666 8.66699 -108.999 26s-56.666 42.333 -75.999 75
c-25.333 -34.667 -52.333 -60 -81 -76s-60.667 -24 -96 -24c-48.667 0 -86.5 14 -113.5 42s-40.5 67 -40.5 117c0 61.333 23.5 106.666 70.5 135.999s121.167 44.333 222.5 45v48c0 29.333 -8.83301 51.5 -26.5 66.5s-43.834 22.5 -78.501 22.5
c-39.333 0 -78.333 -9.66699 -117 -29l-23 74c22.667 12 47.5 21.5 74.5 28.5s53.5 10.5 79.5 10.5c35.333 0 65.5 -6.66699 90.5 -20s44.167 -32.333 57.5 -57c15.333 24.667 35.833 43.667 61.5 57s55.167 20 88.5 20c64 0 113.833 -22.667 149.5 -68s53.5 -109 53.5 -191
c0 -20 -1.33301 -36.667 -4 -50zM452 429.5c-19.333 -26.333 -30.666 -65.5 -33.999 -117.5h225c-0.666992 49.333 -10.834 87.833 -30.501 115.5s-46.834 41.5 -81.501 41.5c-33.333 0 -59.666 -13.167 -78.999 -39.5zM340 149c-10 34 -15 71.667 -15 113
c-68.667 -0.666992 -119 -9.5 -151 -26.5s-48 -43.833 -48 -80.5c0 -56 28 -84 84 -84c48.667 0 92 26 130 78zM262 708h284v-68h-284v68z" />
    <glyph glyph-name="uni01E4" unicode="&#x1e4;" horiz-adv-x="624" 
d="M629 161l-68 -0.000976562v-121c-24.667 -16.667 -54.334 -29.5 -89.001 -38.5s-70.667 -13.5 -108 -13.5c-65.333 0 -121.333 14.833 -168 44.5s-82.334 72.5 -107.001 128.5s-37 123 -37 201s12.333 145 37 201s60.334 98.833 107.001 128.5s102.667 44.5 168 44.5
c36 0 70.333 -4.5 103 -13.5s59.667 -21.167 81 -36.5l-28 -77c-52.667 27.333 -105.334 41 -158.001 41c-69.333 0 -121.666 -24.167 -156.999 -72.5s-53 -120.166 -53 -215.499s17.833 -167.333 53.5 -216s88.5 -73 158.5 -73c34.667 0 68.334 5.33301 101.001 16v72h-117
v73h117v72h-119v85h215v-157h68v-73z" />
    <glyph glyph-name="uni01E5" unicode="&#x1e5;" horiz-adv-x="536" 
d="M528 -70l-73 -0.000976562c-12 -48 -36.333 -84.833 -73 -110.5s-83.667 -38.5 -141 -38.5c-28 0 -55.167 3 -81.5 9s-49.166 14.333 -68.499 25l26 75c37.333 -19.333 77 -29 119 -29c63.333 0 104 23 122 69h-332v53h342v11v101c-32.667 -46 -77.334 -69 -134.001 -69
c-59.333 0 -105.666 23.167 -138.999 69.5s-50 111.166 -50 194.499c0 82.667 17.333 146.834 52 192.501s83 68.5 145 68.5c28.667 0 54.667 -6.16699 78 -18.5s42.666 -30.166 57.999 -53.499v60h84v-542v-14h66v-53zM318.5 126.499c17 9 33.502 23.168 49.502 42.501v244
c-14.667 17.333 -31.834 30.666 -51.501 39.999s-39.834 14 -60.501 14c-37.333 0 -65.666 -14.833 -84.999 -44.5s-29 -73.167 -29 -130.5c0 -58.667 10.167 -103.167 30.5 -133.5s50.166 -45.5 89.499 -45.5c20.667 0 39.5 4.5 56.5 13.5z" />
    <glyph glyph-name="Gcaron" unicode="&#x1e6;" horiz-adv-x="624" 
d="M290 781l-110 133v12h71l89 -90l88 90h68v-12l-110 -133h-96zM561 391v-351.001c-24.667 -16.667 -54.334 -29.5 -89.001 -38.5s-70.667 -13.5 -108 -13.5c-65.333 0 -121.333 14.833 -168 44.5s-82.334 72.5 -107.001 128.5s-37 123 -37 201s12.333 145 37 201
s60.334 98.833 107.001 128.5s102.667 44.5 168 44.5c36 0 70.333 -4.5 103 -13.5s59.667 -21.167 81 -36.5l-28 -77c-52.667 27.333 -105.334 41 -158.001 41c-69.333 0 -121.666 -24.167 -156.999 -72.5s-53 -120.166 -53 -215.499s17.833 -167.333 53.5 -216
s88.5 -73 158.5 -73c34.667 0 68.334 5.33301 101.001 16v217h-119v85h215z" />
    <glyph glyph-name="gcaron" unicode="&#x1e7;" horiz-adv-x="540" 
d="M462 539l0.00390625 -542.002c0 -68 -19.5 -121 -58.5 -159s-93.167 -57 -162.5 -57c-28 0 -55.333 3 -82 9s-49.667 14.333 -69 25l28 78c37.333 -19.333 76.666 -29 117.999 -29c43.333 0 76.166 11.167 98.499 33.5s33.5 55.5 33.5 99.5v90
c-32.667 -45.333 -77.334 -68 -134.001 -68c-59.333 0 -105.5 23.333 -138.5 70s-49.5 112.334 -49.5 197.001c0 83.333 17.167 148.333 51.5 195s82.5 70 144.5 70c28.667 0 54.667 -6.16699 78 -18.5s42.666 -30.166 57.999 -53.499v60h84zM368.004 160.998
l-0.00195312 252.001c-15.333 17.333 -32.666 30.666 -51.999 39.999s-39.333 14 -60 14c-37.333 0 -65.5 -15 -84.5 -45s-28.5 -74.667 -28.5 -134c0 -60 10 -105.333 30 -136s49.333 -46 88 -46c40.667 0 76.334 18.333 107.001 55zM407.002 783.999v-10l-96 -159h-90
l-96 159v10h65l77 -106l78 106h62z" />
    <glyph glyph-name="uni01E8" unicode="&#x1e8;" horiz-adv-x="586" 
d="M257 781l-110 133v12h71l89 -90l88 90h68v-12l-110 -133h-96zM261 321l-82 -105v-216h-96v724h96v-381l278 381h117l-252 -324l267 -400h-117z" />
    <glyph glyph-name="uni01E9" unicode="&#x1e9;" horiz-adv-x="504" 
d="M173 827h-96l-110 133v12h71l89 -90l88 90h68v-12zM234 239l-62 -75v-164h-94v770h94v-489l200 258h111l-188 -226l199 -313h-111z" />
    </font>
</defs>
</svg>
