<?xml version="1.0" standalone="no"?>
<!DOCTYPE svg PUBLIC "-//W3C//DTD SVG 1.1//EN" "http://www.w3.org/Graphics/SVG/1.1/DTD/svg11.dtd" >
<svg>
<metadata>
Created by FontForge 20090914 at Tue Jan 24 02:49:34 2017
 By www-data
Copyright 2015 Samsung Electronics Co., Ltd. All Rights Reserved.
</metadata>
<defs>
<font id="SamsungOne-500C" horiz-adv-x="0" >
  <font-face 
    font-family="SamsungOne 500C"
    font-weight="500"
    font-stretch="condensed"
    units-per-em="1024"
    panose-1="2 11 6 6 3 3 3 2 2 4"
    ascent="794"
    descent="-230"
    x-height="536"
    cap-height="724"
    bbox="-639 -304 2317 1047"
    underline-thickness="29"
    underline-position="-106"
    unicode-range="U+0002-U+1F16B"
  />
<missing-glyph horiz-adv-x="647" 
d="M559 0h-73h-358h-41v724h73h399v-724zM486 656h-295l295 -522v522zM160 68h296l-296 523v-523z" />
    <glyph glyph-name="fi" unicode="fi" horiz-adv-x="568" 
d="M91 470l-85.002 -0.000976562v66h85v72c0 52.667 15.833 93.834 47.5 123.501s76.167 44.5 133.5 44.5c18 0 33.333 -1.33301 46 -4v-70c-17.333 2 -32.666 3 -45.999 3c-33.333 0 -58.666 -8.16699 -75.999 -24.5s-26 -40.5 -26 -72.5v-72h130v-66h-130v-470h-79v470z
M403.998 535.999h79v-536h-79v536zM404.998 644.499c-9.33301 9.66699 -14 23.167 -14 40.5s4.66699 31 14 41s22.333 15 39 15s29.667 -4.83301 39 -14.5s14 -23.167 14 -40.5s-4.66699 -31 -14 -41s-22.333 -15 -39 -15s-29.667 4.83301 -39 14.5z" />
    <glyph glyph-name="fl" unicode="fl" horiz-adv-x="603" 
d="M91 470l-85.002 -0.000976562v66h85v72c0 52.667 15.833 93.834 47.5 123.501s76.167 44.5 133.5 44.5c18 0 33.333 -1.33301 46 -4v-70c-17.333 2 -32.666 3 -45.999 3c-33.333 0 -58.666 -8.16699 -75.999 -24.5s-26 -40.5 -26 -72.5v-72h130v-66h-130v-470h-79v470z
M428.998 23.999c-19.333 19.333 -29.001 47.333 -29.001 84v662h79v-655c0 -18 4 -30.833 12 -38.5s20.333 -11.5 37 -11.5c12 0 24.333 1.33301 37 4l7 -66c-20 -5.33301 -40.333 -8 -61 -8c-35.333 0 -62.666 9.66699 -81.999 29z" />
    <glyph glyph-name=".notdef" horiz-adv-x="647" 
d="M559 0h-73h-358h-41v724h73h399v-724zM486 656h-295l295 -522v522zM160 68h296l-296 523v-523z" />
    <glyph glyph-name="uni0000" 
 />
    <glyph glyph-name="uni0002" 
 />
    <glyph glyph-name="uni0008" horiz-adv-x="260" 
 />
    <glyph glyph-name="uni0009" unicode="&#x9;" horiz-adv-x="512" 
 />
    <glyph glyph-name="nonmarkingreturn" unicode="&#xd;" 
 />
    <glyph glyph-name="uni001D" horiz-adv-x="200" 
 />
    <glyph glyph-name="space" unicode=" " horiz-adv-x="200" 
 />
    <glyph glyph-name="exclam" unicode="!" horiz-adv-x="328" 
d="M115 724h93l-14 -526h-63zM122.5 3.5c-10.333 10.333 -15.501 24.5 -15.501 42.5c0 18.667 5 33.167 15 43.5s24 15.5 42 15.5s32 -5.16699 42 -15.5s15 -24.5 15 -42.5c0 -18.667 -5 -33.167 -15 -43.5s-24 -15.5 -42 -15.5c-17.333 0 -31.166 5.16699 -41.499 15.5z
" />
    <glyph glyph-name="quotedbl" unicode="&#x22;" horiz-adv-x="341" 
d="M201 724h81l-18 -237h-46zM59 724h81l-18 -237h-46z" />
    <glyph glyph-name="numbersign" unicode="#" horiz-adv-x="611" 
d="M449 459l-29 -194h119v-59h-128l-30 -206h-64l31 206h-131l-31 -206h-63l31 206h-124v59h133l28 194h-121v59h130l31 206h64l-31 -206h131l31 206h63l-31 -206h122v-59h-131zM386 459h-131l-29 -194h131z" />
    <glyph glyph-name="dollar" unicode="$" horiz-adv-x="513" 
d="M415 72c-30.667 -34 -73.3359 -54.6631 -128.003 -61.9961v-100h-64v98c-31.333 1.33301 -62.666 6.66602 -93.999 15.999s-59.666 21.666 -84.999 36.999l25 64c50.667 -30 102 -46.333 154 -49v258l-16 5c-53.333 15.333 -92.833 37.666 -118.5 66.999
s-38.5 68.333 -38.5 117c0 56 15 100.667 45 134s72.667 52.666 128 57.999v94h64v-93c54 -5.33301 105.333 -18.666 154 -39.999l-25 -64c-45.333 19.333 -88.666 31 -129.999 35v-249l17 -5c54 -16 93.833 -38.833 119.5 -68.5s38.5 -68.834 38.5 -117.501
c0 -56 -15.333 -101 -46 -135zM149.498 459.504c14.333 -18.333 38.833 -32.833 73.5 -43.5v231c-32.667 -4 -56.667 -15 -72 -33s-23 -44 -23 -78c0 -32.667 7.16699 -58.167 21.5 -76.5zM359.498 115.504c15.667 19.667 23.5 46.833 23.5 81.5
c0 32 -7.5 57.167 -22.5 75.5s-39.833 32.5 -74.5 42.5v-237c33.333 5.33301 57.833 17.833 73.5 37.5z" />
    <glyph glyph-name="percent" unicode="%" horiz-adv-x="867" 
d="M88.5 354c-23.667 36.667 -35.5 91 -35.5 163s11.833 126.5 35.5 163.5s58.834 55.5 105.501 55.5s81.834 -18.5 105.501 -55.5s35.5 -91.5 35.5 -163.5s-11.833 -126.333 -35.5 -163s-58.834 -55 -105.501 -55s-81.834 18.333 -105.501 55zM574 724h76l-357 -724h-76z
M246 396c11.333 26 17 66.333 17 121s-5.66699 95 -17 121s-28.666 39 -51.999 39s-40.666 -13 -51.999 -39s-17 -66.333 -17 -121s5.66699 -95 17 -121s28.666 -39 51.999 -39s40.666 13 51.999 39zM567.5 43.5c-23.667 37 -35.5 91.5 -35.5 163.5s11.833 126.333 35.5 163
s58.834 55 105.501 55s81.834 -18.333 105.501 -55s35.5 -91 35.5 -163s-11.833 -126.5 -35.5 -163.5s-58.834 -55.5 -105.501 -55.5s-81.834 18.5 -105.501 55.5zM725 86c11.333 26 17 66.333 17 121s-5.66699 95 -17 121s-28.666 39 -51.999 39s-40.666 -13 -51.999 -39
s-17 -66.333 -17 -121s5.66699 -95 17 -121s28.666 -39 51.999 -39s40.666 13 51.999 39z" />
    <glyph glyph-name="ampersand" unicode="&#x26;" horiz-adv-x="602" 
d="M519 -12l-82 103c-26 -34.667 -55.167 -60.5 -87.5 -77.5s-68.833 -25.5 -109.5 -25.5c-58 0 -103.167 15.5 -135.5 46.5s-48.5 74.5 -48.5 130.5c0 33.333 6.66699 62.833 20 88.5s35.333 51.167 66 76.5l62 52l-28 34c-26.667 34 -45.334 63 -56.001 87
s-16 49.667 -16 77c0 49.333 15.5 87.666 46.5 114.999s73.833 41 128.5 41s97.334 -13.667 128.001 -41s46 -65.666 46 -114.999c0 -32 -8.33301 -61.333 -25 -88s-46 -57.667 -88 -93l-32 -27l120 -151l65 147h79l-81 -181l-13 -29l98 -123zM262 430l37 31
c29.333 25.333 49.5 46.166 60.5 62.499s16.5 34.5 16.5 54.5c0 28.667 -8.33301 50.334 -25 65.001s-40.667 22 -72 22s-55 -7.5 -71 -22.5s-24 -36.833 -24 -65.5c0 -19.333 4 -37.333 12 -54s22.667 -38.667 44 -66zM325.5 81.5c23.667 14.333 45.5 36.5 65.5 66.5
l-141 176l-41 -34c-25.333 -20.667 -43 -40 -53 -58s-15 -39.333 -15 -64c0 -72 34.667 -108 104 -108c30 0 56.833 7.16699 80.5 21.5z" />
    <glyph glyph-name="quotesingle" unicode="'" horiz-adv-x="198" 
d="M59 724h81l-18 -237h-46z" />
    <glyph glyph-name="parenleft" unicode="(" horiz-adv-x="305" 
d="M92 104c-24.667 78.667 -37 157.666 -37 236.999c0 80 12.333 159.5 37 238.5s59.334 148.833 104.001 209.5l58 -43c-39.333 -54 -69 -115.167 -89 -183.5s-30 -141.833 -30 -220.5s10 -152.167 30 -220.5s49.667 -129.5 89 -183.5l-58 -43
c-44.667 60.667 -79.334 130.334 -104.001 209.001z" />
    <glyph glyph-name="parenright" unicode=")" horiz-adv-x="305" 
d="M52 -62c38.667 54.667 68 115.998 88 183.998s30 141.333 30 220s-10 152 -30 220s-49.333 129.333 -88 184l58 43c44 -61.333 78.333 -131.333 103 -210s37 -158 37 -238c0 -79.333 -12.333 -158.166 -37 -236.499s-59 -148.166 -103 -209.499z" />
    <glyph glyph-name="asterisk" unicode="*" horiz-adv-x="497" 
d="M291 503l103 -130l-56 -43l-89 138l-90 -138l-55 43l102 130l-149 41l22 68l143 -54l-9 166h71l-9 -166l142 54l23 -68z" />
    <glyph glyph-name="plus" unicode="+" horiz-adv-x="536" 
d="M486 332h-180v-207h-76v207h-179v73h179v207h76v-207h180v-73z" />
    <glyph glyph-name="comma" unicode="," horiz-adv-x="218" 
d="M4 -139c25.333 28 43.5 55.5 54.5 82.5s16.5 58.167 16.5 93.5c0 21.333 -1.66699 42 -5 62h84c2.66699 -24 4 -44.333 4 -61c0 -43.333 -9.33301 -82.333 -28 -117s-48 -67.667 -88 -99z" />
    <glyph glyph-name="hyphen" unicode="-" horiz-adv-x="374" 
d="M46 331h281v-68h-281v68z" />
    <glyph glyph-name="period" unicode="." horiz-adv-x="235" 
d="M76 3.5c-10 10.333 -15 24.5 -15 42.5c0 18.667 5 33.167 15 43.5s23.667 15.5 41 15.5c18 0 32 -5.16699 42 -15.5s15 -24.5 15 -42.5c0 -18.667 -5 -33.167 -15 -43.5s-24 -15.5 -42 -15.5c-17.333 0 -31 5.16699 -41 15.5z" />
    <glyph glyph-name="slash" unicode="/" horiz-adv-x="402" 
d="M318 739h68l-300 -825h-69z" />
    <glyph glyph-name="zero" unicode="0" horiz-adv-x="579" 
d="M119 79c-37.333 60.667 -56 155 -56 283c0 127.333 18.667 221.5 56 282.5s94 91.5 170 91.5c76.667 0 133.667 -30.333 171 -91s56 -155 56 -283c0 -127.333 -18.667 -221.5 -56 -282.5s-94 -91.5 -170 -91.5c-76.667 0 -133.667 30.333 -171 91zM398.5 132.5
c23 49 34.5 125.5 34.5 229.5s-11.667 180.5 -35 229.5s-59.666 73.5 -108.999 73.5s-85.5 -24.5 -108.5 -73.5s-34.5 -125.5 -34.5 -229.5s11.667 -180.5 35 -229.5s59.666 -73.5 108.999 -73.5s85.5 24.5 108.5 73.5z" />
    <glyph glyph-name="one" unicode="1" horiz-adv-x="411" 
d="M287 724v-724h-80v636l-157 -57l-22 66l190 79h69z" />
    <glyph glyph-name="two" unicode="2" horiz-adv-x="490" 
d="M436 69l0.000976562 -69.001h-402v70l237 310c28.667 36.667 48.5 67.167 59.5 91.5s16.5 48.5 16.5 72.5c0 36.667 -10.667 65.5 -32 86.5s-51 31.5 -89 31.5c-26 0 -52.833 -4.83301 -80.5 -14.5s-53.167 -23.167 -76.5 -40.5l-37 62
c24.667 20 55.167 36.167 91.5 48.5s72.5 18.5 108.5 18.5c59.333 0 106.833 -16.833 142.5 -50.5s53.5 -78.167 53.5 -133.5c0 -33.333 -7.33301 -66.666 -22 -99.999s-39.334 -72.333 -74.001 -117l-205 -266h309z" />
    <glyph glyph-name="three" unicode="3" horiz-adv-x="519" 
d="M400.5 374.5c35.667 -39 53.499 -90.5 53.499 -154.5c0 -46 -9.33301 -86.5 -28 -121.5s-45.167 -62.167 -79.5 -81.5s-74.166 -29 -119.499 -29c-33.333 0 -67.833 5.16699 -103.5 15.5s-66.167 24.166 -91.5 41.499l32 68c26 -16 53.333 -28.5 82 -37.5
s55.667 -13.5 81 -13.5c44.667 0 79.667 14 105 42s38 66.667 38 116c0 46.667 -12.167 83.334 -36.5 110.001s-57.833 40 -100.5 40c-24.667 0 -46 -3 -64 -9l-30 38l206 256h-301v69h389v-69l-175 -219c59.333 -2 106.833 -22.5 142.5 -61.5z" />
    <glyph glyph-name="four" unicode="4" horiz-adv-x="534" 
d="M490 228v-69h-87v-159h-77v159h-301v69l264 496h114v-496h87zM326 228v424l-217 -424h217z" />
    <glyph glyph-name="five" unicode="5" horiz-adv-x="511" 
d="M355 426.5c30.667 -19 54.332 -45.668 70.999 -80.001s25 -73.833 25 -118.5c0 -48 -9.5 -90.167 -28.5 -126.5s-45.833 -64.333 -80.5 -84s-74.667 -29.5 -120 -29.5c-32.667 0 -65.667 4.83301 -99 14.5s-61 22.5 -83 38.5l31 68
c23.333 -14.667 48.166 -26.167 74.499 -34.5s51.833 -12.5 76.5 -12.5c45.333 0 81 14.667 107 44s39 69.333 39 120c0 49.333 -12.167 87.833 -36.5 115.5s-57.833 41.5 -100.5 41.5c-21.333 0 -42.166 -3.16699 -62.499 -9.5s-37.833 -15.166 -52.5 -26.499l-48 25
l20 352h334v-69h-264l-15 -222c32.667 14.667 67.667 22 105 22c40.667 0 76.334 -9.5 107.001 -28.5z" />
    <glyph glyph-name="six" unicode="6" horiz-adv-x="526" 
d="M390 421.5c30.667 -19 54.499 -45.668 71.499 -80.001s25.5 -73.833 25.5 -118.5c0 -46.667 -9 -87.667 -27 -123s-43.5 -62.833 -76.5 -82.5s-71.167 -29.5 -114.5 -29.5c-44 0 -82.833 10.167 -116.5 30.5s-59.667 48.833 -78 85.5s-27.5 79.334 -27.5 128.001
s9.33301 96.167 28 142.5s49.667 99.5 93 159.5l147 202l65 -48l-148 -197c-20 -25.333 -34.667 -46.333 -44 -63c26 14.667 57.667 22 95 22c40.667 0 76.334 -9.5 107.001 -28.5zM368.499 100.999c23.667 28.667 35.501 68.333 35.501 119
c0 51.333 -12.5 91.833 -37.5 121.5s-59.833 44.5 -104.5 44.5c-38.667 0 -74.334 -9.66699 -107.001 -29c-16.667 -34.667 -25 -75.667 -25 -123c0 -55.333 12.333 -98.5 37 -129.5s59 -46.5 103 -46.5c42 0 74.833 14.333 98.5 43z" />
    <glyph glyph-name="seven" unicode="7" horiz-adv-x="452" 
d="M423 724v-69l-270 -664l-73 31l262 633h-329v69h410z" />
    <glyph glyph-name="eight" unicode="8" horiz-adv-x="546" 
d="M154.5 12c-34.333 16 -60.833 38.499 -79.5 67.499s-28 62.5 -28 100.5c0 41.333 13.333 80.166 40 116.499s62 63.166 106 80.499c-34.667 13.333 -62.667 36.333 -84 69s-32 69.334 -32 110.001c0 54 17.833 97.5 53.5 130.5s83.167 49.5 142.5 49.5
c58.667 0 106 -16.5 142 -49.5s54 -76.5 54 -130.5c0 -40 -10.667 -76.167 -32 -108.5s-49.333 -54.833 -84 -67.5c44 -14 79.333 -38.667 106 -74s40 -75 40 -119c0 -39.333 -9.33301 -74.166 -28 -104.499s-45.167 -53.666 -79.5 -69.999s-73.833 -24.5 -118.5 -24.5
s-84.167 8 -118.5 24zM359 462.999c19.333 25.333 28.999 53.667 28.999 85c0 37.333 -10.167 66.666 -30.5 87.999s-48.5 32 -84.5 32c-35.333 0 -63.166 -10.5 -83.499 -31.5s-30.5 -49.833 -30.5 -86.5c0 -33.333 10.5 -62.666 31.5 -87.999s50.167 -44 87.5 -56
c34.667 12.667 61.667 31.667 81 57zM378.499 91.5c25.667 23 38.499 54.832 38.499 95.499c0 34 -13.167 65.5 -39.5 94.5s-62.5 52.167 -108.5 69.5c-44 -16.667 -78.167 -39.167 -102.5 -67.5s-36.5 -59.833 -36.5 -94.5c0 -41.333 12.667 -73.666 38 -96.999
s60.333 -35 105 -35s79.834 11.5 105.501 34.5z" />
    <glyph glyph-name="nine" unicode="9" horiz-adv-x="526" 
d="M373.5 705.5c33.667 -20.333 59.6689 -48.833 78.002 -85.5s27.5 -79.334 27.5 -128.001s-9.33301 -96.167 -28 -142.5s-49.667 -99.5 -93 -159.5l-147 -202l-65 48l149 197c16 20.667 30.333 41.334 43 62.001c-26.667 -14 -58.334 -21 -95.001 -21
c-40.667 0 -76.334 9.5 -107.001 28.5s-54.5 45.667 -71.5 80s-25.5 73.833 -25.5 118.5c0 46.667 9 87.667 27 123s43.5 62.833 76.5 82.5s71.167 29.5 114.5 29.5c44 0 82.833 -10.167 116.5 -30.5zM159.502 382.5c25 -29.667 59.834 -44.499 104.501 -44.499
c37.333 0 73 10 107 30c16.667 33.333 25 74 25 122c0 55.333 -12.333 98.5 -37 129.5s-58.667 46.5 -102 46.5c-42.667 0 -75.834 -14.333 -99.501 -43s-35.5 -68.334 -35.5 -119.001c0 -51.333 12.5 -91.833 37.5 -121.5z" />
    <glyph glyph-name="colon" unicode=":" horiz-adv-x="275" 
d="M96 348.5c-10 10.333 -15 24.5 -15 42.5c0 18.667 5 33.167 15 43.5s23.667 15.5 41 15.5c18 0 32 -5.16699 42 -15.5s15 -24.5 15 -42.5c0 -18.667 -5 -33.167 -15 -43.5s-24 -15.5 -42 -15.5c-17.333 0 -31 5.16699 -41 15.5zM96 3.5c-10 10.333 -15 24.5 -15 42.5
c0 18.667 5 33.167 15 43.5s23.667 15.5 41 15.5c18 0 32 -5.16699 42 -15.5s15 -24.5 15 -42.5c0 -18.667 -5 -33.167 -15 -43.5s-24 -15.5 -42 -15.5c-17.333 0 -31 5.16699 -41 15.5z" />
    <glyph glyph-name="semicolon" unicode=";" horiz-adv-x="275" 
d="M96 348.5c-10 10.333 -15 24.5 -15 42.5c0 18.667 5 33.167 15 43.5s23.667 15.5 41 15.5c18 0 32 -5.16699 42 -15.5s15 -24.5 15 -42.5c0 -18.667 -5 -33.167 -15 -43.5s-24 -15.5 -42 -15.5c-17.333 0 -31 5.16699 -41 15.5zM30 -139c25.333 28 43.5 55.5 54.5 82.5
s16.5 58.167 16.5 93.5c0 21.333 -1.66699 42 -5 62h84c2.66699 -24 4 -44.333 4 -61c0 -43.333 -9.33301 -82.333 -28 -117s-48 -67.667 -88 -99z" />
    <glyph glyph-name="less" unicode="&#x3c;" horiz-adv-x="390" 
d="M42 365l248 298l58 -52l-207 -246l207 -246l-58 -52z" />
    <glyph glyph-name="equal" unicode="=" horiz-adv-x="536" 
d="M73 517h391v-74h-391v74zM73 287h391v-74h-391v74z" />
    <glyph glyph-name="greater" unicode="&#x3e;" horiz-adv-x="390" 
d="M42 119l207 246l-207 246l58 52l248 -298l-248 -298z" />
    <glyph glyph-name="question" unicode="?" horiz-adv-x="477" 
d="M168 258c0 30 4.66699 55.4971 14 76.4971s20.166 38 32.499 51s31.5 31.5 57.5 55.5c24.667 20.667 41.5 39.334 50.5 56.001s13.5 36.334 13.5 59.001c0 34 -9 59.833 -27 77.5s-44.667 26.5 -80 26.5c-50.667 0 -101 -17.333 -151 -52l-32 67
c22.667 19.333 50.334 34.333 83.001 45s66.667 16 102 16c59.333 0 105.833 -15.667 139.5 -47s50.5 -74.666 50.5 -129.999c0 -32 -6.83301 -60.5 -20.5 -85.5s-38.167 -52.5 -73.5 -82.5c-4 -4 -14.333 -12.833 -31 -26.5s-29.167 -29.5 -37.5 -47.5
s-12.5 -38.667 -12.5 -62c0 -14.667 1 -33.667 3 -57h-78c-2 25.333 -3 45.333 -3 60zM172 3.49707c-10 10.333 -15 24.5 -15 42.5c0 18.667 5 33.167 15 43.5s23.667 15.5 41 15.5c18 0 32 -5.16699 42 -15.5s15 -24.5 15 -42.5c0 -18.667 -5 -33.167 -15 -43.5
s-24 -15.5 -42 -15.5c-17.333 0 -31 5.16699 -41 15.5z" />
    <glyph glyph-name="at" unicode="@" horiz-adv-x="756" 
d="M453 533.5c18.667 -5.66699 34.667 -13.5029 48 -23.5029v-203c0 -20 4.16699 -35.5 12.5 -46.5s20.166 -16.5 35.499 -16.5c25.333 0 45.333 13 60 39s22 62.333 22 109c0 88.667 -21.833 157.834 -65.5 207.501s-104.5 74.5 -182.5 74.5s-138.667 -27.5 -182 -82.5
s-65 -131.5 -65 -229.5c0 -98.667 22.5 -175.667 67.5 -231s108.167 -83 189.5 -83c51.333 0 97.666 11.667 138.999 35l26 -55c-20.667 -12.667 -45.5 -22.667 -74.5 -30s-59.167 -11 -90.5 -11c-64.667 0 -121.667 15.667 -171 47s-87.666 75.333 -114.999 132
s-41 122 -41 196s13.167 139.333 39.5 196s63.5 100.667 111.5 132s103.333 47 166 47c62 0 116.5 -14.333 163.5 -43s83.5 -69 109.5 -121s39 -112.333 39 -181c0 -61.333 -12.833 -110.666 -38.5 -147.999s-59.5 -56 -101.5 -56c-16.667 0 -31.667 3.33301 -45 10
s-24 16.334 -32 29.001c-22 -30 -53.667 -45 -95 -45c-43.333 0 -77.166 15.833 -101.499 47.5s-36.5 75.5 -36.5 131.5c0 56.667 13.333 101 40 133s63.667 48 111 48c19.333 0 38.333 -2.83301 57 -8.5zM440 472.997c-15.333 6.66699 -31.001 9.99902 -47.001 9.99902
c-27.333 0 -48.166 -10.333 -62.499 -31s-21.5 -51 -21.5 -91c0 -39.333 7 -69.166 21 -89.499s34.667 -30.5 62 -30.5c18.667 0 34.667 5 48 15v217z" />
    <glyph glyph-name="A" unicode="A" horiz-adv-x="633" 
d="M455 193h-279l-59 -193h-87l241 724h91l241 -724h-88zM432 264l-117 378l-117 -378h234z" />
    <glyph glyph-name="B" unicode="B" horiz-adv-x="603" 
d="M557 206c0 -64.667 -18.5 -115.166 -55.5 -151.499s-88.167 -54.5 -153.5 -54.5h-211h-50v724h81h147c63.333 0 113 -17.333 149 -52s54 -83.334 54 -146.001c0 -78.667 -31 -126.667 -93 -144c88 -22 132 -80.667 132 -176zM168 652.001l0.000976562 -245h147
c39.333 0 69 10 89 30s30 49.333 30 88c0 41.333 -10.333 72.833 -31 94.5s-51.334 32.5 -92.001 32.5h-143zM442.001 105.501c20 22.333 30 55.833 30 100.5c0 42.667 -10.5 75.167 -31.5 97.5s-51.833 33.5 -92.5 33.5h-180v-265h185c39.333 0 69 11.167 89 33.5z" />
    <glyph glyph-name="C" unicode="C" horiz-adv-x="560" 
d="M126 83.5c-53.333 63 -80.0029 151.165 -80.0029 264.498c0 78 12.167 146.333 36.5 205s59 103.834 104 135.501s97.5 47.5 157.5 47.5c31.333 0 62.333 -4.33301 93 -13s58.334 -20.667 83.001 -36l-28 -64c-51.333 26 -101 39 -149 39
c-66.667 0 -118.667 -26.833 -156 -80.5s-56 -129.167 -56 -226.5c0 -95.333 18.833 -167.666 56.5 -216.999s93.5 -74 167.5 -74c52 0 99.333 11.667 142 35l29 -63c-21.333 -14.667 -47.666 -26.167 -78.999 -34.5s-64 -12.5 -98 -12.5
c-95.333 0 -169.666 31.5 -222.999 94.5z" />
    <glyph glyph-name="D" unicode="D" horiz-adv-x="646" 
d="M509 632c54 -61.333 80.999 -151.333 80.999 -270s-27.167 -208.667 -81.5 -270s-133.166 -92 -236.499 -92h-185v724h189c101.333 0 179 -30.667 233 -92zM446.999 145.5c38.667 49 58 121.167 58 216.5s-19.667 167.5 -59 216.5s-97.333 73.5 -174 73.5h-104v-580h107
c76 0 133.333 24.5 172 73.5z" />
    <glyph glyph-name="E" unicode="E" horiz-adv-x="537" 
d="M499 72v-72h-412v724h399v-72h-318v-245h237v-73h-237v-262h331z" />
    <glyph glyph-name="F" unicode="F" horiz-adv-x="499" 
d="M168 652v-258h255v-73h-255v-321h-81v724h393v-72h-312z" />
    <glyph glyph-name="G" unicode="G" horiz-adv-x="624" 
d="M557 382v-344c-24.667 -16 -54.167 -28.333 -88.5 -37s-69.5 -13 -105.5 -13c-64 0 -119 14.833 -165 44.5s-81.167 72.5 -105.5 128.5s-36.5 123 -36.5 201s12.167 145 36.5 201s59.5 98.833 105.5 128.5s101 44.5 165 44.5c34.667 0 67.667 -4.16699 99 -12.5
s58 -19.833 80 -34.5l-25 -66c-51.333 26.667 -103.333 40 -156 40c-72.667 0 -127.5 -25.333 -164.5 -76s-55.5 -125.667 -55.5 -225s18.667 -174.5 56 -225.5s92.666 -76.5 165.999 -76.5c38.667 0 76.334 6 113.001 18v233h-124v71h205z" />
    <glyph glyph-name="H" unicode="H" horiz-adv-x="657" 
d="M569 724v-724h-81v332h-320v-332h-81v724h81v-320h320v320h81z" />
    <glyph glyph-name="I" unicode="I" horiz-adv-x="260" 
d="M89 724h81v-724h-81v724z" />
    <glyph glyph-name="J" unicode="J" horiz-adv-x="423" 
d="M68.5 0c-25 8 -46.168 19.333 -63.501 34l28 64c38 -24.667 76.667 -37 116 -37c36.667 0 64.334 9.5 83.001 28.5s28 46.833 28 83.5v551h81v-552c0 -58 -16.833 -103.167 -50.5 -135.5s-80.5 -48.5 -140.5 -48.5c-29.333 0 -56.5 4 -81.5 12z" />
    <glyph glyph-name="K" unicode="K" horiz-adv-x="581" 
d="M255 330l-87 -110v-220h-81v724h81v-397l297 397h100l-257 -327l272 -397h-100z" />
    <glyph glyph-name="L" unicode="L" horiz-adv-x="490" 
d="M468 73v-73h-381v724h81v-651h300z" />
    <glyph glyph-name="M" unicode="M" horiz-adv-x="793" 
d="M705 724v-724h-78v591l-188 -441h-86l-188 441v-591h-78v724h98l212 -499l211 499h97z" />
    <glyph glyph-name="N" unicode="N" horiz-adv-x="677" 
d="M589 724v-724h-76l-347 581v-581h-79v724h76l347 -580v580h79z" />
    <glyph glyph-name="O" unicode="O" horiz-adv-x="665" 
d="M127 83c-47.333 63.333 -71 156.333 -71 279s23.667 215.667 71 279s115.666 95 204.999 95s157.833 -31.667 205.5 -95s71.5 -156.333 71.5 -279s-23.833 -215.667 -71.5 -279s-116.167 -95 -205.5 -95s-157.666 31.667 -204.999 95zM475.5 136.5
c32.333 51 48.5 126.167 48.5 225.5s-16.167 174.5 -48.5 225.5s-80.166 76.5 -143.499 76.5c-62.667 0 -110.167 -25.5 -142.5 -76.5s-48.5 -126.167 -48.5 -225.5s16.167 -174.5 48.5 -225.5s79.833 -76.5 142.5 -76.5c63.333 0 111.166 25.5 143.499 76.5z" />
    <glyph glyph-name="P" unicode="P" horiz-adv-x="556" 
d="M481 662.5c38 -41 57 -97.833 57 -170.5c0 -73.333 -19.167 -130.5 -57.5 -171.5s-91.833 -61.5 -160.5 -61.5h-152v-259h-81v724h81h155c67.333 0 120 -20.5 158 -61.5zM420 371.5c22 27 33 66.833 33 119.5s-11.333 92.667 -34 120s-55.667 41 -99 41h-152v-321h155
c42.667 0 75 13.5 97 40.5z" />
    <glyph glyph-name="Q" unicode="Q" horiz-adv-x="665" 
d="M563 -151l-126.999 157c-30.667 -12 -65.334 -18 -104.001 -18c-89.333 0 -157.666 31.667 -204.999 95s-71 156.333 -71 279s23.667 215.667 71 279s115.666 95 204.999 95s157.833 -31.667 205.5 -95s71.5 -156.333 71.5 -279c0 -152.667 -36.667 -259 -110 -319
l122 -140zM189.501 136.5c32.333 -51 79.833 -76.5 142.5 -76.5c63.333 0 111.166 25.5 143.499 76.5s48.5 126.167 48.5 225.5s-16.167 174.5 -48.5 225.5s-80.166 76.5 -143.499 76.5c-62.667 0 -110.167 -25.5 -142.5 -76.5s-48.5 -126.167 -48.5 -225.5
s16.167 -174.5 48.5 -225.5z" />
    <glyph glyph-name="R" unicode="R" horiz-adv-x="592" 
d="M294 279h-126.002v-279h-81v724h81h146c66.667 0 118.834 -19.667 156.501 -59s56.5 -94 56.5 -164c0 -56.667 -12.667 -103.5 -38 -140.5s-61.666 -61.5 -108.999 -73.5l180 -287h-100zM167.998 350h146c42 0 73.833 12.667 95.5 38s32.5 63 32.5 113
c0 49.333 -11 86.833 -33 112.5s-54.667 38.5 -98 38.5h-143v-302z" />
    <glyph glyph-name="S" unicode="S" horiz-adv-x="524" 
d="M139.5 4c-37 10 -70.498 24.332 -100.498 42.999l27 68c62.667 -36 124 -54 184 -54c46.667 0 82.667 11 108 33s38 52.667 38 92c0 34 -8.16699 61.333 -24.5 82s-42.5 35.667 -78.5 45l-82 23c-57.333 16 -99.166 39.833 -125.499 71.5s-39.5 73.834 -39.5 126.501
c0 60.667 19.667 109.334 59 146.001s92 55 158 55c30 0 62.167 -3.83301 96.5 -11.5s67.5 -18.834 99.5 -33.501l-28 -68c-68.667 27.333 -125.334 41 -170.001 41c-42 0 -74.667 -10.333 -98 -31s-35 -49.334 -35 -86.001c0 -34 8.16699 -61.167 24.5 -81.5
s42.166 -35.166 77.499 -44.499l82 -23c57.333 -16 99.166 -40 125.499 -72s39.5 -74.333 39.5 -127c0 -63.333 -20.5 -114 -61.5 -152s-96.167 -57 -165.5 -57c-36.667 0 -73.5 5 -110.5 15z" />
    <glyph glyph-name="T" unicode="T" horiz-adv-x="489" 
d="M465 651h-180v-651h-81v651h-180v73h261h180v-73z" />
    <glyph glyph-name="U" unicode="U" horiz-adv-x="640" 
d="M145 56c-42 45.333 -62.998 109 -62.998 191v477h81v-476c0 -62 13.333 -108.833 40 -140.5s66 -47.5 118 -47.5c51.333 0 90.166 15.833 116.499 47.5s39.5 78.5 39.5 140.5v476h81v-477c0 -82 -20.833 -145.667 -62.5 -191s-99.834 -68 -174.501 -68
c-75.333 0 -134 22.667 -176 68z" />
    <glyph glyph-name="V" unicode="V" horiz-adv-x="601" 
d="M567 724l-221 -724h-91l-221 724h88l180 -632l178 632h87z" />
    <glyph glyph-name="W" unicode="W" horiz-adv-x="849" 
d="M813 724l-172 -724h-91l-127 594l-125 -594h-91l-171 724h86l132 -629l126 628h89l128 -626l131 627h85z" />
    <glyph glyph-name="X" unicode="X" horiz-adv-x="565" 
d="M444 0l-164 301l-161 -301h-94l211 366l-204 358h96l156 -291l160 291h94l-210 -355l212 -369h-96z" />
    <glyph glyph-name="Y" unicode="Y" horiz-adv-x="557" 
d="M531 724l-213 -467v-257h-81v257l-211 467h90l163 -374l163 374h89z" />
    <glyph glyph-name="Z" unicode="Z" horiz-adv-x="512" 
d="M472 71v-71h-435v72l340 581h-332v71h422v-71l-339 -582h344z" />
    <glyph glyph-name="bracketleft" unicode="[" horiz-adv-x="324" 
d="M162 713v-742h138v-63h-213v868h213v-63h-138z" />
    <glyph glyph-name="backslash" unicode="\" horiz-adv-x="402" 
d="M316 -86l-301 825h69l301 -825h-69z" />
    <glyph glyph-name="bracketright" unicode="]" horiz-adv-x="324" 
d="M237 776v-868h-213v63h138v742h-138v63h213z" />
    <glyph glyph-name="asciicircum" unicode="^" horiz-adv-x="395" 
d="M155 724h84l134 -197h-91l-84 142l-86 -142h-90z" />
    <glyph glyph-name="underscore" unicode="_" horiz-adv-x="558" 
d="M87 -74h383v-73h-383v73z" />
    <glyph glyph-name="grave" unicode="`" horiz-adv-x="500" 
d="M129 774v10h88l86 -159v-10h-58z" />
    <glyph glyph-name="a" unicode="a" horiz-adv-x="495" 
d="M370.5 505c32.333 -28.667 48.5 -67.999 48.5 -117.999v-387h-70v69c-34 -52.667 -84.667 -79 -152 -79c-50 0 -88.833 14 -116.5 42s-41.5 67 -41.5 117c0 63.333 24.167 110 72.5 140s124.5 45.333 228.5 46v45c0 31.333 -9.5 55.166 -28.5 71.499
s-47.167 24.5 -84.5 24.5c-41.333 0 -81.333 -9.66699 -120 -29l-20 64c22 11.333 46 20.333 72 27s52 10 78 10c56.667 0 101.167 -14.333 133.5 -43zM340 121.001l-0.000976562 153c-76.667 -0.666992 -133 -10.667 -169 -30s-54 -49.333 -54 -90
c0 -30.667 8.33301 -54 25 -70s41 -24 73 -24c48.667 0 90.334 20.333 125.001 61z" />
    <glyph glyph-name="b" unicode="b" horiz-adv-x="535" 
d="M436.5 473c33 -50 49.5 -119.333 49.5 -208c0 -87.333 -17.333 -155.333 -52 -204s-83.334 -73 -146.001 -73c-27.333 0 -52.666 6 -75.999 18s-42.333 29 -57 51v-57h-72v66v429v275h79v-293c34.667 47.333 80 71 136 71c59.333 0 105.5 -25 138.5 -75zM373 111
c20.667 34.667 31.001 85.667 31.001 153c0 68.667 -10.833 120.667 -32.5 156s-53.834 53 -96.501 53c-22.667 0 -43 -5 -61 -15s-35.333 -25.667 -52 -47v-294c16 -18 34.5 -32.167 55.5 -42.5s42.5 -15.5 64.5 -15.5c40 0 70.333 17.333 91 52z" />
    <glyph glyph-name="c" unicode="c" horiz-adv-x="446" 
d="M105.5 62.5c-39.667 49 -59.499 117.503 -59.499 205.503c0 55.333 9.16699 104.166 27.5 146.499s44.166 75.166 77.499 98.499s72 35 116 35c50 0 97.667 -14.667 143 -44l-32 -62c-41.333 22.667 -79 34 -113 34c-43.333 0 -77 -17.833 -101 -53.5
s-36 -85.167 -36 -148.5c0 -69.333 12.667 -122 38 -158s62.666 -54 111.999 -54c38.667 0 75.334 10.667 110.001 32l28 -60c-18 -14.667 -39.5 -25.834 -64.5 -33.501s-51.5 -11.5 -79.5 -11.5c-71.333 0 -126.833 24.5 -166.5 73.5z" />
    <glyph glyph-name="d" unicode="d" horiz-adv-x="535" 
d="M452 770l-0.00195312 -770h-70v70c-35.333 -54.667 -83.666 -82 -144.999 -82c-58.667 0 -104.5 24.833 -137.5 74.5s-49.5 119.167 -49.5 208.5c0 87.333 17.333 155.333 52 204s83.334 73 146.001 73c24.667 0 48 -5.16699 70 -15.5s40.333 -24.833 55 -43.5v281h79z
M320.998 78c18 10 35.333 25.667 52 47v295c-16 18 -34.5 32 -55.5 42s-42.5 15 -64.5 15c-40 0 -70.167 -17.333 -90.5 -52s-30.5 -85.667 -30.5 -153c0 -139.333 42.667 -209 128 -209c22.667 0 43 5 61 15z" />
    <glyph glyph-name="e" unicode="e" horiz-adv-x="503" 
d="M456 247h-328c2.66699 -60.667 16.834 -106.667 42.501 -138s62.167 -47 109.5 -47c46.667 0 88.667 13.333 126 40l30 -61c-20.667 -16.667 -45 -29.5 -73 -38.5s-57.333 -13.5 -88 -13.5c-71.333 0 -127 24.5 -167 73.5s-60 117.5 -60 205.5s18.5 156.667 55.5 206
s88.5 74 154.5 74c63.333 0 112.666 -22.5 147.999 -67.5s53 -108.167 53 -189.5c0 -16 -1 -30.667 -3 -44zM129 309h251c0 53.333 -11 94.833 -33 124.5s-52.333 44.5 -91 44.5c-76.667 0 -119 -56.333 -127 -169z" />
    <glyph glyph-name="f" unicode="f" horiz-adv-x="319" 
d="M91 470l-85.002 -0.000976562v66h85v72c0 52.667 15.833 93.834 47.5 123.501s76.167 44.5 133.5 44.5c18 0 33.333 -1.33301 46 -4v-70c-17.333 2 -32.666 3 -45.999 3c-33.333 0 -58.666 -8.16699 -75.999 -24.5s-26 -40.5 -26 -72.5v-72h130v-66h-130v-470h-79v470z
" />
    <glyph glyph-name="g" unicode="g" horiz-adv-x="538" 
d="M455 536v-545c0 -66 -19 -117.5 -57 -154.5s-90.667 -55.5 -158 -55.5c-26.667 0 -52.667 2.83301 -78 8.5s-46.666 13.5 -63.999 23.5l24 67c37.333 -18.667 76 -28 116 -28c45.333 0 79.666 11.833 102.999 35.5s35 58.167 35 103.5v98c-34 -46.667 -80 -70 -138 -70
c-59.333 0 -105.5 23.5 -138.5 70.5s-49.5 112.5 -49.5 196.5c0 82.667 17.5 147 52.5 193s83.833 69 146.5 69c27.333 0 52.833 -6 76.5 -18s43.167 -29 58.5 -51v57h71zM376 154l-0.000976562 264c-16 18.667 -34.667 33.167 -56 43.5s-43.333 15.5 -66 15.5
c-40 0 -70.333 -16 -91 -48s-31 -79.333 -31 -142c0 -64 10.833 -112.333 32.5 -145s53.5 -49 95.5 -49c44.667 0 83.334 20.333 116.001 61z" />
    <glyph glyph-name="h" unicode="h" horiz-adv-x="545" 
d="M425.5 505c27.667 -28.667 41.5 -68.001 41.5 -118.001v-387h-79v380c0 62 -33.667 93 -101 93c-24 0 -46 -4.16699 -66 -12.5s-39.667 -21.166 -59 -38.499v-422h-79v770h79v-284c40 41.333 89.333 62 148 62c49.333 0 87.833 -14.333 115.5 -43z" />
    <glyph glyph-name="i" unicode="i" horiz-adv-x="249" 
d="M85 536h79v-536h-79v536zM86 644.5c-9.33301 9.66699 -14 23.167 -14 40.5s4.66699 31 14 41s22.333 15 39 15s29.667 -4.83301 39 -14.5s14 -23.167 14 -40.5s-4.66699 -31 -14 -41s-22.333 -15 -39 -15s-29.667 4.83301 -39 14.5z" />
    <glyph glyph-name="j" unicode="j" horiz-adv-x="249" 
d="M-43 -154c33.333 12 59.166 25.499 77.499 40.499s31.333 33.5 39 55.5s11.5 51 11.5 87v507h79v-508c0 -47.333 -5.5 -85.833 -16.5 -115.5s-29.167 -54.667 -54.5 -75s-61.666 -39.166 -108.999 -56.499zM86 644.499c-9.33301 9.66699 -14 23.167 -14 40.5
s4.66699 31 14 41s22.333 15 39 15s29.667 -4.83301 39 -14.5s14 -23.167 14 -40.5s-4.66699 -31 -14 -41s-22.333 -15 -39 -15s-29.667 4.83301 -39 14.5z" />
    <glyph glyph-name="k" unicode="k" horiz-adv-x="493" 
d="M229 248l-67 -80v-168h-79v770h79v-505l214 271h97l-191 -226l200 -310h-96z" />
    <glyph glyph-name="l" unicode="l" horiz-adv-x="283" 
d="M110 24c-19.333 19.333 -29.001 47.333 -29.001 84v662h79v-655c0 -18 4 -30.833 12 -38.5s20.333 -11.5 37 -11.5c12 0 24.333 1.33301 37 4l7 -66c-20 -5.33301 -40.333 -8 -61 -8c-35.333 0 -62.666 9.66699 -81.999 29z" />
    <glyph glyph-name="m" unicode="m" horiz-adv-x="828" 
d="M710 505.5c26.667 -28.333 40 -67.835 40 -118.502v-387h-79v380c0 30.667 -8 53.834 -24 69.501s-39.667 23.5 -71 23.5c-22.667 0 -43.667 -4.33301 -63 -13s-38.666 -22 -57.999 -40c1.33301 -13.333 2 -24.333 2 -33v-387h-79v380c0 62 -32 93 -96 93
c-22.667 0 -43.5 -4.16699 -62.5 -12.5s-38.167 -21.166 -57.5 -38.499v-422h-79v536h71v-59c40 47.333 90.333 71 151 71c32.667 0 60.667 -6.83301 84 -20.5s40.666 -33.167 51.999 -58.5c45.333 52.667 98 79 158 79c47.333 0 84.333 -14.167 111 -42.5z" />
    <glyph glyph-name="n" unicode="n" horiz-adv-x="543" 
d="M423.5 505c27.667 -28.667 41.499 -68.001 41.499 -118.001v-387h-79v380c0 62 -33.667 93 -101 93c-23.333 0 -44.833 -4.16699 -64.5 -12.5s-39.167 -21.166 -58.5 -38.499v-422h-79v536h71v-59c41.333 47.333 93 71 155 71c48.667 0 86.834 -14.333 114.501 -43z" />
    <glyph glyph-name="o" unicode="o" horiz-adv-x="519" 
d="M104 59.5c-36 47.667 -54 117.167 -54 208.5s18.167 160.833 54.5 208.5s88.166 71.5 155.499 71.5s119 -23.833 155 -71.5s54 -117.167 54 -208.5s-18.167 -160.833 -54.5 -208.5s-88.166 -71.5 -155.499 -71.5s-119 23.833 -155 71.5zM387 268
c0 69.333 -10.667 121.666 -32 156.999s-53 53 -95 53c-85.333 0 -128 -70 -128 -210c0 -69.333 10.667 -121.666 32 -156.999s53 -53 95 -53c85.333 0 128 70 128 210z" />
    <glyph glyph-name="p" unicode="p" horiz-adv-x="535" 
d="M436.5 473c33 -50 49.501 -119.333 49.501 -208c0 -87.333 -17.333 -155.333 -52 -204s-83.334 -73 -146.001 -73c-25.333 0 -48.833 5.16699 -70.5 15.5s-40.167 24.833 -55.5 43.5v-254h-79v273v429v41h71v-41v-30c34.667 55.333 82.667 83 144 83
c59.333 0 105.5 -25 138.5 -75zM373.001 111c20.667 34.667 31.001 85.667 31.001 153c0 68.667 -10.833 120.667 -32.5 156s-53.834 53 -96.501 53c-22.667 0 -43 -5 -61 -15s-35.333 -25.667 -52 -47v-294c16 -18 34.5 -32.167 55.5 -42.5s42.5 -15.5 64.5 -15.5
c40 0 70.333 17.333 91 52z" />
    <glyph glyph-name="q" unicode="q" horiz-adv-x="535" 
d="M452 536l-0.000976562 -743h-79v265c-34.667 -46.667 -80 -70 -136 -70c-58.667 0 -104.5 24.833 -137.5 74.5s-49.5 119.167 -49.5 208.5c0 87.333 17.333 155.333 52 204s83.334 73 146.001 73c26.667 0 51.5 -5.83301 74.5 -17.5s42.167 -28.5 57.5 -50.5v56h72z
M320.999 78c18 10 35.333 25.667 52 47v295c-16 18 -34.5 32 -55.5 42s-42.5 15 -64.5 15c-40 0 -70.167 -17.333 -90.5 -52s-30.5 -85.667 -30.5 -153c0 -139.333 42.667 -209 128 -209c22.667 0 43 5 61 15z" />
    <glyph glyph-name="r" unicode="r" horiz-adv-x="365" 
d="M353 533l-15.999 -76c-22.667 6.66699 -45.334 10 -68.001 10s-42.667 -5.16699 -60 -15.5s-33 -26.833 -47 -49.5v-402h-79v536h71v-76c34 57.333 79.667 86 137 86c23.333 0 44 -4.33301 62 -13z" />
    <glyph glyph-name="s" unicode="s" horiz-adv-x="434" 
d="M112.5 1.5c-29.667 8.33301 -55.8311 20.167 -78.498 35.5l28 65c46 -29.333 94 -44 144 -44c36 0 63 7.33301 81 22s27 36 27 64c0 22 -5.5 39.667 -16.5 53s-28.5 23 -52.5 29l-71 17c-46 10.667 -79.667 28 -101 52s-32 55.667 -32 95
c0 49.333 15.667 87.833 47 115.5s75 41.5 131 41.5c27.333 0 54.833 -3.66699 82.5 -11s52.5 -17 74.5 -29l-30 -66c-46 24 -89 36 -129 36c-65.333 0 -98 -26.667 -98 -80c0 -21.333 5.5 -38.166 16.5 -50.499s28.833 -21.5 53.5 -27.5l71 -17
c46 -10.667 79.5 -28.334 100.5 -53.001s31.5 -57.667 31.5 -99c0 -50.667 -16.333 -90.167 -49 -118.5s-78.334 -42.5 -137.001 -42.5c-32.667 0 -63.834 4.16699 -93.501 12.5z" />
    <glyph glyph-name="t" unicode="t" horiz-adv-x="349" 
d="M137 36c-26.667 28 -40.001 69.667 -40.001 125v309h-85v66h86v158h78v-158h150v-66h-150v-297c0 -38 7.33301 -65.667 22 -83s37.667 -26 69 -26c20.667 0 38.334 3 53.001 9l13 -67c-20 -8 -46 -12 -78 -12c-52 0 -91.333 14 -118 42z" />
    <glyph glyph-name="u" unicode="u" horiz-adv-x="535" 
d="M452 536v-536.001h-71v66c-17.333 -25.333 -38.666 -44.666 -63.999 -57.999s-54.333 -20 -87 -20c-48.667 0 -86.5 14 -113.5 42s-40.5 67 -40.5 117v389h79v-380c0 -62 32.333 -93 97 -93c24.667 0 46.667 4.66699 66 14s37.666 24.333 54.999 45v414h79z" />
    <glyph glyph-name="v" unicode="v" horiz-adv-x="494" 
d="M465 536l-174 -536h-87l-174 536h85l134 -453l132 453h84z" />
    <glyph glyph-name="w" unicode="w" horiz-adv-x="740" 
d="M708 536l-147 -536h-87l-104 427l-104 -427h-88l-146 536h84l107 -453l107 453h83l106 -451l105 451h84z" />
    <glyph glyph-name="x" unicode="x" horiz-adv-x="467" 
d="M348 0l-117 210l-114 -210h-91l163 272l-156 264h93l109 -199l113 199h92l-162 -262l164 -274h-94z" />
    <glyph glyph-name="y" unicode="y" horiz-adv-x="490" 
d="M461 536l-176 -538c-32 -100 -107.333 -172 -226 -216l-27 68c44.667 17.333 81.167 37.5 109.5 60.5s49.833 50.5 64.5 82.5l-176 543h85l132 -445l130 445h84z" />
    <glyph glyph-name="z" unicode="z" horiz-adv-x="427" 
d="M390 66v-66h-355v66l262 404h-254v66h343v-66l-262 -404h266z" />
    <glyph glyph-name="braceleft" unicode="{" horiz-adv-x="326" 
d="M191.5 -69c-24.333 16.667 -41.833 39.165 -52.5 67.498s-16 64.833 -16 109.5v122c0 27.333 -8.5 47.333 -25.5 60s-43.833 19.334 -80.5 20.001v66c37.333 0.666992 64.333 7.16699 81 19.5s25 31.833 25 58.5v123c0 44.667 5.33301 81 16 109s28.167 50.333 52.5 67
s57.5 30 99.5 40l18 -64c-30 -7.33301 -53.167 -16.666 -69.5 -27.999s-27.833 -26.666 -34.5 -45.999s-10 -45.333 -10 -78v-123c0 -30.667 -5.83301 -55.167 -17.5 -73.5s-30.5 -30.833 -56.5 -37.5c25.333 -6.66699 44 -19.334 56 -38.001s18 -43.667 18 -75v-122
c0 -32.667 3.33301 -58.834 10 -78.501s18.167 -35.167 34.5 -46.5s39.5 -20.666 69.5 -27.999l-18 -64c-42 10 -75.167 23.333 -99.5 40z" />
    <glyph glyph-name="bar" unicode="|" horiz-adv-x="236" 
d="M87 816h61v-1066h-61v1066z" />
    <glyph glyph-name="braceright" unicode="}" horiz-adv-x="326" 
d="M17 -45c30 7.33301 53.167 16.668 69.5 28.001s27.833 26.833 34.5 46.5s10 45.834 10 78.501v122c0 31.333 6 56.333 18 75s30.667 31.334 56 38.001c-25.333 6.66699 -44 19.167 -56 37.5s-18 42.833 -18 73.5v123c0 32.667 -3.33301 58.667 -10 78
s-18.167 34.666 -34.5 45.999s-39.5 20.666 -69.5 27.999l18 64c42 -10 75.167 -23.333 99.5 -40s41.833 -39 52.5 -67s16 -64.333 16 -109v-123c0 -26.667 8.5 -46.167 25.5 -58.5s43.833 -18.833 80.5 -19.5v-66c-36.667 -0.666992 -63.5 -7.33398 -80.5 -20.001
s-25.5 -32.667 -25.5 -60v-122c0 -44.667 -5.33301 -81.167 -16 -109.5s-28.167 -50.833 -52.5 -67.5s-57.5 -30 -99.5 -40z" />
    <glyph glyph-name="asciitilde" unicode="~" horiz-adv-x="536" 
d="M305 301c-12.667 6 -27.6641 14.668 -44.9971 26.001c-14.667 10 -27.334 17.5 -38.001 22.5s-22.334 7.5 -35.001 7.5c-15.333 0 -30.333 -4.66699 -45 -14s-29.667 -24 -45 -44l-46 49c42 54.667 87.333 82 136 82c16.667 0 31.334 -3 44.001 -9s27.667 -14.667 45 -26
c16 -10.667 29 -18.334 39 -23.001s21.333 -7 34 -7c15.333 0 30.333 4.66699 45 14s29.667 24 45 44l47 -49c-42.667 -54.667 -88.334 -82 -137.001 -82c-16.667 0 -31.334 3 -44.001 9z" />
    <glyph glyph-name="uni00A0" unicode="&#xa0;" horiz-adv-x="200" 
 />
    <glyph glyph-name="exclamdown" unicode="&#xa1;" horiz-adv-x="328" 
d="M205.5 530.5c10.333 -10.333 15.501 -24.5 15.501 -42.5c0 -18.667 -5 -33.167 -15 -43.5s-24 -15.5 -42 -15.5s-32 5.16699 -42 15.5s-15 24.5 -15 42.5c0 18.667 5 33.167 15 43.5s24 15.5 42 15.5c17.333 0 31.166 -5.16699 41.499 -15.5zM213.001 -190h-93l14 526h63
z" />
    <glyph glyph-name="cent" unicode="&#xa2;" horiz-adv-x="444" 
d="M350 41.5c-21.333 -7.66699 -42.999 -12.166 -64.999 -13.499v-113h-64v116c-56 10 -99.167 36.833 -129.5 80.5s-45.5 100.5 -45.5 170.5c0 66 15.667 121.167 47 165.5s74 71.5 128 81.5v116h64v-113c21.333 -1.33301 42.166 -5.33301 62.499 -12
s38.5 -15.334 54.5 -26.001l-28 -59c-29.333 16 -59 25.333 -89 28v-366c30.667 2 62.667 12.667 96 32l26 -58c-16.667 -12 -35.667 -21.833 -57 -29.5zM148.501 162.501c15.667 -30.333 39.833 -50.167 72.5 -59.5v356c-64 -16 -96 -73.333 -96 -172
c0 -52.667 7.83301 -94.167 23.5 -124.5z" />
    <glyph glyph-name="sterling" unicode="&#xa3;" horiz-adv-x="497" 
d="M139 72l302.002 0.000976562v-72h-379v70l32 40c40.667 54.667 61 119.667 61 195c0 11.333 -0.333008 19.666 -1 24.999h-101v67h89c-4 13.333 -10.667 31.333 -20 54c-8.66699 20.667 -15.334 39 -20.001 55s-7 34.667 -7 56c0 54.667 16.167 97.334 48.5 128.001
s77.166 46 134.499 46c68.667 0 123.667 -21 165 -63l-39 -65c-34.667 34.667 -76.667 52 -126 52c-67.333 0 -101 -32.333 -101 -97c0 -15.333 1.83301 -29.333 5.5 -42s9.5 -29.334 17.5 -50.001c1.33301 -2.66699 4.83301 -11.5 10.5 -26.5s10.167 -30.833 13.5 -47.5
h156v-67h-147v-13c0 -95.333 -31.333 -177 -94 -245z" />
    <glyph glyph-name="currency" unicode="&#xa4;" horiz-adv-x="555" 
d="M439 136l66 -88l-52 -44l-66 86c-30.667 -18 -67 -27 -109 -27s-78.667 9 -110 27l-66 -86l-52 44l66 88c-34 43.333 -51 102.333 -51 177c0 74 17 133 51 177l-66 87l52 44l66 -86c31.333 18 68 27 110 27c42.667 0 79 -9 109 -27l66 86l52 -44l-66 -87
c34 -44 51 -103 51 -177c0 -74.667 -17 -133.667 -51 -177zM373.5 179.5c21.667 30.333 32.5 74.833 32.5 133.5s-10.833 103 -32.5 133s-53.5 45 -95.5 45c-42.667 0 -74.834 -15 -96.501 -45s-32.5 -74.333 -32.5 -133s10.833 -103.167 32.5 -133.5
s53.834 -45.5 96.501 -45.5c42 0 73.833 15.167 95.5 45.5z" />
    <glyph glyph-name="yen" unicode="&#xa5;" horiz-adv-x="508" 
d="M319 331h107v-61h-133v-82h133v-63h-133v-125h-79v125h-134v63h134v82h-134v61h108l-166 393h88l145 -388l144 388h87z" />
    <glyph glyph-name="brokenbar" unicode="&#xa6;" horiz-adv-x="239" 
d="M87 816h65v-450h-65v450zM87 201h65v-451h-65v451z" />
    <glyph glyph-name="section" unicode="&#xa7;" horiz-adv-x="494" 
d="M434 -27c0 -58 -16.667 -103.331 -50 -135.998s-79.666 -49 -138.999 -49c-30 0 -61.333 4.33301 -94 13s-63 21 -91 37l28 68c58 -30.667 110.333 -46 157 -46c72.667 0 109 36.667 109 110c0 28.667 -6.5 51.167 -19.5 67.5s-34.5 28.833 -64.5 37.5l-62 18
c-50.667 14.667 -88 36.667 -112 66s-36 67.666 -36 114.999c0 59.333 17 108.333 51 147c-31.333 30.667 -47 73 -47 127c0 59.333 17 105.333 51 138s81.333 49 142 49c26.667 0 54 -3.16699 82 -9.5s53.333 -15.5 76 -27.5l-27 -68c-46 22 -90.333 33 -133 33
c-36.667 0 -64.334 -9.33301 -83.001 -28s-28 -46 -28 -82c0 -29.333 6.33301 -52.333 19 -69s34 -29.334 64 -38.001l62 -18c50 -14.667 86.667 -36.5 110 -65.5s35 -67.5 35 -115.5c0 -58 -16.333 -106.333 -49 -145c32.667 -30.667 49 -73.667 49 -129zM289 152.002
c5.33301 -2 17.668 -6.33301 37.001 -13c22.667 27.333 34 60.333 34 99c0 31.333 -7 55.833 -21 73.5s-37 31.167 -69 40.5l-62 18c-16.667 4.66699 -29.667 9 -39 13c-23.333 -26 -35 -59 -35 -99c0 -31.333 7.16699 -56 21.5 -74s38.166 -31.333 71.499 -40z" />
    <glyph glyph-name="dieresis" unicode="&#xa8;" horiz-adv-x="500" 
d="M126 642c-8.66699 9.33301 -13 22.335 -13 39.002c0 17.333 4.33301 30.666 13 39.999s21 14 37 14c15.333 0 27.5 -4.66699 36.5 -14s13.5 -22.333 13.5 -39s-4.5 -29.834 -13.5 -39.501s-21.167 -14.5 -36.5 -14.5c-16 0 -28.333 4.66699 -37 14zM300.5 642.002
c-9 9.33301 -13.5 22.3311 -13.5 38.998s4.5 29.834 13.5 39.501s21.167 14.5 36.5 14.5c16 0 28.333 -4.66699 37 -14s13 -22.333 13 -39c0 -17.333 -4.33301 -30.666 -13 -39.999s-21 -14 -37 -14c-15.333 0 -27.5 4.66699 -36.5 14z" />
    <glyph glyph-name="copyright" unicode="&#xa9;" horiz-adv-x="783" 
d="M228 32.5c-46 29.667 -81.5 72.667 -106.5 129s-37.5 123.166 -37.5 200.499s12.5 144.166 37.5 200.499s60.5 99.333 106.5 129s100.667 44.5 164 44.5c62.667 0 117.167 -14.833 163.5 -44.5s81.833 -72.667 106.5 -129s37 -123.166 37 -200.499
s-12.333 -144.166 -37 -200.499s-60.167 -99.333 -106.5 -129s-100.833 -44.5 -163.5 -44.5c-63.333 0 -118 14.833 -164 44.5zM576 126.5c44 56.333 66 134.833 66 235.5s-22 179.167 -66 235.5s-105.333 84.5 -184 84.5s-140.167 -28.167 -184.5 -84.5
s-66.5 -134.833 -66.5 -235.5s22.167 -179.167 66.5 -235.5s105.833 -84.5 184.5 -84.5s140 28.167 184 84.5zM296.5 227.5c-26.333 32.333 -39.5 77.167 -39.5 134.5s12.833 102.166 38.5 134.499s61.5 48.5 107.5 48.5c18 0 35.667 -2.5 53 -7.5s32.333 -11.833 45 -20.5
l-24 -50c-26.667 15.333 -51.667 23 -75 23c-27.333 0 -48 -10.5 -62 -31.5s-21 -51.833 -21 -92.5c0 -43.333 7.66699 -76.166 23 -98.499s37.666 -33.5 66.999 -33.5c24.667 0 49.334 7.66699 74.001 23l22 -49c-12.667 -9.33301 -27.667 -16.5 -45 -21.5
s-35.333 -7.5 -54 -7.5c-46.667 0 -83.167 16.167 -109.5 48.5z" />
    <glyph glyph-name="ordfeminine" unicode="&#xaa;" horiz-adv-x="487" 
d="M351 695.5c26.667 -22.333 39.998 -53.834 39.998 -94.501v-271c-22.667 -12 -48 -21.167 -76 -27.5s-55.333 -9.5 -82 -9.5c-52 0 -92.333 11.333 -121 34s-43 54.334 -43 95.001c0 49.333 19.5 85.166 58.5 107.499s102.833 33.5 191.5 33.5v27
c0 24 -7.66699 42.333 -23 55s-37.666 19 -66.999 19c-30 0 -64.333 -8.33301 -103 -25l-19 57c18.667 10.667 39.5 18.834 62.5 24.501s45.833 8.5 68.5 8.5c48.667 0 86.334 -11.167 113.001 -33.5zM164.498 373.499c15.667 -11.667 38.5 -17.5 68.5 -17.5
c31.333 0 60 5 86 15v137c-63.333 0 -108.833 -6.5 -136.5 -19.5s-41.5 -34.5 -41.5 -64.5c0 -22 7.83301 -38.833 23.5 -50.5zM89.998 186.999h299v-61h-299v61z" />
    <glyph glyph-name="guillemotleft" unicode="&#xab;" horiz-adv-x="544" 
d="M343 287l163 -199l-52 -47l-201 245l202 245l51 -47zM123 287l163 -199l-52 -47l-201 245l202 245l51 -47z" />
    <glyph glyph-name="logicalnot" unicode="&#xac;" horiz-adv-x="536" 
d="M472 489v-74v-169h-77v169h-330v74h407z" />
    <glyph glyph-name="uni00AD" unicode="&#xad;" horiz-adv-x="374" 
d="M46 331h281v-68h-281v68z" />
    <glyph glyph-name="registered" unicode="&#xae;" horiz-adv-x="783" 
d="M555.5 691.5c46.333 -29.667 81.833 -72.667 106.5 -129s37 -123.166 37 -200.499s-12.333 -144.166 -37 -200.499s-60.167 -99.333 -106.5 -129s-100.833 -44.5 -163.5 -44.5c-63.333 0 -118 14.833 -164 44.5s-81.5 72.667 -106.5 129s-37.5 123.166 -37.5 200.499
s12.5 144.166 37.5 200.499s60.5 99.333 106.5 129s100.667 44.5 164 44.5c62.667 0 117.167 -14.833 163.5 -44.5zM576 126.5c44 56.333 66 134.833 66 235.5s-22 179.167 -66 235.5s-105.333 84.5 -184 84.5s-140.167 -28.167 -184.5 -84.5s-66.5 -134.833 -66.5 -235.5
s22.167 -179.167 66.5 -235.5s105.833 -84.5 184.5 -84.5s140 28.167 184 84.5zM493.5 350.5c-9.66699 -18.333 -23.833 -31.501 -42.5 -39.501l72 -127h-71l-60 117h-45v-117h-58v356h112c34 0 60.333 -10.667 79 -32s28 -51 28 -89
c0 -27.333 -4.83301 -50.166 -14.5 -68.499zM347.001 351.999l50 0.000976562c16 0 28.167 5.66699 36.5 17s12.5 27.666 12.5 48.999c0 44.667 -16.333 67 -49 67h-50v-133z" />
    <glyph glyph-name="macron" unicode="&#xaf;" horiz-adv-x="500" 
d="M113 701h274v-60h-274v60z" />
    <glyph glyph-name="degree" unicode="&#xb0;" horiz-adv-x="419" 
d="M92.5 441c-30.333 32 -45.5 73 -45.5 123c0 50.667 15.167 91.834 45.5 123.501s69.5 47.5 117.5 47.5s87 -15.833 117 -47.5s45 -72.834 45 -123.501c0 -50 -15 -91 -45 -123s-69 -48 -117 -48s-87.167 16 -117.5 48zM272.5 492.5
c16.333 18.333 24.5 42.166 24.5 71.499s-8.16699 53.333 -24.5 72s-37.166 28 -62.499 28c-26 0 -47.167 -9.33301 -63.5 -28s-24.5 -42.667 -24.5 -72s8.16699 -53.166 24.5 -71.499s37.5 -27.5 63.5 -27.5c25.333 0 46.166 9.16699 62.499 27.5z" />
    <glyph glyph-name="plusminus" unicode="&#xb1;" horiz-adv-x="536" 
d="M486 484v-74h-180v-180h-76v180h-179v74h179v180h76v-180h180zM51 159h435v-72h-435v72z" />
    <glyph glyph-name="uni00B2" unicode="&#xb2;" horiz-adv-x="344" 
d="M299 387l-0.00195312 -56.999h-274v57l153 174c16.667 18.667 27.834 34.167 33.501 46.5s8.5 26.166 8.5 41.499c0 42.667 -20.333 64 -61 64c-34 0 -69.667 -13 -107 -39l-29 51c20.667 16 43.334 28.5 68.001 37.5s49.334 13.5 74.001 13.5
c39.333 0 70.166 -10.5 92.499 -31.5s33.5 -50.833 33.5 -89.5c0 -22 -5 -43 -15 -63s-27.333 -43.667 -52 -71l-119 -134h194z" />
    <glyph glyph-name="uni00B3" unicode="&#xb3;" horiz-adv-x="368" 
d="M278.5 561c22.333 -22.667 33.501 -54.333 33.501 -95c0 -44.667 -13.833 -79.5 -41.5 -104.5s-66.5 -37.5 -116.5 -37.5c-25.333 0 -49.333 3.5 -72 10.5s-42.334 16.833 -59.001 29.5l25 55c32 -22 67.333 -33 106 -33c28.667 0 50.167 6.83301 64.5 20.5
s21.5 33.5 21.5 59.5c0 50.667 -27 76 -81 76c-16.667 0 -32 -2 -46 -6l-23 32l126 144h-183v58h260v-58l-109 -115c40.667 -1.33301 72.167 -13.333 94.5 -36z" />
    <glyph glyph-name="acute" unicode="&#xb4;" horiz-adv-x="500" 
d="M201 625l94 159h88v-10l-124 -159h-58v10z" />
    <glyph glyph-name="uni00B5" unicode="&#xb5;" horiz-adv-x="549" 
d="M466 536v-536h-73v58c-38 -45.333 -86.333 -68 -145 -68c-38 0 -66.667 10.667 -86 32v-229h-79v518v225h79v-380c0 -63.333 33.667 -95 101 -95c24.667 0 47 4.66699 67 14s39 24.333 57 45v416h79z" />
    <glyph glyph-name="paragraph" unicode="&#xb6;" horiz-adv-x="534" 
d="M447 0l-66 0.000976562v656h-75v-656h-66v323h-2c-66.667 0 -118.667 17.667 -156 53s-56 84.333 -56 147c0 63.333 19 112.666 57 147.999s91 53 159 53h205v-724z" />
    <glyph glyph-name="periodcentered" unicode="&#xb7;" horiz-adv-x="235" 
d="M76 291c-10 10 -15 24.333 -15 43s5 33 15 43s23.667 15 41 15c18 0 32 -5 42 -15s15 -24 15 -42c0 -18.667 -5 -33.167 -15 -43.5s-24 -15.5 -42 -15.5c-17.333 0 -31 5 -41 15z" />
    <glyph glyph-name="cedilla" unicode="&#xb8;" horiz-adv-x="500" 
d="M331.5 -81c17 -14 25.502 -33.333 25.502 -58c0 -28 -9.83301 -49.833 -29.5 -65.5s-46.834 -23.5 -81.501 -23.5c-37.333 0 -69.333 8 -96 24l14 43c30.667 -12.667 57.334 -19 80.001 -19c15.333 0 27.166 3.5 35.499 10.5s12.5 16.833 12.5 29.5
s-3.83301 22.5 -11.5 29.5s-18.834 10.5 -33.501 10.5s-28.667 -3 -42 -9l-19 23l42 106l59 -6l-49 -76c4.66699 1.33301 11.667 2 21 2c31.333 0 55.5 -7 72.5 -21z" />
    <glyph glyph-name="uni00B9" unicode="&#xb9;" horiz-adv-x="308" 
d="M194 770v-440h-68v369l-89 -33l-18 54l122 50h53z" />
    <glyph glyph-name="ordmasculine" unicode="&#xba;" horiz-adv-x="493" 
d="M116 348c-30.667 37.333 -46 91.667 -46 163s15.333 125.666 46 162.999s74 56 130 56c56.667 0 100.334 -18.667 131.001 -56s46 -91.666 46 -162.999c0 -72 -15.333 -126.5 -46 -163.5s-74.334 -55.5 -131.001 -55.5c-56 0 -99.333 18.667 -130 56zM322.5 395.501
c17.667 26.333 26.5 64.833 26.5 115.5s-8.83301 89.167 -26.5 115.5s-43.167 39.5 -76.5 39.5s-58.666 -13.167 -75.999 -39.5s-26 -64.833 -26 -115.5s8.66699 -89.167 26 -115.5s42.666 -39.5 75.999 -39.5s58.833 13.167 76.5 39.5zM97 187.001h300v-61h-300v61z" />
    <glyph glyph-name="guillemotright" unicode="&#xbb;" horiz-adv-x="544" 
d="M291 286l-202 -245l-51 47l163 197l-163 199l52 47zM511 286l-202 -245l-51 47l163 197l-163 199l52 47z" />
    <glyph glyph-name="onequarter" unicode="&#xbc;" horiz-adv-x="811" 
d="M615 704l-400 -715l-57 31l400 715zM126 284v368l-89 -32l-18 54l122 50h53v-440h-68zM783 144v-57h-53v-87h-66v87h-194v57l162 296h98v-296h53zM664 144v237l-125 -237h125z" />
    <glyph glyph-name="onehalf" unicode="&#xbd;" horiz-adv-x="848" 
d="M615 704l-400 -715l-57 31l400 715zM126 284v368l-89 -32l-18 54l122 50h53v-440h-68zM804 58l-0.000976562 -57.999h-274v58l153 174c16 18 27 33.167 33 45.5s9 26.166 9 41.499c0 20.667 -5 36.667 -15 48s-25.333 17 -46 17c-34.667 0 -70.334 -13.333 -107.001 -40
l-29 51c20.667 16 43.334 28.5 68.001 37.5s49.334 13.5 74.001 13.5c40 0 71 -10.5 93 -31.5s33 -50.833 33 -89.5c0 -22 -5 -42.833 -15 -62.5s-27.333 -43.5 -52 -71.5l-119 -133h194z" />
    <glyph glyph-name="threequarters" unicode="&#xbe;" horiz-adv-x="889" 
d="M693 704l-400 -715l-57 31l400 715zM270.5 315.5c-27.667 -25 -66.499 -37.5 -116.499 -37.5c-25.333 0 -49.333 3.5 -72 10.5s-42.334 16.833 -59.001 29.5l25 56c32 -22 67.333 -33 106 -33c28.667 0 50.167 6.83301 64.5 20.5s21.5 33.167 21.5 58.5
c0 51.333 -27 77 -81 77c-16.667 0 -32 -2 -46 -6l-23 31l127 145h-184v57h260v-57l-109 -116c40.667 -0.666992 72.167 -12.5 94.5 -35.5s33.5 -54.5 33.5 -94.5c0 -45.333 -13.833 -80.5 -41.5 -105.5zM861.001 144v-57h-53v-87h-66v87h-194v57l162 296h98v-296h53z
M742.001 144v237l-125 -237h125z" />
    <glyph glyph-name="questiondown" unicode="&#xbf;" horiz-adv-x="427" 
d="M305 530.5c10 -10.333 15 -24.5 15 -42.5c0 -18.667 -5 -33.167 -15 -43.5s-23.667 -15.5 -41 -15.5c-18 0 -32 5.16699 -42 15.5s-15 24.5 -15 42.5c0 18.667 5 33.167 15 43.5s24 15.5 42 15.5c17.333 0 31 -5.16699 41 -15.5zM309 276
c0 -30 -4.66602 -55.5 -13.999 -76.5s-20.166 -38 -32.499 -51s-31.5 -31.5 -57.5 -55.5c-24 -21.333 -40.667 -40.166 -50 -56.499s-14 -35.833 -14 -58.5c0 -34 9 -59.833 27 -77.5s44.667 -26.5 80 -26.5c50.667 0 101 17.333 151 52l32 -67
c-22.667 -19.333 -50.334 -34.333 -83.001 -45s-66.667 -16 -102 -16c-59.333 0 -105.833 15.667 -139.5 47s-50.5 74.666 -50.5 129.999c0 32 6.83301 60.5 20.5 85.5s38.167 52.5 73.5 82.5l31.5 27c16.333 14 28.666 29.833 36.999 47.5s12.5 38.167 12.5 61.5
c0 15.333 -1 34.333 -3 57h78c2 -24.667 3 -44.667 3 -60z" />
    <glyph glyph-name="Agrave" unicode="&#xc0;" horiz-adv-x="633" 
d="M308 781l-165 133v12h99l134 -133v-12h-68zM455 193h-279l-59 -193h-87l241 724h91l241 -724h-88zM432 264l-117 378l-117 -378h234z" />
    <glyph glyph-name="Aacute" unicode="&#xc1;" horiz-adv-x="633" 
d="M323 781h-68v12l143 133h99v-12zM455 193h-279l-59 -193h-87l241 724h91l241 -724h-88zM432 264l-117 378l-117 -378h234z" />
    <glyph glyph-name="Acircumflex" unicode="&#xc2;" horiz-adv-x="633" 
d="M223 781h-59v12l110 133h84l110 -133v-12h-62l-91 94zM455 193h-279l-59 -193h-87l241 724h91l241 -724h-88zM432 264l-117 378l-117 -378h234z" />
    <glyph glyph-name="Atilde" unicode="&#xc3;" horiz-adv-x="633" 
d="M209 791h-50c0.666992 40.667 9 72.334 25 95.001s38 34 66 34c16.667 0 31.167 -3.5 43.5 -10.5s26.166 -17.167 41.499 -30.5c11.333 -9.33301 20.5 -16.166 27.5 -20.499s14.167 -6.5 21.5 -6.5c22 0 35 22 39 66h50c-0.666992 -40.667 -9 -72.334 -25 -95.001
s-38 -34 -66 -34c-16.667 0 -31.167 3.5 -43.5 10.5s-26.166 17.167 -41.499 30.5c-11.333 9.33301 -20.5 16.166 -27.5 20.499s-14.167 6.5 -21.5 6.5c-22 0 -35 -22 -39 -66zM455 193h-279l-59 -193h-87l241 724h91l241 -724h-88zM432 264l-117 378l-117 -378h234z" />
    <glyph glyph-name="Adieresis" unicode="&#xc4;" horiz-adv-x="633" 
d="M191 811c-8.66699 9.33301 -13 22.3311 -13 38.998s4.33301 29.834 13 39.501s20.667 14.5 36 14.5c16 0 28.333 -4.66699 37 -14s13 -22.333 13 -39c0 -17.333 -4.33301 -30.666 -13 -39.999s-21 -14 -37 -14c-15.333 0 -27.333 4.66699 -36 14zM369 810.998
c-8.66699 9.33301 -13 22.3311 -13 38.998s4.33301 29.834 13 39.501s20.667 14.5 36 14.5c16 0 28.333 -4.66699 37 -14s13 -22.333 13 -39c0 -17.333 -4.33301 -30.666 -13 -39.999s-21 -14 -37 -14c-15.333 0 -27.333 4.66699 -36 14zM455 192.996h-279l-59 -193h-87
l241 724h91l241 -724h-88zM432 263.996l-117 378l-117 -378h234z" />
    <glyph glyph-name="Aring" unicode="&#xc5;" horiz-adv-x="633" 
d="M233.5 798c-19.667 18.667 -29.5 44.667 -29.5 78c0 34 9.83301 60.333 29.5 79s47.167 28 82.5 28s62.833 -9.33301 82.5 -28s29.5 -45 29.5 -79c0 -33.333 -9.83301 -59.333 -29.5 -78s-47.167 -28 -82.5 -28s-62.833 9.33301 -82.5 28zM275 923
c-9.33301 -10.667 -14 -26.334 -14 -47.001c0 -20 4.66699 -35.333 14 -46s23 -16 41 -16s31.667 5.33301 41 16s14 26 14 46c0 20.667 -4.66699 36.334 -14 47.001s-23 16 -41 16s-31.667 -5.33301 -41 -16zM455 193h-279l-59 -193h-87l241 724h91l241 -724h-88zM432 264
l-117 378l-117 -378h234z" />
    <glyph glyph-name="AE" unicode="&#xc6;" horiz-adv-x="845" 
d="M807 72v-72h-397v185h-236l-92 -185h-89l364 724h83h355v-72h-306v-244h224v-73h-224v-263h318zM410 256v407l-201 -407h201z" />
    <glyph glyph-name="Ccedilla" unicode="&#xc7;" horiz-adv-x="560" 
d="M411.5 -81c17 -14 25.501 -33.335 25.501 -58.002c0 -28 -9.83301 -49.833 -29.5 -65.5s-46.834 -23.5 -81.501 -23.5c-37.333 0 -69.333 8 -96 24l14 43c30.667 -12.667 57.334 -19 80.001 -19c15.333 0 27.166 3.5 35.499 10.5s12.5 16.833 12.5 29.5
s-3.83301 22.5 -11.5 29.5s-18.834 10.5 -33.501 10.5s-28.667 -3 -42 -9l-19 23l31 79c-80 11.333 -141.833 47.833 -185.5 109.5s-65.5 143.5 -65.5 245.5c0 78 12.167 146.333 36.5 205s59 103.834 104 135.501s97.5 47.5 157.5 47.5c31.333 0 62.333 -4.33301 93 -13
s58.334 -20.667 83.001 -36l-28 -64c-51.333 26 -101 39 -149 39c-66.667 0 -118.667 -26.833 -156 -80.5s-56 -129.167 -56 -226.5c0 -95.333 18.833 -167.666 56.5 -216.999s93.5 -74 167.5 -74c52 0 99.333 11.667 142 35l29 -63
c-21.333 -14.667 -47.333 -26.167 -78 -34.5s-63 -12.5 -97 -12.5l-33 -52c6.66699 2 13.667 3 21 3c31.333 0 55.5 -7 72.5 -21z" />
    <glyph glyph-name="Egrave" unicode="&#xc8;" horiz-adv-x="537" 
d="M285 781l-165 133v12h99l134 -133v-12h-68zM499 72v-72h-412v724h399v-72h-318v-245h237v-73h-237v-262h331z" />
    <glyph glyph-name="Eacute" unicode="&#xc9;" horiz-adv-x="537" 
d="M300 781h-68v12l143 133h99v-12zM499 72v-72h-412v724h399v-72h-318v-245h237v-73h-237v-262h331z" />
    <glyph glyph-name="Ecircumflex" unicode="&#xca;" horiz-adv-x="537" 
d="M200 781h-59v12l110 133h84l110 -133v-12h-62l-91 94zM499 72v-72h-412v724h399v-72h-318v-245h237v-73h-237v-262h331z" />
    <glyph glyph-name="Edieresis" unicode="&#xcb;" horiz-adv-x="537" 
d="M168 811c-8.66699 9.33301 -13 22.3311 -13 38.998s4.33301 29.834 13 39.501s20.667 14.5 36 14.5c16 0 28.333 -4.66699 37 -14s13 -22.333 13 -39c0 -17.333 -4.33301 -30.666 -13 -39.999s-21 -14 -37 -14c-15.333 0 -27.333 4.66699 -36 14zM346 810.998
c-8.66699 9.33301 -13 22.3311 -13 38.998s4.33301 29.834 13 39.501s20.667 14.5 36 14.5c16 0 28.333 -4.66699 37 -14s13 -22.333 13 -39c0 -17.333 -4.33301 -30.666 -13 -39.999s-21 -14 -37 -14c-15.333 0 -27.333 4.66699 -36 14zM499 71.9961v-72h-412v724h399v-72
h-318v-245h237v-73h-237v-262h331z" />
    <glyph glyph-name="Igrave" unicode="&#xcc;" horiz-adv-x="260" 
d="M-43 914v12h99l134 -133v-12h-68zM89 724h81v-724h-81v724z" />
    <glyph glyph-name="Iacute" unicode="&#xcd;" horiz-adv-x="260" 
d="M69 793l143 133h99v-12l-174 -133h-68v12zM89 724h81v-724h-81v724z" />
    <glyph glyph-name="Icircumflex" unicode="&#xce;" horiz-adv-x="260" 
d="M282 793v-12h-62l-91 94l-92 -94h-59v12l110 133h84zM89 724h81v-724h-81v724z" />
    <glyph glyph-name="Idieresis" unicode="&#xcf;" horiz-adv-x="260" 
d="M5 811c-8.66699 9.33301 -13 22.3311 -13 38.998s4.33301 29.834 13 39.501s20.667 14.5 36 14.5c16 0 28.333 -4.66699 37 -14s13 -22.333 13 -39c0 -17.333 -4.33301 -30.666 -13 -39.999s-21 -14 -37 -14c-15.333 0 -27.333 4.66699 -36 14zM183 810.998
c-8.66699 9.33301 -13 22.3311 -13 38.998s4.33301 29.834 13 39.501s20.667 14.5 36 14.5c16 0 28.333 -4.66699 37 -14s13 -22.333 13 -39c0 -17.333 -4.33301 -30.666 -13 -39.999s-21 -14 -37 -14c-15.333 0 -27.333 4.66699 -36 14zM89 723.996h81v-724h-81v724z" />
    <glyph glyph-name="Eth" unicode="&#xd0;" horiz-adv-x="646" 
d="M509 632c54 -61.333 80.999 -151.333 80.999 -270s-27.167 -208.667 -81.5 -270s-133.166 -92 -236.499 -92h-185v333h-62v68h62v323h189c101.333 0 179 -30.667 233 -92zM446.999 145.5c38.667 49 58 121.167 58 216.5s-19.667 167.5 -59 216.5s-97.333 73.5 -174 73.5
h-104v-251h176v-68h-176v-261h107c76 0 133.333 24.5 172 73.5z" />
    <glyph glyph-name="Ntilde" unicode="&#xd1;" horiz-adv-x="677" 
d="M232 791h-50c0.666992 40.667 9 72.334 25 95.001s38 34 66 34c16.667 0 31.167 -3.5 43.5 -10.5s26.166 -17.167 41.499 -30.5c11.333 -9.33301 20.5 -16.166 27.5 -20.499s14.167 -6.5 21.5 -6.5c22 0 35 22 39 66h50c-0.666992 -40.667 -9 -72.334 -25 -95.001
s-38 -34 -66 -34c-16.667 0 -31.167 3.5 -43.5 10.5s-26.166 17.167 -41.499 30.5c-11.333 9.33301 -20.5 16.166 -27.5 20.499s-14.167 6.5 -21.5 6.5c-22 0 -35 -22 -39 -66zM589 724v-724h-76l-347 581v-581h-79v724h76l347 -580v580h79z" />
    <glyph glyph-name="Ograve" unicode="&#xd2;" horiz-adv-x="665" 
d="M160 914v12h99l134 -133v-12h-68zM127 83c-47.333 63.333 -71 156.333 -71 279s23.667 215.667 71 279s115.666 95 204.999 95s157.833 -31.667 205.5 -95s71.5 -156.333 71.5 -279s-23.833 -215.667 -71.5 -279s-116.167 -95 -205.5 -95s-157.666 31.667 -204.999 95z
M475.5 136.5c32.333 51 48.5 126.167 48.5 225.5s-16.167 174.5 -48.5 225.5s-80.166 76.5 -143.499 76.5c-62.667 0 -110.167 -25.5 -142.5 -76.5s-48.5 -126.167 -48.5 -225.5s16.167 -174.5 48.5 -225.5s79.833 -76.5 142.5 -76.5c63.333 0 111.166 25.5 143.499 76.5z
" />
    <glyph glyph-name="Oacute" unicode="&#xd3;" horiz-adv-x="665" 
d="M272 793l143 133h99v-12l-174 -133h-68v12zM127 83c-47.333 63.333 -71 156.333 -71 279s23.667 215.667 71 279s115.666 95 204.999 95s157.833 -31.667 205.5 -95s71.5 -156.333 71.5 -279s-23.833 -215.667 -71.5 -279s-116.167 -95 -205.5 -95
s-157.666 31.667 -204.999 95zM475.5 136.5c32.333 51 48.5 126.167 48.5 225.5s-16.167 174.5 -48.5 225.5s-80.166 76.5 -143.499 76.5c-62.667 0 -110.167 -25.5 -142.5 -76.5s-48.5 -126.167 -48.5 -225.5s16.167 -174.5 48.5 -225.5s79.833 -76.5 142.5 -76.5
c63.333 0 111.166 25.5 143.499 76.5z" />
    <glyph glyph-name="Ocircumflex" unicode="&#xd4;" horiz-adv-x="665" 
d="M240 781h-59v12l110 133h84l110 -133v-12h-62l-91 94zM537.5 641c47.667 -63.333 71.5 -156.333 71.5 -279s-23.833 -215.667 -71.5 -279s-116.167 -95 -205.5 -95s-157.666 31.667 -204.999 95s-71 156.333 -71 279s23.667 215.667 71 279s115.666 95 204.999 95
s157.833 -31.667 205.5 -95zM475.5 136.5c32.333 51 48.5 126.167 48.5 225.5s-16.167 174.5 -48.5 225.5s-80.166 76.5 -143.499 76.5c-62.667 0 -110.167 -25.5 -142.5 -76.5s-48.5 -126.167 -48.5 -225.5s16.167 -174.5 48.5 -225.5s79.833 -76.5 142.5 -76.5
c63.333 0 111.166 25.5 143.499 76.5z" />
    <glyph glyph-name="Otilde" unicode="&#xd5;" horiz-adv-x="665" 
d="M355.5 799.5c-12.333 7 -26.166 17.167 -41.499 30.5c-11.333 9.33301 -20.5 16.166 -27.5 20.499s-14.167 6.5 -21.5 6.5c-22 0 -35 -22 -39 -66h-50c0.666992 40.667 9 72.334 25 95.001s38 34 66 34c16.667 0 31.167 -3.5 43.5 -10.5s26.166 -17.167 41.499 -30.5
c11.333 -9.33301 20.5 -16.166 27.5 -20.499s14.167 -6.5 21.5 -6.5c22 0 35 22 39 66h50c-0.666992 -40.667 -9 -72.334 -25 -95.001s-38 -34 -66 -34c-16.667 0 -31.167 3.5 -43.5 10.5zM127 83c-47.333 63.333 -71 156.333 -71 279s23.667 215.667 71 279
s115.666 95 204.999 95s157.833 -31.667 205.5 -95s71.5 -156.333 71.5 -279s-23.833 -215.667 -71.5 -279s-116.167 -95 -205.5 -95s-157.666 31.667 -204.999 95zM475.5 136.5c32.333 51 48.5 126.167 48.5 225.5s-16.167 174.5 -48.5 225.5s-80.166 76.5 -143.499 76.5
c-62.667 0 -110.167 -25.5 -142.5 -76.5s-48.5 -126.167 -48.5 -225.5s16.167 -174.5 48.5 -225.5s79.833 -76.5 142.5 -76.5c63.333 0 111.166 25.5 143.499 76.5z" />
    <glyph glyph-name="Odieresis" unicode="&#xd6;" horiz-adv-x="665" 
d="M208 811c-8.66699 9.33301 -13 22.3311 -13 38.998s4.33301 29.834 13 39.501s20.667 14.5 36 14.5c16 0 28.333 -4.66699 37 -14s13 -22.333 13 -39c0 -17.333 -4.33301 -30.666 -13 -39.999s-21 -14 -37 -14c-15.333 0 -27.333 4.66699 -36 14zM386 810.998
c-8.66699 9.33301 -13 22.3311 -13 38.998s4.33301 29.834 13 39.501s20.667 14.5 36 14.5c16 0 28.333 -4.66699 37 -14s13 -22.333 13 -39c0 -17.333 -4.33301 -30.666 -13 -39.999s-21 -14 -37 -14c-15.333 0 -27.333 4.66699 -36 14zM127 82.9961
c-47.333 63.333 -71 156.333 -71 279s23.667 215.667 71 279s115.666 95 204.999 95s157.833 -31.667 205.5 -95s71.5 -156.333 71.5 -279s-23.833 -215.667 -71.5 -279s-116.167 -95 -205.5 -95s-157.666 31.667 -204.999 95zM475.5 136.496
c32.333 51 48.5 126.167 48.5 225.5s-16.167 174.5 -48.5 225.5s-80.166 76.5 -143.499 76.5c-62.667 0 -110.167 -25.5 -142.5 -76.5s-48.5 -126.167 -48.5 -225.5s16.167 -174.5 48.5 -225.5s79.833 -76.5 142.5 -76.5c63.333 0 111.166 25.5 143.499 76.5z" />
    <glyph glyph-name="multiply" unicode="&#xd7;" horiz-adv-x="536" 
d="M316 368l153 -170l-50 -50l-151 167l-150 -167l-51 50l154 170l-154 170l51 50l150 -167l151 167l50 -50z" />
    <glyph glyph-name="Oslash" unicode="&#xd8;" horiz-adv-x="665" 
d="M639 724l-82.999 -110.999c36 -62.667 54 -146.334 54 -251.001c0 -122.667 -23.833 -215.667 -71.5 -279s-116.5 -95 -206.5 -95c-77.333 0 -139 24 -185 72l-51 -70h-69v10l83 111c-36 61.333 -54 145 -54 251c0 122.667 23.667 215.667 71 279s115.666 95 204.999 95
c78 0 140 -24 186 -72l51 70h70v-10zM188.001 589.501c-32.667 -51 -49 -126.833 -49 -227.5c0 -72 8 -131.667 24 -179l309 417c-32 44 -78.667 66 -140 66c-63.333 0 -111.333 -25.5 -144 -76.5zM477.501 135.001c33 51.333 49.5 127 49.5 227
c0 73.333 -8.33301 133 -25 179l-308 -417c31.333 -44 77.333 -66 138 -66c64 0 112.5 25.667 145.5 77z" />
    <glyph glyph-name="Ugrave" unicode="&#xd9;" horiz-adv-x="640" 
d="M147 914v12h99l134 -133v-12h-68zM145 56c-42 45.333 -62.998 109 -62.998 191v477h81v-476c0 -62 13.333 -108.833 40 -140.5s66 -47.5 118 -47.5c51.333 0 90.166 15.833 116.499 47.5s39.5 78.5 39.5 140.5v476h81v-477c0 -82 -20.833 -145.667 -62.5 -191
s-99.834 -68 -174.501 -68c-75.333 0 -134 22.667 -176 68z" />
    <glyph glyph-name="Uacute" unicode="&#xda;" horiz-adv-x="640" 
d="M259 793l143 133h99v-12l-174 -133h-68v12zM145 56c-42 45.333 -62.998 109 -62.998 191v477h81v-476c0 -62 13.333 -108.833 40 -140.5s66 -47.5 118 -47.5c51.333 0 90.166 15.833 116.499 47.5s39.5 78.5 39.5 140.5v476h81v-477c0 -82 -20.833 -145.667 -62.5 -191
s-99.834 -68 -174.501 -68c-75.333 0 -134 22.667 -176 68z" />
    <glyph glyph-name="Ucircumflex" unicode="&#xdb;" horiz-adv-x="640" 
d="M227 781h-59v12l110 133h84l110 -133v-12h-62l-91 94zM558 724l0.00195312 -477c0 -82 -20.833 -145.667 -62.5 -191s-99.834 -68 -174.501 -68c-75.333 0 -134 22.667 -176 68s-63 109 -63 191v477h81v-476c0 -62 13.333 -108.833 40 -140.5s66 -47.5 118 -47.5
c51.333 0 90.166 15.833 116.499 47.5s39.5 78.5 39.5 140.5v476h81z" />
    <glyph glyph-name="Udieresis" unicode="&#xdc;" horiz-adv-x="640" 
d="M195 811c-8.66699 9.33301 -13 22.3311 -13 38.998s4.33301 29.834 13 39.501s20.667 14.5 36 14.5c16 0 28.333 -4.66699 37 -14s13 -22.333 13 -39c0 -17.333 -4.33301 -30.666 -13 -39.999s-21 -14 -37 -14c-15.333 0 -27.333 4.66699 -36 14zM373 810.998
c-8.66699 9.33301 -13 22.3311 -13 38.998s4.33301 29.834 13 39.501s20.667 14.5 36 14.5c16 0 28.333 -4.66699 37 -14s13 -22.333 13 -39c0 -17.333 -4.33301 -30.666 -13 -39.999s-21 -14 -37 -14c-15.333 0 -27.333 4.66699 -36 14zM145 55.9961
c-42 45.333 -62.998 109 -62.998 191v477h81v-476c0 -62 13.333 -108.833 40 -140.5s66 -47.5 118 -47.5c51.333 0 90.166 15.833 116.499 47.5s39.5 78.5 39.5 140.5v476h81v-477c0 -82 -20.833 -145.667 -62.5 -191s-99.834 -68 -174.501 -68
c-75.333 0 -134 22.667 -176 68z" />
    <glyph glyph-name="Yacute" unicode="&#xdd;" horiz-adv-x="557" 
d="M284 781h-68v12l143 133h99v-12zM531 724l-213 -467v-257h-81v257l-211 467h90l163 -374l163 374h89z" />
    <glyph glyph-name="Thorn" unicode="&#xde;" horiz-adv-x="574" 
d="M476 538.5c38 -40.333 56.999 -96.167 56.999 -167.5c0 -72.667 -19.167 -129 -57.5 -169s-92.166 -60.333 -161.499 -61h-146v-141h-81v724h81v-125h150c67.333 0 120 -20.167 158 -60.5zM414.999 252.999c22 26.667 33 65.667 33 117s-11.333 90.333 -34 117
s-56 40 -100 40h-146v-314h150c42.667 0 75 13.333 97 40z" />
    <glyph glyph-name="germandbls" unicode="&#xdf;" horiz-adv-x="558" 
d="M470 342c32 -38.667 47.9971 -88.3311 47.9971 -148.998c0 -62.667 -17.167 -111.5 -51.5 -146.5s-82.166 -52.5 -143.499 -52.5c-33.333 0 -67.666 5 -102.999 15l18 68c28.667 -9.33301 57 -14 85 -14c78.667 0 118 42.333 118 127
c0 53.333 -16.167 94.833 -48.5 124.5s-80.166 46.5 -143.499 50.5v65c42.667 20 73.834 43.667 93.501 71s29.5 59.666 29.5 96.999c0 35.333 -8.33301 62.166 -25 80.499s-41.334 27.5 -74.001 27.5c-74 0 -111 -45.667 -111 -137v-569h-79v569
c0 65.333 16.667 116.166 50 152.499s80 54.5 140 54.5c55.333 0 98.333 -15.333 129 -46s46 -73.667 46 -129c0 -85.333 -38.333 -146.666 -115 -183.999c59.333 -11.333 105 -36.333 137 -75z" />
    <glyph glyph-name="agrave" unicode="&#xe0;" horiz-adv-x="495" 
d="M370.5 505c32.333 -28.667 48.5 -67.999 48.5 -117.999v-387h-70v69c-34 -52.667 -84.667 -79 -152 -79c-50 0 -88.833 14 -116.5 42s-41.5 67 -41.5 117c0 63.333 24.167 110 72.5 140s124.5 45.333 228.5 46v45c0 31.333 -9.5 55.166 -28.5 71.499
s-47.167 24.5 -84.5 24.5c-41.333 0 -81.333 -9.66699 -120 -29l-20 64c22 11.333 46 20.333 72 27s52 10 78 10c56.667 0 101.167 -14.333 133.5 -43zM340 121.001l-0.000976562 153c-76.667 -0.666992 -133 -10.667 -169 -30s-54 -49.333 -54 -90
c0 -30.667 8.33301 -54 25 -70s41 -24 73 -24c48.667 0 90.334 20.333 125.001 61zM115.999 774.001v10h88l86 -159v-10h-58z" />
    <glyph glyph-name="aacute" unicode="&#xe1;" horiz-adv-x="495" 
d="M370.5 505c32.333 -28.667 48.5 -67.999 48.5 -117.999v-387h-70v69c-34 -52.667 -84.667 -79 -152 -79c-50 0 -88.833 14 -116.5 42s-41.5 67 -41.5 117c0 63.333 24.167 110 72.5 140s124.5 45.333 228.5 46v45c0 31.333 -9.5 55.166 -28.5 71.499
s-47.167 24.5 -84.5 24.5c-41.333 0 -81.333 -9.66699 -120 -29l-20 64c22 11.333 46 20.333 72 27s52 10 78 10c56.667 0 101.167 -14.333 133.5 -43zM340 121.001l-0.000976562 153c-76.667 -0.666992 -133 -10.667 -169 -30s-54 -49.333 -54 -90
c0 -30.667 8.33301 -54 25 -70s41 -24 73 -24c48.667 0 90.334 20.333 125.001 61zM188.999 625.001l93 159h89v-10l-124 -159h-58v10z" />
    <glyph glyph-name="acircumflex" unicode="&#xe2;" horiz-adv-x="495" 
d="M370.5 505c32.333 -28.667 48.5 -67.999 48.5 -117.999v-387h-70v69c-34 -52.667 -84.667 -79 -152 -79c-50 0 -88.833 14 -116.5 42s-41.5 67 -41.5 117c0 63.333 24.167 110 72.5 140s124.5 45.333 228.5 46v45c0 31.333 -9.5 55.166 -28.5 71.499
s-47.167 24.5 -84.5 24.5c-41.333 0 -81.333 -9.66699 -120 -29l-20 64c22 11.333 46 20.333 72 27s52 10 78 10c56.667 0 101.167 -14.333 133.5 -43zM340 121.001l-0.000976562 153c-76.667 -0.666992 -133 -10.667 -169 -30s-54 -49.333 -54 -90
c0 -30.667 8.33301 -54 25 -70s41 -24 73 -24c48.667 0 90.334 20.333 125.001 61zM371.999 625.001v-10h-56l-81 112l-80 -112h-53v10l96 159h78z" />
    <glyph glyph-name="atilde" unicode="&#xe3;" horiz-adv-x="495" 
d="M370.5 505c32.333 -28.667 48.5 -67.999 48.5 -117.999v-387h-70v69c-34 -52.667 -84.667 -79 -152 -79c-50 0 -88.833 14 -116.5 42s-41.5 67 -41.5 117c0 63.333 24.167 110 72.5 140s124.5 45.333 228.5 46v45c0 31.333 -9.5 55.166 -28.5 71.499
s-47.167 24.5 -84.5 24.5c-41.333 0 -81.333 -9.66699 -120 -29l-20 64c22 11.333 46 20.333 72 27s52 10 78 10c56.667 0 101.167 -14.333 133.5 -43zM340 121.001l-0.000976562 153c-76.667 -0.666992 -133 -10.667 -169 -30s-54 -49.333 -54 -90
c0 -30.667 8.33301 -54 25 -70s41 -24 73 -24c48.667 0 90.334 20.333 125.001 61zM259.499 629.501c-12.333 7 -26.166 17.167 -41.499 30.5c-11.333 9.33301 -20.5 16.166 -27.5 20.499s-14.167 6.5 -21.5 6.5c-22 0 -35 -22 -39 -66h-50
c0.666992 40.667 9 72.334 25 95.001s38 34 66 34c16.667 0 31.167 -3.5 43.5 -10.5s26.166 -17.167 41.499 -30.5c11.333 -9.33301 20.5 -16.166 27.5 -20.499s14.167 -6.5 21.5 -6.5c22 0 35 22 39 66h50c-0.666992 -40.667 -9 -72.334 -25 -95.001s-38 -34 -66 -34
c-16.667 0 -31.167 3.5 -43.5 10.5z" />
    <glyph glyph-name="adieresis" unicode="&#xe4;" horiz-adv-x="495" 
d="M113 643c-8.66699 9.33301 -13 22.3311 -13 38.998s4.33301 29.834 13 39.501s20.667 14.5 36 14.5c16 0 28.333 -4.66699 37 -14s13 -22.333 13 -39c0 -17.333 -4.33301 -30.666 -13 -39.999s-21 -14 -37 -14c-15.333 0 -27.333 4.66699 -36 14zM288 642.998
c-8.66699 9.33301 -13 22.3311 -13 38.998s4.33301 29.834 13 39.501s20.667 14.5 36 14.5c16 0 28.333 -4.66699 37 -14s13 -22.333 13 -39c0 -17.333 -4.33301 -30.666 -13 -39.999s-21 -14 -37 -14c-15.333 0 -27.333 4.66699 -36 14zM370.5 504.996
c32.333 -28.667 48.5 -67.999 48.5 -117.999v-387h-70v69c-34 -52.667 -84.667 -79 -152 -79c-50 0 -88.833 14 -116.5 42s-41.5 67 -41.5 117c0 63.333 24.167 110 72.5 140s124.5 45.333 228.5 46v45c0 31.333 -9.5 55.166 -28.5 71.499s-47.167 24.5 -84.5 24.5
c-41.333 0 -81.333 -9.66699 -120 -29l-20 64c22 11.333 46 20.333 72 27s52 10 78 10c56.667 0 101.167 -14.333 133.5 -43zM340 120.997l-0.000976562 153c-76.667 -0.666992 -133 -10.667 -169 -30s-54 -49.333 -54 -90c0 -30.667 8.33301 -54 25 -70s41 -24 73 -24
c48.667 0 90.334 20.333 125.001 61z" />
    <glyph glyph-name="aring" unicode="&#xe5;" horiz-adv-x="495" 
d="M370.5 505c32.333 -28.667 48.5 -67.999 48.5 -117.999v-387h-70v69c-34 -52.667 -84.667 -79 -152 -79c-50 0 -88.833 14 -116.5 42s-41.5 67 -41.5 117c0 63.333 24.167 110 72.5 140s124.5 45.333 228.5 46v45c0 31.333 -9.5 55.166 -28.5 71.499
s-47.167 24.5 -84.5 24.5c-41.333 0 -81.333 -9.66699 -120 -29l-20 64c22 11.333 46 20.333 72 27s52 10 78 10c56.667 0 101.167 -14.333 133.5 -43zM340 121.001l-0.000976562 153c-76.667 -0.666992 -133 -10.667 -169 -30s-54 -49.333 -54 -90
c0 -30.667 8.33301 -54 25 -70s41 -24 73 -24c48.667 0 90.334 20.333 125.001 61zM154.999 633.001c-19.333 18.667 -29 44.667 -29 78c0 34 9.66699 60.333 29 79s46.666 28 81.999 28s62.666 -9.33301 81.999 -28s29 -45 29 -79c0 -33.333 -9.66699 -59.333 -29 -78
s-46.666 -28 -81.999 -28s-62.666 9.33301 -81.999 28zM277.999 664.001c9.33301 10.667 14 26.334 14 47.001c0 42.667 -18.333 64 -55 64s-55 -21.333 -55 -64c0 -20.667 4.66699 -36.334 14 -47.001s23 -16 41 -16s31.667 5.33301 41 16z" />
    <glyph glyph-name="ae" unicode="&#xe6;" horiz-adv-x="777" 
d="M730 247h-320.999c2.66699 -61.333 16.334 -107.5 41.001 -138.5s60.334 -46.5 107.001 -46.5c44.667 0 85.667 13.333 123 40l30 -61c-20.667 -16.667 -44.834 -29.5 -72.501 -38.5s-56.167 -13.5 -85.5 -13.5c-40.667 0 -76.334 8.66699 -107.001 26
s-55.334 42.666 -74.001 75.999c-25.333 -34.667 -52.333 -60.167 -81 -76.5s-61 -24.5 -97 -24.5c-48.667 0 -86.5 14 -113.5 42s-40.5 66.667 -40.5 116c0 61.333 23.667 106.5 71 135.5s121.666 43.833 222.999 44.5v52c0 31.333 -9.33301 55.166 -28 71.499
s-46 24.5 -82 24.5c-40 0 -78.667 -9.66699 -116 -29l-20 64c22 11.333 46 20.333 72 27s50.667 10 74 10c36.667 0 68 -7.16699 94 -21.5s45 -35.166 57 -62.499c14 26.667 34.167 47.334 60.5 62.001s56.5 22 90.5 22c62.667 0 111.334 -22.5 146.001 -67.5
s52 -108.167 52 -189.5c0 -16 -1 -30.667 -3 -44zM447.001 435.5c-20.667 -28.333 -32.999 -70.5 -36.999 -126.5h244c-0.666992 53.333 -11.5 94.833 -32.5 124.5s-50.5 44.5 -88.5 44.5c-36.667 0 -65.334 -14.167 -86.001 -42.5zM284.002 80
c22 13.333 43.333 34.333 64 63c-11.333 37.333 -17 79 -17 125c-73.333 -1.33301 -127.333 -11 -162 -29s-52 -46.333 -52 -85c0 -62.667 31.333 -94 94 -94c26.667 0 51 6.66699 73 20z" />
    <glyph glyph-name="ccedilla" unicode="&#xe7;" horiz-adv-x="446" 
d="M329.5 -81c17 -14 25.5029 -33.3291 25.5029 -57.9961c0 -28 -9.83301 -49.833 -29.5 -65.5s-46.834 -23.5 -81.501 -23.5c-37.333 0 -69.333 8 -96 24l14 43c30.667 -12.667 57.334 -19 80.001 -19c15.333 0 27.166 3.5 35.499 10.5s12.5 16.833 12.5 29.5
s-3.83301 22.5 -11.5 29.5s-18.834 10.5 -33.501 10.5c-15.333 0 -29.333 -3 -42 -9l-19 23l32 81c-54 12 -95.833 41.667 -125.5 89s-44.5 108.666 -44.5 183.999c0 55.333 9.16699 104.166 27.5 146.499s44.166 75.166 77.499 98.499s72 35 116 35
c50 0 97.667 -14.667 143 -44l-32 -62c-41.333 22.667 -79 34 -113 34c-43.333 0 -77 -17.833 -101 -53.5s-36 -85.167 -36 -148.5c0 -69.333 12.667 -122 38 -158s62.666 -54 111.999 -54c38.667 0 75.334 10.667 110.001 32l28 -60
c-18 -14.667 -39.5 -25.834 -64.5 -33.501s-51.5 -11.5 -79.5 -11.5h-3l-33 -52c7.33301 2 14.333 3 21 3c31.333 0 55.5 -7 72.5 -21z" />
    <glyph glyph-name="egrave" unicode="&#xe8;" horiz-adv-x="503" 
d="M456 247h-328c2.66699 -60.667 16.834 -106.667 42.501 -138s62.167 -47 109.5 -47c46.667 0 88.667 13.333 126 40l30 -61c-20.667 -16.667 -45 -29.5 -73 -38.5s-57.333 -13.5 -88 -13.5c-71.333 0 -127 24.5 -167 73.5s-60 117.5 -60 205.5s18.5 156.667 55.5 206
s88.5 74 154.5 74c63.333 0 112.666 -22.5 147.999 -67.5s53 -108.167 53 -189.5c0 -16 -1 -30.667 -3 -44zM129 309h251c0 53.333 -11 94.833 -33 124.5s-52.333 44.5 -91 44.5c-76.667 0 -119 -56.333 -127 -169zM137 774v10h88l86 -159v-10h-58z" />
    <glyph glyph-name="eacute" unicode="&#xe9;" horiz-adv-x="503" 
d="M456 247h-328c2.66699 -60.667 16.834 -106.667 42.501 -138s62.167 -47 109.5 -47c46.667 0 88.667 13.333 126 40l30 -61c-20.667 -16.667 -45 -29.5 -73 -38.5s-57.333 -13.5 -88 -13.5c-71.333 0 -127 24.5 -167 73.5s-60 117.5 -60 205.5s18.5 156.667 55.5 206
s88.5 74 154.5 74c63.333 0 112.666 -22.5 147.999 -67.5s53 -108.167 53 -189.5c0 -16 -1 -30.667 -3 -44zM129 309h251c0 53.333 -11 94.833 -33 124.5s-52.333 44.5 -91 44.5c-76.667 0 -119 -56.333 -127 -169zM210 625l93 159h89v-10l-124 -159h-58v10z" />
    <glyph glyph-name="ecircumflex" unicode="&#xea;" horiz-adv-x="503" 
d="M456 247h-328c2.66699 -60.667 16.834 -106.667 42.501 -138s62.167 -47 109.5 -47c46.667 0 88.667 13.333 126 40l30 -61c-20.667 -16.667 -45 -29.5 -73 -38.5s-57.333 -13.5 -88 -13.5c-71.333 0 -127 24.5 -167 73.5s-60 117.5 -60 205.5s18.5 156.667 55.5 206
s88.5 74 154.5 74c63.333 0 112.666 -22.5 147.999 -67.5s53 -108.167 53 -189.5c0 -16 -1 -30.667 -3 -44zM129 309h251c0 53.333 -11 94.833 -33 124.5s-52.333 44.5 -91 44.5c-76.667 0 -119 -56.333 -127 -169zM393 625v-10h-56l-81 112l-80 -112h-53v10l96 159h78z" />
    <glyph glyph-name="edieresis" unicode="&#xeb;" horiz-adv-x="503" 
d="M134 643c-8.66699 9.33301 -13 22.3311 -13 38.998s4.33301 29.834 13 39.501s20.667 14.5 36 14.5c16 0 28.333 -4.66699 37 -14s13 -22.333 13 -39c0 -17.333 -4.33301 -30.666 -13 -39.999s-21 -14 -37 -14c-15.333 0 -27.333 4.66699 -36 14zM309 642.998
c-8.66699 9.33301 -13 22.3311 -13 38.998s4.33301 29.834 13 39.501s20.667 14.5 36 14.5c16 0 28.333 -4.66699 37 -14s13 -22.333 13 -39c0 -17.333 -4.33301 -30.666 -13 -39.999s-21 -14 -37 -14c-15.333 0 -27.333 4.66699 -36 14zM456 246.996h-328
c2.66699 -60.667 16.834 -106.667 42.501 -138s62.167 -47 109.5 -47c46.667 0 88.667 13.333 126 40l30 -61c-20.667 -16.667 -45 -29.5 -73 -38.5s-57.333 -13.5 -88 -13.5c-71.333 0 -127 24.5 -167 73.5s-60 117.5 -60 205.5s18.5 156.667 55.5 206s88.5 74 154.5 74
c63.333 0 112.666 -22.5 147.999 -67.5s53 -108.167 53 -189.5c0 -16 -1 -30.667 -3 -44zM129 308.996h251c0 53.333 -11 94.833 -33 124.5s-52.333 44.5 -91 44.5c-76.667 0 -119 -56.333 -127 -169z" />
    <glyph glyph-name="igrave" unicode="&#xec;" horiz-adv-x="249" 
d="M85 536h79v-536h-79v536zM4 774v10h88l86 -159v-10h-58z" />
    <glyph glyph-name="iacute" unicode="&#xed;" horiz-adv-x="249" 
d="M85 536h79v-536h-79v536zM77 625l93 159h89v-10l-124 -159h-58v10z" />
    <glyph glyph-name="icircumflex" unicode="&#xee;" horiz-adv-x="249" 
d="M85 536h79v-536h-79v536zM260 625v-10h-56l-81 112l-80 -112h-53v10l96 159h78z" />
    <glyph glyph-name="idieresis" unicode="&#xef;" horiz-adv-x="249" 
d="M12 643c-8.66699 9.33301 -13 22.3311 -13 38.998s4.33301 29.834 13 39.501s20.667 14.5 36 14.5c16 0 28.333 -4.66699 37 -14s13 -22.333 13 -39c0 -17.333 -4.33301 -30.666 -13 -39.999s-21 -14 -37 -14c-15.333 0 -27.333 4.66699 -36 14zM165 642.998
c-8.66699 9.33301 -13 22.3311 -13 38.998s4.33301 29.834 13 39.501s20.667 14.5 36 14.5c16 0 28.333 -4.66699 37 -14s13 -22.333 13 -39c0 -17.333 -4.33301 -30.666 -13 -39.999s-21 -14 -37 -14c-15.333 0 -27.333 4.66699 -36 14zM85 535.996h79v-536h-79v536z" />
    <glyph glyph-name="eth" unicode="&#xf0;" horiz-adv-x="519" 
d="M432 515c25.333 -64.667 38.001 -140.666 38.001 -227.999c0 -98 -18.167 -172.333 -54.5 -223s-88.833 -76 -157.5 -76s-121.334 23 -158.001 69s-55 113 -55 201c0 84.667 17.833 150.5 53.5 197.5s85.5 70.5 149.5 70.5c27.333 0 52 -5.83301 74 -17.5
s40 -28.5 54 -50.5c-22 75.333 -61 137 -117 185l-113 -73l-25 44l97 60c-24.667 16.667 -51 30.667 -79 42l-27 10l19 55l28 -11c42 -16.667 80.333 -36.667 115 -60l96 64l26 -45l-81 -50c52.667 -44.667 91.667 -99.334 117 -164.001zM355.501 109.501
c22.333 34.333 33.5 84.5 33.5 150.5c0 62.667 -11.5 111.5 -34.5 146.5s-55.167 52.5 -96.5 52.5c-43.333 0 -76 -17 -98 -51s-33 -84 -33 -150s11 -115.833 33 -149.5s54.667 -50.5 98 -50.5c42.667 0 75.167 17.167 97.5 51.5z" />
    <glyph glyph-name="ntilde" unicode="&#xf1;" horiz-adv-x="543" 
d="M423.5 505c27.667 -28.667 41.499 -68.001 41.499 -118.001v-387h-79v380c0 62 -33.667 93 -101 93c-23.333 0 -44.833 -4.16699 -64.5 -12.5s-39.167 -21.166 -58.5 -38.499v-422h-79v536h71v-59c41.333 47.333 93 71 155 71c48.667 0 86.834 -14.333 114.501 -43z
M296.499 629.499c-12.333 7 -26.166 17.167 -41.499 30.5c-11.333 9.33301 -20.5 16.166 -27.5 20.499s-14.167 6.5 -21.5 6.5c-22 0 -35 -22 -39 -66h-50c0.666992 40.667 9 72.334 25 95.001s38 34 66 34c16.667 0 31.167 -3.5 43.5 -10.5s26.166 -17.167 41.499 -30.5
c11.333 -9.33301 20.5 -16.166 27.5 -20.499s14.167 -6.5 21.5 -6.5c22 0 35 22 39 66h50c-0.666992 -40.667 -9 -72.334 -25 -95.001s-38 -34 -66 -34c-16.667 0 -31.167 3.5 -43.5 10.5z" />
    <glyph glyph-name="ograve" unicode="&#xf2;" horiz-adv-x="519" 
d="M104 59.5c-36 47.667 -54 117.167 -54 208.5s18.167 160.833 54.5 208.5s88.166 71.5 155.499 71.5s119 -23.833 155 -71.5s54 -117.167 54 -208.5s-18.167 -160.833 -54.5 -208.5s-88.166 -71.5 -155.499 -71.5s-119 23.833 -155 71.5zM387 268
c0 69.333 -10.667 121.666 -32 156.999s-53 53 -95 53c-85.333 0 -128 -70 -128 -210c0 -69.333 10.667 -121.666 32 -156.999s53 -53 95 -53c85.333 0 128 70 128 210zM139 774v10h88l86 -159v-10h-58z" />
    <glyph glyph-name="oacute" unicode="&#xf3;" horiz-adv-x="519" 
d="M104 59.5c-36 47.667 -54 117.167 -54 208.5s18.167 160.833 54.5 208.5s88.166 71.5 155.499 71.5s119 -23.833 155 -71.5s54 -117.167 54 -208.5s-18.167 -160.833 -54.5 -208.5s-88.166 -71.5 -155.499 -71.5s-119 23.833 -155 71.5zM387 268
c0 69.333 -10.667 121.666 -32 156.999s-53 53 -95 53c-85.333 0 -128 -70 -128 -210c0 -69.333 10.667 -121.666 32 -156.999s53 -53 95 -53c85.333 0 128 70 128 210zM212 625l93 159h89v-10l-124 -159h-58v10z" />
    <glyph glyph-name="ocircumflex" unicode="&#xf4;" horiz-adv-x="519" 
d="M104 59.5c-36 47.667 -54 117.167 -54 208.5s18.167 160.833 54.5 208.5s88.166 71.5 155.499 71.5s119 -23.833 155 -71.5s54 -117.167 54 -208.5s-18.167 -160.833 -54.5 -208.5s-88.166 -71.5 -155.499 -71.5s-119 23.833 -155 71.5zM387 268
c0 69.333 -10.667 121.666 -32 156.999s-53 53 -95 53c-85.333 0 -128 -70 -128 -210c0 -69.333 10.667 -121.666 32 -156.999s53 -53 95 -53c85.333 0 128 70 128 210zM395 625v-10h-56l-81 112l-80 -112h-53v10l96 159h78z" />
    <glyph glyph-name="otilde" unicode="&#xf5;" horiz-adv-x="519" 
d="M104 59.5c-36 47.667 -54 117.167 -54 208.5s18.167 160.833 54.5 208.5s88.166 71.5 155.499 71.5s119 -23.833 155 -71.5s54 -117.167 54 -208.5s-18.167 -160.833 -54.5 -208.5s-88.166 -71.5 -155.499 -71.5s-119 23.833 -155 71.5zM387 268
c0 69.333 -10.667 121.666 -32 156.999s-53 53 -95 53c-85.333 0 -128 -70 -128 -210c0 -69.333 10.667 -121.666 32 -156.999s53 -53 95 -53c85.333 0 128 70 128 210zM282.5 629.5c-12.333 7 -26.166 17.167 -41.499 30.5c-11.333 9.33301 -20.5 16.166 -27.5 20.499
s-14.167 6.5 -21.5 6.5c-22 0 -35 -22 -39 -66h-50c0.666992 40.667 9 72.334 25 95.001s38 34 66 34c16.667 0 31.167 -3.5 43.5 -10.5s26.166 -17.167 41.499 -30.5c11.333 -9.33301 20.5 -16.166 27.5 -20.499s14.167 -6.5 21.5 -6.5c22 0 35 22 39 66h50
c-0.666992 -40.667 -9 -72.334 -25 -95.001s-38 -34 -66 -34c-16.667 0 -31.167 3.5 -43.5 10.5z" />
    <glyph glyph-name="odieresis" unicode="&#xf6;" horiz-adv-x="519" 
d="M136 643c-8.66699 9.33301 -13 22.3311 -13 38.998s4.33301 29.834 13 39.501s20.667 14.5 36 14.5c16 0 28.333 -4.66699 37 -14s13 -22.333 13 -39c0 -17.333 -4.33301 -30.666 -13 -39.999s-21 -14 -37 -14c-15.333 0 -27.333 4.66699 -36 14zM311 642.998
c-8.66699 9.33301 -13 22.3311 -13 38.998s4.33301 29.834 13 39.501s20.667 14.5 36 14.5c16 0 28.333 -4.66699 37 -14s13 -22.333 13 -39c0 -17.333 -4.33301 -30.666 -13 -39.999s-21 -14 -37 -14c-15.333 0 -27.333 4.66699 -36 14zM104 59.4961
c-36 47.667 -54 117.167 -54 208.5s18.167 160.833 54.5 208.5s88.166 71.5 155.499 71.5s119 -23.833 155 -71.5s54 -117.167 54 -208.5s-18.167 -160.833 -54.5 -208.5s-88.166 -71.5 -155.499 -71.5s-119 23.833 -155 71.5zM387 267.996
c0 69.333 -10.667 121.666 -32 156.999s-53 53 -95 53c-85.333 0 -128 -70 -128 -210c0 -69.333 10.667 -121.666 32 -156.999s53 -53 95 -53c85.333 0 128 70 128 210z" />
    <glyph glyph-name="divide" unicode="&#xf7;" horiz-adv-x="536" 
d="M230.5 510c-10.333 10 -15.5 23.333 -15.5 40s5.16699 30.167 15.5 40.5s23.166 15.5 38.499 15.5s28 -5.16699 38 -15.5s15 -23.833 15 -40.5c0 -17.333 -5 -30.833 -15 -40.5s-22.667 -14.5 -38 -14.5s-28.166 5 -38.499 15zM65 405h407v-73h-407v73zM230.5 146
c-10.333 10 -15.5 23.667 -15.5 41c0 16 5.16699 29.167 15.5 39.5s23.166 15.5 38.499 15.5s28 -5.16699 38 -15.5s15 -23.5 15 -39.5c0 -17.333 -5 -31 -15 -41s-22.667 -15 -38 -15s-28.166 5 -38.499 15z" />
    <glyph glyph-name="oslash" unicode="&#xf8;" horiz-adv-x="519" 
d="M498 536l-66.001 -86.999c24.667 -44.667 37 -105 37 -181c0 -91.333 -18.167 -160.833 -54.5 -208.5s-88.166 -71.5 -155.499 -71.5c-56 0 -101.667 17 -137 51l-35 -49h-66v10l66 86c-24.667 47.333 -37 107.666 -37 180.999c0 92 18.167 161.833 54.5 209.5
s88.166 71.5 155.499 71.5c56.667 0 102.334 -17 137.001 -51l36 49h65v-10zM161.999 426.501c-22 -35.667 -33 -88.833 -33 -159.5c0 -42.667 4 -79 12 -109l211 278c-21.333 29.333 -52 44 -92 44c-43.333 0 -76 -17.833 -98 -53.5zM356.999 109.002c22 36 33 89 33 159
c0 43.333 -4 80 -12 110l-211 -279c22 -29.333 52.667 -44 92 -44c43.333 0 76 18 98 54z" />
    <glyph glyph-name="ugrave" unicode="&#xf9;" horiz-adv-x="535" 
d="M452 536v-536.001h-71v66c-17.333 -25.333 -38.666 -44.666 -63.999 -57.999s-54.333 -20 -87 -20c-48.667 0 -86.5 14 -113.5 42s-40.5 67 -40.5 117v389h79v-380c0 -62 32.333 -93 97 -93c24.667 0 46.667 4.66699 66 14s37.666 24.333 54.999 45v414h79zM144 773.999
v10h88l86 -159v-10h-58z" />
    <glyph glyph-name="uacute" unicode="&#xfa;" horiz-adv-x="535" 
d="M452 536v-536.001h-71v66c-17.333 -25.333 -38.666 -44.666 -63.999 -57.999s-54.333 -20 -87 -20c-48.667 0 -86.5 14 -113.5 42s-40.5 67 -40.5 117v389h79v-380c0 -62 32.333 -93 97 -93c24.667 0 46.667 4.66699 66 14s37.666 24.333 54.999 45v414h79zM217 624.999
l93 159h89v-10l-124 -159h-58v10z" />
    <glyph glyph-name="ucircumflex" unicode="&#xfb;" horiz-adv-x="535" 
d="M452 536v-536.001h-71v66c-17.333 -25.333 -38.666 -44.666 -63.999 -57.999s-54.333 -20 -87 -20c-48.667 0 -86.5 14 -113.5 42s-40.5 67 -40.5 117v389h79v-380c0 -62 32.333 -93 97 -93c24.667 0 46.667 4.66699 66 14s37.666 24.333 54.999 45v414h79zM400 624.999
v-10h-56l-81 112l-80 -112h-53v10l96 159h78z" />
    <glyph glyph-name="udieresis" unicode="&#xfc;" horiz-adv-x="535" 
d="M141 643c-8.66699 9.33301 -13 22.3311 -13 38.998s4.33301 29.834 13 39.501s20.667 14.5 36 14.5c16 0 28.333 -4.66699 37 -14s13 -22.333 13 -39c0 -17.333 -4.33301 -30.666 -13 -39.999s-21 -14 -37 -14c-15.333 0 -27.333 4.66699 -36 14zM316 642.998
c-8.66699 9.33301 -13 22.3311 -13 38.998s4.33301 29.834 13 39.501s20.667 14.5 36 14.5c16 0 28.333 -4.66699 37 -14s13 -22.333 13 -39c0 -17.333 -4.33301 -30.666 -13 -39.999s-21 -14 -37 -14c-15.333 0 -27.333 4.66699 -36 14zM452 535.996v-536.001h-71v66
c-17.333 -25.333 -38.666 -44.666 -63.999 -57.999s-54.333 -20 -87 -20c-48.667 0 -86.5 14 -113.5 42s-40.5 67 -40.5 117v389h79v-380c0 -62 32.333 -93 97 -93c24.667 0 46.667 4.66699 66 14s37.666 24.333 54.999 45v414h79z" />
    <glyph glyph-name="yacute" unicode="&#xfd;" horiz-adv-x="490" 
d="M461 536l-176 -538c-32 -100 -107.333 -172 -226 -216l-27 68c44.667 17.333 81.167 37.5 109.5 60.5s49.833 50.5 64.5 82.5l-176 543h85l132 -445l130 445h84zM198 625l93 159h89v-10l-124 -159h-58v10z" />
    <glyph glyph-name="thorn" unicode="&#xfe;" horiz-adv-x="535" 
d="M436.5 473c33 -50 49.501 -119.333 49.501 -208c0 -87.333 -17.333 -155.333 -52 -204s-83.334 -73 -146.001 -73c-25.333 0 -48.833 5.16699 -70.5 15.5s-40.167 24.833 -55.5 43.5v-254h-79v273v429v275h79v-293c34.667 47.333 80 71 136 71
c59.333 0 105.5 -25 138.5 -75zM373.001 111c20.667 34.667 31.001 85.667 31.001 153c0 68.667 -10.833 120.667 -32.5 156s-53.834 53 -96.501 53c-22.667 0 -43 -5 -61 -15s-35.333 -25.667 -52 -47v-294c16 -18 34.5 -32.167 55.5 -42.5s42.5 -15.5 64.5 -15.5
c40 0 70.333 17.333 91 52z" />
    <glyph glyph-name="ydieresis" unicode="&#xff;" horiz-adv-x="490" 
d="M122 643c-8.66699 9.33301 -13 22.3311 -13 38.998s4.33301 29.834 13 39.501s20.667 14.5 36 14.5c16 0 28.333 -4.66699 37 -14s13 -22.333 13 -39c0 -17.333 -4.33301 -30.666 -13 -39.999s-21 -14 -37 -14c-15.333 0 -27.333 4.66699 -36 14zM297 642.998
c-8.66699 9.33301 -13 22.3311 -13 38.998s4.33301 29.834 13 39.501s20.667 14.5 36 14.5c16 0 28.333 -4.66699 37 -14s13 -22.333 13 -39c0 -17.333 -4.33301 -30.666 -13 -39.999s-21 -14 -37 -14c-15.333 0 -27.333 4.66699 -36 14zM461 535.996l-176 -538
c-32 -100 -107.333 -172 -226 -216l-27 68c44.667 17.333 81.167 37.5 109.5 60.5s49.833 50.5 64.5 82.5l-176 543h85l132 -445l130 445h84z" />
    <glyph glyph-name="Amacron" unicode="&#x100;" horiz-adv-x="633" 
d="M453 811h-274v60h274v-60zM455 193h-279l-59 -193h-87l241 724h91l241 -724h-88zM432 264l-117 378l-117 -378h234z" />
    <glyph glyph-name="amacron" unicode="&#x101;" horiz-adv-x="495" 
d="M370.5 505c32.333 -28.667 48.5 -67.999 48.5 -117.999v-387h-70v69c-34 -52.667 -84.667 -79 -152 -79c-50 0 -88.833 14 -116.5 42s-41.5 67 -41.5 117c0 63.333 24.167 110 72.5 140s124.5 45.333 228.5 46v45c0 31.333 -9.5 55.166 -28.5 71.499
s-47.167 24.5 -84.5 24.5c-41.333 0 -81.333 -9.66699 -120 -29l-20 64c22 11.333 46 20.333 72 27s52 10 78 10c56.667 0 101.167 -14.333 133.5 -43zM340 121.001l-0.000976562 153c-76.667 -0.666992 -133 -10.667 -169 -30s-54 -49.333 -54 -90
c0 -30.667 8.33301 -54 25 -70s41 -24 73 -24c48.667 0 90.334 20.333 125.001 61zM99.999 701.001h274v-60h-274v60z" />
    <glyph glyph-name="Abreve" unicode="&#x102;" horiz-adv-x="633" 
d="M219.5 824c-23.667 26 -36.4961 62.333 -38.4961 109h52c3.33301 -27.333 12.166 -48.166 26.499 -62.499s33.5 -21.5 57.5 -21.5c24.667 0 44.167 7.16699 58.5 21.5s23.166 35.166 26.499 62.499h49c-2 -46.667 -14.833 -83 -38.5 -109s-55.834 -39 -96.501 -39
s-72.834 13 -96.501 39zM455.004 193h-279l-59 -193h-87l241 724h91l241 -724h-88zM432.004 264l-117 378l-117 -378h234z" />
    <glyph glyph-name="abreve" unicode="&#x103;" horiz-adv-x="495" 
d="M370.5 505c32.333 -28.667 48.5 -67.999 48.5 -117.999v-387h-70v69c-34 -52.667 -84.667 -79 -152 -79c-50 0 -88.833 14 -116.5 42s-41.5 67 -41.5 117c0 63.333 24.167 110 72.5 140s124.5 45.333 228.5 46v45c0 31.333 -9.5 55.166 -28.5 71.499
s-47.167 24.5 -84.5 24.5c-41.333 0 -81.333 -9.66699 -120 -29l-20 64c22 11.333 46 20.333 72 27s52 10 78 10c56.667 0 101.167 -14.333 133.5 -43zM340 121.001l-0.000976562 153c-76.667 -0.666992 -133 -10.667 -169 -30s-54 -49.333 -54 -90
c0 -30.667 8.33301 -54 25 -70s41 -24 73 -24c48.667 0 90.334 20.333 125.001 61zM140.499 654.001c-23.667 26 -36.4961 62.333 -38.4961 109h52c3.33301 -27.333 12.166 -48.166 26.499 -62.499s33.5 -21.5 57.5 -21.5c24.667 0 44.167 7.16699 58.5 21.5
s23.166 35.166 26.499 62.499h49c-2 -46.667 -14.833 -83 -38.5 -109s-55.834 -39 -96.501 -39s-72.834 13 -96.501 39z" />
    <glyph glyph-name="Aogonek" unicode="&#x104;" horiz-adv-x="633" 
d="M647 -189c-12.667 -9.33301 -27.501 -16.499 -44.501 -21.499s-34.5 -7.5 -52.5 -7.5c-30.667 0 -54.667 8 -72 24s-26 38 -26 66c0 25.333 6.83301 49.166 20.5 71.499s33.167 41.166 58.5 56.499h-16l-60 193h-279l-59 -193h-87l241 724h91l241 -724
c-54.667 -33.333 -82 -70.666 -82 -111.999c0 -31.333 15.667 -47 47 -47c18.667 0 38.334 5.66699 59.001 17zM431.999 264.001l-117 378l-117 -378h234z" />
    <glyph glyph-name="aogonek" unicode="&#x105;" horiz-adv-x="495" 
d="M463 -189c-12.667 -9.33301 -27.5 -16.5 -44.5 -21.5s-34.5 -7.5 -52.5 -7.5c-30.667 0 -54.667 8 -72 24s-26 38 -26 66c0 26 7.16699 50.333 21.5 73s34.5 41.667 60.5 57v69c-20.667 -28 -43.334 -48.5 -68.001 -61.5s-53 -19.5 -85 -19.5c-50 0 -88.833 14 -116.5 42
s-41.5 67 -41.5 117c0 63.333 24.167 110 72.5 140s124.5 45.333 228.5 46v45c0 31.333 -9.5 55.166 -28.5 71.499s-47.167 24.5 -84.5 24.5c-41.333 0 -81.333 -9.66699 -120 -29l-20 64c22 11.333 46 20.333 72 27s52 10 78 10c56.667 0 101.167 -14.333 133.5 -43
s48.5 -68 48.5 -118v-387c-54.667 -33.333 -82 -70.666 -82 -111.999c0 -31.333 15.667 -47 47 -47c18.667 0 38.334 5.66699 59.001 17zM340 121l-0.000976562 153c-76.667 -0.666992 -133 -10.667 -169 -30s-54 -49.333 -54 -90c0 -30.667 8.33301 -54 25 -70
s41 -24 73 -24c48.667 0 90.334 20.333 125.001 61z" />
    <glyph glyph-name="Cacute" unicode="&#x106;" horiz-adv-x="560" 
d="M269 793l143 133h99v-12l-174 -133h-68v12zM126 83.5c-53.333 63 -80.0029 151.165 -80.0029 264.498c0 78 12.167 146.333 36.5 205s59 103.834 104 135.501s97.5 47.5 157.5 47.5c31.333 0 62.333 -4.33301 93 -13s58.334 -20.667 83.001 -36l-28 -64
c-51.333 26 -101 39 -149 39c-66.667 0 -118.667 -26.833 -156 -80.5s-56 -129.167 -56 -226.5c0 -95.333 18.833 -167.666 56.5 -216.999s93.5 -74 167.5 -74c52 0 99.333 11.667 142 35l29 -63c-21.333 -14.667 -47.666 -26.167 -78.999 -34.5s-64 -12.5 -98 -12.5
c-95.333 0 -169.666 31.5 -222.999 94.5z" />
    <glyph glyph-name="cacute" unicode="&#x107;" horiz-adv-x="446" 
d="M105.5 62.5c-39.667 49 -59.499 117.503 -59.499 205.503c0 55.333 9.16699 104.166 27.5 146.499s44.166 75.166 77.499 98.499s72 35 116 35c50 0 97.667 -14.667 143 -44l-32 -62c-41.333 22.667 -79 34 -113 34c-43.333 0 -77 -17.833 -101 -53.5
s-36 -85.167 -36 -148.5c0 -69.333 12.667 -122 38 -158s62.666 -54 111.999 -54c38.667 0 75.334 10.667 110.001 32l28 -60c-18 -14.667 -39.5 -25.834 -64.5 -33.501s-51.5 -11.5 -79.5 -11.5c-71.333 0 -126.833 24.5 -166.5 73.5zM184.001 625.003l93 159h89v-10
l-124 -159h-58v10z" />
    <glyph glyph-name="Ccircumflex" unicode="&#x108;" horiz-adv-x="560" 
d="M237 781h-59v12l110 133h84l110 -133v-12h-62l-91 94zM526 36c-21.333 -14.667 -47.6689 -26.1689 -79.002 -34.502s-64 -12.5 -98 -12.5c-95.333 0 -169.666 31.5 -222.999 94.5s-80 151.167 -80 264.5c0 78 12.167 146.333 36.5 205s59 103.834 104 135.501
s97.5 47.5 157.5 47.5c31.333 0 62.333 -4.33301 93 -13s58.334 -20.667 83.001 -36l-28 -64c-51.333 26 -101 39 -149 39c-66.667 0 -118.667 -26.833 -156 -80.5s-56 -129.167 -56 -226.5c0 -95.333 18.833 -167.666 56.5 -216.999s93.5 -74 167.5 -74
c52 0 99.333 11.667 142 35z" />
    <glyph glyph-name="ccircumflex" unicode="&#x109;" horiz-adv-x="446" 
d="M105.5 62.5c-39.667 49 -59.499 117.503 -59.499 205.503c0 55.333 9.16699 104.166 27.5 146.499s44.166 75.166 77.499 98.499s72 35 116 35c50 0 97.667 -14.667 143 -44l-32 -62c-41.333 22.667 -79 34 -113 34c-43.333 0 -77 -17.833 -101 -53.5
s-36 -85.167 -36 -148.5c0 -69.333 12.667 -122 38 -158s62.666 -54 111.999 -54c38.667 0 75.334 10.667 110.001 32l28 -60c-18 -14.667 -39.5 -25.834 -64.5 -33.501s-51.5 -11.5 -79.5 -11.5c-71.333 0 -126.833 24.5 -166.5 73.5zM367.001 625.003v-10h-56l-81 112
l-80 -112h-53v10l96 159h78z" />
    <glyph glyph-name="Cdotaccent" unicode="&#x10a;" horiz-adv-x="560" 
d="M291 812.5c-9.33301 9.66699 -14 23.167 -14 40.5s4.66699 31 14 41s22.333 15 39 15s29.667 -4.83301 39 -14.5s14 -23.167 14 -40.5s-4.66699 -31 -14 -41s-22.333 -15 -39 -15s-29.667 4.83301 -39 14.5zM126 83.5c-53.333 63 -80.0029 151.165 -80.0029 264.498
c0 78 12.167 146.333 36.5 205s59 103.834 104 135.501s97.5 47.5 157.5 47.5c31.333 0 62.333 -4.33301 93 -13s58.334 -20.667 83.001 -36l-28 -64c-51.333 26 -101 39 -149 39c-66.667 0 -118.667 -26.833 -156 -80.5s-56 -129.167 -56 -226.5
c0 -95.333 18.833 -167.666 56.5 -216.999s93.5 -74 167.5 -74c52 0 99.333 11.667 142 35l29 -63c-21.333 -14.667 -47.666 -26.167 -78.999 -34.5s-64 -12.5 -98 -12.5c-95.333 0 -169.666 31.5 -222.999 94.5z" />
    <glyph glyph-name="cdotaccent" unicode="&#x10b;" horiz-adv-x="446" 
d="M105.5 62.5c-39.667 49 -59.499 117.503 -59.499 205.503c0 55.333 9.16699 104.166 27.5 146.499s44.166 75.166 77.499 98.499s72 35 116 35c50 0 97.667 -14.667 143 -44l-32 -62c-41.333 22.667 -79 34 -113 34c-43.333 0 -77 -17.833 -101 -53.5
s-36 -85.167 -36 -148.5c0 -69.333 12.667 -122 38 -158s62.666 -54 111.999 -54c38.667 0 75.334 10.667 110.001 32l28 -60c-18 -14.667 -39.5 -25.834 -64.5 -33.501s-51.5 -11.5 -79.5 -11.5c-71.333 0 -126.833 24.5 -166.5 73.5zM193.001 644.503
c-9.33301 9.66699 -14 23.167 -14 40.5s4.66699 31 14 41s22.333 15 39 15s29.667 -4.83301 39 -14.5s14 -23.167 14 -40.5s-4.66699 -31 -14 -41s-22.333 -15 -39 -15s-29.667 4.83301 -39 14.5z" />
    <glyph glyph-name="Ccaron" unicode="&#x10c;" horiz-adv-x="560" 
d="M288 781l-110 133v12h62l92 -94l91 94h59v-12l-110 -133h-84zM526 36c-21.333 -14.667 -47.6689 -26.1689 -79.002 -34.502s-64 -12.5 -98 -12.5c-95.333 0 -169.666 31.5 -222.999 94.5s-80 151.167 -80 264.5c0 78 12.167 146.333 36.5 205s59 103.834 104 135.501
s97.5 47.5 157.5 47.5c31.333 0 62.333 -4.33301 93 -13s58.334 -20.667 83.001 -36l-28 -64c-51.333 26 -101 39 -149 39c-66.667 0 -118.667 -26.833 -156 -80.5s-56 -129.167 -56 -226.5c0 -95.333 18.833 -167.666 56.5 -216.999s93.5 -74 167.5 -74
c52 0 99.333 11.667 142 35z" />
    <glyph glyph-name="ccaron" unicode="&#x10d;" horiz-adv-x="446" 
d="M105.5 62.5c-39.667 49 -59.499 117.503 -59.499 205.503c0 55.333 9.16699 104.166 27.5 146.499s44.166 75.166 77.499 98.499s72 35 116 35c50 0 97.667 -14.667 143 -44l-32 -62c-41.333 22.667 -79 34 -113 34c-43.333 0 -77 -17.833 -101 -53.5
s-36 -85.167 -36 -148.5c0 -69.333 12.667 -122 38 -158s62.666 -54 111.999 -54c38.667 0 75.334 10.667 110.001 32l28 -60c-18 -14.667 -39.5 -25.834 -64.5 -33.501s-51.5 -11.5 -79.5 -11.5c-71.333 0 -126.833 24.5 -166.5 73.5zM367.001 784.003v-10l-96 -159h-78
l-96 159v10h56l80 -112l81 112h53z" />
    <glyph glyph-name="Dcaron" unicode="&#x10e;" horiz-adv-x="646" 
d="M274 781l-110 133v12h62l92 -94l91 94h59v-12l-110 -133h-84zM509 632c54 -61.333 80.999 -151.333 80.999 -270s-27.167 -208.667 -81.5 -270s-133.166 -92 -236.499 -92h-185v724h189c101.333 0 179 -30.667 233 -92zM446.999 145.5c38.667 49 58 121.167 58 216.5
s-19.667 167.5 -59 216.5s-97.333 73.5 -174 73.5h-104v-580h107c76 0 133.333 24.5 172 73.5z" />
    <glyph glyph-name="dcaron" unicode="&#x10f;" horiz-adv-x="535" 
d="M373 770h78.998v-770h-70v70c-35.333 -54.667 -83.666 -82 -144.999 -82c-58.667 0 -104.5 24.833 -137.5 74.5s-49.5 119.167 -49.5 208.5c0 87.333 17.333 155.333 52 204s83.334 73 146.001 73c24.667 0 48 -5.16699 70 -15.5s40.333 -24.833 55 -43.5v281z
M600.998 770v-10l-29 -203h-47v213h76zM320.998 78c18 10 35.333 25.667 52 47v295c-16 18 -34.5 32 -55.5 42s-42.5 15 -64.5 15c-40 0 -70.167 -17.333 -90.5 -52s-30.5 -85.667 -30.5 -153c0 -139.333 42.667 -209 128 -209c22.667 0 43 5 61 15z" />
    <glyph glyph-name="Dcroat" unicode="&#x110;" horiz-adv-x="646" 
d="M509 632c54 -61.333 80.999 -151.333 80.999 -270s-27.167 -208.667 -81.5 -270s-133.166 -92 -236.499 -92h-185v333h-62v68h62v323h189c101.333 0 179 -30.667 233 -92zM446.999 145.5c38.667 49 58 121.167 58 216.5s-19.667 167.5 -59 216.5s-97.333 73.5 -174 73.5
h-104v-251h176v-68h-176v-261h107c76 0 133.333 24.5 172 73.5z" />
    <glyph glyph-name="dcroat" unicode="&#x111;" horiz-adv-x="537" 
d="M517 622l-62.999 0.000976562v-622h-71v68c-35.333 -53.333 -83.333 -80 -144 -80c-59.333 0 -105.666 24.167 -138.999 72.5s-50 115.5 -50 201.5c0 84 17.667 149.5 53 196.5s84.333 70.5 147 70.5c25.333 0 48.666 -4.83301 69.999 -14.5
s39.666 -23.834 54.999 -42.501v150h-210v54h210v94h79v-94h63v-54zM375.001 124.001v277.001c-16 18 -34.5 32.167 -55.5 42.5s-42.5 15.5 -64.5 15.5c-40.667 0 -71.5 -16.5 -92.5 -49.5s-31.5 -81.833 -31.5 -146.5c0 -66.667 11 -116.834 33 -150.501
s54.667 -50.5 98 -50.5c42 0 79.667 20.667 113 62z" />
    <glyph glyph-name="Emacron" unicode="&#x112;" horiz-adv-x="537" 
d="M430 811h-274v60h274v-60zM499 72v-72h-412v724h399v-72h-318v-245h237v-73h-237v-262h331z" />
    <glyph glyph-name="emacron" unicode="&#x113;" horiz-adv-x="503" 
d="M456 247h-328c2.66699 -60.667 16.834 -106.667 42.501 -138s62.167 -47 109.5 -47c46.667 0 88.667 13.333 126 40l30 -61c-20.667 -16.667 -45 -29.5 -73 -38.5s-57.333 -13.5 -88 -13.5c-71.333 0 -127 24.5 -167 73.5s-60 117.5 -60 205.5s18.5 156.667 55.5 206
s88.5 74 154.5 74c63.333 0 112.666 -22.5 147.999 -67.5s53 -108.167 53 -189.5c0 -16 -1 -30.667 -3 -44zM129 309h251c0 53.333 -11 94.833 -33 124.5s-52.333 44.5 -91 44.5c-76.667 0 -119 -56.333 -127 -169zM121 701h274v-60h-274v60z" />
    <glyph glyph-name="Ebreve" unicode="&#x114;" horiz-adv-x="537" 
d="M196.5 824c-23.667 26 -36.4961 62.333 -38.4961 109h52c3.33301 -27.333 12.166 -48.166 26.499 -62.499s33.5 -21.5 57.5 -21.5c24.667 0 44.167 7.16699 58.5 21.5s23.166 35.166 26.499 62.499h49c-2 -46.667 -14.833 -83 -38.5 -109s-55.834 -39 -96.501 -39
s-72.834 13 -96.501 39zM499.004 72v-72h-412v724h399v-72h-318v-245h237v-73h-237v-262h331z" />
    <glyph glyph-name="ebreve" unicode="&#x115;" horiz-adv-x="503" 
d="M456 247h-328c2.66699 -60.667 16.834 -106.667 42.501 -138s62.167 -47 109.5 -47c46.667 0 88.667 13.333 126 40l30 -61c-20.667 -16.667 -45 -29.5 -73 -38.5s-57.333 -13.5 -88 -13.5c-71.333 0 -127 24.5 -167 73.5s-60 117.5 -60 205.5s18.5 156.667 55.5 206
s88.5 74 154.5 74c63.333 0 112.666 -22.5 147.999 -67.5s53 -108.167 53 -189.5c0 -16 -1 -30.667 -3 -44zM129 309h251c0 53.333 -11 94.833 -33 124.5s-52.333 44.5 -91 44.5c-76.667 0 -119 -56.333 -127 -169zM161.5 654c-23.667 26 -36.4961 62.333 -38.4961 109h52
c3.33301 -27.333 12.166 -48.166 26.499 -62.499s33.5 -21.5 57.5 -21.5c24.667 0 44.167 7.16699 58.5 21.5s23.166 35.166 26.499 62.499h49c-2 -46.667 -14.833 -83 -38.5 -109s-55.834 -39 -96.501 -39s-72.834 13 -96.501 39z" />
    <glyph glyph-name="Edotaccent" unicode="&#x116;" horiz-adv-x="537" 
d="M254 812.5c-9.33301 9.66699 -14 23.167 -14 40.5s4.66699 31 14 41s22.333 15 39 15s29.667 -4.83301 39 -14.5s14 -23.167 14 -40.5s-4.66699 -31 -14 -41s-22.333 -15 -39 -15s-29.667 4.83301 -39 14.5zM499 72v-72h-412v724h399v-72h-318v-245h237v-73h-237v-262
h331z" />
    <glyph glyph-name="edotaccent" unicode="&#x117;" horiz-adv-x="503" 
d="M456 247h-328c2.66699 -60.667 16.834 -106.667 42.501 -138s62.167 -47 109.5 -47c46.667 0 88.667 13.333 126 40l30 -61c-20.667 -16.667 -45 -29.5 -73 -38.5s-57.333 -13.5 -88 -13.5c-71.333 0 -127 24.5 -167 73.5s-60 117.5 -60 205.5s18.5 156.667 55.5 206
s88.5 74 154.5 74c63.333 0 112.666 -22.5 147.999 -67.5s53 -108.167 53 -189.5c0 -16 -1 -30.667 -3 -44zM129 309h251c0 53.333 -11 94.833 -33 124.5s-52.333 44.5 -91 44.5c-76.667 0 -119 -56.333 -127 -169zM219 644.5c-9.33301 9.66699 -14 23.167 -14 40.5
s4.66699 31 14 41s22.333 15 39 15s29.667 -4.83301 39 -14.5s14 -23.167 14 -40.5s-4.66699 -31 -14 -41s-22.333 -15 -39 -15s-29.667 4.83301 -39 14.5z" />
    <glyph glyph-name="Eogonek" unicode="&#x118;" horiz-adv-x="537" 
d="M543 -189c-12.667 -9.33301 -27.501 -16.499 -44.501 -21.499s-34.5 -7.5 -52.5 -7.5c-30.667 0 -54.667 8 -72 24s-26 38 -26 66c0 25.333 6.83301 49.166 20.5 71.499s33.167 41.166 58.5 56.499h-340v724h399v-72h-318v-245h237v-73h-237v-262h331v-72
c-54.667 -33.333 -82 -70.666 -82 -111.999c0 -31.333 15.667 -47 47 -47c18.667 0 38.334 5.66699 59.001 17z" />
    <glyph glyph-name="eogonek" unicode="&#x119;" horiz-adv-x="503" 
d="M456 247h-327.998c2.66699 -60.667 16.834 -106.667 42.501 -138s62.167 -47 109.5 -47c46.667 0 88.667 13.333 126 40l30 -61c-10.667 -8 -17.834 -13 -21.501 -15l-12.5 -7c-63.333 -39.333 -95 -83 -95 -131c0 -31.333 15.333 -47 46 -47
c18.667 0 38.667 5.66699 60 17l20 -47c-12.667 -9.33301 -27.5 -16.5 -44.5 -21.5s-34.5 -7.5 -52.5 -7.5c-30.667 0 -54.667 8 -72 24s-26 38 -26 66c0 44.667 20 84 60 118c-4.66699 -0.666992 -12.334 -1 -23.001 -1c-71.333 0 -127 24.5 -167 73.5s-60 117.5 -60 205.5
s18.5 156.667 55.5 206s88.5 74 154.5 74c63.333 0 112.666 -22.5 147.999 -67.5s53 -108.167 53 -189.5c0 -16 -1 -30.667 -3 -44zM129.002 309h251c0 53.333 -11 94.833 -33 124.5s-52.333 44.5 -91 44.5c-76.667 0 -119 -56.333 -127 -169z" />
    <glyph glyph-name="Ecaron" unicode="&#x11a;" horiz-adv-x="537" 
d="M251 781l-110 133v12h62l92 -94l91 94h59v-12l-110 -133h-84zM499 72v-72h-412v724h399v-72h-318v-245h237v-73h-237v-262h331z" />
    <glyph glyph-name="ecaron" unicode="&#x11b;" horiz-adv-x="503" 
d="M456 247h-328c2.66699 -60.667 16.834 -106.667 42.501 -138s62.167 -47 109.5 -47c46.667 0 88.667 13.333 126 40l30 -61c-20.667 -16.667 -45 -29.5 -73 -38.5s-57.333 -13.5 -88 -13.5c-71.333 0 -127 24.5 -167 73.5s-60 117.5 -60 205.5s18.5 156.667 55.5 206
s88.5 74 154.5 74c63.333 0 112.666 -22.5 147.999 -67.5s53 -108.167 53 -189.5c0 -16 -1 -30.667 -3 -44zM129 309h251c0 53.333 -11 94.833 -33 124.5s-52.333 44.5 -91 44.5c-76.667 0 -119 -56.333 -127 -169zM393 784v-10l-96 -159h-78l-96 159v10h56l80 -112l81 112
h53z" />
    <glyph glyph-name="Gcircumflex" unicode="&#x11c;" horiz-adv-x="624" 
d="M244 781h-59v12l110 133h84l110 -133v-12h-62l-91 94zM557 382v-344c-24.667 -16 -54.167 -28.333 -88.5 -37s-69.5 -13 -105.5 -13c-64 0 -119 14.833 -165 44.5s-81.167 72.5 -105.5 128.5s-36.5 123 -36.5 201s12.167 145 36.5 201s59.5 98.833 105.5 128.5
s101 44.5 165 44.5c34.667 0 67.667 -4.16699 99 -12.5s58 -19.833 80 -34.5l-25 -66c-51.333 26.667 -103.333 40 -156 40c-72.667 0 -127.5 -25.333 -164.5 -76s-55.5 -125.667 -55.5 -225s18.667 -174.5 56 -225.5s92.666 -76.5 165.999 -76.5
c38.667 0 76.334 6 113.001 18v233h-124v71h205z" />
    <glyph glyph-name="gcircumflex" unicode="&#x11d;" horiz-adv-x="538" 
d="M455 536v-545c0 -66 -19 -117.5 -57 -154.5s-90.667 -55.5 -158 -55.5c-26.667 0 -52.667 2.83301 -78 8.5s-46.666 13.5 -63.999 23.5l24 67c37.333 -18.667 76 -28 116 -28c45.333 0 79.666 11.833 102.999 35.5s35 58.167 35 103.5v98c-34 -46.667 -80 -70 -138 -70
c-59.333 0 -105.5 23.5 -138.5 70.5s-49.5 112.5 -49.5 196.5c0 82.667 17.5 147 52.5 193s83.833 69 146.5 69c27.333 0 52.833 -6 76.5 -18s43.167 -29 58.5 -51v57h71zM376 154l-0.000976562 264c-16 18.667 -34.667 33.167 -56 43.5s-43.333 15.5 -66 15.5
c-40 0 -70.333 -16 -91 -48s-31 -79.333 -31 -142c0 -64 10.833 -112.333 32.5 -145s53.5 -49 95.5 -49c44.667 0 83.334 20.333 116.001 61zM399.999 625v-10h-56l-81 112l-80 -112h-53v10l96 159h78z" />
    <glyph glyph-name="Gbreve" unicode="&#x11e;" horiz-adv-x="624" 
d="M240.5 824c-23.667 26 -36.4961 62.333 -38.4961 109h52c3.33301 -27.333 12.166 -48.166 26.499 -62.499s33.5 -21.5 57.5 -21.5c24.667 0 44.167 7.16699 58.5 21.5s23.166 35.166 26.499 62.499h49c-2 -46.667 -14.833 -83 -38.5 -109s-55.834 -39 -96.501 -39
s-72.834 13 -96.501 39zM557.004 382v-344c-24.667 -16 -54.167 -28.333 -88.5 -37s-69.5 -13 -105.5 -13c-64 0 -119 14.833 -165 44.5s-81.167 72.5 -105.5 128.5s-36.5 123 -36.5 201s12.167 145 36.5 201s59.5 98.833 105.5 128.5s101 44.5 165 44.5
c34.667 0 67.667 -4.16699 99 -12.5s58 -19.833 80 -34.5l-25 -66c-51.333 26.667 -103.333 40 -156 40c-72.667 0 -127.5 -25.333 -164.5 -76s-55.5 -125.667 -55.5 -225s18.667 -174.5 56 -225.5s92.666 -76.5 165.999 -76.5c38.667 0 76.334 6 113.001 18v233h-124v71
h205z" />
    <glyph glyph-name="gbreve" unicode="&#x11f;" horiz-adv-x="538" 
d="M455 536v-545c0 -66 -19 -117.5 -57 -154.5s-90.667 -55.5 -158 -55.5c-26.667 0 -52.667 2.83301 -78 8.5s-46.666 13.5 -63.999 23.5l24 67c37.333 -18.667 76 -28 116 -28c45.333 0 79.666 11.833 102.999 35.5s35 58.167 35 103.5v98c-34 -46.667 -80 -70 -138 -70
c-59.333 0 -105.5 23.5 -138.5 70.5s-49.5 112.5 -49.5 196.5c0 82.667 17.5 147 52.5 193s83.833 69 146.5 69c27.333 0 52.833 -6 76.5 -18s43.167 -29 58.5 -51v57h71zM376 154l-0.000976562 264c-16 18.667 -34.667 33.167 -56 43.5s-43.333 15.5 -66 15.5
c-40 0 -70.333 -16 -91 -48s-31 -79.333 -31 -142c0 -64 10.833 -112.333 32.5 -145s53.5 -49 95.5 -49c44.667 0 83.334 20.333 116.001 61zM168.499 654c-23.667 26 -36.4961 62.333 -38.4961 109h52c3.33301 -27.333 12.166 -48.166 26.499 -62.499
s33.5 -21.5 57.5 -21.5c24.667 0 44.167 7.16699 58.5 21.5s23.166 35.166 26.499 62.499h49c-2 -46.667 -14.833 -83 -38.5 -109s-55.834 -39 -96.501 -39s-72.834 13 -96.501 39z" />
    <glyph glyph-name="Gdotaccent" unicode="&#x120;" horiz-adv-x="624" 
d="M298 812.5c-9.33301 9.66699 -14 23.167 -14 40.5s4.66699 31 14 41s22.333 15 39 15s29.667 -4.83301 39 -14.5s14 -23.167 14 -40.5s-4.66699 -31 -14 -41s-22.333 -15 -39 -15s-29.667 4.83301 -39 14.5zM557 382v-344c-24.667 -16 -54.167 -28.333 -88.5 -37
s-69.5 -13 -105.5 -13c-64 0 -119 14.833 -165 44.5s-81.167 72.5 -105.5 128.5s-36.5 123 -36.5 201s12.167 145 36.5 201s59.5 98.833 105.5 128.5s101 44.5 165 44.5c34.667 0 67.667 -4.16699 99 -12.5s58 -19.833 80 -34.5l-25 -66c-51.333 26.667 -103.333 40 -156 40
c-72.667 0 -127.5 -25.333 -164.5 -76s-55.5 -125.667 -55.5 -225s18.667 -174.5 56 -225.5s92.666 -76.5 165.999 -76.5c38.667 0 76.334 6 113.001 18v233h-124v71h205z" />
    <glyph glyph-name="gdotaccent" unicode="&#x121;" horiz-adv-x="538" 
d="M455 536v-545c0 -66 -19 -117.5 -57 -154.5s-90.667 -55.5 -158 -55.5c-26.667 0 -52.667 2.83301 -78 8.5s-46.666 13.5 -63.999 23.5l24 67c37.333 -18.667 76 -28 116 -28c45.333 0 79.666 11.833 102.999 35.5s35 58.167 35 103.5v98c-34 -46.667 -80 -70 -138 -70
c-59.333 0 -105.5 23.5 -138.5 70.5s-49.5 112.5 -49.5 196.5c0 82.667 17.5 147 52.5 193s83.833 69 146.5 69c27.333 0 52.833 -6 76.5 -18s43.167 -29 58.5 -51v57h71zM376 154l-0.000976562 264c-16 18.667 -34.667 33.167 -56 43.5s-43.333 15.5 -66 15.5
c-40 0 -70.333 -16 -91 -48s-31 -79.333 -31 -142c0 -64 10.833 -112.333 32.5 -145s53.5 -49 95.5 -49c44.667 0 83.334 20.333 116.001 61zM225.999 644.5c-9.33301 9.66699 -14 23.167 -14 40.5s4.66699 31 14 41s22.333 15 39 15s29.667 -4.83301 39 -14.5
s14 -23.167 14 -40.5s-4.66699 -31 -14 -41s-22.333 -15 -39 -15s-29.667 4.83301 -39 14.5z" />
    <glyph glyph-name="Gcommaaccent" unicode="&#x122;" horiz-adv-x="624" 
d="M557 382v-344c-24.667 -16 -54.167 -28.333 -88.5 -37s-69.5 -13 -105.5 -13c-64 0 -119 14.833 -165 44.5s-81.167 72.5 -105.5 128.5s-36.5 123 -36.5 201s12.167 145 36.5 201s59.5 98.833 105.5 128.5s101 44.5 165 44.5c34.667 0 67.667 -4.16699 99 -12.5
s58 -19.833 80 -34.5l-25 -66c-51.333 26.667 -103.333 40 -156 40c-72.667 0 -127.5 -25.333 -164.5 -76s-55.5 -125.667 -55.5 -225s18.667 -174.5 56 -225.5s92.666 -76.5 165.999 -76.5c38.667 0 76.334 6 113.001 18v233h-124v71h205zM257 -238
c16.667 18 28.167 35.833 34.5 53.5s9.5 40.5 9.5 68.5c0 14 -1 25.667 -3 35h77c1.33301 -12 2 -23.333 2 -34c0 -30.667 -7 -58.167 -21 -82.5s-37 -48.833 -69 -73.5z" />
    <glyph glyph-name="gcommaaccent" unicode="&#x123;" horiz-adv-x="538" 
d="M455 536v-545c0 -66 -19 -117.5 -57 -154.5s-90.667 -55.5 -158 -55.5c-26.667 0 -52.667 2.83301 -78 8.5s-46.666 13.5 -63.999 23.5l24 67c37.333 -18.667 76 -28 116 -28c45.333 0 79.666 11.833 102.999 35.5s35 58.167 35 103.5v98c-34 -46.667 -80 -70 -138 -70
c-59.333 0 -105.5 23.5 -138.5 70.5s-49.5 112.5 -49.5 196.5c0 82.667 17.5 147 52.5 193s83.833 69 146.5 69c27.333 0 52.833 -6 76.5 -18s43.167 -29 58.5 -51v57h71zM376 154l-0.000976562 264c-16 18.667 -34.667 33.167 -56 43.5s-43.333 15.5 -66 15.5
c-40 0 -70.333 -16 -91 -48s-31 -79.333 -31 -142c0 -64 10.833 -112.333 32.5 -145s53.5 -49 95.5 -49c44.667 0 83.334 20.333 116.001 61zM342.999 773c-16.667 -18 -28.167 -36 -34.5 -54s-9.5 -40.667 -9.5 -68c0 -14 1 -26 3 -36h-77c-1.33301 13.333 -2 25 -2 35
c0 30.667 7 58 21 82s37 48.667 69 74z" />
    <glyph glyph-name="Hcircumflex" unicode="&#x124;" horiz-adv-x="657" 
d="M235 781h-59v12l110 133h84l110 -133v-12h-62l-91 94zM569 724v-724h-81v332h-320v-332h-81v724h81v-320h320v320h81z" />
    <glyph glyph-name="hcircumflex" unicode="&#x125;" horiz-adv-x="545" 
d="M122 921l-92 -94h-59v12l110 133h84l110 -133v-12h-62zM425.5 505c27.667 -28.667 41.5 -68.001 41.5 -118.001v-387h-79v380c0 62 -33.667 93 -101 93c-24 0 -46 -4.16699 -66 -12.5s-39.667 -21.166 -59 -38.499v-422h-79v770h79v-284c40 41.333 89.333 62 148 62
c49.333 0 87.833 -14.333 115.5 -43z" />
    <glyph glyph-name="Hbar" unicode="&#x126;" horiz-adv-x="657" 
d="M633 531h-64v-531h-81v332h-320v-332h-81v531h-63v64h63v129h81v-129h320v129h81v-129h64v-64zM488 531h-320v-127h320v127z" />
    <glyph glyph-name="hbar" unicode="&#x127;" horiz-adv-x="544" 
d="M424 487.5c28 -28.333 42.002 -67.5 42.002 -117.5v-370h-79v362c0 30.667 -8.66699 54 -26 70s-43 24 -77 24c-48.667 0 -90.334 -17 -125.001 -51v-405h-79v621h-63v56h63v93h79v-93h211v-56h-211v-152c39.333 40.667 88.666 61 147.999 61c50 0 89 -14.167 117 -42.5z
" />
    <glyph glyph-name="Itilde" unicode="&#x128;" horiz-adv-x="260" 
d="M146 799.5c-10 7 -21 17.167 -33 30.5c-7.33301 9.33301 -14 16.333 -20 21s-12.667 7 -20 7c-20 0 -31.667 -22.333 -35 -67h-49c0 40.667 7.5 72.334 22.5 95.001s36.167 34 63.5 34c16 0 29 -3.5 39 -10.5s21 -17.167 33 -30.5c7.33301 -9.33301 14 -16.333 20 -21
s12.667 -7 20 -7c20 0 31.667 22.333 35 67h49c0 -40.667 -7.5 -72.334 -22.5 -95.001s-36.167 -34 -63.5 -34c-16 0 -29 3.5 -39 10.5zM89 724h81v-724h-81v724z" />
    <glyph glyph-name="itilde" unicode="&#x129;" horiz-adv-x="249" 
d="M141 629.5c-10 7 -21 17.167 -33 30.5c-7.33301 9.33301 -14 16.333 -20 21s-12.667 7 -20 7c-20 0 -31.667 -22.333 -35 -67h-49c0 40.667 7.5 72.334 22.5 95.001s36.167 34 63.5 34c16 0 29 -3.5 39 -10.5s21 -17.167 33 -30.5c7.33301 -9.33301 14 -16.333 20 -21
s12.667 -7 20 -7c20 0 31.667 22.333 35 67h49c0 -40.667 -7.5 -72.334 -22.5 -95.001s-36.167 -34 -63.5 -34c-16 0 -29 3.5 -39 10.5zM85 536h79v-536h-79v536z" />
    <glyph glyph-name="Imacron" unicode="&#x12a;" horiz-adv-x="260" 
d="M-7 871h274v-60h-274v60zM89 724h81v-724h-81v724z" />
    <glyph glyph-name="imacron" unicode="&#x12b;" horiz-adv-x="249" 
d="M17 701h216v-60h-216v60zM85 536h79v-536h-79v536z" />
    <glyph glyph-name="Ibreve" unicode="&#x12c;" horiz-adv-x="260" 
d="M33.5 824c-23.667 26 -36.4961 62.333 -38.4961 109h52c3.33301 -27.333 12.166 -48.166 26.499 -62.499s33.5 -21.5 57.5 -21.5c24.667 0 44.167 7.16699 58.5 21.5s23.166 35.166 26.499 62.499h49c-2 -46.667 -14.833 -83 -38.5 -109s-55.834 -39 -96.501 -39
s-72.834 13 -96.501 39zM89.0039 724h81v-724h-81v724z" />
    <glyph glyph-name="ibreve" unicode="&#x12d;" horiz-adv-x="249" 
d="M85 536h79v-536h-79v536zM28.5 654c-23.667 26 -36.4961 62.333 -38.4961 109h52c3.33301 -27.333 12.166 -48.166 26.499 -62.499s33.5 -21.5 57.5 -21.5c24.667 0 44.167 7.16699 58.5 21.5s23.166 35.166 26.499 62.499h49c-2 -46.667 -14.833 -83 -38.5 -109
s-55.834 -39 -96.501 -39s-72.834 13 -96.501 39z" />
    <glyph glyph-name="Iogonek" unicode="&#x12e;" horiz-adv-x="260" 
d="M230 -189c-12 -9.33301 -26.5 -16.498 -43.5 -21.498s-34.5 -7.5 -52.5 -7.5c-30.667 0 -54.667 8 -72 24s-26 38 -26 66c0 23.333 5.83301 46.166 17.5 68.499s28.167 42.166 49.5 59.499h-14v724h81v-724c-43.333 -38 -65 -75.333 -65 -112
c0 -31.333 15.333 -47 46 -47c18.667 0 38.667 5.66699 60 17z" />
    <glyph glyph-name="iogonek" unicode="&#x12f;" horiz-adv-x="249" 
d="M86 644.5c-9.33301 9.66699 -14 23.167 -14 40.5s4.66699 31 14 41s22.333 15 39 15s29.667 -4.83301 39 -14.5s14 -23.167 14 -40.5s-4.66699 -31 -14 -41s-22.333 -15 -39 -15s-29.667 4.83301 -39 14.5zM224 -189c-12.667 -9.33301 -27.334 -16.502 -44.001 -21.502
s-34 -7.5 -52 -7.5c-31.333 0 -55.666 8 -72.999 24s-26 38 -26 66c0 22.667 5.83301 45.334 17.5 68.001s28.167 42.667 49.5 60h-11v536h79v-536c-43.333 -37.333 -65 -74.666 -65 -111.999c0 -31.333 15.333 -47 46 -47c18.667 0 38.667 5.66699 60 17z" />
    <glyph glyph-name="Idotaccent" unicode="&#x130;" horiz-adv-x="260" 
d="M91 812.5c-9.33301 9.66699 -14 23.167 -14 40.5s4.66699 31 14 41s22.333 15 39 15s29.667 -4.83301 39 -14.5s14 -23.167 14 -40.5s-4.66699 -31 -14 -41s-22.333 -15 -39 -15s-29.667 4.83301 -39 14.5zM89 724h81v-724h-81v724z" />
    <glyph glyph-name="dotlessi" unicode="&#x131;" horiz-adv-x="249" 
d="M85 536h79v-536h-79v536z" />
    <glyph glyph-name="IJ" unicode="&#x132;" horiz-adv-x="607" 
d="M87 724h81v-724h-81v724zM297 -4c-22 5.33301 -41.666 13.002 -58.999 23.002l24 68c38 -17.333 71.667 -26 101 -26c30.667 0 54 10.167 70 30.5s24 50.166 24 89.499v543h81v-544c0 -60.667 -15.333 -107.834 -46 -141.501s-73.334 -50.5 -128.001 -50.5
c-22.667 0 -45 2.66699 -67 8z" />
    <glyph glyph-name="ij" unicode="&#x133;" horiz-adv-x="498" 
d="M85 536h79v-536h-79v536zM86 644.5c-9.33301 9.66699 -14 23.167 -14 40.5s4.66699 31 14 41s22.333 15 39 15s29.667 -4.83301 39 -14.5s14 -23.167 14 -40.5s-4.66699 -31 -14 -41s-22.333 -15 -39 -15s-29.667 4.83301 -39 14.5zM206 -154
c33.333 12 59.166 25.499 77.499 40.499s31.333 33.5 39 55.5s11.5 51 11.5 87v507h79v-508c0 -47.333 -5.5 -85.833 -16.5 -115.5s-29.167 -54.667 -54.5 -75s-61.666 -39.166 -108.999 -56.499zM335 644.499c-9.33301 9.66699 -14 23.167 -14 40.5s4.66699 31 14 41
s22.333 15 39 15s29.667 -4.83301 39 -14.5s14 -23.167 14 -40.5s-4.66699 -31 -14 -41s-22.333 -15 -39 -15s-29.667 4.83301 -39 14.5z" />
    <glyph glyph-name="Jcircumflex" unicode="&#x134;" horiz-adv-x="423" 
d="M452 793v-12h-62l-91 94l-92 -94h-59v12l110 133h84zM260 724h80.999v-552c0 -58 -16.833 -103.167 -50.5 -135.5s-80.5 -48.5 -140.5 -48.5c-29.333 0 -56.5 4 -81.5 12s-46.167 19.333 -63.5 34l28 64c38 -24.667 76.667 -37 116 -37c36.667 0 64.334 9.5 83.001 28.5
s28 46.833 28 83.5v551z" />
    <glyph glyph-name="jcircumflex" unicode="&#x135;" horiz-adv-x="249" 
d="M-43 -154c33.333 12 59.166 25.499 77.499 40.499s31.333 33.5 39 55.5s11.5 51 11.5 87v507h79v-508c0 -47.333 -5.5 -85.833 -16.5 -115.5s-29.167 -54.667 -54.5 -75s-61.666 -39.166 -108.999 -56.499zM260 624.999v-10h-56l-81 112l-80 -112h-53v10l96 159h78z" />
    <glyph glyph-name="Kcommaaccent" unicode="&#x136;" horiz-adv-x="581" 
d="M255 330l-87 -110v-220h-81v724h81v-397l297 397h100l-257 -327l272 -397h-100zM236 -238c16.667 18 28.167 35.833 34.5 53.5s9.5 40.5 9.5 68.5c0 14 -1 25.667 -3 35h77c1.33301 -12 2 -23.333 2 -34c0 -30.667 -7 -58.167 -21 -82.5s-37 -48.833 -69 -73.5z" />
    <glyph glyph-name="kcommaaccent" unicode="&#x137;" horiz-adv-x="493" 
d="M229 248l-67 -80v-168h-79v770h79v-505l214 271h97l-191 -226l200 -310h-96zM189 -238c16.667 18 28.167 35.833 34.5 53.5s9.5 40.5 9.5 68.5c0 14 -1 25.667 -3 35h77c1.33301 -12 2 -23.333 2 -34c0 -30.667 -7 -58.167 -21 -82.5s-37 -48.833 -69 -73.5z" />
    <glyph glyph-name="kgreenlandic" unicode="&#x138;" horiz-adv-x="493" 
d="M229 248l-67 -80v-168h-79v536h79v-271l214 271h97l-191 -226l200 -310h-96z" />
    <glyph glyph-name="Lacute" unicode="&#x139;" horiz-adv-x="490" 
d="M154 781h-69v12l144 133h98v-12zM468 73v-73h-381v724h81v-651h300z" />
    <glyph glyph-name="lacute" unicode="&#x13a;" horiz-adv-x="283" 
d="M60 839l143 133h99v-12l-174 -133h-68v12zM110 24c-19.333 19.333 -29.001 47.333 -29.001 84v662h79v-655c0 -18 4 -30.833 12 -38.5s20.333 -11.5 37 -11.5c12 0 24.333 1.33301 37 4l7 -66c-20 -5.33301 -40.333 -8 -61 -8c-35.333 0 -62.666 9.66699 -81.999 29z" />
    <glyph glyph-name="Lcommaaccent" unicode="&#x13b;" horiz-adv-x="490" 
d="M468 73v-73h-381v724h81v-651h300zM200 -238c16.667 18 28.167 35.833 34.5 53.5s9.5 40.5 9.5 68.5c0 14 -1 25.667 -3 35h77c1.33301 -12 2 -23.333 2 -34c0 -30.667 -7 -58.167 -21 -82.5s-37 -48.833 -69 -73.5z" />
    <glyph glyph-name="lcommaaccent" unicode="&#x13c;" horiz-adv-x="283" 
d="M110 24c-19.333 19.333 -29.001 47.333 -29.001 84v662h79v-655c0 -18 4 -30.833 12 -38.5s20.333 -11.5 37 -11.5c12 0 24.333 1.33301 37 4l7 -66c-20 -5.33301 -40.333 -8 -61 -8c-35.333 0 -62.666 9.66699 -81.999 29zM78.999 -238
c16.667 18 28.167 35.833 34.5 53.5s9.5 40.5 9.5 68.5c0 14 -1 25.667 -3 35h77c1.33301 -12 2 -23.333 2 -34c0 -30.667 -7 -58.167 -21 -82.5s-37 -48.833 -69 -73.5z" />
    <glyph glyph-name="Lcaron" unicode="&#x13d;" horiz-adv-x="490" 
d="M334 557h-47v213h76v-10zM468 73v-73h-381v724h81v-651h300z" />
    <glyph glyph-name="lcaron" unicode="&#x13e;" horiz-adv-x="285" 
d="M110 24c-19.333 19.333 -29.001 47.333 -29.001 84v662h79v-655c0 -18 4 -30.833 12 -38.5s20.333 -11.5 37 -11.5c12 0 24.333 1.33301 37 4l7 -66c-20 -5.33301 -40.333 -8 -61 -8c-35.333 0 -62.666 9.66699 -81.999 29zM241.999 770h76v-10l-29 -203h-47v213z" />
    <glyph glyph-name="Ldot" unicode="&#x13f;" horiz-adv-x="490" 
d="M468 73v-73h-381v724h81v-651h300zM327 352.5c-9.33301 9.66699 -14 23.167 -14 40.5s4.66699 31 14 41s22.333 15 39 15s29.667 -4.83301 39 -14.5s14 -23.167 14 -40.5s-4.66699 -31 -14 -41s-22.333 -15 -39 -15s-29.667 4.83301 -39 14.5z" />
    <glyph glyph-name="ldot" unicode="&#x140;" horiz-adv-x="361" 
d="M110 24c-19.333 19.333 -29.001 47.333 -29.001 84v662h79v-655c0 -18 4 -30.833 12 -38.5s20.333 -11.5 37 -11.5c12 0 24.333 1.33301 37 4l7 -66c-20 -5.33301 -40.333 -8 -61 -8c-35.333 0 -62.666 9.66699 -81.999 29zM260.999 349.5
c-9.33301 9.66699 -14 23.167 -14 40.5s4.66699 31 14 41s22.333 15 39 15s29.667 -4.83301 39 -14.5s14 -23.167 14 -40.5s-4.66699 -31 -14 -41s-22.333 -15 -39 -15s-29.667 4.83301 -39 14.5z" />
    <glyph glyph-name="Lslash" unicode="&#x141;" horiz-adv-x="494" 
d="M472 73v-73h-381v262l-49 -33h-10v69l59 36v390h81v-340l202 132h10v-69l-212 -133v-241h300z" />
    <glyph glyph-name="lslash" unicode="&#x142;" horiz-adv-x="323" 
d="M184 398l-0.000976562 -283c0 -18 4 -30.833 12 -38.5s20.333 -11.5 37 -11.5c12 0 24.333 1.33301 37 4l7 -66c-20 -5.33301 -40.333 -8 -61 -8c-35.333 0 -62.666 9.66699 -81.999 29s-29 47.333 -29 84v233l-68 -51h-9v67l77 55v358h79v-302l90 68h10v-67z" />
    <glyph glyph-name="Nacute" unicode="&#x143;" horiz-adv-x="677" 
d="M346 781h-68v12l143 133h99v-12zM589 724v-724h-76l-347 581v-581h-79v724h76l347 -580v580h79z" />
    <glyph glyph-name="nacute" unicode="&#x144;" horiz-adv-x="543" 
d="M423.5 505c27.667 -28.667 41.499 -68.001 41.499 -118.001v-387h-79v380c0 62 -33.667 93 -101 93c-23.333 0 -44.833 -4.16699 -64.5 -12.5s-39.167 -21.166 -58.5 -38.499v-422h-79v536h71v-59c41.333 47.333 93 71 155 71c48.667 0 86.834 -14.333 114.501 -43z
M225.999 624.999l93 159h89v-10l-124 -159h-58v10z" />
    <glyph glyph-name="Ncommaaccent" unicode="&#x145;" horiz-adv-x="677" 
d="M589 724v-724h-76l-347 581v-581h-79v724h76l347 -580v580h79zM259 -238c16.667 18 28.167 35.833 34.5 53.5s9.5 40.5 9.5 68.5c0 14 -1 25.667 -3 35h77c1.33301 -12 2 -23.333 2 -34c0 -30.667 -7 -58.167 -21 -82.5s-37 -48.833 -69 -73.5z" />
    <glyph glyph-name="ncommaaccent" unicode="&#x146;" horiz-adv-x="543" 
d="M423.5 505c27.667 -28.667 41.499 -68.001 41.499 -118.001v-387h-79v380c0 62 -33.667 93 -101 93c-23.333 0 -44.833 -4.16699 -64.5 -12.5s-39.167 -21.166 -58.5 -38.499v-422h-79v536h71v-59c41.333 47.333 93 71 155 71c48.667 0 86.834 -14.333 114.501 -43z
M194.999 -238.001c16.667 18 28.167 35.833 34.5 53.5s9.5 40.5 9.5 68.5c0 14 -1 25.667 -3 35h77c1.33301 -12 2 -23.333 2 -34c0 -30.667 -7 -58.167 -21 -82.5s-37 -48.833 -69 -73.5z" />
    <glyph glyph-name="Ncaron" unicode="&#x147;" horiz-adv-x="677" 
d="M297 781l-110 133v12h62l92 -94l91 94h59v-12l-110 -133h-84zM589 724v-724h-76l-347 581v-581h-79v724h76l347 -580v580h79z" />
    <glyph glyph-name="ncaron" unicode="&#x148;" horiz-adv-x="543" 
d="M423.5 505c27.667 -28.667 41.499 -68.001 41.499 -118.001v-387h-79v380c0 62 -33.667 93 -101 93c-23.333 0 -44.833 -4.16699 -64.5 -12.5s-39.167 -21.166 -58.5 -38.499v-422h-79v536h71v-59c41.333 47.333 93 71 155 71c48.667 0 86.834 -14.333 114.501 -43z
M408.999 783.999v-10l-96 -159h-78l-96 159v10h56l80 -112l81 112h53z" />
    <glyph glyph-name="napostrophe" unicode="&#x149;" horiz-adv-x="543" 
d="M423.5 505c27.667 -28.667 41.499 -68.001 41.499 -118.001v-387h-79v380c0 62 -33.667 93 -101 93c-23.333 0 -44.833 -4.16699 -64.5 -12.5s-39.167 -21.166 -58.5 -38.499v-422h-79v536h71v-59c41.333 47.333 93 71 155 71c48.667 0 86.834 -14.333 114.501 -43z
M-58.001 577.999c21.333 23.333 36.667 46.332 46 68.999s14 49.334 14 80.001c0 14 -0.666992 28.333 -2 43h73c1.33301 -14.667 2 -28.667 2 -42c0 -34.667 -8.33301 -66.667 -25 -96s-42.667 -58 -78 -86z" />
    <glyph glyph-name="Eng" unicode="&#x14a;" horiz-adv-x="677" 
d="M589 724v-723.999v-45c0 -54.667 -15 -97.334 -45 -128.001s-72 -46 -126 -46c-52.667 0 -95 14 -127 42l29 62c33.333 -22 65.666 -33 96.999 -33c30.667 0 53.834 8.83301 69.501 26.5s23.5 43.5 23.5 77.5v49l-344 576v-581h-79v724h76l347 -580v580h79z" />
    <glyph glyph-name="eng" unicode="&#x14b;" horiz-adv-x="543" 
d="M423.5 505c27.667 -28.667 41.499 -68.001 41.499 -118.001v-387v-65c0 -48.667 -12.5 -86.5 -37.5 -113.5s-59.833 -40.5 -104.5 -40.5c-20.667 0 -40.5 3 -59.5 9s-35.167 14.667 -48.5 26l26 60c30 -17.333 56.667 -26 80 -26c21.333 0 37.5 7.33301 48.5 22
s16.5 36 16.5 64v196v248c0 62 -33.667 93 -101 93c-23.333 0 -44.833 -4.16699 -64.5 -12.5s-39.167 -21.166 -58.5 -38.499v-422h-79v536h71v-59c41.333 47.333 93 71 155 71c48.667 0 86.834 -14.333 114.501 -43z" />
    <glyph glyph-name="Omacron" unicode="&#x14c;" horiz-adv-x="665" 
d="M196 871h274v-60h-274v60zM127 83c-47.333 63.333 -71 156.333 -71 279s23.667 215.667 71 279s115.666 95 204.999 95s157.833 -31.667 205.5 -95s71.5 -156.333 71.5 -279s-23.833 -215.667 -71.5 -279s-116.167 -95 -205.5 -95s-157.666 31.667 -204.999 95z
M475.5 136.5c32.333 51 48.5 126.167 48.5 225.5s-16.167 174.5 -48.5 225.5s-80.166 76.5 -143.499 76.5c-62.667 0 -110.167 -25.5 -142.5 -76.5s-48.5 -126.167 -48.5 -225.5s16.167 -174.5 48.5 -225.5s79.833 -76.5 142.5 -76.5c63.333 0 111.166 25.5 143.499 76.5z
" />
    <glyph glyph-name="omacron" unicode="&#x14d;" horiz-adv-x="519" 
d="M104 59.5c-36 47.667 -54 117.167 -54 208.5s18.167 160.833 54.5 208.5s88.166 71.5 155.499 71.5s119 -23.833 155 -71.5s54 -117.167 54 -208.5s-18.167 -160.833 -54.5 -208.5s-88.166 -71.5 -155.499 -71.5s-119 23.833 -155 71.5zM387 268
c0 69.333 -10.667 121.666 -32 156.999s-53 53 -95 53c-85.333 0 -128 -70 -128 -210c0 -69.333 10.667 -121.666 32 -156.999s53 -53 95 -53c85.333 0 128 70 128 210zM123 701h274v-60h-274v60z" />
    <glyph glyph-name="Obreve" unicode="&#x14e;" horiz-adv-x="665" 
d="M236.5 824c-23.667 26 -36.4961 62.333 -38.4961 109h52c3.33301 -27.333 12.166 -48.166 26.499 -62.499s33.5 -21.5 57.5 -21.5c24.667 0 44.167 7.16699 58.5 21.5s23.166 35.166 26.499 62.499h49c-2 -46.667 -14.833 -83 -38.5 -109s-55.834 -39 -96.501 -39
s-72.834 13 -96.501 39zM127.004 83c-47.333 63.333 -71 156.333 -71 279s23.667 215.667 71 279s115.666 95 204.999 95s157.833 -31.667 205.5 -95s71.5 -156.333 71.5 -279s-23.833 -215.667 -71.5 -279s-116.167 -95 -205.5 -95s-157.666 31.667 -204.999 95z
M475.504 136.5c32.333 51 48.5 126.167 48.5 225.5s-16.167 174.5 -48.5 225.5s-80.166 76.5 -143.499 76.5c-62.667 0 -110.167 -25.5 -142.5 -76.5s-48.5 -126.167 -48.5 -225.5s16.167 -174.5 48.5 -225.5s79.833 -76.5 142.5 -76.5c63.333 0 111.166 25.5 143.499 76.5z
" />
    <glyph glyph-name="obreve" unicode="&#x14f;" horiz-adv-x="519" 
d="M104 59.5c-36 47.667 -54 117.167 -54 208.5s18.167 160.833 54.5 208.5s88.166 71.5 155.499 71.5s119 -23.833 155 -71.5s54 -117.167 54 -208.5s-18.167 -160.833 -54.5 -208.5s-88.166 -71.5 -155.499 -71.5s-119 23.833 -155 71.5zM387 268
c0 69.333 -10.667 121.666 -32 156.999s-53 53 -95 53c-85.333 0 -128 -70 -128 -210c0 -69.333 10.667 -121.666 32 -156.999s53 -53 95 -53c85.333 0 128 70 128 210zM163.5 654c-23.667 26 -36.4961 62.333 -38.4961 109h52
c3.33301 -27.333 12.166 -48.166 26.499 -62.499s33.5 -21.5 57.5 -21.5c24.667 0 44.167 7.16699 58.5 21.5s23.166 35.166 26.499 62.499h49c-2 -46.667 -14.833 -83 -38.5 -109s-55.834 -39 -96.501 -39s-72.834 13 -96.501 39z" />
    <glyph glyph-name="Ohungarumlaut" unicode="&#x150;" horiz-adv-x="665" 
d="M214 793l93 133h85v-12l-124 -133h-54v12zM365 793l93 133h85v-12l-123 -133h-55v12zM127 83c-47.333 63.333 -71 156.333 -71 279s23.667 215.667 71 279s115.666 95 204.999 95s157.833 -31.667 205.5 -95s71.5 -156.333 71.5 -279s-23.833 -215.667 -71.5 -279
s-116.167 -95 -205.5 -95s-157.666 31.667 -204.999 95zM475.5 136.5c32.333 51 48.5 126.167 48.5 225.5s-16.167 174.5 -48.5 225.5s-80.166 76.5 -143.499 76.5c-62.667 0 -110.167 -25.5 -142.5 -76.5s-48.5 -126.167 -48.5 -225.5s16.167 -174.5 48.5 -225.5
s79.833 -76.5 142.5 -76.5c63.333 0 111.166 25.5 143.499 76.5z" />
    <glyph glyph-name="ohungarumlaut" unicode="&#x151;" horiz-adv-x="519" 
d="M104 59.5c-36 47.667 -54 117.167 -54 208.5s18.167 160.833 54.5 208.5s88.166 71.5 155.499 71.5s119 -23.833 155 -71.5s54 -117.167 54 -208.5s-18.167 -160.833 -54.5 -208.5s-88.166 -71.5 -155.499 -71.5s-119 23.833 -155 71.5zM387 268
c0 69.333 -10.667 121.666 -32 156.999s-53 53 -95 53c-85.333 0 -128 -70 -128 -210c0 -69.333 10.667 -121.666 32 -156.999s53 -53 95 -53c85.333 0 128 70 128 210zM154 625l56 159h79v-10l-86 -159h-49v10zM292 625l56 159h79v-10l-86 -159h-49v10z" />
    <glyph glyph-name="OE" unicode="&#x152;" horiz-adv-x="901" 
d="M863 72v-72h-397h-132c-90 0 -158.833 30.167 -206.5 90.5s-71.5 150.833 -71.5 271.5s23.833 211.167 71.5 271.5s116.5 90.5 206.5 90.5h164h352v-72h-306v-245h225v-73h-225v-262h319zM466 72v580h-132c-128.667 0 -193 -96.667 -193 -290s64.333 -290 193 -290h132z
" />
    <glyph glyph-name="oe" unicode="&#x153;" horiz-adv-x="826" 
d="M779 247l-321 0.00195312c2.66699 -61.333 16.334 -107.5 41.001 -138.5s60.334 -46.5 107.001 -46.5c44.667 0 85.667 13.333 123 40l30 -61c-20.667 -16.667 -44.834 -29.5 -72.501 -38.5s-56.167 -13.5 -85.5 -13.5c-40.667 0 -76.167 8.66699 -106.5 26
s-54.833 42.666 -73.5 75.999c-17.333 -34 -39.833 -59.667 -67.5 -77s-60.167 -26 -97.5 -26c-66 0 -116.833 23.667 -152.5 71s-53.5 116.666 -53.5 207.999c0 92 17.833 161.833 53.5 209.5s86.5 71.5 152.5 71.5c37.333 0 70.166 -9.16699 98.499 -27.5
s51.166 -44.5 68.499 -78.5c12 33.333 32.167 59.333 60.5 78s61.833 28 100.5 28c62.667 0 111.334 -22.5 146.001 -67.5s52 -108.167 52 -189.5c0 -16 -1 -30.667 -3 -44zM496 435.502c-20.667 -28.333 -32.999 -70.5 -36.999 -126.5h244
c-0.666992 53.333 -11.5 94.833 -32.5 124.5s-50.5 44.5 -88.5 44.5c-36.667 0 -65.334 -14.167 -86.001 -42.5zM348.501 111.502c21 35.667 31.5 87.834 31.5 156.501c0 69.333 -10.5 121.666 -31.5 156.999s-51.833 53 -92.5 53s-71.5 -17.833 -92.5 -53.5
s-31.5 -88.167 -31.5 -157.5c0 -68.667 10.5 -120.667 31.5 -156s51.833 -53 92.5 -53s71.5 17.833 92.5 53.5z" />
    <glyph glyph-name="Racute" unicode="&#x154;" horiz-adv-x="592" 
d="M298 781h-68v12l143 133h99v-12zM294 279h-126.002v-279h-81v724h81h146c66.667 0 118.834 -19.667 156.501 -59s56.5 -94 56.5 -164c0 -56.667 -12.667 -103.5 -38 -140.5s-61.666 -61.5 -108.999 -73.5l180 -287h-100zM167.998 350h146c42 0 73.833 12.667 95.5 38
s32.5 63 32.5 113c0 49.333 -11 86.833 -33 112.5s-54.667 38.5 -98 38.5h-143v-302z" />
    <glyph glyph-name="racute" unicode="&#x155;" horiz-adv-x="365" 
d="M353 533l-15.999 -76c-22.667 6.66699 -45.334 10 -68.001 10s-42.667 -5.16699 -60 -15.5s-33 -26.833 -47 -49.5v-402h-79v536h71v-76c34 57.333 79.667 86 137 86c23.333 0 44 -4.33301 62 -13zM169.001 625l93 159h89v-10l-124 -159h-58v10z" />
    <glyph glyph-name="Rcommaaccent" unicode="&#x156;" horiz-adv-x="592" 
d="M294 279h-126.002v-279h-81v724h81h146c66.667 0 118.834 -19.667 156.501 -59s56.5 -94 56.5 -164c0 -56.667 -12.667 -103.5 -38 -140.5s-61.666 -61.5 -108.999 -73.5l180 -287h-100zM167.998 350h146c42 0 73.833 12.667 95.5 38s32.5 63 32.5 113
c0 49.333 -11 86.833 -33 112.5s-54.667 38.5 -98 38.5h-143v-302zM228.998 -238c16.667 18 28.167 35.833 34.5 53.5s9.5 40.5 9.5 68.5c0 14 -1 25.667 -3 35h77c1.33301 -12 2 -23.333 2 -34c0 -30.667 -7 -58.167 -21 -82.5s-37 -48.833 -69 -73.5z" />
    <glyph glyph-name="rcommaaccent" unicode="&#x157;" horiz-adv-x="365" 
d="M353 533l-15.999 -76c-22.667 6.66699 -45.334 10 -68.001 10s-42.667 -5.16699 -60 -15.5s-33 -26.833 -47 -49.5v-402h-79v536h71v-76c34 57.333 79.667 86 137 86c23.333 0 44 -4.33301 62 -13zM43.001 -238c16.667 18 28.167 35.833 34.5 53.5s9.5 40.5 9.5 68.5
c0 14 -1 25.667 -3 35h77c1.33301 -12 2 -23.333 2 -34c0 -30.667 -7 -58.167 -21 -82.5s-37 -48.833 -69 -73.5z" />
    <glyph glyph-name="Rcaron" unicode="&#x158;" horiz-adv-x="592" 
d="M249 781l-110 133v12h62l92 -94l91 94h59v-12l-110 -133h-84zM294 279h-126.002v-279h-81v724h81h146c66.667 0 118.834 -19.667 156.501 -59s56.5 -94 56.5 -164c0 -56.667 -12.667 -103.5 -38 -140.5s-61.666 -61.5 -108.999 -73.5l180 -287h-100zM167.998 350h146
c42 0 73.833 12.667 95.5 38s32.5 63 32.5 113c0 49.333 -11 86.833 -33 112.5s-54.667 38.5 -98 38.5h-143v-302z" />
    <glyph glyph-name="rcaron" unicode="&#x159;" horiz-adv-x="365" 
d="M353 533l-15.999 -76c-22.667 6.66699 -45.334 10 -68.001 10s-42.667 -5.16699 -60 -15.5s-33 -26.833 -47 -49.5v-402h-79v536h71v-76c34 57.333 79.667 86 137 86c23.333 0 44 -4.33301 62 -13zM352.001 784v-10l-96 -159h-78l-96 159v10h56l80 -112l81 112h53z" />
    <glyph glyph-name="Sacute" unicode="&#x15a;" horiz-adv-x="524" 
d="M191 793l143 133h99v-12l-174 -133h-68v12zM139.5 4c-37 10 -70.498 24.332 -100.498 42.999l27 68c62.667 -36 124 -54 184 -54c46.667 0 82.667 11 108 33s38 52.667 38 92c0 34 -8.16699 61.333 -24.5 82s-42.5 35.667 -78.5 45l-82 23
c-57.333 16 -99.166 39.833 -125.499 71.5s-39.5 73.834 -39.5 126.501c0 60.667 19.667 109.334 59 146.001s92 55 158 55c30 0 62.167 -3.83301 96.5 -11.5s67.5 -18.834 99.5 -33.501l-28 -68c-68.667 27.333 -125.334 41 -170.001 41c-42 0 -74.667 -10.333 -98 -31
s-35 -49.334 -35 -86.001c0 -34 8.16699 -61.167 24.5 -81.5s42.166 -35.166 77.499 -44.499l82 -23c57.333 -16 99.166 -40 125.499 -72s39.5 -74.333 39.5 -127c0 -63.333 -20.5 -114 -61.5 -152s-96.167 -57 -165.5 -57c-36.667 0 -73.5 5 -110.5 15z" />
    <glyph glyph-name="sacute" unicode="&#x15b;" horiz-adv-x="434" 
d="M112.5 1.5c-29.667 8.33301 -55.8311 20.167 -78.498 35.5l28 65c46 -29.333 94 -44 144 -44c36 0 63 7.33301 81 22s27 36 27 64c0 22 -5.5 39.667 -16.5 53s-28.5 23 -52.5 29l-71 17c-46 10.667 -79.667 28 -101 52s-32 55.667 -32 95
c0 49.333 15.667 87.833 47 115.5s75 41.5 131 41.5c27.333 0 54.833 -3.66699 82.5 -11s52.5 -17 74.5 -29l-30 -66c-46 24 -89 36 -129 36c-65.333 0 -98 -26.667 -98 -80c0 -21.333 5.5 -38.166 16.5 -50.499s28.833 -21.5 53.5 -27.5l71 -17
c46 -10.667 79.5 -28.334 100.5 -53.001s31.5 -57.667 31.5 -99c0 -50.667 -16.333 -90.167 -49 -118.5s-78.334 -42.5 -137.001 -42.5c-32.667 0 -63.834 4.16699 -93.501 12.5zM162.003 625.001l93 159h89v-10l-124 -159h-58v10z" />
    <glyph glyph-name="Scircumflex" unicode="&#x15c;" horiz-adv-x="524" 
d="M159 781h-59v12l110 133h84l110 -133v-12h-62l-91 94zM437.5 325c26.333 -32 39.502 -74.334 39.502 -127.001c0 -63.333 -20.5 -114 -61.5 -152s-96.167 -57 -165.5 -57c-36.667 0 -73.5 5 -110.5 15s-70.5 24.333 -100.5 43l27 68c62.667 -36 124 -54 184 -54
c46.667 0 82.667 11 108 33s38 52.667 38 92c0 34 -8.16699 61.333 -24.5 82s-42.5 35.667 -78.5 45l-82 23c-57.333 16 -99.166 39.833 -125.499 71.5s-39.5 73.834 -39.5 126.501c0 60.667 19.667 109.334 59 146.001s92 55 158 55c30 0 62.167 -3.83301 96.5 -11.5
s67.5 -18.834 99.5 -33.501l-28 -68c-68.667 27.333 -125.334 41 -170.001 41c-42 0 -74.667 -10.333 -98 -31s-35 -49.334 -35 -86.001c0 -34 8.16699 -61.167 24.5 -81.5s42.166 -35.166 77.499 -44.499l82 -23c57.333 -16 99.166 -40 125.499 -72z" />
    <glyph glyph-name="scircumflex" unicode="&#x15d;" horiz-adv-x="434" 
d="M112.5 1.5c-29.667 8.33301 -55.8311 20.167 -78.498 35.5l28 65c46 -29.333 94 -44 144 -44c36 0 63 7.33301 81 22s27 36 27 64c0 22 -5.5 39.667 -16.5 53s-28.5 23 -52.5 29l-71 17c-46 10.667 -79.667 28 -101 52s-32 55.667 -32 95
c0 49.333 15.667 87.833 47 115.5s75 41.5 131 41.5c27.333 0 54.833 -3.66699 82.5 -11s52.5 -17 74.5 -29l-30 -66c-46 24 -89 36 -129 36c-65.333 0 -98 -26.667 -98 -80c0 -21.333 5.5 -38.166 16.5 -50.499s28.833 -21.5 53.5 -27.5l71 -17
c46 -10.667 79.5 -28.334 100.5 -53.001s31.5 -57.667 31.5 -99c0 -50.667 -16.333 -90.167 -49 -118.5s-78.334 -42.5 -137.001 -42.5c-32.667 0 -63.834 4.16699 -93.501 12.5zM345.003 625.001v-10h-56l-81 112l-80 -112h-53v10l96 159h78z" />
    <glyph glyph-name="Scedilla" unicode="&#x15e;" horiz-adv-x="524" 
d="M424.5 54.5c-35 -37 -82.8291 -58.501 -143.496 -64.501l-34 -53c6.66699 2 13.667 3 21 3c31.333 0 55.5 -7 72.5 -21s25.5 -33.333 25.5 -58c0 -28 -9.83301 -49.833 -29.5 -65.5s-46.834 -23.5 -81.501 -23.5c-37.333 0 -69.333 8 -96 24l14 43
c30.667 -12.667 57.334 -19 80.001 -19c15.333 0 27.166 3.5 35.499 10.5s12.5 16.833 12.5 29.5s-3.83301 22.5 -11.5 29.5s-18.834 10.5 -33.501 10.5s-28.667 -3 -42 -9l-19 23l30 76c-32.667 2 -65.167 8 -97.5 18s-61.833 23 -88.5 39l27 68
c62.667 -36 124 -54 184 -54c46.667 0 82.667 11 108 33s38 52.667 38 92c0 34 -8.16699 61.333 -24.5 82s-42.5 35.667 -78.5 45l-82 23c-57.333 16 -99.166 39.833 -125.499 71.5s-39.5 73.834 -39.5 126.501c0 60.667 19.667 109.334 59 146.001s92 55 158 55
c30 0 62.167 -3.83301 96.5 -11.5s67.5 -18.834 99.5 -33.501l-28 -68c-68.667 27.333 -125.334 41 -170.001 41c-42 0 -74.667 -10.333 -98 -31s-35 -49.334 -35 -86.001c0 -34 8.16699 -61.167 24.5 -81.5s42.166 -35.166 77.499 -44.499l82 -23
c57.333 -16 99.166 -40 125.499 -72s39.5 -74.333 39.5 -127c0 -58.667 -17.5 -106.5 -52.5 -143.5z" />
    <glyph glyph-name="scedilla" unicode="&#x15f;" horiz-adv-x="434" 
d="M351 39.5c-27.333 -27.667 -65.6641 -44.167 -114.997 -49.5l-34 -53c7.33301 2 14.333 3 21 3c31.333 0 55.5 -7 72.5 -21s25.5 -33.333 25.5 -58c0 -28 -9.83301 -49.833 -29.5 -65.5s-46.834 -23.5 -81.501 -23.5c-37.333 0 -69.333 8 -96 24l14 43
c30.667 -12.667 57.334 -19 80.001 -19c15.333 0 27.166 3.5 35.499 10.5s12.5 16.833 12.5 29.5s-3.83301 22.5 -11.5 29.5s-18.834 10.5 -33.501 10.5s-28.667 -3 -42 -9l-19 23l30 76c-56.667 4 -105.334 19.667 -146.001 47l28 65c46 -29.333 94 -44 144 -44
c36 0 63 7.33301 81 22s27 36 27 64c0 22 -5.5 39.667 -16.5 53s-28.5 23 -52.5 29l-71 17c-46 10.667 -79.667 28 -101 52s-32 55.667 -32 95c0 49.333 15.667 87.833 47 115.5s75 41.5 131 41.5c27.333 0 54.833 -3.66699 82.5 -11s52.5 -17 74.5 -29l-30 -66
c-46 24 -89 36 -129 36c-65.333 0 -98 -26.667 -98 -80c0 -21.333 5.5 -38.166 16.5 -50.499s28.833 -21.5 53.5 -27.5l71 -17c46 -10.667 79.5 -28.334 100.5 -53.001s31.5 -57.667 31.5 -99c0 -46 -13.667 -82.833 -41 -110.5z" />
    <glyph glyph-name="Scaron" unicode="&#x160;" horiz-adv-x="524" 
d="M210 781l-110 133v12h62l92 -94l91 94h59v-12l-110 -133h-84zM437.5 325c26.333 -32 39.502 -74.334 39.502 -127.001c0 -63.333 -20.5 -114 -61.5 -152s-96.167 -57 -165.5 -57c-36.667 0 -73.5 5 -110.5 15s-70.5 24.333 -100.5 43l27 68c62.667 -36 124 -54 184 -54
c46.667 0 82.667 11 108 33s38 52.667 38 92c0 34 -8.16699 61.333 -24.5 82s-42.5 35.667 -78.5 45l-82 23c-57.333 16 -99.166 39.833 -125.499 71.5s-39.5 73.834 -39.5 126.501c0 60.667 19.667 109.334 59 146.001s92 55 158 55c30 0 62.167 -3.83301 96.5 -11.5
s67.5 -18.834 99.5 -33.501l-28 -68c-68.667 27.333 -125.334 41 -170.001 41c-42 0 -74.667 -10.333 -98 -31s-35 -49.334 -35 -86.001c0 -34 8.16699 -61.167 24.5 -81.5s42.166 -35.166 77.499 -44.499l82 -23c57.333 -16 99.166 -40 125.499 -72z" />
    <glyph glyph-name="scaron" unicode="&#x161;" horiz-adv-x="434" 
d="M112.5 1.5c-29.667 8.33301 -55.8311 20.167 -78.498 35.5l28 65c46 -29.333 94 -44 144 -44c36 0 63 7.33301 81 22s27 36 27 64c0 22 -5.5 39.667 -16.5 53s-28.5 23 -52.5 29l-71 17c-46 10.667 -79.667 28 -101 52s-32 55.667 -32 95
c0 49.333 15.667 87.833 47 115.5s75 41.5 131 41.5c27.333 0 54.833 -3.66699 82.5 -11s52.5 -17 74.5 -29l-30 -66c-46 24 -89 36 -129 36c-65.333 0 -98 -26.667 -98 -80c0 -21.333 5.5 -38.166 16.5 -50.499s28.833 -21.5 53.5 -27.5l71 -17
c46 -10.667 79.5 -28.334 100.5 -53.001s31.5 -57.667 31.5 -99c0 -50.667 -16.333 -90.167 -49 -118.5s-78.334 -42.5 -137.001 -42.5c-32.667 0 -63.834 4.16699 -93.501 12.5zM345.003 784.001v-10l-96 -159h-78l-96 159v10h56l80 -112l81 112h53z" />
    <glyph glyph-name="uni0162" unicode="&#x162;" horiz-adv-x="489" 
d="M272 0l-39.998 -63c6.66699 2 13.667 3 21 3c31.333 0 55.5 -7 72.5 -21s25.5 -33.333 25.5 -58c0 -28 -9.83301 -49.833 -29.5 -65.5s-46.834 -23.5 -81.501 -23.5c-37.333 0 -69.333 8 -96 24l14 43c30.667 -12.667 57.334 -19 80.001 -19
c15.333 0 27.166 3.5 35.499 10.5s12.5 16.833 12.5 29.5s-3.83301 22.5 -11.5 29.5s-18.834 10.5 -33.501 10.5s-28.667 -3 -42 -9l-19 23l34 86h-10v651h-180v73h261h180v-73h-180v-651h-13z" />
    <glyph glyph-name="uni0163" unicode="&#x163;" horiz-adv-x="349" 
d="M288.5 -81c17 -14 25.502 -33.332 25.502 -57.999c0 -28 -9.83301 -49.833 -29.5 -65.5s-46.834 -23.5 -81.501 -23.5c-37.333 0 -69.333 8 -96 24l14 43c30.667 -12.667 57.334 -19 80.001 -19c15.333 0 27.166 3.5 35.499 10.5s12.5 16.833 12.5 29.5
s-3.83301 22.5 -11.5 29.5s-18.834 10.5 -33.501 10.5s-28.667 -3 -42 -9l-19 23l37 93c-55.333 23.333 -83 74.666 -83 153.999v309h-85v66h86v158h78v-158h150v-66h-150v-297c0 -38 7.33301 -65.667 22 -83s37.667 -26 69 -26c20.667 0 38.334 3 53.001 9l13 -67
c-20 -8 -46 -12 -78 -12c-10.667 0 -18.334 0.333008 -23.001 1l-37 -58c7.33301 2 14.333 3 21 3c31.333 0 55.5 -7 72.5 -21z" />
    <glyph glyph-name="Tcaron" unicode="&#x164;" horiz-adv-x="489" 
d="M202 781l-110 133v12h62l92 -94l91 94h59v-12l-110 -133h-84zM465 651h-180v-651h-81v651h-180v73h261h180v-73z" />
    <glyph glyph-name="tcaron" unicode="&#x165;" horiz-adv-x="349" 
d="M245 770h76v-10l-24 -173h-52v183zM137 36c-26.667 28 -40.001 69.667 -40.001 125v309h-85v66h86v158h78v-158h150v-66h-150v-297c0 -38 7.33301 -65.667 22 -83s37.667 -26 69 -26c20.667 0 38.334 3 53.001 9l13 -67c-20 -8 -46 -12 -78 -12c-52 0 -91.333 14 -118 42
z" />
    <glyph glyph-name="Tbar" unicode="&#x166;" horiz-adv-x="489" 
d="M285 651v-267h115v-67h-115v-317h-81v317h-115v67h115v267h-180v73h261h180v-73h-180z" />
    <glyph glyph-name="tbar" unicode="&#x167;" horiz-adv-x="349" 
d="M333 6c-20 -8 -46.001 -12 -78.001 -12c-52 0 -91.333 14 -118 42s-40 69.667 -40 125v130h-85v61h85v118h-85v66h86v158h78v-158h150v-66h-150v-118h150v-61h-150v-118c0 -38 7.33301 -65.667 22 -83s37.667 -26 69 -26c20.667 0 38.334 3 53.001 9z" />
    <glyph glyph-name="Utilde" unicode="&#x168;" horiz-adv-x="640" 
d="M342.5 799.5c-12.333 7 -26.166 17.167 -41.499 30.5c-11.333 9.33301 -20.5 16.166 -27.5 20.499s-14.167 6.5 -21.5 6.5c-22 0 -35 -22 -39 -66h-50c0.666992 40.667 9 72.334 25 95.001s38 34 66 34c16.667 0 31.167 -3.5 43.5 -10.5s26.166 -17.167 41.499 -30.5
c11.333 -9.33301 20.5 -16.166 27.5 -20.499s14.167 -6.5 21.5 -6.5c22 0 35 22 39 66h50c-0.666992 -40.667 -9 -72.334 -25 -95.001s-38 -34 -66 -34c-16.667 0 -31.167 3.5 -43.5 10.5zM145 56c-42 45.333 -62.998 109 -62.998 191v477h81v-476
c0 -62 13.333 -108.833 40 -140.5s66 -47.5 118 -47.5c51.333 0 90.166 15.833 116.499 47.5s39.5 78.5 39.5 140.5v476h81v-477c0 -82 -20.833 -145.667 -62.5 -191s-99.834 -68 -174.501 -68c-75.333 0 -134 22.667 -176 68z" />
    <glyph glyph-name="utilde" unicode="&#x169;" horiz-adv-x="535" 
d="M452 536v-536.001h-71v66c-17.333 -25.333 -38.666 -44.666 -63.999 -57.999s-54.333 -20 -87 -20c-48.667 0 -86.5 14 -113.5 42s-40.5 67 -40.5 117v389h79v-380c0 -62 32.333 -93 97 -93c24.667 0 46.667 4.66699 66 14s37.666 24.333 54.999 45v414h79z
M287.5 629.499c-12.333 7 -26.166 17.167 -41.499 30.5c-11.333 9.33301 -20.5 16.166 -27.5 20.499s-14.167 6.5 -21.5 6.5c-22 0 -35 -22 -39 -66h-50c0.666992 40.667 9 72.334 25 95.001s38 34 66 34c16.667 0 31.167 -3.5 43.5 -10.5s26.166 -17.167 41.499 -30.5
c11.333 -9.33301 20.5 -16.166 27.5 -20.499s14.167 -6.5 21.5 -6.5c22 0 35 22 39 66h50c-0.666992 -40.667 -9 -72.334 -25 -95.001s-38 -34 -66 -34c-16.667 0 -31.167 3.5 -43.5 10.5z" />
    <glyph glyph-name="Umacron" unicode="&#x16a;" horiz-adv-x="640" 
d="M183 871h274v-60h-274v60zM145 56c-42 45.333 -62.998 109 -62.998 191v477h81v-476c0 -62 13.333 -108.833 40 -140.5s66 -47.5 118 -47.5c51.333 0 90.166 15.833 116.499 47.5s39.5 78.5 39.5 140.5v476h81v-477c0 -82 -20.833 -145.667 -62.5 -191
s-99.834 -68 -174.501 -68c-75.333 0 -134 22.667 -176 68z" />
    <glyph glyph-name="umacron" unicode="&#x16b;" horiz-adv-x="535" 
d="M452 536v-536.001h-71v66c-17.333 -25.333 -38.666 -44.666 -63.999 -57.999s-54.333 -20 -87 -20c-48.667 0 -86.5 14 -113.5 42s-40.5 67 -40.5 117v389h79v-380c0 -62 32.333 -93 97 -93c24.667 0 46.667 4.66699 66 14s37.666 24.333 54.999 45v414h79zM128 700.999
h274v-60h-274v60z" />
    <glyph glyph-name="Ubreve" unicode="&#x16c;" horiz-adv-x="640" 
d="M223.5 824c-23.667 26 -36.4961 62.333 -38.4961 109h52c3.33301 -27.333 12.166 -48.166 26.499 -62.499s33.5 -21.5 57.5 -21.5c24.667 0 44.167 7.16699 58.5 21.5s23.166 35.166 26.499 62.499h49c-2 -46.667 -14.833 -83 -38.5 -109s-55.834 -39 -96.501 -39
s-72.834 13 -96.501 39zM145.004 56c-42 45.333 -62.998 109 -62.998 191v477h81v-476c0 -62 13.333 -108.833 40 -140.5s66 -47.5 118 -47.5c51.333 0 90.166 15.833 116.499 47.5s39.5 78.5 39.5 140.5v476h81v-477c0 -82 -20.833 -145.667 -62.5 -191
s-99.834 -68 -174.501 -68c-75.333 0 -134 22.667 -176 68z" />
    <glyph glyph-name="ubreve" unicode="&#x16d;" horiz-adv-x="535" 
d="M452 536v-536.001h-71v66c-17.333 -25.333 -38.666 -44.666 -63.999 -57.999s-54.333 -20 -87 -20c-48.667 0 -86.5 14 -113.5 42s-40.5 67 -40.5 117v389h79v-380c0 -62 32.333 -93 97 -93c24.667 0 46.667 4.66699 66 14s37.666 24.333 54.999 45v414h79z
M168.5 653.999c-23.667 26 -36.4961 62.333 -38.4961 109h52c3.33301 -27.333 12.166 -48.166 26.499 -62.499s33.5 -21.5 57.5 -21.5c24.667 0 44.167 7.16699 58.5 21.5s23.166 35.166 26.499 62.499h49c-2 -46.667 -14.833 -83 -38.5 -109s-55.834 -39 -96.501 -39
s-72.834 13 -96.501 39z" />
    <glyph glyph-name="Uring" unicode="&#x16e;" horiz-adv-x="640" 
d="M237.5 798c-19.667 18.667 -29.5 44.667 -29.5 78c0 34 9.83301 60.333 29.5 79s47.167 28 82.5 28s62.833 -9.33301 82.5 -28s29.5 -45 29.5 -79c0 -33.333 -9.83301 -59.333 -29.5 -78s-47.167 -28 -82.5 -28s-62.833 9.33301 -82.5 28zM361 830
c9.33301 10.667 14 26 14 46c0 20.667 -4.66699 36.334 -14 47.001s-23 16 -41 16s-31.667 -5.33301 -41 -16s-14 -26.334 -14 -47.001c0 -20 4.66699 -35.333 14 -46s23 -16 41 -16s31.667 5.33301 41 16zM145 56c-42 45.333 -62.998 109 -62.998 191v477h81v-476
c0 -62 13.333 -108.833 40 -140.5s66 -47.5 118 -47.5c51.333 0 90.166 15.833 116.499 47.5s39.5 78.5 39.5 140.5v476h81v-477c0 -82 -20.833 -145.667 -62.5 -191s-99.834 -68 -174.501 -68c-75.333 0 -134 22.667 -176 68z" />
    <glyph glyph-name="uring" unicode="&#x16f;" horiz-adv-x="535" 
d="M452 536v-536.001h-71v66c-17.333 -25.333 -38.666 -44.666 -63.999 -57.999s-54.333 -20 -87 -20c-48.667 0 -86.5 14 -113.5 42s-40.5 67 -40.5 117v389h79v-380c0 -62 32.333 -93 97 -93c24.667 0 46.667 4.66699 66 14s37.666 24.333 54.999 45v414h79zM183 632.999
c-19.333 18.667 -29 44.667 -29 78c0 34 9.66699 60.333 29 79s46.666 28 81.999 28s62.666 -9.33301 81.999 -28s29 -45 29 -79c0 -33.333 -9.66699 -59.333 -29 -78s-46.666 -28 -81.999 -28s-62.666 9.33301 -81.999 28zM306 663.999c9.33301 10.667 14 26.334 14 47.001
c0 42.667 -18.333 64 -55 64s-55 -21.333 -55 -64c0 -20.667 4.66699 -36.334 14 -47.001s23 -16 41 -16s31.667 5.33301 41 16z" />
    <glyph glyph-name="Uhungarumlaut" unicode="&#x170;" horiz-adv-x="640" 
d="M201 793l93 133h85v-12l-124 -133h-54v12zM352 793l93 133h85v-12l-123 -133h-55v12zM145 56c-42 45.333 -62.998 109 -62.998 191v477h81v-476c0 -62 13.333 -108.833 40 -140.5s66 -47.5 118 -47.5c51.333 0 90.166 15.833 116.499 47.5s39.5 78.5 39.5 140.5v476h81
v-477c0 -82 -20.833 -145.667 -62.5 -191s-99.834 -68 -174.501 -68c-75.333 0 -134 22.667 -176 68z" />
    <glyph glyph-name="uhungarumlaut" unicode="&#x171;" horiz-adv-x="535" 
d="M452 536v-536.001h-71v66c-17.333 -25.333 -38.666 -44.666 -63.999 -57.999s-54.333 -20 -87 -20c-48.667 0 -86.5 14 -113.5 42s-40.5 67 -40.5 117v389h79v-380c0 -62 32.333 -93 97 -93c24.667 0 46.667 4.66699 66 14s37.666 24.333 54.999 45v414h79zM159 624.999
l56 159h79v-10l-86 -159h-49v10zM297 624.999l56 159h79v-10l-86 -159h-49v10z" />
    <glyph glyph-name="Uogonek" unicode="&#x172;" horiz-adv-x="640" 
d="M387 -49.5c-12.667 -21.667 -18.998 -42.4971 -18.998 -62.4971c0 -31.333 15.333 -47 46 -47c18.667 0 38.667 5.66699 60 17l20 -47c-12.667 -9.33301 -27.5 -16.5 -44.5 -21.5s-34.5 -7.5 -52.5 -7.5c-30.667 0 -54.667 8 -72 24s-26 38 -26 66
c0 20.667 4.5 41.167 13.5 61.5s21.833 39.166 38.5 56.499c-13.333 -1.33301 -23.333 -2 -30 -2c-75.333 0 -134 22.667 -176 68s-63 109 -63 191v477h81v-476c0 -62 13.333 -108.833 40 -140.5s66 -47.5 118 -47.5c51.333 0 90.166 15.833 116.499 47.5
s39.5 78.5 39.5 140.5v476h81v-477c0 -48.667 -7.5 -90.334 -22.5 -125.001s-38.167 -64.667 -69.5 -90l-26 -21c-22.667 -18.667 -40.334 -38.834 -53.001 -60.501z" />
    <glyph glyph-name="uogonek" unicode="&#x173;" horiz-adv-x="535" 
d="M496 -189c-12.667 -9.33301 -27.499 -16.5 -44.499 -21.5s-34.5 -7.5 -52.5 -7.5c-30.667 0 -54.667 8 -72 24s-26 38 -26 66c0 26 7.16699 50.333 21.5 73s34.166 41.667 59.499 57v68c-21.333 -28 -44.333 -48.667 -69 -62s-52.667 -20 -84 -20
c-48 0 -85.5 14 -112.5 42s-40.5 67 -40.5 117v389h79v-380c0 -30.667 8.16699 -53.834 24.5 -69.501s40.5 -23.5 72.5 -23.5c24.667 0 46.667 4.66699 66 14s37.666 24.333 54.999 45v414h79v-536c-54.667 -33.333 -82 -70.666 -82 -111.999c0 -31.333 15.667 -47 47 -47
c18.667 0 38.334 5.66699 59.001 17z" />
    <glyph glyph-name="Wcircumflex" unicode="&#x174;" horiz-adv-x="849" 
d="M331 781h-59v12l110 133h84l110 -133v-12h-62l-91 94zM813 724l-172 -724h-91l-127 594l-125 -594h-91l-171 724h86l132 -629l126 628h89l128 -626l131 627h85z" />
    <glyph glyph-name="wcircumflex" unicode="&#x175;" horiz-adv-x="740" 
d="M708 536l-147 -536h-87l-104 427l-104 -427h-88l-146 536h84l107 -453l107 453h83l106 -451l105 451h84zM506 625v-10h-56l-81 112l-80 -112h-53v10l96 159h78z" />
    <glyph glyph-name="Ycircumflex" unicode="&#x176;" horiz-adv-x="557" 
d="M184 781h-59v12l110 133h84l110 -133v-12h-62l-91 94zM531 724l-213 -467v-257h-81v257l-211 467h90l163 -374l163 374h89z" />
    <glyph glyph-name="ycircumflex" unicode="&#x177;" horiz-adv-x="490" 
d="M461 536l-176 -538c-32 -100 -107.333 -172 -226 -216l-27 68c44.667 17.333 81.167 37.5 109.5 60.5s49.833 50.5 64.5 82.5l-176 543h85l132 -445l130 445h84zM381 625v-10h-56l-81 112l-80 -112h-53v10l96 159h78z" />
    <glyph glyph-name="Ydieresis" unicode="&#x178;" horiz-adv-x="557" 
d="M152 811c-8.66699 9.33301 -13 22.3311 -13 38.998s4.33301 29.834 13 39.501s20.667 14.5 36 14.5c16 0 28.333 -4.66699 37 -14s13 -22.333 13 -39c0 -17.333 -4.33301 -30.666 -13 -39.999s-21 -14 -37 -14c-15.333 0 -27.333 4.66699 -36 14zM330 810.998
c-8.66699 9.33301 -13 22.3311 -13 38.998s4.33301 29.834 13 39.501s20.667 14.5 36 14.5c16 0 28.333 -4.66699 37 -14s13 -22.333 13 -39c0 -17.333 -4.33301 -30.666 -13 -39.999s-21 -14 -37 -14c-15.333 0 -27.333 4.66699 -36 14zM531 723.996l-213 -467v-257h-81
v257l-211 467h90l163 -374l163 374h89z" />
    <glyph glyph-name="Zacute" unicode="&#x179;" horiz-adv-x="512" 
d="M262 781h-68v12l143 133h99v-12zM472 71v-71h-435v72l340 581h-332v71h422v-71l-339 -582h344z" />
    <glyph glyph-name="zacute" unicode="&#x17a;" horiz-adv-x="427" 
d="M390 66v-66h-355v66l262 404h-254v66h343v-66l-262 -404h266zM163 625l93 159h89v-10l-124 -159h-58v10z" />
    <glyph glyph-name="Zdotaccent" unicode="&#x17b;" horiz-adv-x="512" 
d="M216 812.5c-9.33301 9.66699 -14 23.167 -14 40.5s4.66699 31 14 41s22.333 15 39 15s29.667 -4.83301 39 -14.5s14 -23.167 14 -40.5s-4.66699 -31 -14 -41s-22.333 -15 -39 -15s-29.667 4.83301 -39 14.5zM472 71v-71h-435v72l340 581h-332v71h422v-71l-339 -582h344z
" />
    <glyph glyph-name="zdotaccent" unicode="&#x17c;" horiz-adv-x="427" 
d="M390 66v-66h-355v66l262 404h-254v66h343v-66l-262 -404h266zM172 644.5c-9.33301 9.66699 -14 23.167 -14 40.5s4.66699 31 14 41s22.333 15 39 15s29.667 -4.83301 39 -14.5s14 -23.167 14 -40.5s-4.66699 -31 -14 -41s-22.333 -15 -39 -15s-29.667 4.83301 -39 14.5z
" />
    <glyph glyph-name="Zcaron" unicode="&#x17d;" horiz-adv-x="512" 
d="M213 781l-110 133v12h62l92 -94l91 94h59v-12l-110 -133h-84zM472 71v-71h-435v72l340 581h-332v71h422v-71l-339 -582h344z" />
    <glyph glyph-name="zcaron" unicode="&#x17e;" horiz-adv-x="427" 
d="M390 66v-66h-355v66l262 404h-254v66h343v-66l-262 -404h266zM346 784v-10l-96 -159h-78l-96 159v10h56l80 -112l81 112h53z" />
    <glyph glyph-name="longs" unicode="&#x17f;" horiz-adv-x="265" 
d="M299 771v-69c-20 2.66699 -36.333 4 -49 4c-58.667 0 -88 -35.333 -88 -106v-22v-578h-79v578v22c0 55.333 14.667 98.5 44 129.5s70.333 46.5 123 46.5c18 0 34.333 -1.66699 49 -5z" />
    <glyph glyph-name="uni0180" unicode="&#x180;" horiz-adv-x="537" 
d="M437.5 457.5c33.667 -48.333 50.499 -115.5 50.499 -201.5c0 -84.667 -17.5 -150.5 -52.5 -197.5s-84.167 -70.5 -147.5 -70.5c-27.333 0 -52.666 6 -75.999 18s-42.333 29 -57 51v-57h-72v621h-66v56h66v93h79v-93h208v-56h-208v-161c34.667 46.667 80 70 136 70
c59.333 0 105.833 -24.167 139.5 -72.5zM374.499 108.5c21 33 31.5 81.833 31.5 146.5c0 66 -11 115.833 -33 149.5s-54.667 50.5 -98 50.5c-22.667 0 -43 -4.83301 -61 -14.5s-35.333 -25.167 -52 -46.5v-278c16 -18 34.5 -32 55.5 -42s42.5 -15 64.5 -15
c40.667 0 71.5 16.5 92.5 49.5z" />
    <glyph glyph-name="uni0181" unicode="&#x181;" horiz-adv-x="648" 
d="M602 206c0 -64.667 -18.5 -115.165 -55.5 -151.498s-88.167 -54.5 -153.5 -54.5h-211h-49v651c-46.667 0 -70 -25.333 -70 -76c0 -4.66699 0.666992 -17.667 2 -39h-75c-2 11.333 -3 24 -3 38c0 47.333 12.833 84.166 38.5 110.499s61.5 39.5 107.5 39.5h80h147
c64 0 113.833 -17.333 149.5 -52s53.5 -83.334 53.5 -146.001c0 -78.667 -31 -126.667 -93 -144c88 -22 132 -80.667 132 -176zM213 652.002l0.000976562 -245h147c79.333 0 119 39.333 119 118c0 41.333 -10.333 72.833 -31 94.5s-51.334 32.5 -92.001 32.5h-143z
M517.001 206.002c0 43.333 -10.5 76 -31.5 98s-51.833 33 -92.5 33h-180v-265h185c79.333 0 119 44.667 119 134z" />
    <glyph glyph-name="uni0182" unicode="&#x182;" horiz-adv-x="584" 
d="M479.5 394.5c39 -39 58.5 -95.167 58.5 -168.5s-19.167 -129.333 -57.5 -168s-92.833 -58 -163.5 -58h-230v724h81h321v-65h-321v-206h145c72 0 127.5 -19.5 166.5 -58.5zM417.5 111.5c23.667 26.333 35.501 64.833 35.501 115.5c0 51.333 -11.333 90 -34 116
s-56.334 39 -101.001 39h-150v-310h145c46 0 80.833 13.167 104.5 39.5z" />
    <glyph glyph-name="uni0183" unicode="&#x183;" horiz-adv-x="535" 
d="M436.5 473c33 -50 49.5 -119.333 49.5 -208c0 -87.333 -17.333 -155.333 -52 -204s-83.334 -73 -146.001 -73c-27.333 0 -52.666 6 -75.999 18s-42.333 29 -57 51v-57h-72v66v429v275h79h249v-65h-249v-228c34.667 47.333 80 71 136 71c59.333 0 105.5 -25 138.5 -75z
M373 111c20.667 34.667 31.001 85.667 31.001 153c0 68.667 -10.833 120.667 -32.5 156s-53.834 53 -96.501 53c-22.667 0 -43 -5 -61 -15s-35.333 -25.667 -52 -47v-294c16 -18 34.5 -32.167 55.5 -42.5s42.5 -15.5 64.5 -15.5c40 0 70.333 17.333 91 52z" />
    <glyph glyph-name="uni0184" unicode="&#x184;" horiz-adv-x="565" 
d="M489 395c38.667 -38.667 57.999 -95 57.999 -169c0 -73.333 -19.167 -129.333 -57.5 -168s-92.833 -58 -163.5 -58h-230v519l-69 63v36l93 106h57v-199v-72h145c72.667 0 128.334 -19.333 167.001 -58zM426.499 111.5c23.667 26.333 35.501 64.833 35.501 115.5
s-11.333 89 -34 115s-56.334 39 -101.001 39h-150v-309h145c46 0 80.833 13.167 104.5 39.5z" />
    <glyph glyph-name="uni0185" unicode="&#x185;" horiz-adv-x="536" 
d="M437.5 473c33 -50 49.501 -119.333 49.501 -208c0 -87.333 -17.333 -155.333 -52 -204s-83.334 -73 -146.001 -73c-27.333 0 -52.5 6 -75.5 18s-42.167 29 -57.5 51v-57h-72v66v429v75l-61 68v28l85 104h55v-193v-100c34.667 47.333 80 71 136 71
c59.333 0 105.5 -25 138.5 -75zM374.001 111c20.667 34.667 31.001 85.667 31.001 153c0 68.667 -10.833 120.667 -32.5 156s-53.834 53 -96.501 53c-22 0 -42 -4.83301 -60 -14.5s-35.667 -25.167 -53 -46.5v-295c16 -18 34.5 -32.167 55.5 -42.5s42.5 -15.5 64.5 -15.5
c40 0 70.333 17.333 91 52z" />
    <glyph glyph-name="uni0186" unicode="&#x186;" horiz-adv-x="560" 
d="M434 640.5c53.333 -63 80.0029 -151.165 80.0029 -264.498c0 -78 -12.167 -146.333 -36.5 -205s-59 -103.834 -104 -135.501s-97.5 -47.5 -157.5 -47.5c-31.333 0 -62.333 4.33301 -93 13s-58.334 20.667 -83.001 36l28 64c51.333 -26 101 -39 149 -39
c66.667 0 118.667 27 156 81s56 129.333 56 226c0 95.333 -18.833 167.666 -56.5 216.999s-93.5 74 -167.5 74c-52 0 -99.333 -11.667 -142 -35l-29 63c21.333 14.667 47.666 26.167 78.999 34.5s64 12.5 98 12.5c95.333 0 169.666 -31.5 222.999 -94.5z" />
    <glyph glyph-name="uni0187" unicode="&#x187;" horiz-adv-x="654" 
d="M642 849l-0.00195312 -67.002c-21.333 1.33301 -34.333 2 -39 2c-55.333 0 -83 -26 -83 -78v-12v-71h-28c-51.333 26 -101 39 -149 39c-66.667 0 -118.667 -26.833 -156 -80.5s-56 -129.167 -56 -226.5c0 -95.333 18.833 -167.666 56.5 -216.999s93.5 -74 167.5 -74
c52 0 99.333 11.667 142 35l29 -63c-21.333 -14.667 -47.666 -26.167 -78.999 -34.5s-64 -12.5 -98 -12.5c-95.333 0 -169.666 31.5 -222.999 94.5s-80 151.167 -80 264.5c0 78 12.167 146.333 36.5 205s59 103.834 104 135.501s97.5 47.5 157.5 47.5c38 0 75 -6 111 -18
c2 42 16 74.667 42 98s61.667 35 107 35c12 0 24.667 -0.666992 38 -2z" />
    <glyph glyph-name="uni0188" unicode="&#x188;" horiz-adv-x="542" 
d="M533 665l0.000976562 -66.9971l-40 2c-55.333 0 -83 -26 -83 -78v-12v-68h-32c-41.333 22.667 -79 34 -113 34c-43.333 0 -77 -17.833 -101 -53.5s-36 -85.167 -36 -148.5c0 -69.333 12.667 -122 38 -158s62.666 -54 111.999 -54c38.667 0 75.334 10.667 110.001 32
l28 -60c-18 -14.667 -39.5 -25.834 -64.5 -33.501s-51.5 -11.5 -79.5 -11.5c-71.333 0 -126.833 24.5 -166.5 73.5s-59.5 117.5 -59.5 205.5c0 55.333 9.16699 104.166 27.5 146.499s44.166 75.166 77.499 98.499s72 35 116 35c24.667 0 50.667 -4.33301 78 -13
c2.66699 42 17 74.5 43 97.5s61.333 34.5 106 34.5c11.333 0 24.333 -0.666992 39 -2z" />
    <glyph glyph-name="uni0189" unicode="&#x189;" horiz-adv-x="646" 
d="M509 632c54 -61.333 80.999 -151.333 80.999 -270s-27.167 -208.667 -81.5 -270s-133.166 -92 -236.499 -92h-185v333h-62v68h62v323h189c101.333 0 179 -30.667 233 -92zM446.999 145.5c38.667 49 58 121.167 58 216.5s-19.667 167.5 -59 216.5s-97.333 73.5 -174 73.5
h-104v-251h176v-68h-176v-261h107c76 0 133.333 24.5 172 73.5z" />
    <glyph glyph-name="uni018A" unicode="&#x18a;" horiz-adv-x="691" 
d="M554 632c54 -61.333 81 -151.332 81 -269.999s-27.167 -208.667 -81.5 -270s-132.833 -92 -235.5 -92h-185v651c-46.667 0 -70 -25.333 -70 -76c0 -4.66699 0.666992 -17.667 2 -39h-75c-2 11.333 -3 24 -3 38c0 47.333 12.833 84.166 38.5 110.499s61.5 39.5 107.5 39.5
h188c101.333 0 179 -30.667 233 -92zM492 145.501c38.667 49 58 121.167 58 216.5s-19.667 167.5 -59 216.5s-97.333 73.5 -174 73.5h-103v-580h107c75.333 0 132.333 24.5 171 73.5z" />
    <glyph glyph-name="uni018B" unicode="&#x18b;" horiz-adv-x="584" 
d="M497 0h-230c-70.667 -0 -125.167 19.333 -163.5 58s-57.5 94.667 -57.5 168s19.5 129.5 58.5 168.5s94.5 58.5 166.5 58.5h145v206h-321v65h402v-724zM416 382h-149.999c-44.667 0 -78.334 -13 -101.001 -39s-34 -64.667 -34 -116c0 -50.667 11.833 -89.167 35.5 -115.5
s58.5 -39.5 104.5 -39.5h145v310z" />
    <glyph glyph-name="uni018C" unicode="&#x18c;" horiz-adv-x="535" 
d="M452 0h-70.002v70c-35.333 -54.667 -83.666 -82 -144.999 -82c-58.667 0 -104.5 24.833 -137.5 74.5s-49.5 119.167 -49.5 208.5c0 87.333 17.333 155.333 52 204s83.334 73 146.001 73c24.667 0 48 -5.16699 70 -15.5s40.333 -24.833 55 -43.5v216h-249v65h328v-770z
M320.998 78c18 10 35.333 25.667 52 47v295c-16 18 -34.5 32 -55.5 42s-42.5 15 -64.5 15c-40 0 -70.167 -17.333 -90.5 -52s-30.5 -85.667 -30.5 -153c0 -139.333 42.667 -209 128 -209c22.667 0 43 5 61 15z" />
    <glyph glyph-name="uni018D" unicode="&#x18d;" horiz-adv-x="519" 
d="M148 -208c-22.667 7.33301 -44.333 17 -65 29l29 64c22.667 -11.333 42 -20 58 -26s36.667 -9 62 -9c30.667 0 53.834 6.33301 69.501 19s23.5 31 23.5 55c0 20.667 -7.5 38.667 -22.5 54s-38.167 33.333 -69.5 54l-29 20c-31.333 22.667 -57.833 44.667 -79.5 66
s-39.5 48.166 -53.5 80.499s-21 70.5 -21 114.5c0 35.333 6 70.833 18 106.5s33.667 66 65 91s73.333 37.5 126 37.5c48.667 0 88.667 -11.167 120 -33.5s54.166 -50.833 68.499 -85.5s21.5 -71.667 21.5 -111c0 -54 -12.5 -103.833 -37.5 -149.5
s-64.833 -80.5 -119.5 -104.5c30 -22 52.5 -43.667 67.5 -65s22.5 -45.666 22.5 -72.999c0 -46 -15.167 -81.667 -45.5 -107s-72.833 -38 -127.5 -38c-31.333 0 -58.333 3.66699 -81 11zM350.501 182c25 36.667 37.499 81.667 37.499 135s-12.167 93.666 -36.5 120.999
s-55.166 41 -92.499 41c-40 0 -71.167 -15 -93.5 -45s-33.5 -69.667 -33.5 -119c0 -54.667 10.167 -97.167 30.5 -127.5s50.833 -58.166 91.5 -83.499c39.333 15.333 71.5 41.333 96.5 78z" />
    <glyph glyph-name="uni018E" unicode="&#x18e;" horiz-adv-x="537" 
d="M450 724v-724h-412v72h331v262h-237v73h237v245h-318v72h399z" />
    <glyph glyph-name="uni018F" unicode="&#x18f;" horiz-adv-x="642" 
d="M448 690.5c44.667 -29.667 78.8359 -72.499 102.503 -128.499s35.5 -123 35.5 -201c0 -77.333 -10.833 -144 -32.5 -200s-52.834 -98.667 -93.501 -128s-89.334 -44 -146.001 -44c-86 0 -153 30.833 -201 92.5s-72 147.5 -72 257.5c0 18 1.33301 35.667 4 53h458
c-4 83.333 -24.833 148.166 -62.5 194.499s-88.834 69.5 -153.501 69.5c-28.667 0 -58.667 -4.5 -90 -13.5s-61 -21.5 -89 -37.5l-31 67c28 20 60.5 35.5 97.5 46.5s74.833 16.5 113.5 16.5c62 0 115.333 -14.833 160 -44.5zM449.002 129.001
c31.333 43.333 49.335 107.333 54.002 192h-379c1.33301 -81.333 18.666 -144.5 51.999 -189.5s80 -67.5 140 -67.5c57.333 0 101.666 21.667 132.999 65z" />
    <glyph glyph-name="uni0190" unicode="&#x190;" horiz-adv-x="508" 
d="M502 38c-28 -16.667 -59.998 -29.1641 -95.998 -37.4971s-72.333 -12.5 -109 -12.5c-78.667 0 -141 18.5 -187 55.5s-69 91.167 -69 162.5c0 89.333 45 147.666 135 174.999c-35.333 15.333 -62.333 36.666 -81 63.999s-28 60.666 -28 99.999
c0 61.333 21.167 108.5 63.5 141.5s96.833 49.5 163.5 49.5c65.333 0 125.333 -15.333 180 -46l-27 -63c-50.667 24.667 -100.334 37 -149.001 37c-43.333 0 -78.5 -11 -105.5 -33s-40.5 -53.333 -40.5 -94c0 -42 11.5 -74.167 34.5 -96.5s56.5 -33.5 100.5 -33.5h100v-71
h-107c-102.667 0 -154 -43 -154 -129c0 -47.333 14.667 -83.333 44 -108s72.666 -37 129.999 -37c29.333 0 58.833 3.5 88.5 10.5s56.5 16.833 80.5 29.5z" />
    <glyph glyph-name="uni0191" unicode="&#x191;" horiz-adv-x="499" 
d="M168 652v-258h255v-73h-255v-155h1v-229c0 -102.667 -46.333 -154 -139 -154c-20.667 0 -39 3.33301 -55 10l11 68c12.667 -4 27 -6 43 -6c20 0 34.833 6.66699 44.5 20s14.5 34 14.5 62v63h-1v724h393v-72h-312z" />
    <glyph glyph-name="florin" unicode="&#x192;" horiz-adv-x="500" 
d="M299 572l-19.9961 -157h144v-66h-152l-50 -388c-6.66699 -53.333 -24.5 -94.833 -53.5 -124.5s-66.167 -44.5 -111.5 -44.5c-16.667 0 -33.334 1.66699 -50.001 5l11 73c17.333 -2.66699 29 -4 35 -4c25.333 0 45.666 8.33301 60.999 25s24.666 41 27.999 73l49 385h-104
v66h113l20 160c6.66699 50.667 24.5 90.167 53.5 118.5s66.167 42.5 111.5 42.5c22.667 0 44 -3.5 64 -10.5s36.667 -16.833 50 -29.5l-38 -60c-24.667 17.333 -50.334 26 -77.001 26c-48 0 -76 -30 -84 -90z" />
    <glyph glyph-name="uni0193" unicode="&#x193;" horiz-adv-x="711" 
d="M665 849v-67l-40 2c-55.333 0 -83 -26 -83 -78v-12v-71h-25c-51.333 26.667 -103.333 40 -156 40c-72.667 0 -127.5 -25.333 -164.5 -76s-55.5 -125.667 -55.5 -225s18.667 -174.5 56 -225.5s92.666 -76.5 165.999 -76.5c38.667 0 76.334 6 113.001 18v233h-124v71h205
v-344c-24.667 -16 -54.167 -28.333 -88.5 -37s-69.5 -13 -105.5 -13c-64 0 -119 14.833 -165 44.5s-81.167 72.5 -105.5 128.5s-36.5 123 -36.5 201s12.167 145 36.5 201s59.5 98.833 105.5 128.5s101 44.5 165 44.5c40 0 78 -5.33301 114 -16
c2.66699 41.333 17 73.5 43 96.5s61.333 34.5 106 34.5c11.333 0 24.333 -0.666992 39 -2z" />
    <glyph glyph-name="uni0194" unicode="&#x194;" horiz-adv-x="601" 
d="M389 43c14.667 -39.333 22 -72.332 22 -98.999c0 -36 -9.66699 -64 -29 -84s-46.333 -30 -81 -30c-34 0 -60.667 9.83301 -80 29.5s-29 47.5 -29 83.5c0 27.333 7.66699 60.666 23 99.999l47 122l-228 559h88l179 -458l179 458h87l-227 -556zM338 -54.999
c0 24 -7.00098 52.668 -21.001 86.001l-17 41l-16 -41c-14.667 -36 -22 -64.667 -22 -86c0 -16.667 3.33301 -29.334 10 -38.001s16.334 -13 29.001 -13c24.667 0 37 17 37 51z" />
    <glyph glyph-name="uni0195" unicode="&#x195;" horiz-adv-x="846" 
d="M763 279c0 -96.667 -15.6689 -169.5 -47.002 -218.5s-80.666 -73.5 -147.999 -73.5c-59.333 0 -104.166 17.167 -134.499 51.5s-45.5 80.833 -45.5 139.5v141v61c0 62 -33.667 93 -101 93c-24 0 -46 -4.16699 -66 -12.5s-39.667 -21.166 -59 -38.499v-422h-79v770h79
v-284c40 41.333 89.333 62 148 62c49.333 0 87.833 -14.333 115.5 -43s41.5 -68 41.5 -118v-187v-4c0 -90.667 34.667 -136 104 -136c41.333 0 69.833 17.5 85.5 52.5s23.5 90.167 23.5 165.5c0 56 -2.33301 103.667 -7 143s-12 77.666 -22 114.999h84
c18.667 -70 28 -155.667 28 -257z" />
    <glyph glyph-name="uni0196" unicode="&#x196;" horiz-adv-x="271" 
d="M113 22c-17.333 18.667 -26 46 -26 82v620h81v-613c0 -29.333 13.333 -44 40 -44c11.333 0 23.333 1.33301 36 4l7 -69c-20 -5.33301 -40.333 -8 -61 -8c-34 0 -59.667 9.33301 -77 28z" />
    <glyph glyph-name="uni0197" unicode="&#x197;" horiz-adv-x="289" 
d="M270 339h-85v-339h-81v339h-85v68h85v317h81v-317h85v-68z" />
    <glyph glyph-name="uni0198" unicode="&#x198;" horiz-adv-x="585" 
d="M496.5 649.5c-10.333 -9 -24.1699 -24.833 -41.5029 -47.5l-151 -201l276 -401h-100l-227 333l-85 -113v-220h-81v724h81v-396l229 326c20.667 28.667 41.334 49.667 62.001 63s44 20 70 20c36.667 0 68 -16 94 -48l-43 -56c-11.333 10 -21.166 17.5 -29.499 22.5
s-16.5 7.5 -24.5 7.5c-9.33301 0 -19.166 -4.5 -29.499 -13.5z" />
    <glyph glyph-name="uni0199" unicode="&#x199;" horiz-adv-x="493" 
d="M229 248l-67 -80v-168h-79v536v101c0 46 10.833 80.667 32.5 104s53.167 35 94.5 35c22 0 41 -3.33301 57 -10l-10 -62c-12.667 4 -27.334 6 -44.001 6c-17.333 0 -30.166 -5.83301 -38.499 -17.5s-12.5 -30.167 -12.5 -55.5v-268v-104l214 271h97l-191 -226l200 -310
h-96z" />
    <glyph glyph-name="uni019A" unicode="&#x19a;" horiz-adv-x="319" 
d="M280 3c-20 -5.33301 -40.334 -8 -61.001 -8c-35.333 0 -62.666 9.66699 -81.999 29s-29 47.333 -29 84v254h-80v61h80v347h79v-347h88v-61h-88v-247c0 -18 4 -30.833 12 -38.5s20.333 -11.5 37 -11.5c12.667 0 24.667 1.33301 36 4z" />
    <glyph glyph-name="uni019B" unicode="&#x19b;" horiz-adv-x="490" 
d="M377 0l-129.999 445l-132 -445h-85l176 543c-5.33301 12 -12.333 24.333 -21 37l-112 -60h-11v54l86 46c-28.667 24.667 -67.334 46.667 -116.001 66l27 68c64.667 -24 116.667 -56.667 156 -98l106 57h11v-54l-83 -45c14.667 -22 26.667 -47.333 36 -76l176 -538h-84z
" />
    <glyph glyph-name="uni019C" unicode="&#x19c;" horiz-adv-x="833" 
d="M746 724v-724h-73v58c-40.667 -46.667 -90 -70 -148 -70c-32.667 0 -60.5 6.83301 -83.5 20.5s-40.167 33.167 -51.5 58.5c-22 -26 -46.167 -45.667 -72.5 -59s-53.833 -20 -82.5 -20c-46 0 -82.167 14 -108.5 42s-39.5 67.333 -39.5 118v576h81v-568
c0 -62 30 -93 90 -93c40.667 0 80 17.667 118 53c-1.33301 13.333 -2 24 -2 32v576h81v-568c0 -62 31 -93 93 -93c40 0 79 17 117 51v610h81z" />
    <glyph glyph-name="uni019D" unicode="&#x19d;" horiz-adv-x="677" 
d="M589 724l-0.000976562 -724h-76l-347 581v-581v-63c0 -50.667 -11.5 -89 -34.5 -115s-57.167 -39 -102.5 -39c-20.667 0 -39.667 3.33301 -57 10l12 68c12.667 -4 27 -6 43 -6c20.667 0 35.834 6.5 45.501 19.5s14.5 33.833 14.5 62.5v229v558h76l347 -580v580h79z" />
    <glyph glyph-name="uni019E" unicode="&#x19e;" horiz-adv-x="543" 
d="M423.5 505c27.667 -28.667 41.499 -68.001 41.499 -118.001v-387v-207h-79v272v315c0 62 -33.667 93 -101 93c-23.333 0 -44.833 -4.16699 -64.5 -12.5s-39.167 -21.166 -58.5 -38.499v-422h-79v536h71v-59c41.333 47.333 93 71 155 71
c48.667 0 86.834 -14.333 114.501 -43z" />
    <glyph glyph-name="uni019F" unicode="&#x19f;" horiz-adv-x="665" 
d="M537.5 641c47.667 -63.333 71.5 -156.333 71.5 -279s-23.833 -215.667 -71.5 -279s-116.167 -95 -205.5 -95s-157.666 31.667 -204.999 95s-71 156.333 -71 279s23.667 215.667 71 279s115.666 95 204.999 95s157.833 -31.667 205.5 -95zM195.5 597.5
c-32.333 -44.333 -50.501 -110.166 -54.501 -197.499h383c-4 87.333 -22.167 153.166 -54.5 197.499s-78.166 66.5 -137.499 66.5c-58.667 0 -104.167 -22.167 -136.5 -66.5zM470.999 128.5c32.667 45.667 50.334 113.167 53.001 202.5h-384
c3.33301 -89.333 21.166 -156.833 53.499 -202.5s78.5 -68.5 138.5 -68.5s106.333 22.833 139 68.5z" />
    <glyph glyph-name="Ohorn" unicode="&#x1a0;" horiz-adv-x="665" 
d="M619.5 703.5c-21 -21.667 -55.833 -33.833 -104.5 -36.5c62.667 -64 94 -165.667 94 -305c0 -122.667 -23.833 -215.667 -71.5 -279s-116.167 -95 -205.5 -95s-157.666 31.667 -204.999 95s-71 156.333 -71 279s23.667 215.667 71 279s115.666 95 204.999 95
c29.333 0 58 -4 86 -12c12.667 -3.33301 23.667 -5.83301 33 -7.5s21 -2.5 35 -2.5c34 0 57.667 6.5 71 19.5s20 35.833 20 68.5c0 14.667 -1.33301 35 -4 61h73c3.33301 -20 5 -39.667 5 -59c0 -45.333 -10.5 -78.833 -31.5 -100.5zM475.5 587.501
c-32.333 51 -80.168 76.5 -143.501 76.5c-62.667 0 -110.167 -25.5 -142.5 -76.5s-48.5 -126.167 -48.5 -225.5s16.167 -174.5 48.5 -225.5s79.833 -76.5 142.5 -76.5s110.334 25.5 143.001 76.5s49 126.167 49 225.5s-16.167 174.5 -48.5 225.5z" />
    <glyph glyph-name="ohorn" unicode="&#x1a1;" horiz-adv-x="529" 
d="M502 524c-20 -20 -52.999 -31.666 -98.999 -34.999c44 -46 66 -119.667 66 -221c0 -91.333 -18.167 -160.833 -54.5 -208.5s-88.166 -71.5 -155.499 -71.5s-119 23.833 -155 71.5s-54 117.167 -54 208.5s18.167 160.833 54.5 208.5s88.166 71.5 155.499 71.5
c14 0 30.333 -2 49 -6c21.333 -4 41.666 -6 60.999 -6c34.667 0 58.667 5.66699 72 17s20 31.666 20 60.999c0 16.667 -1.66699 37 -5 61h70c3.33301 -20 5 -39.667 5 -59c0 -41.333 -10 -72 -30 -92zM387.001 268.001c0 69.333 -10.667 121.666 -32 156.999s-53 53 -95 53
c-85.333 0 -128 -70 -128 -210c0 -69.333 10.667 -121.666 32 -156.999s53 -53 95 -53c85.333 0 128 70 128 210z" />
    <glyph glyph-name="uni01A2" unicode="&#x1a2;" horiz-adv-x="826" 
d="M739 724l0.000976562 -932.002h-81v860h-94v-612c-56.667 -33.333 -133.667 -50 -231 -50c-90.667 0 -159.5 31.333 -206.5 94s-70.5 155.334 -70.5 278.001c0 124.667 22.5 217.834 67.5 279.501s114.833 92.5 209.5 92.5c13.333 0 30 -1 50 -3
c57.333 -4.66699 117.666 -7 180.999 -7h175zM483.001 81.998v572l-39 3c-7.33301 0.666992 -22 1.66699 -44 3s-44.333 2 -67 2c-128 0 -192 -100 -192 -300s64 -300 192 -300c62 0 112 6.66699 150 20z" />
    <glyph glyph-name="uni01A3" unicode="&#x1a3;" horiz-adv-x="681" 
d="M598 536l0.000976562 -741.999h-79v672h-80v-451c-68 -16.667 -127.333 -25 -178 -25c-68 0 -120.167 23.5 -156.5 70.5s-54.5 116.167 -54.5 207.5s18.333 160.5 55 207.5s89 70.5 157 70.5c10.667 0 20 -0.333008 28 -1s15.333 -1.33398 22 -2.00098
c43.333 -4.66699 85.666 -7 126.999 -7h159zM360.001 68.001v400.999c-26 3.33301 -51.667 5.33301 -77 6l-21 1c-43.333 0.666992 -75.833 -16.666 -97.5 -51.999s-32.5 -87.333 -32.5 -156c0 -138.667 43 -208 129 -208c35.333 0 68.333 2.66699 99 8z" />
    <glyph glyph-name="uni01A4" unicode="&#x1a4;" horiz-adv-x="601" 
d="M526.5 662.5c37.667 -41 56.5 -97.832 56.5 -170.499c0 -73.333 -19.167 -130.5 -57.5 -171.5s-91.833 -61.5 -160.5 -61.5h-151v-259h-81v651c-46.667 0 -70 -25.333 -70 -76c0 -4.66699 0.666992 -17.667 2 -39h-75c-2 11.333 -3 24 -3 38
c0 47.333 12.833 84.166 38.5 110.499s61.5 39.5 107.5 39.5h81h155c67.333 0 119.833 -20.5 157.5 -61.5zM465 371.501c22 27 33 66.833 33 119.5s-11.333 92.667 -34 120s-55.667 41 -99 41h-151v-321h155c42 0 74 13.5 96 40.5z" />
    <glyph glyph-name="uni01A5" unicode="&#x1a5;" horiz-adv-x="535" 
d="M436.5 473c33 -50 49.501 -119.333 49.501 -208c0 -87.333 -17.333 -155.333 -52 -204s-83.334 -73 -146.001 -73c-25.333 0 -48.833 5 -70.5 15s-40.167 24.667 -55.5 44v-254h-79v600v143v101c0 46 10.833 80.667 32.5 104s53.167 35 94.5 35c22 0 41 -3.33301 57 -10
l-10 -62c-12.667 4 -27.334 6 -44.001 6c-17.333 0 -30.166 -5.83301 -38.499 -17.5s-12.5 -30.167 -12.5 -55.5v-160c34.667 47.333 80 71 136 71c59.333 0 105.5 -25 138.5 -75zM373.001 111c20.667 34.667 31.001 85.667 31.001 153c0 68.667 -10.833 120.667 -32.5 156
s-53.834 53 -96.501 53c-22.667 0 -43 -5 -61 -15s-35.333 -25.667 -52 -47v-295c16 -18 34.5 -32 55.5 -42s42.5 -15 64.5 -15c40 0 70.333 17.333 91 52z" />
    <glyph glyph-name="uni01A6" unicode="&#x1a6;" horiz-adv-x="578" 
d="M522 -110l-208 345h-4h-142v-235h-81v724h81v-82h146c65.333 0 116.333 -18.333 153 -55s55 -86 55 -148c0 -46.667 -10.5 -86.5 -31.5 -119.5s-51.5 -56.5 -91.5 -70.5l222 -359h-99zM168 306h146.001c41.333 0 72.166 11.5 92.499 34.5s30.5 55.5 30.5 97.5
s-10.5 74.5 -31.5 97.5s-52.833 34.5 -95.5 34.5h-142v-264z" />
    <glyph glyph-name="uni01A7" unicode="&#x1a7;" horiz-adv-x="525" 
d="M109 46c-41.333 38 -62 88.668 -62 152.001c0 52.667 13.167 95 39.5 127s68.166 56 125.499 72l82 23c35.333 9.33301 61.333 24.166 78 44.499s25 47.5 25 81.5c0 36.667 -11.833 65.334 -35.5 86.001s-56.5 31 -98.5 31c-44 0 -100.667 -13.667 -170 -41l-27 68
c31.333 14.667 64.166 25.834 98.499 33.501s66.5 11.5 96.5 11.5c66 0 118.667 -18.333 158 -55s59 -85.334 59 -146.001c0 -52.667 -13.167 -94.834 -39.5 -126.501s-68.166 -55.5 -125.499 -71.5l-82 -23c-35.333 -9.33301 -61.166 -24.333 -77.499 -45
s-24.5 -48 -24.5 -82c0 -39.333 12.5 -70 37.5 -92s60.833 -33 107.5 -33c60 0 121.333 18 184 54l28 -68c-30 -18.667 -63.667 -33 -101 -43s-74.333 -15 -111 -15c-68.667 0 -123.667 19 -165 57z" />
    <glyph glyph-name="uni01A8" unicode="&#x1a8;" horiz-adv-x="434" 
d="M91 31.5c-32.667 28.333 -48.999 67.833 -48.999 118.5c0 41.333 10.667 74.333 32 99s55 42.334 101 53.001l71 17c24 6 41.5 15.167 52.5 27.5s16.5 29.166 16.5 50.499c0 53.333 -32.667 80 -98 80c-40 0 -83 -12 -129 -36l-30 66c22.667 12 47.834 21.667 75.501 29
s54.834 11 81.501 11c56 0 99.667 -13.833 131 -41.5s47 -66.167 47 -115.5c0 -40 -10.5 -71.833 -31.5 -95.5s-54.5 -40.834 -100.5 -51.501l-71 -17c-24 -6 -41.667 -15.667 -53 -29s-17 -31 -17 -53c0 -28 9 -49.333 27 -64s45 -22 81 -22c50.667 0 98.667 14.667 144 44
l28 -65c-22.667 -15.333 -48.834 -27.166 -78.501 -35.499s-60.834 -12.5 -93.501 -12.5c-58.667 0 -104.334 14.167 -137.001 42.5z" />
    <glyph glyph-name="uni01A9" unicode="&#x1a9;" horiz-adv-x="538" 
d="M48 72l225 295l-225 286v71h452v-71h-357l229 -286l-229 -296h357v-71h-452v72z" />
    <glyph glyph-name="uni01AA" unicode="&#x1aa;" horiz-adv-x="285" 
d="M339 -144v-69c-14.667 -3.33301 -31.334 -5 -50.001 -5c-52 0 -92.667 15.5 -122 46.5s-44 74.167 -44 129.5v105v509c-5.33301 -5.33301 -13.5 -9.83301 -24.5 -13.5s-22.5 -5.5 -34.5 -5.5c-34 0 -60.5 10 -79.5 30s-28.5 47.667 -28.5 83c0 38 10.5 67.5 31.5 88.5
s50.5 31.5 88.5 31.5s68.5 -11.167 91.5 -33.5s34.5 -51.833 34.5 -88.5v-654v-52c0 -34.667 7.33301 -61 22 -79s36.334 -27 65.001 -27c13.333 0 30 1.33301 50 4zM124 668c0 16.667 -4 29.667 -12 39s-19.333 14 -34 14c-30 0 -45 -18 -45 -54s15 -54 45 -54
c30.667 0 46 18.333 46 55z" />
    <glyph glyph-name="uni01AB" unicode="&#x1ab;" horiz-adv-x="349" 
d="M333 7l-0.000976562 -84c0 -92.667 -41.333 -139 -124 -139c-24 0 -44 3.33301 -60 10l10 63c9.33301 -4 25.333 -6 48 -6c18.667 0 32.667 5.83301 42 17.5s14 30.167 14 55.5v70h-8c-52 0 -91.333 14 -118 42s-40 69.667 -40 125v309h-85v66h86v158h78v-158h150v-66
h-150v-297c0 -38 7.33301 -65.667 22 -83s37.667 -26 69 -26c20.667 0 38.334 3 53.001 9l12 -66h1z" />
    <glyph glyph-name="uni01AC" unicode="&#x1ac;" horiz-adv-x="488" 
d="M464 651h-179v-651h-81v651h-60h-2c-46 0 -69 -25.333 -69 -76c0 -4.66699 0.666992 -17.667 2 -39h-76c-1.33301 14.667 -2 27.334 -2 38.001c0 47.333 12.833 84.166 38.5 110.499s61.167 39.5 106.5 39.5h143h179v-73z" />
    <glyph glyph-name="uni01AD" unicode="&#x1ad;" horiz-adv-x="349" 
d="M333 6c-20 -8 -46.002 -12.001 -78.002 -12.001c-52 0 -91.333 14 -118 42s-40 69.667 -40 125v309h-85v66h85v72c0 52.667 15.833 93.834 47.5 123.501s76.167 44.5 133.5 44.5c18 0 33.333 -1.33301 46 -4v-70c-16.667 2 -32 3 -46 3
c-33.333 0 -58.666 -8.16699 -75.999 -24.5s-26 -40.5 -26 -72.5v-72h150v-66h-150v-297c0 -38 7.33301 -65.667 22 -83s37.667 -26 69 -26c20.667 0 38.334 3 53.001 9z" />
    <glyph glyph-name="uni01AE" unicode="&#x1ae;" horiz-adv-x="489" 
d="M284 0v-63c0 -28 4.83301 -48.667 14.5 -62s24.5 -20 44.5 -20c16 0 30.333 2 43 6l11 -68c-16 -6.66699 -34.333 -10 -55 -10c-92.667 0 -139 51.333 -139 154v229h1v485h-180v73h261h180v-73h-180v-651h-1z" />
    <glyph glyph-name="Uhorn" unicode="&#x1af;" horiz-adv-x="640" 
d="M642 716c-17.333 -20 -45.3311 -32.999 -83.998 -38.999v-430c0 -82 -20.833 -145.667 -62.5 -191s-99.834 -68 -174.501 -68c-75.333 0 -134 22.667 -176 68s-63 109 -63 191v477h81v-476c0 -62 13.333 -108.833 40 -140.5s66 -47.5 118 -47.5
c51.333 0 90.166 15.833 116.499 47.5s39.5 78.5 39.5 140.5v476h26c34.667 0 58.667 5.66699 72 17s20 31.666 20 60.999c0 16.667 -1.66699 37 -5 61h73c3.33301 -20 5 -39.667 5 -59c0 -38.667 -8.66699 -68 -26 -88z" />
    <glyph glyph-name="uhorn" unicode="&#x1b0;" horiz-adv-x="536" 
d="M535.5 528c-17 -20 -44.833 -32.667 -83.5 -38v-490h-71v66c-17.333 -25.333 -38.666 -44.666 -63.999 -57.999s-54.333 -20 -87 -20c-48.667 0 -86.5 14 -113.5 42s-40.5 67 -40.5 117v389h79v-380c0 -62 32.333 -93 97 -93c24.667 0 46.667 4.66699 66 14
s37.666 24.333 54.999 45v414h28c34 0 57.667 5.66699 71 17s20 31.666 20 60.999c0 16.667 -1.66699 37 -5 61h69c3.33301 -20 5 -39.667 5 -59c0 -38.667 -8.5 -68 -25.5 -88z" />
    <glyph glyph-name="uni01B1" unicode="&#x1b1;" horiz-adv-x="688" 
d="M193 29c-42 27.333 -73.668 65.3301 -95.001 113.997s-32 105 -32 169c0 140 43 253.667 129 341h-139v71h247v-72c-44.667 -33.333 -81 -77.166 -109 -131.499s-42 -119.833 -42 -196.5c0 -69.333 12.333 -130.666 37 -183.999s76.667 -80 156 -80
c68.667 0 117.834 24.333 147.501 73s44.5 112.334 44.5 191.001c0 136 -50.333 245.333 -151 328v72h246v-71h-143c42 -44 74.667 -93.833 98 -149.5s35 -119.5 35 -191.5c0 -64 -10.5 -120.333 -31.5 -169s-52.333 -86.667 -94 -114s-92.167 -41 -151.5 -41
s-110 13.667 -152 41z" />
    <glyph glyph-name="uni01B2" unicode="&#x1b2;" horiz-adv-x="640" 
d="M558 353l0.00195312 -106c0 -82 -20.833 -145.667 -62.5 -191s-99.834 -68 -174.501 -68c-75.333 0 -134 22.667 -176 68s-63 109 -63 191v477h81v-476c0 -62 13.333 -108.833 40 -140.5s66 -47.5 118 -47.5c51.333 0 90.166 15.833 116.499 47.5s39.5 78.5 39.5 140.5
v191v143c0 28 -4.83301 48.667 -14.5 62s-24.5 20 -44.5 20c-16 0 -30.333 -2 -43 -6l-11 68c16 6.66699 34.333 10 55 10c92.667 0 139 -51.333 139 -154v-229z" />
    <glyph glyph-name="uni01B3" unicode="&#x1b3;" horiz-adv-x="614" 
d="M606.5 705c18.333 -22.667 28.833 -56 31.5 -100l-67 -13c-6 47.333 -19.667 71 -41 71c-9.33301 0 -18 -4.16699 -26 -12.5s-16.333 -21.833 -25 -40.5l-161 -353v-257h-81v257l-211 467h90l163 -375l127 289c14.667 34.667 32 60.167 52 76.5s44 24.5 72 24.5
c32.667 0 58.167 -11.333 76.5 -34z" />
    <glyph glyph-name="uni01B4" unicode="&#x1b4;" horiz-adv-x="590" 
d="M580 617.5c18 -21.667 28.334 -53.833 31.001 -96.5l-66 -12c-2.66699 23.333 -7.33398 40.5 -14.001 51.5s-15.667 16.5 -27 16.5c-10.667 0 -20.167 -5.66699 -28.5 -17s-16.5 -29.333 -24.5 -54l-166 -508c-32 -100 -107.333 -172 -226 -216l-27 68
c44.667 17.333 81.167 37.5 109.5 60.5s49.833 50.5 64.5 82.5l-176 543h85l132 -445l131 446c21.333 75.333 63.333 113 126 113c32.667 0 58 -10.833 76 -32.5z" />
    <glyph glyph-name="uni01B5" unicode="&#x1b5;" horiz-adv-x="512" 
d="M472 71v-71h-435v72l160 274h-122v66h161l141 241h-332v71h422v-71l-141 -241h108v-66h-146l-160 -275h344z" />
    <glyph glyph-name="uni01B6" unicode="&#x1b6;" horiz-adv-x="427" 
d="M390 66v-66h-355v66l116 179h-95v56h131l110 169h-254v66h343v-66l-110 -169h98v-56h-134l-116 -179h266z" />
    <glyph glyph-name="uni01B7" unicode="&#x1b7;" horiz-adv-x="529" 
d="M480 220c0 -75.333 -23.833 -132.831 -71.5 -172.498s-110.167 -59.5 -187.5 -59.5c-82.667 0 -152.667 17.667 -210 53l31 64c57.333 -28.667 116.333 -43 177 -43c56.667 0 100.167 13.667 130.5 41s45.5 66.666 45.5 117.999s-17.5 88.166 -52.5 110.499
s-85.5 33.5 -151.5 33.5h-39v65l191 222h-297v72h392v-73l-192 -222c156 -12 234 -81.667 234 -209z" />
    <glyph glyph-name="uni01B8" unicode="&#x1b8;" horiz-adv-x="529" 
d="M518 41c-57.333 -35.333 -127.333 -53.002 -210 -53.002c-77.333 0 -139.833 19.833 -187.5 59.5s-71.5 97.167 -71.5 172.5c0 127.333 78 197 234 209l-192 222v73h392v-72h-297l192 -222v-65h-40c-66 0 -116.5 -11.167 -151.5 -33.5s-52.5 -59.166 -52.5 -110.499
s15.167 -90.666 45.5 -117.999s73.833 -41 130.5 -41c60.667 0 119.667 14.333 177 43z" />
    <glyph glyph-name="uni01B9" unicode="&#x1b9;" horiz-adv-x="469" 
d="M447 -181c-44.667 -26 -101.334 -38.999 -170.001 -38.999c-44.667 0 -85 8.33301 -121 25s-64.5 42 -85.5 76s-31.5 76 -31.5 126c0 66.667 19.833 116.667 59.5 150s93.834 52.666 162.501 57.999l-184 254v67h353v-66h-264l179 -254v-63h-42
c-121.333 0 -182 -49 -182 -147c0 -50 14.167 -88.5 42.5 -115.5s67.5 -40.5 117.5 -40.5c44 0 89.333 10.667 136 32z" />
    <glyph glyph-name="uni01BA" unicode="&#x1ba;" horiz-adv-x="428" 
d="M258 -123.5c30 7 59.001 17.499 87.001 31.499l27 -63c-35.333 -16.667 -68.833 -28.334 -100.5 -35.001s-63.834 -10 -96.501 -10c-54.667 0 -97.167 11.167 -127.5 33.5s-45.5 54.833 -45.5 97.5c0 36.667 10 64.167 30 82.5s41.667 29.833 65 34.5s49 7.66699 77 9
c30 1.33301 54 4 72 8s32.667 12.333 44 25s17 32.334 17 59.001c0 36 -12.5 62 -37.5 78s-65.5 24 -121.5 24h-33v60l141 158h-235v67h332v-69l-145 -156c62 -4.66699 107.667 -19.834 137 -45.501s44 -63.5 44 -113.5c0 -45.333 -10.167 -79.666 -30.5 -102.999
s-45.5 -38.833 -75.5 -46.5s-66 -12.5 -108 -14.5c-28 -0.666992 -51 -4.66699 -69 -12s-27 -22.666 -27 -45.999c0 -42.667 33.667 -64 101 -64c22 0 48 3.5 78 10.5z" />
    <glyph glyph-name="uni01BB" unicode="&#x1bb;" horiz-adv-x="490" 
d="M325 327l-198 -258.001h309v-69h-402v70l196 257h-183v65h233c24.667 33.333 42 61.333 52 84s15 45.334 15 68.001c0 36.667 -10.667 65.5 -32 86.5s-51 31.5 -89 31.5c-26 0 -52.833 -4.83301 -80.5 -14.5s-53.167 -23.167 -76.5 -40.5l-37 62
c24.667 20 55.167 36.167 91.5 48.5s72.5 18.5 108.5 18.5c59.333 0 106.833 -16.833 142.5 -50.5s53.5 -78.167 53.5 -133.5c0 -26 -4.33301 -51.667 -13 -77s-22.667 -53 -42 -83h63v-65h-111z" />
    <glyph glyph-name="uni01BC" unicode="&#x1bc;" horiz-adv-x="507" 
d="M460 227c0 -72.667 -20.499 -130.666 -61.499 -173.999s-96.833 -65 -167.5 -65c-32 0 -64.5 4.83301 -97.5 14.5s-61.167 22.5 -84.5 38.5l31 68c23.333 -14.667 48.333 -26.167 75 -34.5s52 -12.5 76 -12.5c47.333 0 83.666 14.5 108.999 43.5s38 69.167 38 120.5
c0 49.333 -13.167 87.166 -39.5 113.499s-67.833 41.5 -124.5 45.5l-118 8v262h-77v69h127h285v-69h-256v-199l62 -5c148.667 -13.333 223 -88 223 -224z" />
    <glyph glyph-name="uni01BD" unicode="&#x1bd;" horiz-adv-x="438" 
d="M345.5 282.5c33.667 -27 50.502 -66.166 50.502 -117.499c0 -56 -17.5 -99.5 -52.5 -130.5s-83.5 -46.5 -145.5 -46.5c-26.667 0 -54.334 4 -83.001 12s-53.334 18 -74.001 30l27 62c19.333 -10.667 40.5 -18.834 63.5 -24.501s45.167 -8.5 66.5 -8.5
c38 0 66.833 9 86.5 27s29.5 44.333 29.5 79c0 32 -11.5 56.5 -34.5 73.5s-53.833 26.833 -92.5 29.5l-106 7v195h-67v66h110h247v-66h-213v-137l45 -3c61.333 -4.66699 108.833 -20.5 142.5 -47.5z" />
    <glyph glyph-name="uni01BE" unicode="&#x1be;" horiz-adv-x="464" 
d="M133.5 4c-33 10 -60.832 22.668 -83.499 38.001l27 65c23.333 -14.667 48.333 -26.5 75 -35.5s52.334 -13.5 77.001 -13.5c36 0 63 7.16699 81 21.5s27 34.833 27 61.5c0 22.667 -6.33301 40.167 -19 52.5s-32 25.833 -58 40.5c-22 12 -39.833 23 -53.5 33
s-25.334 24.167 -35.001 42.5s-14.5 41.5 -14.5 69.5v91h-86v66h86v158h79v-158h149v-66h-149v-87c0 -22.667 6.5 -40.5 19.5 -53.5s32.5 -26.5 58.5 -40.5c21.333 -12 38.833 -23.167 52.5 -33.5s25.167 -24.333 34.5 -42s14 -39.834 14 -66.501
c0 -50 -16.333 -88.833 -49 -116.5s-78.334 -41.5 -137.001 -41.5c-30.667 0 -62.5 5 -95.5 15z" />
    <glyph glyph-name="uni01BF" unicode="&#x1bf;" horiz-adv-x="525" 
d="M433 494c28.667 -36 43 -86 43 -150c0 -40.667 -6.5 -77 -19.5 -109s-34.167 -63.333 -63.5 -94s-69.666 -64.667 -120.999 -102l-110 -79v-167h-79v743h73v-76c39.333 58.667 91.666 88 156.999 88c51.333 0 91.333 -18 120 -54zM363.5 217
c20.333 33.333 30.5 72.667 30.5 118c0 92 -34 138 -102 138c-23.333 0 -45.5 -5.66699 -66.5 -17s-42.167 -29.333 -63.5 -54v-359l92 67c52.667 38 89.167 73.667 109.5 107z" />
    <glyph glyph-name="uni01C0" unicode="&#x1c0;" horiz-adv-x="250" 
d="M89 770h72v-770h-72v770z" />
    <glyph glyph-name="uni01C1" unicode="&#x1c1;" horiz-adv-x="390" 
d="M89 770h72v-770h-72v770zM229 770h72v-770h-72v770z" />
    <glyph glyph-name="uni01C2" unicode="&#x1c2;" horiz-adv-x="315" 
d="M193 464v-157h103v-68h-103v-239h-71v239h-103v68h103v157h-103v68h103v238h71v-238h103v-68h-103z" />
    <glyph glyph-name="uni01C3" unicode="&#x1c3;" horiz-adv-x="328" 
d="M115 770h93l-14 -582h-63zM122.5 3.5c-10.333 10.333 -15.501 24.5 -15.501 42.5c0 18.667 5 33.167 15 43.5s24 15.5 42 15.5s32 -5.16699 42 -15.5s15 -24.5 15 -42.5c0 -18.667 -5 -33.167 -15 -43.5s-24 -15.5 -42 -15.5c-17.333 0 -31.166 5.16699 -41.499 15.5z
" />
    <glyph glyph-name="uni01C4" unicode="&#x1c4;" horiz-adv-x="1137" 
d="M839 781l-110 133v12h62l92 -94l91 94h59v-12l-110 -133h-84zM509 632c54 -61.333 80.999 -151.333 80.999 -270s-27.167 -208.667 -81.5 -270s-133.166 -92 -236.499 -92h-185v724h189c101.333 0 179 -30.667 233 -92zM1098 71v-71h-435v72l340 581h-332v71h422v-71
l-339 -582h344zM446.999 145.5c38.667 49 58 121.167 58 216.5s-19.667 167.5 -59 216.5s-97.333 73.5 -174 73.5h-104v-580h107c76 0 133.333 24.5 172 73.5z" />
    <glyph glyph-name="uni01C5" unicode="&#x1c5;" horiz-adv-x="1063" 
d="M805 611l-110 133v12h62l92 -94l91 94h59v-12l-110 -133h-84zM509 632c54 -61.333 80.999 -151.333 80.999 -270s-27.167 -208.667 -81.5 -270s-133.166 -92 -236.499 -92h-185v724h189c101.333 0 179 -30.667 233 -92zM446.999 145.5c38.667 49 58 121.167 58 216.5
s-19.667 167.5 -59 216.5s-97.333 73.5 -174 73.5h-104v-580h107c76 0 133.333 24.5 172 73.5zM1026 66v-66h-355v66l262 404h-254v66h343v-66l-262 -404h266z" />
    <glyph glyph-name="uni01C6" unicode="&#x1c6;" horiz-adv-x="962" 
d="M452 770l-0.00195312 -770h-70v70c-35.333 -54.667 -83.666 -82 -144.999 -82c-58.667 0 -104.5 24.833 -137.5 74.5s-49.5 119.167 -49.5 208.5c0 87.333 17.333 155.333 52 204s83.334 73 146.001 73c24.667 0 48 -5.16699 70 -15.5s40.333 -24.833 55 -43.5v281h79z
M320.998 78c18 10 35.333 25.667 52 47v295c-16 18 -34.5 32 -55.5 42s-42.5 15 -64.5 15c-40 0 -70.167 -17.333 -90.5 -52s-30.5 -85.667 -30.5 -153c0 -139.333 42.667 -209 128 -209c22.667 0 43 5 61 15zM924.998 66v-66h-355v66l262 404h-254v66h343v-66l-262 -404
h266zM880.998 784v-10l-96 -159h-78l-96 159v10h56l80 -112l81 112h53z" />
    <glyph glyph-name="uni01C7" unicode="&#x1c7;" horiz-adv-x="914" 
d="M168 73h300v-73h-381v724h81v-651zM832 724l0.000976562 -553c0 -60 -14.667 -105.5 -44 -136.5s-72.333 -46.5 -129 -46.5c-22 0 -44.333 2.83301 -67 8.5s-43 13.5 -61 23.5l26 67c38 -17.333 71.667 -26 101 -26c31.333 0 54.666 9 69.999 27s23 46.333 23 85v551h81z
" />
    <glyph glyph-name="uni01C8" unicode="&#x1c8;" horiz-adv-x="739" 
d="M468 73v-73h-381v724h81v-651h300zM447 -154c33.333 12 59.166 25.499 77.499 40.499s31.333 33.5 39 55.5s11.5 51 11.5 87v507h79v-508c0 -47.333 -5.5 -85.833 -16.5 -115.5s-29.167 -54.667 -54.5 -75s-61.666 -39.166 -108.999 -56.499zM576 644.499
c-9.33301 9.66699 -14 23.167 -14 40.5s4.66699 31 14 41s22.333 15 39 15s29.667 -4.83301 39 -14.5s14 -23.167 14 -40.5s-4.66699 -31 -14 -41s-22.333 -15 -39 -15s-29.667 4.83301 -39 14.5z" />
    <glyph glyph-name="uni01C9" unicode="&#x1c9;" horiz-adv-x="527" 
d="M110 24c-19.333 19.333 -29.001 47.333 -29.001 84v662h79v-655c0 -18 4 -30.833 12 -38.5s20.333 -11.5 37 -11.5c12 0 24.333 1.33301 37 4l7 -66c-20 -5.33301 -40.333 -8 -61 -8c-35.333 0 -62.666 9.66699 -81.999 29zM234.999 -154
c33.333 12 59.166 25.499 77.499 40.499s31.333 33.5 39 55.5s11.5 51 11.5 87v507h79v-508c0 -47.333 -5.5 -85.833 -16.5 -115.5s-29.167 -54.667 -54.5 -75s-61.666 -39.166 -108.999 -56.499zM363.999 644.499c-9.33301 9.66699 -14 23.167 -14 40.5s4.66699 31 14 41
s22.333 15 39 15s29.667 -4.83301 39 -14.5s14 -23.167 14 -40.5s-4.66699 -31 -14 -41s-22.333 -15 -39 -15s-29.667 4.83301 -39 14.5z" />
    <glyph glyph-name="uni01CA" unicode="&#x1ca;" horiz-adv-x="1051" 
d="M510 724h79v-724h-76l-347 581v-581h-79v724h76l347 -580v580zM969 724l0.000976562 -553c0 -60 -14.667 -105.5 -44 -136.5s-72.333 -46.5 -129 -46.5c-22 0 -44.333 2.83301 -67 8.5s-43 13.5 -61 23.5l26 67c38 -17.333 71.667 -26 101 -26
c31.333 0 54.666 9 69.999 27s23 46.333 23 85v551h81z" />
    <glyph glyph-name="uni01CB" unicode="&#x1cb;" horiz-adv-x="926" 
d="M589 724v-724h-76l-347 581v-581h-79v724h76l347 -580v580h79zM634 -154c33.333 12 59.166 25.499 77.499 40.499s31.333 33.5 39 55.5s11.5 51 11.5 87v507h79v-508c0 -47.333 -5.5 -85.833 -16.5 -115.5s-29.167 -54.667 -54.5 -75s-61.666 -39.166 -108.999 -56.499z
M763 644.499c-9.33301 9.66699 -14 23.167 -14 40.5s4.66699 31 14 41s22.333 15 39 15s29.667 -4.83301 39 -14.5s14 -23.167 14 -40.5s-4.66699 -31 -14 -41s-22.333 -15 -39 -15s-29.667 4.83301 -39 14.5z" />
    <glyph glyph-name="uni01CC" unicode="&#x1cc;" horiz-adv-x="792" 
d="M423.5 505c27.667 -28.667 41.499 -68.001 41.499 -118.001v-387h-79v380c0 62 -33.667 93 -101 93c-23.333 0 -44.833 -4.16699 -64.5 -12.5s-39.167 -21.166 -58.5 -38.499v-422h-79v536h71v-59c41.333 47.333 93 71 155 71c48.667 0 86.834 -14.333 114.501 -43z
M499.999 -154.001c33.333 12 59.166 25.499 77.499 40.499s31.333 33.5 39 55.5s11.5 51 11.5 87v507h79v-508c0 -47.333 -5.5 -85.833 -16.5 -115.5s-29.167 -54.667 -54.5 -75s-61.666 -39.166 -108.999 -56.499zM628.999 644.498c-9.33301 9.66699 -14 23.167 -14 40.5
s4.66699 31 14 41s22.333 15 39 15s29.667 -4.83301 39 -14.5s14 -23.167 14 -40.5s-4.66699 -31 -14 -41s-22.333 -15 -39 -15s-29.667 4.83301 -39 14.5z" />
    <glyph glyph-name="uni01CD" unicode="&#x1cd;" horiz-adv-x="633" 
d="M274 781l-110 133v12h62l92 -94l91 94h59v-12l-110 -133h-84zM455 193h-279l-59 -193h-87l241 724h91l241 -724h-88zM432 264l-117 378l-117 -378h234z" />
    <glyph glyph-name="uni01CE" unicode="&#x1ce;" horiz-adv-x="495" 
d="M370.5 505c32.333 -28.667 48.5 -67.999 48.5 -117.999v-387h-70v69c-34 -52.667 -84.667 -79 -152 -79c-50 0 -88.833 14 -116.5 42s-41.5 67 -41.5 117c0 63.333 24.167 110 72.5 140s124.5 45.333 228.5 46v45c0 31.333 -9.5 55.166 -28.5 71.499
s-47.167 24.5 -84.5 24.5c-41.333 0 -81.333 -9.66699 -120 -29l-20 64c22 11.333 46 20.333 72 27s52 10 78 10c56.667 0 101.167 -14.333 133.5 -43zM340 121.001l-0.000976562 153c-76.667 -0.666992 -133 -10.667 -169 -30s-54 -49.333 -54 -90
c0 -30.667 8.33301 -54 25 -70s41 -24 73 -24c48.667 0 90.334 20.333 125.001 61zM371.999 784.001v-10l-96 -159h-78l-96 159v10h56l80 -112l81 112h53z" />
    <glyph glyph-name="uni01CF" unicode="&#x1cf;" horiz-adv-x="260" 
d="M282 926v-12l-110 -133h-84l-110 133v12h62l92 -94l91 94h59zM89 724h81v-724h-81v724z" />
    <glyph glyph-name="uni01D0" unicode="&#x1d0;" horiz-adv-x="249" 
d="M85 536h79v-536h-79v536zM260 784v-10l-96 -159h-78l-96 159v10h56l80 -112l81 112h53z" />
    <glyph glyph-name="uni01D1" unicode="&#x1d1;" horiz-adv-x="665" 
d="M291 781l-110 133v12h62l92 -94l91 94h59v-12l-110 -133h-84zM537.5 641c47.667 -63.333 71.5 -156.333 71.5 -279s-23.833 -215.667 -71.5 -279s-116.167 -95 -205.5 -95s-157.666 31.667 -204.999 95s-71 156.333 -71 279s23.667 215.667 71 279s115.666 95 204.999 95
s157.833 -31.667 205.5 -95zM475.5 136.5c32.333 51 48.5 126.167 48.5 225.5s-16.167 174.5 -48.5 225.5s-80.166 76.5 -143.499 76.5c-62.667 0 -110.167 -25.5 -142.5 -76.5s-48.5 -126.167 -48.5 -225.5s16.167 -174.5 48.5 -225.5s79.833 -76.5 142.5 -76.5
c63.333 0 111.166 25.5 143.499 76.5z" />
    <glyph glyph-name="uni01D2" unicode="&#x1d2;" horiz-adv-x="519" 
d="M104 59.5c-36 47.667 -54 117.167 -54 208.5s18.167 160.833 54.5 208.5s88.166 71.5 155.499 71.5s119 -23.833 155 -71.5s54 -117.167 54 -208.5s-18.167 -160.833 -54.5 -208.5s-88.166 -71.5 -155.499 -71.5s-119 23.833 -155 71.5zM387 268
c0 69.333 -10.667 121.666 -32 156.999s-53 53 -95 53c-85.333 0 -128 -70 -128 -210c0 -69.333 10.667 -121.666 32 -156.999s53 -53 95 -53c85.333 0 128 70 128 210zM395 784v-10l-96 -159h-78l-96 159v10h56l80 -112l81 112h53z" />
    <glyph glyph-name="uni01D3" unicode="&#x1d3;" horiz-adv-x="640" 
d="M278 781l-110 133v12h62l92 -94l91 94h59v-12l-110 -133h-84zM558 724l0.00195312 -477c0 -82 -20.833 -145.667 -62.5 -191s-99.834 -68 -174.501 -68c-75.333 0 -134 22.667 -176 68s-63 109 -63 191v477h81v-476c0 -62 13.333 -108.833 40 -140.5s66 -47.5 118 -47.5
c51.333 0 90.166 15.833 116.499 47.5s39.5 78.5 39.5 140.5v476h81z" />
    <glyph glyph-name="uni01D4" unicode="&#x1d4;" horiz-adv-x="535" 
d="M452 536v-536.001h-71v66c-17.333 -25.333 -38.666 -44.666 -63.999 -57.999s-54.333 -20 -87 -20c-48.667 0 -86.5 14 -113.5 42s-40.5 67 -40.5 117v389h79v-380c0 -62 32.333 -93 97 -93c24.667 0 46.667 4.66699 66 14s37.666 24.333 54.999 45v414h79zM400 783.999
v-10l-96 -159h-78l-96 159v10h56l80 -112l81 112h53z" />
    <glyph glyph-name="uni01D5" unicode="&#x1d5;" horiz-adv-x="640" 
d="M184 983h274v-53h-274v53zM199.5 789.5c-8.33301 9 -12.498 21.5 -12.498 37.5c0 16.667 4.16699 29.5 12.5 38.5s20.166 13.5 35.499 13.5s27.166 -4.5 35.499 -13.5s12.5 -21.5 12.5 -37.5s-4.33301 -28.667 -13 -38s-20.334 -14 -35.001 -14
c-15.333 0 -27.166 4.5 -35.499 13.5zM370.502 789.5c-8.33301 9 -12.498 21.5 -12.498 37.5c0 16.667 4.16699 29.5 12.5 38.5s20.166 13.5 35.499 13.5s27.166 -4.5 35.499 -13.5s12.5 -21.5 12.5 -37.5s-4.33301 -28.667 -13 -38s-20.334 -14 -35.001 -14
c-15.333 0 -27.166 4.5 -35.499 13.5zM145.004 56c-42 45.333 -62.998 109 -62.998 191v477h81v-476c0 -62 13.333 -108.833 40 -140.5s66 -47.5 118 -47.5c51.333 0 90.166 15.833 116.499 47.5s39.5 78.5 39.5 140.5v476h81v-477c0 -82 -20.833 -145.667 -62.5 -191
s-99.834 -68 -174.501 -68c-75.333 0 -134 22.667 -176 68z" />
    <glyph glyph-name="uni01D6" unicode="&#x1d6;" horiz-adv-x="535" 
d="M403 760h-274v53h274v-53zM144.5 695.5c8.33301 9 20.168 13.5 35.501 13.5s27.166 -4.5 35.499 -13.5s12.5 -21.5 12.5 -37.5s-4.33301 -28.667 -13 -38s-20.334 -14 -35.001 -14c-15.333 0 -27.166 4.5 -35.499 13.5s-12.5 21.5 -12.5 37.5
c0 16.667 4.16699 29.5 12.5 38.5zM315.502 695.5c8.33301 9 20.168 13.5 35.501 13.5s27.166 -4.5 35.499 -13.5s12.5 -21.5 12.5 -37.5s-4.33301 -28.667 -13 -38s-20.334 -14 -35.001 -14c-15.333 0 -27.166 4.5 -35.499 13.5s-12.5 21.5 -12.5 37.5
c0 16.667 4.16699 29.5 12.5 38.5zM452.004 536v-536.001h-71v66c-17.333 -25.333 -38.666 -44.666 -63.999 -57.999s-54.333 -20 -87 -20c-48.667 0 -86.5 14 -113.5 42s-40.5 67 -40.5 117v389h79v-380c0 -62 32.333 -93 97 -93c24.667 0 46.667 4.66699 66 14
s37.666 24.333 54.999 45v414h79z" />
    <glyph glyph-name="uni01D7" unicode="&#x1d7;" horiz-adv-x="640" 
d="M293 913l74 127h72v-10l-96 -127h-50v10zM199.5 789.5c-8.33301 9 -12.498 21.5 -12.498 37.5c0 16.667 4.16699 29.5 12.5 38.5s20.166 13.5 35.499 13.5s27.166 -4.5 35.499 -13.5s12.5 -21.5 12.5 -37.5s-4.33301 -28.667 -13 -38s-20.334 -14 -35.001 -14
c-15.333 0 -27.166 4.5 -35.499 13.5zM370.502 789.5c-8.33301 9 -12.498 21.5 -12.498 37.5c0 16.667 4.16699 29.5 12.5 38.5s20.166 13.5 35.499 13.5s27.166 -4.5 35.499 -13.5s12.5 -21.5 12.5 -37.5s-4.33301 -28.667 -13 -38s-20.334 -14 -35.001 -14
c-15.333 0 -27.166 4.5 -35.499 13.5zM145.004 56c-42 45.333 -62.998 109 -62.998 191v477h81v-476c0 -62 13.333 -108.833 40 -140.5s66 -47.5 118 -47.5c51.333 0 90.166 15.833 116.499 47.5s39.5 78.5 39.5 140.5v476h81v-477c0 -82 -20.833 -145.667 -62.5 -191
s-99.834 -68 -174.501 -68c-75.333 0 -134 22.667 -176 68z" />
    <glyph glyph-name="uni01D8" unicode="&#x1d8;" horiz-adv-x="535" 
d="M288 733h-50v10l74 127h72v-10zM144.5 619.5c-8.33301 9 -12.498 21.5 -12.498 37.5c0 16.667 4.16699 29.5 12.5 38.5s20.166 13.5 35.499 13.5s27.166 -4.5 35.499 -13.5s12.5 -21.5 12.5 -37.5s-4.33301 -28.667 -13 -38s-20.334 -14 -35.001 -14
c-15.333 0 -27.166 4.5 -35.499 13.5zM315.502 695.5c8.33301 9 20.168 13.5 35.501 13.5s27.166 -4.5 35.499 -13.5s12.5 -21.5 12.5 -37.5s-4.33301 -28.667 -13 -38s-20.334 -14 -35.001 -14c-15.333 0 -27.166 4.5 -35.499 13.5s-12.5 21.5 -12.5 37.5
c0 16.667 4.16699 29.5 12.5 38.5zM452.004 536v-536.001h-71v66c-17.333 -25.333 -38.666 -44.666 -63.999 -57.999s-54.333 -20 -87 -20c-48.667 0 -86.5 14 -113.5 42s-40.5 67 -40.5 117v389h79v-380c0 -62 32.333 -93 97 -93c24.667 0 46.667 4.66699 66 14
s37.666 24.333 54.999 45v414h79z" />
    <glyph glyph-name="uni01D9" unicode="&#x1d9;" horiz-adv-x="640" 
d="M282 905l-98 128v10h55l84 -89l83 89h52v-10l-98 -128h-78zM270.5 865.5c8.33301 -9 12.502 -21.5 12.502 -37.5s-4.33301 -28.667 -13 -38s-20.334 -14 -35.001 -14c-15.333 0 -27.166 4.5 -35.499 13.5s-12.5 21.5 -12.5 37.5c0 16.667 4.16699 29.5 12.5 38.5
s20.166 13.5 35.499 13.5s27.166 -4.5 35.499 -13.5zM370.502 865.5c8.33301 9 20.168 13.5 35.501 13.5s27.166 -4.5 35.499 -13.5s12.5 -21.5 12.5 -37.5s-4.33301 -28.667 -13 -38s-20.334 -14 -35.001 -14c-15.333 0 -27.166 4.5 -35.499 13.5s-12.5 21.5 -12.5 37.5
c0 16.667 4.16699 29.5 12.5 38.5zM558.004 724l0.00195312 -477c0 -82 -20.833 -145.667 -62.5 -191s-99.834 -68 -174.501 -68c-75.333 0 -134 22.667 -176 68s-63 109 -63 191v477h81v-476c0 -62 13.333 -108.833 40 -140.5s66 -47.5 118 -47.5
c51.333 0 90.166 15.833 116.499 47.5s39.5 78.5 39.5 140.5v476h81z" />
    <glyph glyph-name="uni01DA" unicode="&#x1da;" horiz-adv-x="535" 
d="M227 728l-98 139v10h56l83 -97l82 97h53v-10l-98 -139h-78zM215.5 695.5c8.33301 -9 12.502 -21.5 12.502 -37.5s-4.33301 -28.667 -13 -38s-20.334 -14 -35.001 -14c-15.333 0 -27.166 4.5 -35.499 13.5s-12.5 21.5 -12.5 37.5c0 16.667 4.16699 29.5 12.5 38.5
s20.166 13.5 35.499 13.5s27.166 -4.5 35.499 -13.5zM315.502 695.5c8.33301 9 20.168 13.5 35.501 13.5s27.166 -4.5 35.499 -13.5s12.5 -21.5 12.5 -37.5s-4.33301 -28.667 -13 -38s-20.334 -14 -35.001 -14c-15.333 0 -27.166 4.5 -35.499 13.5s-12.5 21.5 -12.5 37.5
c0 16.667 4.16699 29.5 12.5 38.5zM452.004 536v-536.001h-71v66c-17.333 -25.333 -38.666 -44.666 -63.999 -57.999s-54.333 -20 -87 -20c-48.667 0 -86.5 14 -113.5 42s-40.5 67 -40.5 117v389h79v-380c0 -62 32.333 -93 97 -93c24.667 0 46.667 4.66699 66 14
s37.666 24.333 54.999 45v414h79z" />
    <glyph glyph-name="uni01DB" unicode="&#x1db;" horiz-adv-x="640" 
d="M209 1030v10h72l68 -127v-10h-50zM199.5 789.5c-8.33301 9 -12.498 21.5 -12.498 37.5c0 16.667 4.16699 29.5 12.5 38.5s20.166 13.5 35.499 13.5s27.166 -4.5 35.499 -13.5s12.5 -21.5 12.5 -37.5s-4.33301 -28.667 -13 -38s-20.334 -14 -35.001 -14
c-15.333 0 -27.166 4.5 -35.499 13.5zM370.502 789.5c-8.33301 9 -12.498 21.5 -12.498 37.5c0 16.667 4.16699 29.5 12.5 38.5s20.166 13.5 35.499 13.5s27.166 -4.5 35.499 -13.5s12.5 -21.5 12.5 -37.5s-4.33301 -28.667 -13 -38s-20.334 -14 -35.001 -14
c-15.333 0 -27.166 4.5 -35.499 13.5zM145.004 56c-42 45.333 -62.998 109 -62.998 191v477h81v-476c0 -62 13.333 -108.833 40 -140.5s66 -47.5 118 -47.5c51.333 0 90.166 15.833 116.499 47.5s39.5 78.5 39.5 140.5v476h81v-477c0 -82 -20.833 -145.667 -62.5 -191
s-99.834 -68 -174.501 -68c-75.333 0 -134 22.667 -176 68z" />
    <glyph glyph-name="uni01DC" unicode="&#x1dc;" horiz-adv-x="535" 
d="M244 733l-90 127v10h72l68 -127v-10h-50zM144.5 619.5c-8.33301 9 -12.498 21.5 -12.498 37.5c0 16.667 4.16699 29.5 12.5 38.5s20.166 13.5 35.499 13.5s27.166 -4.5 35.499 -13.5s12.5 -21.5 12.5 -37.5s-4.33301 -28.667 -13 -38s-20.334 -14 -35.001 -14
c-15.333 0 -27.166 4.5 -35.499 13.5zM315.502 619.5c-8.33301 9 -12.498 21.5 -12.498 37.5c0 16.667 4.16699 29.5 12.5 38.5s20.166 13.5 35.499 13.5s27.166 -4.5 35.499 -13.5s12.5 -21.5 12.5 -37.5s-4.33301 -28.667 -13 -38s-20.334 -14 -35.001 -14
c-15.333 0 -27.166 4.5 -35.499 13.5zM452.004 536v-536.001h-71v66c-17.333 -25.333 -38.666 -44.666 -63.999 -57.999s-54.333 -20 -87 -20c-48.667 0 -86.5 14 -113.5 42s-40.5 67 -40.5 117v389h79v-380c0 -62 32.333 -93 97 -93c24.667 0 46.667 4.66699 66 14
s37.666 24.333 54.999 45v414h79z" />
    <glyph glyph-name="uni01DD" unicode="&#x1dd;" horiz-adv-x="503" 
d="M395 473.5c40 -49 59.999 -117.501 59.999 -205.501s-18.5 -156.667 -55.5 -206s-88.5 -74 -154.5 -74c-63.333 0 -112.666 22.5 -147.999 67.5s-53 108.167 -53 189.5c0 16.667 1 31.334 3 44.001h329c-3.33301 61.333 -17.833 107.5 -43.5 138.5
s-62.167 46.5 -109.5 46.5c-46.667 0 -88.667 -13.333 -126 -40l-30 61c20.667 16.667 45 29.5 73 38.5s57.333 13.5 88 13.5c71.333 0 127 -24.5 167 -73.5zM374.999 226.999h-252c0 -53.333 11 -94.833 33 -124.5s52.333 -44.5 91 -44.5c76 0 118.667 56.333 128 169z" />
    <glyph glyph-name="uni01DE" unicode="&#x1de;" horiz-adv-x="633" 
d="M453 963h-274v60h274v-60zM191 811c-8.66699 9.33301 -13 22.3311 -13 38.998s4.33301 29.834 13 39.501s20.667 14.5 36 14.5c16 0 28.333 -4.66699 37 -14s13 -22.333 13 -39c0 -17.333 -4.33301 -30.666 -13 -39.999s-21 -14 -37 -14
c-15.333 0 -27.333 4.66699 -36 14zM442 889.998c8.66699 -9.33301 13 -22.335 13 -39.002c0 -17.333 -4.33301 -30.666 -13 -39.999s-21 -14 -37 -14c-15.333 0 -27.333 4.66699 -36 14s-13 22.333 -13 39s4.33301 29.834 13 39.501s20.667 14.5 36 14.5
c16 0 28.333 -4.66699 37 -14zM455 192.996h-279l-59 -193h-87l241 724h91l241 -724h-88zM432 263.996l-117 378l-117 -378h234z" />
    <glyph glyph-name="uni01DF" unicode="&#x1df;" horiz-adv-x="495" 
d="M374 789h-274v60h274v-60zM113 643c-8.66699 9.33301 -13 22.3311 -13 38.998s4.33301 29.834 13 39.501s20.667 14.5 36 14.5c16 0 28.333 -4.66699 37 -14s13 -22.333 13 -39c0 -17.333 -4.33301 -30.666 -13 -39.999s-21 -14 -37 -14
c-15.333 0 -27.333 4.66699 -36 14zM288 721.498c8.66699 9.66699 20.667 14.498 36 14.498c16 0 28.333 -4.66699 37 -14s13 -22.333 13 -39c0 -17.333 -4.33301 -30.666 -13 -39.999s-21 -14 -37 -14c-15.333 0 -27.333 4.66699 -36 14s-13 22.333 -13 39
s4.33301 29.834 13 39.501zM370.5 504.996c32.333 -28.667 48.5 -67.999 48.5 -117.999v-387h-70v69c-34 -52.667 -84.667 -79 -152 -79c-50 0 -88.833 14 -116.5 42s-41.5 67 -41.5 117c0 63.333 24.167 110 72.5 140s124.5 45.333 228.5 46v45
c0 31.333 -9.5 55.166 -28.5 71.499s-47.167 24.5 -84.5 24.5c-41.333 0 -81.333 -9.66699 -120 -29l-20 64c22 11.333 46 20.333 72 27s52 10 78 10c56.667 0 101.167 -14.333 133.5 -43zM340 120.997l-0.000976562 153c-76.667 -0.666992 -133 -10.667 -169 -30
s-54 -49.333 -54 -90c0 -30.667 8.33301 -54 25 -70s41 -24 73 -24c48.667 0 90.334 20.333 125.001 61z" />
    <glyph glyph-name="uni01E0" unicode="&#x1e0;" horiz-adv-x="633" 
d="M453 963h-274v60h274v-60zM277 894c9.33301 10 22.333 15 39 15s29.667 -4.83301 39 -14.5s14 -23.167 14 -40.5s-4.66699 -31 -14 -41s-22.333 -15 -39 -15s-29.667 4.83301 -39 14.5s-14 23.167 -14 40.5s4.66699 31 14 41zM455 193h-279l-59 -193h-87l241 724h91
l241 -724h-88zM432 264l-117 378l-117 -378h234z" />
    <glyph glyph-name="uni01E1" unicode="&#x1e1;" horiz-adv-x="495" 
d="M370.5 505c32.333 -28.667 48.5 -67.999 48.5 -117.999v-387h-70v69c-34 -52.667 -84.667 -79 -152 -79c-50 0 -88.833 14 -116.5 42s-41.5 67 -41.5 117c0 63.333 24.167 110 72.5 140s124.5 45.333 228.5 46v45c0 31.333 -9.5 55.166 -28.5 71.499
s-47.167 24.5 -84.5 24.5c-41.333 0 -81.333 -9.66699 -120 -29l-20 64c22 11.333 46 20.333 72 27s52 10 78 10c56.667 0 101.167 -14.333 133.5 -43zM340 121.001l-0.000976562 153c-76.667 -0.666992 -133 -10.667 -169 -30s-54 -49.333 -54 -90
c0 -30.667 8.33301 -54 25 -70s41 -24 73 -24c48.667 0 90.334 20.333 125.001 61zM197.999 644.501c-9.33301 9.66699 -14 23.167 -14 40.5s4.66699 31 14 41s22.333 15 39 15s29.667 -4.83301 39 -14.5s14 -23.167 14 -40.5s-4.66699 -31 -14 -41s-22.333 -15 -39 -15
s-29.667 4.83301 -39 14.5zM99.999 851.001h274v-60h-274v60z" />
    <glyph glyph-name="uni01E2" unicode="&#x1e2;" horiz-adv-x="845" 
d="M604 811h-274v60h274v-60zM807 72v-72h-397v185h-236l-92 -185h-89l364 724h83h355v-72h-306v-244h224v-73h-224v-263h318zM410 256v407l-201 -407h201z" />
    <glyph glyph-name="uni01E3" unicode="&#x1e3;" horiz-adv-x="777" 
d="M730 247h-320.999c2.66699 -61.333 16.334 -107.5 41.001 -138.5s60.334 -46.5 107.001 -46.5c44.667 0 85.667 13.333 123 40l30 -61c-20.667 -16.667 -44.834 -29.5 -72.501 -38.5s-56.167 -13.5 -85.5 -13.5c-40.667 0 -76.334 8.66699 -107.001 26
s-55.334 42.666 -74.001 75.999c-25.333 -34.667 -52.333 -60.167 -81 -76.5s-61 -24.5 -97 -24.5c-48.667 0 -86.5 14 -113.5 42s-40.5 66.667 -40.5 116c0 61.333 23.667 106.5 71 135.5s121.666 43.833 222.999 44.5v52c0 31.333 -9.33301 55.166 -28 71.499
s-46 24.5 -82 24.5c-40 0 -78.667 -9.66699 -116 -29l-20 64c22 11.333 46 20.333 72 27s50.667 10 74 10c36.667 0 68 -7.16699 94 -21.5s45 -35.166 57 -62.499c14 26.667 34.167 47.334 60.5 62.001s56.5 22 90.5 22c62.667 0 111.334 -22.5 146.001 -67.5
s52 -108.167 52 -189.5c0 -16 -1 -30.667 -3 -44zM447.001 435.5c-20.667 -28.333 -32.999 -70.5 -36.999 -126.5h244c-0.666992 53.333 -11.5 94.833 -32.5 124.5s-50.5 44.5 -88.5 44.5c-36.667 0 -65.334 -14.167 -86.001 -42.5zM284.002 80
c22 13.333 43.333 34.333 64 63c-11.333 37.333 -17 79 -17 125c-73.333 -1.33301 -127.333 -11 -162 -29s-52 -46.333 -52 -85c0 -62.667 31.333 -94 94 -94c26.667 0 51 6.66699 73 20zM267.002 701h274v-60h-274v60z" />
    <glyph glyph-name="uni01E4" unicode="&#x1e4;" horiz-adv-x="624" 
d="M626 163h-69v-125c-24.667 -16 -54.167 -28.333 -88.5 -37s-69.5 -13 -105.5 -13c-64 0 -119 14.833 -165 44.5s-81.167 72.5 -105.5 128.5s-36.5 123 -36.5 201s12.167 145 36.5 201s59.5 98.833 105.5 128.5s101 44.5 165 44.5c34.667 0 67.667 -4.16699 99 -12.5
s58 -19.833 80 -34.5l-25 -66c-51.333 26.667 -103.333 40 -156 40c-72.667 0 -127.5 -25.333 -164.5 -76s-55.5 -125.667 -55.5 -225s18.667 -174.5 56 -225.5s92.666 -76.5 165.999 -76.5c38.667 0 76.334 6 113.001 18v85h-122v65h122v83h-124v71h205v-154h69v-65z" />
    <glyph glyph-name="uni01E5" unicode="&#x1e5;" horiz-adv-x="534" 
d="M521 -76h-74.001c-11.333 -45.333 -35 -80.5 -71 -105.5s-81.333 -37.5 -136 -37.5c-26.667 0 -52.667 2.83301 -78 8.5s-46.666 13.5 -63.999 23.5l23 66c37.333 -18.667 76.333 -28 117 -28c66.667 0 109 24.333 127 73h-335v51h346v15v102
c-34 -46.667 -79.667 -70 -137 -70c-60 0 -106.5 23.333 -139.5 70s-49.5 112 -49.5 196c0 82 17.5 145.833 52.5 191.5s83.833 68.5 146.5 68.5c27.333 0 52.833 -6 76.5 -18s43.167 -29 58.5 -51v57h71v-545v-16h66v-51zM322.499 110.5
c19 9.66699 36.833 25.168 53.5 46.501v261c-16 18.667 -34.667 33.167 -56 43.5s-43.333 15.5 -66 15.5c-40 0 -70.333 -16 -91 -48s-31 -79 -31 -141c0 -62.667 10.833 -110.334 32.5 -143.001s53.5 -49 95.5 -49c22.667 0 43.5 4.83301 62.5 14.5z" />
    <glyph glyph-name="Gcaron" unicode="&#x1e6;" horiz-adv-x="624" 
d="M295 781l-110 133v12h62l92 -94l91 94h59v-12l-110 -133h-84zM557 382v-344c-24.667 -16 -54.167 -28.333 -88.5 -37s-69.5 -13 -105.5 -13c-64 0 -119 14.833 -165 44.5s-81.167 72.5 -105.5 128.5s-36.5 123 -36.5 201s12.167 145 36.5 201s59.5 98.833 105.5 128.5
s101 44.5 165 44.5c34.667 0 67.667 -4.16699 99 -12.5s58 -19.833 80 -34.5l-25 -66c-51.333 26.667 -103.333 40 -156 40c-72.667 0 -127.5 -25.333 -164.5 -76s-55.5 -125.667 -55.5 -225s18.667 -174.5 56 -225.5s92.666 -76.5 165.999 -76.5
c38.667 0 76.334 6 113.001 18v233h-124v71h205z" />
    <glyph glyph-name="gcaron" unicode="&#x1e7;" horiz-adv-x="538" 
d="M455 536v-545c0 -66 -19 -117.5 -57 -154.5s-90.667 -55.5 -158 -55.5c-26.667 0 -52.667 2.83301 -78 8.5s-46.666 13.5 -63.999 23.5l24 67c37.333 -18.667 76 -28 116 -28c45.333 0 79.666 11.833 102.999 35.5s35 58.167 35 103.5v98c-34 -46.667 -80 -70 -138 -70
c-59.333 0 -105.5 23.5 -138.5 70.5s-49.5 112.5 -49.5 196.5c0 82.667 17.5 147 52.5 193s83.833 69 146.5 69c27.333 0 52.833 -6 76.5 -18s43.167 -29 58.5 -51v57h71zM376 154l-0.000976562 264c-16 18.667 -34.667 33.167 -56 43.5s-43.333 15.5 -66 15.5
c-40 0 -70.333 -16 -91 -48s-31 -79.333 -31 -142c0 -64 10.833 -112.333 32.5 -145s53.5 -49 95.5 -49c44.667 0 83.334 20.333 116.001 61zM399.999 784v-10l-96 -159h-78l-96 159v10h56l80 -112l81 112h53z" />
    <glyph glyph-name="uni01E8" unicode="&#x1e8;" horiz-adv-x="581" 
d="M260 781l-110 133v12h62l92 -94l91 94h59v-12l-110 -133h-84zM255 330l-87 -110v-220h-81v724h81v-397l297 397h100l-257 -327l272 -397h-100z" />
    <glyph glyph-name="uni01E9" unicode="&#x1e9;" horiz-adv-x="493" 
d="M165 827h-84l-110 133v12h62l92 -94l91 94h59v-12zM229 248l-67 -80v-168h-79v770h79v-505l214 271h97l-191 -226l200 -310h-96z" />
    <glyph glyph-name="uni01EA" unicode="&#x1ea;" horiz-adv-x="665" 
d="M348 -112c0 -31.333 15.334 -47 46.001 -47c18.667 0 38.667 5.66699 60 17l20 -47c-12.667 -9.33301 -27.5 -16.5 -44.5 -21.5s-34.5 -7.5 -52.5 -7.5c-30.667 0 -54.667 8 -72 24s-26 38 -26 66c0 22 5.16699 43 15.5 63s25.166 37.667 44.499 53h-7
c-89.333 0 -157.666 31.667 -204.999 95s-71 156.333 -71 279s23.667 215.667 71 279s115.666 95 204.999 95s157.833 -31.667 205.5 -95s71.5 -156.333 71.5 -279v-1c-0.666992 -92 -14.5 -167 -41.5 -225s-69.167 -102 -126.5 -132c-62 -31.333 -93 -70 -93 -116z
M189.501 136.5c32.333 -51 79.833 -76.5 142.5 -76.5c63.333 0 111.166 25.5 143.499 76.5s48.5 126.167 48.5 225.5s-16.167 174.5 -48.5 225.5s-80.166 76.5 -143.499 76.5c-62.667 0 -110.167 -25.5 -142.5 -76.5s-48.5 -126.167 -48.5 -225.5s16.167 -174.5 48.5 -225.5
z" />
    </font>
</defs>
</svg>
