<?xml version="1.0" standalone="no"?>
<!DOCTYPE svg PUBLIC "-//W3C//DTD SVG 1.1//EN" "http://www.w3.org/Graphics/SVG/1.1/DTD/svg11.dtd" >
<svg>
<metadata>
Created by FontForge 20090914 at Tue Jan 24 02:50:34 2017
 By www-data
Copyright 2015 Samsung Electronics Co., Ltd. All Rights Reserved.
</metadata>
<defs>
<font id="SamsungOne-800C" horiz-adv-x="0" >
  <font-face 
    font-family="SamsungOne 800C"
    font-weight="800"
    font-stretch="condensed"
    units-per-em="1024"
    panose-1="2 11 9 6 3 3 3 2 2 4"
    ascent="794"
    descent="-230"
    x-height="546"
    cap-height="724"
    bbox="-654 -304.004 2414 1047"
    underline-thickness="36"
    underline-position="-107"
    unicode-range="U+0002-U+1F16B"
  />
<missing-glyph horiz-adv-x="650" 
d="M578 0h-109h-338h-59v724h109h397v-724zM469 627h-248l248 -435v435zM181 97h248l-248 435v-435z" />
    <glyph glyph-name="fi" unicode="fi" horiz-adv-x="608" 
d="M76 434h-77v112h77v41c0 63.333 18.333 112.333 55 147s88.667 52 156 52c22 0 41.333 -1.66699 58 -5v-113c-18.667 2.66699 -38 4 -58 4c-52.667 0 -79 -28.333 -79 -85v-41h119v-112h-119v-434h-132v434zM408 546h132v-546h-132v546zM418 638.5
c-13.333 13.667 -20 32.167 -20 55.5c0 24.667 6.66699 43.667 20 57s32 20 56 20s42.667 -6.83301 56 -20.5s20 -32.167 20 -55.5c0 -24.667 -6.66699 -43.667 -20 -57s-32 -20 -56 -20s-42.667 6.83301 -56 20.5z" />
    <glyph glyph-name="fl" unicode="fl" horiz-adv-x="642" 
d="M76 434h-77v112h77v41c0 63.333 18.333 112.333 55 147s88.667 52 156 52c22 0 41.333 -1.66699 58 -5v-113c-18.667 2.66699 -38 4 -58 4c-52.667 0 -79 -28.333 -79 -85v-41h119v-112h-119v-434h-132v434zM404 134l-0.000976562 636h132v-605
c0 -19.333 3.5 -33.333 10.5 -42s18.167 -13 33.5 -13c10.667 0 21.334 1 32.001 3l8 -110c-25.333 -6 -51 -9 -77 -9c-92.667 0 -139 46.667 -139 140z" />
    <glyph glyph-name=".notdef" horiz-adv-x="650" 
d="M578 0h-109h-338h-59v724h109h397v-724zM469 627h-248l248 -435v435zM181 97h248l-248 435v-435z" />
    <glyph glyph-name="uni0000" 
 />
    <glyph glyph-name="uni0002" 
 />
    <glyph glyph-name="uni0008" horiz-adv-x="260" 
 />
    <glyph glyph-name="uni0009" unicode="&#x9;" horiz-adv-x="512" 
 />
    <glyph glyph-name="nonmarkingreturn" unicode="&#xd;" 
 />
    <glyph glyph-name="uni001D" horiz-adv-x="177" 
 />
    <glyph glyph-name="space" unicode=" " horiz-adv-x="177" 
 />
    <glyph glyph-name="exclam" unicode="!" horiz-adv-x="342" 
d="M97 724h146l-20 -505h-104zM113 10c-14 14 -21 32.999 -21 56.999c0 24.667 6.83301 43.834 20.5 57.501s33.167 20.5 58.5 20.5c24.667 0 44 -6.83301 58 -20.5s21 -32.5 21 -56.5c0 -24.667 -6.83301 -44 -20.5 -58s-33.167 -21 -58.5 -21c-24.667 0 -44 7 -58 21z" />
    <glyph glyph-name="quotedbl" unicode="&#x22;" horiz-adv-x="382" 
d="M213 724h119l-21 -271h-77zM50 724h119l-21 -271h-77z" />
    <glyph glyph-name="numbersign" unicode="#" horiz-adv-x="655" 
d="M503 451l-28 -178h123v-92h-137l-29 -181h-104l29 181h-113l-29 -181h-104l29 181h-125v92h139l28 178h-127v92h142l28 181h104l-28 -181h113l28 181h104l-28 -181h122v-92h-137zM399 451h-113l-28 -178h113z" />
    <glyph glyph-name="dollar" unicode="$" horiz-adv-x="522" 
d="M436 78.5c-31.333 -36.333 -75.666 -58.833 -132.999 -67.5v-96h-86v93c-34.667 2.66699 -68.167 9.33398 -100.5 20.001s-61.5 24.334 -87.5 41.001l40 99c51.333 -29.333 101.333 -46 150 -50l1 192l-27 8c-57.333 16 -97.5 38.167 -120.5 66.5s-34.5 69.5 -34.5 123.5
c0 59.333 15.5 106.666 46.5 141.999s75.167 56.666 132.5 63.999v95h86v-94c57.333 -6 111.666 -20.667 162.999 -44l-40 -99c-46 17.333 -87.667 28 -125 32l-1 -182l28 -8c56.667 -16 96.667 -38.333 120 -67s35 -70.334 35 -125.001
c0 -59.333 -15.667 -107.166 -47 -143.499zM175.5 477.5c9 -13 23.832 -23.5 44.499 -31.5l-1 157c-19.333 -4 -33.666 -12 -42.999 -24s-14 -28.667 -14 -50s4.5 -38.5 13.5 -51.5zM344.999 149.5c9.33301 13 14 30.167 14 51.5c0 22 -4.5 39.667 -13.5 53
s-24.167 24.333 -45.5 33l1 -165c20 5.33301 34.667 14.5 44 27.5z" />
    <glyph glyph-name="percent" unicode="%" horiz-adv-x="896" 
d="M42 513c0 148.667 53 223 159 223s159 -74.333 159 -223s-53 -223 -159 -223s-159 74.333 -159 223zM555 724h107l-321 -724h-107zM240 410c8 21.333 12 55.666 12 102.999s-4 81.666 -12 102.999s-21 32 -39 32s-31 -10.667 -39 -32s-12 -55.666 -12 -102.999
s4 -81.666 12 -102.999s21 -32 39 -32s31 10.667 39 32zM536 211c0 148.667 53 223 159 223s159 -74.333 159 -223s-53 -223 -159 -223s-159 74.333 -159 223zM734 108c8 21.333 12 55.666 12 102.999s-4 81.666 -12 102.999s-21 32 -39 32s-31 -10.667 -39 -32
s-12 -55.666 -12 -102.999s4 -81.666 12 -102.999s21 -32 39 -32s31 10.667 39 32z" />
    <glyph glyph-name="ampersand" unicode="&#x26;" horiz-adv-x="624" 
d="M518 -17l-71.999 82.999c-24.667 -26 -52.834 -45.5 -84.501 -58.5s-68.167 -19.5 -109.5 -19.5c-66.667 0 -118.167 16 -154.5 48s-54.5 77.333 -54.5 136c0 34.667 7.16699 65.5 21.5 92.5s37.833 53.167 70.5 78.5l42 34l-28 33c-21.333 25.333 -36.5 49.333 -45.5 72
s-13.5 48.667 -13.5 78c0 56 17 99.333 51 130s82.333 46 145 46c60.667 0 107.5 -14.5 140.5 -43.5s49.5 -69.833 49.5 -122.5c0 -34 -7.5 -63.167 -22.5 -87.5s-42.833 -53.166 -83.5 -86.499l-31 -25l92 -107l47 114h125l-80 -186l-10 -23l93 -109zM229.501 508.999
c7 -14 20.5 -33.333 40.5 -58l32 26c21.333 17.333 35.5 31.5 42.5 42.5s10.5 24.167 10.5 39.5c0 44 -22.667 66 -68 66s-68 -23 -68 -69c0 -17.333 3.5 -33 10.5 -47zM371.001 152.999l-123.999 144l-27 -22c-14.667 -12 -25.167 -24.167 -31.5 -36.5
s-9.5 -27.5 -9.5 -45.5c0 -58 29.667 -87 89 -87c43.333 0 77.666 15.667 102.999 47z" />
    <glyph glyph-name="quotesingle" unicode="'" horiz-adv-x="219" 
d="M50 724h119l-21 -271h-77z" />
    <glyph glyph-name="parenleft" unicode="(" horiz-adv-x="312" 
d="M80 95.5c-28 83 -42 164.834 -42 245.501c0 81.333 14 163.666 42 246.999s67.667 160 119 230l87 -64c-81.333 -114 -122 -251.333 -122 -412s40.667 -298 122 -412l-87 -64c-51.333 70 -91 146.5 -119 229.5z" />
    <glyph glyph-name="parenright" unicode=")" horiz-adv-x="312" 
d="M26 -70c81.333 114 122 251.332 122 411.999s-40.667 298 -122 412l87 64c51.333 -70 91 -146.667 119 -230s42 -165.666 42 -246.999c0 -80.667 -14 -162.5 -42 -245.5s-67.667 -159.5 -119 -229.5z" />
    <glyph glyph-name="asterisk" unicode="*" horiz-adv-x="504" 
d="M321 482l99 -124l-85 -66l-83 134l-83 -134l-85 66l99 124l-141 35l33 103l133 -54l-11 158h110l-11 -158l133 54l33 -103z" />
    <glyph glyph-name="plus" unicode="+" horiz-adv-x="543" 
d="M507 311h-176v-203h-119v203h-176v115h176v203h119v-203h176v-115z" />
    <glyph glyph-name="comma" unicode="," horiz-adv-x="231" 
d="M-8 -130c25.333 28.667 43.167 56.666 53.5 83.999s15.5 60.333 15.5 99c0 24.667 -2 51 -6 79h125c3.33301 -28.667 5 -54.334 5 -77.001c0 -47.333 -11 -90.166 -33 -128.499s-57.667 -76.166 -107 -113.499z" />
    <glyph glyph-name="hyphen" unicode="-" horiz-adv-x="379" 
d="M31 352h317v-100h-317v100z" />
    <glyph glyph-name="period" unicode="." horiz-adv-x="250" 
d="M67 10c-14 14 -21 32.999 -21 56.999c0 24.667 6.83301 43.834 20.5 57.501s33.167 20.5 58.5 20.5c24.667 0 44 -6.83301 58 -20.5s21 -32.5 21 -56.5c0 -24.667 -6.83301 -44 -20.5 -58s-33.167 -21 -58.5 -21c-24.667 0 -44 7 -58 21z" />
    <glyph glyph-name="slash" unicode="/" horiz-adv-x="417" 
d="M310 749h108l-305 -835h-108z" />
    <glyph glyph-name="zero" unicode="0" horiz-adv-x="586" 
d="M112 78c-40 60 -60 154.667 -60 284s20 224 60 284s100 90 180 90c81.333 0 142 -30 182 -90s60 -154.667 60 -284s-20 -224 -60 -284s-100.333 -90 -181 -90s-141 30 -181 90zM373 166c16.667 40.667 24.998 106 24.998 196s-8.33301 155.333 -25 196s-43.667 61 -81 61
c-36.667 0 -63.167 -20.333 -79.5 -61s-24.5 -106 -24.5 -196s8.33301 -155.333 25 -196s43.334 -61 80.001 -61s63.334 20.333 80.001 61z" />
    <glyph glyph-name="one" unicode="1" horiz-adv-x="437" 
d="M328 724v-724h-133v589l-142 -53l-37 106l196 82h116z" />
    <glyph glyph-name="two" unicode="2" horiz-adv-x="499" 
d="M458 114l-0.000976562 -114.001h-436v114l224 275c28.667 34.667 48.167 61.667 58.5 81s15.5 38.333 15.5 57c0 26 -8.66699 47.333 -26 64s-39.666 25 -66.999 25c-24 0 -50 -4.83301 -78 -14.5s-53.667 -22.5 -77 -38.5l-58 98
c28.667 22.667 63.5 40.834 104.5 54.501s81.167 20.5 120.5 20.5c65.333 0 117.5 -18.167 156.5 -54.5s58.5 -84.833 58.5 -145.5c0 -34 -8.5 -68 -25.5 -102s-45.833 -75.333 -86.5 -124l-165 -196h281z" />
    <glyph glyph-name="three" unicode="3" horiz-adv-x="526" 
d="M431 376c30.667 -39.333 46 -88 46 -146c0 -48 -10.167 -90.333 -30.5 -127s-49.333 -65 -87 -85s-81.167 -30 -130.5 -30c-40 0 -79.5 6.16699 -118.5 18.5s-71.167 28.833 -96.5 49.5l47 104c29.333 -16.667 58.5 -29.5 87.5 -38.5s55.833 -13.5 80.5 -13.5
c35.333 0 62.833 10.833 82.5 32.5s29.5 51.5 29.5 89.5c0 36.667 -9.16699 65.167 -27.5 85.5s-43.833 30.5 -76.5 30.5c-17.333 0 -37.333 -2.66699 -60 -8l-50 66l186 206h-281v114h422v-114l-147 -160c52 -10 93.333 -34.667 124 -74z" />
    <glyph glyph-name="four" unicode="4" horiz-adv-x="543" 
d="M512 250v-112h-78v-138h-129v138h-294v112l236 474h187v-474h78zM305 250v355l-161 -355h161z" />
    <glyph glyph-name="five" unicode="5" horiz-adv-x="518" 
d="M368 441.5c33.333 -19 59.166 -46.1689 77.499 -81.502s27.5 -76.333 27.5 -123c0 -50 -10.333 -93.833 -31 -131.5s-49.834 -66.667 -87.501 -87s-81.5 -30.5 -131.5 -30.5c-38 0 -75.5 5.83301 -112.5 17.5s-66.833 27.167 -89.5 46.5l47 104
c26.667 -15.333 53.5 -27.166 80.5 -35.499s51.833 -12.5 74.5 -12.5c36.667 0 64.834 11.333 84.501 34s29.5 53.334 29.5 92.001c0 37.333 -8.66699 66.333 -26 87s-42.666 31 -75.999 31s-68 -8.66699 -104 -26l-78 42l17 356h371v-114h-252l-12 -150
c25.333 6.66699 50 10 74 10c44.667 0 83.667 -9.5 117 -28.5z" />
    <glyph glyph-name="six" unicode="6" horiz-adv-x="533" 
d="M409 436.5c30.667 -19 54.333 -46.001 71 -81.001s25 -75.5 25 -121.5c0 -48.667 -9.66699 -91.667 -29 -129s-46.5 -66.166 -81.5 -86.499s-75.5 -30.5 -121.5 -30.5c-47.333 0 -88.833 10.5 -124.5 31.5s-63.334 50.5 -83.001 88.5s-29.5 82.333 -29.5 133
c0 62 10 117.833 30 167.5s54.667 104.167 104 163.5l135 164l103 -82l-138 -157c-9.33301 -10 -20.333 -23.667 -33 -41c20 6 41.667 9 65 9c40.667 0 76.334 -9.5 107.001 -28.5zM344.999 135.999c17.333 22.667 26 54.333 26 95c0 41.333 -9.33301 73.5 -28 96.5
s-44.667 34.5 -78 34.5c-22.667 0 -47 -4.66699 -73 -14c-15.333 -35.333 -23 -71 -23 -107c0 -43.333 9.16699 -77.333 27.5 -102s43.833 -37 76.5 -37c30.667 0 54.667 11.333 72 34z" />
    <glyph glyph-name="seven" unicode="7" horiz-adv-x="461" 
d="M444 724v-114l-260 -619l-125 52l247 567h-305v114h443z" />
    <glyph glyph-name="eight" unicode="8" horiz-adv-x="553" 
d="M149.5 13.5c-36.333 17 -64.333 40.998 -84 71.998s-29.5 66.833 -29.5 107.5c0 39.333 12.333 75.833 37 109.5s57.334 58.5 98.001 74.5c-34 13.333 -61 35.333 -81 66s-30 65 -30 103c0 57.333 19.667 103.333 59 138s91.666 52 156.999 52s117.833 -17.333 157.5 -52
s59.5 -80.667 59.5 -138c0 -37.333 -10.167 -71.166 -30.5 -101.499s-47.833 -51.833 -82.5 -64.5c41.333 -12.667 74.5 -36.167 99.5 -70.5s37.5 -73.166 37.5 -116.499c0 -40.667 -10 -76.5 -30 -107.5s-48.167 -55 -84.5 -72s-78.5 -25.5 -126.5 -25.5
s-90.167 8.5 -126.5 25.5zM340.5 467.498c14.333 19 21.5 40.834 21.5 65.501c0 29.333 -7.66699 52.333 -23 69s-36.333 25 -63 25s-47.5 -8.33301 -62.5 -25s-22.5 -39.667 -22.5 -69c0 -24.667 7.83301 -46.334 23.5 -65.001s37.834 -32.667 66.501 -42
c25.333 8.66699 45.166 22.5 59.499 41.5zM356 125.499c19.333 18.333 29 43.833 29 76.5c0 27.333 -10 52.333 -30 75s-47.667 40.667 -83 54c-32.667 -11.333 -58.167 -28.5 -76.5 -51.5s-27.5 -48.833 -27.5 -77.5c0 -32.667 9.5 -58.167 28.5 -76.5
s45.5 -27.5 79.5 -27.5s60.667 9.16699 80 27.5z" />
    <glyph glyph-name="nine" unicode="9" horiz-adv-x="533" 
d="M384.5 704.5c35.667 -21 63.335 -50.499 83.002 -88.499s29.5 -82.333 29.5 -133c0 -62 -10 -117.833 -30 -167.5s-54.667 -104.167 -104 -163.5l-135 -164l-103 82l138 157c9.33301 10 20.333 23.667 33 41c-20 -6 -41.667 -9 -65 -9
c-40.667 0 -76.334 9.5 -107.001 28.5s-54.334 46 -71.001 81s-25 75.5 -25 121.5c0 48.667 9.66699 91.667 29 129s46.5 66.166 81.5 86.499s75.5 30.5 121.5 30.5c47.333 0 88.833 -10.5 124.5 -31.5zM190.001 396.501c18.667 -23 44.667 -34.499 78 -34.499
c22.667 0 47 4.66699 73 14c15.333 35.333 23 71 23 107c0 43.333 -9.16699 77.333 -27.5 102s-43.833 37 -76.5 37c-30.667 0 -54.667 -11.333 -72 -34s-26 -54.334 -26 -95.001c0 -41.333 9.33301 -73.5 28 -96.5z" />
    <glyph glyph-name="colon" unicode=":" horiz-adv-x="290" 
d="M87 340c-14 14 -21 32.999 -21 56.999c0 24.667 6.83301 43.834 20.5 57.501s33.167 20.5 58.5 20.5c24.667 0 44 -6.83301 58 -20.5s21 -32.5 21 -56.5c0 -24.667 -6.83301 -44 -20.5 -58s-33.167 -21 -58.5 -21c-24.667 0 -44 7 -58 21zM87 9.99902
c-14 14 -21 32.999 -21 56.999c0 24.667 6.83301 43.834 20.5 57.501s33.167 20.5 58.5 20.5c24.667 0 44 -6.83301 58 -20.5s21 -32.5 21 -56.5c0 -24.667 -6.83301 -44 -20.5 -58s-33.167 -21 -58.5 -21c-24.667 0 -44 7 -58 21z" />
    <glyph glyph-name="semicolon" unicode=";" horiz-adv-x="290" 
d="M87 340c-14 14 -21 32.999 -21 56.999c0 24.667 6.83301 43.834 20.5 57.501s33.167 20.5 58.5 20.5c24.667 0 44 -6.83301 58 -20.5s21 -32.5 21 -56.5c0 -24.667 -6.83301 -44 -20.5 -58s-33.167 -21 -58.5 -21c-24.667 0 -44 7 -58 21zM21 -130.001
c25.333 28.667 43.167 56.666 53.5 83.999s15.5 60.333 15.5 99c0 24.667 -2 51 -6 79h125c3.33301 -28.667 5 -54.334 5 -77.001c0 -47.333 -11 -90.166 -33 -128.499s-57.667 -76.166 -107 -113.499z" />
    <glyph glyph-name="less" unicode="&#x3c;" horiz-adv-x="396" 
d="M22 365l256 298l96 -85l-188 -213l188 -213l-96 -85z" />
    <glyph glyph-name="equal" unicode="=" horiz-adv-x="543" 
d="M58 542h427v-117h-427v117zM58 305h427v-117h-427v117z" />
    <glyph glyph-name="greater" unicode="&#x3e;" horiz-adv-x="396" 
d="M22 152l188 213l-188 213l96 85l256 -298l-256 -298z" />
    <glyph glyph-name="question" unicode="?" horiz-adv-x="484" 
d="M152 268c0 40 6.66602 72.834 19.999 98.501s37.666 53.5 72.999 83.5c25.333 21.333 42 38 50 50s12 26.333 12 43c0 47.333 -26 71 -78 71c-43.333 0 -92.666 -16.333 -147.999 -49l-52 106c28.667 20.667 61.5 36.667 98.5 48s74.833 17 113.5 17
c64.667 0 114.834 -16.5 150.501 -49.5s53.5 -79.5 53.5 -139.5c0 -32.667 -6.83301 -60.834 -20.5 -84.501s-39.167 -50.5 -76.5 -80.5c-30.667 -25.333 -51.167 -46 -61.5 -62s-15.5 -34.333 -15.5 -55c0 -7.33301 1 -22.666 3 -45.999h-119
c-2 25.333 -3 41.666 -3 48.999zM156.999 10.001c-14 14 -21 32.999 -21 56.999c0 24.667 6.83301 43.834 20.5 57.501s33.167 20.5 58.5 20.5c24.667 0 44 -6.83301 58 -20.5s21 -32.5 21 -56.5c0 -24.667 -6.83301 -44 -20.5 -58s-33.167 -21 -58.5 -21
c-24.667 0 -44 7 -58 21z" />
    <glyph glyph-name="at" unicode="@" horiz-adv-x="763" 
d="M464 541.5c20.667 -6.33301 38.6631 -15.499 53.9961 -27.499v-198c0 -19.333 3.5 -34.333 10.5 -45s16.833 -16 29.5 -16c20.667 0 36.834 12.667 48.501 38s17.5 61 17.5 107c0 82.667 -20.5 146.5 -61.5 191.5s-99.167 67.5 -174.5 67.5
c-76.667 0 -136 -25.833 -178 -77.5s-63 -124.834 -63 -219.501c0 -95.333 21.833 -169 65.5 -221s105.167 -78 184.5 -78c53.333 0 103.333 13.333 150 40l34 -73c-22.667 -16.667 -50 -29.5 -82 -38.5s-66 -13.5 -102 -13.5c-68 0 -128 16 -180 48s-92.333 77 -121 135
s-43 125 -43 201s13.833 143 41.5 201s66.834 103 117.501 135s109.334 48 176.001 48c65.333 0 122.666 -14.333 171.999 -43s87.5 -69.167 114.5 -121.5s40.5 -112.833 40.5 -181.5c0 -66.667 -13.667 -120.167 -41 -160.5s-63.333 -60.5 -108 -60.5
c-36.667 0 -63.667 13.333 -81 40c-22 -30.667 -55 -46 -99 -46c-47.333 0 -84.166 16.667 -110.499 50s-39.5 80.333 -39.5 141c0 59.333 14.167 105.333 42.5 138s68.5 49 120.5 49c22.667 0 44.334 -3.16699 65.001 -9.5zM432.996 466.001c-12 4 -24.333 6 -37 6
c-48 0 -72 -36 -72 -108c0 -74.667 23.667 -112 71 -112c12 0 24.667 2.33301 38 7v207z" />
    <glyph glyph-name="A" unicode="A" horiz-adv-x="636" 
d="M435 158h-236l-42 -158h-140l228 724h146l228 -724h-141zM404 273l-87 323l-87 -323h174z" />
    <glyph glyph-name="B" unicode="B" horiz-adv-x="607" 
d="M574 218c0 -69.333 -19.668 -123 -59.001 -161s-94.666 -57 -165.999 -57h-205h-72v724h133h113c69.333 0 122.833 -18 160.5 -54s56.5 -87 56.5 -153c0 -68 -31.333 -113 -94 -135c88.667 -26 133 -80.667 133 -164zM204.999 607v-180h113c54 0 81 29 81 87
c0 62 -29 93 -87 93h-107zM436.999 215c0 66 -29.333 99 -88 99h-144v-197h151c54 0 81 32.667 81 98z" />
    <glyph glyph-name="C" unicode="C" horiz-adv-x="563" 
d="M116 82.5c-55.333 62.333 -83.001 150.501 -83.001 264.501c0 80 12.5 149.167 37.5 207.5s61 103.166 108 134.499s102.833 47 167.5 47c35.333 0 69.666 -5 102.999 -15s62.333 -24.333 87 -43l-43 -100c-54 26 -103.333 39 -148 39
c-55.333 0 -98.166 -22.667 -128.499 -68s-45.5 -109.333 -45.5 -192c0 -164.667 62 -247 186 -247c49.333 0 96.333 11.667 141 35l44 -99c-20 -18 -46.667 -32 -80 -42s-70.333 -15 -111 -15c-101.333 0 -179.666 31.167 -234.999 93.5z" />
    <glyph glyph-name="D" unicode="D" horiz-adv-x="649" 
d="M527 633c52.667 -60.667 79 -150.667 79 -270c0 -120 -26.333 -210.5 -79 -271.5s-129 -91.5 -229 -91.5h-226v724h226c100 0 176.333 -30.333 229 -91zM468 362c0 162.667 -57.333 244 -172 244h-90v-488h89c115.333 0 173 81.333 173 244z" />
    <glyph glyph-name="E" unicode="E" horiz-adv-x="540" 
d="M516 118v-118h-444v724h429v-118h-295v-176h216v-119h-216v-193h310z" />
    <glyph glyph-name="F" unicode="F" horiz-adv-x="502" 
d="M206 606v-197h234v-119h-234v-290h-134v724h422v-118h-288z" />
    <glyph glyph-name="G" unicode="G" horiz-adv-x="625" 
d="M573 413l-0.00195312 -367c-25.333 -18.667 -56.166 -33 -92.499 -43s-74.833 -15 -115.5 -15c-102.667 0 -182 32.5 -238 97.5s-84 157.167 -84 276.5s28 211.5 84 276.5s135.333 97.5 238 97.5c40 0 77.5 -5 112.5 -15s64.167 -24 87.5 -42l-36 -105
c-60.667 29.333 -116 44 -166 44c-121.333 0 -182 -85.333 -182 -256s61.333 -256 184 -256c24.667 0 49.334 3.33301 74.001 10v180h-110v117h244z" />
    <glyph glyph-name="H" unicode="H" horiz-adv-x="660" 
d="M588 724v-724h-134v309h-248v-309h-134v724h134v-297h248v297h134z" />
    <glyph glyph-name="I" unicode="I" horiz-adv-x="282" 
d="M74 724h134v-724h-134v724z" />
    <glyph glyph-name="J" unicode="J" horiz-adv-x="440" 
d="M71.5 2.5c-29.667 9.66699 -54.833 23.5 -75.5 41.5l46 100c42.667 -24.667 82 -37 118 -37c52.667 0 79 27 79 81v536h134v-546c0 -60.667 -18 -107.5 -54 -140.5s-87 -49.5 -153 -49.5c-33.333 0 -64.833 4.83301 -94.5 14.5z" />
    <glyph glyph-name="K" unicode="K" horiz-adv-x="598" 
d="M274 298l-68 -90v-208h-134v724h134v-339l232 339h159l-239 -315l254 -409h-159z" />
    <glyph glyph-name="L" unicode="L" horiz-adv-x="493" 
d="M476 119v-119h-404v724h134v-605h270z" />
    <glyph glyph-name="M" unicode="M" horiz-adv-x="803" 
d="M731 724v-724h-129v496l-131 -355h-140l-132 355v-496h-127v724h157l173 -462l170 462h159z" />
    <glyph glyph-name="N" unicode="N" horiz-adv-x="680" 
d="M608 724v-724h-129l-276 487v-487h-131v724h129l276 -485v485h131z" />
    <glyph glyph-name="O" unicode="O" horiz-adv-x="668" 
d="M117.5 82c-49.667 62.667 -74.5 156 -74.5 280s24.833 217.333 74.5 280s121.834 94 216.501 94s166.834 -31.333 216.501 -94s74.5 -156 74.5 -280s-24.833 -217.333 -74.5 -280s-121.834 -94 -216.501 -94s-166.834 31.333 -216.501 94zM487 362
c0 170.667 -51 256 -153 256s-153 -85.333 -153 -256s51 -256 153 -256s153 85.333 153 256z" />
    <glyph glyph-name="P" unicode="P" horiz-adv-x="559" 
d="M494.5 659c40.333 -43.333 60.5 -103.667 60.5 -181c0 -78 -20.667 -138.833 -62 -182.5s-99 -65.5 -173 -65.5h-114v-230h-134v724h134h120c72 0 128.167 -21.667 168.5 -65zM394 379.999c15.333 21.333 23 52.668 23 94.001c0 43.333 -8.16699 76.166 -24.5 98.499
s-40.5 33.5 -72.5 33.5h-114v-258h120c30 0 52.667 10.667 68 32z" />
    <glyph glyph-name="Q" unicode="Q" horiz-adv-x="668" 
d="M553 -164l-129.001 162.999c-29.333 -7.33301 -59.333 -11 -90 -11c-94.667 0 -166.834 31.333 -216.501 94s-74.5 156 -74.5 280s24.833 217.333 74.5 280s121.834 94 216.501 94s166.834 -31.333 216.501 -94s74.5 -156 74.5 -280
c0 -145.333 -34.333 -248.666 -103 -309.999l118 -135zM333.999 105.999c102 0 153 85.333 153 256s-51 256 -153 256s-153 -85.333 -153 -256s51 -256 153 -256z" />
    <glyph glyph-name="R" unicode="R" horiz-adv-x="595" 
d="M280 252l-74 -0.000976562v-252h-134v724h134h111c72 0 127.833 -20.667 167.5 -62s59.5 -99.333 59.5 -174c0 -55.333 -10.833 -101.666 -32.5 -138.999s-53.167 -64 -94.5 -80l170 -269h-161zM206 364.999h111c60 0 90 40.333 90 121c0 81.333 -31.333 122 -94 122
h-107v-243z" />
    <glyph glyph-name="S" unicode="S" horiz-adv-x="526" 
d="M128 6c-39.333 11.333 -74 27.666 -104 48.999l41 103c63.333 -36.667 125 -55 185 -55c76 0 114 30.667 114 92c0 25.333 -6.83301 45.5 -20.5 60.5s-35.834 26.833 -66.501 35.5l-82 23c-56.667 16 -97.834 39.667 -123.501 71s-38.5 74 -38.5 128
c0 70.667 20 125.334 60 164.001s96.333 58 169 58c34.667 0 70.5 -4.33301 107.5 -13s72.167 -21 105.5 -37l-41 -103c-70 26 -128 39 -174 39c-66 0 -99 -28 -99 -84c0 -25.333 6.83301 -45.5 20.5 -60.5s35.834 -26.833 66.501 -35.5l82 -23
c56.667 -16 97.834 -39.833 123.501 -71.5s38.5 -74.5 38.5 -128.5c0 -72.667 -21 -129 -63 -169s-101.667 -60 -179 -60c-42 0 -82.667 5.66699 -122 17z" />
    <glyph glyph-name="T" unicode="T" horiz-adv-x="492" 
d="M481 605h-168v-605h-134v605h-168v119h302h168v-119z" />
    <glyph glyph-name="U" unicode="U" horiz-adv-x="646" 
d="M134 54c-44.667 44 -66.999 106 -66.999 186v484h134v-474c0 -96 40.333 -144 121 -144c82 0 123 48 123 144v474h134v-484c0 -80 -22.5 -142 -67.5 -186s-108.167 -66 -189.5 -66c-80.667 0 -143.334 22 -188.001 66z" />
    <glyph glyph-name="V" unicode="V" horiz-adv-x="604" 
d="M583 724l-208 -724h-146l-208 724h141l141 -583l140 583h140z" />
    <glyph glyph-name="W" unicode="W" horiz-adv-x="852" 
d="M829 724l-159 -724h-146l-99 534l-98 -534h-146l-158 724h138l95 -567l98 566h144l100 -566l94 567h137z" />
    <glyph glyph-name="X" unicode="X" horiz-adv-x="568" 
d="M408 0l-127 256l-123 -256h-147l199 367l-191 357h148l120 -245l121 245h147l-197 -357l199 -367h-149z" />
    <glyph glyph-name="Y" unicode="Y" horiz-adv-x="560" 
d="M547 724l-201 -485v-239h-134v239l-199 485h143l125 -339l124 339h142z" />
    <glyph glyph-name="Z" unicode="Z" horiz-adv-x="515" 
d="M487 116v-116h-461v117l305 491h-295v116h445v-116l-305 -492h311z" />
    <glyph glyph-name="bracketleft" unicode="[" horiz-adv-x="331" 
d="M192 706v-728h129v-99h-249v926h249v-99h-129z" />
    <glyph glyph-name="backslash" unicode="\" horiz-adv-x="417" 
d="M304 -86l-305 835h108l305 -835h-108z" />
    <glyph glyph-name="bracketright" unicode="]" horiz-adv-x="331" 
d="M259 805v-926h-249v99h129v728h-129v99h249z" />
    <glyph glyph-name="asciicircum" unicode="^" horiz-adv-x="429" 
d="M159 724h110l151 -223h-123l-82 144l-84 -144h-122z" />
    <glyph glyph-name="underscore" unicode="_" horiz-adv-x="563" 
d="M72 -58h419v-105h-419v105z" />
    <glyph glyph-name="grave" unicode="`" horiz-adv-x="500" 
d="M108 774v10h133l79 -159v-10h-96z" />
    <glyph glyph-name="a" unicode="a" horiz-adv-x="502" 
d="M390.5 513.5c35 -29.667 52.501 -71.165 52.501 -124.498v-389h-115v80c-30.667 -60 -81.334 -90 -152.001 -90c-48.667 0 -86.167 14.167 -112.5 42.5s-39.5 68.166 -39.5 119.499c0 64.667 22.833 112.167 68.5 142.5s119.167 46.166 220.5 47.499v31
c0 46.667 -31 70 -93 70c-41.333 0 -81 -9.33301 -119 -28l-32 99c55.333 29.333 113.333 44 174 44c63.333 0 112.5 -14.833 147.5 -44.5zM313.001 150.002l-0.000976562 106c-57.333 -1.33301 -99 -9.5 -125 -24.5s-39 -38.5 -39 -70.5c0 -41.333 20 -62 60 -62
c38.667 0 73.334 17 104.001 51z" />
    <glyph glyph-name="b" unicode="b" horiz-adv-x="543" 
d="M458.5 484c32.333 -49.333 48.499 -119.332 48.499 -209.999s-16.167 -161 -48.5 -211s-78.166 -75 -137.499 -75c-31.333 0 -58.833 6.66699 -82.5 20s-42.5 32.666 -56.5 57.999v-66h-116v513v257h132v-275c30 42 71.333 63 124 63c58.667 0 104.167 -24.667 136.5 -74
zM371.999 269.001c0 112 -30.668 167.999 -92.001 167.999c-29.333 0 -56.666 -14 -81.999 -42v-248c11.333 -13.333 24.5 -23.666 39.5 -30.999s30.5 -11 46.5 -11c58.667 0 88 54.667 88 164z" />
    <glyph glyph-name="c" unicode="c" horiz-adv-x="449" 
d="M96.5 60c-43 47.333 -64.5039 114.332 -64.5039 200.999c0 59.333 10.167 111.333 30.5 156s48.833 79.334 85.5 104.001s79 37 127 37c28.667 0 56.334 -4.33301 83.001 -13s49.667 -20.667 69 -36l-48 -99c-43.333 20 -78.666 30 -105.999 30
c-33.333 0 -59.333 -14.833 -78 -44.5s-28 -71.5 -28 -125.5c0 -108 39.333 -162 118 -162c34.667 0 69.334 10 104.001 30l44 -100c-39.333 -32.667 -90.666 -49 -153.999 -49c-78.667 0 -139.5 23.667 -182.5 71z" />
    <glyph glyph-name="d" unicode="d" horiz-adv-x="543" 
d="M477 770l0.000976562 -737.001v-33h-116v77c-31.333 -59.333 -78 -89 -140 -89c-58.667 0 -104.167 24.667 -136.5 74s-48.5 119.333 -48.5 210s16.167 161 48.5 211s78.166 75 137.499 75c25.333 0 48.5 -4.66699 69.5 -14s38.833 -22.666 53.5 -39.999v266h132z
M345.001 150.999l0.000976562 248.001c-11.333 13.333 -24.5 23.666 -39.5 30.999s-30.5 11 -46.5 11c-58.667 0 -88 -54.667 -88 -164c0 -112 30.667 -168 92 -168c29.333 0 56.666 14 81.999 42z" />
    <glyph glyph-name="e" unicode="e" horiz-adv-x="510" 
d="M474 232l-307.003 -0.000976562c10 -84 51.667 -126 125 -126c40.667 0 81.667 10.667 123 32l45 -96c-25.333 -17.333 -53.666 -30.5 -84.999 -39.5s-63.666 -13.5 -96.999 -13.5c-77.333 0 -137.333 24.667 -180 74s-64 119.333 -64 210s19.833 160.834 59.5 210.501
s95.834 74.5 168.501 74.5c69.333 0 123 -22.833 161 -68.5s57 -110.167 57 -193.5c0 -24.667 -2 -46 -6 -64zM166.997 318.999h181.999c-1.33301 40 -9.66602 70.833 -24.999 92.5s-37 32.5 -65 32.5c-53.333 0 -84 -41.667 -92 -125z" />
    <glyph glyph-name="f" unicode="f" horiz-adv-x="340" 
d="M76 434h-77v112h77v41c0 63.333 18.333 112.333 55 147s88.667 52 156 52c22 0 41.333 -1.66699 58 -5v-113c-18.667 2.66699 -38 4 -58 4c-52.667 0 -79 -28.333 -79 -85v-41h119v-112h-119v-434h-132v434z" />
    <glyph glyph-name="g" unicode="g" horiz-adv-x="545" 
d="M479 546v-533.001c0 -73.333 -20.667 -130.333 -62 -171s-99.333 -61 -174 -61c-32 0 -63 3.66699 -93 11s-56 17.333 -78 30l36 102c42 -19.333 82.667 -29 122 -29c78 0 117 39.333 117 118v69c-30 -42.667 -71.333 -64 -124 -64c-59.333 0 -105.333 23.5 -138 70.5
s-49 113.167 -49 198.5c0 86 16.333 152.667 49 200s79 71 139 71c31.333 0 58.833 -6.66699 82.5 -20s42.5 -32.666 56.5 -57.999v66h116zM347 179.999l0.000976562 219.001c-11.333 13.333 -24.5 23.666 -39.5 30.999s-30.5 11 -46.5 11c-60 0 -90 -49.667 -90 -149
c0 -102.667 31.333 -154 94 -154c29.333 0 56.666 14 81.999 42z" />
    <glyph glyph-name="h" unicode="h" horiz-adv-x="552" 
d="M450.5 513.5c27 -29.667 40.5 -71.167 40.5 -124.5v-389h-132v369c0 45.333 -24.333 68 -73 68c-32.667 0 -62 -11.667 -88 -35v-402h-132v770h132v-273c38 40.667 84.333 61 139 61c48.667 0 86.5 -14.833 113.5 -44.5z" />
    <glyph glyph-name="i" unicode="i" horiz-adv-x="268" 
d="M68 546h132v-546h-132v546zM78 638.5c-13.333 13.667 -20 32.167 -20 55.5c0 24.667 6.66699 43.667 20 57s32 20 56 20s42.667 -6.83301 56 -20.5s20 -32.167 20 -55.5c0 -24.667 -6.66699 -43.667 -20 -57s-32 -20 -56 -20s-42.667 6.83301 -56 20.5z" />
    <glyph glyph-name="j" unicode="j" horiz-adv-x="268" 
d="M-66 -115c36.667 13.333 64.333 26.832 83 40.499s31.834 30.167 39.501 49.5s11.5 45 11.5 77v494h132v-498c0 -50.667 -6.83301 -92.167 -20.5 -124.5s-36.334 -59.666 -68.001 -81.999s-76.5 -43.5 -134.5 -63.5zM77.999 638.499c-13.333 13.667 -20 32.167 -20 55.5
c0 24.667 6.66699 43.667 20 57s32 20 56 20s42.667 -6.83301 56 -20.5s20 -32.167 20 -55.5c0 -24.667 -6.66699 -43.667 -20 -57s-32 -20 -56 -20s-42.667 6.83301 -56 20.5z" />
    <glyph glyph-name="k" unicode="k" horiz-adv-x="531" 
d="M246 216l-48 -61v-155h-132v770h132v-446l162 222h151l-183 -228l197 -318h-151z" />
    <glyph glyph-name="l" unicode="l" horiz-adv-x="302" 
d="M64 134l-0.000976562 636h132v-605c0 -19.333 3.5 -33.333 10.5 -42s18.167 -13 33.5 -13c10.667 0 21.334 1 32.001 3l8 -110c-25.333 -6 -51 -9 -77 -9c-92.667 0 -139 46.667 -139 140z" />
    <glyph glyph-name="m" unicode="m" horiz-adv-x="833" 
d="M733 513.5c26 -29.667 39.001 -71.167 39.001 -124.5v-389h-132v369c0 45.333 -23 68 -69 68c-30.667 0 -59 -12 -85 -36v-12v-389h-132v369c0 45.333 -23.333 68 -70 68c-31.333 0 -60 -11.667 -86 -35v-402h-132v546h116v-68c40.667 53.333 91.667 80 153 80
c32.667 0 60.5 -7 83.5 -21s40.167 -34 51.5 -60c41.333 54 92.666 81 153.999 81c46.667 0 83 -14.833 109 -44.5z" />
    <glyph glyph-name="n" unicode="n" horiz-adv-x="550" 
d="M449 513.5c26.667 -29.667 39.999 -71.167 39.999 -124.5v-389h-132v369c0 45.333 -24 68 -72 68c-32 0 -61 -11.667 -87 -35v-402h-132v546h116v-68c40.667 53.333 92 80 154 80c48.667 0 86.334 -14.833 113.001 -44.5z" />
    <glyph glyph-name="o" unicode="o" horiz-adv-x="526" 
d="M94.5 60c-39 48 -58.501 119 -58.501 213s19.5 165 58.5 213s95.167 72 168.5 72s129.5 -24 168.5 -72s58.5 -119 58.5 -213s-19.667 -165 -59 -213s-95.666 -72 -168.999 -72c-72.667 0 -128.5 24 -167.5 72zM354.999 273c0 112.667 -30.667 169 -92 169
s-92 -56.333 -92 -169s30.333 -169 91 -169c62 0 93 56.333 93 169z" />
    <glyph glyph-name="p" unicode="p" horiz-adv-x="543" 
d="M458.5 484c32.333 -49.333 48.499 -119.332 48.499 -209.999s-16.167 -161 -48.5 -211s-78.166 -75 -137.499 -75c-25.333 0 -48.5 4.66699 -69.5 14s-38.833 22.666 -53.5 39.999v-249h-132v720v33h116v-77c31.333 59.333 78 89 140 89
c58.667 0 104.167 -24.667 136.5 -74zM371.999 269.001c0 112 -30.668 167.999 -92.001 167.999c-29.333 0 -56.666 -14 -81.999 -42v-248c11.333 -13.333 24.5 -23.666 39.5 -30.999s30.5 -11 46.5 -11c58.667 0 88 54.667 88 164z" />
    <glyph glyph-name="q" unicode="q" horiz-adv-x="543" 
d="M477 546l0.000976562 -513.001v-240h-132v258c-30 -42 -71.333 -63 -124 -63c-58.667 0 -104.167 24.667 -136.5 74s-48.5 119.333 -48.5 210s16.167 161 48.5 211s78.166 75 137.499 75c31.333 0 58.833 -6.66699 82.5 -20s42.5 -32.666 56.5 -57.999v66h116z
M345.001 150.999l0.000976562 248.001c-11.333 13.333 -24.5 23.666 -39.5 30.999s-30.5 11 -46.5 11c-58.667 0 -88 -54.667 -88 -164c0 -112 30.667 -168 92 -168c29.333 0 56.666 14 81.999 42z" />
    <glyph glyph-name="r" unicode="r" horiz-adv-x="372" 
d="M372 543l-24 -123c-19.333 6 -39 9 -59 9c-22 0 -40 -3.83301 -54 -11.5s-26.333 -20.167 -37 -37.5v-380h-132v546h116v-86c30 64 74 96 132 96c22 0 41.333 -4.33301 58 -13z" />
    <glyph glyph-name="s" unicode="s" horiz-adv-x="441" 
d="M105.5 3.5c-33.667 9.66699 -63.168 23.1641 -88.501 40.4971l43 99c54.667 -30.667 104.667 -46 150 -46c52.667 0 79 19 79 57c0 15.333 -4.66699 27.5 -14 36.5s-24.333 16.167 -45 21.5l-71 17c-46.667 11.333 -80.667 29 -102 53s-32 57.333 -32 100
c0 55.333 17.333 98.333 52 129s83.334 46 146.001 46c33.333 0 65.5 -4.16699 96.5 -12.5s58.5 -19.833 82.5 -34.5l-48 -103c-48.667 24 -93 36 -133 36c-46.667 0 -70 -16 -70 -48c0 -13.333 4.66699 -24.166 14 -32.499s24.333 -15.166 45 -20.499l71 -17
c46.667 -11.333 80.667 -29.166 102 -53.499s32 -57.833 32 -100.5c0 -58 -17.833 -102.833 -53.5 -134.5s-86.167 -47.5 -151.5 -47.5c-36 0 -70.833 4.83301 -104.5 14.5z" />
    <glyph glyph-name="t" unicode="t" horiz-adv-x="369" 
d="M127 32.5c-30 26.333 -45 68.5 -45 126.5v275h-77v112h78v148h131v-148h139v-112h-139v-250c0 -28 5.33301 -47.5 16 -58.5s29 -16.5 55 -16.5c18 0 36.667 2.66699 56 8l18 -110c-31.333 -9.33301 -63 -14 -95 -14c-61.333 0 -107 13.167 -137 39.5z" />
    <glyph glyph-name="u" unicode="u" horiz-adv-x="542" 
d="M476 546l-0.000976562 -546h-116v75c-36.667 -58 -87 -87 -151 -87c-47.333 0 -84.166 14.667 -110.499 44s-39.5 70.666 -39.5 123.999v390h132v-369c0 -45.333 23 -68 69 -68c16.667 0 31.667 3.33301 45 10s26.333 17.334 39 32.001v395h132z" />
    <glyph glyph-name="v" unicode="v" horiz-adv-x="501" 
d="M486 546l-164 -546h-142l-165 546h133l104 -414l102 414h132z" />
    <glyph glyph-name="w" unicode="w" horiz-adv-x="750" 
d="M733 546l-138 -546h-142l-77 387l-78 -387h-142l-139 546h132l80 -409l82 409h134l80 -406l77 406h131z" />
    <glyph glyph-name="x" unicode="x" horiz-adv-x="474" 
d="M326 0l-91 176l-89 -176h-140l161 278l-154 268h142l85 -166l86 166h140l-159 -268l161 -278h-142z" />
    <glyph glyph-name="y" unicode="y" horiz-adv-x="497" 
d="M482 546l-155.001 -515.001c-18.667 -62.667 -49.167 -113.667 -91.5 -153s-100.5 -71.666 -174.5 -96.999l-44 110c44 16 78.833 32 104.5 48s45.834 34.667 60.501 56l-167 551h133l103 -408l99 408h132z" />
    <glyph glyph-name="z" unicode="z" horiz-adv-x="434" 
d="M411 111v-111h-390v111l239 324h-229v111h374v-111l-239 -324h245z" />
    <glyph glyph-name="braceleft" unicode="{" horiz-adv-x="333" 
d="M189 -83c-29.333 18.667 -50.167 42.999 -62.5 72.999s-18.5 69.333 -18.5 118v103c0 27.333 -8.5 47.166 -25.5 59.499s-43.833 18.833 -80.5 19.5v104c36.667 0.666992 63.5 7.16699 80.5 19.5s25.5 32.166 25.5 59.499v104c0 48.667 6.16699 87.834 18.5 117.501
s33 53.834 62 72.501s70.167 34.334 123.5 47.001l27 -93c-30.667 -7.33301 -53.834 -16.333 -69.501 -27s-26.667 -24.834 -33 -42.501s-9.5 -42.5 -9.5 -74.5v-104c0 -70 -28.333 -113.333 -85 -130c56.667 -16.667 85 -60.667 85 -132v-103c0 -32 3.16699 -57 9.5 -75
s17.333 -32.333 33 -43s38.834 -19.667 69.501 -27l-27 -93c-52.667 12.667 -93.667 28.334 -123 47.001z" />
    <glyph glyph-name="bar" unicode="|" horiz-adv-x="241" 
d="M72 816h97v-1066h-97v1066z" />
    <glyph glyph-name="braceright" unicode="}" horiz-adv-x="333" 
d="M-6 -37c30.667 7.33301 53.833 16.334 69.5 27.001s26.667 25 33 43s9.5 43 9.5 75v103c0 71.333 28.333 115.333 85 132c-56.667 16.667 -85 60 -85 130v104c0 32 -3.16699 56.833 -9.5 74.5s-17.333 31.834 -33 42.501s-38.834 19.667 -69.501 27l27 93
c53.333 -12.667 94.5 -28.334 123.5 -47.001s49.667 -42.834 62 -72.501s18.5 -68.834 18.5 -117.501v-104c0 -27.333 8.5 -47.166 25.5 -59.499s43.833 -18.833 80.5 -19.5v-104c-36.667 -0.666992 -63.5 -7.16699 -80.5 -19.5s-25.5 -32.166 -25.5 -59.499v-103
c0 -48.667 -6.16699 -88 -18.5 -118s-33.166 -54.333 -62.499 -73s-70.333 -34.334 -123 -47.001z" />
    <glyph glyph-name="asciitilde" unicode="~" horiz-adv-x="543" 
d="M306.5 280c-13 6 -28.167 14.667 -45.5 26c-13.333 9.33301 -24.666 16.333 -33.999 21s-20 7 -32 7c-14 0 -27.667 -4.5 -41 -13.5s-27.666 -23.5 -42.999 -43.5l-75 77c48.667 64.667 100 97 154 97c18 0 33.5 -3 46.5 -9s28.167 -14.667 45.5 -26
c13.333 -9.33301 24.666 -16.333 33.999 -21s20 -7 32 -7c14 0 27.667 4.5 41 13.5s27.666 23.5 42.999 43.5l75 -77c-48.667 -64.667 -100 -97 -154 -97c-18 0 -33.5 3 -46.5 9z" />
    <glyph glyph-name="uni00A0" unicode="&#xa0;" horiz-adv-x="177" 
 />
    <glyph glyph-name="exclamdown" unicode="&#xa1;" horiz-adv-x="342" 
d="M229 524c14 -14 21 -32.999 21 -56.999c0 -24.667 -6.83301 -43.834 -20.5 -57.501s-33.167 -20.5 -58.5 -20.5c-24.667 0 -44 6.83301 -58 20.5s-21 32.5 -21 56.5c0 25.333 7 44.833 21 58.5s33.333 20.5 58 20.5s44 -7 58 -21zM245 -189.999h-146l20 505h104z" />
    <glyph glyph-name="cent" unicode="&#xa2;" horiz-adv-x="458" 
d="M316 29l-0.000976562 -113.999h-86v115c-63.333 9.33301 -112.166 35.666 -146.499 78.999s-51.5 101.333 -51.5 174c0 70 17.833 128 53.5 174s83.834 73.667 144.501 83v115h86v-115c45.333 -6 82.666 -20.333 111.999 -43l-44 -96c-23.333 10.667 -46 18.667 -68 24
v-282c26 2.66699 51.333 11 76 25l42 -94c-32 -25.333 -71.333 -40.333 -118 -45zM178.999 194.501c10.667 -22.333 27.667 -37.501 51 -45.501v274c-44.667 -16.667 -67 -63 -67 -139c0 -37.333 5.33301 -67.166 16 -89.499z" />
    <glyph glyph-name="sterling" unicode="&#xa3;" horiz-adv-x="500" 
d="M239.5 208c-15.667 -31.333 -40.167 -62 -73.5 -92h294v-116h-415v115l28 28c23.333 24 39.833 47.167 49.5 69.5s14.5 49.166 14.5 80.499v16h-100v109h72c-11.333 26 -19.5 47.5 -24.5 64.5s-7.5 38.167 -7.5 63.5c0 60.667 17.667 107.5 53 140.5s85 49.5 149 49.5
c36.667 0 71 -5.5 103 -16.5s58.667 -26.5 80 -46.5l-63 -105c-42.667 30.667 -82.667 46 -120 46c-46.667 0 -70 -24.667 -70 -74c0 -16.667 2.16699 -32.667 6.5 -48s9.33301 -30.166 15 -44.499l11.5 -29.5h159v-109h-138c0 -36 -7.83301 -69.667 -23.5 -101z" />
    <glyph glyph-name="currency" unicode="&#xa4;" horiz-adv-x="562" 
d="M461 145l65 -86l-66 -55l-64 84c-33.333 -16.667 -71.666 -25 -114.999 -25s-81.666 8.33301 -114.999 25l-64 -84l-66 55l65 86c-30.667 42.667 -46 98.667 -46 168c0 68.667 15 124.334 45 167.001l-64 86l66 55l64 -84c33.333 16.667 71.666 25 114.999 25
s81.666 -8.33301 114.999 -25l64 84l66 -55l-64 -86c30 -42.667 45 -98.334 45 -167.001c0 -69.333 -15.333 -125.333 -46 -168zM379 313c0 90 -32.667 135 -98 135s-98 -45 -98 -135c0 -90.667 32.667 -136 98 -136s98 45.333 98 136z" />
    <glyph glyph-name="yen" unicode="&#xa5;" horiz-adv-x="510" 
d="M352 339h93v-83h-125v-70h125v-83h-125v-103h-132v103h-125v83h125v70h-125v83h93l-147 385h141l108 -351l103 351h140z" />
    <glyph glyph-name="brokenbar" unicode="&#xa6;" horiz-adv-x="241" 
d="M72 816h97v-447h-97v447zM72 198h97v-448h-97v448z" />
    <glyph glyph-name="section" unicode="&#xa7;" horiz-adv-x="497" 
d="M408 118c28 -30 42 -72.332 42 -126.999c0 -64.667 -17.833 -114.667 -53.5 -150s-85.834 -53 -150.501 -53c-33.333 0 -67.666 4.66699 -102.999 14s-68 22.333 -98 39l44 108c66 -31.333 118.333 -47 157 -47c52 0 78 27 78 81c0 21.333 -5 38.5 -15 51.5
s-28 23.167 -54 30.5l-62 17c-52 14.667 -89.667 36 -113 64s-35 66 -35 114c0 56 15.333 104.333 46 145c-26.667 28.667 -40 69.667 -40 123c0 66 18 117 54 153s87 54 153 54c30 0 60.5 -3.66699 91.5 -11s59.5 -17.666 85.5 -30.999l-46 -103
c-55.333 20.667 -99.333 31 -132 31c-53.333 0 -80 -27.667 -80 -83c0 -22 5 -39.333 15 -52s27.333 -22.334 52 -29.001l62 -17c50.667 -14 87.667 -35.167 111 -63.5s35 -66.833 35 -115.5c0 -54.667 -14.667 -102.334 -44 -143.001zM308 173.001l9 -2.99902
c10.667 19.333 16 41.666 16 66.999c0 26 -6 46 -18 60s-32.667 25.333 -62 34l-62 18l-10 3c-11.333 -18.667 -17 -41 -17 -67c0 -25.333 6.16699 -45 18.5 -59s33.5 -25.667 63.5 -35z" />
    <glyph glyph-name="dieresis" unicode="&#xa8;" horiz-adv-x="500" 
d="M109 633c-12 12.667 -18 29.667 -18 51c0 22.667 5.83301 40.167 17.5 52.5s28.167 18.5 49.5 18.5s38 -6.33301 50 -19s18 -29.667 18 -51c0 -22.667 -6 -40.167 -18 -52.5s-28.667 -18.5 -50 -18.5c-20.667 0 -37 6.33301 -49 19zM292 633
c-12 12.667 -18 29.667 -18 51c0 22.667 5.83301 40.167 17.5 52.5s28.167 18.5 49.5 18.5s38 -6.33301 50 -19s18 -29.667 18 -51c0 -22.667 -6 -40.167 -18 -52.5s-28.667 -18.5 -50 -18.5c-20.667 0 -37 6.33301 -49 19z" />
    <glyph glyph-name="copyright" unicode="&#xa9;" horiz-adv-x="790" 
d="M223 31.5c-48.667 29.667 -86.167 72.5 -112.5 128.5s-39.5 123.333 -39.5 202c0 78 13.167 145.167 39.5 201.5s63.833 99.166 112.5 128.499s106 44 172 44s123.333 -14.667 172 -44s86.167 -72.166 112.5 -128.499s39.5 -123.5 39.5 -201.5
c0 -78.667 -13.167 -146 -39.5 -202s-63.833 -98.833 -112.5 -128.5s-106 -44.5 -172 -44.5s-123.333 14.833 -172 44.5zM576.5 141.5c43 52.333 64.5 125.833 64.5 220.5s-21.5 168.167 -64.5 220.5s-103.5 78.5 -181.5 78.5s-138.5 -26.167 -181.5 -78.5
s-64.5 -125.833 -64.5 -220.5s21.5 -168.167 64.5 -220.5s103.5 -78.5 181.5 -78.5s138.5 26.167 181.5 78.5zM292.5 225.5c-27.667 31 -41.501 74.833 -41.501 131.5c0 60 13.667 106.333 41 139s66 49 116 49c20 0 38.833 -2.66699 56.5 -8s32.834 -13 45.501 -23l-33 -68
c-28.667 13.333 -52 20 -70 20c-43.333 0 -65 -34.667 -65 -104s24 -104 72 -104c21.333 0 44.666 6.66699 69.999 20l30 -67c-11.333 -10 -26.166 -17.833 -44.499 -23.5s-38.166 -8.5 -59.499 -8.5c-50.667 0 -89.834 15.5 -117.501 46.5z" />
    <glyph glyph-name="ordfeminine" unicode="&#xaa;" horiz-adv-x="488" 
d="M367 697.5c28 -21 42.001 -52.167 42.001 -93.5v-281c-22.667 -12.667 -49.334 -22.334 -80.001 -29.001s-62.667 -10 -96 -10c-56.667 0 -100.667 12 -132 36s-47 57.667 -47 101c0 48.667 19.5 83.834 58.5 105.501s101.833 32.167 188.5 31.5v23
c0 18 -5.83301 31.167 -17.5 39.5s-29.834 12.5 -54.501 12.5c-36 0 -73.667 -7.66699 -113 -23l-28 82c24 12 49.833 21.167 77.5 27.5s54.834 9.5 81.501 9.5c52 0 92 -10.5 120 -31.5zM233.001 374c27.333 0 50 2.66602 68 7.99902v107
c-48 0.666992 -83 -4.16602 -105 -14.499s-33 -26.5 -33 -48.5c0 -34.667 23.333 -52 70 -52zM82.001 195.999h316v-89h-316v89z" />
    <glyph glyph-name="guillemotleft" unicode="&#xab;" horiz-adv-x="568" 
d="M388 292l167 -204l-77 -72l-226 275l226 275l77 -72zM147 292l167 -204l-77 -72l-226 275l226 275l77 -72z" />
    <glyph glyph-name="logicalnot" unicode="&#xac;" horiz-adv-x="543" 
d="M493 511v-117v-172h-119v172h-324v117h443z" />
    <glyph glyph-name="uni00AD" unicode="&#xad;" horiz-adv-x="379" 
d="M31 352h317v-100h-317v100z" />
    <glyph glyph-name="registered" unicode="&#xae;" horiz-adv-x="790" 
d="M567 692c48.667 -29.333 86.167 -72.166 112.5 -128.499s39.5 -123.5 39.5 -201.5c0 -78.667 -13.167 -146 -39.5 -202s-63.833 -98.833 -112.5 -128.5s-106 -44.5 -172 -44.5s-123.333 14.833 -172 44.5s-86.167 72.5 -112.5 128.5s-39.5 123.333 -39.5 202
c0 78 13.167 145.167 39.5 201.5s63.833 99.166 112.5 128.499s106 44 172 44s123.333 -14.667 172 -44zM576.5 141.5c43 52.333 64.5 125.833 64.5 220.5s-21.5 168.167 -64.5 220.5s-103.5 78.5 -181.5 78.5s-138.5 -26.167 -181.5 -78.5s-64.5 -125.833 -64.5 -220.5
s21.5 -168.167 64.5 -220.5s103.5 -78.5 181.5 -78.5s138.5 26.167 181.5 78.5zM470 309l66 -125.001h-93l-52 109h-30v-109h-81v356h124c37.333 0 66.333 -11 87 -33s31 -52.667 31 -92c0 -51.333 -17.333 -86.666 -52 -105.999zM361 359.999h39c24.667 0 37 18 37 54
c0 37.333 -12.333 56 -37 56h-39v-110z" />
    <glyph glyph-name="macron" unicode="&#xaf;" horiz-adv-x="500" 
d="M95 725h310v-87h-310v87z" />
    <glyph glyph-name="degree" unicode="&#xb0;" horiz-adv-x="426" 
d="M82 413c-33.333 34.667 -50 79.667 -50 135s16.667 100.333 50 135s77 52 131 52s97.667 -17.333 131 -52s50 -79.667 50 -135s-16.667 -100.333 -50 -135s-77 -52 -131 -52s-97.667 17.333 -131 52zM265.5 487.5c13.667 15.667 20.5 35.834 20.5 60.501
s-6.83301 44.834 -20.5 60.501s-31.167 23.5 -52.5 23.5s-38.833 -7.83301 -52.5 -23.5s-20.5 -35.834 -20.5 -60.501s6.83301 -44.834 20.5 -60.501s31.167 -23.5 52.5 -23.5s38.833 7.83301 52.5 23.5z" />
    <glyph glyph-name="plusminus" unicode="&#xb1;" horiz-adv-x="543" 
d="M507 519v-115h-176v-175h-119v175h-176v115h176v175h119v-175h176zM36 169h471v-113h-471v113z" />
    <glyph glyph-name="uni00B2" unicode="&#xb2;" horiz-adv-x="353" 
d="M318 407v-85.998h-301v86l147 155c17.333 18.667 28.833 32.667 34.5 42s8.5 19.666 8.5 30.999c0 15.333 -4 27.333 -12 36s-20 13 -36 13c-32 0 -67.333 -13.333 -106 -40l-45 75c26.667 19.333 53.167 33.666 79.5 42.999s53.833 14 82.5 14
c45.333 0 80.5 -11.667 105.5 -35s37.5 -56.333 37.5 -99c0 -25.333 -5.33301 -47.5 -16 -66.5s-30.667 -43.833 -60 -74.5l-92 -94h173z" />
    <glyph glyph-name="uni00B3" unicode="&#xb3;" horiz-adv-x="375" 
d="M304 552.5c18.667 -23 28 -53.168 28 -90.501c0 -47.333 -15 -83.666 -45 -108.999s-73 -38 -129 -38c-57.333 0 -107.333 15.333 -150 46l36 78c40.667 -21.333 78.667 -32 114 -32c44 0 66 19.333 66 58c0 18 -4.83301 31.667 -14.5 41s-25.5 14 -47.5 14
c-15.333 0 -31 -2 -47 -6l-38 53l117 117h-170v86h292v-87l-94 -86c36 -6.66699 63.333 -21.5 82 -44.5z" />
    <glyph glyph-name="acute" unicode="&#xb4;" horiz-adv-x="500" 
d="M184 625l86 159h133v-10l-123 -159h-96v10z" />
    <glyph glyph-name="uni00B5" unicode="&#xb5;" horiz-adv-x="554" 
d="M488 546v-546h-116v76c-34 -53.333 -80.667 -80 -140 -80c-14 0 -25.333 1.33301 -34 4v-207h-132v523v230h132v-369c0 -46 23.667 -69 71 -69c31.333 0 60.333 13.667 87 41v397h132z" />
    <glyph glyph-name="paragraph" unicode="&#xb6;" horiz-adv-x="537" 
d="M465 0l-92 -0.000976562v635h-64v-635h-88v308c-66 2.66699 -117.167 21.834 -153.5 57.501s-54.5 85.5 -54.5 149.5c0 66.667 19.667 118.167 59 154.5s95 54.5 167 54.5h226v-724z" />
    <glyph glyph-name="periodcentered" unicode="&#xb7;" horiz-adv-x="250" 
d="M67 282c-14 14 -21 32.999 -21 56.999c0 24.667 6.83301 43.834 20.5 57.501s33.167 20.5 58.5 20.5c24.667 0 44 -6.83301 58 -20.5s21 -32.5 21 -56.5c0 -24.667 -6.83301 -44 -20.5 -58s-33.167 -21 -58.5 -21c-24.667 0 -44 7 -58 21z" />
    <glyph glyph-name="cedilla" unicode="&#xb8;" horiz-adv-x="500" 
d="M347 -73c18.667 -14.667 28 -35.667 28 -63c0 -32.667 -11.5 -58 -34.5 -76s-55.167 -27 -96.5 -27c-43.333 0 -81.666 8.66699 -114.999 26l19 57c34 -11.333 61.333 -17 82 -17c30 0 45 11.333 45 34c0 22 -13.333 33 -40 33c-14 0 -26.667 -2.33301 -38 -7l-26 30
l39 103l84 -6l-48 -68c7.33301 2 14.666 3 21.999 3c34 0 60.333 -7.33301 79 -22z" />
    <glyph glyph-name="uni00B9" unicode="&#xb9;" horiz-adv-x="334" 
d="M231 770v-449h-104v347l-90 -33l-27 79l132 56h89z" />
    <glyph glyph-name="ordmasculine" unicode="&#xba;" horiz-adv-x="496" 
d="M106 339.5c-33.333 37.667 -50.002 93.5 -50.002 167.5s16.833 129.667 50.5 167s81.167 56 142.5 56s108.5 -18.667 141.5 -56s49.5 -93 49.5 -167s-16.667 -129.833 -50 -167.5s-80.666 -56.5 -141.999 -56.5s-108.666 18.833 -141.999 56.5zM327.998 507
c0 86 -26.333 129 -79 129c-54 0 -81 -43 -81 -129c0 -86.667 26.667 -130 80 -130s80 43.333 80 130zM89.998 196h316v-89h-316v89z" />
    <glyph glyph-name="guillemotright" unicode="&#xbb;" horiz-adv-x="568" 
d="M316 291l-226 -275l-77 72l167 202l-167 204l77 72zM557 291l-226 -275l-77 72l167 202l-167 204l77 72z" />
    <glyph glyph-name="onequarter" unicode="&#xbc;" horiz-adv-x="869" 
d="M655 705l-377 -730l-84 44l377 730zM127 275v347l-90 -33l-27 79l132 56h89v-449h-104zM852 159v-84h-47v-75h-101v75h-194v84l150 290h145v-290h47zM704 159v201l-91 -201h91z" />
    <glyph glyph-name="onehalf" unicode="&#xbd;" horiz-adv-x="906" 
d="M655 705l-377 -730l-84 44l377 730zM127 275v347l-90 -33l-27 79l132 56h89v-449h-104zM873 86v-85.998h-301v86l147 155c17.333 18.667 28.833 32.667 34.5 42s8.5 19.666 8.5 30.999c0 15.333 -4 27.333 -12 36s-20 13 -36 13c-32 0 -67.333 -13.333 -106 -40l-45 75
c26.667 19.333 53.167 33.666 79.5 42.999s53.833 14 82.5 14c45.333 0 80.5 -11.667 105.5 -35s37.5 -56.333 37.5 -99c0 -25.333 -5.33301 -47.5 -16 -66.5s-30.667 -43.833 -60 -74.5l-92 -94h173z" />
    <glyph glyph-name="threequarters" unicode="&#xbe;" horiz-adv-x="928" 
d="M714 705l-377 -730l-84 44l377 730zM287 307c-30 -25.333 -73 -38.001 -129 -38.001c-57.333 0 -107.333 15.333 -150 46l36 78c40.667 -21.333 78.667 -32 114 -32c44 0 66 19.333 66 58c0 18 -4.83301 31.667 -14.5 41s-25.5 14 -47.5 14c-15.333 0 -31 -2 -47 -6
l-38 53l117 117h-170v86h292v-87l-94 -86c36 -6.66699 63.333 -21.5 82 -44.5s28 -53.167 28 -90.5c0 -47.333 -15 -83.666 -45 -108.999zM911 158.999v-84h-47v-75h-101v75h-194v84l150 290h145v-290h47zM763 158.999v201l-91 -201h91z" />
    <glyph glyph-name="questiondown" unicode="&#xbf;" horiz-adv-x="434" 
d="M327 524c14 -14 21 -32.999 21 -56.999c0 -24.667 -6.83301 -43.834 -20.5 -57.501s-33.167 -20.5 -58.5 -20.5c-24.667 0 -44 6.83301 -58 20.5s-21 32.5 -21 56.5c0 25.333 7 44.833 21 58.5s33.333 20.5 58 20.5s44 -7 58 -21zM332 266.001
c0 -40 -6.66602 -72.834 -19.999 -98.501s-37.666 -53.5 -72.999 -83.5c-24.667 -20.667 -41.167 -37.167 -49.5 -49.5s-12.5 -26.833 -12.5 -43.5c0 -47.333 26 -71 78 -71c43.333 0 92.666 16.333 147.999 49l52 -106c-28.667 -20.667 -61.5 -36.667 -98.5 -48
s-74.833 -17 -113.5 -17c-64.667 0 -114.834 16.5 -150.501 49.5s-53.5 79.5 -53.5 139.5c0 32.667 6.83301 60.834 20.5 84.501s39.167 50.5 76.5 80.5c30.667 25.333 51.167 46 61.5 62s15.5 34.333 15.5 55c0 8 -1 23.333 -3 46h119c2 -24.667 3 -41 3 -49z" />
    <glyph glyph-name="Agrave" unicode="&#xc0;" horiz-adv-x="636" 
d="M289 781l-161 133v12h143l124 -133v-12h-106zM435 158h-236l-42 -158h-140l228 724h146l228 -724h-141zM404 273l-87 323l-87 -323h174z" />
    <glyph glyph-name="Aacute" unicode="&#xc1;" horiz-adv-x="636" 
d="M346 781h-106v12l133 133h143v-12zM435 158h-236l-42 -158h-140l228 724h146l228 -724h-141zM404 273l-87 323l-87 -323h174z" />
    <glyph glyph-name="Acircumflex" unicode="&#xc2;" horiz-adv-x="636" 
d="M236 781h-90v12l111 133h122l111 -133v-12h-93l-81 81zM435 158h-236l-42 -158h-140l228 724h146l228 -724h-141zM404 273l-87 323l-87 -323h174z" />
    <glyph glyph-name="Atilde" unicode="&#xc3;" horiz-adv-x="636" 
d="M214 787h-71c1.33301 47.333 11.333 84.166 30 110.499s44.334 39.5 77.001 39.5c18 0 33.333 -3.16699 46 -9.5s26.667 -15.5 42 -27.5c10 -8 18.5 -13.833 25.5 -17.5s14.167 -5.5 21.5 -5.5c20.667 0 33 19.333 37 58h71
c-1.33301 -47.333 -11.333 -84.166 -30 -110.499s-44.334 -39.5 -77.001 -39.5c-17.333 0 -32.5 3.16699 -45.5 9.5s-27.167 15.5 -42.5 27.5c-10 8 -18.5 13.833 -25.5 17.5s-14.167 5.5 -21.5 5.5c-20.667 0 -33 -19.333 -37 -58zM435 158h-236l-42 -158h-140l228 724h146
l228 -724h-141zM404 273l-87 323l-87 -323h174z" />
    <glyph glyph-name="Adieresis" unicode="&#xc4;" horiz-adv-x="636" 
d="M177 791c-12 12.667 -18 29.667 -18 51c0 22.667 5.83301 40.167 17.5 52.5s28.167 18.5 49.5 18.5s38 -6.33301 50 -19s18 -29.667 18 -51c0 -22.667 -6 -40.167 -18 -52.5s-28.667 -18.5 -50 -18.5c-20.667 0 -37 6.33301 -49 19zM360 791
c-12 12.667 -18 29.667 -18 51c0 22.667 5.83301 40.167 17.5 52.5s28.167 18.5 49.5 18.5s38 -6.33301 50 -19s18 -29.667 18 -51c0 -22.667 -6 -40.167 -18 -52.5s-28.667 -18.5 -50 -18.5c-20.667 0 -37 6.33301 -49 19zM435 158h-236l-42 -158h-140l228 724h146
l228 -724h-141zM404 273l-87 323l-87 -323h174z" />
    <glyph glyph-name="Aring" unicode="&#xc5;" horiz-adv-x="636" 
d="M223 798c-22.667 20.667 -34 49.667 -34 87s11.333 66.333 34 87s54.334 31 95.001 31s72.334 -10.333 95.001 -31s34 -49.667 34 -87s-11.333 -66.333 -34 -87s-54.334 -31 -95.001 -31s-72.334 10.333 -95.001 31zM269 885c0 -38 16.333 -57 49 -57s49 19 49 57
s-16.333 57 -49 57s-49 -19 -49 -57zM435 158h-236l-42 -158h-140l228 724h146l228 -724h-141zM404 273l-87 323l-87 -323h174z" />
    <glyph glyph-name="AE" unicode="&#xc6;" horiz-adv-x="874" 
d="M850 118v-118h-428v149h-220l-70 -149h-142l346 724h134h365v-118h-283v-176h204v-119h-204v-193h298zM422 264v357l-167 -357h167z" />
    <glyph glyph-name="Ccedilla" unicode="&#xc7;" horiz-adv-x="563" 
d="M430 -73c18.667 -14.667 28 -35.666 28 -62.999c0 -32.667 -11.5 -58 -34.5 -76s-55.167 -27 -96.5 -27c-43.333 0 -81.666 8.66699 -114.999 26l19 57c34 -11.333 61.333 -17 82 -17c30 0 45 11.333 45 34c0 22 -13.333 33 -40 33c-14 0 -26.667 -2.33301 -38 -7l-26 30
l29 77c-80 13.333 -141.667 50.5 -185 111.5s-65 141.5 -65 241.5c0 80 12.5 149.167 37.5 207.5s61 103.166 108 134.499s102.833 47 167.5 47c35.333 0 69.666 -5 102.999 -15s62.333 -24.333 87 -43l-43 -100c-54 26 -103.333 39 -148 39
c-55.333 0 -98.166 -22.667 -128.499 -68s-45.5 -109.333 -45.5 -192c0 -164.667 62 -247 186 -247c49.333 0 96.333 11.667 141 35l44 -99c-19.333 -17.333 -45 -31 -77 -41s-67.333 -15.333 -106 -16l-30 -43c7.33301 2 14.666 3 21.999 3c34 0 60.333 -7.33301 79 -22z
" />
    <glyph glyph-name="Egrave" unicode="&#xc8;" horiz-adv-x="540" 
d="M259 781l-161 133v12h143l124 -133v-12h-106zM516 118v-118h-444v724h429v-118h-295v-176h216v-119h-216v-193h310z" />
    <glyph glyph-name="Eacute" unicode="&#xc9;" horiz-adv-x="540" 
d="M316 781h-106v12l133 133h143v-12zM516 118v-118h-444v724h429v-118h-295v-176h216v-119h-216v-193h310z" />
    <glyph glyph-name="Ecircumflex" unicode="&#xca;" horiz-adv-x="540" 
d="M206 781h-90v12l111 133h122l111 -133v-12h-93l-81 81zM516 118v-118h-444v724h429v-118h-295v-176h216v-119h-216v-193h310z" />
    <glyph glyph-name="Edieresis" unicode="&#xcb;" horiz-adv-x="540" 
d="M147 791c-12 12.667 -18 29.667 -18 51c0 22.667 5.83301 40.167 17.5 52.5s28.167 18.5 49.5 18.5s38 -6.33301 50 -19s18 -29.667 18 -51c0 -22.667 -6 -40.167 -18 -52.5s-28.667 -18.5 -50 -18.5c-20.667 0 -37 6.33301 -49 19zM330 791
c-12 12.667 -18 29.667 -18 51c0 22.667 5.83301 40.167 17.5 52.5s28.167 18.5 49.5 18.5s38 -6.33301 50 -19s18 -29.667 18 -51c0 -22.667 -6 -40.167 -18 -52.5s-28.667 -18.5 -50 -18.5c-20.667 0 -37 6.33301 -49 19zM516 118v-118h-444v724h429v-118h-295v-176h216
v-119h-216v-193h310z" />
    <glyph glyph-name="Igrave" unicode="&#xcc;" horiz-adv-x="282" 
d="M-49 914v12h143l124 -133v-12h-106zM74 724h134v-724h-134v724z" />
    <glyph glyph-name="Iacute" unicode="&#xcd;" horiz-adv-x="282" 
d="M63 793l133 133h143v-12l-170 -133h-106v12zM74 724h134v-724h-134v724z" />
    <glyph glyph-name="Icircumflex" unicode="&#xce;" horiz-adv-x="282" 
d="M313 793v-12h-93l-81 81l-80 -81h-90v12l111 133h122zM74 724h134v-724h-134v724z" />
    <glyph glyph-name="Idieresis" unicode="&#xcf;" horiz-adv-x="282" 
d="M0 791c-12 12.667 -18 29.667 -18 51c0 22.667 5.83301 40.167 17.5 52.5s28.167 18.5 49.5 18.5s38 -6.33301 50 -19s18 -29.667 18 -51c0 -22.667 -6 -40.167 -18 -52.5s-28.667 -18.5 -50 -18.5c-20.667 0 -37 6.33301 -49 19zM183 791c-12 12.667 -18 29.667 -18 51
c0 22.667 5.83301 40.167 17.5 52.5s28.167 18.5 49.5 18.5s38 -6.33301 50 -19s18 -29.667 18 -51c0 -22.667 -6 -40.167 -18 -52.5s-28.667 -18.5 -50 -18.5c-20.667 0 -37 6.33301 -49 19zM74 724h134v-724h-134v724z" />
    <glyph glyph-name="Eth" unicode="&#xd0;" horiz-adv-x="649" 
d="M527 633c52.667 -60.667 79 -150.667 79 -270c0 -120 -26.333 -210.5 -79 -271.5s-129 -91.5 -229 -91.5h-226v316h-60v100h60v308h226c100 0 176.333 -30.333 229 -91zM468 362c0 162.667 -57.333 244 -172 244h-90v-190h143v-100h-143v-198h89
c115.333 0 173 81.333 173 244z" />
    <glyph glyph-name="Ntilde" unicode="&#xd1;" horiz-adv-x="680" 
d="M236 787h-71c1.33301 47.333 11.333 84.166 30 110.499s44.334 39.5 77.001 39.5c18 0 33.333 -3.16699 46 -9.5s26.667 -15.5 42 -27.5c10 -8 18.5 -13.833 25.5 -17.5s14.167 -5.5 21.5 -5.5c20.667 0 33 19.333 37 58h71
c-1.33301 -47.333 -11.333 -84.166 -30 -110.499s-44.334 -39.5 -77.001 -39.5c-17.333 0 -32.5 3.16699 -45.5 9.5s-27.167 15.5 -42.5 27.5c-10 8 -18.5 13.833 -25.5 17.5s-14.167 5.5 -21.5 5.5c-20.667 0 -33 -19.333 -37 -58zM608 724v-724h-129l-276 487v-487h-131
v724h129l276 -485v485h131z" />
    <glyph glyph-name="Ograve" unicode="&#xd2;" horiz-adv-x="668" 
d="M144 914v12h143l124 -133v-12h-106zM117.5 82c-49.667 62.667 -74.5 156 -74.5 280s24.833 217.333 74.5 280s121.834 94 216.501 94s166.834 -31.333 216.501 -94s74.5 -156 74.5 -280s-24.833 -217.333 -74.5 -280s-121.834 -94 -216.501 -94
s-166.834 31.333 -216.501 94zM487 362c0 170.667 -51 256 -153 256s-153 -85.333 -153 -256s51 -256 153 -256s153 85.333 153 256z" />
    <glyph glyph-name="Oacute" unicode="&#xd3;" horiz-adv-x="668" 
d="M256 793l133 133h143v-12l-170 -133h-106v12zM117.5 82c-49.667 62.667 -74.5 156 -74.5 280s24.833 217.333 74.5 280s121.834 94 216.501 94s166.834 -31.333 216.501 -94s74.5 -156 74.5 -280s-24.833 -217.333 -74.5 -280s-121.834 -94 -216.501 -94
s-166.834 31.333 -216.501 94zM487 362c0 170.667 -51 256 -153 256s-153 -85.333 -153 -256s51 -256 153 -256s153 85.333 153 256z" />
    <glyph glyph-name="Ocircumflex" unicode="&#xd4;" horiz-adv-x="668" 
d="M252 781h-90v12l111 133h122l111 -133v-12h-93l-81 81zM550.5 642c49.667 -62.667 74.5 -156 74.5 -280s-24.833 -217.333 -74.5 -280s-121.834 -94 -216.501 -94s-166.834 31.333 -216.501 94s-74.5 156 -74.5 280s24.833 217.333 74.5 280s121.834 94 216.501 94
s166.834 -31.333 216.501 -94zM487 362c0 170.667 -51 256 -153 256s-153 -85.333 -153 -256s51 -256 153 -256s153 85.333 153 256z" />
    <glyph glyph-name="Otilde" unicode="&#xd5;" horiz-adv-x="668" 
d="M356.5 794.5c-13 6.33301 -27.167 15.5 -42.5 27.5c-10 8 -18.5 13.833 -25.5 17.5s-14.167 5.5 -21.5 5.5c-20.667 0 -33 -19.333 -37 -58h-71c1.33301 47.333 11.333 84.166 30 110.499s44.334 39.5 77.001 39.5c18 0 33.333 -3.16699 46 -9.5s26.667 -15.5 42 -27.5
c10 -8 18.5 -13.833 25.5 -17.5s14.167 -5.5 21.5 -5.5c20.667 0 33 19.333 37 58h71c-1.33301 -47.333 -11.333 -84.166 -30 -110.499s-44.334 -39.5 -77.001 -39.5c-17.333 0 -32.5 3.16699 -45.5 9.5zM117.5 82c-49.667 62.667 -74.5 156 -74.5 280
s24.833 217.333 74.5 280s121.834 94 216.501 94s166.834 -31.333 216.501 -94s74.5 -156 74.5 -280s-24.833 -217.333 -74.5 -280s-121.834 -94 -216.501 -94s-166.834 31.333 -216.501 94zM487 362c0 170.667 -51 256 -153 256s-153 -85.333 -153 -256s51 -256 153 -256
s153 85.333 153 256z" />
    <glyph glyph-name="Odieresis" unicode="&#xd6;" horiz-adv-x="668" 
d="M193 791c-12 12.667 -18 29.667 -18 51c0 22.667 5.83301 40.167 17.5 52.5s28.167 18.5 49.5 18.5s38 -6.33301 50 -19s18 -29.667 18 -51c0 -22.667 -6 -40.167 -18 -52.5s-28.667 -18.5 -50 -18.5c-20.667 0 -37 6.33301 -49 19zM376 791
c-12 12.667 -18 29.667 -18 51c0 22.667 5.83301 40.167 17.5 52.5s28.167 18.5 49.5 18.5s38 -6.33301 50 -19s18 -29.667 18 -51c0 -22.667 -6 -40.167 -18 -52.5s-28.667 -18.5 -50 -18.5c-20.667 0 -37 6.33301 -49 19zM117.5 82c-49.667 62.667 -74.5 156 -74.5 280
s24.833 217.333 74.5 280s121.834 94 216.501 94s166.834 -31.333 216.501 -94s74.5 -156 74.5 -280s-24.833 -217.333 -74.5 -280s-121.834 -94 -216.501 -94s-166.834 31.333 -216.501 94zM487 362c0 170.667 -51 256 -153 256s-153 -85.333 -153 -256s51 -256 153 -256
s153 85.333 153 256z" />
    <glyph glyph-name="multiply" unicode="&#xd7;" horiz-adv-x="543" 
d="M349 368l142 -159l-81 -82l-138 155l-139 -155l-81 82l142 159l-142 159l81 82l139 -155l138 155l81 -82z" />
    <glyph glyph-name="Oslash" unicode="&#xd8;" horiz-adv-x="668" 
d="M654 724l-86 -113c38 -64 57 -147 57 -249c0 -124 -24.833 -217.333 -74.5 -280s-121.834 -94 -216.501 -94c-72 0 -131.667 20 -179 60l-41 -58h-100v10l86 113c-38 64 -57 147 -57 249c0 124 24.833 217.333 74.5 280s121.834 94 216.501 94c72 0 131.667 -20 179 -60
l41 58h100v-10zM177 362c0 -51.333 4 -94.667 12 -130l253 345c-24 30 -60 45 -108 45c-104.667 0 -157 -86.667 -157 -260zM491 361.999c0 52 -4 95.333 -12 130l-253 -345c24 -30 60 -45 108 -45c104.667 0 157 86.667 157 260z" />
    <glyph glyph-name="Ugrave" unicode="&#xd9;" horiz-adv-x="646" 
d="M133 914v12h143l124 -133v-12h-106zM134 54c-44.667 44 -66.999 106 -66.999 186v484h134v-474c0 -96 40.333 -144 121 -144c82 0 123 48 123 144v474h134v-484c0 -80 -22.5 -142 -67.5 -186s-108.167 -66 -189.5 -66c-80.667 0 -143.334 22 -188.001 66z" />
    <glyph glyph-name="Uacute" unicode="&#xda;" horiz-adv-x="646" 
d="M245 793l133 133h143v-12l-170 -133h-106v12zM134 54c-44.667 44 -66.999 106 -66.999 186v484h134v-474c0 -96 40.333 -144 121 -144c82 0 123 48 123 144v474h134v-484c0 -80 -22.5 -142 -67.5 -186s-108.167 -66 -189.5 -66c-80.667 0 -143.334 22 -188.001 66z" />
    <glyph glyph-name="Ucircumflex" unicode="&#xdb;" horiz-adv-x="646" 
d="M241 781h-90v12l111 133h122l111 -133v-12h-93l-81 81zM579 724l0.000976562 -484c0 -80 -22.5 -142 -67.5 -186s-108.167 -66 -189.5 -66c-80.667 0 -143.334 22 -188.001 66s-67 106 -67 186v484h134v-474c0 -96 40.333 -144 121 -144c82 0 123 48 123 144v474h134z
" />
    <glyph glyph-name="Udieresis" unicode="&#xdc;" horiz-adv-x="646" 
d="M182 791c-12 12.667 -18 29.667 -18 51c0 22.667 5.83301 40.167 17.5 52.5s28.167 18.5 49.5 18.5s38 -6.33301 50 -19s18 -29.667 18 -51c0 -22.667 -6 -40.167 -18 -52.5s-28.667 -18.5 -50 -18.5c-20.667 0 -37 6.33301 -49 19zM365 791
c-12 12.667 -18 29.667 -18 51c0 22.667 5.83301 40.167 17.5 52.5s28.167 18.5 49.5 18.5s38 -6.33301 50 -19s18 -29.667 18 -51c0 -22.667 -6 -40.167 -18 -52.5s-28.667 -18.5 -50 -18.5c-20.667 0 -37 6.33301 -49 19zM134 54c-44.667 44 -66.999 106 -66.999 186v484
h134v-474c0 -96 40.333 -144 121 -144c82 0 123 48 123 144v474h134v-484c0 -80 -22.5 -142 -67.5 -186s-108.167 -66 -189.5 -66c-80.667 0 -143.334 22 -188.001 66z" />
    <glyph glyph-name="Yacute" unicode="&#xdd;" horiz-adv-x="560" 
d="M307 781h-106v12l133 133h143v-12zM547 724l-201 -485v-239h-134v239l-199 485h143l125 -339l124 339h142z" />
    <glyph glyph-name="Thorn" unicode="&#xde;" horiz-adv-x="578" 
d="M490 550.5c40 -42.333 60 -102.166 60 -179.499s-20.5 -137.333 -61.5 -180s-98.833 -64.334 -173.5 -65.001h-109v-126h-134v724h134v-110h115c72.667 0 129 -21.167 169 -63.5zM412 367c0 86 -32.333 129 -97 129h-109v-252h115c60.667 0 91 41 91 123z" />
    <glyph glyph-name="germandbls" unicode="&#xdf;" horiz-adv-x="565" 
d="M539 214c0 -70 -18.667 -124.17 -56 -162.503s-89.666 -57.5 -156.999 -57.5c-34.667 0 -63 4.33301 -85 13l20 104c24 -6 45.667 -9 65 -9c59.333 0 89 33.333 89 100c0 90.667 -52.667 139.334 -158 146.001v97c32 14.667 55.167 32.834 69.5 54.501
s21.5 49.167 21.5 82.5c0 60 -23 90 -69 90c-54 0 -81 -38.667 -81 -116v-556h-132v556c0 72.667 18.667 129.167 56 169.5s89.666 60.5 156.999 60.5c60.667 0 107.667 -16 141 -48s50 -77.333 50 -136c0 -77.333 -30 -135.666 -90 -174.999
c106 -26.667 159 -97.667 159 -213z" />
    <glyph glyph-name="agrave" unicode="&#xe0;" horiz-adv-x="502" 
d="M390.5 513.5c35 -29.667 52.501 -71.165 52.501 -124.498v-389h-115v80c-30.667 -60 -81.334 -90 -152.001 -90c-48.667 0 -86.167 14.167 -112.5 42.5s-39.5 68.166 -39.5 119.499c0 64.667 22.833 112.167 68.5 142.5s119.167 46.166 220.5 47.499v31
c0 46.667 -31 70 -93 70c-41.333 0 -81 -9.33301 -119 -28l-32 99c55.333 29.333 113.333 44 174 44c63.333 0 112.5 -14.833 147.5 -44.5zM313.001 150.002l-0.000976562 106c-57.333 -1.33301 -99 -9.5 -125 -24.5s-39 -38.5 -39 -70.5c0 -41.333 20 -62 60 -62
c38.667 0 73.334 17 104.001 51zM99 774.002v10h133l79 -159v-10h-96z" />
    <glyph glyph-name="aacute" unicode="&#xe1;" horiz-adv-x="502" 
d="M390.5 513.5c35 -29.667 52.501 -71.165 52.501 -124.498v-389h-115v80c-30.667 -60 -81.334 -90 -152.001 -90c-48.667 0 -86.167 14.167 -112.5 42.5s-39.5 68.166 -39.5 119.499c0 64.667 22.833 112.167 68.5 142.5s119.167 46.166 220.5 47.499v31
c0 46.667 -31 70 -93 70c-41.333 0 -81 -9.33301 -119 -28l-32 99c55.333 29.333 113.333 44 174 44c63.333 0 112.5 -14.833 147.5 -44.5zM313.001 150.002l-0.000976562 106c-57.333 -1.33301 -99 -9.5 -125 -24.5s-39 -38.5 -39 -70.5c0 -41.333 20 -62 60 -62
c38.667 0 73.334 17 104.001 51zM179 625.002l86 159h133v-10l-123 -159h-96v10z" />
    <glyph glyph-name="acircumflex" unicode="&#xe2;" horiz-adv-x="502" 
d="M390.5 513.5c35 -29.667 52.501 -71.165 52.501 -124.498v-389h-115v80c-30.667 -60 -81.334 -90 -152.001 -90c-48.667 0 -86.167 14.167 -112.5 42.5s-39.5 68.166 -39.5 119.499c0 64.667 22.833 112.167 68.5 142.5s119.167 46.166 220.5 47.499v31
c0 46.667 -31 70 -93 70c-41.333 0 -81 -9.33301 -119 -28l-32 99c55.333 29.333 113.333 44 174 44c63.333 0 112.5 -14.833 147.5 -44.5zM313.001 150.002l-0.000976562 106c-57.333 -1.33301 -99 -9.5 -125 -24.5s-39 -38.5 -39 -70.5c0 -41.333 20 -62 60 -62
c38.667 0 73.334 17 104.001 51zM396 625.002v-10h-87l-70 93l-69 -93h-84v10l97 159h116z" />
    <glyph glyph-name="atilde" unicode="&#xe3;" horiz-adv-x="502" 
d="M390.5 513.5c35 -29.667 52.501 -71.165 52.501 -124.498v-389h-115v80c-30.667 -60 -81.334 -90 -152.001 -90c-48.667 0 -86.167 14.167 -112.5 42.5s-39.5 68.166 -39.5 119.499c0 64.667 22.833 112.167 68.5 142.5s119.167 46.166 220.5 47.499v31
c0 46.667 -31 70 -93 70c-41.333 0 -81 -9.33301 -119 -28l-32 99c55.333 29.333 113.333 44 174 44c63.333 0 112.5 -14.833 147.5 -44.5zM313.001 150.002l-0.000976562 106c-57.333 -1.33301 -99 -9.5 -125 -24.5s-39 -38.5 -39 -70.5c0 -41.333 20 -62 60 -62
c38.667 0 73.334 17 104.001 51zM263 624.502c-12.667 6.33301 -26.667 15.5 -42 27.5c-10 8 -18.5 13.833 -25.5 17.5s-14.167 5.5 -21.5 5.5c-20.667 0 -33 -19.333 -37 -58h-71c1.33301 47.333 11.333 84.166 30 110.499s44.334 39.5 77.001 39.5
c17.333 0 32.5 -3.16699 45.5 -9.5s27.167 -15.5 42.5 -27.5c10 -8 18.5 -13.833 25.5 -17.5s14.167 -5.5 21.5 -5.5c20.667 0 33 19.333 37 58h71c-1.33301 -47.333 -11.333 -84.166 -30 -110.499s-44.334 -39.5 -77.001 -39.5c-18 0 -33.333 3.16699 -46 9.5z" />
    <glyph glyph-name="adieresis" unicode="&#xe4;" horiz-adv-x="502" 
d="M100 633c-12 12.667 -18 29.667 -18 51c0 22.667 5.83301 40.167 17.5 52.5s28.167 18.5 49.5 18.5s38 -6.33301 50 -19s18 -29.667 18 -51c0 -22.667 -6 -40.167 -18 -52.5s-28.667 -18.5 -50 -18.5c-20.667 0 -37 6.33301 -49 19zM283 633
c-12 12.667 -18 29.667 -18 51c0 22.667 5.83301 40.167 17.5 52.5s28.167 18.5 49.5 18.5s38 -6.33301 50 -19s18 -29.667 18 -51c0 -22.667 -6 -40.167 -18 -52.5s-28.667 -18.5 -50 -18.5c-20.667 0 -37 6.33301 -49 19zM390.5 513.5
c35 -29.667 52.501 -71.165 52.501 -124.498v-389h-115v80c-30.667 -60 -81.334 -90 -152.001 -90c-48.667 0 -86.167 14.167 -112.5 42.5s-39.5 68.166 -39.5 119.499c0 64.667 22.833 112.167 68.5 142.5s119.167 46.166 220.5 47.499v31c0 46.667 -31 70 -93 70
c-41.333 0 -81 -9.33301 -119 -28l-32 99c55.333 29.333 113.333 44 174 44c63.333 0 112.5 -14.833 147.5 -44.5zM313.001 150.002l-0.000976562 106c-57.333 -1.33301 -99 -9.5 -125 -24.5s-39 -38.5 -39 -70.5c0 -41.333 20 -62 60 -62c38.667 0 73.334 17 104.001 51z
" />
    <glyph glyph-name="aring" unicode="&#xe5;" horiz-adv-x="502" 
d="M390.5 513.5c35 -29.667 52.501 -71.165 52.501 -124.498v-389h-115v80c-30.667 -60 -81.334 -90 -152.001 -90c-48.667 0 -86.167 14.167 -112.5 42.5s-39.5 68.166 -39.5 119.499c0 64.667 22.833 112.167 68.5 142.5s119.167 46.166 220.5 47.499v31
c0 46.667 -31 70 -93 70c-41.333 0 -81 -9.33301 -119 -28l-32 99c55.333 29.333 113.333 44 174 44c63.333 0 112.5 -14.833 147.5 -44.5zM313.001 150.002l-0.000976562 106c-57.333 -1.33301 -99 -9.5 -125 -24.5s-39 -38.5 -39 -70.5c0 -41.333 20 -62 60 -62
c38.667 0 73.334 17 104.001 51zM146.5 633.002c-22.333 20.667 -33.5 49.667 -33.5 87s11.167 66.333 33.5 87s53.833 31 94.5 31s72.167 -10.333 94.5 -31s33.5 -49.667 33.5 -87s-11.167 -66.333 -33.5 -87s-53.833 -31 -94.5 -31s-72.167 10.333 -94.5 31zM290 720.002
c0 38.667 -16.333 58 -49 58s-49 -19.333 -49 -58s16.333 -58 49 -58s49 19.333 49 58z" />
    <glyph glyph-name="ae" unicode="&#xe6;" horiz-adv-x="777" 
d="M741 232h-304.001c9.33301 -84 50.333 -126 123 -126c36.667 0 77.334 10.667 122.001 32l45 -96c-25.333 -16.667 -53.666 -29.667 -84.999 -39s-63.333 -14 -96 -14c-44 0 -82.5 8.5 -115.5 25.5s-59.5 42.167 -79.5 75.5c-26.667 -34.667 -54.167 -60 -82.5 -76
s-59.5 -24 -93.5 -24c-48 0 -85.167 14 -111.5 42s-39.5 67.667 -39.5 119c0 63.333 22.5 109.5 67.5 138.5s117.833 44.167 218.5 45.5v38c0 46.667 -30.333 70 -91 70c-40.667 0 -80 -9.33301 -118 -28l-32 99c25.333 14 53.166 24.833 83.499 32.5
s60.166 11.5 89.499 11.5c32.667 0 61 -5.33301 85 -16s43 -26.334 57 -47.001c16.667 20.667 37.334 36.334 62.001 47.001s52.667 16 84 16c69.333 0 122.833 -22.833 160.5 -68.5s56.5 -110.167 56.5 -193.5c0 -24.667 -2 -46 -6 -64zM436.999 319h179
c-1.33301 40 -9.5 70.833 -24.5 92.5s-36.5 32.5 -64.5 32.5c-52.667 0 -82.667 -41.667 -90 -125zM319.999 166c-6.66699 28 -10.333 55.666 -11 82.999c-56 -1.33301 -96.667 -9.16602 -122 -23.499s-38 -36.833 -38 -67.5c0 -39.333 19.667 -59 59 -59
c40 0 77.333 22.333 112 67z" />
    <glyph glyph-name="ccedilla" unicode="&#xe7;" horiz-adv-x="449" 
d="M349 -73c18.667 -14.667 27.9961 -35.668 27.9961 -63.001c0 -32.667 -11.5 -58 -34.5 -76s-55.167 -27 -96.5 -27c-43.333 0 -81.666 8.66699 -114.999 26l19 57c34 -11.333 61.333 -17 82 -17c30 0 45 11.333 45 34c0 22 -13.333 33 -40 33
c-14 0 -26.667 -2.33301 -38 -7l-26 30l31 81c-55.333 14 -97.833 43.5 -127.5 88.5s-44.5 103.167 -44.5 174.5c0 59.333 10.167 111.333 30.5 156s48.833 79.334 85.5 104.001s79 37 127 37c28.667 0 56.334 -4.33301 83.001 -13s49.667 -20.667 69 -36l-48 -99
c-43.333 20 -78.666 30 -105.999 30c-33.333 0 -59.333 -14.833 -78 -44.5s-28 -71.5 -28 -125.5c0 -108 39.333 -162 118 -162c34.667 0 69.334 10 104.001 30l44 -100c-39.333 -32.667 -90.666 -49 -153.999 -49h-1l-30 -43c7.33301 2 14.666 3 21.999 3
c34 0 60.333 -7.33301 79 -22z" />
    <glyph glyph-name="egrave" unicode="&#xe8;" horiz-adv-x="510" 
d="M474 232l-307.003 -0.000976562c10 -84 51.667 -126 125 -126c40.667 0 81.667 10.667 123 32l45 -96c-25.333 -17.333 -53.666 -30.5 -84.999 -39.5s-63.666 -13.5 -96.999 -13.5c-77.333 0 -137.333 24.667 -180 74s-64 119.333 -64 210s19.833 160.834 59.5 210.501
s95.834 74.5 168.501 74.5c69.333 0 123 -22.833 161 -68.5s57 -110.167 57 -193.5c0 -24.667 -2 -46 -6 -64zM166.997 318.999h181.999c-1.33301 40 -9.66602 70.833 -24.999 92.5s-37 32.5 -65 32.5c-53.333 0 -84 -41.667 -92 -125zM118.996 773.999v10h133l79 -159v-10
h-96z" />
    <glyph glyph-name="eacute" unicode="&#xe9;" horiz-adv-x="510" 
d="M474 232l-307.003 -0.000976562c10 -84 51.667 -126 125 -126c40.667 0 81.667 10.667 123 32l45 -96c-25.333 -17.333 -53.666 -30.5 -84.999 -39.5s-63.666 -13.5 -96.999 -13.5c-77.333 0 -137.333 24.667 -180 74s-64 119.333 -64 210s19.833 160.834 59.5 210.501
s95.834 74.5 168.501 74.5c69.333 0 123 -22.833 161 -68.5s57 -110.167 57 -193.5c0 -24.667 -2 -46 -6 -64zM166.997 318.999h181.999c-1.33301 40 -9.66602 70.833 -24.999 92.5s-37 32.5 -65 32.5c-53.333 0 -84 -41.667 -92 -125zM198.996 624.999l86 159h133v-10
l-123 -159h-96v10z" />
    <glyph glyph-name="ecircumflex" unicode="&#xea;" horiz-adv-x="510" 
d="M474 232l-307.003 -0.000976562c10 -84 51.667 -126 125 -126c40.667 0 81.667 10.667 123 32l45 -96c-25.333 -17.333 -53.666 -30.5 -84.999 -39.5s-63.666 -13.5 -96.999 -13.5c-77.333 0 -137.333 24.667 -180 74s-64 119.333 -64 210s19.833 160.834 59.5 210.501
s95.834 74.5 168.501 74.5c69.333 0 123 -22.833 161 -68.5s57 -110.167 57 -193.5c0 -24.667 -2 -46 -6 -64zM166.997 318.999h181.999c-1.33301 40 -9.66602 70.833 -24.999 92.5s-37 32.5 -65 32.5c-53.333 0 -84 -41.667 -92 -125zM415.996 624.999v-10h-87l-70 93
l-69 -93h-84v10l97 159h116z" />
    <glyph glyph-name="edieresis" unicode="&#xeb;" horiz-adv-x="510" 
d="M120 633c-12 12.667 -18 29.667 -18 51c0 22.667 5.83301 40.167 17.5 52.5s28.167 18.5 49.5 18.5s38 -6.33301 50 -19s18 -29.667 18 -51c0 -22.667 -6 -40.167 -18 -52.5s-28.667 -18.5 -50 -18.5c-20.667 0 -37 6.33301 -49 19zM303 633
c-12 12.667 -18 29.667 -18 51c0 22.667 5.83301 40.167 17.5 52.5s28.167 18.5 49.5 18.5s38 -6.33301 50 -19s18 -29.667 18 -51c0 -22.667 -6 -40.167 -18 -52.5s-28.667 -18.5 -50 -18.5c-20.667 0 -37 6.33301 -49 19zM474 232l-307.003 -0.000976562
c10 -84 51.667 -126 125 -126c40.667 0 81.667 10.667 123 32l45 -96c-25.333 -17.333 -53.666 -30.5 -84.999 -39.5s-63.666 -13.5 -96.999 -13.5c-77.333 0 -137.333 24.667 -180 74s-64 119.333 -64 210s19.833 160.834 59.5 210.501s95.834 74.5 168.501 74.5
c69.333 0 123 -22.833 161 -68.5s57 -110.167 57 -193.5c0 -24.667 -2 -46 -6 -64zM166.997 318.999h181.999c-1.33301 40 -9.66602 70.833 -24.999 92.5s-37 32.5 -65 32.5c-53.333 0 -84 -41.667 -92 -125z" />
    <glyph glyph-name="igrave" unicode="&#xec;" horiz-adv-x="268" 
d="M68 546h132v-546h-132v546zM-8 774v10h133l79 -159v-10h-96z" />
    <glyph glyph-name="iacute" unicode="&#xed;" horiz-adv-x="268" 
d="M68 546h132v-546h-132v546zM72 625l86 159h133v-10l-123 -159h-96v10z" />
    <glyph glyph-name="icircumflex" unicode="&#xee;" horiz-adv-x="268" 
d="M68 546h132v-546h-132v546zM289 625v-10h-87l-70 93l-69 -93h-84v10l97 159h116z" />
    <glyph glyph-name="idieresis" unicode="&#xef;" horiz-adv-x="268" 
d="M0 633c-12 12.667 -18 29.667 -18 51c0 22.667 5.83301 40.167 17.5 52.5s28.167 18.5 49.5 18.5c20.667 0 36.834 -6.33301 48.501 -19s17.5 -29.667 17.5 -51c0 -22.667 -5.83301 -40.167 -17.5 -52.5s-27.834 -18.5 -48.501 -18.5s-37 6.33301 -49 19zM171 633
c-12 12.667 -18 29.667 -18 51c0 22.667 5.83301 40.167 17.5 52.5s28.167 18.5 49.5 18.5c20.667 0 36.834 -6.33301 48.501 -19s17.5 -29.667 17.5 -51c0 -22.667 -5.83301 -40.167 -17.5 -52.5s-27.834 -18.5 -48.501 -18.5s-37 6.33301 -49 19zM68 546h132v-546h-132
v546z" />
    <glyph glyph-name="eth" unicode="&#xf0;" horiz-adv-x="528" 
d="M453.5 518.5c25.667 -62.333 38.501 -136.501 38.501 -222.501c0 -103.333 -19 -180.666 -57 -231.999s-95.667 -77 -173 -77c-74 0 -131 23.333 -171 70s-60 115.667 -60 207c0 86 18.667 152.5 56 199.5s90.333 70.5 159 70.5c39.333 0 70.666 -10.667 93.999 -32
c-21.333 49.333 -52 91 -92 125l-111 -70l-36 64l89 47c-28 15.333 -51.667 26.333 -71 33l-27 10l28 80l27 -10c47.333 -18 90 -38.667 128 -62l98 65l36 -64l-75 -42c54 -44 93.833 -97.167 119.5 -159.5zM358.001 272.999c0 48 -8.33301 85.167 -25 111.5
s-40 39.5 -70 39.5c-64.667 0 -97 -53.333 -97 -160s32 -160 96 -160s96 56.333 96 169z" />
    <glyph glyph-name="ntilde" unicode="&#xf1;" horiz-adv-x="550" 
d="M449 513.5c26.667 -29.667 39.999 -71.167 39.999 -124.5v-389h-132v369c0 45.333 -24 68 -72 68c-32 0 -61 -11.667 -87 -35v-402h-132v546h116v-68c40.667 53.333 92 80 154 80c48.667 0 86.334 -14.833 113.001 -44.5zM299.999 624.5
c-12.667 6.33301 -26.667 15.5 -42 27.5c-10 8 -18.5 13.833 -25.5 17.5s-14.167 5.5 -21.5 5.5c-20.667 0 -33 -19.333 -37 -58h-71c1.33301 47.333 11.333 84.166 30 110.499s44.334 39.5 77.001 39.5c17.333 0 32.5 -3.16699 45.5 -9.5s27.167 -15.5 42.5 -27.5
c10 -8 18.5 -13.833 25.5 -17.5s14.167 -5.5 21.5 -5.5c20.667 0 33 19.333 37 58h71c-1.33301 -47.333 -11.333 -84.166 -30 -110.499s-44.334 -39.5 -77.001 -39.5c-18 0 -33.333 3.16699 -46 9.5z" />
    <glyph glyph-name="ograve" unicode="&#xf2;" horiz-adv-x="526" 
d="M94.5 60c-39 48 -58.501 119 -58.501 213s19.5 165 58.5 213s95.167 72 168.5 72s129.5 -24 168.5 -72s58.5 -119 58.5 -213s-19.667 -165 -59 -213s-95.666 -72 -168.999 -72c-72.667 0 -128.5 24 -167.5 72zM354.999 273c0 112.667 -30.667 169 -92 169
s-92 -56.333 -92 -169s30.333 -169 91 -169c62 0 93 56.333 93 169zM120.999 774v10h133l79 -159v-10h-96z" />
    <glyph glyph-name="oacute" unicode="&#xf3;" horiz-adv-x="526" 
d="M94.5 60c-39 48 -58.501 119 -58.501 213s19.5 165 58.5 213s95.167 72 168.5 72s129.5 -24 168.5 -72s58.5 -119 58.5 -213s-19.667 -165 -59 -213s-95.666 -72 -168.999 -72c-72.667 0 -128.5 24 -167.5 72zM354.999 273c0 112.667 -30.667 169 -92 169
s-92 -56.333 -92 -169s30.333 -169 91 -169c62 0 93 56.333 93 169zM200.999 625l86 159h133v-10l-123 -159h-96v10z" />
    <glyph glyph-name="ocircumflex" unicode="&#xf4;" horiz-adv-x="526" 
d="M94.5 60c-39 48 -58.501 119 -58.501 213s19.5 165 58.5 213s95.167 72 168.5 72s129.5 -24 168.5 -72s58.5 -119 58.5 -213s-19.667 -165 -59 -213s-95.666 -72 -168.999 -72c-72.667 0 -128.5 24 -167.5 72zM354.999 273c0 112.667 -30.667 169 -92 169
s-92 -56.333 -92 -169s30.333 -169 91 -169c62 0 93 56.333 93 169zM417.999 625v-10h-87l-70 93l-69 -93h-84v10l97 159h116z" />
    <glyph glyph-name="otilde" unicode="&#xf5;" horiz-adv-x="526" 
d="M94.5 60c-39 48 -58.501 119 -58.501 213s19.5 165 58.5 213s95.167 72 168.5 72s129.5 -24 168.5 -72s58.5 -119 58.5 -213s-19.667 -165 -59 -213s-95.666 -72 -168.999 -72c-72.667 0 -128.5 24 -167.5 72zM354.999 273c0 112.667 -30.667 169 -92 169
s-92 -56.333 -92 -169s30.333 -169 91 -169c62 0 93 56.333 93 169zM284.999 624.5c-12.667 6.33301 -26.667 15.5 -42 27.5c-10 8 -18.5 13.833 -25.5 17.5s-14.167 5.5 -21.5 5.5c-20.667 0 -33 -19.333 -37 -58h-71c1.33301 47.333 11.333 84.166 30 110.499
s44.334 39.5 77.001 39.5c17.333 0 32.5 -3.16699 45.5 -9.5s27.167 -15.5 42.5 -27.5c10 -8 18.5 -13.833 25.5 -17.5s14.167 -5.5 21.5 -5.5c20.667 0 33 19.333 37 58h71c-1.33301 -47.333 -11.333 -84.166 -30 -110.499s-44.334 -39.5 -77.001 -39.5
c-18 0 -33.333 3.16699 -46 9.5z" />
    <glyph glyph-name="odieresis" unicode="&#xf6;" horiz-adv-x="526" 
d="M122 633c-12 12.667 -18 29.667 -18 51c0 22.667 5.83301 40.167 17.5 52.5s28.167 18.5 49.5 18.5s38 -6.33301 50 -19s18 -29.667 18 -51c0 -22.667 -6 -40.167 -18 -52.5s-28.667 -18.5 -50 -18.5c-20.667 0 -37 6.33301 -49 19zM305 633
c-12 12.667 -18 29.667 -18 51c0 22.667 5.83301 40.167 17.5 52.5s28.167 18.5 49.5 18.5s38 -6.33301 50 -19s18 -29.667 18 -51c0 -22.667 -6 -40.167 -18 -52.5s-28.667 -18.5 -50 -18.5c-20.667 0 -37 6.33301 -49 19zM94.5 60c-39 48 -58.501 119 -58.501 213
s19.5 165 58.5 213s95.167 72 168.5 72s129.5 -24 168.5 -72s58.5 -119 58.5 -213s-19.667 -165 -59 -213s-95.666 -72 -168.999 -72c-72.667 0 -128.5 24 -167.5 72zM354.999 273c0 112.667 -30.667 169 -92 169s-92 -56.333 -92 -169s30.333 -169 91 -169
c62 0 93 56.333 93 169z" />
    <glyph glyph-name="divide" unicode="&#xf7;" horiz-adv-x="543" 
d="M220 510c-13.333 13.333 -20 31.333 -20 54s6.66699 40.667 20 54s30.666 20 51.999 20s38.666 -6.66699 51.999 -20s20 -31.333 20 -54s-6.66699 -40.667 -20 -54s-30.666 -20 -51.999 -20s-38.666 6.66699 -51.999 20zM50 425h443v-113h-443v113zM220 118
c-13.333 13.333 -20 31.333 -20 54s6.66699 40.667 20 54s30.666 20 51.999 20s38.666 -6.66699 51.999 -20s20 -31.333 20 -54s-6.66699 -40.667 -20 -54s-30.666 -20 -51.999 -20s-38.666 6.66699 -51.999 20z" />
    <glyph glyph-name="oslash" unicode="&#xf8;" horiz-adv-x="526" 
d="M519 546l-71.002 -88c28 -48.667 42 -110.334 42 -185.001c0 -94 -19.667 -165 -59 -213s-95.666 -72 -168.999 -72c-54 0 -98.333 14 -133 42l-27 -40h-95v10l71 88c-28 48.667 -42 110.334 -42 185.001c0 94 19.5 165 58.5 213s95.167 72 168.5 72
c54.667 0 99.334 -14 134.001 -42l27 40h95v-10zM164.998 273c0 -26.667 1.33301 -48.333 4 -65l159 213c-15.333 18 -37 27 -65 27c-65.333 0 -98 -58.333 -98 -175zM360.998 273.001c0 26.667 -1.33203 48.333 -3.99902 65l-159 -213c15.333 -18 36.666 -27 63.999 -27
c66 0 99 58.333 99 175z" />
    <glyph glyph-name="ugrave" unicode="&#xf9;" horiz-adv-x="542" 
d="M476 546l-0.000976562 -546h-116v75c-36.667 -58 -87 -87 -151 -87c-47.333 0 -84.166 14.667 -110.499 44s-39.5 70.666 -39.5 123.999v390h132v-369c0 -45.333 23 -68 69 -68c16.667 0 31.667 3.33301 45 10s26.333 17.334 39 32.001v395h132zM125.999 774v10h133
l79 -159v-10h-96z" />
    <glyph glyph-name="uacute" unicode="&#xfa;" horiz-adv-x="542" 
d="M476 546l-0.000976562 -546h-116v75c-36.667 -58 -87 -87 -151 -87c-47.333 0 -84.166 14.667 -110.499 44s-39.5 70.666 -39.5 123.999v390h132v-369c0 -45.333 23 -68 69 -68c16.667 0 31.667 3.33301 45 10s26.333 17.334 39 32.001v395h132zM205.999 625l86 159h133
v-10l-123 -159h-96v10z" />
    <glyph glyph-name="ucircumflex" unicode="&#xfb;" horiz-adv-x="542" 
d="M476 546l-0.000976562 -546h-116v75c-36.667 -58 -87 -87 -151 -87c-47.333 0 -84.166 14.667 -110.499 44s-39.5 70.666 -39.5 123.999v390h132v-369c0 -45.333 23 -68 69 -68c16.667 0 31.667 3.33301 45 10s26.333 17.334 39 32.001v395h132zM422.999 625v-10h-87
l-70 93l-69 -93h-84v10l97 159h116z" />
    <glyph glyph-name="udieresis" unicode="&#xfc;" horiz-adv-x="542" 
d="M127 633c-12 12.667 -18 29.667 -18 51c0 22.667 5.83301 40.167 17.5 52.5s28.167 18.5 49.5 18.5s38 -6.33301 50 -19s18 -29.667 18 -51c0 -22.667 -6 -40.167 -18 -52.5s-28.667 -18.5 -50 -18.5c-20.667 0 -37 6.33301 -49 19zM310 633
c-12 12.667 -18 29.667 -18 51c0 22.667 5.83301 40.167 17.5 52.5s28.167 18.5 49.5 18.5s38 -6.33301 50 -19s18 -29.667 18 -51c0 -22.667 -6 -40.167 -18 -52.5s-28.667 -18.5 -50 -18.5c-20.667 0 -37 6.33301 -49 19zM476 546l-0.000976562 -546h-116v75
c-36.667 -58 -87 -87 -151 -87c-47.333 0 -84.166 14.667 -110.499 44s-39.5 70.666 -39.5 123.999v390h132v-369c0 -45.333 23 -68 69 -68c16.667 0 31.667 3.33301 45 10s26.333 17.334 39 32.001v395h132z" />
    <glyph glyph-name="yacute" unicode="&#xfd;" horiz-adv-x="497" 
d="M482 546l-155.001 -515.001c-18.667 -62.667 -49.167 -113.667 -91.5 -153s-100.5 -71.666 -174.5 -96.999l-44 110c44 16 78.833 32 104.5 48s45.834 34.667 60.501 56l-167 551h133l103 -408l99 408h132zM187.999 624.999l86 159h133v-10l-123 -159h-96v10z" />
    <glyph glyph-name="thorn" unicode="&#xfe;" horiz-adv-x="543" 
d="M458.5 484c32.333 -49.333 48.499 -119.332 48.499 -209.999s-16.167 -161 -48.5 -211s-78.166 -75 -137.499 -75c-25.333 0 -48.5 4.66699 -69.5 14s-38.833 22.666 -53.5 39.999v-249h-132v720v257h132v-275c30 42 71.333 63 124 63
c58.667 0 104.167 -24.667 136.5 -74zM371.999 269.001c0 112 -30.668 167.999 -92.001 167.999c-29.333 0 -56.666 -14 -81.999 -42v-248c11.333 -13.333 24.5 -23.666 39.5 -30.999s30.5 -11 46.5 -11c58.667 0 88 54.667 88 164z" />
    <glyph glyph-name="ydieresis" unicode="&#xff;" horiz-adv-x="497" 
d="M109 633c-12 12.667 -18 29.667 -18 51c0 22.667 5.83301 40.167 17.5 52.5s28.167 18.5 49.5 18.5s38 -6.33301 50 -19s18 -29.667 18 -51c0 -22.667 -6 -40.167 -18 -52.5s-28.667 -18.5 -50 -18.5c-20.667 0 -37 6.33301 -49 19zM292 633
c-12 12.667 -18 29.667 -18 51c0 22.667 5.83301 40.167 17.5 52.5s28.167 18.5 49.5 18.5s38 -6.33301 50 -19s18 -29.667 18 -51c0 -22.667 -6 -40.167 -18 -52.5s-28.667 -18.5 -50 -18.5c-20.667 0 -37 6.33301 -49 19zM482 546l-155.001 -515.001
c-18.667 -62.667 -49.167 -113.667 -91.5 -153s-100.5 -71.666 -174.5 -96.999l-44 110c44 16 78.833 32 104.5 48s45.834 34.667 60.501 56l-167 551h133l103 -408l99 408h132z" />
    <glyph glyph-name="Amacron" unicode="&#x100;" horiz-adv-x="636" 
d="M473 808h-310v87h310v-87zM435 158h-236l-42 -158h-140l228 724h146l228 -724h-141zM404 273l-87 323l-87 -323h174z" />
    <glyph glyph-name="amacron" unicode="&#x101;" horiz-adv-x="502" 
d="M390.5 513.5c35 -29.667 52.501 -71.165 52.501 -124.498v-389h-115v80c-30.667 -60 -81.334 -90 -152.001 -90c-48.667 0 -86.167 14.167 -112.5 42.5s-39.5 68.166 -39.5 119.499c0 64.667 22.833 112.167 68.5 142.5s119.167 46.166 220.5 47.499v31
c0 46.667 -31 70 -93 70c-41.333 0 -81 -9.33301 -119 -28l-32 99c55.333 29.333 113.333 44 174 44c63.333 0 112.5 -14.833 147.5 -44.5zM313.001 150.002l-0.000976562 106c-57.333 -1.33301 -99 -9.5 -125 -24.5s-39 -38.5 -39 -70.5c0 -41.333 20 -62 60 -62
c38.667 0 73.334 17 104.001 51zM86 725.002h310v-87h-310v87z" />
    <glyph glyph-name="Abreve" unicode="&#x102;" horiz-adv-x="636" 
d="M208 826c-26.667 29.333 -40.998 70.666 -42.998 123.999h73c6.66699 -50.667 33.667 -76 81 -76c48 0 75.333 25.333 82 76h70c-2 -53.333 -16.333 -94.666 -43 -123.999s-63.334 -44 -110.001 -44s-83.334 14.667 -110.001 44zM435.002 158h-236l-42 -158h-140l228 724
h146l228 -724h-141zM404.002 273l-87 323l-87 -323h174z" />
    <glyph glyph-name="abreve" unicode="&#x103;" horiz-adv-x="502" 
d="M390.5 513.5c35 -29.667 52.501 -71.165 52.501 -124.498v-389h-115v80c-30.667 -60 -81.334 -90 -152.001 -90c-48.667 0 -86.167 14.167 -112.5 42.5s-39.5 68.166 -39.5 119.499c0 64.667 22.833 112.167 68.5 142.5s119.167 46.166 220.5 47.499v31
c0 46.667 -31 70 -93 70c-41.333 0 -81 -9.33301 -119 -28l-32 99c55.333 29.333 113.333 44 174 44c63.333 0 112.5 -14.833 147.5 -44.5zM313.001 150.002l-0.000976562 106c-57.333 -1.33301 -99 -9.5 -125 -24.5s-39 -38.5 -39 -70.5c0 -41.333 20 -62 60 -62
c38.667 0 73.334 17 104.001 51zM131 656.002c-26.667 29.333 -40.998 70.666 -42.998 123.999h73c6.66699 -50.667 33.667 -76 81 -76c48 0 75.333 25.333 82 76h70c-2 -53.333 -16.333 -94.666 -43 -123.999s-63.334 -44 -110.001 -44s-83.334 14.667 -110.001 44z" />
    <glyph glyph-name="Aogonek" unicode="&#x104;" horiz-adv-x="636" 
d="M666 -198c-30.667 -20.667 -67.667 -31.001 -111 -31.001c-37.333 0 -66.333 8.83301 -87 26.5s-31 42.834 -31 75.501c0 26.667 7 51 21 73s33.667 40 59 54h-39l-43 158h-236l-42 -158h-140l228 724h146l228 -724h-1c-49.333 -32 -74 -66.333 -74 -103
c0 -28.667 14 -43 42 -43c16.667 0 33.667 4.33301 51 13zM404 272.999l-87 323l-87 -323h174z" />
    <glyph glyph-name="aogonek" unicode="&#x105;" horiz-adv-x="502" 
d="M491 -198c-31.333 -20.667 -68.333 -30.999 -111 -30.999c-37.333 0 -66.333 8.83301 -87 26.5s-31 42.834 -31 75.501c0 26.667 7 51 21 73s33.667 40 59 54h-13v82c-20.667 -32.667 -43 -56.167 -67 -70.5s-52.667 -21.5 -86 -21.5
c-48.667 0 -86.167 14.167 -112.5 42.5s-39.5 68.166 -39.5 119.499c0 64.667 22.833 112.167 68.5 142.5s119.167 46.166 220.5 47.499v31c0 46.667 -31 70 -93 70c-41.333 0 -81 -9.33301 -119 -28l-32 99c55.333 29.333 113.333 44 174 44
c63.333 0 112.5 -14.833 147.5 -44.5s52.5 -71.167 52.5 -124.5v-389c-49.333 -32 -74 -66.333 -74 -103c0 -28.667 14 -43 42 -43c16.667 0 33.667 4.33301 51 13zM313 150.001l-0.000976562 107.001c-57.333 -1.33301 -99 -9.33301 -125 -24s-39 -38.334 -39 -71.001
c0 -42 20 -63 60 -63c38.667 0 73.334 17 104.001 51z" />
    <glyph glyph-name="Cacute" unicode="&#x106;" horiz-adv-x="563" 
d="M255 793l133 133h143v-12l-170 -133h-106v12zM116 82.5c-55.333 62.333 -83.001 150.501 -83.001 264.501c0 80 12.5 149.167 37.5 207.5s61 103.166 108 134.499s102.833 47 167.5 47c35.333 0 69.666 -5 102.999 -15s62.333 -24.333 87 -43l-43 -100
c-54 26 -103.333 39 -148 39c-55.333 0 -98.166 -22.667 -128.499 -68s-45.5 -109.333 -45.5 -192c0 -164.667 62 -247 186 -247c49.333 0 96.333 11.667 141 35l44 -99c-20 -18 -46.667 -32 -80 -42s-70.333 -15 -111 -15c-101.333 0 -179.666 31.167 -234.999 93.5z" />
    <glyph glyph-name="cacute" unicode="&#x107;" horiz-adv-x="449" 
d="M96.5 60c-43 47.333 -64.5039 114.332 -64.5039 200.999c0 59.333 10.167 111.333 30.5 156s48.833 79.334 85.5 104.001s79 37 127 37c28.667 0 56.334 -4.33301 83.001 -13s49.667 -20.667 69 -36l-48 -99c-43.333 20 -78.666 30 -105.999 30
c-33.333 0 -59.333 -14.833 -78 -44.5s-28 -71.5 -28 -125.5c0 -108 39.333 -162 118 -162c34.667 0 69.334 10 104.001 30l44 -100c-39.333 -32.667 -90.666 -49 -153.999 -49c-78.667 0 -139.5 23.667 -182.5 71zM188.996 624.999l86 159h133v-10l-123 -159h-96v10z" />
    <glyph glyph-name="Ccircumflex" unicode="&#x108;" horiz-adv-x="563" 
d="M251 781h-90v12l111 133h122l111 -133v-12h-93l-81 81zM542 46c-20 -18 -46.668 -31.999 -80.001 -41.999s-70.333 -15 -111 -15c-101.333 0 -179.666 31.167 -234.999 93.5s-83 150.5 -83 264.5c0 80 12.5 149.167 37.5 207.5s61 103.166 108 134.499
s102.833 47 167.5 47c35.333 0 69.666 -5 102.999 -15s62.333 -24.333 87 -43l-43 -100c-54 26 -103.333 39 -148 39c-55.333 0 -98.166 -22.667 -128.499 -68s-45.5 -109.333 -45.5 -192c0 -164.667 62 -247 186 -247c49.333 0 96.333 11.667 141 35z" />
    <glyph glyph-name="ccircumflex" unicode="&#x109;" horiz-adv-x="449" 
d="M96.5 60c-43 47.333 -64.5039 114.332 -64.5039 200.999c0 59.333 10.167 111.333 30.5 156s48.833 79.334 85.5 104.001s79 37 127 37c28.667 0 56.334 -4.33301 83.001 -13s49.667 -20.667 69 -36l-48 -99c-43.333 20 -78.666 30 -105.999 30
c-33.333 0 -59.333 -14.833 -78 -44.5s-28 -71.5 -28 -125.5c0 -108 39.333 -162 118 -162c34.667 0 69.334 10 104.001 30l44 -100c-39.333 -32.667 -90.666 -49 -153.999 -49c-78.667 0 -139.5 23.667 -182.5 71zM405.996 624.999v-10h-87l-70 93l-69 -93h-84v10l97 159
h116z" />
    <glyph glyph-name="Cdotaccent" unicode="&#x10a;" horiz-adv-x="563" 
d="M277 797.5c-13.333 13.667 -20 32.167 -20 55.5c0 24.667 6.66699 43.667 20 57s32 20 56 20s42.667 -6.83301 56 -20.5s20 -32.167 20 -55.5c0 -24.667 -6.66699 -43.667 -20 -57s-32 -20 -56 -20s-42.667 6.83301 -56 20.5zM116 82.5
c-55.333 62.333 -83.001 150.501 -83.001 264.501c0 80 12.5 149.167 37.5 207.5s61 103.166 108 134.499s102.833 47 167.5 47c35.333 0 69.666 -5 102.999 -15s62.333 -24.333 87 -43l-43 -100c-54 26 -103.333 39 -148 39c-55.333 0 -98.166 -22.667 -128.499 -68
s-45.5 -109.333 -45.5 -192c0 -164.667 62 -247 186 -247c49.333 0 96.333 11.667 141 35l44 -99c-20 -18 -46.667 -32 -80 -42s-70.333 -15 -111 -15c-101.333 0 -179.666 31.167 -234.999 93.5z" />
    <glyph glyph-name="cdotaccent" unicode="&#x10b;" horiz-adv-x="449" 
d="M96.5 60c-43 47.333 -64.5039 114.332 -64.5039 200.999c0 59.333 10.167 111.333 30.5 156s48.833 79.334 85.5 104.001s79 37 127 37c28.667 0 56.334 -4.33301 83.001 -13s49.667 -20.667 69 -36l-48 -99c-43.333 20 -78.666 30 -105.999 30
c-33.333 0 -59.333 -14.833 -78 -44.5s-28 -71.5 -28 -125.5c0 -108 39.333 -162 118 -162c34.667 0 69.334 10 104.001 30l44 -100c-39.333 -32.667 -90.666 -49 -153.999 -49c-78.667 0 -139.5 23.667 -182.5 71zM194.996 638.499c-13.333 13.667 -20 32.167 -20 55.5
c0 24.667 6.66699 43.667 20 57s32 20 56 20s42.667 -6.83301 56 -20.5s20 -32.167 20 -55.5c0 -24.667 -6.66699 -43.667 -20 -57s-32 -20 -56 -20s-42.667 6.83301 -56 20.5z" />
    <glyph glyph-name="Ccaron" unicode="&#x10c;" horiz-adv-x="563" 
d="M272 781l-111 133v12h93l81 -81l80 81h90v-12l-111 -133h-122zM542 46c-20 -18 -46.668 -31.999 -80.001 -41.999s-70.333 -15 -111 -15c-101.333 0 -179.666 31.167 -234.999 93.5s-83 150.5 -83 264.5c0 80 12.5 149.167 37.5 207.5s61 103.166 108 134.499
s102.833 47 167.5 47c35.333 0 69.666 -5 102.999 -15s62.333 -24.333 87 -43l-43 -100c-54 26 -103.333 39 -148 39c-55.333 0 -98.166 -22.667 -128.499 -68s-45.5 -109.333 -45.5 -192c0 -164.667 62 -247 186 -247c49.333 0 96.333 11.667 141 35z" />
    <glyph glyph-name="ccaron" unicode="&#x10d;" horiz-adv-x="449" 
d="M96.5 60c-43 47.333 -64.5039 114.332 -64.5039 200.999c0 59.333 10.167 111.333 30.5 156s48.833 79.334 85.5 104.001s79 37 127 37c28.667 0 56.334 -4.33301 83.001 -13s49.667 -20.667 69 -36l-48 -99c-43.333 20 -78.666 30 -105.999 30
c-33.333 0 -59.333 -14.833 -78 -44.5s-28 -71.5 -28 -125.5c0 -108 39.333 -162 118 -162c34.667 0 69.334 10 104.001 30l44 -100c-39.333 -32.667 -90.666 -49 -153.999 -49c-78.667 0 -139.5 23.667 -182.5 71zM405.996 783.999v-10l-97 -159h-116l-97 159v10h87l69 -93
l70 93h84z" />
    <glyph glyph-name="Dcaron" unicode="&#x10e;" horiz-adv-x="649" 
d="M257 781l-111 133v12h93l81 -81l80 81h90v-12l-111 -133h-122zM527 633c52.667 -60.667 79 -150.667 79 -270c0 -120 -26.333 -210.5 -79 -271.5s-129 -91.5 -229 -91.5h-226v724h226c100 0 176.333 -30.333 229 -91zM468 362c0 162.667 -57.333 244 -172 244h-90v-488
h89c115.333 0 173 81.333 173 244z" />
    <glyph glyph-name="dcaron" unicode="&#x10f;" horiz-adv-x="543" 
d="M345 770l132.001 -0.000976562v-737v-33h-116v77c-31.333 -59.333 -78 -89 -140 -89c-58.667 0 -104.167 24.667 -136.5 74s-48.5 119.333 -48.5 210s16.167 161 48.5 211s78.166 75 137.499 75c25.333 0 48.5 -4.66699 69.5 -14s38.833 -22.666 53.5 -39.999v266z
M635.001 769.999v-10l-35 -220h-73v230h108zM345.001 150.999l0.000976562 248.001c-11.333 13.333 -24.5 23.666 -39.5 30.999s-30.5 11 -46.5 11c-58.667 0 -88 -54.667 -88 -164c0 -112 30.667 -168 92 -168c29.333 0 56.666 14 81.999 42z" />
    <glyph glyph-name="Dcroat" unicode="&#x110;" horiz-adv-x="649" 
d="M527 633c52.667 -60.667 79 -150.667 79 -270c0 -120 -26.333 -210.5 -79 -271.5s-129 -91.5 -229 -91.5h-226v316h-60v100h60v308h226c100 0 176.333 -30.333 229 -91zM468 362c0 162.667 -57.333 244 -172 244h-90v-190h143v-100h-143v-198h89
c115.333 0 173 81.333 173 244z" />
    <glyph glyph-name="dcroat" unicode="&#x111;" horiz-adv-x="545" 
d="M537 609h-58v-609h-116v77c-31.333 -59.333 -78 -89 -140 -89c-59.333 0 -105.333 24.167 -138 72.5s-49 116.166 -49 203.499s16.333 154.833 49 202.5s79 71.5 139 71.5c25.333 0 48.5 -4.66699 69.5 -14s38.833 -22.666 53.5 -39.999v125h-176v80h176v81h132v-81h58
v-80zM347 151l0.000976562 228.001c-11.333 13.333 -24.5 23.666 -39.5 30.999s-30.5 11 -46.5 11c-60 0 -90 -50.667 -90 -152c0 -106.667 31.333 -160 94 -160c29.333 0 56.666 14 81.999 42z" />
    <glyph glyph-name="Emacron" unicode="&#x112;" horiz-adv-x="540" 
d="M443 808h-310v87h310v-87zM516 118v-118h-444v724h429v-118h-295v-176h216v-119h-216v-193h310z" />
    <glyph glyph-name="emacron" unicode="&#x113;" horiz-adv-x="510" 
d="M474 232l-307.003 -0.000976562c10 -84 51.667 -126 125 -126c40.667 0 81.667 10.667 123 32l45 -96c-25.333 -17.333 -53.666 -30.5 -84.999 -39.5s-63.666 -13.5 -96.999 -13.5c-77.333 0 -137.333 24.667 -180 74s-64 119.333 -64 210s19.833 160.834 59.5 210.501
s95.834 74.5 168.501 74.5c69.333 0 123 -22.833 161 -68.5s57 -110.167 57 -193.5c0 -24.667 -2 -46 -6 -64zM166.997 318.999h181.999c-1.33301 40 -9.66602 70.833 -24.999 92.5s-37 32.5 -65 32.5c-53.333 0 -84 -41.667 -92 -125zM105.996 724.999h310v-87h-310v87z
" />
    <glyph glyph-name="Ebreve" unicode="&#x114;" horiz-adv-x="540" 
d="M178 826c-26.667 29.333 -40.998 70.666 -42.998 123.999h73c6.66699 -50.667 33.667 -76 81 -76c48 0 75.333 25.333 82 76h70c-2 -53.333 -16.333 -94.666 -43 -123.999s-63.334 -44 -110.001 -44s-83.334 14.667 -110.001 44zM516.002 118v-118h-444v724h429v-118
h-295v-176h216v-119h-216v-193h310z" />
    <glyph glyph-name="ebreve" unicode="&#x115;" horiz-adv-x="510" 
d="M474 232l-307.003 -0.000976562c10 -84 51.667 -126 125 -126c40.667 0 81.667 10.667 123 32l45 -96c-25.333 -17.333 -53.666 -30.5 -84.999 -39.5s-63.666 -13.5 -96.999 -13.5c-77.333 0 -137.333 24.667 -180 74s-64 119.333 -64 210s19.833 160.834 59.5 210.501
s95.834 74.5 168.501 74.5c69.333 0 123 -22.833 161 -68.5s57 -110.167 57 -193.5c0 -24.667 -2 -46 -6 -64zM166.997 318.999h181.999c-1.33301 40 -9.66602 70.833 -24.999 92.5s-37 32.5 -65 32.5c-53.333 0 -84 -41.667 -92 -125zM150.996 655.999
c-26.667 29.333 -40.998 70.666 -42.998 123.999h73c6.66699 -50.667 33.667 -76 81 -76c48 0 75.333 25.333 82 76h70c-2 -53.333 -16.333 -94.666 -43 -123.999s-63.334 -44 -110.001 -44s-83.334 14.667 -110.001 44z" />
    <glyph glyph-name="Edotaccent" unicode="&#x116;" horiz-adv-x="540" 
d="M232 797.5c-13.333 13.667 -20 32.167 -20 55.5c0 24.667 6.66699 43.667 20 57s32 20 56 20s42.667 -6.83301 56 -20.5s20 -32.167 20 -55.5c0 -24.667 -6.66699 -43.667 -20 -57s-32 -20 -56 -20s-42.667 6.83301 -56 20.5zM516 118v-118h-444v724h429v-118h-295v-176
h216v-119h-216v-193h310z" />
    <glyph glyph-name="edotaccent" unicode="&#x117;" horiz-adv-x="510" 
d="M474 232l-307.003 -0.000976562c10 -84 51.667 -126 125 -126c40.667 0 81.667 10.667 123 32l45 -96c-25.333 -17.333 -53.666 -30.5 -84.999 -39.5s-63.666 -13.5 -96.999 -13.5c-77.333 0 -137.333 24.667 -180 74s-64 119.333 -64 210s19.833 160.834 59.5 210.501
s95.834 74.5 168.501 74.5c69.333 0 123 -22.833 161 -68.5s57 -110.167 57 -193.5c0 -24.667 -2 -46 -6 -64zM166.997 318.999h181.999c-1.33301 40 -9.66602 70.833 -24.999 92.5s-37 32.5 -65 32.5c-53.333 0 -84 -41.667 -92 -125zM204.996 638.499
c-13.333 13.667 -20 32.167 -20 55.5c0 24.667 6.66699 43.667 20 57s32 20 56 20s42.667 -6.83301 56 -20.5s20 -32.167 20 -55.5c0 -24.667 -6.66699 -43.667 -20 -57s-32 -20 -56 -20s-42.667 6.83301 -56 20.5z" />
    <glyph glyph-name="Eogonek" unicode="&#x118;" horiz-adv-x="540" 
d="M564 -198c-30.667 -20.667 -67.667 -31.001 -111 -31.001c-37.333 0 -66.333 8.83301 -87 26.5s-31 42.834 -31 75.501c0 26.667 7 51 21 73s33.667 40 59 54h-343v724h429v-118h-295v-176h216v-119h-216v-193h310v-118c-49.333 -32 -74 -66.333 -74 -103
c0 -28.667 14 -43 42 -43c16.667 0 33.667 4.33301 51 13z" />
    <glyph glyph-name="eogonek" unicode="&#x119;" horiz-adv-x="510" 
d="M474 232l-307.001 -0.000976562c10 -84 51.667 -126 125 -126c40.667 0 81.667 10.667 123 32l45 -96l-35 -20c-26.667 -14.667 -48 -33.334 -64 -56.001s-24 -45.667 -24 -69c0 -28.667 14 -43 42 -43c16.667 0 33.667 4.33301 51 13l29 -65
c-30.667 -20.667 -67.667 -31 -111 -31c-37.333 0 -66.333 8.83301 -87 26.5s-31 42.834 -31 75.501c0 45.333 19.667 84 59 116h-11c-77.333 0 -137.333 24.667 -180 74s-64 119.333 -64 210s19.833 160.834 59.5 210.501s95.834 74.5 168.501 74.5
c69.333 0 123 -22.833 161 -68.5s57 -110.167 57 -193.5c0 -24.667 -2 -46 -6 -64zM166.999 317.999h182.001c-0.666992 40 -8.83398 71 -24.501 93s-37.5 33 -65.5 33c-54 0 -84.667 -42 -92 -126z" />
    <glyph glyph-name="Ecaron" unicode="&#x11a;" horiz-adv-x="540" 
d="M227 781l-111 133v12h93l81 -81l80 81h90v-12l-111 -133h-122zM516 118v-118h-444v724h429v-118h-295v-176h216v-119h-216v-193h310z" />
    <glyph glyph-name="ecaron" unicode="&#x11b;" horiz-adv-x="510" 
d="M474 232l-307.003 -0.000976562c10 -84 51.667 -126 125 -126c40.667 0 81.667 10.667 123 32l45 -96c-25.333 -17.333 -53.666 -30.5 -84.999 -39.5s-63.666 -13.5 -96.999 -13.5c-77.333 0 -137.333 24.667 -180 74s-64 119.333 -64 210s19.833 160.834 59.5 210.501
s95.834 74.5 168.501 74.5c69.333 0 123 -22.833 161 -68.5s57 -110.167 57 -193.5c0 -24.667 -2 -46 -6 -64zM166.997 318.999h181.999c-1.33301 40 -9.66602 70.833 -24.999 92.5s-37 32.5 -65 32.5c-53.333 0 -84 -41.667 -92 -125zM415.996 783.999v-10l-97 -159h-116
l-97 159v10h87l69 -93l70 93h84z" />
    <glyph glyph-name="Gcircumflex" unicode="&#x11c;" horiz-adv-x="625" 
d="M258 781h-90v12l111 133h122l111 -133v-12h-93l-81 81zM573 413l-0.00195312 -367c-25.333 -18.667 -56.166 -33 -92.499 -43s-74.833 -15 -115.5 -15c-102.667 0 -182 32.5 -238 97.5s-84 157.167 -84 276.5s28 211.5 84 276.5s135.333 97.5 238 97.5
c40 0 77.5 -5 112.5 -15s64.167 -24 87.5 -42l-36 -105c-60.667 29.333 -116 44 -166 44c-121.333 0 -182 -85.333 -182 -256s61.333 -256 184 -256c24.667 0 49.334 3.33301 74.001 10v180h-110v117h244z" />
    <glyph glyph-name="gcircumflex" unicode="&#x11d;" horiz-adv-x="545" 
d="M479 546v-533.001c0 -73.333 -20.667 -130.333 -62 -171s-99.333 -61 -174 -61c-32 0 -63 3.66699 -93 11s-56 17.333 -78 30l36 102c42 -19.333 82.667 -29 122 -29c78 0 117 39.333 117 118v69c-30 -42.667 -71.333 -64 -124 -64c-59.333 0 -105.333 23.5 -138 70.5
s-49 113.167 -49 198.5c0 86 16.333 152.667 49 200s79 71 139 71c31.333 0 58.833 -6.66699 82.5 -20s42.5 -32.666 56.5 -57.999v66h116zM347 179.999l0.000976562 219.001c-11.333 13.333 -24.5 23.666 -39.5 30.999s-30.5 11 -46.5 11c-60 0 -90 -49.667 -90 -149
c0 -102.667 31.333 -154 94 -154c29.333 0 56.666 14 81.999 42zM423.001 625v-10h-87l-70 93l-69 -93h-84v10l97 159h116z" />
    <glyph glyph-name="Gbreve" unicode="&#x11e;" horiz-adv-x="625" 
d="M230 826c-26.667 29.333 -40.998 70.666 -42.998 123.999h73c6.66699 -50.667 33.667 -76 81 -76c48 0 75.333 25.333 82 76h70c-2 -53.333 -16.333 -94.666 -43 -123.999s-63.334 -44 -110.001 -44s-83.334 14.667 -110.001 44zM573.002 413l-0.00195312 -367
c-25.333 -18.667 -56.166 -33 -92.499 -43s-74.833 -15 -115.5 -15c-102.667 0 -182 32.5 -238 97.5s-84 157.167 -84 276.5s28 211.5 84 276.5s135.333 97.5 238 97.5c40 0 77.5 -5 112.5 -15s64.167 -24 87.5 -42l-36 -105c-60.667 29.333 -116 44 -166 44
c-121.333 0 -182 -85.333 -182 -256s61.333 -256 184 -256c24.667 0 49.334 3.33301 74.001 10v180h-110v117h244z" />
    <glyph glyph-name="gbreve" unicode="&#x11f;" horiz-adv-x="545" 
d="M479 546v-533.001c0 -73.333 -20.667 -130.333 -62 -171s-99.333 -61 -174 -61c-32 0 -63 3.66699 -93 11s-56 17.333 -78 30l36 102c42 -19.333 82.667 -29 122 -29c78 0 117 39.333 117 118v69c-30 -42.667 -71.333 -64 -124 -64c-59.333 0 -105.333 23.5 -138 70.5
s-49 113.167 -49 198.5c0 86 16.333 152.667 49 200s79 71 139 71c31.333 0 58.833 -6.66699 82.5 -20s42.5 -32.666 56.5 -57.999v66h116zM347 179.999l0.000976562 219.001c-11.333 13.333 -24.5 23.666 -39.5 30.999s-30.5 11 -46.5 11c-60 0 -90 -49.667 -90 -149
c0 -102.667 31.333 -154 94 -154c29.333 0 56.666 14 81.999 42zM158.001 656c-26.667 29.333 -40.998 70.666 -42.998 123.999h73c6.66699 -50.667 33.667 -76 81 -76c48 0 75.333 25.333 82 76h70c-2 -53.333 -16.333 -94.666 -43 -123.999s-63.334 -44 -110.001 -44
s-83.334 14.667 -110.001 44z" />
    <glyph glyph-name="Gdotaccent" unicode="&#x120;" horiz-adv-x="625" 
d="M284 797.5c-13.333 13.667 -20 32.167 -20 55.5c0 24.667 6.66699 43.667 20 57s32 20 56 20s42.667 -6.83301 56 -20.5s20 -32.167 20 -55.5c0 -24.667 -6.66699 -43.667 -20 -57s-32 -20 -56 -20s-42.667 6.83301 -56 20.5zM573 413l-0.00195312 -367
c-25.333 -18.667 -56.166 -33 -92.499 -43s-74.833 -15 -115.5 -15c-102.667 0 -182 32.5 -238 97.5s-84 157.167 -84 276.5s28 211.5 84 276.5s135.333 97.5 238 97.5c40 0 77.5 -5 112.5 -15s64.167 -24 87.5 -42l-36 -105c-60.667 29.333 -116 44 -166 44
c-121.333 0 -182 -85.333 -182 -256s61.333 -256 184 -256c24.667 0 49.334 3.33301 74.001 10v180h-110v117h244z" />
    <glyph glyph-name="gdotaccent" unicode="&#x121;" horiz-adv-x="545" 
d="M479 546v-533.001c0 -73.333 -20.667 -130.333 -62 -171s-99.333 -61 -174 -61c-32 0 -63 3.66699 -93 11s-56 17.333 -78 30l36 102c42 -19.333 82.667 -29 122 -29c78 0 117 39.333 117 118v69c-30 -42.667 -71.333 -64 -124 -64c-59.333 0 -105.333 23.5 -138 70.5
s-49 113.167 -49 198.5c0 86 16.333 152.667 49 200s79 71 139 71c31.333 0 58.833 -6.66699 82.5 -20s42.5 -32.666 56.5 -57.999v66h116zM347 179.999l0.000976562 219.001c-11.333 13.333 -24.5 23.666 -39.5 30.999s-30.5 11 -46.5 11c-60 0 -90 -49.667 -90 -149
c0 -102.667 31.333 -154 94 -154c29.333 0 56.666 14 81.999 42zM212.001 638.5c-13.333 13.667 -20 32.167 -20 55.5c0 24.667 6.66699 43.667 20 57s32 20 56 20s42.667 -6.83301 56 -20.5s20 -32.167 20 -55.5c0 -24.667 -6.66699 -43.667 -20 -57s-32 -20 -56 -20
s-42.667 6.83301 -56 20.5z" />
    <glyph glyph-name="Gcommaaccent" unicode="&#x122;" horiz-adv-x="625" 
d="M573 413l-0.00195312 -367c-25.333 -18.667 -56.166 -33 -92.499 -43s-74.833 -15 -115.5 -15c-102.667 0 -182 32.5 -238 97.5s-84 157.167 -84 276.5s28 211.5 84 276.5s135.333 97.5 238 97.5c40 0 77.5 -5 112.5 -15s64.167 -24 87.5 -42l-36 -105
c-60.667 29.333 -116 44 -166 44c-121.333 0 -182 -85.333 -182 -256s61.333 -256 184 -256c24.667 0 49.334 3.33301 74.001 10v180h-110v117h244zM240.998 -240c16 18.667 27.167 37.167 33.5 55.5s9.5 41.166 9.5 68.499c0 16 -1.33301 32.667 -4 50h116
c2.66699 -17.333 4 -33.666 4 -48.999c0 -32 -9 -61.833 -27 -89.5s-46.667 -56.167 -86 -85.5z" />
    <glyph glyph-name="gcommaaccent" unicode="&#x123;" horiz-adv-x="545" 
d="M479 546v-533.001c0 -73.333 -20.667 -130.333 -62 -171s-99.333 -61 -174 -61c-32 0 -63 3.66699 -93 11s-56 17.333 -78 30l36 102c42 -19.333 82.667 -29 122 -29c78 0 117 39.333 117 118v69c-30 -42.667 -71.333 -64 -124 -64c-59.333 0 -105.333 23.5 -138 70.5
s-49 113.167 -49 198.5c0 86 16.333 152.667 49 200s79 71 139 71c31.333 0 58.833 -6.66699 82.5 -20s42.5 -32.666 56.5 -57.999v66h116zM347 179.999l0.000976562 219.001c-11.333 13.333 -24.5 23.666 -39.5 30.999s-30.5 11 -46.5 11c-60 0 -90 -49.667 -90 -149
c0 -102.667 31.333 -154 94 -154c29.333 0 56.666 14 81.999 42zM365.001 778c-16 -18.667 -27.167 -37.167 -33.5 -55.5s-9.5 -41.166 -9.5 -68.499c0 -16 1.33301 -32.667 4 -50h-116c-2.66699 17.333 -4 33.666 -4 48.999c0 32 9 61.833 27 89.5s46.667 56.167 86 85.5z
" />
    <glyph glyph-name="Hcircumflex" unicode="&#x124;" horiz-adv-x="660" 
d="M248 781h-90v12l111 133h122l111 -133v-12h-93l-81 81zM588 724v-724h-134v309h-248v-309h-134v724h134v-297h248v297h134z" />
    <glyph glyph-name="hcircumflex" unicode="&#x125;" horiz-adv-x="552" 
d="M130 908l-80 -81h-90v12l111 133h122l111 -133v-12h-93zM450.5 513.5c27 -29.667 40.5 -71.167 40.5 -124.5v-389h-132v369c0 45.333 -24.333 68 -73 68c-32.667 0 -62 -11.667 -88 -35v-402h-132v770h132v-273c38 40.667 84.333 61 139 61
c48.667 0 86.5 -14.833 113.5 -44.5z" />
    <glyph glyph-name="Hbar" unicode="&#x126;" horiz-adv-x="660" 
d="M647 523h-59v-523h-134v309h-248v-309h-134v523h-59v97h59v104h134v-104h248v104h134v-104h59v-97zM454 523h-248v-96h248v96z" />
    <glyph glyph-name="hbar" unicode="&#x127;" horiz-adv-x="554" 
d="M452.5 497.5c27 -29.667 40.498 -71.167 40.498 -124.5v-373h-132v353c0 45.333 -24.667 68 -74 68c-17.333 0 -33.166 -2.83301 -47.499 -8.5s-28.166 -14.5 -41.499 -26.5v-386h-132v605h-58v88h58v77h132v-77h183v-88h-183v-124c38 40.667 84.667 61 140 61
c49.333 0 87.5 -14.833 114.5 -44.5z" />
    <glyph glyph-name="Itilde" unicode="&#x128;" horiz-adv-x="282" 
d="M154 795c-10.667 6.66699 -21 16 -31 28c-6 7.33301 -11.667 13 -17 17s-11.666 6 -18.999 6c-22 0 -34.667 -19.667 -38 -59h-70c0 47.333 9.33301 84.166 28 110.499s44.667 39.5 78 39.5c18 0 32.333 -3.33301 43 -10s21 -16 31 -28c6 -7.33301 11.667 -13 17 -17
s11.666 -6 18.999 -6c22 0 34.667 19.667 38 59h70c0 -47.333 -9.33301 -84.166 -28 -110.499s-44.667 -39.5 -78 -39.5c-18 0 -32.333 3.33301 -43 10zM74 724h134v-724h-134v724z" />
    <glyph glyph-name="itilde" unicode="&#x129;" horiz-adv-x="268" 
d="M147 625c-10.667 6.66699 -21 16 -31 28c-6 7.33301 -11.667 13 -17 17s-11.666 6 -18.999 6c-22 0 -34.667 -19.667 -38 -59h-70c0 47.333 9.33301 84.166 28 110.499s44.667 39.5 78 39.5c18 0 32.333 -3.33301 43 -10s21 -16 31 -28c6 -7.33301 11.667 -13 17 -17
s11.666 -6 18.999 -6c22 0 34.667 19.667 38 59h70c0 -47.333 -9.33301 -84.166 -28 -110.499s-44.667 -39.5 -78 -39.5c-18 0 -32.333 3.33301 -43 10zM68 546h132v-546h-132v546z" />
    <glyph glyph-name="Imacron" unicode="&#x12a;" horiz-adv-x="282" 
d="M-14 895h310v-87h-310v87zM74 724h134v-724h-134v724z" />
    <glyph glyph-name="imacron" unicode="&#x12b;" horiz-adv-x="268" 
d="M11 725h246v-87h-246v87zM68 546h132v-546h-132v546z" />
    <glyph glyph-name="Ibreve" unicode="&#x12c;" horiz-adv-x="282" 
d="M31 826c-26.667 29.333 -40.998 70.666 -42.998 123.999h73c6.66699 -50.667 33.667 -76 81 -76c48 0 75.333 25.333 82 76h70c-2 -53.333 -16.333 -94.666 -43 -123.999s-63.334 -44 -110.001 -44s-83.334 14.667 -110.001 44zM74.002 724h134v-724h-134v724z" />
    <glyph glyph-name="ibreve" unicode="&#x12d;" horiz-adv-x="268" 
d="M68 546h132v-546h-132v546zM24 656c-26.667 29.333 -40.998 70.666 -42.998 123.999h73c6.66699 -50.667 33.667 -76 81 -76c48 0 75.333 25.333 82 76h70c-2 -53.333 -16.333 -94.666 -43 -123.999s-63.334 -44 -110.001 -44s-83.334 14.667 -110.001 44z" />
    <glyph glyph-name="Iogonek" unicode="&#x12e;" horiz-adv-x="282" 
d="M268 -198c-31.333 -20.667 -68.334 -31 -111.001 -31c-38 0 -67.167 9 -87.5 27s-30.5 43 -30.5 75c0 25.333 6.33301 49.166 19 71.499s30.334 40.833 53.001 55.5h-37v724h134v-724c-41.333 -33.333 -62 -67.666 -62 -102.999c0 -28.667 14 -43 42 -43
c16.667 0 33.667 4.33301 51 13z" />
    <glyph glyph-name="iogonek" unicode="&#x12f;" horiz-adv-x="268" 
d="M78 638.5c-13.333 13.667 -20 32.167 -20 55.5c0 24.667 6.66699 43.667 20 57s32 20 56 20s42.667 -6.83301 56 -20.5s20 -32.167 20 -55.5c0 -24.667 -6.66699 -43.667 -20 -57s-32 -20 -56 -20s-42.667 6.83301 -56 20.5zM260 -198
c-31.333 -20.667 -68.334 -31 -111.001 -31c-38 0 -67.167 9 -87.5 27s-30.5 43 -30.5 75c0 25.333 6.33301 49.166 19 71.499s30.334 40.833 53.001 55.5h-35v546h132v-546c-41.333 -33.333 -62 -67.666 -62 -102.999c0 -28.667 14 -43 42 -43
c16.667 0 33.667 4.33301 51 13z" />
    <glyph glyph-name="Idotaccent" unicode="&#x130;" horiz-adv-x="282" 
d="M85 797.5c-13.333 13.667 -20 32.167 -20 55.5c0 24.667 6.66699 43.667 20 57s32 20 56 20s42.667 -6.83301 56 -20.5s20 -32.167 20 -55.5c0 -24.667 -6.66699 -43.667 -20 -57s-32 -20 -56 -20s-42.667 6.83301 -56 20.5zM74 724h134v-724h-134v724z" />
    <glyph glyph-name="dotlessi" unicode="&#x131;" horiz-adv-x="268" 
d="M68 546h132v-546h-132v546z" />
    <glyph glyph-name="IJ" unicode="&#x132;" horiz-adv-x="650" 
d="M72 724h134v-724h-134v724zM328 -3c-24 6 -44.667 14.333 -62 25l38 109c36 -16 66.667 -24 92 -24c44 0 66 27 66 81v536h134v-546c0 -60.667 -16.833 -107.5 -50.5 -140.5s-81.167 -49.5 -142.5 -49.5c-26 0 -51 3 -75 9z" />
    <glyph glyph-name="ij" unicode="&#x133;" horiz-adv-x="536" 
d="M68 546h132v-546h-132v546zM78 638.5c-13.333 13.667 -20 32.167 -20 55.5c0 24.667 6.66699 43.667 20 57s32 20 56 20s42.667 -6.83301 56 -20.5s20 -32.167 20 -55.5c0 -24.667 -6.66699 -43.667 -20 -57s-32 -20 -56 -20s-42.667 6.83301 -56 20.5zM202 -115
c36.667 13.333 64.333 26.832 83 40.499s31.834 30.167 39.501 49.5s11.5 45 11.5 77v494h132v-498c0 -50.667 -6.83301 -92.167 -20.5 -124.5s-36.334 -59.666 -68.001 -81.999s-76.5 -43.5 -134.5 -63.5zM345.999 638.499c-13.333 13.667 -20 32.167 -20 55.5
c0 24.667 6.66699 43.667 20 57s32 20 56 20s42.667 -6.83301 56 -20.5s20 -32.167 20 -55.5c0 -24.667 -6.66699 -43.667 -20 -57s-32 -20 -56 -20s-42.667 6.83301 -56 20.5z" />
    <glyph glyph-name="Jcircumflex" unicode="&#x134;" horiz-adv-x="440" 
d="M478 793v-12h-93l-81 81l-80 -81h-90v12l111 133h122zM239 724h134.001v-546c0 -60.667 -18 -107.5 -54 -140.5s-87 -49.5 -153 -49.5c-33.333 0 -64.833 4.83301 -94.5 14.5s-54.834 23.5 -75.501 41.5l46 100c42.667 -24.667 82 -37 118 -37c52.667 0 79 27 79 81v536z
" />
    <glyph glyph-name="jcircumflex" unicode="&#x135;" horiz-adv-x="268" 
d="M-66 -115c36.667 13.333 64.333 26.832 83 40.499s31.834 30.167 39.501 49.5s11.5 45 11.5 77v494h132v-498c0 -50.667 -6.83301 -92.167 -20.5 -124.5s-36.334 -59.666 -68.001 -81.999s-76.5 -43.5 -134.5 -63.5zM288.999 624.999v-10h-87l-70 93l-69 -93h-84v10
l97 159h116z" />
    <glyph glyph-name="Kcommaaccent" unicode="&#x136;" horiz-adv-x="598" 
d="M274 298l-68 -90v-208h-134v724h134v-339l232 339h159l-239 -315l254 -409h-159zM226 -240c16 18.667 27.167 37.167 33.5 55.5s9.5 41.166 9.5 68.499c0 16 -1.33301 32.667 -4 50h116c2.66699 -17.333 4 -33.666 4 -48.999c0 -32 -9 -61.833 -27 -89.5
s-46.667 -56.167 -86 -85.5z" />
    <glyph glyph-name="kcommaaccent" unicode="&#x137;" horiz-adv-x="531" 
d="M246 216l-48 -61v-155h-132v770h132v-446l162 222h151l-183 -228l197 -318h-151zM177 -240c16 18.667 27.167 37.167 33.5 55.5s9.5 41.166 9.5 68.499c0 16 -1.33301 32.667 -4 50h116c2.66699 -17.333 4 -33.666 4 -48.999c0 -32 -9 -61.833 -27 -89.5
s-46.667 -56.167 -86 -85.5z" />
    <glyph glyph-name="kgreenlandic" unicode="&#x138;" horiz-adv-x="531" 
d="M246 216l-48 -61v-155h-132v546h132v-222l162 222h151l-183 -228l197 -318h-151z" />
    <glyph glyph-name="Lacute" unicode="&#x139;" horiz-adv-x="493" 
d="M193 781h-106v12l133 133h143v-12zM476 119v-119h-404v724h134v-605h270z" />
    <glyph glyph-name="lacute" unicode="&#x13a;" horiz-adv-x="302" 
d="M52 839l133 133h143v-12l-170 -133h-106v12zM64 134l-0.000976562 636h132v-605c0 -19.333 3.5 -33.333 10.5 -42s18.167 -13 33.5 -13c10.667 0 21.334 1 32.001 3l8 -110c-25.333 -6 -51 -9 -77 -9c-92.667 0 -139 46.667 -139 140z" />
    <glyph glyph-name="Lcommaaccent" unicode="&#x13b;" horiz-adv-x="493" 
d="M476 119v-119h-404v724h134v-605h270zM183 -240c16 18.667 27.167 37.167 33.5 55.5s9.5 41.166 9.5 68.499c0 16 -1.33301 32.667 -4 50h116c2.66699 -17.333 4 -33.666 4 -48.999c0 -32 -9 -61.833 -27 -89.5s-46.667 -56.167 -86 -85.5z" />
    <glyph glyph-name="lcommaaccent" unicode="&#x13c;" horiz-adv-x="302" 
d="M64 134l-0.000976562 636h132v-605c0 -19.333 3.5 -33.333 10.5 -42s18.167 -13 33.5 -13c10.667 0 21.334 1 32.001 3l8 -110c-25.333 -6 -51 -9 -77 -9c-92.667 0 -139 46.667 -139 140zM69.999 -240c16 18.667 27.167 37.167 33.5 55.5s9.5 41.166 9.5 68.499
c0 16 -1.33301 32.667 -4 50h116c2.66699 -17.333 4 -33.666 4 -48.999c0 -32 -9 -61.833 -27 -89.5s-46.667 -56.167 -86 -85.5z" />
    <glyph glyph-name="Lcaron" unicode="&#x13d;" horiz-adv-x="493" 
d="M382 540h-73v230h108v-10zM476 119v-119h-404v724h134v-605h270z" />
    <glyph glyph-name="lcaron" unicode="&#x13e;" horiz-adv-x="304" 
d="M64 134l-0.000976562 636h132v-605c0 -19.333 3.5 -33.333 10.5 -42s18.167 -13 33.5 -13c10.667 0 21.334 1 32.001 3l8 -110c-25.333 -6 -51 -9 -77 -9c-92.667 0 -139 46.667 -139 140zM254.999 770h108v-10l-35 -220h-73v230z" />
    <glyph glyph-name="Ldot" unicode="&#x13f;" horiz-adv-x="493" 
d="M476 119v-119h-404v724h134v-605h270zM323 356.5c-13.333 13.667 -20 32.167 -20 55.5c0 24.667 6.66699 43.667 20 57s32 20 56 20s42.667 -6.83301 56 -20.5s20 -32.167 20 -55.5c0 -24.667 -6.66699 -43.667 -20 -57s-32 -20 -56 -20s-42.667 6.83301 -56 20.5z" />
    <glyph glyph-name="ldot" unicode="&#x140;" horiz-adv-x="383" 
d="M64 134l-0.000976562 636h132v-605c0 -19.333 3.5 -33.333 10.5 -42s18.167 -13 33.5 -13c10.667 0 21.334 1 32.001 3l8 -110c-25.333 -6 -51 -9 -77 -9c-92.667 0 -139 46.667 -139 140zM264.999 344.5c-13.333 13.667 -20 32.167 -20 55.5
c0 24.667 6.66699 43.667 20 57s32 20 56 20s42.667 -6.83301 56 -20.5s20 -32.167 20 -55.5c0 -24.667 -6.66699 -43.667 -20 -57s-32 -20 -56 -20s-42.667 6.83301 -56 20.5z" />
    <glyph glyph-name="Lslash" unicode="&#x141;" horiz-adv-x="497" 
d="M480 119v-119h-404v231l-44 -28h-10v104l54 33v384h134v-303l167 105h10v-104l-177 -107v-196h270z" />
    <glyph glyph-name="lslash" unicode="&#x142;" horiz-adv-x="341" 
d="M220 389v-224c0 -19.333 3.5 -33.333 10.5 -42s18.167 -13 33.5 -13c10.667 0 21.334 1 32.001 3l8 -110c-24.667 -6 -50.334 -9 -77.001 -9c-92.667 0 -139 46.667 -139 140v172l-60 -40h-9v101l69 43v360h132v-277l81 53h9v-101z" />
    <glyph glyph-name="Nacute" unicode="&#x143;" horiz-adv-x="680" 
d="M368 781h-106v12l133 133h143v-12zM608 724v-724h-129l-276 487v-487h-131v724h129l276 -485v485h131z" />
    <glyph glyph-name="nacute" unicode="&#x144;" horiz-adv-x="550" 
d="M449 513.5c26.667 -29.667 39.999 -71.167 39.999 -124.5v-389h-132v369c0 45.333 -24 68 -72 68c-32 0 -61 -11.667 -87 -35v-402h-132v546h116v-68c40.667 53.333 92 80 154 80c48.667 0 86.334 -14.833 113.001 -44.5zM215.999 625l86 159h133v-10l-123 -159h-96v10z
" />
    <glyph glyph-name="Ncommaaccent" unicode="&#x145;" horiz-adv-x="680" 
d="M608 724v-724h-129l-276 487v-487h-131v724h129l276 -485v485h131zM241 -240c16 18.667 27.167 37.167 33.5 55.5s9.5 41.166 9.5 68.499c0 16 -1.33301 32.667 -4 50h116c2.66699 -17.333 4 -33.666 4 -48.999c0 -32 -9 -61.833 -27 -89.5s-46.667 -56.167 -86 -85.5z
" />
    <glyph glyph-name="ncommaaccent" unicode="&#x146;" horiz-adv-x="550" 
d="M449 513.5c26.667 -29.667 39.999 -71.167 39.999 -124.5v-389h-132v369c0 45.333 -24 68 -72 68c-32 0 -61 -11.667 -87 -35v-402h-132v546h116v-68c40.667 53.333 92 80 154 80c48.667 0 86.334 -14.833 113.001 -44.5zM179.999 -240
c16 18.667 27.167 37.167 33.5 55.5s9.5 41.166 9.5 68.499c0 16 -1.33301 32.667 -4 50h116c2.66699 -17.333 4 -33.666 4 -48.999c0 -32 -9 -61.833 -27 -89.5s-46.667 -56.167 -86 -85.5z" />
    <glyph glyph-name="Ncaron" unicode="&#x147;" horiz-adv-x="680" 
d="M279 781l-111 133v12h93l81 -81l80 81h90v-12l-111 -133h-122zM608 724v-724h-129l-276 487v-487h-131v724h129l276 -485v485h131z" />
    <glyph glyph-name="ncaron" unicode="&#x148;" horiz-adv-x="550" 
d="M449 513.5c26.667 -29.667 39.999 -71.167 39.999 -124.5v-389h-132v369c0 45.333 -24 68 -72 68c-32 0 -61 -11.667 -87 -35v-402h-132v546h116v-68c40.667 53.333 92 80 154 80c48.667 0 86.334 -14.833 113.001 -44.5zM432.999 784v-10l-97 -159h-116l-97 159v10h87
l69 -93l70 93h84z" />
    <glyph glyph-name="napostrophe" unicode="&#x149;" horiz-adv-x="550" 
d="M449 513.5c26.667 -29.667 39.999 -71.167 39.999 -124.5v-389h-132v369c0 45.333 -24 68 -72 68c-32 0 -61 -11.667 -87 -35v-402h-132v546h116v-68c40.667 53.333 92 80 154 80c48.667 0 86.334 -14.833 113.001 -44.5zM-88.001 562
c20.667 23.333 35.167 46.168 43.5 68.501s12.5 49.5 12.5 81.5c0 24 -0.666992 43.333 -2 58h114c1.33301 -14.667 2 -33.667 2 -57c0 -37.333 -9.83301 -71.833 -29.5 -103.5s-51.5 -63.834 -95.5 -96.501z" />
    <glyph glyph-name="Eng" unicode="&#x14a;" horiz-adv-x="680" 
d="M608 724v-724v-40c0 -57.333 -16.333 -101.5 -49 -132.5s-79 -46.5 -139 -46.5s-110.333 17.333 -151 52l45 98c38 -22 71.333 -33 100 -33c42 0 63 24 63 72v34l-274 483v-487h-131v724h129l276 -485v485h131z" />
    <glyph glyph-name="eng" unicode="&#x14b;" horiz-adv-x="550" 
d="M449 513.5c26.667 -29.667 39.999 -71.166 39.999 -124.499v-389v-60c0 -50.667 -14 -89.834 -42 -117.501s-67.667 -41.5 -119 -41.5c-46 0 -86.667 13 -122 39l41 95c32 -13.333 55.667 -20 71 -20c26 0 39 18.333 39 55v267v152c0 45.333 -24 68 -72 68
c-32 0 -61 -11.667 -87 -35v-402h-132v546h116v-68c40.667 53.333 92 80 154 80c48.667 0 86.334 -14.833 113.001 -44.5z" />
    <glyph glyph-name="Omacron" unicode="&#x14c;" horiz-adv-x="668" 
d="M179 895h310v-87h-310v87zM117.5 82c-49.667 62.667 -74.5 156 -74.5 280s24.833 217.333 74.5 280s121.834 94 216.501 94s166.834 -31.333 216.501 -94s74.5 -156 74.5 -280s-24.833 -217.333 -74.5 -280s-121.834 -94 -216.501 -94s-166.834 31.333 -216.501 94z
M487 362c0 170.667 -51 256 -153 256s-153 -85.333 -153 -256s51 -256 153 -256s153 85.333 153 256z" />
    <glyph glyph-name="omacron" unicode="&#x14d;" horiz-adv-x="526" 
d="M94.5 60c-39 48 -58.501 119 -58.501 213s19.5 165 58.5 213s95.167 72 168.5 72s129.5 -24 168.5 -72s58.5 -119 58.5 -213s-19.667 -165 -59 -213s-95.666 -72 -168.999 -72c-72.667 0 -128.5 24 -167.5 72zM354.999 273c0 112.667 -30.667 169 -92 169
s-92 -56.333 -92 -169s30.333 -169 91 -169c62 0 93 56.333 93 169zM107.999 725h310v-87h-310v87z" />
    <glyph glyph-name="Obreve" unicode="&#x14e;" horiz-adv-x="668" 
d="M224 826c-26.667 29.333 -40.998 70.666 -42.998 123.999h73c6.66699 -50.667 33.667 -76 81 -76c48 0 75.333 25.333 82 76h70c-2 -53.333 -16.333 -94.666 -43 -123.999s-63.334 -44 -110.001 -44s-83.334 14.667 -110.001 44zM117.502 82
c-49.667 62.667 -74.5 156 -74.5 280s24.833 217.333 74.5 280s121.834 94 216.501 94s166.834 -31.333 216.501 -94s74.5 -156 74.5 -280s-24.833 -217.333 -74.5 -280s-121.834 -94 -216.501 -94s-166.834 31.333 -216.501 94zM487.002 362c0 170.667 -51 256 -153 256
s-153 -85.333 -153 -256s51 -256 153 -256s153 85.333 153 256z" />
    <glyph glyph-name="obreve" unicode="&#x14f;" horiz-adv-x="526" 
d="M94.5 60c-39 48 -58.501 119 -58.501 213s19.5 165 58.5 213s95.167 72 168.5 72s129.5 -24 168.5 -72s58.5 -119 58.5 -213s-19.667 -165 -59 -213s-95.666 -72 -168.999 -72c-72.667 0 -128.5 24 -167.5 72zM354.999 273c0 112.667 -30.667 169 -92 169
s-92 -56.333 -92 -169s30.333 -169 91 -169c62 0 93 56.333 93 169zM152.999 656c-26.667 29.333 -40.998 70.666 -42.998 123.999h73c6.66699 -50.667 33.667 -76 81 -76c48 0 75.333 25.333 82 76h70c-2 -53.333 -16.333 -94.666 -43 -123.999s-63.334 -44 -110.001 -44
s-83.334 14.667 -110.001 44z" />
    <glyph glyph-name="Ohungarumlaut" unicode="&#x150;" horiz-adv-x="668" 
d="M196 793l83 133h117v-12l-118 -133h-82v12zM359 793l85 133h119v-12l-120 -133h-84v12zM117.5 82c-49.667 62.667 -74.5 156 -74.5 280s24.833 217.333 74.5 280s121.834 94 216.501 94s166.834 -31.333 216.501 -94s74.5 -156 74.5 -280s-24.833 -217.333 -74.5 -280
s-121.834 -94 -216.501 -94s-166.834 31.333 -216.501 94zM487 362c0 170.667 -51 256 -153 256s-153 -85.333 -153 -256s51 -256 153 -256s153 85.333 153 256z" />
    <glyph glyph-name="ohungarumlaut" unicode="&#x151;" horiz-adv-x="526" 
d="M94.5 60c-39 48 -58.501 119 -58.501 213s19.5 165 58.5 213s95.167 72 168.5 72s129.5 -24 168.5 -72s58.5 -119 58.5 -213s-19.667 -165 -59 -213s-95.666 -72 -168.999 -72c-72.667 0 -128.5 24 -167.5 72zM354.999 273c0 112.667 -30.667 169 -92 169
s-92 -56.333 -92 -169s30.333 -169 91 -169c62 0 93 56.333 93 169zM134.999 625l51 159h113v-10l-86 -159h-78v10zM287.999 625l51 159h113v-10l-86 -159h-78v10z" />
    <glyph glyph-name="OE" unicode="&#x152;" horiz-adv-x="904" 
d="M880 118v-118h-428h-116c-94.667 -0 -167.167 30.333 -217.5 91s-75.5 151 -75.5 271s25.167 210.333 75.5 271s122.833 91 217.5 91h169h360v-118h-283v-176h204v-119h-204v-193h298zM452 118v488h-116c-103.333 0 -155 -81.333 -155 -244s51.667 -244 155 -244h116z
" />
    <glyph glyph-name="oe" unicode="&#x153;" horiz-adv-x="826" 
d="M790 232h-304.002c8.66699 -84 49.667 -126 123 -126c36.667 0 77.334 10.667 122.001 32l45 -96c-25.333 -16.667 -53.666 -29.667 -84.999 -39s-63.333 -14 -96 -14c-74.667 0 -132.334 24.333 -173.001 73c-38 -49.333 -91.667 -74 -161 -74
c-72 0 -127.5 24 -166.5 72s-58.5 119 -58.5 213s19.5 165 58.5 213s94.833 72 167.5 72c69.333 0 123 -25.333 161 -76c16.667 24.667 38.334 43.5 65.001 56.5s57 19.5 91 19.5c69.333 0 122.833 -22.833 160.5 -68.5s56.5 -110.167 56.5 -193.5c0 -24.667 -2 -46 -6 -64z
M485.998 319h179c-1.33301 40 -9.5 70.833 -24.5 92.5s-36.5 32.5 -64.5 32.5c-52.667 0 -82.667 -41.667 -90 -125zM351.998 273c0 112.667 -30 169 -90 169c-60.667 0 -91 -56.333 -91 -169s30 -169 90 -169c60.667 0 91 56.333 91 169z" />
    <glyph glyph-name="Racute" unicode="&#x154;" horiz-adv-x="595" 
d="M325 781h-106v12l133 133h143v-12zM280 252l-74 -0.000976562v-252h-134v724h134h111c72 0 127.833 -20.667 167.5 -62s59.5 -99.333 59.5 -174c0 -55.333 -10.833 -101.666 -32.5 -138.999s-53.167 -64 -94.5 -80l170 -269h-161zM206 364.999h111c60 0 90 40.333 90 121
c0 81.333 -31.333 122 -94 122h-107v-243z" />
    <glyph glyph-name="racute" unicode="&#x155;" horiz-adv-x="372" 
d="M372 543l-24 -123c-19.333 6 -39 9 -59 9c-22 0 -40 -3.83301 -54 -11.5s-26.333 -20.167 -37 -37.5v-380h-132v546h116v-86c30 64 74 96 132 96c22 0 41.333 -4.33301 58 -13zM159 625l86 159h133v-10l-123 -159h-96v10z" />
    <glyph glyph-name="Rcommaaccent" unicode="&#x156;" horiz-adv-x="595" 
d="M280 252l-74 -0.000976562v-252h-134v724h134h111c72 0 127.833 -20.667 167.5 -62s59.5 -99.333 59.5 -174c0 -55.333 -10.833 -101.666 -32.5 -138.999s-53.167 -64 -94.5 -80l170 -269h-161zM206 364.999h111c60 0 90 40.333 90 121c0 81.333 -31.333 122 -94 122
h-107v-243zM217 -240.001c16 18.667 27.167 37.167 33.5 55.5s9.5 41.166 9.5 68.499c0 16 -1.33301 32.667 -4 50h116c2.66699 -17.333 4 -33.666 4 -48.999c0 -32 -9 -61.833 -27 -89.5s-46.667 -56.167 -86 -85.5z" />
    <glyph glyph-name="rcommaaccent" unicode="&#x157;" horiz-adv-x="372" 
d="M372 543l-24 -123c-19.333 6 -39 9 -59 9c-22 0 -40 -3.83301 -54 -11.5s-26.333 -20.167 -37 -37.5v-380h-132v546h116v-86c30 64 74 96 132 96c22 0 41.333 -4.33301 58 -13zM33 -240c16 18.667 27.167 37.167 33.5 55.5s9.5 41.166 9.5 68.499
c0 16 -1.33301 32.667 -4 50h116c2.66699 -17.333 4 -33.666 4 -48.999c0 -32 -9 -61.833 -27 -89.5s-46.667 -56.167 -86 -85.5z" />
    <glyph glyph-name="Rcaron" unicode="&#x158;" horiz-adv-x="595" 
d="M236 781l-111 133v12h93l81 -81l80 81h90v-12l-111 -133h-122zM280 252l-74 -0.000976562v-252h-134v724h134h111c72 0 127.833 -20.667 167.5 -62s59.5 -99.333 59.5 -174c0 -55.333 -10.833 -101.666 -32.5 -138.999s-53.167 -64 -94.5 -80l170 -269h-161zM206 364.999
h111c60 0 90 40.333 90 121c0 81.333 -31.333 122 -94 122h-107v-243z" />
    <glyph glyph-name="rcaron" unicode="&#x159;" horiz-adv-x="372" 
d="M372 543l-24 -123c-19.333 6 -39 9 -59 9c-22 0 -40 -3.83301 -54 -11.5s-26.333 -20.167 -37 -37.5v-380h-132v546h116v-86c30 64 74 96 132 96c22 0 41.333 -4.33301 58 -13zM376 784v-10l-97 -159h-116l-97 159v10h87l69 -93l70 93h84z" />
    <glyph glyph-name="Sacute" unicode="&#x15a;" horiz-adv-x="526" 
d="M173 793l133 133h143v-12l-170 -133h-106v12zM128 6c-39.333 11.333 -74 27.666 -104 48.999l41 103c63.333 -36.667 125 -55 185 -55c76 0 114 30.667 114 92c0 25.333 -6.83301 45.5 -20.5 60.5s-35.834 26.833 -66.501 35.5l-82 23
c-56.667 16 -97.834 39.667 -123.501 71s-38.5 74 -38.5 128c0 70.667 20 125.334 60 164.001s96.333 58 169 58c34.667 0 70.5 -4.33301 107.5 -13s72.167 -21 105.5 -37l-41 -103c-70 26 -128 39 -174 39c-66 0 -99 -28 -99 -84c0 -25.333 6.83301 -45.5 20.5 -60.5
s35.834 -26.833 66.501 -35.5l82 -23c56.667 -16 97.834 -39.833 123.501 -71.5s38.5 -74.5 38.5 -128.5c0 -72.667 -21 -129 -63 -169s-101.667 -60 -179 -60c-42 0 -82.667 5.66699 -122 17z" />
    <glyph glyph-name="sacute" unicode="&#x15b;" horiz-adv-x="441" 
d="M105.5 3.5c-33.667 9.66699 -63.168 23.1641 -88.501 40.4971l43 99c54.667 -30.667 104.667 -46 150 -46c52.667 0 79 19 79 57c0 15.333 -4.66699 27.5 -14 36.5s-24.333 16.167 -45 21.5l-71 17c-46.667 11.333 -80.667 29 -102 53s-32 57.333 -32 100
c0 55.333 17.333 98.333 52 129s83.334 46 146.001 46c33.333 0 65.5 -4.16699 96.5 -12.5s58.5 -19.833 82.5 -34.5l-48 -103c-48.667 24 -93 36 -133 36c-46.667 0 -70 -16 -70 -48c0 -13.333 4.66699 -24.166 14 -32.499s24.333 -15.166 45 -20.499l71 -17
c46.667 -11.333 80.667 -29.166 102 -53.499s32 -57.833 32 -100.5c0 -58 -17.833 -102.833 -53.5 -134.5s-86.167 -47.5 -151.5 -47.5c-36 0 -70.833 4.83301 -104.5 14.5zM151.999 624.997l86 159h133v-10l-123 -159h-96v10z" />
    <glyph glyph-name="Scircumflex" unicode="&#x15c;" horiz-adv-x="526" 
d="M169 781h-90v12l111 133h122l111 -133v-12h-93l-81 81zM453.5 346.5c25.667 -31.667 38.5 -74.5 38.5 -128.5c0 -72.667 -21 -129 -63 -169s-101.667 -60 -179 -60c-42 0 -82.667 5.66699 -122 17s-74 27.666 -104 48.999l41 103c63.333 -36.667 125 -55 185 -55
c76 0 114 30.667 114 92c0 25.333 -6.83301 45.5 -20.5 60.5s-35.834 26.833 -66.501 35.5l-82 23c-56.667 16 -97.834 39.667 -123.501 71s-38.5 74 -38.5 128c0 70.667 20 125.334 60 164.001s96.333 58 169 58c34.667 0 70.5 -4.33301 107.5 -13s72.167 -21 105.5 -37
l-41 -103c-70 26 -128 39 -174 39c-66 0 -99 -28 -99 -84c0 -25.333 6.83301 -45.5 20.5 -60.5s35.834 -26.833 66.501 -35.5l82 -23c56.667 -16 97.834 -39.833 123.501 -71.5z" />
    <glyph glyph-name="scircumflex" unicode="&#x15d;" horiz-adv-x="441" 
d="M105.5 3.5c-33.667 9.66699 -63.168 23.1641 -88.501 40.4971l43 99c54.667 -30.667 104.667 -46 150 -46c52.667 0 79 19 79 57c0 15.333 -4.66699 27.5 -14 36.5s-24.333 16.167 -45 21.5l-71 17c-46.667 11.333 -80.667 29 -102 53s-32 57.333 -32 100
c0 55.333 17.333 98.333 52 129s83.334 46 146.001 46c33.333 0 65.5 -4.16699 96.5 -12.5s58.5 -19.833 82.5 -34.5l-48 -103c-48.667 24 -93 36 -133 36c-46.667 0 -70 -16 -70 -48c0 -13.333 4.66699 -24.166 14 -32.499s24.333 -15.166 45 -20.499l71 -17
c46.667 -11.333 80.667 -29.166 102 -53.499s32 -57.833 32 -100.5c0 -58 -17.833 -102.833 -53.5 -134.5s-86.167 -47.5 -151.5 -47.5c-36 0 -70.833 4.83301 -104.5 14.5zM368.999 624.997v-10h-87l-70 93l-69 -93h-84v10l97 159h116z" />
    <glyph glyph-name="Scedilla" unicode="&#x15e;" horiz-adv-x="526" 
d="M438.5 59c-35.667 -39.333 -86.5 -62 -152.5 -68l-31 -45c7.33301 2 14.666 3 21.999 3c34 0 60.333 -7.33301 79 -22s28 -35.667 28 -63c0 -32.667 -11.5 -58 -34.5 -76s-55.167 -27 -96.5 -27c-43.333 0 -81.666 8.66699 -114.999 26l19 57
c34 -11.333 61.333 -17 82 -17c30 0 45 11.333 45 34c0 22 -13.333 33 -40 33c-14 0 -26.667 -2.33301 -38 -7l-26 30l28 74c-72 7.33301 -133.333 28.666 -184 63.999l41 103c63.333 -36.667 125 -55 185 -55c76 0 114 30.667 114 92c0 25.333 -6.83301 45.5 -20.5 60.5
s-35.834 26.833 -66.501 35.5l-82 23c-56.667 16 -97.834 39.667 -123.501 71s-38.5 74 -38.5 128c0 70.667 20 125.334 60 164.001s96.333 58 169 58c34.667 0 70.5 -4.33301 107.5 -13s72.167 -21 105.5 -37l-41 -103c-70 26 -128 39 -174 39c-66 0 -99 -28 -99 -84
c0 -25.333 6.83301 -45.5 20.5 -60.5s35.834 -26.833 66.501 -35.5l82 -23c56.667 -16 97.834 -39.833 123.501 -71.5s38.5 -74.5 38.5 -128.5c0 -66.667 -17.833 -119.667 -53.5 -159z" />
    <glyph glyph-name="scedilla" unicode="&#x15f;" horiz-adv-x="441" 
d="M371 45.5c-29.333 -31 -71.334 -49.1699 -126.001 -54.5029l-31 -45c7.33301 2 14.666 3 21.999 3c34 0 60.333 -7.33301 79 -22s28 -35.667 28 -63c0 -32.667 -11.5 -58 -34.5 -76s-55.167 -27 -96.5 -27c-43.333 0 -81.666 8.66699 -114.999 26l19 57
c34 -11.333 61.333 -17 82 -17c30 0 45 11.333 45 34c0 22 -13.333 33 -40 33c-14 0 -26.667 -2.33301 -38 -7l-26 30l28 74c-59.333 7.33301 -109.333 25 -150 53l43 99c54.667 -30.667 104.667 -46 150 -46c52.667 0 79 19 79 57c0 15.333 -4.66699 27.5 -14 36.5
s-24.333 16.167 -45 21.5l-71 17c-46.667 11.333 -80.667 29 -102 53s-32 57.333 -32 100c0 55.333 17.333 98.333 52 129s83.334 46 146.001 46c33.333 0 65.5 -4.16699 96.5 -12.5s58.5 -19.833 82.5 -34.5l-48 -103c-48.667 24 -93 36 -133 36c-46.667 0 -70 -16 -70 -48
c0 -13.333 4.66699 -24.166 14 -32.499s24.333 -15.166 45 -20.499l71 -17c46.667 -11.333 80.667 -29.166 102 -53.499s32 -57.833 32 -100.5c0 -52.667 -14.667 -94.5 -44 -125.5z" />
    <glyph glyph-name="Scaron" unicode="&#x160;" horiz-adv-x="526" 
d="M190 781l-111 133v12h93l81 -81l80 81h90v-12l-111 -133h-122zM453.5 346.5c25.667 -31.667 38.5 -74.5 38.5 -128.5c0 -72.667 -21 -129 -63 -169s-101.667 -60 -179 -60c-42 0 -82.667 5.66699 -122 17s-74 27.666 -104 48.999l41 103c63.333 -36.667 125 -55 185 -55
c76 0 114 30.667 114 92c0 25.333 -6.83301 45.5 -20.5 60.5s-35.834 26.833 -66.501 35.5l-82 23c-56.667 16 -97.834 39.667 -123.501 71s-38.5 74 -38.5 128c0 70.667 20 125.334 60 164.001s96.333 58 169 58c34.667 0 70.5 -4.33301 107.5 -13s72.167 -21 105.5 -37
l-41 -103c-70 26 -128 39 -174 39c-66 0 -99 -28 -99 -84c0 -25.333 6.83301 -45.5 20.5 -60.5s35.834 -26.833 66.501 -35.5l82 -23c56.667 -16 97.834 -39.833 123.501 -71.5z" />
    <glyph glyph-name="scaron" unicode="&#x161;" horiz-adv-x="441" 
d="M105.5 3.5c-33.667 9.66699 -63.168 23.1641 -88.501 40.4971l43 99c54.667 -30.667 104.667 -46 150 -46c52.667 0 79 19 79 57c0 15.333 -4.66699 27.5 -14 36.5s-24.333 16.167 -45 21.5l-71 17c-46.667 11.333 -80.667 29 -102 53s-32 57.333 -32 100
c0 55.333 17.333 98.333 52 129s83.334 46 146.001 46c33.333 0 65.5 -4.16699 96.5 -12.5s58.5 -19.833 82.5 -34.5l-48 -103c-48.667 24 -93 36 -133 36c-46.667 0 -70 -16 -70 -48c0 -13.333 4.66699 -24.166 14 -32.499s24.333 -15.166 45 -20.499l71 -17
c46.667 -11.333 80.667 -29.166 102 -53.499s32 -57.833 32 -100.5c0 -58 -17.833 -102.833 -53.5 -134.5s-86.167 -47.5 -151.5 -47.5c-36 0 -70.833 4.83301 -104.5 14.5zM368.999 783.997v-10l-97 -159h-116l-97 159v10h87l69 -93l70 93h84z" />
    <glyph glyph-name="uni0162" unicode="&#x162;" horiz-adv-x="492" 
d="M280 0l-38 -54c7.33301 2 14.666 3 21.999 3c34 0 60.333 -7.33301 79 -22s28 -35.667 28 -63c0 -32.667 -11.5 -58 -34.5 -76s-55.167 -27 -96.5 -27c-43.333 0 -81.666 8.66699 -114.999 26l19 57c34 -11.333 61.333 -17 82 -17c30 0 45 11.333 45 34
c0 22 -13.333 33 -40 33c-14 0 -26.667 -2.33301 -38 -7l-26 30l31 83h-19v605h-168v119h302h168v-119h-168v-605h-33z" />
    <glyph glyph-name="uni0163" unicode="&#x163;" horiz-adv-x="369" 
d="M325 -73c18.667 -14.667 28 -35.666 28 -62.999c0 -32.667 -11.5 -58 -34.5 -76s-55.167 -27 -96.5 -27c-43.333 0 -81.666 8.66699 -114.999 26l19 57c34 -11.333 61.333 -17 82 -17c30 0 45 11.333 45 34c0 22 -13.333 33 -40 33c-14 0 -26.667 -2.33301 -38 -7l-26 30
l33 86c-34 10 -59.167 27.667 -75.5 53s-24.5 59.666 -24.5 102.999v275h-77v112h78v148h131v-148h139v-112h-139v-250c0 -28 5.33301 -47.5 16 -58.5s29 -16.5 55 -16.5c18 0 36.667 2.66699 56 8l18 -110c-31.333 -9.33301 -63 -14 -95 -14h-7l-33 -47
c7.33301 2 14.666 3 21.999 3c34 0 60.333 -7.33301 79 -22z" />
    <glyph glyph-name="Tcaron" unicode="&#x164;" horiz-adv-x="492" 
d="M185 781l-111 133v12h93l81 -81l80 81h90v-12l-111 -133h-122zM481 605h-168v-605h-134v605h-168v119h302h168v-119z" />
    <glyph glyph-name="tcaron" unicode="&#x165;" horiz-adv-x="368" 
d="M248 770h108v-10l-26 -163h-82v173zM127 32.5c-30 26.333 -45 68.5 -45 126.5v275h-77v112h78v148h131v-148h139v-112h-139v-250c0 -28 5.33301 -47.5 16 -58.5s29 -16.5 55 -16.5c18 0 36.667 2.66699 56 8l18 -110c-31.333 -9.33301 -63 -14 -95 -14
c-61.333 0 -107 13.167 -137 39.5z" />
    <glyph glyph-name="Tbar" unicode="&#x166;" horiz-adv-x="492" 
d="M313 605v-218h111v-100h-111v-287h-134v287h-111v100h111v218h-168v119h302h168v-119h-168z" />
    <glyph glyph-name="tbar" unicode="&#x167;" horiz-adv-x="369" 
d="M359 7c-31.333 -9.33301 -63 -14 -95 -14c-61.333 0 -107 13.167 -137 39.5s-45 68.5 -45 126.5v98h-77v90h77v87h-77v112h78v148h131v-148h139v-112h-139v-87h139v-90h-139v-73c0 -28 5.33301 -47.5 16 -58.5s29 -16.5 55 -16.5c18 0 36.667 2.66699 56 8z" />
    <glyph glyph-name="Utilde" unicode="&#x168;" horiz-adv-x="646" 
d="M345.5 794.5c-13 6.33301 -27.167 15.5 -42.5 27.5c-10 8 -18.5 13.833 -25.5 17.5s-14.167 5.5 -21.5 5.5c-20.667 0 -33 -19.333 -37 -58h-71c1.33301 47.333 11.333 84.166 30 110.499s44.334 39.5 77.001 39.5c18 0 33.333 -3.16699 46 -9.5s26.667 -15.5 42 -27.5
c10 -8 18.5 -13.833 25.5 -17.5s14.167 -5.5 21.5 -5.5c20.667 0 33 19.333 37 58h71c-1.33301 -47.333 -11.333 -84.166 -30 -110.499s-44.334 -39.5 -77.001 -39.5c-17.333 0 -32.5 3.16699 -45.5 9.5zM134 54c-44.667 44 -66.999 106 -66.999 186v484h134v-474
c0 -96 40.333 -144 121 -144c82 0 123 48 123 144v474h134v-484c0 -80 -22.5 -142 -67.5 -186s-108.167 -66 -189.5 -66c-80.667 0 -143.334 22 -188.001 66z" />
    <glyph glyph-name="utilde" unicode="&#x169;" horiz-adv-x="542" 
d="M476 546l-0.000976562 -546h-116v75c-36.667 -58 -87 -87 -151 -87c-47.333 0 -84.166 14.667 -110.499 44s-39.5 70.666 -39.5 123.999v390h132v-369c0 -45.333 23 -68 69 -68c16.667 0 31.667 3.33301 45 10s26.333 17.334 39 32.001v395h132zM289.999 624.5
c-12.667 6.33301 -26.667 15.5 -42 27.5c-10 8 -18.5 13.833 -25.5 17.5s-14.167 5.5 -21.5 5.5c-20.667 0 -33 -19.333 -37 -58h-71c1.33301 47.333 11.333 84.166 30 110.499s44.334 39.5 77.001 39.5c17.333 0 32.5 -3.16699 45.5 -9.5s27.167 -15.5 42.5 -27.5
c10 -8 18.5 -13.833 25.5 -17.5s14.167 -5.5 21.5 -5.5c20.667 0 33 19.333 37 58h71c-1.33301 -47.333 -11.333 -84.166 -30 -110.499s-44.334 -39.5 -77.001 -39.5c-18 0 -33.333 3.16699 -46 9.5z" />
    <glyph glyph-name="Umacron" unicode="&#x16a;" horiz-adv-x="646" 
d="M168 895h310v-87h-310v87zM134 54c-44.667 44 -66.999 106 -66.999 186v484h134v-474c0 -96 40.333 -144 121 -144c82 0 123 48 123 144v474h134v-484c0 -80 -22.5 -142 -67.5 -186s-108.167 -66 -189.5 -66c-80.667 0 -143.334 22 -188.001 66z" />
    <glyph glyph-name="umacron" unicode="&#x16b;" horiz-adv-x="542" 
d="M476 546l-0.000976562 -546h-116v75c-36.667 -58 -87 -87 -151 -87c-47.333 0 -84.166 14.667 -110.499 44s-39.5 70.666 -39.5 123.999v390h132v-369c0 -45.333 23 -68 69 -68c16.667 0 31.667 3.33301 45 10s26.333 17.334 39 32.001v395h132zM112.999 725h310v-87
h-310v87z" />
    <glyph glyph-name="Ubreve" unicode="&#x16c;" horiz-adv-x="646" 
d="M213 826c-26.667 29.333 -40.998 70.666 -42.998 123.999h73c6.66699 -50.667 33.667 -76 81 -76c48 0 75.333 25.333 82 76h70c-2 -53.333 -16.333 -94.666 -43 -123.999s-63.334 -44 -110.001 -44s-83.334 14.667 -110.001 44zM134.002 54
c-44.667 44 -66.999 106 -66.999 186v484h134v-474c0 -96 40.333 -144 121 -144c82 0 123 48 123 144v474h134v-484c0 -80 -22.5 -142 -67.5 -186s-108.167 -66 -189.5 -66c-80.667 0 -143.334 22 -188.001 66z" />
    <glyph glyph-name="ubreve" unicode="&#x16d;" horiz-adv-x="542" 
d="M476 546l-0.000976562 -546h-116v75c-36.667 -58 -87 -87 -151 -87c-47.333 0 -84.166 14.667 -110.499 44s-39.5 70.666 -39.5 123.999v390h132v-369c0 -45.333 23 -68 69 -68c16.667 0 31.667 3.33301 45 10s26.333 17.334 39 32.001v395h132zM157.999 656
c-26.667 29.333 -40.998 70.666 -42.998 123.999h73c6.66699 -50.667 33.667 -76 81 -76c48 0 75.333 25.333 82 76h70c-2 -53.333 -16.333 -94.666 -43 -123.999s-63.334 -44 -110.001 -44s-83.334 14.667 -110.001 44z" />
    <glyph glyph-name="Uring" unicode="&#x16e;" horiz-adv-x="646" 
d="M228 798c-22.667 20.667 -34 49.667 -34 87s11.333 66.333 34 87s54.334 31 95.001 31s72.334 -10.333 95.001 -31s34 -49.667 34 -87s-11.333 -66.333 -34 -87s-54.334 -31 -95.001 -31s-72.334 10.333 -95.001 31zM372 885c0 38 -16.333 57 -49 57s-49 -19 -49 -57
s16.333 -57 49 -57s49 19 49 57zM134 54c-44.667 44 -66.999 106 -66.999 186v484h134v-474c0 -96 40.333 -144 121 -144c82 0 123 48 123 144v474h134v-484c0 -80 -22.5 -142 -67.5 -186s-108.167 -66 -189.5 -66c-80.667 0 -143.334 22 -188.001 66z" />
    <glyph glyph-name="uring" unicode="&#x16f;" horiz-adv-x="542" 
d="M476 546l-0.000976562 -546h-116v75c-36.667 -58 -87 -87 -151 -87c-47.333 0 -84.166 14.667 -110.499 44s-39.5 70.666 -39.5 123.999v390h132v-369c0 -45.333 23 -68 69 -68c16.667 0 31.667 3.33301 45 10s26.333 17.334 39 32.001v395h132zM173.499 633
c-22.333 20.667 -33.5 49.667 -33.5 87s11.167 66.333 33.5 87s53.833 31 94.5 31s72.167 -10.333 94.5 -31s33.5 -49.667 33.5 -87s-11.167 -66.333 -33.5 -87s-53.833 -31 -94.5 -31s-72.167 10.333 -94.5 31zM316.999 720c0 38.667 -16.333 58 -49 58
s-49 -19.333 -49 -58s16.333 -58 49 -58s49 19.333 49 58z" />
    <glyph glyph-name="Uhungarumlaut" unicode="&#x170;" horiz-adv-x="646" 
d="M185 793l83 133h117v-12l-118 -133h-82v12zM348 793l85 133h119v-12l-120 -133h-84v12zM134 54c-44.667 44 -66.999 106 -66.999 186v484h134v-474c0 -96 40.333 -144 121 -144c82 0 123 48 123 144v474h134v-484c0 -80 -22.5 -142 -67.5 -186s-108.167 -66 -189.5 -66
c-80.667 0 -143.334 22 -188.001 66z" />
    <glyph glyph-name="uhungarumlaut" unicode="&#x171;" horiz-adv-x="542" 
d="M476 546l-0.000976562 -546h-116v75c-36.667 -58 -87 -87 -151 -87c-47.333 0 -84.166 14.667 -110.499 44s-39.5 70.666 -39.5 123.999v390h132v-369c0 -45.333 23 -68 69 -68c16.667 0 31.667 3.33301 45 10s26.333 17.334 39 32.001v395h132zM139.999 625l51 159h113
v-10l-86 -159h-78v10zM292.999 625l51 159h113v-10l-86 -159h-78v10z" />
    <glyph glyph-name="Uogonek" unicode="&#x172;" horiz-adv-x="646" 
d="M410 -44c-11.333 -20 -17 -39.668 -17 -59.001c0 -28.667 14 -43 42 -43c16.667 0 33.667 4.33301 51 13l29 -65c-31.333 -20.667 -68.333 -31 -111 -31c-37.333 0 -66.333 8.83301 -87 26.5s-31 42.834 -31 75.501c0 21.333 4.5 42 13.5 62s21.833 38 38.5 54
c-3.33301 -0.666992 -8.66602 -1 -15.999 -1c-80.667 0 -143.334 22 -188.001 66s-67 106 -67 186v484h134v-474c0 -96 40.333 -144 121 -144c82 0 123 48 123 144v474h134v-484c0 -45.333 -7.33301 -84 -22 -116s-39 -62 -73 -90l-26 -22
c-20.667 -17.333 -36.667 -36 -48 -56z" />
    <glyph glyph-name="uogonek" unicode="&#x173;" horiz-adv-x="542" 
d="M524 -198c-31.333 -20.667 -68.334 -31.002 -111.001 -31.002c-37.333 0 -66.333 8.83301 -87 26.5s-31 42.834 -31 75.501c0 26.667 7 51 21 73s33.667 40 59 54h-14v78c-22 -31.333 -45 -54.166 -69 -68.499s-51.667 -21.5 -83 -21.5
c-47.333 0 -84.166 14.667 -110.499 44s-39.5 70.666 -39.5 123.999v390h132v-369c0 -45.333 23 -68 69 -68c16.667 0 31.667 3.33301 45 10s26.333 17.334 39 32.001v395h132v-546c-49.333 -32 -74 -66.333 -74 -103c0 -28.667 14 -43 42 -43
c16.667 0 33.667 4.33301 51 13z" />
    <glyph glyph-name="Wcircumflex" unicode="&#x174;" horiz-adv-x="852" 
d="M342 781h-90v12l111 133h122l111 -133v-12h-93l-81 81zM829 724l-159 -724h-146l-99 534l-98 -534h-146l-158 724h138l95 -567l98 566h144l100 -566l94 567h137z" />
    <glyph glyph-name="wcircumflex" unicode="&#x175;" horiz-adv-x="750" 
d="M733 546l-138 -546h-142l-77 387l-78 -387h-142l-139 546h132l80 -409l82 409h134l80 -406l77 406h131zM534 625v-10h-87l-70 93l-69 -93h-84v10l97 159h116z" />
    <glyph glyph-name="Ycircumflex" unicode="&#x176;" horiz-adv-x="560" 
d="M197 781h-90v12l111 133h122l111 -133v-12h-93l-81 81zM547 724l-201 -485v-239h-134v239l-199 485h143l125 -339l124 339h142z" />
    <glyph glyph-name="ycircumflex" unicode="&#x177;" horiz-adv-x="497" 
d="M482 546l-155.001 -515.001c-18.667 -62.667 -49.167 -113.667 -91.5 -153s-100.5 -71.666 -174.5 -96.999l-44 110c44 16 78.833 32 104.5 48s45.834 34.667 60.501 56l-167 551h133l103 -408l99 408h132zM404.999 624.999v-10h-87l-70 93l-69 -93h-84v10l97 159h116z
" />
    <glyph glyph-name="Ydieresis" unicode="&#x178;" horiz-adv-x="560" 
d="M138 791c-12 12.667 -18 29.667 -18 51c0 22.667 5.83301 40.167 17.5 52.5s28.167 18.5 49.5 18.5s38 -6.33301 50 -19s18 -29.667 18 -51c0 -22.667 -6 -40.167 -18 -52.5s-28.667 -18.5 -50 -18.5c-20.667 0 -37 6.33301 -49 19zM321 791
c-12 12.667 -18 29.667 -18 51c0 22.667 5.83301 40.167 17.5 52.5s28.167 18.5 49.5 18.5s38 -6.33301 50 -19s18 -29.667 18 -51c0 -22.667 -6 -40.167 -18 -52.5s-28.667 -18.5 -50 -18.5c-20.667 0 -37 6.33301 -49 19zM547 724l-201 -485v-239h-134v239l-199 485h143
l125 -339l124 339h142z" />
    <glyph glyph-name="Zacute" unicode="&#x179;" horiz-adv-x="515" 
d="M284 781h-106v12l133 133h143v-12zM487 116v-116h-461v117l305 491h-295v116h445v-116l-305 -492h311z" />
    <glyph glyph-name="zacute" unicode="&#x17a;" horiz-adv-x="434" 
d="M411 111v-111h-390v111l239 324h-229v111h374v-111l-239 -324h245zM152 625l86 159h133v-10l-123 -159h-96v10z" />
    <glyph glyph-name="Zdotaccent" unicode="&#x17b;" horiz-adv-x="515" 
d="M200 797.5c-13.333 13.667 -20 32.167 -20 55.5c0 24.667 6.66699 43.667 20 57s32 20 56 20s42.667 -6.83301 56 -20.5s20 -32.167 20 -55.5c0 -24.667 -6.66699 -43.667 -20 -57s-32 -20 -56 -20s-42.667 6.83301 -56 20.5zM487 116v-116h-461v117l305 491h-295v116
h445v-116l-305 -492h311z" />
    <glyph glyph-name="zdotaccent" unicode="&#x17c;" horiz-adv-x="434" 
d="M411 111v-111h-390v111l239 324h-229v111h374v-111l-239 -324h245zM158 638.5c-13.333 13.667 -20 32.167 -20 55.5c0 24.667 6.66699 43.667 20 57s32 20 56 20s42.667 -6.83301 56 -20.5s20 -32.167 20 -55.5c0 -24.667 -6.66699 -43.667 -20 -57s-32 -20 -56 -20
s-42.667 6.83301 -56 20.5z" />
    <glyph glyph-name="Zcaron" unicode="&#x17d;" horiz-adv-x="515" 
d="M195 781l-111 133v12h93l81 -81l80 81h90v-12l-111 -133h-122zM487 116v-116h-461v117l305 491h-295v116h445v-116l-305 -492h311z" />
    <glyph glyph-name="zcaron" unicode="&#x17e;" horiz-adv-x="434" 
d="M411 111v-111h-390v111l239 324h-229v111h374v-111l-239 -324h245zM369 784v-10l-97 -159h-116l-97 159v10h87l69 -93l70 93h84z" />
    <glyph glyph-name="longs" unicode="&#x17f;" horiz-adv-x="283" 
d="M322 781v-113c-18 2.66699 -37 4 -57 4c-45.333 0 -68 -28.333 -68 -85v-41v-546h-131v564v23c0 63.333 17.333 112.333 52 147s83.667 52 147 52c21.333 0 40.333 -1.66699 57 -5z" />
    <glyph glyph-name="uni0180" unicode="&#x180;" horiz-adv-x="545" 
d="M460 469.5c32.667 -48.333 49 -116.166 49 -203.499c0 -88.667 -16.333 -157.167 -49 -205.5s-79 -72.5 -139 -72.5c-31.333 0 -58.833 6.66699 -82.5 20s-42.5 32.666 -56.5 57.999v-66h-116v605h-58v88h58v77h132v-77h183v-88h-183v-126c30 42 71.333 63 124 63
c59.333 0 105.333 -24.167 138 -72.5zM374 261c0 106.667 -31.334 159.999 -94.001 159.999c-29.333 0 -56.666 -14 -81.999 -42v-232c11.333 -13.333 24.5 -23.666 39.5 -30.999s30.5 -11 46.5 -11c60 0 90 52 90 156z" />
    <glyph glyph-name="uni0181" unicode="&#x181;" horiz-adv-x="676" 
d="M644 218c0 -69.333 -19.668 -123 -59.001 -161s-94.666 -57 -165.999 -57h-205h-72v605c-34 0 -51 -21.333 -51 -64c0 -10 1 -26 3 -48h-119c-2 16 -3 31.667 -3 47c0 58.667 14.833 104 44.5 136s71.5 48 125.5 48h133h113c69.333 0 122.833 -18 160.5 -54
s56.5 -87 56.5 -153c0 -68 -31.333 -113 -94 -135c88.667 -26 133 -80.667 133 -164zM274.999 607v-180h113c54 0 81 29 81 87c0 62 -29 93 -87 93h-107zM506.999 215c0 66 -29.333 99 -88 99h-144v-197h151c54 0 81 32.667 81 98z" />
    <glyph glyph-name="uni0182" unicode="&#x182;" horiz-adv-x="588" 
d="M494 416.5c40.667 -39.667 60.999 -98.833 60.999 -177.5c0 -79.333 -19.833 -139 -59.5 -179s-98.167 -60 -175.5 -60h-248v724h134h295v-100h-295v-148h109c78.667 0 138.334 -19.833 179.001 -59.5zM416.999 242.001c0 80 -31.667 120 -95 120h-116v-244h107
c69.333 0 104 41.333 104 124z" />
    <glyph glyph-name="uni0183" unicode="&#x183;" horiz-adv-x="543" 
d="M458.5 484c32.333 -49.333 48.499 -119.332 48.499 -209.999s-16.167 -161 -48.5 -211s-78.166 -75 -137.499 -75c-31.333 0 -58.833 6.66699 -82.5 20s-42.5 32.666 -56.5 57.999v-66h-116v513v257h132h246v-103h-246v-172c30 42 71.333 63 124 63
c58.667 0 104.167 -24.667 136.5 -74zM371.999 269.001c0 112 -30.668 167.999 -92.001 167.999c-29.333 0 -56.666 -14 -81.999 -42v-248c11.333 -13.333 24.5 -23.666 39.5 -30.999s30.5 -11 46.5 -11c58.667 0 88 54.667 88 164z" />
    <glyph glyph-name="uni0184" unicode="&#x184;" horiz-adv-x="568" 
d="M501.5 415.5c41.667 -41.667 62.499 -100.833 62.499 -177.5c0 -75.333 -20.5 -133.833 -61.5 -175.5s-98.833 -62.5 -173.5 -62.5h-248v482l-69 63v53l110 126h93v-199v-47h109c76.667 0 135.834 -20.833 177.501 -62.5zM425.999 242.001c0 78.667 -31.667 118 -95 118
h-116v-242h107c69.333 0 104 41.333 104 124z" />
    <glyph glyph-name="uni0185" unicode="&#x185;" horiz-adv-x="545" 
d="M460.5 484c32.333 -49.333 48.499 -119.332 48.499 -209.999s-16.167 -161 -48.5 -211s-78.166 -75 -137.499 -75c-31.333 0 -58.833 6.66699 -82.5 20s-42.5 32.666 -56.5 57.999v-66h-116v513v18l-62 68v45l103 126h91v-193v-82c30 42 71.333 63 124 63
c58.667 0 104.167 -24.667 136.5 -74zM373.999 269.001c0 112 -30.668 167.999 -92.001 167.999c-29.333 0 -56.666 -14 -81.999 -42v-248c11.333 -13.333 24.5 -23.666 39.5 -30.999s30.5 -11 46.5 -11c58.667 0 88 54.667 88 164z" />
    <glyph glyph-name="uni0186" unicode="&#x186;" horiz-adv-x="563" 
d="M447 641.5c55.333 -62.333 83.001 -150.501 83.001 -264.501c0 -80 -12.5 -149.167 -37.5 -207.5s-61 -103.166 -108 -134.499s-102.833 -47 -167.5 -47c-35.333 0 -69.666 5 -102.999 15s-62.333 24.333 -87 43l43 100c54 -26 103.333 -39 148 -39
c55.333 0 98.166 22.667 128.499 68s45.5 109.333 45.5 192c0 164.667 -62 247 -186 247c-49.333 0 -96.333 -11.667 -141 -35l-44 99c20 18 46.667 32 80 42s70.333 15 111 15c101.333 0 179.666 -31.167 234.999 -93.5z" />
    <glyph glyph-name="uni0187" unicode="&#x187;" horiz-adv-x="651" 
d="M657 854l-0.00195312 -107.999c-22 2 -38 3 -48 3c-48.667 0 -73 -20.667 -73 -62v-20v-89h-43c-54 26 -103.333 39 -148 39c-55.333 0 -98.166 -22.667 -128.499 -68s-45.5 -109.333 -45.5 -192c0 -164.667 62 -247 186 -247c49.333 0 96.333 11.667 141 35l44 -99
c-20 -18 -46.667 -32 -80 -42s-70.333 -15 -111 -15c-101.333 0 -179.666 31.167 -234.999 93.5s-83 150.5 -83 264.5c0 80 12.5 149.167 37.5 207.5s61 103.166 108 134.499s102.833 47 167.5 47c30.667 0 58.334 -3.33301 83.001 -10c7.33301 42 26.666 74.333 57.999 97
s72.333 34 123 34c15.333 0 31 -1 47 -3z" />
    <glyph glyph-name="uni0188" unicode="&#x188;" horiz-adv-x="544" 
d="M548 680l-0.00195312 -106c-22 2 -38 3 -48 3c-24.667 0 -43 -5.33301 -55 -16s-18 -26.667 -18 -48v-20v-83h-48c-43.333 20 -78.666 30 -105.999 30c-33.333 0 -59.333 -14.833 -78 -44.5s-28 -71.5 -28 -125.5c0 -108 39.333 -162 118 -162
c34.667 0 69.334 10 104.001 30l44 -100c-39.333 -32.667 -90.666 -49 -153.999 -49c-78.667 0 -139.5 23.667 -182.5 71s-64.5 114.333 -64.5 201c0 59.333 10.167 111.333 30.5 156s48.833 79.334 85.5 104.001s79 37 127 37c17.333 0 32.666 -1.33301 45.999 -4
c7.33301 41.333 26.5 73.166 57.5 95.499s71.833 33.5 122.5 33.5c15.333 0 31 -1 47 -3z" />
    <glyph glyph-name="uni0189" unicode="&#x189;" horiz-adv-x="649" 
d="M527 633c52.667 -60.667 79 -150.667 79 -270c0 -120 -26.333 -210.5 -79 -271.5s-129 -91.5 -229 -91.5h-226v316h-60v100h60v308h226c100 0 176.333 -30.333 229 -91zM468 362c0 162.667 -57.333 244 -172 244h-90v-190h143v-100h-143v-198h89
c115.333 0 173 81.333 173 244z" />
    <glyph glyph-name="uni018A" unicode="&#x18a;" horiz-adv-x="719" 
d="M597 633c52.667 -60.667 79 -150.667 79 -270c0 -120 -26.333 -210.5 -79 -271.5s-129 -91.5 -229 -91.5h-226v605c-34 0 -51 -21.333 -51 -64c0 -10 1 -26 3 -48h-119c-2 16 -3 31.667 -3 47c0 58.667 14.833 104 44.5 136s71.5 48 125.5 48h226
c100 0 176.333 -30.333 229 -91zM538 362c0 162.667 -57.333 244 -172 244h-90v-488h89c115.333 0 173 81.333 173 244z" />
    <glyph glyph-name="uni018B" unicode="&#x18b;" horiz-adv-x="588" 
d="M516 0l-248.001 -0.000976562c-77.333 0 -135.833 20 -175.5 60s-59.5 99.667 -59.5 179c0 78.667 20.333 137.834 61 177.501s100.334 59.5 179.001 59.5h109v148h-295v100h429v-724zM381.999 361.999h-116c-63.333 0 -95 -40 -95 -120c0 -82.667 34.667 -124 104 -124
h107v244z" />
    <glyph glyph-name="uni018C" unicode="&#x18c;" horiz-adv-x="543" 
d="M477 33l0.000976562 -33.001h-116v77c-31.333 -59.333 -78 -89 -140 -89c-58.667 0 -104.167 24.667 -136.5 74s-48.5 119.333 -48.5 210s16.167 161 48.5 211s78.166 75 137.499 75c25.333 0 48.5 -4.66699 69.5 -14s38.833 -22.666 53.5 -39.999v163h-246v103h378v-737
zM345.001 150.999l0.000976562 248.001c-11.333 13.333 -24.5 23.666 -39.5 30.999s-30.5 11 -46.5 11c-58.667 0 -88 -54.667 -88 -164c0 -112 30.667 -168 92 -168c29.333 0 56.666 14 81.999 42z" />
    <glyph glyph-name="uni018D" unicode="&#x18d;" horiz-adv-x="526" 
d="M143 -209c-22.667 8 -45.0039 19.001 -67.0039 33.001l44 97c24.667 -12 44.334 -20.5 59.001 -25.5s33.334 -7.5 56.001 -7.5c22 0 38.667 4.66699 50 14s17 21.666 17 36.999c0 12.667 -4.33301 23.667 -13 33s-25 22 -49 38l-32 23
c-43.333 31.333 -75.666 56.833 -96.999 76.5s-39.166 45.834 -53.499 78.501s-21.5 74.334 -21.5 125.001c0 36.667 7.5 73.667 22.5 111s39.833 68.833 74.5 94.5s79 38.5 133 38.5c50 0 91.833 -11.333 125.5 -34s58.5 -52.5 74.5 -89.5s24 -76.5 24 -118.5
c0 -52.667 -10.833 -101.334 -32.5 -146.001s-59.5 -78.667 -113.5 -102c52.667 -36.667 79 -79.334 79 -128.001c0 -52.667 -17.5 -92.5 -52.5 -119.5s-81.5 -40.5 -139.5 -40.5c-36 0 -65.333 4 -88 12zM329.496 192.501c17.667 29.667 26.5 70.5 26.5 122.5
c0 40 -7.5 72.833 -22.5 98.5s-39.5 38.5 -73.5 38.5c-28 0 -49.833 -12.5 -65.5 -37.5s-23.5 -58.167 -23.5 -99.5c0 -48.667 7.5 -86 22.5 -112s38.833 -49.333 71.5 -70c25.333 10 46.833 29.833 64.5 59.5z" />
    <glyph glyph-name="uni018E" unicode="&#x18e;" horiz-adv-x="540" 
d="M468 724v-724h-444v118h310v193h-216v119h216v176h-295v118h429z" />
    <glyph glyph-name="uni018F" unicode="&#x18f;" horiz-adv-x="645" 
d="M520.5 637c54.333 -65.333 81.5 -157.334 81.5 -276.001c0 -118 -25 -209.5 -75 -274.5s-120.333 -97.5 -211 -97.5c-91.333 0 -162.166 30.5 -212.499 91.5s-75.5 147.167 -75.5 258.5c0 32 2.33301 57.333 7 76h430c-6.66699 62.667 -25.167 110.834 -55.5 144.501
s-70.5 50.5 -120.5 50.5c-25.333 0 -53.5 -3.83301 -84.5 -11.5s-62.5 -18.167 -94.5 -31.5l-48 104c31.333 20.667 66.833 36.5 106.5 47.5s80.167 16.5 121.5 16.5c99.333 0 176.166 -32.667 230.499 -98zM465 296.999h-299.999c4 -60 19.167 -106.167 45.5 -138.5
s62.166 -48.5 107.499 -48.5c86 0 135 62.333 147 187z" />
    <glyph glyph-name="uni0190" unicode="&#x190;" horiz-adv-x="535" 
d="M531 46c-30.667 -19.333 -66.5 -33.834 -107.5 -43.501s-83.5 -14.5 -127.5 -14.5c-81.333 0 -147.166 19 -197.499 57s-75.5 94.333 -75.5 169c0 86.667 43.333 143.667 130 171c-68.667 30.667 -103 83 -103 157c0 64 22 112.333 66 145s103.667 49 179 49
c38.667 0 75 -4.33301 109 -13s67.667 -22 101 -40l-43 -101c-51.333 26.667 -103.333 40 -156 40c-38.667 0 -68.167 -8.33301 -88.5 -25s-30.5 -41.667 -30.5 -75c0 -28 9 -50.667 27 -68s45 -26 81 -26h113v-109h-121c-40 0 -71 -7.5 -93 -22.5s-33 -40.5 -33 -76.5
c0 -37.333 12.5 -65.666 37.5 -84.999s61.5 -29 109.5 -29c28.667 0 58.667 4 90 12s59.666 18.667 84.999 32z" />
    <glyph glyph-name="uni0191" unicode="&#x191;" horiz-adv-x="502" 
d="M206 606l0.000976562 -197h234v-119h-234v-290v-58c0 -106 -52.333 -159 -157 -159c-28.667 0 -54.334 5 -77.001 15l19 110c16.667 -4.66699 32 -7 46 -7c12.667 0 21.667 3.33301 27 10s8 19 8 37v218v558h422v-118h-288z" />
    <glyph glyph-name="florin" unicode="&#x192;" horiz-adv-x="535" 
d="M327 510l-8.99902 -96h143v-112h-154l-32 -320c-6 -61.333 -26.833 -108.833 -62.5 -142.5s-82.834 -50.5 -141.501 -50.5c-24 0 -48 3.66699 -72 11l19 129c14.667 -4.66699 32.667 -7 54 -7c42 0 66 27.667 72 83l29 297h-95v112h106l12 119
c6.66699 64.667 28.167 114.667 64.5 150s84.166 53 143.499 53c27.333 0 53 -3.83301 77 -11.5s43.667 -18.167 59 -31.5l-65 -110c-23.333 13.333 -45.666 20 -66.999 20c-48 0 -75 -31 -81 -93z" />
    <glyph glyph-name="uni0193" unicode="&#x193;" horiz-adv-x="711" 
d="M686 854l-0.000976562 -108c-22 2 -38 3 -48 3c-48.667 0 -73 -20.667 -73 -62v-20v-93h-36c-60.667 29.333 -116 44 -166 44c-121.333 0 -182 -85.333 -182 -256s61.333 -256 184 -256c24.667 0 49.334 3.33301 74.001 10v180h-110v117h244v-367
c-25.333 -18.667 -56.166 -33 -92.499 -43s-74.833 -15 -115.5 -15c-102.667 0 -182 32.5 -238 97.5s-84 157.167 -84 276.5s28 211.5 84 276.5s135.333 97.5 238 97.5c30 0 61 -3.33301 93 -10c7.33301 42 26.666 74.333 57.999 97s72.333 34 123 34c15.333 0 31 -1 47 -3z
" />
    <glyph glyph-name="uni0194" unicode="&#x194;" horiz-adv-x="604" 
d="M411 57c9.33301 -26.667 16 -48 20 -64s6 -31 6 -45c0 -40.667 -11.667 -72 -35 -94s-56.333 -33 -99 -33s-75.5 11 -98.5 33s-34.5 53.333 -34.5 94c0 14 2 29 6 45s10.667 37.333 20 64l49 133l-224 534h141l141 -378l140 378h140l-223 -530zM328 -40
c0 24 -6 49.668 -18 77.001l-8 19l-8 -19c-12 -28.667 -18 -54.334 -18 -77.001c0 -31.333 9 -47 27 -47c16.667 0 25 15.667 25 47z" />
    <glyph glyph-name="uni0195" unicode="&#x195;" horiz-adv-x="855" 
d="M781 419c5.33301 -46.667 8 -92.667 8 -138c0 -103.333 -18.667 -178 -56 -224s-91.666 -69 -162.999 -69c-140.667 0 -211 68 -211 204v154v23c0 45.333 -24.333 68 -73 68c-32.667 0 -62 -11.667 -88 -35v-402h-132v770h132v-273c38 40.667 84.333 61 139 61
c48.667 0 86.5 -14.833 113.5 -44.5s40.5 -71.167 40.5 -124.5v-189v-2c0 -24 5.66699 -44.833 17 -62.5s32.333 -26.5 63 -26.5s52.167 12.833 64.5 38.5s18.5 67.167 18.5 124.5c0 60 -2.83301 110.5 -8.5 151.5s-13.834 81.833 -24.501 122.5h137
c10 -38 17.667 -80.333 23 -127z" />
    <glyph glyph-name="uni0196" unicode="&#x196;" horiz-adv-x="292" 
d="M72 130l-0.000976562 594h134v-563c0 -17.333 2.66699 -29.833 8 -37.5s14 -11.5 26 -11.5c10.667 0 21.334 1 32.001 3l8 -113c-25.333 -6 -51 -9 -77 -9c-87.333 0 -131 45.667 -131 137z" />
    <glyph glyph-name="uni0197" unicode="&#x197;" horiz-adv-x="318" 
d="M314 323h-88v-323h-134v323h-88v100h88v301h134v-301h88v-100z" />
    <glyph glyph-name="uni0198" unicode="&#x198;" horiz-adv-x="594" 
d="M356 412l256.001 -412h-159l-180 300l-67 -91v-209h-134v724h134v-337l160 244c26 40 51.5 68.167 76.5 84.5s55.167 24.5 90.5 24.5c26.667 0 48.667 -4.5 66 -13.5s33.666 -24.5 48.999 -46.5l-69 -85c-16.667 16 -32.334 24 -47.001 24
c-9.33301 0 -18.166 -3.5 -26.499 -10.5s-19.833 -20.5 -34.5 -40.5z" />
    <glyph glyph-name="uni0199" unicode="&#x199;" horiz-adv-x="531" 
d="M246 216l-48.001 -61.001v-155h-132v546v92c0 98.667 48.667 148 146 148c30 0 56 -5 78 -15l-18 -102c-15.333 3.33301 -29.666 5 -42.999 5c-10.667 0 -18.5 -2.66699 -23.5 -8s-7.5 -16.666 -7.5 -33.999v-253v-55l162 222h151l-183 -228l197 -318h-151z" />
    <glyph glyph-name="uni019A" unicode="&#x19a;" horiz-adv-x="344" 
d="M228 359v-194c0 -19.333 3.5 -33.333 10.5 -42s18.167 -13 33.5 -13c10.667 0 21.334 1 32.001 3l8 -110c-24.667 -6 -50.334 -9 -77.001 -9c-92.667 0 -139 46.667 -139 140v225h-77v90h77v321h132v-321h85v-90h-85z" />
    <glyph glyph-name="uni019B" unicode="&#x19b;" horiz-adv-x="497" 
d="M350 0l-98.999 408.001l-103 -408h-133l167 551l-8 11l-123 -61h-10v70l77 38c-25.333 16 -59 31.333 -101 46l44 110c74 -24.667 132.333 -57.334 175 -98.001l111 55h10v-70l-76 -37c19.333 -28.667 34.666 -62 45.999 -100l155 -515h-132z" />
    <glyph glyph-name="uni019C" unicode="&#x19c;" horiz-adv-x="842" 
d="M770 724l0.000976562 -724h-121v64c-40.667 -50.667 -89.334 -76 -146.001 -76c-32.667 0 -60.667 6.83301 -84 20.5s-40.666 34.167 -51.999 61.5c-42.667 -54.667 -92 -82 -148 -82c-46.667 0 -82.834 14.167 -108.501 42.5s-38.5 70.5 -38.5 126.5v567h134v-547
c0 -24 5 -41.333 15 -52s26 -16 48 -16c27.333 0 55 11.667 83 35v13v567h134v-547c0 -24 5.33301 -41.333 16 -52s27.667 -16 51 -16c14.667 0 28.5 2.66699 41.5 8s26.833 14 41.5 26v581h134z" />
    <glyph glyph-name="uni019D" unicode="&#x19d;" horiz-adv-x="680" 
d="M608 724l0.000976562 -724h-129l-276 487v-487v-58c0 -106 -51.667 -159 -155 -159c-30.667 0 -57 5 -79 15l19 110c16.667 -4.66699 32.667 -7 48 -7c13.333 0 22.666 3.33301 27.999 10s8 19 8 37v218v558h129l276 -485v485h131z" />
    <glyph glyph-name="uni019E" unicode="&#x19e;" horiz-adv-x="550" 
d="M449 513.5c26.667 -29.667 39.999 -71.167 39.999 -124.5v-389v-207h-132v272v304c0 45.333 -24 68 -72 68c-32 0 -61 -11.667 -87 -35v-402h-132v546h116v-68c40.667 53.333 92 80 154 80c48.667 0 86.334 -14.833 113.001 -44.5z" />
    <glyph glyph-name="uni019F" unicode="&#x19f;" horiz-adv-x="668" 
d="M550.5 642c49.667 -62.667 74.5 -156 74.5 -280s-24.833 -217.333 -74.5 -280s-121.834 -94 -216.501 -94s-166.834 31.333 -216.501 94s-74.5 156 -74.5 280s24.833 217.333 74.5 280s121.834 94 216.501 94s166.834 -31.333 216.501 -94zM228.5 569
c-25.667 -32.667 -41.165 -81.334 -46.498 -146.001h304c-5.33301 64.667 -20.833 113.334 -46.5 146.001s-60.834 49 -105.501 49s-79.834 -16.333 -105.501 -49zM487.002 308h-306c10 -134.667 61 -202 153 -202s143 67.333 153 202z" />
    <glyph glyph-name="Ohorn" unicode="&#x1a0;" horiz-adv-x="668" 
d="M641 692c-18.667 -24.667 -49.998 -40.334 -93.998 -47.001c52 -63.333 78 -157.666 78 -282.999c0 -124 -24.833 -217.333 -74.5 -280s-121.834 -94 -216.501 -94s-166.834 31.333 -216.501 94s-74.5 156 -74.5 280s24.833 217.333 74.5 280s121.834 94 216.501 94
c22 0 39.5 -1.16699 52.5 -3.5s26.833 -5.5 41.5 -9.5c19.333 -6 37.666 -9 54.999 -9c28 0 47.167 6.16699 57.5 18.5s15.5 35.5 15.5 69.5c0 12 -1 32.333 -3 61h113c2 -36 3 -55.667 3 -59c0 -50 -9.33301 -87.333 -28 -112zM487.002 362c0 170.667 -51 256 -153 256
s-153 -85.333 -153 -256s51 -256 153 -256s153 85.333 153 256z" />
    <glyph glyph-name="ohorn" unicode="&#x1a1;" horiz-adv-x="536" 
d="M531.5 524.5c-19.667 -22.333 -52.501 -35.834 -98.501 -40.501c38 -48 57 -118.333 57 -211c0 -94 -19.667 -165 -59 -213s-95.666 -72 -168.999 -72c-72.667 0 -128.5 24 -167.5 72s-58.5 119 -58.5 213s19.5 165 58.5 213s95.167 72 168.5 72c20 0 40.667 -2 62 -6
c20 -4 38 -6 54 -6c28 0 47.167 5.5 57.5 16.5s15.5 31.5 15.5 61.5c0 16.667 -1.66699 37 -5 61h109c3.33301 -20 5 -39.667 5 -59c0 -45.333 -9.83301 -79.166 -29.5 -101.499zM354.999 272.999c0 112.667 -30.667 169 -92 169s-92 -56.333 -92 -169s30.333 -169 91 -169
c62 0 93 56.333 93 169z" />
    <glyph glyph-name="uni01A2" unicode="&#x1a2;" horiz-adv-x="858" 
d="M786 724l-0.000976562 -931.999h-134v814h-73v-562c-34 -17.333 -72.167 -30.666 -114.5 -39.999s-85.166 -14 -128.499 -14c-95.333 0 -168 31.167 -218 93.5s-75 155.166 -75 278.499s25 216.166 75 278.499s122.667 93.5 218 93.5c13.333 0 31 -1 53 -3
c64 -4.66699 127.333 -7 190 -7h207zM444.999 611.001c-36.667 3.33301 -72.999 5 -108.999 5c-52.667 0 -91.667 -21.167 -117 -63.5s-38 -105.833 -38 -190.5s12.667 -148.167 38 -190.5s64.333 -63.5 117 -63.5c37.333 0 73.666 3.66699 108.999 11v492z" />
    <glyph glyph-name="uni01A3" unicode="&#x1a3;" horiz-adv-x="719" 
d="M653 546v-752h-132v636h-60v-409c-29.333 -9.33301 -61.166 -16.833 -95.499 -22.5s-67.833 -8.5 -100.5 -8.5c-73.333 0 -129.833 23.667 -169.5 71s-59.5 118 -59.5 212s19.833 164.667 59.5 212s96.5 71 170.5 71c10 0 19.667 -0.333008 29 -1l27 -2
c51.333 -4.66699 97.666 -7 138.999 -7h192zM329 111l0.000976562 326l-29 2l-34 1c-63.333 2 -95 -53.667 -95 -167c0 -111.333 31.333 -167 94 -167c19.333 0 40.666 1.66699 63.999 5z" />
    <glyph glyph-name="uni01A4" unicode="&#x1a4;" horiz-adv-x="629" 
d="M564.5 659c40.333 -43.333 60.5 -103.667 60.5 -181c0 -78 -20.667 -138.833 -62 -182.5s-99 -65.5 -173 -65.5h-114v-230h-134v605c-34 0 -51 -21.333 -51 -64c0 -10 1 -26 3 -48h-119c-2 16 -3 31.667 -3 47c0 58.667 14.833 104 44.5 136s71.5 48 125.5 48h134h120
c72 0 128.167 -21.667 168.5 -65zM464 379.999c15.333 21.333 23 52.668 23 94.001c0 43.333 -8.16699 76.166 -24.5 98.499s-40.5 33.5 -72.5 33.5h-114v-258h120c30 0 52.667 10.667 68 32z" />
    <glyph glyph-name="uni01A5" unicode="&#x1a5;" horiz-adv-x="543" 
d="M458.5 484c32.333 -49.333 48.498 -119.331 48.498 -209.998s-16.167 -161 -48.5 -211s-78.166 -75 -137.499 -75c-25.333 0 -48.5 4.66699 -69.5 14s-38.833 22.666 -53.5 39.999v-249h-132v610v143v92c0 98.667 48.667 148 146 148c30 0 56 -5 78 -15l-18 -102
c-23.333 3.33301 -37.666 5 -42.999 5c-10 0 -17.667 -2.83301 -23 -8.5s-8 -16.834 -8 -33.501v-137c30 42 71.333 63 124 63c58.667 0 104.167 -24.667 136.5 -74zM371.998 269.002c0 112 -30.668 167.999 -92.001 167.999c-29.333 0 -56.666 -14 -81.999 -42v-248
c11.333 -13.333 24.5 -23.666 39.5 -30.999s30.5 -11 46.5 -11c58.667 0 88 54.667 88 164z" />
    <glyph glyph-name="uni01A6" unicode="&#x1a6;" horiz-adv-x="577" 
d="M299 208l-93 0.000976562v-208h-134v724h134v-82h111c70.667 0 125.5 -18.833 164.5 -56.5s58.5 -90.834 58.5 -159.501c0 -46 -9.16699 -85.333 -27.5 -118s-44.833 -57.667 -79.5 -75l217 -343h-166zM206 321.001h111c56.667 0 85 33.667 85 101
c0 69.333 -29.667 104 -89 104h-107v-205z" />
    <glyph glyph-name="uni01A7" unicode="&#x1a7;" horiz-adv-x="526" 
d="M97 49c-42 40 -63 96.333 -63 169c0 54 12.833 96.833 38.5 128.5s66.834 55.5 123.501 71.5l82 23c30.667 8.66699 52.834 20.5 66.501 35.5s20.5 35.167 20.5 60.5c0 56 -33 84 -99 84c-46 0 -104 -13 -174 -39l-41 103c33.333 16 68.5 28.333 105.5 37
s72.833 13 107.5 13c72.667 0 129 -19.333 169 -58s60 -93.334 60 -164.001c0 -54 -12.833 -96.667 -38.5 -128s-66.834 -55 -123.501 -71l-82 -23c-30.667 -8.66699 -52.834 -20.5 -66.501 -35.5s-20.5 -35.167 -20.5 -60.5c0 -61.333 38 -92 114 -92
c60 0 121.667 18.333 185 55l41 -103c-30 -21.333 -64.667 -37.666 -104 -48.999s-80 -17 -122 -17c-77.333 0 -137 20 -179 60z" />
    <glyph glyph-name="uni01A8" unicode="&#x1a8;" horiz-adv-x="441" 
d="M79.5 36.5c-35.667 31.667 -53.501 76.5029 -53.501 134.503c0 42.667 10.667 76.167 32 100.5s55.333 42.166 102 53.499l71 17c20.667 5.33301 35.667 12.166 45 20.499s14 19.166 14 32.499c0 32 -23.333 48 -70 48c-40 0 -84.333 -12 -133 -36l-48 103
c24 14.667 51.5 26.167 82.5 34.5s63.167 12.5 96.5 12.5c62.667 0 111.334 -15.333 146.001 -46s52 -73.667 52 -129c0 -42.667 -10.667 -76 -32 -100s-55.333 -41.667 -102 -53l-71 -17c-20.667 -5.33301 -35.667 -12.5 -45 -21.5s-14 -21.167 -14 -36.5
c0 -38 26.333 -57 79 -57c45.333 0 95.333 15.333 150 46l43 -99c-25.333 -17.333 -54.833 -30.833 -88.5 -40.5s-68.5 -14.5 -104.5 -14.5c-65.333 0 -115.833 15.833 -151.5 47.5z" />
    <glyph glyph-name="uni01A9" unicode="&#x1a9;" horiz-adv-x="555" 
d="M38 116l194 251l-194 241v116h489v-116h-323l197 -241l-197 -251h323v-116h-489v116z" />
    <glyph glyph-name="uni01AA" unicode="&#x1aa;" horiz-adv-x="337" 
d="M396 -110v-113c-16.667 -3.33301 -35.667 -5 -57 -5c-63.333 0 -112.333 17.333 -147 52s-52 83.667 -52 147v124v423c-13.333 -13.333 -35 -20 -65 -20c-39.333 0 -69.833 11.667 -91.5 35s-32.5 56.666 -32.5 99.999c0 48.667 14 86.334 42 113.001s67.333 40 118 40
c51.333 0 90.833 -13 118.5 -39s41.5 -62.667 41.5 -110v-637v-29c0 -56.667 22.667 -85 68 -85c20 0 39 1.33301 57 4zM139 602.5c8 9.66699 12 23.167 12 40.5c0 32 -14 48 -42 48c-28.667 0 -43 -17.333 -43 -52c0 -34 13 -51 39 -51c14.667 0 26 4.83301 34 14.5z" />
    <glyph glyph-name="uni01AB" unicode="&#x1ab;" horiz-adv-x="369" 
d="M359 7v-75.001c0 -50 -11.833 -87.167 -35.5 -111.5s-59.167 -36.5 -106.5 -36.5c-32.667 0 -60 5 -82 15l18 103c16.667 -3.33301 32.667 -5 48 -5c12 0 20.833 2.83301 26.5 8.5s8.5 16.834 8.5 33.501v55c-52 3.33301 -90.667 18.333 -116 45s-38 66.667 -38 120v275
h-77v112h78v148h131v-148h139v-112h-139v-250c0 -28 5.33301 -47.5 16 -58.5s29 -16.5 55 -16.5c18 0 36.667 2.66699 56 8z" />
    <glyph glyph-name="uni01AC" unicode="&#x1ac;" horiz-adv-x="490" 
d="M479 605h-168v-605h-134v605h-24h-8c-34 0 -51 -21.333 -51 -64c0 -10 1 -26 3 -48h-119c-2 16 -3 31.667 -3 47c0 58.667 14.833 104 44.5 136s71.5 48 125.5 48h166h168v-119z" />
    <glyph glyph-name="uni01AD" unicode="&#x1ad;" horiz-adv-x="369" 
d="M359 7c-31.333 -9.33301 -63 -14 -95 -14c-61.333 0 -107 13.167 -137 39.5s-45 68.5 -45 126.5v275h-77v112h77v41c0 63.333 18.333 112.333 55 147s88.667 52 156 52c22 0 41.333 -1.66699 58 -5v-113c-18.667 2.66699 -38 4 -58 4c-52.667 0 -79 -28.333 -79 -85v-41
h139v-112h-139v-250c0 -28 5.33301 -47.5 16 -58.5s29 -16.5 55 -16.5c18 0 36.667 2.66699 56 8z" />
    <glyph glyph-name="uni01AE" unicode="&#x1ae;" horiz-adv-x="492" 
d="M321 -89c5.33301 -6.66699 14.334 -10 27.001 -10c14 0 29.333 2.33301 46 7l19 -110c-22.667 -10 -48.334 -15 -77.001 -15c-104.667 0 -157 53 -157 159v224v439h-168v119h302h168v-119h-168v-657c0 -18 2.66699 -30.333 8 -37z" />
    <glyph glyph-name="Uhorn" unicode="&#x1af;" horiz-adv-x="646" 
d="M663.5 705c-17.667 -23.333 -45.832 -39 -84.499 -47v-418c0 -80 -22.5 -142 -67.5 -186s-108.167 -66 -189.5 -66c-80.667 0 -143.334 22 -188.001 66s-67 106 -67 186v484h134v-474c0 -96 40.333 -144 121 -144c82 0 123 48 123 144v474h59c28 0 47.167 5.5 57.5 16.5
s15.5 31.5 15.5 61.5c0 16.667 -1.66699 37 -5 61h113c3.33301 -20 5 -39.667 5 -59c0 -42.667 -8.83301 -75.667 -26.5 -99z" />
    <glyph glyph-name="uhorn" unicode="&#x1b0;" horiz-adv-x="542" 
d="M562 524.5c-17.333 -23 -46.001 -37.833 -86.001 -44.5v-480h-116v75c-36.667 -58 -87 -87 -151 -87c-47.333 0 -84.166 14.667 -110.499 44s-39.5 70.666 -39.5 123.999v390h132v-369c0 -45.333 23 -68 69 -68c16.667 0 31.667 3.33301 45 10s26.333 17.334 39 32.001
v395h65c26.667 0 45 5.5 55 16.5s15 31.5 15 61.5c0 16.667 -1.66699 37 -5 61h109c3.33301 -20 5 -39.667 5 -59c0 -44.667 -8.66699 -78.5 -26 -101.5z" />
    <glyph glyph-name="uni01B1" unicode="&#x1b1;" horiz-adv-x="686" 
d="M127 76c-48.667 58.667 -73 137.334 -73 236.001c0 69.333 9.66699 127.5 29 174.5s46 89.833 80 128.5h-120v109h262v-123c-32.667 -30 -59.667 -67.833 -81 -113.5s-32 -99.5 -32 -161.5c0 -67.333 11.167 -120.833 33.5 -160.5s61.5 -59.5 117.5 -59.5
s95.167 19.833 117.5 59.5s33.5 93.167 33.5 160.5c0 62 -10.667 115.833 -32 161.5s-48.333 83.5 -81 113.5v123h262v-109h-120c34 -38.667 60.667 -81.5 80 -128.5s29 -105.167 29 -174.5c0 -98.667 -24.333 -177.334 -73 -236.001s-120.667 -88 -216 -88
s-167.333 29.333 -216 88z" />
    <glyph glyph-name="uni01B2" unicode="&#x1b2;" horiz-adv-x="646" 
d="M579 577v-224v-113c0 -80 -22.5 -142 -67.5 -186s-108.167 -66 -189.5 -66c-80.667 0 -143.334 22 -188.001 66s-67 106 -67 186v484h134v-474c0 -96 40.333 -144 121 -144c82 0 123 48 123 144v274v47c0 18 -2.66699 30.333 -8 37s-14.333 10 -27 10
c-14 0 -29.333 -2.33301 -46 -7l-19 110c22.667 10 48.334 15 77.001 15c104.667 0 157 -53 157 -159z" />
    <glyph glyph-name="uni01B3" unicode="&#x1b3;" horiz-adv-x="622" 
d="M659 581l-106.998 -19.001c-2.66699 20 -6.33398 34.5 -11.001 43.5s-11 13.5 -19 13.5c-6.66699 0 -12.667 -3.16699 -18 -9.5s-11.333 -17.166 -18 -32.499l-140 -338v-239h-134v239l-199 485h143l125 -339l81 221c17.333 47.333 38.666 81.833 63.999 103.5
s57.333 32.5 96 32.5c85.333 0 131 -53.667 137 -161z" />
    <glyph glyph-name="uni01B4" unicode="&#x1b4;" horiz-adv-x="598" 
d="M633 508l-105.001 -19.001c-4 36.667 -13.667 55 -29 55c-6.66699 0 -12.667 -4.33301 -18 -13s-11.333 -24.667 -18 -48l-136 -452c-18.667 -62.667 -49.167 -113.667 -91.5 -153s-100.5 -71.666 -174.5 -96.999l-44 110c44 16 78.833 32 104.5 48
s45.834 34.667 60.501 56l-167 551h133l103 -408l92 379c24 98 76 147 156 147c83.333 0 128 -52 134 -156z" />
    <glyph glyph-name="uni01B5" unicode="&#x1b5;" horiz-adv-x="515" 
d="M487 116v-116h-461v117l132 213h-92v98h153l112 180h-295v116h445v-116l-112 -180h78v-98h-138l-133 -214h311z" />
    <glyph glyph-name="uni01B6" unicode="&#x1b6;" horiz-adv-x="434" 
d="M411 111v-111h-390v111l91 123h-70v88h134l84 113h-229v111h374v-111l-83 -113h71v-88h-136l-91 -123h245z" />
    <glyph glyph-name="uni01B7" unicode="&#x1b7;" horiz-adv-x="553" 
d="M523 228c0 -53.333 -12.668 -98.001 -38.001 -134.001s-59.666 -62.667 -102.999 -80s-92 -26 -146 -26c-87.333 0 -164 18.667 -230 56l47 105c31.333 -14.667 60.833 -25.5 88.5 -32.5s57.5 -10.5 89.5 -10.5c47.333 0 84.833 11.167 112.5 33.5s41.5 52.5 41.5 90.5
c0 42.667 -16.667 72.167 -50 88.5s-82 24.5 -146 24.5h-40v95l163 170h-267v116h427v-117l-169 -171c146.667 -15.333 220 -84.666 220 -207.999z" />
    <glyph glyph-name="uni01B8" unicode="&#x1b8;" horiz-adv-x="553" 
d="M547 44c-66 -37.333 -142.668 -55.999 -230.001 -55.999c-54 0 -102.667 8.66699 -146 26s-77.666 44 -102.999 80s-38 80.667 -38 134c0 123.333 73.333 192.666 220 207.999l-169 171v117h427v-116h-267l163 -170v-95h-40c-64 0 -112.667 -8.16699 -146 -24.5
s-50 -45.833 -50 -88.5c0 -38 13.833 -68.167 41.5 -90.5s65.167 -33.5 112.5 -33.5c32 0 61.833 3.5 89.5 10.5s57.167 17.833 88.5 32.5z" />
    <glyph glyph-name="uni01B9" unicode="&#x1b9;" horiz-adv-x="469" 
d="M469 -177c-50.667 -28 -113.667 -42 -189 -42c-47.333 0 -90.833 8.83301 -130.5 26.5s-71.5 44.167 -95.5 79.5s-36 78.333 -36 129c0 68.667 18.667 119.167 56 151.5s89.333 52.5 156 60.5l-174 207v111h386v-111h-245l170 -203v-91h-46
c-52 0 -93 -8.83301 -123 -26.5s-45 -49.5 -45 -95.5c0 -42 12.167 -73.667 36.5 -95s57.833 -32 100.5 -32c44 0 88 11.333 132 34z" />
    <glyph glyph-name="uni01BA" unicode="&#x1ba;" horiz-adv-x="431" 
d="M335 -63l41.9971 -104.002c-33.333 -16 -68.166 -28.333 -104.499 -37s-71.166 -13 -104.499 -13c-60.667 0 -107.167 14.5 -139.5 43.5s-48.5 70.833 -48.5 125.5c0 38.667 8 68.334 24 89.001s36.5 34.667 61.5 42s56.5 12 94.5 14c32 1.33301 59.667 6.83301 83 16.5
s35 28.5 35 56.5c0 22.667 -11.167 39.334 -33.5 50.001s-59.5 16 -111.5 16h-35v90l120 110h-219v110h375v-111l-134 -109c58 -6 101.333 -22.167 130 -48.5s43 -63.5 43 -111.5c0 -50.667 -14.333 -89 -43 -115s-60.167 -42.667 -94.5 -50s-71.833 -11.666 -112.5 -12.999
c-19.333 -0.666992 -33.833 -3.83398 -43.5 -9.50098s-14.5 -17.167 -14.5 -34.5c0 -36 22 -54 66 -54c44.667 0 99.334 15.667 164.001 47z" />
    <glyph glyph-name="uni01BB" unicode="&#x1bb;" horiz-adv-x="499" 
d="M334 301l-157 -187h281v-114h-436v114l152 187h-133v98h213c25.333 30.667 42.666 55.167 51.999 73.5s14 36.5 14 54.5c0 26 -8.66699 47.333 -26 64s-39.666 25 -66.999 25c-24 0 -50 -4.83301 -78 -14.5s-53.667 -22.5 -77 -38.5l-58 98
c28.667 22.667 63.5 40.834 104.5 54.501s81.167 20.5 120.5 20.5c65.333 0 117.5 -18.167 156.5 -54.5s58.5 -84.833 58.5 -145.5c0 -22.667 -3.5 -44.834 -10.5 -66.501s-18.5 -45.167 -34.5 -70.5h49v-98h-124z" />
    <glyph glyph-name="uni01BC" unicode="&#x1bc;" horiz-adv-x="516" 
d="M419 398.5c42 -39.667 63.001 -93.5 63.001 -161.5c0 -49.333 -10.333 -92.833 -31 -130.5s-49.834 -66.834 -87.501 -87.501s-81.5 -31 -131.5 -31c-38.667 0 -76.5 5.83301 -113.5 17.5s-66.833 27.167 -89.5 46.5l47 104c26.667 -15.333 53.5 -27.166 80.5 -35.499
s52.167 -12.5 75.5 -12.5c36 0 64 11 84 33s30 53 30 93c0 74 -43 114 -129 120l-141 10v246h-72v114h147h299v-114h-242v-142l32 -2c77.333 -5.33301 137 -27.833 179 -67.5z" />
    <glyph glyph-name="uni01BD" unicode="&#x1bd;" horiz-adv-x="444" 
d="M365 290.5c35.333 -28.333 52.999 -69.168 52.999 -122.501c0 -57.333 -19.167 -101.666 -57.5 -132.999s-92.166 -47 -161.499 -47c-36 0 -70.167 4.16699 -102.5 12.5s-59.5 20.166 -81.5 35.499l44 101c22 -10.667 45.333 -19 70 -25s48 -9 70 -9c56 0 84 22 84 66
c0 21.333 -7.33301 37.5 -22 48.5s-39 17.833 -73 20.5l-130 9v187h-61v112h128h269v-112h-208v-92l18 -1c72 -5.33301 125.667 -22.166 161 -50.499z" />
    <glyph glyph-name="uni01BE" unicode="&#x1be;" horiz-adv-x="473" 
d="M126.5 4.5c-35 10.333 -65.168 24.165 -90.501 41.498l44 104c49.333 -32 100 -48 152 -48c52.667 0 79 18 79 54c0 14.667 -5.33301 26.334 -16 35.001s-27 18.334 -49 29.001c-23.333 11.333 -42.666 22.166 -57.999 32.499s-28.5 25.333 -39.5 45
s-16.5 44.5 -16.5 74.5v62h-77v112h78v148h131v-148h139v-112h-139v-58c0 -14.667 5.33301 -26.5 16 -35.5s27 -19.167 49 -30.5c22 -10.667 40.333 -21.167 55 -31.5s27.167 -24.5 37.5 -42.5s15.5 -40.333 15.5 -67c0 -57.333 -18 -101.666 -54 -132.999
s-86.333 -47 -151 -47c-35.333 0 -70.5 5.16699 -105.5 15.5z" />
    <glyph glyph-name="uni01BF" unicode="&#x1bf;" horiz-adv-x="534" 
d="M455.5 501.5c28.333 -37.667 42.502 -90.832 42.502 -159.499c0 -43.333 -6.83301 -81.833 -20.5 -115.5s-36.334 -66.834 -68.001 -99.501s-76.834 -70 -135.501 -112l-76 -54v-168h-132v753h116v-85c34 64.667 85 97 153 97c52 0 92.167 -18.833 120.5 -56.5z
M340.002 229.502c15.333 25.667 23.001 57.833 23.001 96.5c0 74 -23.333 111 -70 111c-32 0 -63.667 -17.667 -95 -53v-281l57 41c41.333 31.333 69.666 59.833 84.999 85.5z" />
    <glyph glyph-name="uni01C0" unicode="&#x1c0;" horiz-adv-x="262" 
d="M74 770h114v-770h-114v770z" />
    <glyph glyph-name="uni01C1" unicode="&#x1c1;" horiz-adv-x="419" 
d="M74 770h114v-770h-114v770zM231 770h114v-770h-114v770z" />
    <glyph glyph-name="uni01C2" unicode="&#x1c2;" horiz-adv-x="324" 
d="M219 446v-121h101v-110h-101v-215h-114v215h-101v110h101v121h-101v110h101v214h114v-214h101v-110h-101z" />
    <glyph glyph-name="uni01C3" unicode="&#x1c3;" horiz-adv-x="342" 
d="M97 770h146l-20 -561h-104zM113 10c-14 14 -21 32.999 -21 56.999c0 24.667 6.83301 43.834 20.5 57.501s33.167 20.5 58.5 20.5c24.667 0 44 -6.83301 58 -20.5s21 -32.5 21 -56.5c0 -24.667 -6.83301 -44 -20.5 -58s-33.167 -21 -58.5 -21c-24.667 0 -44 7 -58 21z" />
    <glyph glyph-name="uni01C4" unicode="&#x1c4;" horiz-adv-x="1144" 
d="M824 781l-111 133v12h93l81 -81l80 81h90v-12l-111 -133h-122zM527 633c52.667 -60.667 79 -150.667 79 -270c0 -120 -26.333 -210.5 -79 -271.5s-129 -91.5 -229 -91.5h-226v724h226c100 0 176.333 -30.333 229 -91zM1116 116v-116h-461v117l305 491h-295v116h445v-116
l-305 -492h311zM468 362c0 162.667 -57.333 244 -172 244h-90v-488h89c115.333 0 173 81.333 173 244z" />
    <glyph glyph-name="uni01C5" unicode="&#x1c5;" horiz-adv-x="1073" 
d="M792 611l-111 133v12h93l81 -81l80 81h90v-12l-111 -133h-122zM527 633c52.667 -60.667 79 -150.667 79 -270c0 -120 -26.333 -210.5 -79 -271.5s-129 -91.5 -229 -91.5h-226v724h226c100 0 176.333 -30.333 229 -91zM468 362c0 162.667 -57.333 244 -172 244h-90v-488
h89c115.333 0 173 81.333 173 244zM1050 111v-111h-390v111l239 324h-229v111h374v-111l-239 -324h245z" />
    <glyph glyph-name="uni01C6" unicode="&#x1c6;" horiz-adv-x="977" 
d="M477 770l0.000976562 -737.001v-33h-116v77c-31.333 -59.333 -78 -89 -140 -89c-58.667 0 -104.167 24.667 -136.5 74s-48.5 119.333 -48.5 210s16.167 161 48.5 211s78.166 75 137.499 75c25.333 0 48.5 -4.66699 69.5 -14s38.833 -22.666 53.5 -39.999v266h132z
M345.001 150.999l0.000976562 248.001c-11.333 13.333 -24.5 23.666 -39.5 30.999s-30.5 11 -46.5 11c-58.667 0 -88 -54.667 -88 -164c0 -112 30.667 -168 92 -168c29.333 0 56.666 14 81.999 42zM954.002 111v-111h-390v111l239 324h-229v111h374v-111l-239 -324h245z
M912.002 784v-10l-97 -159h-116l-97 159v10h87l69 -93l70 93h84z" />
    <glyph glyph-name="uni01C7" unicode="&#x1c7;" horiz-adv-x="927" 
d="M206 119h270v-119h-404v724h134v-605zM860 724l-0.000976562 -546c0 -60.667 -16.667 -107.5 -50 -140.5s-80.666 -49.5 -141.999 -49.5c-28.667 0 -56 3.5 -82 10.5s-48.667 17.167 -68 30.5l46 105c36 -18 68.667 -27 98 -27c42.667 0 64 27 64 81v536h134z" />
    <glyph glyph-name="uni01C8" unicode="&#x1c8;" horiz-adv-x="761" 
d="M476 119v-119h-404v724h134v-605h270zM427 -115c36.667 13.333 64.333 26.832 83 40.499s31.834 30.167 39.501 49.5s11.5 45 11.5 77v494h132v-498c0 -50.667 -6.83301 -92.167 -20.5 -124.5s-36.334 -59.666 -68.001 -81.999s-76.5 -43.5 -134.5 -63.5z
M570.999 638.499c-13.333 13.667 -20 32.167 -20 55.5c0 24.667 6.66699 43.667 20 57s32 20 56 20s42.667 -6.83301 56 -20.5s20 -32.167 20 -55.5c0 -24.667 -6.66699 -43.667 -20 -57s-32 -20 -56 -20s-42.667 6.83301 -56 20.5z" />
    <glyph glyph-name="uni01C9" unicode="&#x1c9;" horiz-adv-x="565" 
d="M64 134l-0.000976562 636h132v-605c0 -19.333 3.5 -33.333 10.5 -42s18.167 -13 33.5 -13c10.667 0 21.334 1 32.001 3l8 -110c-25.333 -6 -51 -9 -77 -9c-92.667 0 -139 46.667 -139 140zM230.999 -115c36.667 13.333 64.333 26.832 83 40.499
s31.834 30.167 39.501 49.5s11.5 45 11.5 77v494h132v-498c0 -50.667 -6.83301 -92.167 -20.5 -124.5s-36.334 -59.666 -68.001 -81.999s-76.5 -43.5 -134.5 -63.5zM374.998 638.499c-13.333 13.667 -20 32.167 -20 55.5c0 24.667 6.66699 43.667 20 57s32 20 56 20
s42.667 -6.83301 56 -20.5s20 -32.167 20 -55.5c0 -24.667 -6.66699 -43.667 -20 -57s-32 -20 -56 -20s-42.667 6.83301 -56 20.5z" />
    <glyph glyph-name="uni01CA" unicode="&#x1ca;" horiz-adv-x="1064" 
d="M477 724h131v-724h-129l-276 487v-487h-131v724h129l276 -485v485zM997 724l-0.000976562 -546c0 -60.667 -16.667 -107.5 -50 -140.5s-80.666 -49.5 -141.999 -49.5c-28.667 0 -56 3.5 -82 10.5s-48.667 17.167 -68 30.5l46 105c36 -18 68.667 -27 98 -27
c42.667 0 64 27 64 81v536h134z" />
    <glyph glyph-name="uni01CB" unicode="&#x1cb;" horiz-adv-x="948" 
d="M608 724v-724h-129l-276 487v-487h-131v724h129l276 -485v485h131zM614 -115c36.667 13.333 64.333 26.832 83 40.499s31.834 30.167 39.501 49.5s11.5 45 11.5 77v494h132v-498c0 -50.667 -6.83301 -92.167 -20.5 -124.5s-36.334 -59.666 -68.001 -81.999
s-76.5 -43.5 -134.5 -63.5zM757.999 638.499c-13.333 13.667 -20 32.167 -20 55.5c0 24.667 6.66699 43.667 20 57s32 20 56 20s42.667 -6.83301 56 -20.5s20 -32.167 20 -55.5c0 -24.667 -6.66699 -43.667 -20 -57s-32 -20 -56 -20s-42.667 6.83301 -56 20.5z" />
    <glyph glyph-name="uni01CC" unicode="&#x1cc;" horiz-adv-x="818" 
d="M449 513.5c26.667 -29.667 39.999 -71.167 39.999 -124.5v-389h-132v369c0 45.333 -24 68 -72 68c-32 0 -61 -11.667 -87 -35v-402h-132v546h116v-68c40.667 53.333 92 80 154 80c48.667 0 86.334 -14.833 113.001 -44.5zM483.999 -115
c36.667 13.333 64.333 26.832 83 40.499s31.834 30.167 39.501 49.5s11.5 45 11.5 77v494h132v-498c0 -50.667 -6.83301 -92.167 -20.5 -124.5s-36.334 -59.666 -68.001 -81.999s-76.5 -43.5 -134.5 -63.5zM627.998 638.499c-13.333 13.667 -20 32.167 -20 55.5
c0 24.667 6.66699 43.667 20 57s32 20 56 20s42.667 -6.83301 56 -20.5s20 -32.167 20 -55.5c0 -24.667 -6.66699 -43.667 -20 -57s-32 -20 -56 -20s-42.667 6.83301 -56 20.5z" />
    <glyph glyph-name="uni01CD" unicode="&#x1cd;" horiz-adv-x="636" 
d="M257 781l-111 133v12h93l81 -81l80 81h90v-12l-111 -133h-122zM435 158h-236l-42 -158h-140l228 724h146l228 -724h-141zM404 273l-87 323l-87 -323h174z" />
    <glyph glyph-name="uni01CE" unicode="&#x1ce;" horiz-adv-x="502" 
d="M390.5 513.5c35 -29.667 52.501 -71.165 52.501 -124.498v-389h-115v80c-30.667 -60 -81.334 -90 -152.001 -90c-48.667 0 -86.167 14.167 -112.5 42.5s-39.5 68.166 -39.5 119.499c0 64.667 22.833 112.167 68.5 142.5s119.167 46.166 220.5 47.499v31
c0 46.667 -31 70 -93 70c-41.333 0 -81 -9.33301 -119 -28l-32 99c55.333 29.333 113.333 44 174 44c63.333 0 112.5 -14.833 147.5 -44.5zM313.001 150.002l-0.000976562 106c-57.333 -1.33301 -99 -9.5 -125 -24.5s-39 -38.5 -39 -70.5c0 -41.333 20 -62 60 -62
c38.667 0 73.334 17 104.001 51zM396 784.002v-10l-97 -159h-116l-97 159v10h87l69 -93l70 93h84z" />
    <glyph glyph-name="uni01CF" unicode="&#x1cf;" horiz-adv-x="282" 
d="M313 926v-12l-111 -133h-122l-111 133v12h93l81 -81l80 81h90zM74 724h134v-724h-134v724z" />
    <glyph glyph-name="uni01D0" unicode="&#x1d0;" horiz-adv-x="268" 
d="M68 546h132v-546h-132v546zM289 784v-10l-97 -159h-116l-97 159v10h87l69 -93l70 93h84z" />
    <glyph glyph-name="uni01D1" unicode="&#x1d1;" horiz-adv-x="668" 
d="M273 781l-111 133v12h93l81 -81l80 81h90v-12l-111 -133h-122zM550.5 642c49.667 -62.667 74.5 -156 74.5 -280s-24.833 -217.333 -74.5 -280s-121.834 -94 -216.501 -94s-166.834 31.333 -216.501 94s-74.5 156 -74.5 280s24.833 217.333 74.5 280
s121.834 94 216.501 94s166.834 -31.333 216.501 -94zM487 362c0 170.667 -51 256 -153 256s-153 -85.333 -153 -256s51 -256 153 -256s153 85.333 153 256z" />
    <glyph glyph-name="uni01D2" unicode="&#x1d2;" horiz-adv-x="526" 
d="M94.5 60c-39 48 -58.501 119 -58.501 213s19.5 165 58.5 213s95.167 72 168.5 72s129.5 -24 168.5 -72s58.5 -119 58.5 -213s-19.667 -165 -59 -213s-95.666 -72 -168.999 -72c-72.667 0 -128.5 24 -167.5 72zM354.999 273c0 112.667 -30.667 169 -92 169
s-92 -56.333 -92 -169s30.333 -169 91 -169c62 0 93 56.333 93 169zM417.999 784v-10l-97 -159h-116l-97 159v10h87l69 -93l70 93h84z" />
    <glyph glyph-name="uni01D3" unicode="&#x1d3;" horiz-adv-x="646" 
d="M262 781l-111 133v12h93l81 -81l80 81h90v-12l-111 -133h-122zM579 724l0.000976562 -484c0 -80 -22.5 -142 -67.5 -186s-108.167 -66 -189.5 -66c-80.667 0 -143.334 22 -188.001 66s-67 106 -67 186v484h134v-474c0 -96 40.333 -144 121 -144c82 0 123 48 123 144v474
h134z" />
    <glyph glyph-name="uni01D4" unicode="&#x1d4;" horiz-adv-x="542" 
d="M476 546l-0.000976562 -546h-116v75c-36.667 -58 -87 -87 -151 -87c-47.333 0 -84.166 14.667 -110.499 44s-39.5 70.666 -39.5 123.999v390h132v-369c0 -45.333 23 -68 69 -68c16.667 0 31.667 3.33301 45 10s26.333 17.334 39 32.001v395h132zM422.999 784v-10
l-97 -159h-116l-97 159v10h87l69 -93l70 93h84z" />
    <glyph glyph-name="uni01D5" unicode="&#x1d5;" horiz-adv-x="646" 
d="M169 1008h310v-86h-310v86zM186.5 775.5c-11.667 12.333 -17.5 28.833 -17.5 49.5c0 21.333 5.66699 38 17 50s27.333 18 48 18s36.667 -6 48 -18s17 -28.333 17 -49c0 -22 -5.66699 -39 -17 -51s-27.333 -18 -48 -18c-20 0 -35.833 6.16699 -47.5 18.5zM364.5 775.5
c-11.667 12.333 -17.5 28.833 -17.5 49.5c0 21.333 5.66699 38 17 50s27.333 18 48 18s36.667 -6 48 -18s17 -28.333 17 -49c0 -22 -5.66699 -39 -17 -51s-27.333 -18 -48 -18c-20 0 -35.833 6.16699 -47.5 18.5zM134 54c-44.667 44 -66.999 106 -66.999 186v484h134v-474
c0 -96 40.333 -144 121 -144c82 0 123 48 123 144v474h134v-484c0 -80 -22.5 -142 -67.5 -186s-108.167 -66 -189.5 -66c-80.667 0 -143.334 22 -188.001 66z" />
    <glyph glyph-name="uni01D6" unicode="&#x1d6;" horiz-adv-x="542" 
d="M424 752h-310v86h310v-86zM131.5 605.5c-11.667 12.333 -17.5 28.833 -17.5 49.5c0 21.333 5.66699 38 17 50s27.333 18 48 18s36.667 -6 48 -18s17 -28.333 17 -49c0 -22 -5.66699 -39 -17 -51s-27.333 -18 -48 -18c-20 0 -35.833 6.16699 -47.5 18.5zM309 705
c11.333 12 27.333 18 48 18s36.667 -6 48 -18s17 -28.333 17 -49c0 -22 -5.66699 -39 -17 -51s-27.333 -18 -48 -18c-20 0 -35.833 6.16699 -47.5 18.5s-17.5 28.833 -17.5 49.5c0 21.333 5.66699 38 17 50zM476 546l-0.000976562 -546h-116v75
c-36.667 -58 -87 -87 -151 -87c-47.333 0 -84.166 14.667 -110.499 44s-39.5 70.666 -39.5 123.999v390h132v-369c0 -45.333 23 -68 69 -68c16.667 0 31.667 3.33301 45 10s26.333 17.334 39 32.001v395h132z" />
    <glyph glyph-name="uni01D7" unicode="&#x1d7;" horiz-adv-x="646" 
d="M280 919l67 127h111v-10l-96 -127h-82v10zM186.5 775.5c-11.667 12.333 -17.5 28.833 -17.5 49.5c0 21.333 5.66699 38 17 50s27.333 18 48 18s36.667 -6 48 -18s17 -28.333 17 -49c0 -22 -5.66699 -39 -17 -51s-27.333 -18 -48 -18c-20 0 -35.833 6.16699 -47.5 18.5z
M364.5 775.5c-11.667 12.333 -17.5 28.833 -17.5 49.5c0 21.333 5.66699 38 17 50s27.333 18 48 18s36.667 -6 48 -18s17 -28.333 17 -49c0 -22 -5.66699 -39 -17 -51s-27.333 -18 -48 -18c-20 0 -35.833 6.16699 -47.5 18.5zM134 54c-44.667 44 -66.999 106 -66.999 186
v484h134v-474c0 -96 40.333 -144 121 -144c82 0 123 48 123 144v474h134v-484c0 -80 -22.5 -142 -67.5 -186s-108.167 -66 -189.5 -66c-80.667 0 -143.334 22 -188.001 66z" />
    <glyph glyph-name="uni01D8" unicode="&#x1d8;" horiz-adv-x="542" 
d="M307 739h-82v10l67 127h111v-10zM131.5 605.5c-11.667 12.333 -17.5 28.833 -17.5 49.5c0 21.333 5.66699 38 17 50s27.333 18 48 18s36.667 -6 48 -18s17 -28.333 17 -49c0 -22 -5.66699 -39 -17 -51s-27.333 -18 -48 -18c-20 0 -35.833 6.16699 -47.5 18.5zM309 705
c11.333 12 27.333 18 48 18s36.667 -6 48 -18s17 -28.333 17 -49c0 -22 -5.66699 -39 -17 -51s-27.333 -18 -48 -18c-20 0 -35.833 6.16699 -47.5 18.5s-17.5 28.833 -17.5 49.5c0 21.333 5.66699 38 17 50zM476 546l-0.000976562 -546h-116v75
c-36.667 -58 -87 -87 -151 -87c-47.333 0 -84.166 14.667 -110.499 44s-39.5 70.666 -39.5 123.999v390h132v-369c0 -45.333 23 -68 69 -68c16.667 0 31.667 3.33301 45 10s26.333 17.334 39 32.001v395h132z" />
    <glyph glyph-name="uni01D9" unicode="&#x1d9;" horiz-adv-x="646" 
d="M268 911l-101 125v10h83l76 -75l75 75h80v-10l-101 -125h-112zM186 875c11.333 12 27.333 18 48 18s36.667 -6 48 -18s17 -28.333 17 -49c0 -22 -5.66699 -39 -17 -51s-27.333 -18 -48 -18c-20 0 -35.833 6.16699 -47.5 18.5s-17.5 28.833 -17.5 49.5
c0 21.333 5.66699 38 17 50zM364 875c11.333 12 27.333 18 48 18s36.667 -6 48 -18s17 -28.333 17 -49c0 -22 -5.66699 -39 -17 -51s-27.333 -18 -48 -18c-20 0 -35.833 6.16699 -47.5 18.5s-17.5 28.833 -17.5 49.5c0 21.333 5.66699 38 17 50zM579 724l0.000976562 -484
c0 -80 -22.5 -142 -67.5 -186s-108.167 -66 -189.5 -66c-80.667 0 -143.334 22 -188.001 66s-67 106 -67 186v484h134v-474c0 -96 40.333 -144 121 -144c82 0 123 48 123 144v474h134z" />
    <glyph glyph-name="uni01DA" unicode="&#x1da;" horiz-adv-x="542" 
d="M211 732l-99 139v10h87l72 -82l71 82h84v-10l-99 -139h-116zM131 705c11.333 12 27.333 18 48 18s36.667 -6 48 -18s17 -28.333 17 -49c0 -22 -5.66699 -39 -17 -51s-27.333 -18 -48 -18c-20 0 -35.833 6.16699 -47.5 18.5s-17.5 28.833 -17.5 49.5
c0 21.333 5.66699 38 17 50zM309 705c11.333 12 27.333 18 48 18s36.667 -6 48 -18s17 -28.333 17 -49c0 -22 -5.66699 -39 -17 -51s-27.333 -18 -48 -18c-20 0 -35.833 6.16699 -47.5 18.5s-17.5 28.833 -17.5 49.5c0 21.333 5.66699 38 17 50zM476 546l-0.000976562 -546
h-116v75c-36.667 -58 -87 -87 -151 -87c-47.333 0 -84.166 14.667 -110.499 44s-39.5 70.666 -39.5 123.999v390h132v-369c0 -45.333 23 -68 69 -68c16.667 0 31.667 3.33301 45 10s26.333 17.334 39 32.001v395h132z" />
    <glyph glyph-name="uni01DB" unicode="&#x1db;" horiz-adv-x="646" 
d="M196 1036v10h111l61 -127v-10h-82zM186.5 775.5c-11.667 12.333 -17.5 28.833 -17.5 49.5c0 21.333 5.66699 38 17 50s27.333 18 48 18s36.667 -6 48 -18s17 -28.333 17 -49c0 -22 -5.66699 -39 -17 -51s-27.333 -18 -48 -18c-20 0 -35.833 6.16699 -47.5 18.5z
M364.5 775.5c-11.667 12.333 -17.5 28.833 -17.5 49.5c0 21.333 5.66699 38 17 50s27.333 18 48 18s36.667 -6 48 -18s17 -28.333 17 -49c0 -22 -5.66699 -39 -17 -51s-27.333 -18 -48 -18c-20 0 -35.833 6.16699 -47.5 18.5zM134 54c-44.667 44 -66.999 106 -66.999 186
v484h134v-474c0 -96 40.333 -144 121 -144c82 0 123 48 123 144v474h134v-484c0 -80 -22.5 -142 -67.5 -186s-108.167 -66 -189.5 -66c-80.667 0 -143.334 22 -188.001 66z" />
    <glyph glyph-name="uni01DC" unicode="&#x1dc;" horiz-adv-x="542" 
d="M231 739l-90 127v10h111l61 -127v-10h-82zM131.5 605.5c-11.667 12.333 -17.5 28.833 -17.5 49.5c0 21.333 5.66699 38 17 50s27.333 18 48 18s36.667 -6 48 -18s17 -28.333 17 -49c0 -22 -5.66699 -39 -17 -51s-27.333 -18 -48 -18c-20 0 -35.833 6.16699 -47.5 18.5z
M309 705c11.333 12 27.333 18 48 18s36.667 -6 48 -18s17 -28.333 17 -49c0 -22 -5.66699 -39 -17 -51s-27.333 -18 -48 -18c-20 0 -35.833 6.16699 -47.5 18.5s-17.5 28.833 -17.5 49.5c0 21.333 5.66699 38 17 50zM476 546l-0.000976562 -546h-116v75
c-36.667 -58 -87 -87 -151 -87c-47.333 0 -84.166 14.667 -110.499 44s-39.5 70.666 -39.5 123.999v390h132v-369c0 -45.333 23 -68 69 -68c16.667 0 31.667 3.33301 45 10s26.333 17.334 39 32.001v395h132z" />
    <glyph glyph-name="uni01DD" unicode="&#x1dd;" horiz-adv-x="510" 
d="M412 483c42.667 -49.333 64.0029 -119.332 64.0029 -209.999s-19.833 -160.834 -59.5 -210.501s-95.834 -74.5 -168.501 -74.5c-69.333 0 -123 22.833 -161 68.5s-57 110.167 -57 193.5c0 24.667 2 46 6 64h307c-10 84 -51.667 126 -125 126
c-40.667 0 -81.667 -10.667 -123 -32l-45 96c25.333 17.333 53.666 30.5 84.999 39.5s63.666 13.5 96.999 13.5c77.333 0 137.333 -24.667 180 -74zM343.003 227.001h-181.999c1.33301 -40 9.66602 -70.833 24.999 -92.5s37 -32.5 65 -32.5c53.333 0 84 41.667 92 125z" />
    <glyph glyph-name="uni01DE" unicode="&#x1de;" horiz-adv-x="636" 
d="M473 957h-310v87h310v-87zM177 791c-12 12.667 -18 29.667 -18 51c0 22.667 5.83301 40.167 17.5 52.5s28.167 18.5 49.5 18.5s38 -6.33301 50 -19s18 -29.667 18 -51c0 -22.667 -6 -40.167 -18 -52.5s-28.667 -18.5 -50 -18.5c-20.667 0 -37 6.33301 -49 19zM459 894
c12 -12.667 18 -29.667 18 -51c0 -22.667 -6 -40.167 -18 -52.5s-28.667 -18.5 -50 -18.5c-20.667 0 -37 6.33301 -49 19s-18 29.667 -18 51c0 22.667 5.83301 40.167 17.5 52.5s28.167 18.5 49.5 18.5s38 -6.33301 50 -19zM435 158h-236l-42 -158h-140l228 724h146
l228 -724h-141zM404 273l-87 323l-87 -323h174z" />
    <glyph glyph-name="uni01DF" unicode="&#x1df;" horiz-adv-x="502" 
d="M396 800h-310v87h310v-87zM100 633c-12 12.667 -18 29.667 -18 51c0 22.667 5.83301 40.167 17.5 52.5s28.167 18.5 49.5 18.5s38 -6.33301 50 -19s18 -29.667 18 -51c0 -22.667 -6 -40.167 -18 -52.5s-28.667 -18.5 -50 -18.5c-20.667 0 -37 6.33301 -49 19zM382 736
c12 -12.667 18 -29.667 18 -51c0 -22.667 -6 -40.167 -18 -52.5s-28.667 -18.5 -50 -18.5c-20.667 0 -37 6.33301 -49 19s-18 29.667 -18 51c0 22.667 5.83301 40.167 17.5 52.5s28.167 18.5 49.5 18.5s38 -6.33301 50 -19zM390.5 513.5
c35 -29.667 52.501 -71.165 52.501 -124.498v-389h-115v80c-30.667 -60 -81.334 -90 -152.001 -90c-48.667 0 -86.167 14.167 -112.5 42.5s-39.5 68.166 -39.5 119.499c0 64.667 22.833 112.167 68.5 142.5s119.167 46.166 220.5 47.499v31c0 46.667 -31 70 -93 70
c-41.333 0 -81 -9.33301 -119 -28l-32 99c55.333 29.333 113.333 44 174 44c63.333 0 112.5 -14.833 147.5 -44.5zM313.001 150.002l-0.000976562 106c-57.333 -1.33301 -99 -9.5 -125 -24.5s-39 -38.5 -39 -70.5c0 -41.333 20 -62 60 -62c38.667 0 73.334 17 104.001 51z
" />
    <glyph glyph-name="uni01E0" unicode="&#x1e0;" horiz-adv-x="636" 
d="M473 957h-310v87h310v-87zM262 910c13.333 13.333 32 20 56 20s42.667 -6.83301 56 -20.5s20 -32.167 20 -55.5c0 -24.667 -6.66699 -43.667 -20 -57s-32 -20 -56 -20s-42.667 6.83301 -56 20.5s-20 32.167 -20 55.5c0 24.667 6.66699 43.667 20 57zM435 158h-236
l-42 -158h-140l228 724h146l228 -724h-141zM404 273l-87 323l-87 -323h174z" />
    <glyph glyph-name="uni01E1" unicode="&#x1e1;" horiz-adv-x="502" 
d="M390.5 513.5c35 -29.667 52.501 -71.165 52.501 -124.498v-389h-115v80c-30.667 -60 -81.334 -90 -152.001 -90c-48.667 0 -86.167 14.167 -112.5 42.5s-39.5 68.166 -39.5 119.499c0 64.667 22.833 112.167 68.5 142.5s119.167 46.166 220.5 47.499v31
c0 46.667 -31 70 -93 70c-41.333 0 -81 -9.33301 -119 -28l-32 99c55.333 29.333 113.333 44 174 44c63.333 0 112.5 -14.833 147.5 -44.5zM313.001 150.002l-0.000976562 106c-57.333 -1.33301 -99 -9.5 -125 -24.5s-39 -38.5 -39 -70.5c0 -41.333 20 -62 60 -62
c38.667 0 73.334 17 104.001 51zM185 638.502c-13.333 13.667 -20 32.167 -20 55.5c0 24.667 6.66699 43.667 20 57s32 20 56 20s42.667 -6.83301 56 -20.5s20 -32.167 20 -55.5c0 -24.667 -6.66699 -43.667 -20 -57s-32 -20 -56 -20s-42.667 6.83301 -56 20.5zM86 896.002
h310v-87h-310v87z" />
    <glyph glyph-name="uni01E2" unicode="&#x1e2;" horiz-adv-x="874" 
d="M631 808h-310v87h310v-87zM850 118v-118h-428v149h-220l-70 -149h-142l346 724h134h365v-118h-283v-176h204v-119h-204v-193h298zM422 264v357l-167 -357h167z" />
    <glyph glyph-name="uni01E3" unicode="&#x1e3;" horiz-adv-x="777" 
d="M741 232h-304.001c9.33301 -84 50.333 -126 123 -126c36.667 0 77.334 10.667 122.001 32l45 -96c-25.333 -16.667 -53.666 -29.667 -84.999 -39s-63.333 -14 -96 -14c-44 0 -82.5 8.5 -115.5 25.5s-59.5 42.167 -79.5 75.5c-26.667 -34.667 -54.167 -60 -82.5 -76
s-59.5 -24 -93.5 -24c-48 0 -85.167 14 -111.5 42s-39.5 67.667 -39.5 119c0 63.333 22.5 109.5 67.5 138.5s117.833 44.167 218.5 45.5v38c0 46.667 -30.333 70 -91 70c-40.667 0 -80 -9.33301 -118 -28l-32 99c25.333 14 53.166 24.833 83.499 32.5
s60.166 11.5 89.499 11.5c32.667 0 61 -5.33301 85 -16s43 -26.334 57 -47.001c16.667 20.667 37.334 36.334 62.001 47.001s52.667 16 84 16c69.333 0 122.833 -22.833 160.5 -68.5s56.5 -110.167 56.5 -193.5c0 -24.667 -2 -46 -6 -64zM436.999 319h179
c-1.33301 40 -9.5 70.833 -24.5 92.5s-36.5 32.5 -64.5 32.5c-52.667 0 -82.667 -41.667 -90 -125zM319.999 166c-6.66699 28 -10.333 55.666 -11 82.999c-56 -1.33301 -96.667 -9.16602 -122 -23.499s-38 -36.833 -38 -67.5c0 -39.333 19.667 -59 59 -59
c40 0 77.333 22.333 112 67zM248 724.999h310v-87h-310v87z" />
    <glyph glyph-name="uni01E4" unicode="&#x1e4;" horiz-adv-x="625" 
d="M637 157h-64.002v-111c-25.333 -18.667 -56.166 -33 -92.499 -43s-74.833 -15 -115.5 -15c-102.667 0 -182 32.5 -238 97.5s-84 157.167 -84 276.5s28 211.5 84 276.5s135.333 97.5 238 97.5c40 0 77.5 -5 112.5 -15s64.167 -24 87.5 -42l-36 -105
c-60.667 29.333 -116 44 -166 44c-121.333 0 -182 -85.333 -182 -256s61.333 -256 184 -256c24.667 0 49.334 3.33301 74.001 10v41h-108v93h108v46h-110v117h244v-163h64v-93z" />
    <glyph glyph-name="uni01E5" unicode="&#x1e5;" horiz-adv-x="542" 
d="M546 -55h-73c-11.333 -52.667 -36.833 -93.167 -76.5 -121.5s-90.5 -42.5 -152.5 -42.5c-32 0 -63 3.66699 -93 11s-56 17.333 -78 30l33 94c42 -19.333 83.667 -29 125 -29c29.333 0 52.833 4.66699 70.5 14s30.167 24 37.5 44h-323v58h332v2v97
c-30 -42.667 -71.333 -64 -124 -64c-60 0 -106.5 22.5 -139.5 67.5s-49.5 108.833 -49.5 191.5c0 83.333 16.5 147.666 49.5 192.999s79.833 68 140.5 68c31.333 0 58.833 -6.66699 82.5 -20s42.5 -32.666 56.5 -57.999v66h116v-533v-10h66v-58zM348 200
l0.000976562 199.001c-11.333 13.333 -24.5 23.666 -39.5 30.999s-30.5 11 -46.5 11c-61.333 0 -92 -46.333 -92 -139c0 -96 32 -144 96 -144c29.333 0 56.666 14 81.999 42z" />
    <glyph glyph-name="Gcaron" unicode="&#x1e6;" horiz-adv-x="625" 
d="M279 781l-111 133v12h93l81 -81l80 81h90v-12l-111 -133h-122zM573 413l-0.00195312 -367c-25.333 -18.667 -56.166 -33 -92.499 -43s-74.833 -15 -115.5 -15c-102.667 0 -182 32.5 -238 97.5s-84 157.167 -84 276.5s28 211.5 84 276.5s135.333 97.5 238 97.5
c40 0 77.5 -5 112.5 -15s64.167 -24 87.5 -42l-36 -105c-60.667 29.333 -116 44 -166 44c-121.333 0 -182 -85.333 -182 -256s61.333 -256 184 -256c24.667 0 49.334 3.33301 74.001 10v180h-110v117h244z" />
    <glyph glyph-name="gcaron" unicode="&#x1e7;" horiz-adv-x="545" 
d="M479 546v-533.001c0 -73.333 -20.667 -130.333 -62 -171s-99.333 -61 -174 -61c-32 0 -63 3.66699 -93 11s-56 17.333 -78 30l36 102c42 -19.333 82.667 -29 122 -29c78 0 117 39.333 117 118v69c-30 -42.667 -71.333 -64 -124 -64c-59.333 0 -105.333 23.5 -138 70.5
s-49 113.167 -49 198.5c0 86 16.333 152.667 49 200s79 71 139 71c31.333 0 58.833 -6.66699 82.5 -20s42.5 -32.666 56.5 -57.999v66h116zM347 179.999l0.000976562 219.001c-11.333 13.333 -24.5 23.666 -39.5 30.999s-30.5 11 -46.5 11c-60 0 -90 -49.667 -90 -149
c0 -102.667 31.333 -154 94 -154c29.333 0 56.666 14 81.999 42zM423.001 784v-10l-97 -159h-116l-97 159v10h87l69 -93l70 93h84z" />
    <glyph glyph-name="uni01E8" unicode="&#x1e8;" horiz-adv-x="598" 
d="M250 781l-111 133v12h93l81 -81l80 81h90v-12l-111 -133h-122zM274 298l-68 -90v-208h-134v724h134v-339l232 339h159l-239 -315l254 -409h-159z" />
    <glyph glyph-name="uni01E9" unicode="&#x1e9;" horiz-adv-x="531" 
d="M71 827l-111 133v12h93l81 -81l80 81h90v-12l-111 -133h-122zM246 216l-48 -61v-155h-132v770h132v-446l162 222h151l-183 -228l197 -318h-151z" />
    <glyph glyph-name="uni01EA" unicode="&#x1ea;" horiz-adv-x="668" 
d="M399 -41c-14 -18 -21.001 -38.668 -21.001 -62.001c0 -28.667 13.667 -43 41 -43c17.333 0 34.666 4.33301 51.999 13l29 -65c-31.333 -20.667 -68.333 -31 -111 -31c-37.333 0 -66.333 8.83301 -87 26.5s-31 42.834 -31 75.501c0 42.667 18.333 81 55 115
c-92 2 -162.167 34.333 -210.5 97s-72.5 155 -72.5 277c0 124 24.833 217.333 74.5 280s121.834 94 216.501 94s166.834 -31.333 216.501 -94s74.5 -156 74.5 -280v-1c0 -176 -52.667 -292.333 -158 -349c-31.333 -17.333 -54 -35 -68 -53zM333.999 105.999
c102 0 153 85.333 153 256s-51 256 -153 256s-153 -85.333 -153 -256s51 -256 153 -256z" />
    <glyph glyph-name="uni01EB" unicode="&#x1eb;" horiz-adv-x="526" 
d="M307 -38.5c-14.667 -19 -21.999 -40.501 -21.999 -64.501c0 -28.667 14 -43 42 -43c16.667 0 33.667 4.33301 51 13l29 -65c-30.667 -20.667 -67.667 -31 -111 -31c-37.333 0 -66.333 8.83301 -87 26.5s-31 42.834 -31 75.501c0 43.333 18.667 82 56 116
c-64 6 -113 32.833 -147 80.5s-51 115.5 -51 203.5c0 94 19.5 165 58.5 213s95.167 72 168.5 72s129.5 -24 168.5 -72s58.5 -119 58.5 -213c0 -128.667 -37.333 -214 -112 -256c-32.667 -18 -56.334 -36.5 -71.001 -55.5zM262.001 103.999c62 0 93 56.333 93 169
s-30.667 169 -92 169s-92 -56.333 -92 -169s30.333 -169 91 -169z" />
    <glyph glyph-name="uni01EC" unicode="&#x1ec;" horiz-adv-x="668" 
d="M489 808h-310v87h310v-87zM399 -41c-14 -18 -21.001 -38.668 -21.001 -62.001c0 -28.667 13.667 -43 41 -43c17.333 0 34.666 4.33301 51.999 13l29 -65c-31.333 -20.667 -68.333 -31 -111 -31c-37.333 0 -66.333 8.83301 -87 26.5s-31 42.834 -31 75.501
c0 42.667 18.333 81 55 115c-92 2 -162.167 34.333 -210.5 97s-72.5 155 -72.5 277c0 124 24.833 217.333 74.5 280s121.834 94 216.501 94s166.834 -31.333 216.501 -94s74.5 -156 74.5 -280v-1c0 -176 -52.667 -292.333 -158 -349c-31.333 -17.333 -54 -35 -68 -53z
M333.999 105.999c102 0 153 85.333 153 256s-51 256 -153 256s-153 -85.333 -153 -256s51 -256 153 -256z" />
    <glyph glyph-name="uni01ED" unicode="&#x1ed;" horiz-adv-x="526" 
d="M307 -38.5c-14.667 -19 -21.999 -40.501 -21.999 -64.501c0 -28.667 14 -43 42 -43c16.667 0 33.667 4.33301 51 13l29 -65c-30.667 -20.667 -67.667 -31 -111 -31c-37.333 0 -66.333 8.83301 -87 26.5s-31 42.834 -31 75.501c0 43.333 18.667 82 56 116
c-64 6 -113 32.833 -147 80.5s-51 115.5 -51 203.5c0 94 19.5 165 58.5 213s95.167 72 168.5 72s129.5 -24 168.5 -72s58.5 -119 58.5 -213c0 -128.667 -37.333 -214 -112 -256c-32.667 -18 -56.334 -36.5 -71.001 -55.5zM262.001 103.999c62 0 93 56.333 93 169
s-30.667 169 -92 169s-92 -56.333 -92 -169s30.333 -169 91 -169zM108.001 724.999h310v-87h-310v87z" />
    <glyph glyph-name="uni01EE" unicode="&#x1ee;" horiz-adv-x="553" 
d="M190 781l-111 133v12h93l81 -81l80 81h90v-12l-111 -133h-122zM523 228c0 -53.333 -12.668 -98.001 -38.001 -134.001s-59.666 -62.667 -102.999 -80s-92 -26 -146 -26c-87.333 0 -164 18.667 -230 56l47 105c31.333 -14.667 60.833 -25.5 88.5 -32.5
s57.5 -10.5 89.5 -10.5c47.333 0 84.833 11.167 112.5 33.5s41.5 52.5 41.5 90.5c0 42.667 -16.667 72.167 -50 88.5s-82 24.5 -146 24.5h-40v95l163 170h-267v116h427v-117l-169 -171c146.667 -15.333 220 -84.666 220 -207.999z" />
    <glyph glyph-name="uni01EF" unicode="&#x1ef;" horiz-adv-x="469" 
d="M395 167.5c37.333 -32.333 56 -82.833 56 -151.5c0 -50.667 -12 -93.667 -36 -129s-55.833 -61.833 -95.5 -79.5s-83.167 -26.5 -130.5 -26.5c-75.333 0 -138.333 14 -189 42l47 103c44 -22.667 88 -34 132 -34c42.667 0 76.167 10.667 100.5 32s36.5 53 36.5 95
c0 46 -15 77.833 -45 95.5s-71 26.5 -123 26.5h-46v91l170 203h-245v111h386v-111l-174 -207c66.667 -8 118.667 -28.167 156 -60.5zM371 784v-10l-97 -159h-116l-97 159v10h87l69 -93l70 93h84z" />
    <glyph glyph-name="uni01F0" unicode="&#x1f0;" horiz-adv-x="268" 
d="M-66 -115c36.667 13.333 64.333 26.832 83 40.499s31.834 30.167 39.501 49.5s11.5 45 11.5 77v494h132v-498c0 -50.667 -6.83301 -92.167 -20.5 -124.5s-36.334 -59.666 -68.001 -81.999s-76.5 -43.5 -134.5 -63.5zM288.999 783.999v-10l-97 -159h-116l-97 159v10h87
l69 -93l70 93h84z" />
    <glyph glyph-name="uni01F1" unicode="&#x1f1;" horiz-adv-x="1144" 
d="M527 633c52.667 -60.667 79 -150.667 79 -270c0 -120 -26.333 -210.5 -79 -271.5s-129 -91.5 -229 -91.5h-226v724h226c100 0 176.333 -30.333 229 -91zM468 362c0 162.667 -57.333 244 -172 244h-90v-488h89c115.333 0 173 81.333 173 244zM1116 116v-116h-461v117
l305 491h-295v116h445v-116l-305 -492h311z" />
    <glyph glyph-name="uni01F2" unicode="&#x1f2;" horiz-adv-x="1073" 
d="M527 633c52.667 -60.667 79 -150.667 79 -270c0 -120 -26.333 -210.5 -79 -271.5s-129 -91.5 -229 -91.5h-226v724h226c100 0 176.333 -30.333 229 -91zM468 362c0 162.667 -57.333 244 -172 244h-90v-488h89c115.333 0 173 81.333 173 244zM1050 111v-111h-390v111
l239 324h-229v111h374v-111l-239 -324h245z" />
    <glyph glyph-name="uni01F3" unicode="&#x1f3;" horiz-adv-x="977" 
d="M477 770l0.000976562 -737.001v-33h-116v77c-31.333 -59.333 -78 -89 -140 -89c-58.667 0 -104.167 24.667 -136.5 74s-48.5 119.333 -48.5 210s16.167 161 48.5 211s78.166 75 137.499 75c25.333 0 48.5 -4.66699 69.5 -14s38.833 -22.666 53.5 -39.999v266h132z
M345.001 150.999l0.000976562 248.001c-11.333 13.333 -24.5 23.666 -39.5 30.999s-30.5 11 -46.5 11c-58.667 0 -88 -54.667 -88 -164c0 -112 30.667 -168 92 -168c29.333 0 56.666 14 81.999 42zM954.002 111v-111h-390v111l239 324h-229v111h374v-111l-239 -324h245z" />
    <glyph glyph-name="uni01F4" unicode="&#x1f4;" horiz-adv-x="625" 
d="M368 781h-106v12l133 133h143v-12zM573 413l-0.00195312 -367c-25.333 -18.667 -56.166 -33 -92.499 -43s-74.833 -15 -115.5 -15c-102.667 0 -182 32.5 -238 97.5s-84 157.167 -84 276.5s28 211.5 84 276.5s135.333 97.5 238 97.5c40 0 77.5 -5 112.5 -15
s64.167 -24 87.5 -42l-36 -105c-60.667 29.333 -116 44 -166 44c-121.333 0 -182 -85.333 -182 -256s61.333 -256 184 -256c24.667 0 49.334 3.33301 74.001 10v180h-110v117h244z" />
    <glyph glyph-name="uni01F5" unicode="&#x1f5;" horiz-adv-x="545" 
d="M479 546v-533.001c0 -73.333 -20.667 -130.333 -62 -171s-99.333 -61 -174 -61c-32 0 -63 3.66699 -93 11s-56 17.333 -78 30l36 102c42 -19.333 82.667 -29 122 -29c78 0 117 39.333 117 118v69c-30 -42.667 -71.333 -64 -124 -64c-59.333 0 -105.333 23.5 -138 70.5
s-49 113.167 -49 198.5c0 86 16.333 152.667 49 200s79 71 139 71c31.333 0 58.833 -6.66699 82.5 -20s42.5 -32.666 56.5 -57.999v66h116zM347 179.999l0.000976562 219.001c-11.333 13.333 -24.5 23.666 -39.5 30.999s-30.5 11 -46.5 11c-60 0 -90 -49.667 -90 -149
c0 -102.667 31.333 -154 94 -154c29.333 0 56.666 14 81.999 42zM206.001 625l86 159h133v-10l-123 -159h-96v10z" />
    <glyph glyph-name="uni01F6" unicode="&#x1f6;" horiz-adv-x="952" 
d="M878 419c5.33301 -46.667 8.00098 -92.666 8.00098 -137.999c0 -103.333 -18.667 -178 -56 -224s-91.666 -69 -162.999 -69c-80.667 0 -136.334 19.667 -167.001 59s-46 87.666 -46 144.999v117h-248v-309h-134v724h134v-297h248v297h134v-524v-2
c0 -24 5.66699 -44.833 17 -62.5s32.333 -26.5 63 -26.5s52.167 12.833 64.5 38.5s18.5 67.167 18.5 124.5c0 60 -2.83301 110.5 -8.5 151.5s-13.834 81.833 -24.501 122.5h137c10 -38 17.667 -80.333 23 -127z" />
    <glyph glyph-name="uni01F7" unicode="&#x1f7;" horiz-adv-x="539" 
d="M487.5 673.5c31.667 -41.667 47.499 -100.832 47.499 -177.499c0 -46 -6.83301 -86.5 -20.5 -121.5s-36.667 -69.333 -69 -103s-78.166 -71.834 -137.499 -114.501l-102 -72v-292h-134v931h128v-62c40 49.333 91.333 74 154 74c57.333 0 101.833 -20.833 133.5 -62.5z
M373.999 377.002c15.333 27.333 23.001 63.001 23.001 107.001c0 87.333 -27.667 131 -83 131c-19.333 0 -37.5 -4.16699 -54.5 -12.5s-34.833 -21.833 -53.5 -40.5v-333l83 60c41.333 31.333 69.666 60.666 84.999 87.999z" />
    <glyph glyph-name="uni01F8" unicode="&#x1f8;" horiz-adv-x="680" 
d="M311 781l-161 133v12h143l124 -133v-12h-106zM608 724v-724h-129l-276 487v-487h-131v724h129l276 -485v485h131z" />
    <glyph glyph-name="uni01F9" unicode="&#x1f9;" horiz-adv-x="550" 
d="M449 513.5c26.667 -29.667 39.999 -71.167 39.999 -124.5v-389h-132v369c0 45.333 -24 68 -72 68c-32 0 -61 -11.667 -87 -35v-402h-132v546h116v-68c40.667 53.333 92 80 154 80c48.667 0 86.334 -14.833 113.001 -44.5zM135.999 774v10h133l79 -159v-10h-96z" />
    <glyph glyph-name="Aringacute" unicode="&#x1fa;" horiz-adv-x="636" 
d="M351 910h-106v12l123 124h143v-12zM435 158h-236.002l-42 -158h-140l211 668c-26 22 -39 52.667 -39 92c0 37.333 11.333 66.333 34 87s54.334 31 95.001 31s72.334 -10.333 95.001 -31s34 -49.667 34 -87c0 -39.333 -13 -70 -39 -92l211 -668h-141zM268.998 760
c0 -38 16.333 -57 49 -57s49 19 49 57s-16.333 57 -49 57s-49 -19 -49 -57zM403.998 273l-87 323l-87 -323h174z" />
    <glyph glyph-name="aringacute" unicode="&#x1fb;" horiz-adv-x="502" 
d="M279 875h-82v10l67 127h111v-10zM146.5 633c-22.333 20.667 -33.5 49.667 -33.5 87s11.167 66.333 33.5 87s53.833 31 94.5 31s72.167 -10.333 94.5 -31s33.5 -49.667 33.5 -87s-11.167 -66.333 -33.5 -87s-53.833 -31 -94.5 -31s-72.167 10.333 -94.5 31zM192 720
c0 -38.667 16.333 -58 49 -58s49 19.333 49 58s-16.333 58 -49 58s-49 -19.333 -49 -58zM390.5 513.5c35 -29.667 52.501 -71.165 52.501 -124.498v-389h-115v80c-30.667 -60 -81.334 -90 -152.001 -90c-48.667 0 -86.167 14.167 -112.5 42.5s-39.5 68.166 -39.5 119.499
c0 64.667 22.833 112.167 68.5 142.5s119.167 46.166 220.5 47.499v31c0 46.667 -31 70 -93 70c-41.333 0 -81 -9.33301 -119 -28l-32 99c55.333 29.333 113.333 44 174 44c63.333 0 112.5 -14.833 147.5 -44.5zM313.001 150.002l-0.000976562 106
c-57.333 -1.33301 -99 -9.5 -125 -24.5s-39 -38.5 -39 -70.5c0 -41.333 20 -62 60 -62c38.667 0 73.334 17 104.001 51z" />
    <glyph glyph-name="AEacute" unicode="&#x1fc;" horiz-adv-x="874" 
d="M504 781h-106v12l133 133h143v-12zM850 118v-118h-428v149h-220l-70 -149h-142l346 724h134h365v-118h-283v-176h204v-119h-204v-193h298zM422 264v357l-167 -357h167z" />
    <glyph glyph-name="aeacute" unicode="&#x1fd;" horiz-adv-x="777" 
d="M741 232h-304.001c9.33301 -84 50.333 -126 123 -126c36.667 0 77.334 10.667 122.001 32l45 -96c-25.333 -16.667 -53.666 -29.667 -84.999 -39s-63.333 -14 -96 -14c-44 0 -82.5 8.5 -115.5 25.5s-59.5 42.167 -79.5 75.5c-26.667 -34.667 -54.167 -60 -82.5 -76
s-59.5 -24 -93.5 -24c-48 0 -85.167 14 -111.5 42s-39.5 67.667 -39.5 119c0 63.333 22.5 109.5 67.5 138.5s117.833 44.167 218.5 45.5v38c0 46.667 -30.333 70 -91 70c-40.667 0 -80 -9.33301 -118 -28l-32 99c25.333 14 53.166 24.833 83.499 32.5
s60.166 11.5 89.499 11.5c32.667 0 61 -5.33301 85 -16s43 -26.334 57 -47.001c16.667 20.667 37.334 36.334 62.001 47.001s52.667 16 84 16c69.333 0 122.833 -22.833 160.5 -68.5s56.5 -110.167 56.5 -193.5c0 -24.667 -2 -46 -6 -64zM436.999 319h179
c-1.33301 40 -9.5 70.833 -24.5 92.5s-36.5 32.5 -64.5 32.5c-52.667 0 -82.667 -41.667 -90 -125zM319.999 166c-6.66699 28 -10.333 55.666 -11 82.999c-56 -1.33301 -96.667 -9.16602 -122 -23.499s-38 -36.833 -38 -67.5c0 -39.333 19.667 -59 59 -59
c40 0 77.333 22.333 112 67zM341 624.999l86 159h133v-10l-123 -159h-96v10z" />
    <glyph glyph-name="Oslashacute" unicode="&#x1fe;" horiz-adv-x="668" 
d="M362 781h-106v12l133 133h143v-12zM654 724l-86 -113c38 -64 57 -147 57 -249c0 -124 -24.833 -217.333 -74.5 -280s-121.834 -94 -216.501 -94c-72 0 -131.667 20 -179 60l-41 -58h-100v10l86 113c-38 64 -57 147 -57 249c0 124 24.833 217.333 74.5 280
s121.834 94 216.501 94c72 0 131.667 -20 179 -60l41 58h100v-10zM177 362c0 -51.333 4 -94.667 12 -130l253 345c-24 30 -60 45 -108 45c-104.667 0 -157 -86.667 -157 -260zM491 361.999c0 52 -4 95.333 -12 130l-253 -345c24 -30 60 -45 108 -45
c104.667 0 157 86.667 157 260z" />
    <glyph glyph-name="oslashacute" unicode="&#x1ff;" horiz-adv-x="526" 
d="M519 546l-71.002 -88c28 -48.667 42 -110.334 42 -185.001c0 -94 -19.667 -165 -59 -213s-95.666 -72 -168.999 -72c-54 0 -98.333 14 -133 42l-27 -40h-95v10l71 88c-28 48.667 -42 110.334 -42 185.001c0 94 19.5 165 58.5 213s95.167 72 168.5 72
c54.667 0 99.334 -14 134.001 -42l27 40h95v-10zM164.998 273c0 -26.667 1.33301 -48.333 4 -65l159 213c-15.333 18 -37 27 -65 27c-65.333 0 -98 -58.333 -98 -175zM360.998 273.001c0 26.667 -1.33203 48.333 -3.99902 65l-159 -213c15.333 -18 36.666 -27 63.999 -27
c66 0 99 58.333 99 175zM200.999 625l86 159h133v-10l-123 -159h-96v10z" />
    <glyph glyph-name="uni0200" unicode="&#x200;" horiz-adv-x="636" 
d="M208 781l-111 133v12h119l76 -133v-12h-84zM373 781l-109 133v12h117l74 -133v-12h-82zM435 158h-236l-42 -158h-140l228 724h146l228 -724h-141zM404 273l-87 323l-87 -323h174z" />
    <glyph glyph-name="uni0201" unicode="&#x201;" horiz-adv-x="502" 
d="M390.5 513.5c35 -29.667 52.501 -71.165 52.501 -124.498v-389h-115v80c-30.667 -60 -81.334 -90 -152.001 -90c-48.667 0 -86.167 14.167 -112.5 42.5s-39.5 68.166 -39.5 119.499c0 64.667 22.833 112.167 68.5 142.5s119.167 46.166 220.5 47.499v31
c0 46.667 -31 70 -93 70c-41.333 0 -81 -9.33301 -119 -28l-32 99c55.333 29.333 113.333 44 174 44c63.333 0 112.5 -14.833 147.5 -44.5zM313.001 150.002l-0.000976562 106c-57.333 -1.33301 -99 -9.5 -125 -24.5s-39 -38.5 -39 -70.5c0 -41.333 20 -62 60 -62
c38.667 0 73.334 17 104.001 51zM142 615.002l-79 159v10h113l44 -159v-10h-78zM295 615.002l-79 159v10h113l44 -159v-10h-78z" />
    <glyph glyph-name="uni0202" unicode="&#x202;" horiz-adv-x="636" 
d="M235 791h-70.002c2 53.333 16.333 94.666 43 123.999s63.334 44 110.001 44s83.334 -14.667 110.001 -44s41 -70.666 43 -123.999h-73c-6.66699 50.667 -33.667 76 -81 76c-48 0 -75.333 -25.333 -82 -76zM434.998 158h-236l-42 -158h-140l228 724h146l228 -724h-141z
M403.998 273l-87 323l-87 -323h174z" />
    <glyph glyph-name="uni0203" unicode="&#x203;" horiz-adv-x="502" 
d="M390.5 513.5c35 -29.667 52.501 -71.165 52.501 -124.498v-389h-115v80c-30.667 -60 -81.334 -90 -152.001 -90c-48.667 0 -86.167 14.167 -112.5 42.5s-39.5 68.166 -39.5 119.499c0 64.667 22.833 112.167 68.5 142.5s119.167 46.166 220.5 47.499v31
c0 46.667 -31 70 -93 70c-41.333 0 -81 -9.33301 -119 -28l-32 99c55.333 29.333 113.333 44 174 44c63.333 0 112.5 -14.833 147.5 -44.5zM313.001 150.002l-0.000976562 106c-57.333 -1.33301 -99 -9.5 -125 -24.5s-39 -38.5 -39 -70.5c0 -41.333 20 -62 60 -62
c38.667 0 73.334 17 104.001 51zM351 745.002c26.667 -29.333 40.998 -70.666 42.998 -123.999h-73c-6.66699 50.667 -33.667 76 -81 76c-48 0 -75.333 -25.333 -82 -76h-70c2 53.333 16.333 94.666 43 123.999s63.334 44 110.001 44s83.334 -14.667 110.001 -44z" />
    </font>
</defs>
</svg>
